%TF.GenerationSoftware,KiCad,Pcbnew,9.0.7*%
%TF.CreationDate,2026-03-08T23:28:27+02:00*%
%TF.ProjectId,64korppu-E,36346b6f-7270-4707-952d-452e6b696361,rev?*%
%TF.SameCoordinates,Original*%
%TF.FileFunction,Copper,L3,Inr*%
%TF.FilePolarity,Positive*%
%FSLAX46Y46*%
G04 Gerber Fmt 4.6, Leading zero omitted, Abs format (unit mm)*
G04 Created by KiCad (PCBNEW 9.0.7) date 2026-03-08 23:28:27*
%MOMM*%
%LPD*%
G01*
G04 APERTURE LIST*
%TA.AperFunction,ComponentPad*%
%ADD10R,2.000000X2.000000*%
%TD*%
%TA.AperFunction,ComponentPad*%
%ADD11O,2.000000X2.000000*%
%TD*%
%TA.AperFunction,ComponentPad*%
%ADD12R,1.600000X1.600000*%
%TD*%
%TA.AperFunction,ComponentPad*%
%ADD13O,1.600000X1.600000*%
%TD*%
%TA.AperFunction,ComponentPad*%
%ADD14R,1.800000X1.800000*%
%TD*%
%TA.AperFunction,ComponentPad*%
%ADD15O,1.800000X1.800000*%
%TD*%
%TA.AperFunction,ComponentPad*%
%ADD16O,3.000000X2.000000*%
%TD*%
%TA.AperFunction,ComponentPad*%
%ADD17R,1.700000X1.700000*%
%TD*%
%TA.AperFunction,ComponentPad*%
%ADD18O,1.700000X1.700000*%
%TD*%
%TA.AperFunction,ComponentPad*%
%ADD19C,6.000000*%
%TD*%
%TA.AperFunction,ViaPad*%
%ADD20C,0.600000*%
%TD*%
%TA.AperFunction,Conductor*%
%ADD21C,0.250000*%
%TD*%
G04 APERTURE END LIST*
D10*
%TO.N,+5V*%
%TO.C,J3*%
X112000000Y-103000000D03*
D11*
X118000000Y-103000000D03*
%TO.N,GND*%
X115000000Y-108000000D03*
%TD*%
D12*
%TO.N,+5V*%
%TO.C,C4*%
X125000000Y-103000000D03*
D13*
%TO.N,GND*%
X127000000Y-103000000D03*
%TD*%
D14*
%TO.N,GND*%
%TO.C,J1*%
X108500000Y-154000000D03*
D15*
X115500000Y-154000000D03*
%TO.N,IEC_ATN*%
X107000000Y-150000000D03*
%TO.N,IEC_CLK*%
X112000000Y-146000000D03*
%TO.N,IEC_DATA*%
X117000000Y-150000000D03*
%TO.N,IEC_RESET*%
X112000000Y-150000000D03*
D16*
%TO.N,GND*%
X104500000Y-150000000D03*
X119500000Y-150000000D03*
%TD*%
D12*
%TO.N,IEC_ATN*%
%TO.C,R1*%
X108000000Y-110000000D03*
D13*
%TO.N,NANO_D2*%
X118160000Y-110000000D03*
%TD*%
D12*
%TO.N,IEC_CLK*%
%TO.C,R2*%
X108000000Y-115000000D03*
D13*
%TO.N,NANO_D3*%
X118160000Y-115000000D03*
%TD*%
D12*
%TO.N,IEC_DATA*%
%TO.C,R3*%
X108000000Y-120000000D03*
D13*
%TO.N,NANO_D4*%
X118160000Y-120000000D03*
%TD*%
D12*
%TO.N,IEC_RESET*%
%TO.C,R4*%
X108000000Y-125000000D03*
D13*
%TO.N,NANO_D5*%
X118160000Y-125000000D03*
%TD*%
D12*
%TO.N,+5V*%
%TO.C,R5*%
X108000000Y-130000000D03*
D13*
%TO.N,NANO_D2*%
X118160000Y-130000000D03*
%TD*%
D12*
%TO.N,+5V*%
%TO.C,R6*%
X108000000Y-135000000D03*
D13*
%TO.N,NANO_D3*%
X118160000Y-135000000D03*
%TD*%
D12*
%TO.N,+5V*%
%TO.C,R7*%
X108000000Y-140000000D03*
D13*
%TO.N,NANO_D4*%
X118160000Y-140000000D03*
%TD*%
D17*
%TO.N,N/C*%
%TO.C,U1*%
X135000000Y-112000000D03*
D18*
X137540000Y-112000000D03*
X135000000Y-114540000D03*
%TO.N,GND*%
X137540000Y-114540000D03*
%TO.N,N/C*%
X135000000Y-117080000D03*
X137540000Y-117080000D03*
%TO.N,GND*%
X135000000Y-119620000D03*
%TO.N,+5V*%
X137540000Y-119620000D03*
%TO.N,NANO_D2*%
X135000000Y-122160000D03*
%TO.N,N/C*%
X137540000Y-122160000D03*
%TO.N,NANO_D3*%
X135000000Y-124700000D03*
%TO.N,N/C*%
X137540000Y-124700000D03*
%TO.N,NANO_D4*%
X135000000Y-127240000D03*
%TO.N,LED_ANODE*%
X137540000Y-127240000D03*
%TO.N,NANO_D5*%
X135000000Y-129780000D03*
%TO.N,N/C*%
X137540000Y-129780000D03*
%TO.N,LATCH_595*%
X135000000Y-132320000D03*
%TO.N,N/C*%
X137540000Y-132320000D03*
%TO.N,FLOPPY_WDATA*%
X135000000Y-134860000D03*
%TO.N,FLOPPY_DSKCHG*%
X137540000Y-134860000D03*
%TO.N,FLOPPY_RDATA*%
X135000000Y-137400000D03*
%TO.N,FLOPPY_WPT*%
X137540000Y-137400000D03*
%TO.N,N/C*%
X135000000Y-139940000D03*
%TO.N,FLOPPY_TRK00*%
X137540000Y-139940000D03*
%TO.N,SPI_CS_SRAM*%
X135000000Y-142480000D03*
%TO.N,N/C*%
X137540000Y-142480000D03*
%TO.N,SPI_MOSI*%
X135000000Y-145020000D03*
%TO.N,N/C*%
X137540000Y-145020000D03*
%TO.N,SPI_MISO*%
X135000000Y-147560000D03*
%TO.N,SPI_SCK*%
X137540000Y-147560000D03*
%TD*%
D12*
%TO.N,SPI_CS_SRAM*%
%TO.C,U2*%
X124000000Y-147000000D03*
D13*
%TO.N,SPI_MISO*%
X124000000Y-149540000D03*
%TO.N,N/C*%
X124000000Y-152080000D03*
%TO.N,GND*%
X124000000Y-154620000D03*
%TO.N,SPI_MOSI*%
X131620000Y-154620000D03*
%TO.N,SPI_SCK*%
X131620000Y-152080000D03*
%TO.N,+5V*%
X131620000Y-149540000D03*
X131620000Y-147000000D03*
%TD*%
D12*
%TO.N,FLOPPY_DENSITY*%
%TO.C,U3*%
X148000000Y-137000000D03*
D13*
%TO.N,FLOPPY_MOTEA*%
X148000000Y-139540000D03*
%TO.N,FLOPPY_DRVSEL*%
X148000000Y-142080000D03*
%TO.N,FLOPPY_MOTOR*%
X148000000Y-144620000D03*
%TO.N,FLOPPY_DIR*%
X148000000Y-147160000D03*
%TO.N,FLOPPY_STEP*%
X148000000Y-149700000D03*
%TO.N,FLOPPY_WGATE*%
X148000000Y-152240000D03*
%TO.N,GND*%
X148000000Y-154780000D03*
%TO.N,N/C*%
X155620000Y-154780000D03*
%TO.N,+5V*%
X155620000Y-152240000D03*
%TO.N,SPI_SCK*%
X155620000Y-149700000D03*
%TO.N,LATCH_595*%
X155620000Y-147160000D03*
%TO.N,GND*%
X155620000Y-144620000D03*
%TO.N,SPI_MOSI*%
X155620000Y-142080000D03*
%TO.N,FLOPPY_SIDE1*%
X155620000Y-139540000D03*
%TO.N,+5V*%
X155620000Y-137000000D03*
%TD*%
D17*
%TO.N,GND*%
%TO.C,J2*%
X164000000Y-108000000D03*
D18*
%TO.N,FLOPPY_DENSITY*%
X166540000Y-108000000D03*
%TO.N,GND*%
X164000000Y-110540000D03*
%TO.N,N/C*%
X166540000Y-110540000D03*
%TO.N,GND*%
X164000000Y-113080000D03*
%TO.N,N/C*%
X166540000Y-113080000D03*
%TO.N,GND*%
X164000000Y-115620000D03*
%TO.N,N/C*%
X166540000Y-115620000D03*
%TO.N,GND*%
X164000000Y-118160000D03*
%TO.N,FLOPPY_MOTEA*%
X166540000Y-118160000D03*
%TO.N,GND*%
X164000000Y-120700000D03*
%TO.N,FLOPPY_DRVSEL*%
X166540000Y-120700000D03*
%TO.N,GND*%
X164000000Y-123240000D03*
%TO.N,N/C*%
X166540000Y-123240000D03*
%TO.N,GND*%
X164000000Y-125780000D03*
%TO.N,FLOPPY_MOTOR*%
X166540000Y-125780000D03*
%TO.N,GND*%
X164000000Y-128320000D03*
%TO.N,FLOPPY_DIR*%
X166540000Y-128320000D03*
%TO.N,GND*%
X164000000Y-130860000D03*
%TO.N,FLOPPY_STEP*%
X166540000Y-130860000D03*
%TO.N,GND*%
X164000000Y-133400000D03*
%TO.N,FLOPPY_WDATA*%
X166540000Y-133400000D03*
%TO.N,GND*%
X164000000Y-135940000D03*
%TO.N,FLOPPY_WGATE*%
X166540000Y-135940000D03*
%TO.N,GND*%
X164000000Y-138480000D03*
%TO.N,FLOPPY_TRK00*%
X166540000Y-138480000D03*
%TO.N,GND*%
X164000000Y-141020000D03*
%TO.N,FLOPPY_WPT*%
X166540000Y-141020000D03*
%TO.N,GND*%
X164000000Y-143560000D03*
%TO.N,FLOPPY_RDATA*%
X166540000Y-143560000D03*
%TO.N,GND*%
X164000000Y-146100000D03*
%TO.N,FLOPPY_SIDE1*%
X166540000Y-146100000D03*
%TO.N,GND*%
X164000000Y-148640000D03*
%TO.N,FLOPPY_DSKCHG*%
X166540000Y-148640000D03*
%TD*%
D12*
%TO.N,LED_ANODE*%
%TO.C,R8*%
X120000000Y-157000000D03*
D13*
%TO.N,LED_CATHODE*%
X130160000Y-157000000D03*
%TD*%
D12*
%TO.N,LED_CATHODE*%
%TO.C,D1*%
X112000000Y-157000000D03*
D13*
%TO.N,GND*%
X114540000Y-157000000D03*
%TD*%
D12*
%TO.N,+5V*%
%TO.C,R9*%
X148000000Y-115000000D03*
D13*
%TO.N,FLOPPY_TRK00*%
X158160000Y-115000000D03*
%TD*%
D12*
%TO.N,+5V*%
%TO.C,R10*%
X148000000Y-120000000D03*
D13*
%TO.N,FLOPPY_WPT*%
X158160000Y-120000000D03*
%TD*%
D12*
%TO.N,+5V*%
%TO.C,R11*%
X148000000Y-125000000D03*
D13*
%TO.N,FLOPPY_RDATA*%
X158160000Y-125000000D03*
%TD*%
D12*
%TO.N,+5V*%
%TO.C,R12*%
X148000000Y-130000000D03*
D13*
%TO.N,FLOPPY_DSKCHG*%
X158160000Y-130000000D03*
%TD*%
D12*
%TO.N,+5V*%
%TO.C,C1*%
X135000000Y-150000000D03*
D13*
%TO.N,GND*%
X140000000Y-150000000D03*
%TD*%
D12*
%TO.N,+5V*%
%TO.C,C2*%
X133000000Y-157000000D03*
D13*
%TO.N,GND*%
X138000000Y-157000000D03*
%TD*%
D12*
%TO.N,+5V*%
%TO.C,C3*%
X148000000Y-157000000D03*
D13*
%TO.N,GND*%
X153000000Y-157000000D03*
%TD*%
D19*
%TO.N,N/C*%
%TO.C,H1*%
X103000000Y-103000000D03*
%TD*%
%TO.N,N/C*%
%TO.C,H2*%
X167000000Y-103000000D03*
%TD*%
%TO.N,N/C*%
%TO.C,H3*%
X103000000Y-157000000D03*
%TD*%
%TO.N,N/C*%
%TO.C,H4*%
X167000000Y-157000000D03*
%TD*%
D20*
%TO.N,LATCH_595*%
X139620000Y-144867400D03*
%TO.N,NANO_D3*%
X115942500Y-121399500D03*
%TO.N,FLOPPY_TRK00*%
X157110400Y-138268400D03*
%TO.N,FLOPPY_DENSITY*%
X148162500Y-109932700D03*
%TO.N,FLOPPY_MOTEA*%
X154012500Y-122428300D03*
%TO.N,FLOPPY_DRVSEL*%
X154166800Y-124420600D03*
%TO.N,FLOPPY_MOTOR*%
X153348900Y-127008300D03*
%TO.N,FLOPPY_DIR*%
X151836100Y-129792300D03*
%TO.N,FLOPPY_STEP*%
X154228200Y-133082000D03*
%TO.N,FLOPPY_WGATE*%
X165712500Y-150494900D03*
%TD*%
D21*
%TO.N,SPI_MOSI*%
X142737300Y-143843300D02*
X136985600Y-143843300D01*
X136176700Y-144652200D02*
X136176700Y-145020000D01*
X136985600Y-143843300D02*
X136176700Y-144652200D01*
X143373900Y-143206700D02*
X142737300Y-143843300D01*
X153366600Y-143206700D02*
X143373900Y-143206700D01*
X155620000Y-142080000D02*
X154493300Y-142080000D01*
X135000000Y-145020000D02*
X136176700Y-145020000D01*
X154493300Y-142080000D02*
X153366600Y-143206700D01*
%TO.N,SPI_MISO*%
X124000000Y-149540000D02*
X125126700Y-149540000D01*
X135000000Y-147560000D02*
X133823300Y-147560000D01*
X133823300Y-147560000D02*
X132970000Y-148413300D01*
X132970000Y-148413300D02*
X126253400Y-148413300D01*
X126253400Y-148413300D02*
X125126700Y-149540000D01*
%TO.N,SPI_SCK*%
X137540000Y-147560000D02*
X136363300Y-147560000D01*
X155620000Y-149700000D02*
X154493300Y-149700000D01*
X137540000Y-147560000D02*
X138716700Y-147560000D01*
X139730000Y-148573300D02*
X153366600Y-148573300D01*
X136363300Y-147927800D02*
X136363300Y-147560000D01*
X131620000Y-152080000D02*
X131620000Y-150953300D01*
X131620000Y-150953300D02*
X131947000Y-150953300D01*
X153366600Y-148573300D02*
X154493300Y-149700000D01*
X135554400Y-148736700D02*
X136363300Y-147927800D01*
X134163600Y-148736700D02*
X135554400Y-148736700D01*
X138716700Y-147560000D02*
X139730000Y-148573300D01*
X131947000Y-150953300D02*
X134163600Y-148736700D01*
%TO.N,SPI_CS_SRAM*%
X129646700Y-142480000D02*
X135000000Y-142480000D01*
X124000000Y-147000000D02*
X125126700Y-147000000D01*
X125126700Y-147000000D02*
X129646700Y-142480000D01*
%TO.N,LATCH_595*%
X153366600Y-146033300D02*
X154493300Y-147160000D01*
X140785900Y-146033300D02*
X153366600Y-146033300D01*
X155620000Y-147160000D02*
X154493300Y-147160000D01*
X139620000Y-144867400D02*
X140785900Y-146033300D01*
%TO.N,NANO_D3*%
X135000000Y-124700000D02*
X133823300Y-124700000D01*
X115942500Y-121399500D02*
X130522800Y-121399500D01*
X130522800Y-121399500D02*
X133823300Y-124700000D01*
%TO.N,NANO_D4*%
X115717800Y-122140000D02*
X115315000Y-121737200D01*
X115315000Y-121737200D02*
X115315000Y-121098300D01*
X115315000Y-121098300D02*
X116413300Y-120000000D01*
X116413300Y-120000000D02*
X118160000Y-120000000D01*
X135000000Y-127240000D02*
X133823300Y-127240000D01*
X133823300Y-127240000D02*
X128723300Y-122140000D01*
X128723300Y-122140000D02*
X115717800Y-122140000D01*
%TO.N,NANO_D5*%
X133823300Y-129780000D02*
X129043300Y-125000000D01*
X135000000Y-129780000D02*
X133823300Y-129780000D01*
X129043300Y-125000000D02*
X118160000Y-125000000D01*
%TO.N,FLOPPY_WDATA*%
X148361200Y-134576700D02*
X164554400Y-134576700D01*
X136206200Y-136066200D02*
X146871700Y-136066200D01*
X135000000Y-134860000D02*
X136206200Y-136066200D01*
X146871700Y-136066200D02*
X148361200Y-134576700D01*
X164554400Y-134576700D02*
X165363300Y-133767800D01*
X165363300Y-133767800D02*
X165363300Y-133400000D01*
X166540000Y-133400000D02*
X165363300Y-133400000D01*
%TO.N,FLOPPY_RDATA*%
X164554400Y-142383300D02*
X159298200Y-142383300D01*
X166540000Y-143560000D02*
X165363300Y-143560000D01*
X136176700Y-140277500D02*
X136176700Y-139385600D01*
X138236600Y-141143400D02*
X137042600Y-141143400D01*
X157858400Y-140943500D02*
X138436500Y-140943500D01*
X136176700Y-139385600D02*
X135367800Y-138576700D01*
X165363300Y-143192200D02*
X164554400Y-142383300D01*
X138436500Y-140943500D02*
X138236600Y-141143400D01*
X159298200Y-142383300D02*
X157858400Y-140943500D01*
X137042600Y-141143400D02*
X136176700Y-140277500D01*
X135367800Y-138576700D02*
X135000000Y-138576700D01*
X165363300Y-143560000D02*
X165363300Y-143192200D01*
X135000000Y-137400000D02*
X135000000Y-138576700D01*
%TO.N,FLOPPY_TRK00*%
X164517700Y-137266700D02*
X158112100Y-137266700D01*
X166540000Y-138480000D02*
X165363300Y-138480000D01*
X165363300Y-138480000D02*
X165363300Y-138112300D01*
X158112100Y-137266700D02*
X157110400Y-138268400D01*
X165363300Y-138112300D02*
X164517700Y-137266700D01*
%TO.N,FLOPPY_WPT*%
X165363300Y-140652200D02*
X165363300Y-141020000D01*
X157693300Y-139843300D02*
X164554400Y-139843300D01*
X164554400Y-139843300D02*
X165363300Y-140652200D01*
X138716700Y-137400000D02*
X139548800Y-138232100D01*
X156082100Y-138232100D02*
X157693300Y-139843300D01*
X166540000Y-141020000D02*
X165363300Y-141020000D01*
X137540000Y-137400000D02*
X138716700Y-137400000D01*
X139548800Y-138232100D02*
X156082100Y-138232100D01*
%TO.N,FLOPPY_DSKCHG*%
X133823300Y-132807500D02*
X134512500Y-133496700D01*
X134512500Y-133496700D02*
X135365800Y-133496700D01*
X137540000Y-134860000D02*
X136363300Y-134860000D01*
X155890000Y-131143300D02*
X134512500Y-131143300D01*
X158160000Y-130000000D02*
X157033300Y-130000000D01*
X134512500Y-131143300D02*
X133823300Y-131832500D01*
X133823300Y-131832500D02*
X133823300Y-132807500D01*
X136363300Y-134494200D02*
X136363300Y-134860000D01*
X157033300Y-130000000D02*
X155890000Y-131143300D01*
X135365800Y-133496700D02*
X136363300Y-134494200D01*
%TO.N,FLOPPY_DENSITY*%
X165363300Y-107191000D02*
X164995600Y-106823300D01*
X151271900Y-106823300D02*
X148162500Y-109932700D01*
X164995600Y-106823300D02*
X151271900Y-106823300D01*
X165363300Y-108000000D02*
X165363300Y-107191000D01*
X166540000Y-108000000D02*
X165363300Y-108000000D01*
%TO.N,FLOPPY_MOTEA*%
X164554400Y-119336700D02*
X161729400Y-119336700D01*
X165363300Y-118527800D02*
X164554400Y-119336700D01*
X158637800Y-122428300D02*
X154012500Y-122428300D01*
X161729400Y-119336700D02*
X158637800Y-122428300D01*
X165363300Y-118160000D02*
X165363300Y-118527800D01*
X166540000Y-118160000D02*
X165363300Y-118160000D01*
%TO.N,FLOPPY_DRVSEL*%
X160720300Y-123371900D02*
X162215500Y-121876700D01*
X166540000Y-120700000D02*
X165363300Y-120700000D01*
X165363300Y-121067800D02*
X165363300Y-120700000D01*
X162215500Y-121876700D02*
X164554400Y-121876700D01*
X155215500Y-123371900D02*
X160720300Y-123371900D01*
X154166800Y-124420600D02*
X155215500Y-123371900D01*
X164554400Y-121876700D02*
X165363300Y-121067800D01*
%TO.N,FLOPPY_MOTOR*%
X166540000Y-125780000D02*
X165363300Y-125780000D01*
X162017400Y-124603300D02*
X164554400Y-124603300D01*
X164554400Y-124603300D02*
X165363300Y-125412200D01*
X165363300Y-125412200D02*
X165363300Y-125780000D01*
X160146500Y-126474200D02*
X162017400Y-124603300D01*
X153348900Y-127008300D02*
X153883000Y-126474200D01*
X153883000Y-126474200D02*
X160146500Y-126474200D01*
%TO.N,FLOPPY_DIR*%
X164517200Y-127106200D02*
X154522200Y-127106200D01*
X166540000Y-128320000D02*
X165363300Y-128320000D01*
X154522200Y-127106200D02*
X151836100Y-129792300D01*
X165363300Y-127952300D02*
X164517200Y-127106200D01*
X165363300Y-128320000D02*
X165363300Y-127952300D01*
%TO.N,FLOPPY_STEP*%
X165363300Y-131227800D02*
X165363300Y-130860000D01*
X154228200Y-133082000D02*
X155273500Y-132036700D01*
X155273500Y-132036700D02*
X164554400Y-132036700D01*
X166540000Y-130860000D02*
X165363300Y-130860000D01*
X164554400Y-132036700D02*
X165363300Y-131227800D01*
%TO.N,FLOPPY_WGATE*%
X165094100Y-151113300D02*
X150253400Y-151113300D01*
X150253400Y-151113300D02*
X149126700Y-152240000D01*
X148000000Y-152240000D02*
X149126700Y-152240000D01*
X165712500Y-150494900D02*
X165094100Y-151113300D01*
%TO.N,LED_CATHODE*%
X130160000Y-157000000D02*
X129033300Y-157000000D01*
X127906600Y-158126700D02*
X113971600Y-158126700D01*
X113971600Y-158126700D02*
X113126700Y-157281800D01*
X129033300Y-157000000D02*
X127906600Y-158126700D01*
X113126700Y-157281800D02*
X113126700Y-157000000D01*
X112000000Y-157000000D02*
X113126700Y-157000000D01*
%TD*%
%TA.AperFunction,Conductor*%
%TO.N,+5V*%
G36*
X164516721Y-100320185D02*
G01*
X164562476Y-100372989D01*
X164572420Y-100442147D01*
X164543395Y-100505703D01*
X164537363Y-100512181D01*
X164403176Y-100646367D01*
X164184985Y-100912234D01*
X164184975Y-100912248D01*
X163993904Y-101198206D01*
X163993893Y-101198224D01*
X163831772Y-101501530D01*
X163831770Y-101501535D01*
X163700150Y-101819293D01*
X163600308Y-102148427D01*
X163533210Y-102485750D01*
X163517157Y-102648752D01*
X163499500Y-102828031D01*
X163499500Y-103171969D01*
X163507185Y-103250000D01*
X163533210Y-103514249D01*
X163600308Y-103851572D01*
X163700150Y-104180706D01*
X163773251Y-104357187D01*
X163829753Y-104493596D01*
X163831770Y-104498464D01*
X163831772Y-104498469D01*
X163993893Y-104801775D01*
X163993904Y-104801793D01*
X164184975Y-105087751D01*
X164184985Y-105087765D01*
X164403176Y-105353632D01*
X164646367Y-105596823D01*
X164646372Y-105596827D01*
X164646373Y-105596828D01*
X164912240Y-105815019D01*
X164912247Y-105815024D01*
X164912257Y-105815031D01*
X165148162Y-105972657D01*
X165192968Y-106026269D01*
X165201675Y-106095594D01*
X165171521Y-106158621D01*
X165112078Y-106195341D01*
X165063400Y-106197082D01*
X165063271Y-106198397D01*
X165057209Y-106197800D01*
X165057207Y-106197800D01*
X165057206Y-106197800D01*
X151339641Y-106197800D01*
X151339621Y-106197799D01*
X151333507Y-106197799D01*
X151210294Y-106197799D01*
X151109497Y-106217848D01*
X151109492Y-106217848D01*
X151089449Y-106221836D01*
X151089447Y-106221836D01*
X151042297Y-106241367D01*
X150975619Y-106268985D01*
X150975617Y-106268986D01*
X150873166Y-106337441D01*
X150873163Y-106337444D01*
X148103703Y-109106905D01*
X148042380Y-109140390D01*
X148040214Y-109140841D01*
X147929008Y-109162961D01*
X147928998Y-109162964D01*
X147783327Y-109223302D01*
X147783314Y-109223309D01*
X147652211Y-109310910D01*
X147652207Y-109310913D01*
X147540713Y-109422407D01*
X147540710Y-109422411D01*
X147453109Y-109553514D01*
X147453102Y-109553527D01*
X147392764Y-109699198D01*
X147392761Y-109699210D01*
X147362000Y-109853853D01*
X147362000Y-110011546D01*
X147392761Y-110166189D01*
X147392764Y-110166201D01*
X147453102Y-110311872D01*
X147453109Y-110311885D01*
X147540710Y-110442988D01*
X147540713Y-110442992D01*
X147652207Y-110554486D01*
X147652211Y-110554489D01*
X147783314Y-110642090D01*
X147783327Y-110642097D01*
X147928998Y-110702435D01*
X147929003Y-110702437D01*
X148083653Y-110733199D01*
X148083656Y-110733200D01*
X148083658Y-110733200D01*
X148241344Y-110733200D01*
X148241345Y-110733199D01*
X148395997Y-110702437D01*
X148541679Y-110642094D01*
X148672789Y-110554489D01*
X148784289Y-110442989D01*
X148871894Y-110311879D01*
X148932237Y-110166197D01*
X148954358Y-110054982D01*
X148986740Y-109993075D01*
X148988234Y-109991554D01*
X151494672Y-107485119D01*
X151555995Y-107451634D01*
X151582353Y-107448800D01*
X162525500Y-107448800D01*
X162592539Y-107468485D01*
X162638294Y-107521289D01*
X162649500Y-107572800D01*
X162649500Y-108897870D01*
X162649501Y-108897876D01*
X162655908Y-108957483D01*
X162706202Y-109092328D01*
X162706206Y-109092335D01*
X162792452Y-109207544D01*
X162792455Y-109207547D01*
X162907664Y-109293793D01*
X162907671Y-109293797D01*
X163039082Y-109342810D01*
X163095016Y-109384681D01*
X163119433Y-109450145D01*
X163104582Y-109518418D01*
X163083431Y-109546673D01*
X162969889Y-109660215D01*
X162844951Y-109832179D01*
X162748444Y-110021585D01*
X162682753Y-110223760D01*
X162649500Y-110433713D01*
X162649500Y-110646286D01*
X162681428Y-110847876D01*
X162682754Y-110856243D01*
X162743278Y-111042517D01*
X162748444Y-111058414D01*
X162844951Y-111247820D01*
X162969890Y-111419786D01*
X163120213Y-111570109D01*
X163292182Y-111695050D01*
X163300946Y-111699516D01*
X163351742Y-111747491D01*
X163368536Y-111815312D01*
X163345998Y-111881447D01*
X163300946Y-111920484D01*
X163292182Y-111924949D01*
X163120213Y-112049890D01*
X162969890Y-112200213D01*
X162844951Y-112372179D01*
X162748444Y-112561585D01*
X162682753Y-112763760D01*
X162664253Y-112880566D01*
X162649500Y-112973713D01*
X162649500Y-113186287D01*
X162652867Y-113207544D01*
X162680965Y-113384951D01*
X162682754Y-113396243D01*
X162722451Y-113518418D01*
X162748444Y-113598414D01*
X162844951Y-113787820D01*
X162969890Y-113959786D01*
X163120213Y-114110109D01*
X163292182Y-114235050D01*
X163300946Y-114239516D01*
X163351742Y-114287491D01*
X163368536Y-114355312D01*
X163345998Y-114421447D01*
X163300946Y-114460484D01*
X163292182Y-114464949D01*
X163120213Y-114589890D01*
X162969890Y-114740213D01*
X162844951Y-114912179D01*
X162748444Y-115101585D01*
X162682753Y-115303760D01*
X162651796Y-115499219D01*
X162649500Y-115513713D01*
X162649500Y-115726287D01*
X162659534Y-115789644D01*
X162680965Y-115924951D01*
X162682754Y-115936243D01*
X162739954Y-116112287D01*
X162748444Y-116138414D01*
X162844951Y-116327820D01*
X162969890Y-116499786D01*
X163120213Y-116650109D01*
X163292182Y-116775050D01*
X163300946Y-116779516D01*
X163351742Y-116827491D01*
X163368536Y-116895312D01*
X163345998Y-116961447D01*
X163300946Y-117000484D01*
X163292182Y-117004949D01*
X163120213Y-117129890D01*
X162969890Y-117280213D01*
X162844951Y-117452179D01*
X162748444Y-117641585D01*
X162682753Y-117843760D01*
X162649500Y-118053713D01*
X162649500Y-118266286D01*
X162682753Y-118476240D01*
X162706356Y-118548882D01*
X162708351Y-118618723D01*
X162672270Y-118678556D01*
X162609569Y-118709384D01*
X162588425Y-118711200D01*
X161797141Y-118711200D01*
X161797121Y-118711199D01*
X161791007Y-118711199D01*
X161667794Y-118711199D01*
X161566997Y-118731248D01*
X161566992Y-118731248D01*
X161546949Y-118735236D01*
X161546947Y-118735236D01*
X161499797Y-118754767D01*
X161433119Y-118782385D01*
X161433117Y-118782386D01*
X161330666Y-118850841D01*
X161330663Y-118850844D01*
X159577830Y-120603678D01*
X159516507Y-120637163D01*
X159446815Y-120632179D01*
X159390882Y-120590307D01*
X159366465Y-120524843D01*
X159372217Y-120477683D01*
X159428477Y-120304534D01*
X159460500Y-120102352D01*
X159460500Y-119897648D01*
X159444375Y-119795840D01*
X159428477Y-119695465D01*
X159382568Y-119554174D01*
X159365220Y-119500781D01*
X159365218Y-119500778D01*
X159365218Y-119500776D01*
X159305082Y-119382754D01*
X159272287Y-119318390D01*
X159261656Y-119303757D01*
X159151971Y-119152786D01*
X159007213Y-119008028D01*
X158841613Y-118887715D01*
X158841612Y-118887714D01*
X158841610Y-118887713D01*
X158753487Y-118842812D01*
X158659223Y-118794781D01*
X158464534Y-118731522D01*
X158289995Y-118703878D01*
X158262352Y-118699500D01*
X158057648Y-118699500D01*
X158033329Y-118703351D01*
X157855465Y-118731522D01*
X157660776Y-118794781D01*
X157478386Y-118887715D01*
X157312786Y-119008028D01*
X157168028Y-119152786D01*
X157047715Y-119318386D01*
X156954781Y-119500776D01*
X156891522Y-119695465D01*
X156859500Y-119897648D01*
X156859500Y-120102351D01*
X156891522Y-120304534D01*
X156954781Y-120499223D01*
X157012470Y-120612442D01*
X157031662Y-120650109D01*
X157047715Y-120681613D01*
X157168028Y-120847213D01*
X157312786Y-120991971D01*
X157467749Y-121104556D01*
X157478390Y-121112287D01*
X157566517Y-121157190D01*
X157660776Y-121205218D01*
X157660778Y-121205218D01*
X157660781Y-121205220D01*
X157765137Y-121239127D01*
X157855465Y-121268477D01*
X157898146Y-121275237D01*
X158057648Y-121300500D01*
X158057649Y-121300500D01*
X158262351Y-121300500D01*
X158262352Y-121300500D01*
X158464534Y-121268477D01*
X158637681Y-121212217D01*
X158707520Y-121210223D01*
X158767353Y-121246303D01*
X158798182Y-121309004D01*
X158790218Y-121378418D01*
X158763679Y-121417830D01*
X158415029Y-121766481D01*
X158353706Y-121799966D01*
X158327348Y-121802800D01*
X154554850Y-121802800D01*
X154487811Y-121783115D01*
X154485959Y-121781902D01*
X154391684Y-121718909D01*
X154391672Y-121718902D01*
X154246001Y-121658564D01*
X154245989Y-121658561D01*
X154091345Y-121627800D01*
X154091342Y-121627800D01*
X153933658Y-121627800D01*
X153933655Y-121627800D01*
X153779010Y-121658561D01*
X153778998Y-121658564D01*
X153633327Y-121718902D01*
X153633314Y-121718909D01*
X153502211Y-121806510D01*
X153502207Y-121806513D01*
X153390713Y-121918007D01*
X153390710Y-121918011D01*
X153303109Y-122049114D01*
X153303102Y-122049127D01*
X153242764Y-122194798D01*
X153242761Y-122194810D01*
X153212000Y-122349453D01*
X153212000Y-122507146D01*
X153242761Y-122661789D01*
X153242764Y-122661801D01*
X153303102Y-122807472D01*
X153303109Y-122807485D01*
X153390710Y-122938588D01*
X153390713Y-122938592D01*
X153502207Y-123050086D01*
X153502211Y-123050089D01*
X153633314Y-123137690D01*
X153633327Y-123137697D01*
X153759851Y-123190104D01*
X153779003Y-123198037D01*
X153933653Y-123228799D01*
X153933656Y-123228800D01*
X153933658Y-123228800D01*
X154091343Y-123228800D01*
X154110749Y-123224939D01*
X154168108Y-123213530D01*
X154201830Y-123216547D01*
X154235633Y-123218965D01*
X154236554Y-123219654D01*
X154237698Y-123219757D01*
X154264445Y-123240534D01*
X154291566Y-123260837D01*
X154291967Y-123261913D01*
X154292876Y-123262619D01*
X154304147Y-123294568D01*
X154315983Y-123326301D01*
X154315738Y-123327424D01*
X154316121Y-123328509D01*
X154308329Y-123361483D01*
X154301131Y-123394574D01*
X154300224Y-123395785D01*
X154300054Y-123396506D01*
X154279980Y-123422828D01*
X154108003Y-123594805D01*
X154046680Y-123628290D01*
X154044514Y-123628741D01*
X153933308Y-123650861D01*
X153933298Y-123650864D01*
X153787627Y-123711202D01*
X153787614Y-123711209D01*
X153656511Y-123798810D01*
X153656507Y-123798813D01*
X153545013Y-123910307D01*
X153545010Y-123910311D01*
X153457409Y-124041414D01*
X153457402Y-124041427D01*
X153397064Y-124187098D01*
X153397061Y-124187110D01*
X153366300Y-124341753D01*
X153366300Y-124499446D01*
X153397061Y-124654089D01*
X153397064Y-124654101D01*
X153457402Y-124799772D01*
X153457409Y-124799785D01*
X153545010Y-124930888D01*
X153545013Y-124930892D01*
X153656507Y-125042386D01*
X153656511Y-125042389D01*
X153787614Y-125129990D01*
X153787627Y-125129997D01*
X153933298Y-125190335D01*
X153933303Y-125190337D01*
X154074445Y-125218412D01*
X154087953Y-125221099D01*
X154087956Y-125221100D01*
X154087958Y-125221100D01*
X154245644Y-125221100D01*
X154245645Y-125221099D01*
X154400297Y-125190337D01*
X154545979Y-125129994D01*
X154677089Y-125042389D01*
X154788589Y-124930889D01*
X154876194Y-124799779D01*
X154936537Y-124654097D01*
X154958658Y-124542882D01*
X154991040Y-124480975D01*
X154992532Y-124479456D01*
X155438271Y-124033719D01*
X155499594Y-124000234D01*
X155525952Y-123997400D01*
X157037561Y-123997400D01*
X157104600Y-124017085D01*
X157150355Y-124069889D01*
X157160299Y-124139047D01*
X157137879Y-124194285D01*
X157047715Y-124318386D01*
X156954781Y-124500776D01*
X156891522Y-124695465D01*
X156859500Y-124897648D01*
X156859500Y-125102351D01*
X156891522Y-125304534D01*
X156954781Y-125499223D01*
X156995831Y-125579786D01*
X157025406Y-125637831D01*
X157040985Y-125668405D01*
X157053881Y-125737074D01*
X157027605Y-125801815D01*
X156970499Y-125842072D01*
X156930500Y-125848700D01*
X153821393Y-125848700D01*
X153789462Y-125855051D01*
X153789461Y-125855050D01*
X153700555Y-125872735D01*
X153700545Y-125872738D01*
X153586716Y-125919887D01*
X153539320Y-125951557D01*
X153516940Y-125966511D01*
X153508825Y-125971933D01*
X153484263Y-125988344D01*
X153484262Y-125988345D01*
X153290103Y-126182505D01*
X153228780Y-126215990D01*
X153226614Y-126216441D01*
X153115408Y-126238561D01*
X153115398Y-126238564D01*
X152969727Y-126298902D01*
X152969714Y-126298909D01*
X152838611Y-126386510D01*
X152838607Y-126386513D01*
X152727113Y-126498007D01*
X152727110Y-126498011D01*
X152639509Y-126629114D01*
X152639502Y-126629127D01*
X152579164Y-126774798D01*
X152579161Y-126774810D01*
X152548400Y-126929453D01*
X152548400Y-127087146D01*
X152579161Y-127241789D01*
X152579164Y-127241801D01*
X152639502Y-127387472D01*
X152639509Y-127387485D01*
X152727110Y-127518588D01*
X152727113Y-127518592D01*
X152838607Y-127630086D01*
X152838611Y-127630089D01*
X152877896Y-127656339D01*
X152922701Y-127709952D01*
X152931408Y-127779277D01*
X152901253Y-127842304D01*
X152896686Y-127847122D01*
X151777303Y-128966505D01*
X151715980Y-128999990D01*
X151713814Y-129000441D01*
X151602608Y-129022561D01*
X151602598Y-129022564D01*
X151456927Y-129082902D01*
X151456914Y-129082909D01*
X151325811Y-129170510D01*
X151325807Y-129170513D01*
X151214313Y-129282007D01*
X151214310Y-129282011D01*
X151126709Y-129413114D01*
X151126702Y-129413127D01*
X151066364Y-129558798D01*
X151066361Y-129558810D01*
X151035600Y-129713453D01*
X151035600Y-129871146D01*
X151066361Y-130025789D01*
X151066364Y-130025801D01*
X151126702Y-130171472D01*
X151126709Y-130171485D01*
X151214310Y-130302588D01*
X151214313Y-130302592D01*
X151217840Y-130306119D01*
X151251325Y-130367442D01*
X151246341Y-130437134D01*
X151204469Y-130493067D01*
X151139005Y-130517484D01*
X151130159Y-130517800D01*
X149424000Y-130517800D01*
X149356961Y-130498115D01*
X149311206Y-130445311D01*
X149300000Y-130393800D01*
X149300000Y-130250000D01*
X148315686Y-130250000D01*
X148320080Y-130245606D01*
X148372741Y-130154394D01*
X148400000Y-130052661D01*
X148400000Y-129947339D01*
X148372741Y-129845606D01*
X148320080Y-129754394D01*
X148315686Y-129750000D01*
X149300000Y-129750000D01*
X149300000Y-129152172D01*
X149299999Y-129152155D01*
X149293598Y-129092627D01*
X149293596Y-129092620D01*
X149243354Y-128957913D01*
X149243350Y-128957906D01*
X149157190Y-128842812D01*
X149157187Y-128842809D01*
X149042093Y-128756649D01*
X149042086Y-128756645D01*
X148907379Y-128706403D01*
X148907372Y-128706401D01*
X148847844Y-128700000D01*
X148250000Y-128700000D01*
X148250000Y-129684314D01*
X148245606Y-129679920D01*
X148154394Y-129627259D01*
X148052661Y-129600000D01*
X147947339Y-129600000D01*
X147845606Y-129627259D01*
X147754394Y-129679920D01*
X147750000Y-129684314D01*
X147750000Y-128700000D01*
X147152155Y-128700000D01*
X147092627Y-128706401D01*
X147092620Y-128706403D01*
X146957913Y-128756645D01*
X146957906Y-128756649D01*
X146842812Y-128842809D01*
X146842809Y-128842812D01*
X146756649Y-128957906D01*
X146756645Y-128957913D01*
X146706403Y-129092620D01*
X146706401Y-129092627D01*
X146700000Y-129152155D01*
X146700000Y-129750000D01*
X147684314Y-129750000D01*
X147679920Y-129754394D01*
X147627259Y-129845606D01*
X147600000Y-129947339D01*
X147600000Y-130052661D01*
X147627259Y-130154394D01*
X147679920Y-130245606D01*
X147684314Y-130250000D01*
X146700000Y-130250000D01*
X146700000Y-130393800D01*
X146680315Y-130460839D01*
X146627511Y-130506594D01*
X146576000Y-130517800D01*
X138882123Y-130517800D01*
X138815084Y-130498115D01*
X138769329Y-130445311D01*
X138759385Y-130376153D01*
X138771638Y-130337505D01*
X138773265Y-130334312D01*
X138791557Y-130298412D01*
X138857246Y-130096243D01*
X138890500Y-129886287D01*
X138890500Y-129673713D01*
X138857246Y-129463757D01*
X138791557Y-129261588D01*
X138791555Y-129261585D01*
X138791555Y-129261583D01*
X138762799Y-129205147D01*
X138762798Y-129205146D01*
X138745151Y-129170511D01*
X138695051Y-129072184D01*
X138695049Y-129072181D01*
X138695048Y-129072179D01*
X138570109Y-128900213D01*
X138419786Y-128749890D01*
X138247820Y-128624951D01*
X138247115Y-128624591D01*
X138239054Y-128620485D01*
X138188259Y-128572512D01*
X138171463Y-128504692D01*
X138193999Y-128438556D01*
X138239054Y-128399515D01*
X138247816Y-128395051D01*
X138269789Y-128379086D01*
X138419786Y-128270109D01*
X138419788Y-128270106D01*
X138419792Y-128270104D01*
X138570104Y-128119792D01*
X138570106Y-128119788D01*
X138570109Y-128119786D01*
X138695048Y-127947820D01*
X138695049Y-127947819D01*
X138695051Y-127947816D01*
X138791557Y-127758412D01*
X138857246Y-127556243D01*
X138890500Y-127346287D01*
X138890500Y-127133713D01*
X138857246Y-126923757D01*
X138791557Y-126721588D01*
X138695051Y-126532184D01*
X138695049Y-126532181D01*
X138695048Y-126532179D01*
X138570109Y-126360213D01*
X138419786Y-126209890D01*
X138247820Y-126084951D01*
X138247115Y-126084591D01*
X138239054Y-126080485D01*
X138188259Y-126032512D01*
X138171463Y-125964692D01*
X138193999Y-125898556D01*
X138239054Y-125859515D01*
X138247816Y-125855051D01*
X138410199Y-125737074D01*
X138419786Y-125730109D01*
X138419788Y-125730106D01*
X138419792Y-125730104D01*
X138570104Y-125579792D01*
X138570106Y-125579788D01*
X138570109Y-125579786D01*
X138695048Y-125407820D01*
X138695049Y-125407819D01*
X138695051Y-125407816D01*
X138791557Y-125218412D01*
X138857246Y-125016243D01*
X138890500Y-124806287D01*
X138890500Y-124593713D01*
X138857246Y-124383757D01*
X138791557Y-124181588D01*
X138776560Y-124152155D01*
X146700000Y-124152155D01*
X146700000Y-124750000D01*
X147684314Y-124750000D01*
X147679920Y-124754394D01*
X147627259Y-124845606D01*
X147600000Y-124947339D01*
X147600000Y-125052661D01*
X147627259Y-125154394D01*
X147679920Y-125245606D01*
X147684314Y-125250000D01*
X146700000Y-125250000D01*
X146700000Y-125847844D01*
X146706401Y-125907372D01*
X146706403Y-125907379D01*
X146756645Y-126042086D01*
X146756649Y-126042093D01*
X146842809Y-126157187D01*
X146842812Y-126157190D01*
X146957906Y-126243350D01*
X146957913Y-126243354D01*
X147092620Y-126293596D01*
X147092627Y-126293598D01*
X147152155Y-126299999D01*
X147152172Y-126300000D01*
X147750000Y-126300000D01*
X147750000Y-125315686D01*
X147754394Y-125320080D01*
X147845606Y-125372741D01*
X147947339Y-125400000D01*
X148052661Y-125400000D01*
X148154394Y-125372741D01*
X148245606Y-125320080D01*
X148250000Y-125315686D01*
X148250000Y-126300000D01*
X148847828Y-126300000D01*
X148847844Y-126299999D01*
X148907372Y-126293598D01*
X148907379Y-126293596D01*
X149042086Y-126243354D01*
X149042093Y-126243350D01*
X149157187Y-126157190D01*
X149157190Y-126157187D01*
X149243350Y-126042093D01*
X149243354Y-126042086D01*
X149293596Y-125907379D01*
X149293598Y-125907372D01*
X149299999Y-125847844D01*
X149300000Y-125847827D01*
X149300000Y-125250000D01*
X148315686Y-125250000D01*
X148320080Y-125245606D01*
X148372741Y-125154394D01*
X148400000Y-125052661D01*
X148400000Y-124947339D01*
X148372741Y-124845606D01*
X148320080Y-124754394D01*
X148315686Y-124750000D01*
X149300000Y-124750000D01*
X149300000Y-124152172D01*
X149299999Y-124152155D01*
X149293598Y-124092627D01*
X149293596Y-124092620D01*
X149243354Y-123957913D01*
X149243350Y-123957906D01*
X149157190Y-123842812D01*
X149157187Y-123842809D01*
X149042093Y-123756649D01*
X149042086Y-123756645D01*
X148907379Y-123706403D01*
X148907372Y-123706401D01*
X148847844Y-123700000D01*
X148250000Y-123700000D01*
X148250000Y-124684314D01*
X148245606Y-124679920D01*
X148154394Y-124627259D01*
X148052661Y-124600000D01*
X147947339Y-124600000D01*
X147845606Y-124627259D01*
X147754394Y-124679920D01*
X147750000Y-124684314D01*
X147750000Y-123700000D01*
X147152155Y-123700000D01*
X147092627Y-123706401D01*
X147092620Y-123706403D01*
X146957913Y-123756645D01*
X146957906Y-123756649D01*
X146842812Y-123842809D01*
X146842809Y-123842812D01*
X146756649Y-123957906D01*
X146756645Y-123957913D01*
X146706403Y-124092620D01*
X146706401Y-124092627D01*
X146700000Y-124152155D01*
X138776560Y-124152155D01*
X138695051Y-123992184D01*
X138695049Y-123992181D01*
X138695048Y-123992179D01*
X138570109Y-123820213D01*
X138419786Y-123669890D01*
X138247820Y-123544951D01*
X138247115Y-123544591D01*
X138239054Y-123540485D01*
X138188259Y-123492512D01*
X138171463Y-123424692D01*
X138193999Y-123358556D01*
X138239054Y-123319515D01*
X138247816Y-123315051D01*
X138350381Y-123240534D01*
X138419786Y-123190109D01*
X138419788Y-123190106D01*
X138419792Y-123190104D01*
X138570104Y-123039792D01*
X138570106Y-123039788D01*
X138570109Y-123039786D01*
X138695048Y-122867820D01*
X138695047Y-122867820D01*
X138695051Y-122867816D01*
X138791557Y-122678412D01*
X138857246Y-122476243D01*
X138890500Y-122266287D01*
X138890500Y-122053713D01*
X138857246Y-121843757D01*
X138791557Y-121641588D01*
X138695051Y-121452184D01*
X138695049Y-121452181D01*
X138695048Y-121452179D01*
X138570109Y-121280213D01*
X138419786Y-121129890D01*
X138247817Y-121004949D01*
X138238504Y-121000204D01*
X138187707Y-120952230D01*
X138170912Y-120884409D01*
X138193449Y-120818274D01*
X138238507Y-120779232D01*
X138247558Y-120774620D01*
X138419459Y-120649727D01*
X138419464Y-120649723D01*
X138569723Y-120499464D01*
X138569727Y-120499459D01*
X138694620Y-120327557D01*
X138788993Y-120142343D01*
X138788995Y-120142339D01*
X138791095Y-120138215D01*
X138856757Y-119936129D01*
X138856757Y-119936126D01*
X138867231Y-119870000D01*
X137973012Y-119870000D01*
X138005925Y-119812993D01*
X138040000Y-119685826D01*
X138040000Y-119554174D01*
X138005925Y-119427007D01*
X137973012Y-119370000D01*
X138867231Y-119370000D01*
X138856757Y-119303873D01*
X138856757Y-119303870D01*
X138818839Y-119187169D01*
X138807462Y-119152155D01*
X146700000Y-119152155D01*
X146700000Y-119750000D01*
X147684314Y-119750000D01*
X147679920Y-119754394D01*
X147627259Y-119845606D01*
X147600000Y-119947339D01*
X147600000Y-120052661D01*
X147627259Y-120154394D01*
X147679920Y-120245606D01*
X147684314Y-120250000D01*
X146700000Y-120250000D01*
X146700000Y-120847844D01*
X146706401Y-120907372D01*
X146706403Y-120907379D01*
X146756645Y-121042086D01*
X146756649Y-121042093D01*
X146842809Y-121157187D01*
X146842812Y-121157190D01*
X146957906Y-121243350D01*
X146957913Y-121243354D01*
X147092620Y-121293596D01*
X147092627Y-121293598D01*
X147152155Y-121299999D01*
X147152172Y-121300000D01*
X147750000Y-121300000D01*
X147750000Y-120315686D01*
X147754394Y-120320080D01*
X147845606Y-120372741D01*
X147947339Y-120400000D01*
X148052661Y-120400000D01*
X148154394Y-120372741D01*
X148245606Y-120320080D01*
X148250000Y-120315686D01*
X148250000Y-121300000D01*
X148847828Y-121300000D01*
X148847844Y-121299999D01*
X148907372Y-121293598D01*
X148907379Y-121293596D01*
X149042086Y-121243354D01*
X149042093Y-121243350D01*
X149157187Y-121157190D01*
X149157190Y-121157187D01*
X149243350Y-121042093D01*
X149243354Y-121042086D01*
X149293596Y-120907379D01*
X149293598Y-120907372D01*
X149299999Y-120847844D01*
X149300000Y-120847827D01*
X149300000Y-120250000D01*
X148315686Y-120250000D01*
X148320080Y-120245606D01*
X148372741Y-120154394D01*
X148400000Y-120052661D01*
X148400000Y-119947339D01*
X148372741Y-119845606D01*
X148320080Y-119754394D01*
X148315686Y-119750000D01*
X149300000Y-119750000D01*
X149300000Y-119152172D01*
X149299999Y-119152155D01*
X149293598Y-119092627D01*
X149293596Y-119092620D01*
X149243354Y-118957913D01*
X149243350Y-118957906D01*
X149157190Y-118842812D01*
X149157187Y-118842809D01*
X149042093Y-118756649D01*
X149042086Y-118756645D01*
X148907379Y-118706403D01*
X148907372Y-118706401D01*
X148847844Y-118700000D01*
X148250000Y-118700000D01*
X148250000Y-119684314D01*
X148245606Y-119679920D01*
X148154394Y-119627259D01*
X148052661Y-119600000D01*
X147947339Y-119600000D01*
X147845606Y-119627259D01*
X147754394Y-119679920D01*
X147750000Y-119684314D01*
X147750000Y-118700000D01*
X147152155Y-118700000D01*
X147092627Y-118706401D01*
X147092620Y-118706403D01*
X146957913Y-118756645D01*
X146957906Y-118756649D01*
X146842812Y-118842809D01*
X146842809Y-118842812D01*
X146756649Y-118957906D01*
X146756645Y-118957913D01*
X146706403Y-119092620D01*
X146706401Y-119092627D01*
X146700000Y-119152155D01*
X138807462Y-119152155D01*
X138791095Y-119101782D01*
X138694620Y-118912442D01*
X138569727Y-118740540D01*
X138569723Y-118740535D01*
X138419464Y-118590276D01*
X138419459Y-118590272D01*
X138247555Y-118465377D01*
X138238500Y-118460763D01*
X138187706Y-118412788D01*
X138170912Y-118344966D01*
X138193451Y-118278832D01*
X138238508Y-118239793D01*
X138247816Y-118235051D01*
X138327007Y-118177515D01*
X138419786Y-118110109D01*
X138419788Y-118110106D01*
X138419792Y-118110104D01*
X138570104Y-117959792D01*
X138570106Y-117959788D01*
X138570109Y-117959786D01*
X138695048Y-117787820D01*
X138695047Y-117787820D01*
X138695051Y-117787816D01*
X138791557Y-117598412D01*
X138857246Y-117396243D01*
X138890500Y-117186287D01*
X138890500Y-116973713D01*
X138857246Y-116763757D01*
X138791557Y-116561588D01*
X138695051Y-116372184D01*
X138695049Y-116372181D01*
X138695048Y-116372179D01*
X138570109Y-116200213D01*
X138419786Y-116049890D01*
X138247820Y-115924951D01*
X138247115Y-115924591D01*
X138239054Y-115920485D01*
X138188259Y-115872512D01*
X138171463Y-115804692D01*
X138193999Y-115738556D01*
X138239054Y-115699515D01*
X138247816Y-115695051D01*
X138269789Y-115679086D01*
X138419786Y-115570109D01*
X138419788Y-115570106D01*
X138419792Y-115570104D01*
X138570104Y-115419792D01*
X138570106Y-115419788D01*
X138570109Y-115419786D01*
X138695048Y-115247820D01*
X138695047Y-115247820D01*
X138695051Y-115247816D01*
X138791557Y-115058412D01*
X138857246Y-114856243D01*
X138890500Y-114646287D01*
X138890500Y-114433713D01*
X138857246Y-114223757D01*
X138833981Y-114152155D01*
X146700000Y-114152155D01*
X146700000Y-114750000D01*
X147684314Y-114750000D01*
X147679920Y-114754394D01*
X147627259Y-114845606D01*
X147600000Y-114947339D01*
X147600000Y-115052661D01*
X147627259Y-115154394D01*
X147679920Y-115245606D01*
X147684314Y-115250000D01*
X146700000Y-115250000D01*
X146700000Y-115847844D01*
X146706401Y-115907372D01*
X146706403Y-115907379D01*
X146756645Y-116042086D01*
X146756649Y-116042093D01*
X146842809Y-116157187D01*
X146842812Y-116157190D01*
X146957906Y-116243350D01*
X146957913Y-116243354D01*
X147092620Y-116293596D01*
X147092627Y-116293598D01*
X147152155Y-116299999D01*
X147152172Y-116300000D01*
X147750000Y-116300000D01*
X147750000Y-115315686D01*
X147754394Y-115320080D01*
X147845606Y-115372741D01*
X147947339Y-115400000D01*
X148052661Y-115400000D01*
X148154394Y-115372741D01*
X148245606Y-115320080D01*
X148250000Y-115315686D01*
X148250000Y-116300000D01*
X148847828Y-116300000D01*
X148847844Y-116299999D01*
X148907372Y-116293598D01*
X148907379Y-116293596D01*
X149042086Y-116243354D01*
X149042093Y-116243350D01*
X149157187Y-116157190D01*
X149157190Y-116157187D01*
X149243350Y-116042093D01*
X149243354Y-116042086D01*
X149293596Y-115907379D01*
X149293598Y-115907372D01*
X149299999Y-115847844D01*
X149300000Y-115847827D01*
X149300000Y-115250000D01*
X148315686Y-115250000D01*
X148320080Y-115245606D01*
X148372741Y-115154394D01*
X148400000Y-115052661D01*
X148400000Y-114947339D01*
X148386685Y-114897648D01*
X156859500Y-114897648D01*
X156859500Y-115102351D01*
X156891522Y-115304534D01*
X156954781Y-115499223D01*
X157047715Y-115681613D01*
X157168028Y-115847213D01*
X157312786Y-115991971D01*
X157392515Y-116049896D01*
X157478390Y-116112287D01*
X157566517Y-116157190D01*
X157660776Y-116205218D01*
X157660778Y-116205218D01*
X157660781Y-116205220D01*
X157765137Y-116239127D01*
X157855465Y-116268477D01*
X157956557Y-116284488D01*
X158057648Y-116300500D01*
X158057649Y-116300500D01*
X158262351Y-116300500D01*
X158262352Y-116300500D01*
X158464534Y-116268477D01*
X158659219Y-116205220D01*
X158841610Y-116112287D01*
X158938234Y-116042086D01*
X159007213Y-115991971D01*
X159007215Y-115991968D01*
X159007219Y-115991966D01*
X159151966Y-115847219D01*
X159151968Y-115847215D01*
X159151971Y-115847213D01*
X159224422Y-115747491D01*
X159272287Y-115681610D01*
X159365220Y-115499219D01*
X159428477Y-115304534D01*
X159460500Y-115102352D01*
X159460500Y-114897648D01*
X159452257Y-114845606D01*
X159428477Y-114695465D01*
X159365218Y-114500776D01*
X159324797Y-114421447D01*
X159272287Y-114318390D01*
X159243346Y-114278556D01*
X159151971Y-114152786D01*
X159007213Y-114008028D01*
X158841613Y-113887715D01*
X158841612Y-113887714D01*
X158841610Y-113887713D01*
X158753487Y-113842812D01*
X158659223Y-113794781D01*
X158464534Y-113731522D01*
X158289995Y-113703878D01*
X158262352Y-113699500D01*
X158057648Y-113699500D01*
X158033329Y-113703351D01*
X157855465Y-113731522D01*
X157660776Y-113794781D01*
X157478386Y-113887715D01*
X157312786Y-114008028D01*
X157168028Y-114152786D01*
X157047715Y-114318386D01*
X156954781Y-114500776D01*
X156891522Y-114695465D01*
X156859500Y-114897648D01*
X148386685Y-114897648D01*
X148372741Y-114845606D01*
X148320080Y-114754394D01*
X148315686Y-114750000D01*
X149300000Y-114750000D01*
X149300000Y-114152172D01*
X149299999Y-114152155D01*
X149293598Y-114092627D01*
X149293596Y-114092620D01*
X149243354Y-113957913D01*
X149243350Y-113957906D01*
X149157190Y-113842812D01*
X149157187Y-113842809D01*
X149042093Y-113756649D01*
X149042086Y-113756645D01*
X148907379Y-113706403D01*
X148907372Y-113706401D01*
X148847844Y-113700000D01*
X148250000Y-113700000D01*
X148250000Y-114684314D01*
X148245606Y-114679920D01*
X148154394Y-114627259D01*
X148052661Y-114600000D01*
X147947339Y-114600000D01*
X147845606Y-114627259D01*
X147754394Y-114679920D01*
X147750000Y-114684314D01*
X147750000Y-113700000D01*
X147152155Y-113700000D01*
X147092627Y-113706401D01*
X147092620Y-113706403D01*
X146957913Y-113756645D01*
X146957906Y-113756649D01*
X146842812Y-113842809D01*
X146842809Y-113842812D01*
X146756649Y-113957906D01*
X146756645Y-113957913D01*
X146706403Y-114092620D01*
X146706401Y-114092627D01*
X146700000Y-114152155D01*
X138833981Y-114152155D01*
X138791557Y-114021588D01*
X138695051Y-113832184D01*
X138695049Y-113832181D01*
X138695048Y-113832179D01*
X138570109Y-113660213D01*
X138419786Y-113509890D01*
X138247820Y-113384951D01*
X138247115Y-113384591D01*
X138239054Y-113380485D01*
X138188259Y-113332512D01*
X138171463Y-113264692D01*
X138193999Y-113198556D01*
X138239054Y-113159515D01*
X138247816Y-113155051D01*
X138334138Y-113092335D01*
X138419786Y-113030109D01*
X138419788Y-113030106D01*
X138419792Y-113030104D01*
X138570104Y-112879792D01*
X138570106Y-112879788D01*
X138570109Y-112879786D01*
X138695048Y-112707820D01*
X138695047Y-112707820D01*
X138695051Y-112707816D01*
X138791557Y-112518412D01*
X138857246Y-112316243D01*
X138890500Y-112106287D01*
X138890500Y-111893713D01*
X138857246Y-111683757D01*
X138791557Y-111481588D01*
X138695051Y-111292184D01*
X138695049Y-111292181D01*
X138695048Y-111292179D01*
X138570109Y-111120213D01*
X138419786Y-110969890D01*
X138247820Y-110844951D01*
X138058414Y-110748444D01*
X138058413Y-110748443D01*
X138058412Y-110748443D01*
X137856243Y-110682754D01*
X137856241Y-110682753D01*
X137856240Y-110682753D01*
X137694957Y-110657208D01*
X137646287Y-110649500D01*
X137433713Y-110649500D01*
X137385042Y-110657208D01*
X137223760Y-110682753D01*
X137021585Y-110748444D01*
X136832179Y-110844951D01*
X136660215Y-110969889D01*
X136546673Y-111083431D01*
X136485350Y-111116915D01*
X136415658Y-111111931D01*
X136359725Y-111070059D01*
X136342810Y-111039082D01*
X136293797Y-110907671D01*
X136293793Y-110907664D01*
X136207547Y-110792455D01*
X136207544Y-110792452D01*
X136092335Y-110706206D01*
X136092328Y-110706202D01*
X135957482Y-110655908D01*
X135957483Y-110655908D01*
X135897883Y-110649501D01*
X135897881Y-110649500D01*
X135897873Y-110649500D01*
X135897864Y-110649500D01*
X134102129Y-110649500D01*
X134102123Y-110649501D01*
X134042516Y-110655908D01*
X133907671Y-110706202D01*
X133907664Y-110706206D01*
X133792455Y-110792452D01*
X133792452Y-110792455D01*
X133706206Y-110907664D01*
X133706202Y-110907671D01*
X133655908Y-111042517D01*
X133649501Y-111102116D01*
X133649500Y-111102135D01*
X133649500Y-112897870D01*
X133649501Y-112897876D01*
X133655908Y-112957483D01*
X133706202Y-113092328D01*
X133706206Y-113092335D01*
X133792452Y-113207544D01*
X133792455Y-113207547D01*
X133907664Y-113293793D01*
X133907671Y-113293797D01*
X134039082Y-113342810D01*
X134095016Y-113384681D01*
X134119433Y-113450145D01*
X134104582Y-113518418D01*
X134083431Y-113546673D01*
X133969889Y-113660215D01*
X133844951Y-113832179D01*
X133748444Y-114021585D01*
X133682753Y-114223760D01*
X133649500Y-114433713D01*
X133649500Y-114646286D01*
X133682753Y-114856239D01*
X133682753Y-114856241D01*
X133682754Y-114856243D01*
X133746574Y-115052661D01*
X133748444Y-115058414D01*
X133844951Y-115247820D01*
X133969890Y-115419786D01*
X134120213Y-115570109D01*
X134292182Y-115695050D01*
X134300946Y-115699516D01*
X134351742Y-115747491D01*
X134368536Y-115815312D01*
X134345998Y-115881447D01*
X134300946Y-115920484D01*
X134292182Y-115924949D01*
X134120213Y-116049890D01*
X133969890Y-116200213D01*
X133844951Y-116372179D01*
X133748444Y-116561585D01*
X133682753Y-116763760D01*
X133649500Y-116973713D01*
X133649500Y-117186286D01*
X133664376Y-117280213D01*
X133682754Y-117396243D01*
X133703776Y-117460943D01*
X133748444Y-117598414D01*
X133844951Y-117787820D01*
X133969890Y-117959786D01*
X134120213Y-118110109D01*
X134292182Y-118235050D01*
X134300946Y-118239516D01*
X134351742Y-118287491D01*
X134368536Y-118355312D01*
X134345998Y-118421447D01*
X134300946Y-118460484D01*
X134292182Y-118464949D01*
X134120213Y-118589890D01*
X133969890Y-118740213D01*
X133844951Y-118912179D01*
X133748444Y-119101585D01*
X133682753Y-119303760D01*
X133661616Y-119437217D01*
X133649500Y-119513713D01*
X133649500Y-119726287D01*
X133649899Y-119728804D01*
X133665747Y-119828869D01*
X133682754Y-119936243D01*
X133736726Y-120102352D01*
X133748444Y-120138414D01*
X133844951Y-120327820D01*
X133969890Y-120499786D01*
X134120213Y-120650109D01*
X134292182Y-120775050D01*
X134300946Y-120779516D01*
X134351742Y-120827491D01*
X134368536Y-120895312D01*
X134345998Y-120961447D01*
X134300946Y-121000484D01*
X134292182Y-121004949D01*
X134120213Y-121129890D01*
X133969890Y-121280213D01*
X133844951Y-121452179D01*
X133748444Y-121641585D01*
X133682753Y-121843760D01*
X133649500Y-122053713D01*
X133649500Y-122266286D01*
X133664376Y-122360213D01*
X133682754Y-122476243D01*
X133743044Y-122661797D01*
X133748444Y-122678414D01*
X133844951Y-122867820D01*
X133969890Y-123039786D01*
X134120213Y-123190109D01*
X134292182Y-123315050D01*
X134300946Y-123319516D01*
X134351742Y-123367491D01*
X134368536Y-123435312D01*
X134345998Y-123501447D01*
X134300946Y-123540484D01*
X134292182Y-123544949D01*
X134120213Y-123669890D01*
X134120209Y-123669894D01*
X133986678Y-123803426D01*
X133925355Y-123836911D01*
X133855663Y-123831927D01*
X133811316Y-123803426D01*
X131015950Y-121008060D01*
X131008660Y-121000770D01*
X131008658Y-121000767D01*
X130921533Y-120913642D01*
X130870309Y-120879415D01*
X130819086Y-120845188D01*
X130714853Y-120802014D01*
X130705252Y-120798037D01*
X130644829Y-120786018D01*
X130642029Y-120785461D01*
X130584410Y-120774000D01*
X130584407Y-120774000D01*
X130584406Y-120774000D01*
X119427562Y-120774000D01*
X119360523Y-120754315D01*
X119314768Y-120701511D01*
X119304824Y-120632353D01*
X119317077Y-120593705D01*
X119365218Y-120499223D01*
X119365218Y-120499222D01*
X119365220Y-120499219D01*
X119428477Y-120304534D01*
X119460500Y-120102352D01*
X119460500Y-119897648D01*
X119444375Y-119795840D01*
X119428477Y-119695465D01*
X119382568Y-119554174D01*
X119365220Y-119500781D01*
X119365218Y-119500778D01*
X119365218Y-119500776D01*
X119305082Y-119382754D01*
X119272287Y-119318390D01*
X119261656Y-119303757D01*
X119151971Y-119152786D01*
X119007213Y-119008028D01*
X118841613Y-118887715D01*
X118841612Y-118887714D01*
X118841610Y-118887713D01*
X118753487Y-118842812D01*
X118659223Y-118794781D01*
X118464534Y-118731522D01*
X118289995Y-118703878D01*
X118262352Y-118699500D01*
X118057648Y-118699500D01*
X118033329Y-118703351D01*
X117855465Y-118731522D01*
X117660776Y-118794781D01*
X117478386Y-118887715D01*
X117312786Y-119008028D01*
X117168028Y-119152786D01*
X117044849Y-119322331D01*
X117043176Y-119321115D01*
X116997792Y-119362169D01*
X116943885Y-119374500D01*
X116474907Y-119374500D01*
X116351693Y-119374500D01*
X116310197Y-119382754D01*
X116310196Y-119382753D01*
X116230854Y-119398535D01*
X116230841Y-119398539D01*
X116199414Y-119411557D01*
X116183697Y-119418067D01*
X116167703Y-119424692D01*
X116117013Y-119445688D01*
X116106857Y-119452475D01*
X116106749Y-119452547D01*
X116014568Y-119514140D01*
X115988225Y-119540484D01*
X115927442Y-119601267D01*
X114919247Y-120609461D01*
X114919240Y-120609468D01*
X114916270Y-120612439D01*
X114916267Y-120612442D01*
X114829142Y-120699567D01*
X114796112Y-120749000D01*
X114791681Y-120755630D01*
X114791681Y-120755631D01*
X114760688Y-120802012D01*
X114750135Y-120827491D01*
X114741693Y-120847872D01*
X114713538Y-120915844D01*
X114713535Y-120915856D01*
X114689500Y-121036689D01*
X114689500Y-121798811D01*
X114713535Y-121919644D01*
X114713540Y-121919661D01*
X114760685Y-122033480D01*
X114760687Y-122033483D01*
X114760688Y-122033486D01*
X114794915Y-122084709D01*
X114829142Y-122135933D01*
X114916267Y-122223058D01*
X114916270Y-122223060D01*
X114923554Y-122230344D01*
X115228816Y-122535606D01*
X115228845Y-122535637D01*
X115319063Y-122625855D01*
X115319067Y-122625858D01*
X115421507Y-122694307D01*
X115421513Y-122694310D01*
X115421514Y-122694311D01*
X115535348Y-122741463D01*
X115560169Y-122746400D01*
X115656191Y-122765499D01*
X115656192Y-122765500D01*
X115656193Y-122765500D01*
X115656194Y-122765500D01*
X128412848Y-122765500D01*
X128479887Y-122785185D01*
X128500529Y-122801819D01*
X133334316Y-127635606D01*
X133334345Y-127635637D01*
X133424563Y-127725855D01*
X133424567Y-127725858D01*
X133527007Y-127794307D01*
X133527013Y-127794310D01*
X133527014Y-127794311D01*
X133640848Y-127841463D01*
X133701271Y-127853481D01*
X133748679Y-127862911D01*
X133810590Y-127895297D01*
X133834971Y-127928233D01*
X133844951Y-127947819D01*
X133969890Y-128119786D01*
X134120213Y-128270109D01*
X134292182Y-128395050D01*
X134300946Y-128399516D01*
X134351742Y-128447491D01*
X134368536Y-128515312D01*
X134345998Y-128581447D01*
X134300946Y-128620484D01*
X134292182Y-128624949D01*
X134120213Y-128749890D01*
X134120209Y-128749894D01*
X133986678Y-128883426D01*
X133925355Y-128916911D01*
X133855663Y-128911927D01*
X133811316Y-128883426D01*
X129537157Y-124609267D01*
X129529160Y-124601270D01*
X129529158Y-124601267D01*
X129442033Y-124514142D01*
X129365126Y-124462754D01*
X129359298Y-124458860D01*
X129359295Y-124458857D01*
X129339590Y-124445690D01*
X129339587Y-124445688D01*
X129339586Y-124445688D01*
X129248996Y-124408165D01*
X129225752Y-124398537D01*
X129151446Y-124383757D01*
X129147901Y-124383051D01*
X129147890Y-124383049D01*
X129104908Y-124374500D01*
X129104907Y-124374500D01*
X129104906Y-124374500D01*
X119376115Y-124374500D01*
X119309076Y-124354815D01*
X119276393Y-124321428D01*
X119275151Y-124322331D01*
X119151971Y-124152786D01*
X119007213Y-124008028D01*
X118841612Y-123887714D01*
X118659223Y-123794781D01*
X118464534Y-123731522D01*
X118275926Y-123701650D01*
X118262352Y-123699500D01*
X118057648Y-123699500D01*
X118044074Y-123701650D01*
X117855465Y-123731522D01*
X117660776Y-123794781D01*
X117478388Y-123887714D01*
X117312786Y-124008028D01*
X117168028Y-124152786D01*
X117047715Y-124318386D01*
X116954781Y-124500776D01*
X116891522Y-124695465D01*
X116859500Y-124897648D01*
X116859500Y-125102351D01*
X116891522Y-125304534D01*
X116954781Y-125499223D01*
X116995831Y-125579786D01*
X117043689Y-125673713D01*
X117047715Y-125681613D01*
X117168028Y-125847213D01*
X117312786Y-125991971D01*
X117434619Y-126080486D01*
X117478390Y-126112287D01*
X117566517Y-126157190D01*
X117660776Y-126205218D01*
X117660778Y-126205218D01*
X117660781Y-126205220D01*
X117693928Y-126215990D01*
X117855465Y-126268477D01*
X117956557Y-126284488D01*
X118057648Y-126300500D01*
X118057649Y-126300500D01*
X118262351Y-126300500D01*
X118262352Y-126300500D01*
X118464534Y-126268477D01*
X118659219Y-126205220D01*
X118841610Y-126112287D01*
X118951412Y-126032512D01*
X119007213Y-125991971D01*
X119007215Y-125991968D01*
X119007219Y-125991966D01*
X119151966Y-125847219D01*
X119151968Y-125847215D01*
X119151971Y-125847213D01*
X119275151Y-125677669D01*
X119276823Y-125678884D01*
X119322208Y-125637831D01*
X119376115Y-125625500D01*
X128732848Y-125625500D01*
X128799887Y-125645185D01*
X128820529Y-125661819D01*
X133337439Y-130178729D01*
X133337442Y-130178733D01*
X133424567Y-130265858D01*
X133501490Y-130317256D01*
X133507290Y-130321132D01*
X133507293Y-130321134D01*
X133527010Y-130334309D01*
X133527012Y-130334310D01*
X133527015Y-130334312D01*
X133593696Y-130361931D01*
X133593698Y-130361933D01*
X133628029Y-130376153D01*
X133640848Y-130381463D01*
X133701271Y-130393481D01*
X133748679Y-130402911D01*
X133810590Y-130435297D01*
X133834971Y-130468233D01*
X133844948Y-130487815D01*
X133967199Y-130656081D01*
X133990678Y-130721888D01*
X133974852Y-130789942D01*
X133954561Y-130816647D01*
X133658925Y-131112284D01*
X133424570Y-131346639D01*
X133424567Y-131346642D01*
X133392797Y-131378412D01*
X133337442Y-131433766D01*
X133321143Y-131458159D01*
X133304954Y-131482389D01*
X133268988Y-131536214D01*
X133268986Y-131536216D01*
X133237520Y-131612184D01*
X133230491Y-131629157D01*
X133221837Y-131650049D01*
X133198217Y-131768800D01*
X133197800Y-131770894D01*
X133197800Y-132745893D01*
X133197800Y-132869107D01*
X133200283Y-132881588D01*
X133221837Y-132989952D01*
X133233426Y-133017931D01*
X133236896Y-133026310D01*
X133236897Y-133026311D01*
X133268985Y-133103781D01*
X133268987Y-133103784D01*
X133268988Y-133103786D01*
X133303215Y-133155009D01*
X133337441Y-133206233D01*
X133428886Y-133297678D01*
X133428908Y-133297698D01*
X133954562Y-133823352D01*
X133988047Y-133884675D01*
X133983063Y-133954367D01*
X133967200Y-133983918D01*
X133844948Y-134152184D01*
X133748444Y-134341585D01*
X133682753Y-134543760D01*
X133658725Y-134695466D01*
X133649500Y-134753713D01*
X133649500Y-134966287D01*
X133649899Y-134968804D01*
X133682753Y-135176239D01*
X133682753Y-135176241D01*
X133682754Y-135176243D01*
X133746600Y-135372741D01*
X133748444Y-135378414D01*
X133844951Y-135567820D01*
X133969890Y-135739786D01*
X134120213Y-135890109D01*
X134292182Y-136015050D01*
X134300946Y-136019516D01*
X134351742Y-136067491D01*
X134368536Y-136135312D01*
X134345998Y-136201447D01*
X134300946Y-136240484D01*
X134292182Y-136244949D01*
X134120213Y-136369890D01*
X133969890Y-136520213D01*
X133844951Y-136692179D01*
X133748444Y-136881585D01*
X133682753Y-137083760D01*
X133649500Y-137293713D01*
X133649500Y-137506286D01*
X133665100Y-137604784D01*
X133682754Y-137716243D01*
X133746322Y-137911885D01*
X133748444Y-137918414D01*
X133844951Y-138107820D01*
X133969890Y-138279786D01*
X134120213Y-138430109D01*
X134292179Y-138555048D01*
X134292181Y-138555049D01*
X134292184Y-138555051D01*
X134300941Y-138559512D01*
X134351738Y-138607483D01*
X134368536Y-138675303D01*
X134346002Y-138741440D01*
X134300953Y-138780480D01*
X134292181Y-138784950D01*
X134120213Y-138909890D01*
X133969890Y-139060213D01*
X133844951Y-139232179D01*
X133748444Y-139421585D01*
X133682753Y-139623760D01*
X133649500Y-139833713D01*
X133649500Y-140046286D01*
X133680502Y-140242029D01*
X133682754Y-140256243D01*
X133700930Y-140312184D01*
X133748444Y-140458414D01*
X133844951Y-140647820D01*
X133969890Y-140819786D01*
X134120213Y-140970109D01*
X134292182Y-141095050D01*
X134300946Y-141099516D01*
X134351742Y-141147491D01*
X134368536Y-141215312D01*
X134345998Y-141281447D01*
X134300946Y-141320484D01*
X134292182Y-141324949D01*
X134120213Y-141449890D01*
X133969890Y-141600213D01*
X133844950Y-141772180D01*
X133837503Y-141786797D01*
X133789527Y-141837592D01*
X133727019Y-141854500D01*
X129585089Y-141854500D01*
X129524671Y-141866518D01*
X129481443Y-141875116D01*
X129464246Y-141878537D01*
X129350416Y-141925687D01*
X129350407Y-141925692D01*
X129247968Y-141994140D01*
X129224210Y-142017899D01*
X129160842Y-142081267D01*
X129160839Y-142081270D01*
X125362385Y-145879723D01*
X125301062Y-145913208D01*
X125231370Y-145908224D01*
X125175439Y-145866355D01*
X125157546Y-145842454D01*
X125157544Y-145842452D01*
X125042335Y-145756206D01*
X125042328Y-145756202D01*
X124907482Y-145705908D01*
X124907483Y-145705908D01*
X124847883Y-145699501D01*
X124847881Y-145699500D01*
X124847873Y-145699500D01*
X124847864Y-145699500D01*
X123152129Y-145699500D01*
X123152123Y-145699501D01*
X123092516Y-145705908D01*
X122957671Y-145756202D01*
X122957664Y-145756206D01*
X122842455Y-145842452D01*
X122842452Y-145842455D01*
X122756206Y-145957664D01*
X122756202Y-145957671D01*
X122705908Y-146092517D01*
X122699501Y-146152116D01*
X122699500Y-146152135D01*
X122699500Y-147847870D01*
X122699501Y-147847876D01*
X122705908Y-147907483D01*
X122756202Y-148042328D01*
X122756206Y-148042335D01*
X122842452Y-148157544D01*
X122842455Y-148157547D01*
X122957664Y-148243793D01*
X122957671Y-148243797D01*
X123002618Y-148260561D01*
X123092517Y-148294091D01*
X123129441Y-148298060D01*
X123193989Y-148324796D01*
X123233838Y-148382188D01*
X123236333Y-148452013D01*
X123200681Y-148512102D01*
X123189071Y-148521666D01*
X123152784Y-148548030D01*
X123008028Y-148692786D01*
X122887715Y-148858386D01*
X122794781Y-149040776D01*
X122731522Y-149235465D01*
X122699500Y-149437648D01*
X122699500Y-149642351D01*
X122731522Y-149844534D01*
X122794781Y-150039223D01*
X122834970Y-150118097D01*
X122887549Y-150221289D01*
X122887715Y-150221613D01*
X123008028Y-150387213D01*
X123152786Y-150531971D01*
X123284195Y-150627443D01*
X123318390Y-150652287D01*
X123396274Y-150691971D01*
X123411080Y-150699515D01*
X123461876Y-150747490D01*
X123478671Y-150815311D01*
X123456134Y-150881446D01*
X123411080Y-150920485D01*
X123318386Y-150967715D01*
X123152786Y-151088028D01*
X123008028Y-151232786D01*
X122887715Y-151398386D01*
X122794781Y-151580776D01*
X122731522Y-151775465D01*
X122699500Y-151977648D01*
X122699500Y-152182351D01*
X122731522Y-152384534D01*
X122794781Y-152579223D01*
X122857393Y-152702103D01*
X122877951Y-152742452D01*
X122887715Y-152761613D01*
X123008028Y-152927213D01*
X123152786Y-153071971D01*
X123307749Y-153184556D01*
X123318390Y-153192287D01*
X123396274Y-153231971D01*
X123411080Y-153239515D01*
X123461876Y-153287490D01*
X123478671Y-153355311D01*
X123456134Y-153421446D01*
X123411080Y-153460485D01*
X123318386Y-153507715D01*
X123152786Y-153628028D01*
X123008028Y-153772786D01*
X122887715Y-153938386D01*
X122794781Y-154120776D01*
X122731522Y-154315465D01*
X122699500Y-154517648D01*
X122699500Y-154722351D01*
X122731522Y-154924534D01*
X122794781Y-155119223D01*
X122835035Y-155198224D01*
X122885820Y-155297895D01*
X122887715Y-155301613D01*
X123008028Y-155467213D01*
X123152786Y-155611971D01*
X123282763Y-155706403D01*
X123318390Y-155732287D01*
X123434607Y-155791503D01*
X123500776Y-155825218D01*
X123500778Y-155825218D01*
X123500781Y-155825220D01*
X123554924Y-155842812D01*
X123695465Y-155888477D01*
X123796557Y-155904488D01*
X123897648Y-155920500D01*
X123897649Y-155920500D01*
X124102351Y-155920500D01*
X124102352Y-155920500D01*
X124304534Y-155888477D01*
X124499219Y-155825220D01*
X124681610Y-155732287D01*
X124794282Y-155650427D01*
X124847213Y-155611971D01*
X124847215Y-155611968D01*
X124847219Y-155611966D01*
X124991966Y-155467219D01*
X124991968Y-155467215D01*
X124991971Y-155467213D01*
X125065495Y-155366014D01*
X125112287Y-155301610D01*
X125205220Y-155119219D01*
X125268477Y-154924534D01*
X125300500Y-154722352D01*
X125300500Y-154517648D01*
X125282369Y-154403176D01*
X125268477Y-154315465D01*
X125205218Y-154120776D01*
X125171503Y-154054607D01*
X125112287Y-153938390D01*
X125076969Y-153889778D01*
X124991971Y-153772786D01*
X124847213Y-153628028D01*
X124681614Y-153507715D01*
X124665491Y-153499500D01*
X124588917Y-153460483D01*
X124538123Y-153412511D01*
X124521328Y-153344690D01*
X124543865Y-153278555D01*
X124588917Y-153239516D01*
X124681610Y-153192287D01*
X124702770Y-153176913D01*
X124847213Y-153071971D01*
X124847215Y-153071968D01*
X124847219Y-153071966D01*
X124991966Y-152927219D01*
X124991968Y-152927215D01*
X124991971Y-152927213D01*
X125054272Y-152841461D01*
X125112287Y-152761610D01*
X125205220Y-152579219D01*
X125268477Y-152384534D01*
X125300500Y-152182352D01*
X125300500Y-151977648D01*
X125268477Y-151775466D01*
X125268364Y-151775119D01*
X125211191Y-151599158D01*
X125205220Y-151580781D01*
X125205218Y-151580778D01*
X125205218Y-151580776D01*
X125145489Y-151463553D01*
X125112287Y-151398390D01*
X125100583Y-151382281D01*
X124991971Y-151232786D01*
X124847213Y-151088028D01*
X124681614Y-150967715D01*
X124675006Y-150964348D01*
X124588917Y-150920483D01*
X124538123Y-150872511D01*
X124521328Y-150804690D01*
X124543865Y-150738555D01*
X124588917Y-150699516D01*
X124681610Y-150652287D01*
X124752888Y-150600501D01*
X124847213Y-150531971D01*
X124847215Y-150531968D01*
X124847219Y-150531966D01*
X124991966Y-150387219D01*
X124991968Y-150387215D01*
X124991971Y-150387213D01*
X125112280Y-150221620D01*
X125112281Y-150221617D01*
X125112287Y-150221610D01*
X125112291Y-150221601D01*
X125112542Y-150221193D01*
X125112684Y-150221064D01*
X125115151Y-150217669D01*
X125115863Y-150218186D01*
X125137034Y-150199027D01*
X125160803Y-150176092D01*
X125163384Y-150175181D01*
X125164347Y-150174310D01*
X125194082Y-150164351D01*
X125248729Y-150153481D01*
X125309152Y-150141463D01*
X125345162Y-150126547D01*
X125422986Y-150094312D01*
X125474209Y-150060084D01*
X125525433Y-150025858D01*
X125612558Y-149938733D01*
X125612558Y-149938731D01*
X125622766Y-149928524D01*
X125622767Y-149928521D01*
X126476172Y-149075119D01*
X126537495Y-149041634D01*
X126563853Y-149038800D01*
X130245278Y-149038800D01*
X130312317Y-149058485D01*
X130358072Y-149111289D01*
X130368016Y-149180447D01*
X130363209Y-149201119D01*
X130352008Y-149235588D01*
X130343391Y-149290000D01*
X131304314Y-149290000D01*
X131299920Y-149294394D01*
X131247259Y-149385606D01*
X131220000Y-149487339D01*
X131220000Y-149592661D01*
X131247259Y-149694394D01*
X131299920Y-149785606D01*
X131304314Y-149790000D01*
X130343391Y-149790000D01*
X130352009Y-149844413D01*
X130415244Y-150039029D01*
X130508140Y-150221349D01*
X130628417Y-150386894D01*
X130628417Y-150386895D01*
X130773104Y-150531582D01*
X130938651Y-150651860D01*
X130949036Y-150657151D01*
X130968714Y-150675735D01*
X130990671Y-150691568D01*
X130993739Y-150699367D01*
X130999834Y-150705123D01*
X131006341Y-150731398D01*
X131016252Y-150756586D01*
X131015598Y-150768771D01*
X131016632Y-150772943D01*
X131014363Y-150791829D01*
X130995649Y-150885911D01*
X130963264Y-150947822D01*
X130942231Y-150964711D01*
X130942331Y-150964849D01*
X130939481Y-150966919D01*
X130938833Y-150967440D01*
X130938396Y-150967707D01*
X130772786Y-151088028D01*
X130628028Y-151232786D01*
X130507715Y-151398386D01*
X130414781Y-151580776D01*
X130351522Y-151775465D01*
X130319500Y-151977648D01*
X130319500Y-152182351D01*
X130351522Y-152384534D01*
X130414781Y-152579223D01*
X130477393Y-152702103D01*
X130497951Y-152742452D01*
X130507715Y-152761613D01*
X130628028Y-152927213D01*
X130772786Y-153071971D01*
X130927749Y-153184556D01*
X130938390Y-153192287D01*
X131016274Y-153231971D01*
X131031080Y-153239515D01*
X131081876Y-153287490D01*
X131098671Y-153355311D01*
X131076134Y-153421446D01*
X131031080Y-153460485D01*
X130938386Y-153507715D01*
X130772786Y-153628028D01*
X130628028Y-153772786D01*
X130507715Y-153938386D01*
X130414781Y-154120776D01*
X130351522Y-154315465D01*
X130319500Y-154517648D01*
X130319500Y-154722351D01*
X130351522Y-154924534D01*
X130414781Y-155119223D01*
X130455035Y-155198224D01*
X130505820Y-155297895D01*
X130507715Y-155301613D01*
X130628028Y-155467213D01*
X130733024Y-155572209D01*
X130766509Y-155633532D01*
X130761525Y-155703224D01*
X130719653Y-155759157D01*
X130654189Y-155783574D01*
X130607025Y-155777821D01*
X130464536Y-155731523D01*
X130302816Y-155705909D01*
X130262352Y-155699500D01*
X130057648Y-155699500D01*
X130034136Y-155703224D01*
X129855465Y-155731522D01*
X129660776Y-155794781D01*
X129478386Y-155887715D01*
X129312786Y-156008028D01*
X129168028Y-156152786D01*
X129047707Y-156318396D01*
X129047440Y-156318833D01*
X129047295Y-156318963D01*
X129044849Y-156322331D01*
X129044141Y-156321816D01*
X128995623Y-156365703D01*
X128965911Y-156375649D01*
X128850855Y-156398535D01*
X128850847Y-156398537D01*
X128737016Y-156445687D01*
X128654565Y-156500780D01*
X128634566Y-156514142D01*
X128634560Y-156514147D01*
X127683829Y-157464881D01*
X127622506Y-157498366D01*
X127596148Y-157501200D01*
X121424500Y-157501200D01*
X121357461Y-157481515D01*
X121311706Y-157428711D01*
X121300500Y-157377200D01*
X121300499Y-156152129D01*
X121300498Y-156152123D01*
X121300497Y-156152116D01*
X121294091Y-156092517D01*
X121256969Y-155992989D01*
X121243797Y-155957671D01*
X121243793Y-155957664D01*
X121157547Y-155842455D01*
X121157544Y-155842452D01*
X121042335Y-155756206D01*
X121042328Y-155756202D01*
X120907482Y-155705908D01*
X120907483Y-155705908D01*
X120847883Y-155699501D01*
X120847881Y-155699500D01*
X120847873Y-155699500D01*
X120847864Y-155699500D01*
X119152129Y-155699500D01*
X119152123Y-155699501D01*
X119092516Y-155705908D01*
X118957671Y-155756202D01*
X118957664Y-155756206D01*
X118842455Y-155842452D01*
X118842452Y-155842455D01*
X118756206Y-155957664D01*
X118756202Y-155957671D01*
X118705908Y-156092517D01*
X118701939Y-156129438D01*
X118699501Y-156152123D01*
X118699500Y-156152135D01*
X118699501Y-157377200D01*
X118679816Y-157444239D01*
X118627013Y-157489994D01*
X118575501Y-157501200D01*
X115915248Y-157501200D01*
X115848209Y-157481515D01*
X115802454Y-157428711D01*
X115792510Y-157359553D01*
X115797317Y-157338881D01*
X115808477Y-157304534D01*
X115828322Y-157179240D01*
X115840500Y-157102352D01*
X115840500Y-156897648D01*
X115829474Y-156828031D01*
X115808477Y-156695465D01*
X115749563Y-156514147D01*
X115745220Y-156500781D01*
X115745218Y-156500778D01*
X115745218Y-156500776D01*
X115693123Y-156398535D01*
X115652287Y-156318390D01*
X115644556Y-156307749D01*
X115531971Y-156152786D01*
X115387213Y-156008028D01*
X115221613Y-155887715D01*
X115221612Y-155887714D01*
X115221610Y-155887713D01*
X115133487Y-155842812D01*
X115039223Y-155794781D01*
X114844534Y-155731522D01*
X114665864Y-155703224D01*
X114642352Y-155699500D01*
X114437648Y-155699500D01*
X114414136Y-155703224D01*
X114235465Y-155731522D01*
X114040776Y-155794781D01*
X113858386Y-155887715D01*
X113692786Y-156008028D01*
X113548032Y-156152782D01*
X113521668Y-156189070D01*
X113466338Y-156231735D01*
X113396724Y-156237714D01*
X113334929Y-156205108D01*
X113300572Y-156144269D01*
X113298060Y-156129438D01*
X113297640Y-156125533D01*
X113294091Y-156092517D01*
X113258298Y-155996552D01*
X113243797Y-155957671D01*
X113243793Y-155957664D01*
X113157547Y-155842455D01*
X113157544Y-155842452D01*
X113042335Y-155756206D01*
X113042328Y-155756202D01*
X112907482Y-155705908D01*
X112907483Y-155705908D01*
X112847883Y-155699501D01*
X112847881Y-155699500D01*
X112847873Y-155699500D01*
X112847864Y-155699500D01*
X111152129Y-155699500D01*
X111152123Y-155699501D01*
X111092516Y-155705908D01*
X110957671Y-155756202D01*
X110957664Y-155756206D01*
X110842455Y-155842452D01*
X110842452Y-155842455D01*
X110756206Y-155957664D01*
X110756202Y-155957671D01*
X110705908Y-156092517D01*
X110701939Y-156129438D01*
X110699501Y-156152123D01*
X110699500Y-156152135D01*
X110699500Y-157847870D01*
X110699501Y-157847876D01*
X110705908Y-157907483D01*
X110756202Y-158042328D01*
X110756206Y-158042335D01*
X110842452Y-158157544D01*
X110842455Y-158157547D01*
X110957664Y-158243793D01*
X110957671Y-158243797D01*
X111092517Y-158294091D01*
X111092516Y-158294091D01*
X111099444Y-158294835D01*
X111152127Y-158300500D01*
X112847872Y-158300499D01*
X112907483Y-158294091D01*
X113042331Y-158243796D01*
X113048829Y-158238931D01*
X113114290Y-158214511D01*
X113182564Y-158229360D01*
X113210824Y-158250514D01*
X113485739Y-158525429D01*
X113485742Y-158525433D01*
X113572867Y-158612558D01*
X113624090Y-158646784D01*
X113675314Y-158681012D01*
X113675315Y-158681012D01*
X113675316Y-158681013D01*
X113748990Y-158711529D01*
X113748994Y-158711530D01*
X113755807Y-158714352D01*
X113789148Y-158728163D01*
X113849571Y-158740181D01*
X113909993Y-158752200D01*
X127968207Y-158752200D01*
X128028629Y-158740181D01*
X128089052Y-158728163D01*
X128122392Y-158714352D01*
X128202886Y-158681012D01*
X128254109Y-158646784D01*
X128305333Y-158612558D01*
X128392458Y-158525433D01*
X128392458Y-158525431D01*
X128402666Y-158515224D01*
X128402667Y-158515221D01*
X129031672Y-157886216D01*
X129092994Y-157852733D01*
X129162686Y-157857717D01*
X129207033Y-157886218D01*
X129312786Y-157991971D01*
X129467749Y-158104556D01*
X129478390Y-158112287D01*
X129566517Y-158157190D01*
X129660776Y-158205218D01*
X129660778Y-158205218D01*
X129660781Y-158205220D01*
X129764536Y-158238932D01*
X129855465Y-158268477D01*
X129956557Y-158284488D01*
X130057648Y-158300500D01*
X130057649Y-158300500D01*
X130262351Y-158300500D01*
X130262352Y-158300500D01*
X130464534Y-158268477D01*
X130659219Y-158205220D01*
X130841610Y-158112287D01*
X130938234Y-158042086D01*
X131007213Y-157991971D01*
X131007215Y-157991968D01*
X131007219Y-157991966D01*
X131151966Y-157847219D01*
X131151968Y-157847215D01*
X131151971Y-157847213D01*
X131204732Y-157774590D01*
X131272287Y-157681610D01*
X131365220Y-157499219D01*
X131428477Y-157304534D01*
X131453527Y-157146375D01*
X131483456Y-157083241D01*
X131542768Y-157046310D01*
X131612630Y-157047308D01*
X131670863Y-157085918D01*
X131698977Y-157149881D01*
X131700000Y-157165774D01*
X131700000Y-157847844D01*
X131706401Y-157907372D01*
X131706403Y-157907379D01*
X131756645Y-158042086D01*
X131756649Y-158042093D01*
X131842809Y-158157187D01*
X131842812Y-158157190D01*
X131957906Y-158243350D01*
X131957913Y-158243354D01*
X132092620Y-158293596D01*
X132092627Y-158293598D01*
X132152155Y-158299999D01*
X132152172Y-158300000D01*
X132750000Y-158300000D01*
X132750000Y-157315686D01*
X132754394Y-157320080D01*
X132845606Y-157372741D01*
X132947339Y-157400000D01*
X133052661Y-157400000D01*
X133154394Y-157372741D01*
X133245606Y-157320080D01*
X133250000Y-157315686D01*
X133250000Y-158300000D01*
X133847828Y-158300000D01*
X133847844Y-158299999D01*
X133907372Y-158293598D01*
X133907379Y-158293596D01*
X134042086Y-158243354D01*
X134042093Y-158243350D01*
X134157187Y-158157190D01*
X134157190Y-158157187D01*
X134243350Y-158042093D01*
X134243354Y-158042086D01*
X134293596Y-157907379D01*
X134293598Y-157907372D01*
X134299999Y-157847844D01*
X134300000Y-157847827D01*
X134300000Y-157250000D01*
X133315686Y-157250000D01*
X133320080Y-157245606D01*
X133372741Y-157154394D01*
X133400000Y-157052661D01*
X133400000Y-156947339D01*
X133386685Y-156897648D01*
X136699500Y-156897648D01*
X136699500Y-157102351D01*
X136731522Y-157304534D01*
X136794781Y-157499223D01*
X136887715Y-157681613D01*
X137008028Y-157847213D01*
X137152786Y-157991971D01*
X137307749Y-158104556D01*
X137318390Y-158112287D01*
X137406517Y-158157190D01*
X137500776Y-158205218D01*
X137500778Y-158205218D01*
X137500781Y-158205220D01*
X137604536Y-158238932D01*
X137695465Y-158268477D01*
X137796557Y-158284488D01*
X137897648Y-158300500D01*
X137897649Y-158300500D01*
X138102351Y-158300500D01*
X138102352Y-158300500D01*
X138304534Y-158268477D01*
X138499219Y-158205220D01*
X138681610Y-158112287D01*
X138778234Y-158042086D01*
X138847213Y-157991971D01*
X138847215Y-157991968D01*
X138847219Y-157991966D01*
X138991966Y-157847219D01*
X138991968Y-157847215D01*
X138991971Y-157847213D01*
X139044732Y-157774590D01*
X139112287Y-157681610D01*
X139205220Y-157499219D01*
X139268477Y-157304534D01*
X139288322Y-157179240D01*
X139300500Y-157102351D01*
X139300500Y-156897648D01*
X139268477Y-156695465D01*
X139209563Y-156514147D01*
X139205220Y-156500781D01*
X139205218Y-156500778D01*
X139205218Y-156500776D01*
X139153123Y-156398535D01*
X139112287Y-156318390D01*
X139104556Y-156307749D01*
X138991971Y-156152786D01*
X138847213Y-156008028D01*
X138681613Y-155887715D01*
X138681612Y-155887714D01*
X138681610Y-155887713D01*
X138593487Y-155842812D01*
X138499223Y-155794781D01*
X138304534Y-155731522D01*
X138125864Y-155703224D01*
X138102352Y-155699500D01*
X137897648Y-155699500D01*
X137874136Y-155703224D01*
X137695465Y-155731522D01*
X137500776Y-155794781D01*
X137318386Y-155887715D01*
X137152786Y-156008028D01*
X137008028Y-156152786D01*
X136887715Y-156318386D01*
X136794781Y-156500776D01*
X136731522Y-156695465D01*
X136699500Y-156897648D01*
X133386685Y-156897648D01*
X133372741Y-156845606D01*
X133320080Y-156754394D01*
X133315686Y-156750000D01*
X134300000Y-156750000D01*
X134300000Y-156152172D01*
X134299999Y-156152155D01*
X134293598Y-156092627D01*
X134293596Y-156092620D01*
X134243354Y-155957913D01*
X134243350Y-155957906D01*
X134157190Y-155842812D01*
X134157187Y-155842809D01*
X134042093Y-155756649D01*
X134042086Y-155756645D01*
X133907379Y-155706403D01*
X133907372Y-155706401D01*
X133847844Y-155700000D01*
X133250000Y-155700000D01*
X133250000Y-156684314D01*
X133245606Y-156679920D01*
X133154394Y-156627259D01*
X133052661Y-156600000D01*
X132947339Y-156600000D01*
X132845606Y-156627259D01*
X132754394Y-156679920D01*
X132750000Y-156684314D01*
X132750000Y-155734841D01*
X132635350Y-155692233D01*
X132624498Y-155684129D01*
X132611508Y-155680315D01*
X132597054Y-155663634D01*
X132579368Y-155650427D01*
X132574620Y-155637744D01*
X132565753Y-155627511D01*
X132562611Y-155605665D01*
X132554873Y-155584992D01*
X132557736Y-155571755D01*
X132555809Y-155558353D01*
X132564978Y-155538274D01*
X132569645Y-155516701D01*
X132579208Y-155507114D01*
X132584834Y-155494797D01*
X132590866Y-155488319D01*
X132611966Y-155467219D01*
X132611968Y-155467215D01*
X132611971Y-155467213D01*
X132685495Y-155366014D01*
X132732287Y-155301610D01*
X132825220Y-155119219D01*
X132888477Y-154924534D01*
X132920500Y-154722352D01*
X132920500Y-154517648D01*
X132902369Y-154403176D01*
X132888477Y-154315465D01*
X132825218Y-154120776D01*
X132791503Y-154054607D01*
X132732287Y-153938390D01*
X132696969Y-153889778D01*
X132611971Y-153772786D01*
X132467213Y-153628028D01*
X132301614Y-153507715D01*
X132285491Y-153499500D01*
X132208917Y-153460483D01*
X132158123Y-153412511D01*
X132141328Y-153344690D01*
X132163865Y-153278555D01*
X132208917Y-153239516D01*
X132301610Y-153192287D01*
X132322770Y-153176913D01*
X132467213Y-153071971D01*
X132467215Y-153071968D01*
X132467219Y-153071966D01*
X132611966Y-152927219D01*
X132611968Y-152927215D01*
X132611971Y-152927213D01*
X132674272Y-152841461D01*
X132732287Y-152761610D01*
X132825220Y-152579219D01*
X132888477Y-152384534D01*
X132920500Y-152182352D01*
X132920500Y-151977648D01*
X132888477Y-151775466D01*
X132888364Y-151775119D01*
X132831191Y-151599158D01*
X132825220Y-151580781D01*
X132825218Y-151580778D01*
X132825218Y-151580776D01*
X132732287Y-151398390D01*
X132649026Y-151283790D01*
X132625547Y-151217983D01*
X132641373Y-151149929D01*
X132661660Y-151123228D01*
X133488320Y-150296569D01*
X133549642Y-150263085D01*
X133619334Y-150268069D01*
X133675267Y-150309941D01*
X133699684Y-150375405D01*
X133700000Y-150384251D01*
X133700000Y-150847844D01*
X133706401Y-150907372D01*
X133706403Y-150907379D01*
X133756645Y-151042086D01*
X133756649Y-151042093D01*
X133842809Y-151157187D01*
X133842812Y-151157190D01*
X133957906Y-151243350D01*
X133957913Y-151243354D01*
X134092620Y-151293596D01*
X134092627Y-151293598D01*
X134152155Y-151299999D01*
X134152172Y-151300000D01*
X134750000Y-151300000D01*
X134750000Y-150315686D01*
X134754394Y-150320080D01*
X134845606Y-150372741D01*
X134947339Y-150400000D01*
X135052661Y-150400000D01*
X135154394Y-150372741D01*
X135245606Y-150320080D01*
X135250000Y-150315686D01*
X135250000Y-151300000D01*
X135847828Y-151300000D01*
X135847844Y-151299999D01*
X135907372Y-151293598D01*
X135907379Y-151293596D01*
X136042086Y-151243354D01*
X136042093Y-151243350D01*
X136157187Y-151157190D01*
X136157190Y-151157187D01*
X136243350Y-151042093D01*
X136243354Y-151042086D01*
X136293596Y-150907379D01*
X136293598Y-150907372D01*
X136299999Y-150847844D01*
X136300000Y-150847827D01*
X136300000Y-150250000D01*
X135315686Y-150250000D01*
X135320080Y-150245606D01*
X135372741Y-150154394D01*
X135400000Y-150052661D01*
X135400000Y-149947339D01*
X135372741Y-149845606D01*
X135320080Y-149754394D01*
X135315686Y-149750000D01*
X136300000Y-149750000D01*
X136300000Y-149152172D01*
X136299999Y-149152155D01*
X136293598Y-149092627D01*
X136293597Y-149092623D01*
X136264253Y-149013949D01*
X136259269Y-148944258D01*
X136292750Y-148882939D01*
X136542101Y-148633587D01*
X136603423Y-148600104D01*
X136673115Y-148605088D01*
X136702666Y-148620952D01*
X136801532Y-148692781D01*
X136832184Y-148715051D01*
X137021588Y-148811557D01*
X137223757Y-148877246D01*
X137433713Y-148910500D01*
X137433714Y-148910500D01*
X137646286Y-148910500D01*
X137646287Y-148910500D01*
X137856243Y-148877246D01*
X138058412Y-148811557D01*
X138247816Y-148715051D01*
X138406028Y-148600104D01*
X138419784Y-148590110D01*
X138419784Y-148590109D01*
X138419792Y-148590104D01*
X138553324Y-148456571D01*
X138614643Y-148423089D01*
X138684335Y-148428073D01*
X138728683Y-148456574D01*
X138928502Y-148656393D01*
X139128782Y-148856672D01*
X139162266Y-148917994D01*
X139157282Y-148987685D01*
X139128782Y-149032033D01*
X139008027Y-149152788D01*
X138887715Y-149318386D01*
X138794781Y-149500776D01*
X138731522Y-149695465D01*
X138700465Y-149891555D01*
X138699500Y-149897648D01*
X138699500Y-150102352D01*
X138703878Y-150129995D01*
X138731522Y-150304534D01*
X138794781Y-150499223D01*
X138846385Y-150600500D01*
X138875250Y-150657151D01*
X138887715Y-150681613D01*
X139008028Y-150847213D01*
X139152786Y-150991971D01*
X139274618Y-151080485D01*
X139318390Y-151112287D01*
X139406517Y-151157190D01*
X139500776Y-151205218D01*
X139500778Y-151205218D01*
X139500781Y-151205220D01*
X139605137Y-151239127D01*
X139695465Y-151268477D01*
X139789318Y-151283342D01*
X139897648Y-151300500D01*
X139897649Y-151300500D01*
X140102351Y-151300500D01*
X140102352Y-151300500D01*
X140304534Y-151268477D01*
X140499219Y-151205220D01*
X140501031Y-151204297D01*
X140513758Y-151197812D01*
X140681610Y-151112287D01*
X140829015Y-151005192D01*
X140847213Y-150991971D01*
X140847215Y-150991968D01*
X140847219Y-150991966D01*
X140991966Y-150847219D01*
X140991968Y-150847215D01*
X140991971Y-150847213D01*
X141070914Y-150738555D01*
X141112287Y-150681610D01*
X141205220Y-150499219D01*
X141268477Y-150304534D01*
X141300500Y-150102352D01*
X141300500Y-149897648D01*
X141299535Y-149891555D01*
X141268477Y-149695465D01*
X141205218Y-149500776D01*
X141143218Y-149379095D01*
X141130322Y-149310426D01*
X141156598Y-149245685D01*
X141213705Y-149205428D01*
X141253703Y-149198800D01*
X146624752Y-149198800D01*
X146691791Y-149218485D01*
X146737546Y-149271289D01*
X146747490Y-149340447D01*
X146742683Y-149361119D01*
X146731522Y-149395465D01*
X146699500Y-149597648D01*
X146699500Y-149802351D01*
X146731522Y-150004534D01*
X146794781Y-150199223D01*
X146850701Y-150308970D01*
X146885317Y-150376908D01*
X146887715Y-150381613D01*
X147008028Y-150547213D01*
X147152786Y-150691971D01*
X147290232Y-150791829D01*
X147318390Y-150812287D01*
X147409840Y-150858883D01*
X147411080Y-150859515D01*
X147461876Y-150907490D01*
X147478671Y-150975311D01*
X147456134Y-151041446D01*
X147411080Y-151080485D01*
X147318386Y-151127715D01*
X147152786Y-151248028D01*
X147152782Y-151248032D01*
X147008035Y-151392780D01*
X147008028Y-151392786D01*
X146887715Y-151558386D01*
X146794781Y-151740776D01*
X146731522Y-151935465D01*
X146699500Y-152137648D01*
X146699500Y-152342351D01*
X146731522Y-152544534D01*
X146794781Y-152739223D01*
X146839837Y-152827649D01*
X146885968Y-152918186D01*
X146887715Y-152921613D01*
X147008028Y-153087213D01*
X147152786Y-153231971D01*
X147307749Y-153344556D01*
X147318390Y-153352287D01*
X147409840Y-153398883D01*
X147411080Y-153399515D01*
X147461876Y-153447490D01*
X147478671Y-153515311D01*
X147456134Y-153581446D01*
X147411080Y-153620485D01*
X147318386Y-153667715D01*
X147152786Y-153788028D01*
X147008028Y-153932786D01*
X146887715Y-154098386D01*
X146794781Y-154280776D01*
X146731522Y-154475465D01*
X146699500Y-154677648D01*
X146699500Y-154882351D01*
X146731522Y-155084534D01*
X146794781Y-155279223D01*
X146887712Y-155461609D01*
X146979433Y-155587853D01*
X147002912Y-155653660D01*
X146987086Y-155721714D01*
X146953426Y-155760004D01*
X146842809Y-155842812D01*
X146756649Y-155957906D01*
X146756645Y-155957913D01*
X146706403Y-156092620D01*
X146706401Y-156092627D01*
X146700000Y-156152155D01*
X146700000Y-156750000D01*
X147684314Y-156750000D01*
X147679920Y-156754394D01*
X147627259Y-156845606D01*
X147600000Y-156947339D01*
X147600000Y-157052661D01*
X147627259Y-157154394D01*
X147679920Y-157245606D01*
X147684314Y-157250000D01*
X146700000Y-157250000D01*
X146700000Y-157847844D01*
X146706401Y-157907372D01*
X146706403Y-157907379D01*
X146756645Y-158042086D01*
X146756649Y-158042093D01*
X146842809Y-158157187D01*
X146842812Y-158157190D01*
X146957906Y-158243350D01*
X146957913Y-158243354D01*
X147092620Y-158293596D01*
X147092627Y-158293598D01*
X147152155Y-158299999D01*
X147152172Y-158300000D01*
X147750000Y-158300000D01*
X147750000Y-157315686D01*
X147754394Y-157320080D01*
X147845606Y-157372741D01*
X147947339Y-157400000D01*
X148052661Y-157400000D01*
X148154394Y-157372741D01*
X148245606Y-157320080D01*
X148250000Y-157315686D01*
X148250000Y-158300000D01*
X148847828Y-158300000D01*
X148847844Y-158299999D01*
X148907372Y-158293598D01*
X148907379Y-158293596D01*
X149042086Y-158243354D01*
X149042093Y-158243350D01*
X149157187Y-158157190D01*
X149157190Y-158157187D01*
X149243350Y-158042093D01*
X149243354Y-158042086D01*
X149293596Y-157907379D01*
X149293598Y-157907372D01*
X149299999Y-157847844D01*
X149300000Y-157847827D01*
X149300000Y-157250000D01*
X148315686Y-157250000D01*
X148320080Y-157245606D01*
X148372741Y-157154394D01*
X148400000Y-157052661D01*
X148400000Y-156947339D01*
X148386685Y-156897648D01*
X151699500Y-156897648D01*
X151699500Y-157102351D01*
X151731522Y-157304534D01*
X151794781Y-157499223D01*
X151887715Y-157681613D01*
X152008028Y-157847213D01*
X152152786Y-157991971D01*
X152307749Y-158104556D01*
X152318390Y-158112287D01*
X152406517Y-158157190D01*
X152500776Y-158205218D01*
X152500778Y-158205218D01*
X152500781Y-158205220D01*
X152604536Y-158238932D01*
X152695465Y-158268477D01*
X152796557Y-158284488D01*
X152897648Y-158300500D01*
X152897649Y-158300500D01*
X153102351Y-158300500D01*
X153102352Y-158300500D01*
X153304534Y-158268477D01*
X153499219Y-158205220D01*
X153681610Y-158112287D01*
X153778234Y-158042086D01*
X153847213Y-157991971D01*
X153847215Y-157991968D01*
X153847219Y-157991966D01*
X153991966Y-157847219D01*
X153991968Y-157847215D01*
X153991971Y-157847213D01*
X154044732Y-157774590D01*
X154112287Y-157681610D01*
X154205220Y-157499219D01*
X154268477Y-157304534D01*
X154300500Y-157102352D01*
X154300500Y-156897648D01*
X154289474Y-156828031D01*
X154268477Y-156695465D01*
X154209563Y-156514147D01*
X154205220Y-156500781D01*
X154205218Y-156500778D01*
X154205218Y-156500776D01*
X154153123Y-156398535D01*
X154112287Y-156318390D01*
X154104556Y-156307749D01*
X153991971Y-156152786D01*
X153847213Y-156008028D01*
X153681613Y-155887715D01*
X153681612Y-155887714D01*
X153681610Y-155887713D01*
X153593487Y-155842812D01*
X153499223Y-155794781D01*
X153304534Y-155731522D01*
X153125864Y-155703224D01*
X153102352Y-155699500D01*
X152897648Y-155699500D01*
X152874136Y-155703224D01*
X152695465Y-155731522D01*
X152500776Y-155794781D01*
X152318386Y-155887715D01*
X152152786Y-156008028D01*
X152008028Y-156152786D01*
X151887715Y-156318386D01*
X151794781Y-156500776D01*
X151731522Y-156695465D01*
X151699500Y-156897648D01*
X148386685Y-156897648D01*
X148372741Y-156845606D01*
X148320080Y-156754394D01*
X148315686Y-156750000D01*
X149300000Y-156750000D01*
X149300000Y-156152172D01*
X149299999Y-156152155D01*
X149293598Y-156092627D01*
X149293596Y-156092620D01*
X149243354Y-155957913D01*
X149243350Y-155957906D01*
X149157190Y-155842813D01*
X149046574Y-155760005D01*
X149004703Y-155704071D01*
X148999719Y-155634379D01*
X149020567Y-155587853D01*
X149072261Y-155516701D01*
X149112287Y-155461610D01*
X149205220Y-155279219D01*
X149268477Y-155084534D01*
X149300500Y-154882352D01*
X149300500Y-154677648D01*
X149295546Y-154646373D01*
X149268477Y-154475465D01*
X149216490Y-154315466D01*
X149205220Y-154280781D01*
X149205218Y-154280778D01*
X149205218Y-154280776D01*
X149156404Y-154184975D01*
X149112287Y-154098390D01*
X149104556Y-154087749D01*
X148991971Y-153932786D01*
X148847213Y-153788028D01*
X148681614Y-153667715D01*
X148675006Y-153664348D01*
X148588917Y-153620483D01*
X148538123Y-153572511D01*
X148521328Y-153504690D01*
X148543865Y-153438555D01*
X148588917Y-153399516D01*
X148681610Y-153352287D01*
X148702770Y-153336913D01*
X148847213Y-153231971D01*
X148847215Y-153231968D01*
X148847219Y-153231966D01*
X148991966Y-153087219D01*
X148991968Y-153087215D01*
X148991971Y-153087213D01*
X149112280Y-152921620D01*
X149112281Y-152921617D01*
X149112287Y-152921610D01*
X149112291Y-152921601D01*
X149112542Y-152921193D01*
X149112684Y-152921064D01*
X149115151Y-152917669D01*
X149115863Y-152918186D01*
X149137034Y-152899027D01*
X149160803Y-152876092D01*
X149163384Y-152875181D01*
X149164347Y-152874310D01*
X149194082Y-152864351D01*
X149248729Y-152853481D01*
X149309152Y-152841463D01*
X149309155Y-152841461D01*
X149309158Y-152841461D01*
X149342487Y-152827654D01*
X149342486Y-152827654D01*
X149342492Y-152827652D01*
X149422986Y-152794312D01*
X149500595Y-152742454D01*
X149525433Y-152725858D01*
X149612558Y-152638733D01*
X149612559Y-152638730D01*
X150476172Y-151775119D01*
X150537495Y-151741634D01*
X150563853Y-151738800D01*
X154245278Y-151738800D01*
X154312317Y-151758485D01*
X154358072Y-151811289D01*
X154368016Y-151880447D01*
X154363209Y-151901119D01*
X154352008Y-151935588D01*
X154343391Y-151990000D01*
X155304314Y-151990000D01*
X155299920Y-151994394D01*
X155247259Y-152085606D01*
X155220000Y-152187339D01*
X155220000Y-152292661D01*
X155247259Y-152394394D01*
X155299920Y-152485606D01*
X155304314Y-152490000D01*
X154343391Y-152490000D01*
X154352009Y-152544413D01*
X154415244Y-152739029D01*
X154508140Y-152921349D01*
X154628417Y-153086894D01*
X154628417Y-153086895D01*
X154773104Y-153231582D01*
X154938652Y-153351861D01*
X155031628Y-153399234D01*
X155082425Y-153447208D01*
X155099220Y-153515029D01*
X155076683Y-153581164D01*
X155031630Y-153620203D01*
X154938388Y-153667713D01*
X154772786Y-153788028D01*
X154628028Y-153932786D01*
X154507715Y-154098386D01*
X154414781Y-154280776D01*
X154351522Y-154475465D01*
X154319500Y-154677648D01*
X154319500Y-154882351D01*
X154351522Y-155084534D01*
X154414781Y-155279223D01*
X154447684Y-155343797D01*
X154507712Y-155461609D01*
X154507715Y-155461613D01*
X154628028Y-155627213D01*
X154772786Y-155771971D01*
X154870294Y-155842813D01*
X154938390Y-155892287D01*
X155032395Y-155940185D01*
X155120776Y-155985218D01*
X155120778Y-155985218D01*
X155120781Y-155985220D01*
X155225137Y-156019127D01*
X155315465Y-156048477D01*
X155416557Y-156064488D01*
X155517648Y-156080500D01*
X155517649Y-156080500D01*
X155722351Y-156080500D01*
X155722352Y-156080500D01*
X155924534Y-156048477D01*
X156119219Y-155985220D01*
X156301610Y-155892287D01*
X156394590Y-155824732D01*
X156467213Y-155771971D01*
X156467215Y-155771968D01*
X156467219Y-155771966D01*
X156611966Y-155627219D01*
X156611968Y-155627215D01*
X156611971Y-155627213D01*
X156692261Y-155516701D01*
X156732287Y-155461610D01*
X156825220Y-155279219D01*
X156888477Y-155084534D01*
X156920500Y-154882352D01*
X156920500Y-154677648D01*
X156915546Y-154646373D01*
X156888477Y-154475465D01*
X156836490Y-154315466D01*
X156825220Y-154280781D01*
X156825218Y-154280778D01*
X156825218Y-154280776D01*
X156776404Y-154184975D01*
X156732287Y-154098390D01*
X156724556Y-154087749D01*
X156611971Y-153932786D01*
X156467213Y-153788028D01*
X156301611Y-153667713D01*
X156208369Y-153620203D01*
X156157574Y-153572229D01*
X156140779Y-153504407D01*
X156163317Y-153438273D01*
X156208371Y-153399234D01*
X156301347Y-153351861D01*
X156466894Y-153231582D01*
X156466895Y-153231582D01*
X156611582Y-153086895D01*
X156611582Y-153086894D01*
X156731859Y-152921349D01*
X156824755Y-152739029D01*
X156887990Y-152544413D01*
X156896609Y-152490000D01*
X155935686Y-152490000D01*
X155940080Y-152485606D01*
X155992741Y-152394394D01*
X156020000Y-152292661D01*
X156020000Y-152187339D01*
X155992741Y-152085606D01*
X155940080Y-151994394D01*
X155935686Y-151990000D01*
X156896609Y-151990000D01*
X156887991Y-151935588D01*
X156876791Y-151901119D01*
X156874796Y-151831278D01*
X156910876Y-151771445D01*
X156973576Y-151740616D01*
X156994722Y-151738800D01*
X165155707Y-151738800D01*
X165216129Y-151726781D01*
X165276552Y-151714763D01*
X165309892Y-151700952D01*
X165390386Y-151667612D01*
X165441609Y-151633384D01*
X165492833Y-151599158D01*
X165579958Y-151512033D01*
X165579958Y-151512031D01*
X165590166Y-151501824D01*
X165590168Y-151501821D01*
X165771297Y-151320691D01*
X165832618Y-151287208D01*
X165834628Y-151286789D01*
X165945997Y-151264637D01*
X166074602Y-151211367D01*
X166091672Y-151204297D01*
X166091672Y-151204296D01*
X166091679Y-151204294D01*
X166222789Y-151116689D01*
X166334289Y-151005189D01*
X166421894Y-150874079D01*
X166422544Y-150872511D01*
X166458198Y-150786433D01*
X166482237Y-150728397D01*
X166513000Y-150573742D01*
X166513000Y-150416058D01*
X166513000Y-150416055D01*
X166512999Y-150416053D01*
X166507691Y-150389368D01*
X166482237Y-150261403D01*
X166481697Y-150260099D01*
X166441044Y-150161952D01*
X166433575Y-150092483D01*
X166464851Y-150030004D01*
X166524940Y-149994352D01*
X166555605Y-149990500D01*
X166646286Y-149990500D01*
X166646287Y-149990500D01*
X166856243Y-149957246D01*
X167058412Y-149891557D01*
X167247816Y-149795051D01*
X167333169Y-149733039D01*
X167419786Y-149670109D01*
X167419788Y-149670106D01*
X167419792Y-149670104D01*
X167570104Y-149519792D01*
X167570106Y-149519788D01*
X167570109Y-149519786D01*
X167695048Y-149347820D01*
X167695047Y-149347820D01*
X167695051Y-149347816D01*
X167791557Y-149158412D01*
X167857246Y-148956243D01*
X167890500Y-148746287D01*
X167890500Y-148533713D01*
X167857246Y-148323757D01*
X167791557Y-148121588D01*
X167695051Y-147932184D01*
X167695049Y-147932181D01*
X167695048Y-147932179D01*
X167570109Y-147760213D01*
X167419786Y-147609890D01*
X167247820Y-147484951D01*
X167247115Y-147484591D01*
X167239054Y-147480485D01*
X167188259Y-147432512D01*
X167171463Y-147364692D01*
X167193999Y-147298556D01*
X167239054Y-147259515D01*
X167247816Y-147255051D01*
X167326595Y-147197815D01*
X167419786Y-147130109D01*
X167419788Y-147130106D01*
X167419792Y-147130104D01*
X167570104Y-146979792D01*
X167570106Y-146979788D01*
X167570109Y-146979786D01*
X167695048Y-146807820D01*
X167695047Y-146807820D01*
X167695051Y-146807816D01*
X167791557Y-146618412D01*
X167857246Y-146416243D01*
X167890500Y-146206287D01*
X167890500Y-145993713D01*
X167857246Y-145783757D01*
X167791557Y-145581588D01*
X167695051Y-145392184D01*
X167695049Y-145392181D01*
X167695048Y-145392179D01*
X167570109Y-145220213D01*
X167419786Y-145069890D01*
X167247820Y-144944951D01*
X167247115Y-144944591D01*
X167239054Y-144940485D01*
X167188259Y-144892512D01*
X167171463Y-144824692D01*
X167193999Y-144758556D01*
X167239054Y-144719515D01*
X167247816Y-144715051D01*
X167269789Y-144699086D01*
X167419786Y-144590109D01*
X167419788Y-144590106D01*
X167419792Y-144590104D01*
X167570104Y-144439792D01*
X167570106Y-144439788D01*
X167570109Y-144439786D01*
X167695048Y-144267820D01*
X167695050Y-144267817D01*
X167695051Y-144267816D01*
X167791557Y-144078412D01*
X167857246Y-143876243D01*
X167890500Y-143666287D01*
X167890500Y-143453713D01*
X167857246Y-143243757D01*
X167791557Y-143041588D01*
X167695051Y-142852184D01*
X167695049Y-142852181D01*
X167695048Y-142852179D01*
X167570109Y-142680213D01*
X167419786Y-142529890D01*
X167247820Y-142404951D01*
X167247115Y-142404591D01*
X167239054Y-142400485D01*
X167188259Y-142352512D01*
X167171463Y-142284692D01*
X167193999Y-142218556D01*
X167239054Y-142179515D01*
X167247816Y-142175051D01*
X167269789Y-142159086D01*
X167419786Y-142050109D01*
X167419788Y-142050106D01*
X167419792Y-142050104D01*
X167570104Y-141899792D01*
X167570106Y-141899788D01*
X167570109Y-141899786D01*
X167695048Y-141727820D01*
X167695047Y-141727820D01*
X167695051Y-141727816D01*
X167791557Y-141538412D01*
X167857246Y-141336243D01*
X167890500Y-141126287D01*
X167890500Y-140913713D01*
X167857246Y-140703757D01*
X167791557Y-140501588D01*
X167695051Y-140312184D01*
X167695049Y-140312181D01*
X167695048Y-140312179D01*
X167570109Y-140140213D01*
X167419786Y-139989890D01*
X167247820Y-139864951D01*
X167247115Y-139864591D01*
X167239054Y-139860485D01*
X167188259Y-139812512D01*
X167171463Y-139744692D01*
X167193999Y-139678556D01*
X167239054Y-139639515D01*
X167247816Y-139635051D01*
X167296060Y-139600000D01*
X167419786Y-139510109D01*
X167419788Y-139510106D01*
X167419792Y-139510104D01*
X167570104Y-139359792D01*
X167570106Y-139359788D01*
X167570109Y-139359786D01*
X167695048Y-139187820D01*
X167695047Y-139187820D01*
X167695051Y-139187816D01*
X167791557Y-138998412D01*
X167857246Y-138796243D01*
X167890500Y-138586287D01*
X167890500Y-138373713D01*
X167857246Y-138163757D01*
X167791557Y-137961588D01*
X167695051Y-137772184D01*
X167695049Y-137772181D01*
X167695048Y-137772179D01*
X167570109Y-137600213D01*
X167419786Y-137449890D01*
X167247820Y-137324951D01*
X167247115Y-137324591D01*
X167239054Y-137320485D01*
X167188259Y-137272512D01*
X167171463Y-137204692D01*
X167193999Y-137138556D01*
X167239054Y-137099515D01*
X167247816Y-137095051D01*
X167370402Y-137005988D01*
X167419786Y-136970109D01*
X167419788Y-136970106D01*
X167419792Y-136970104D01*
X167570104Y-136819792D01*
X167570106Y-136819788D01*
X167570109Y-136819786D01*
X167695048Y-136647820D01*
X167695047Y-136647820D01*
X167695051Y-136647816D01*
X167791557Y-136458412D01*
X167857246Y-136256243D01*
X167890500Y-136046287D01*
X167890500Y-135833713D01*
X167857246Y-135623757D01*
X167791557Y-135421588D01*
X167695051Y-135232184D01*
X167695049Y-135232181D01*
X167695048Y-135232179D01*
X167570109Y-135060213D01*
X167419786Y-134909890D01*
X167247820Y-134784951D01*
X167247115Y-134784591D01*
X167239054Y-134780485D01*
X167188259Y-134732512D01*
X167171463Y-134664692D01*
X167193999Y-134598556D01*
X167239054Y-134559515D01*
X167247816Y-134555051D01*
X167359940Y-134473589D01*
X167419786Y-134430109D01*
X167419788Y-134430106D01*
X167419792Y-134430104D01*
X167570104Y-134279792D01*
X167570106Y-134279788D01*
X167570109Y-134279786D01*
X167695048Y-134107820D01*
X167695047Y-134107820D01*
X167695051Y-134107816D01*
X167791557Y-133918412D01*
X167857246Y-133716243D01*
X167890500Y-133506287D01*
X167890500Y-133293713D01*
X167857246Y-133083757D01*
X167791557Y-132881588D01*
X167695051Y-132692184D01*
X167695049Y-132692181D01*
X167695048Y-132692179D01*
X167570109Y-132520213D01*
X167419786Y-132369890D01*
X167247820Y-132244951D01*
X167247115Y-132244591D01*
X167239054Y-132240485D01*
X167188259Y-132192512D01*
X167171463Y-132124692D01*
X167193999Y-132058556D01*
X167239054Y-132019515D01*
X167247816Y-132015051D01*
X167363341Y-131931118D01*
X167419786Y-131890109D01*
X167419788Y-131890106D01*
X167419792Y-131890104D01*
X167570104Y-131739792D01*
X167570106Y-131739788D01*
X167570109Y-131739786D01*
X167695048Y-131567820D01*
X167695047Y-131567820D01*
X167695051Y-131567816D01*
X167791557Y-131378412D01*
X167857246Y-131176243D01*
X167890500Y-130966287D01*
X167890500Y-130753713D01*
X167857246Y-130543757D01*
X167791557Y-130341588D01*
X167695051Y-130152184D01*
X167695049Y-130152181D01*
X167695048Y-130152179D01*
X167570109Y-129980213D01*
X167419786Y-129829890D01*
X167247820Y-129704951D01*
X167247115Y-129704591D01*
X167239054Y-129700485D01*
X167188259Y-129652512D01*
X167171463Y-129584692D01*
X167193999Y-129518556D01*
X167239054Y-129479515D01*
X167247816Y-129475051D01*
X167333066Y-129413114D01*
X167419786Y-129350109D01*
X167419788Y-129350106D01*
X167419792Y-129350104D01*
X167570104Y-129199792D01*
X167570106Y-129199788D01*
X167570109Y-129199786D01*
X167695048Y-129027820D01*
X167695050Y-129027817D01*
X167695051Y-129027816D01*
X167791557Y-128838412D01*
X167857246Y-128636243D01*
X167890500Y-128426287D01*
X167890500Y-128213713D01*
X167857246Y-128003757D01*
X167791557Y-127801588D01*
X167695051Y-127612184D01*
X167695049Y-127612181D01*
X167695048Y-127612179D01*
X167570109Y-127440213D01*
X167419786Y-127289890D01*
X167247820Y-127164951D01*
X167247115Y-127164591D01*
X167239054Y-127160485D01*
X167188259Y-127112512D01*
X167171463Y-127044692D01*
X167193999Y-126978556D01*
X167239054Y-126939515D01*
X167247816Y-126935051D01*
X167269789Y-126919086D01*
X167419786Y-126810109D01*
X167419788Y-126810106D01*
X167419792Y-126810104D01*
X167570104Y-126659792D01*
X167570106Y-126659788D01*
X167570109Y-126659786D01*
X167695048Y-126487820D01*
X167695050Y-126487817D01*
X167695051Y-126487816D01*
X167791557Y-126298412D01*
X167857246Y-126096243D01*
X167890500Y-125886287D01*
X167890500Y-125673713D01*
X167857246Y-125463757D01*
X167791557Y-125261588D01*
X167695051Y-125072184D01*
X167695049Y-125072181D01*
X167695048Y-125072179D01*
X167570109Y-124900213D01*
X167419786Y-124749890D01*
X167247820Y-124624951D01*
X167247115Y-124624591D01*
X167239054Y-124620485D01*
X167188259Y-124572512D01*
X167171463Y-124504692D01*
X167193999Y-124438556D01*
X167239054Y-124399515D01*
X167247816Y-124395051D01*
X167276102Y-124374500D01*
X167419786Y-124270109D01*
X167419788Y-124270106D01*
X167419792Y-124270104D01*
X167570104Y-124119792D01*
X167570106Y-124119788D01*
X167570109Y-124119786D01*
X167695048Y-123947820D01*
X167695047Y-123947820D01*
X167695051Y-123947816D01*
X167791557Y-123758412D01*
X167857246Y-123556243D01*
X167890500Y-123346287D01*
X167890500Y-123133713D01*
X167857246Y-122923757D01*
X167791557Y-122721588D01*
X167695051Y-122532184D01*
X167695049Y-122532181D01*
X167695048Y-122532179D01*
X167570109Y-122360213D01*
X167419790Y-122209894D01*
X167419784Y-122209889D01*
X167247820Y-122084951D01*
X167247115Y-122084591D01*
X167239054Y-122080485D01*
X167188259Y-122032512D01*
X167171463Y-121964692D01*
X167193999Y-121898556D01*
X167239054Y-121859515D01*
X167247816Y-121855051D01*
X167269789Y-121839086D01*
X167419786Y-121730109D01*
X167419788Y-121730106D01*
X167419792Y-121730104D01*
X167570104Y-121579792D01*
X167570106Y-121579788D01*
X167570109Y-121579786D01*
X167695048Y-121407820D01*
X167695047Y-121407820D01*
X167695051Y-121407816D01*
X167791557Y-121218412D01*
X167857246Y-121016243D01*
X167890500Y-120806287D01*
X167890500Y-120593713D01*
X167857246Y-120383757D01*
X167791557Y-120181588D01*
X167695051Y-119992184D01*
X167695049Y-119992181D01*
X167695048Y-119992179D01*
X167570109Y-119820213D01*
X167419786Y-119669890D01*
X167247820Y-119544951D01*
X167247115Y-119544591D01*
X167239054Y-119540485D01*
X167188259Y-119492512D01*
X167171463Y-119424692D01*
X167193999Y-119358556D01*
X167239054Y-119319515D01*
X167247816Y-119315051D01*
X167359940Y-119233589D01*
X167419786Y-119190109D01*
X167419788Y-119190106D01*
X167419792Y-119190104D01*
X167570104Y-119039792D01*
X167570106Y-119039788D01*
X167570109Y-119039786D01*
X167695048Y-118867820D01*
X167695047Y-118867820D01*
X167695051Y-118867816D01*
X167791557Y-118678412D01*
X167857246Y-118476243D01*
X167890500Y-118266287D01*
X167890500Y-118053713D01*
X167857246Y-117843757D01*
X167791557Y-117641588D01*
X167695051Y-117452184D01*
X167695049Y-117452181D01*
X167695048Y-117452179D01*
X167570109Y-117280213D01*
X167419786Y-117129890D01*
X167247820Y-117004951D01*
X167247115Y-117004591D01*
X167239054Y-117000485D01*
X167188259Y-116952512D01*
X167171463Y-116884692D01*
X167193999Y-116818556D01*
X167239054Y-116779515D01*
X167247816Y-116775051D01*
X167269789Y-116759086D01*
X167419786Y-116650109D01*
X167419788Y-116650106D01*
X167419792Y-116650104D01*
X167570104Y-116499792D01*
X167570106Y-116499788D01*
X167570109Y-116499786D01*
X167695048Y-116327820D01*
X167695047Y-116327820D01*
X167695051Y-116327816D01*
X167791557Y-116138412D01*
X167857246Y-115936243D01*
X167890500Y-115726287D01*
X167890500Y-115513713D01*
X167857246Y-115303757D01*
X167791557Y-115101588D01*
X167695051Y-114912184D01*
X167695049Y-114912181D01*
X167695048Y-114912179D01*
X167570109Y-114740213D01*
X167419786Y-114589890D01*
X167247820Y-114464951D01*
X167247115Y-114464591D01*
X167239054Y-114460485D01*
X167188259Y-114412512D01*
X167171463Y-114344692D01*
X167193999Y-114278556D01*
X167239054Y-114239515D01*
X167247816Y-114235051D01*
X167361052Y-114152781D01*
X167419786Y-114110109D01*
X167419788Y-114110106D01*
X167419792Y-114110104D01*
X167570104Y-113959792D01*
X167570106Y-113959788D01*
X167570109Y-113959786D01*
X167695048Y-113787820D01*
X167695047Y-113787820D01*
X167695051Y-113787816D01*
X167791557Y-113598412D01*
X167857246Y-113396243D01*
X167890500Y-113186287D01*
X167890500Y-112973713D01*
X167857246Y-112763757D01*
X167791557Y-112561588D01*
X167695051Y-112372184D01*
X167695049Y-112372181D01*
X167695048Y-112372179D01*
X167570109Y-112200213D01*
X167419786Y-112049890D01*
X167247820Y-111924951D01*
X167247115Y-111924591D01*
X167239054Y-111920485D01*
X167188259Y-111872512D01*
X167171463Y-111804692D01*
X167193999Y-111738556D01*
X167239054Y-111699515D01*
X167247816Y-111695051D01*
X167269789Y-111679086D01*
X167419786Y-111570109D01*
X167419788Y-111570106D01*
X167419792Y-111570104D01*
X167570104Y-111419792D01*
X167570106Y-111419788D01*
X167570109Y-111419786D01*
X167695048Y-111247820D01*
X167695047Y-111247820D01*
X167695051Y-111247816D01*
X167791557Y-111058412D01*
X167857246Y-110856243D01*
X167890500Y-110646287D01*
X167890500Y-110433713D01*
X167857246Y-110223757D01*
X167791557Y-110021588D01*
X167695051Y-109832184D01*
X167695049Y-109832181D01*
X167695048Y-109832179D01*
X167570109Y-109660213D01*
X167419786Y-109509890D01*
X167247820Y-109384951D01*
X167247115Y-109384591D01*
X167239054Y-109380485D01*
X167188259Y-109332512D01*
X167171463Y-109264692D01*
X167193999Y-109198556D01*
X167239054Y-109159515D01*
X167247816Y-109155051D01*
X167269789Y-109139086D01*
X167419786Y-109030109D01*
X167419788Y-109030106D01*
X167419792Y-109030104D01*
X167570104Y-108879792D01*
X167570106Y-108879788D01*
X167570109Y-108879786D01*
X167695048Y-108707820D01*
X167695047Y-108707820D01*
X167695051Y-108707816D01*
X167791557Y-108518412D01*
X167857246Y-108316243D01*
X167890500Y-108106287D01*
X167890500Y-107893713D01*
X167857246Y-107683757D01*
X167791557Y-107481588D01*
X167695051Y-107292184D01*
X167695049Y-107292181D01*
X167695048Y-107292179D01*
X167570109Y-107120213D01*
X167419786Y-106969890D01*
X167247820Y-106844951D01*
X167058414Y-106748444D01*
X167058413Y-106748443D01*
X167058412Y-106748443D01*
X167039907Y-106742430D01*
X166982232Y-106702994D01*
X166955034Y-106638635D01*
X166966949Y-106569789D01*
X167014193Y-106518313D01*
X167078226Y-106500500D01*
X167171966Y-106500500D01*
X167171969Y-106500500D01*
X167514250Y-106466789D01*
X167851578Y-106399690D01*
X168180705Y-106299850D01*
X168498462Y-106168231D01*
X168801787Y-106006100D01*
X169087760Y-105815019D01*
X169353627Y-105596828D01*
X169408983Y-105541472D01*
X169487819Y-105462637D01*
X169549142Y-105429152D01*
X169618834Y-105434136D01*
X169674767Y-105476008D01*
X169699184Y-105541472D01*
X169699500Y-105550318D01*
X169699500Y-154449682D01*
X169679815Y-154516721D01*
X169627011Y-154562476D01*
X169557853Y-154572420D01*
X169494297Y-154543395D01*
X169487819Y-154537363D01*
X169353632Y-154403176D01*
X169087765Y-154184985D01*
X169087764Y-154184984D01*
X169087760Y-154184981D01*
X168801787Y-153993900D01*
X168801782Y-153993897D01*
X168801775Y-153993893D01*
X168498469Y-153831772D01*
X168498464Y-153831770D01*
X168180706Y-153700150D01*
X167851572Y-153600308D01*
X167514248Y-153533210D01*
X167514249Y-153533210D01*
X167255359Y-153507713D01*
X167171969Y-153499500D01*
X166828031Y-153499500D01*
X166749966Y-153507188D01*
X166485750Y-153533210D01*
X166148427Y-153600308D01*
X165819293Y-153700150D01*
X165501535Y-153831770D01*
X165501530Y-153831772D01*
X165198224Y-153993893D01*
X165198206Y-153993904D01*
X164912248Y-154184975D01*
X164912234Y-154184985D01*
X164646367Y-154403176D01*
X164403176Y-154646367D01*
X164184985Y-154912234D01*
X164184975Y-154912248D01*
X163993904Y-155198206D01*
X163993893Y-155198224D01*
X163831772Y-155501530D01*
X163831770Y-155501535D01*
X163700150Y-155819293D01*
X163600308Y-156148427D01*
X163533210Y-156485750D01*
X163514087Y-156679920D01*
X163499500Y-156828031D01*
X163499500Y-157171969D01*
X163507185Y-157250000D01*
X163533210Y-157514249D01*
X163600308Y-157851572D01*
X163700150Y-158180706D01*
X163831770Y-158498464D01*
X163831772Y-158498469D01*
X163993893Y-158801775D01*
X163993904Y-158801793D01*
X164184975Y-159087751D01*
X164184985Y-159087765D01*
X164403176Y-159353632D01*
X164537363Y-159487819D01*
X164570848Y-159549142D01*
X164565864Y-159618834D01*
X164523992Y-159674767D01*
X164458528Y-159699184D01*
X164449682Y-159699500D01*
X105550318Y-159699500D01*
X105483279Y-159679815D01*
X105437524Y-159627011D01*
X105427580Y-159557853D01*
X105456605Y-159494297D01*
X105462637Y-159487819D01*
X105596823Y-159353632D01*
X105596828Y-159353627D01*
X105815019Y-159087760D01*
X106006100Y-158801787D01*
X106168231Y-158498462D01*
X106299850Y-158180705D01*
X106399690Y-157851578D01*
X106466789Y-157514250D01*
X106500500Y-157171969D01*
X106500500Y-156828031D01*
X106466789Y-156485750D01*
X106399690Y-156148422D01*
X106299850Y-155819295D01*
X106168231Y-155501538D01*
X106161165Y-155488319D01*
X106006106Y-155198224D01*
X106006105Y-155198222D01*
X106006100Y-155198213D01*
X105815019Y-154912240D01*
X105596828Y-154646373D01*
X105596827Y-154646372D01*
X105596823Y-154646367D01*
X105353632Y-154403176D01*
X105087765Y-154184985D01*
X105087764Y-154184984D01*
X105087760Y-154184981D01*
X104801787Y-153993900D01*
X104801782Y-153993897D01*
X104801775Y-153993893D01*
X104498469Y-153831772D01*
X104498464Y-153831770D01*
X104180706Y-153700150D01*
X103851572Y-153600308D01*
X103514248Y-153533210D01*
X103514249Y-153533210D01*
X103255359Y-153507713D01*
X103171969Y-153499500D01*
X102828031Y-153499500D01*
X102749966Y-153507188D01*
X102485750Y-153533210D01*
X102148427Y-153600308D01*
X101819293Y-153700150D01*
X101501535Y-153831770D01*
X101501530Y-153831772D01*
X101198224Y-153993893D01*
X101198206Y-153993904D01*
X100912248Y-154184975D01*
X100912234Y-154184985D01*
X100646367Y-154403176D01*
X100512181Y-154537363D01*
X100450858Y-154570848D01*
X100381166Y-154565864D01*
X100325233Y-154523992D01*
X100300816Y-154458528D01*
X100300500Y-154449682D01*
X100300500Y-153052135D01*
X107099500Y-153052135D01*
X107099500Y-154947870D01*
X107099501Y-154947876D01*
X107105908Y-155007483D01*
X107156202Y-155142328D01*
X107156206Y-155142335D01*
X107242452Y-155257544D01*
X107242455Y-155257547D01*
X107357664Y-155343793D01*
X107357671Y-155343797D01*
X107492517Y-155394091D01*
X107492516Y-155394091D01*
X107499444Y-155394835D01*
X107552127Y-155400500D01*
X109447872Y-155400499D01*
X109507483Y-155394091D01*
X109642331Y-155343796D01*
X109757546Y-155257546D01*
X109843796Y-155142331D01*
X109894091Y-155007483D01*
X109900500Y-154947873D01*
X109900499Y-153889778D01*
X114099500Y-153889778D01*
X114099500Y-154110222D01*
X114111340Y-154184975D01*
X114133985Y-154327952D01*
X114202103Y-154537603D01*
X114202104Y-154537606D01*
X114257522Y-154646367D01*
X114296238Y-154722351D01*
X114302187Y-154734025D01*
X114431752Y-154912358D01*
X114431756Y-154912363D01*
X114587636Y-155068243D01*
X114587641Y-155068247D01*
X114689606Y-155142328D01*
X114765978Y-155197815D01*
X114894375Y-155263237D01*
X114962393Y-155297895D01*
X114962396Y-155297896D01*
X115067221Y-155331955D01*
X115172049Y-155366015D01*
X115389778Y-155400500D01*
X115389779Y-155400500D01*
X115610221Y-155400500D01*
X115610222Y-155400500D01*
X115827951Y-155366015D01*
X116037606Y-155297895D01*
X116234022Y-155197815D01*
X116412365Y-155068242D01*
X116568242Y-154912365D01*
X116697815Y-154734022D01*
X116797895Y-154537606D01*
X116866015Y-154327951D01*
X116900500Y-154110222D01*
X116900500Y-153889778D01*
X116866015Y-153672049D01*
X116831955Y-153567221D01*
X116797896Y-153462396D01*
X116797895Y-153462393D01*
X116741792Y-153352287D01*
X116697815Y-153265978D01*
X116644276Y-153192287D01*
X116568247Y-153087641D01*
X116568243Y-153087636D01*
X116412363Y-152931756D01*
X116412358Y-152931752D01*
X116234025Y-152802187D01*
X116234024Y-152802186D01*
X116234022Y-152802185D01*
X116154390Y-152761610D01*
X116037606Y-152702104D01*
X116037603Y-152702103D01*
X115827952Y-152633985D01*
X115693822Y-152612741D01*
X115610222Y-152599500D01*
X115389778Y-152599500D01*
X115317201Y-152610995D01*
X115172047Y-152633985D01*
X114962396Y-152702103D01*
X114962393Y-152702104D01*
X114765974Y-152802187D01*
X114587641Y-152931752D01*
X114587636Y-152931756D01*
X114431756Y-153087636D01*
X114431752Y-153087641D01*
X114302187Y-153265974D01*
X114202104Y-153462393D01*
X114202103Y-153462396D01*
X114133985Y-153672047D01*
X114118030Y-153772786D01*
X114099500Y-153889778D01*
X109900499Y-153889778D01*
X109900499Y-153052128D01*
X109894091Y-152992517D01*
X109871429Y-152931758D01*
X109843797Y-152857671D01*
X109843793Y-152857664D01*
X109757547Y-152742455D01*
X109757544Y-152742452D01*
X109642335Y-152656206D01*
X109642328Y-152656202D01*
X109507482Y-152605908D01*
X109507483Y-152605908D01*
X109447883Y-152599501D01*
X109447881Y-152599500D01*
X109447873Y-152599500D01*
X109447864Y-152599500D01*
X107552129Y-152599500D01*
X107552123Y-152599501D01*
X107492516Y-152605908D01*
X107357671Y-152656202D01*
X107357664Y-152656206D01*
X107242455Y-152742452D01*
X107242452Y-152742455D01*
X107156206Y-152857664D01*
X107156202Y-152857671D01*
X107105908Y-152992517D01*
X107099501Y-153052116D01*
X107099501Y-153052123D01*
X107099500Y-153052135D01*
X100300500Y-153052135D01*
X100300500Y-149881902D01*
X102499500Y-149881902D01*
X102499500Y-150118097D01*
X102536446Y-150351368D01*
X102609433Y-150575996D01*
X102716657Y-150786433D01*
X102855483Y-150977510D01*
X103022490Y-151144517D01*
X103213567Y-151283343D01*
X103247240Y-151300500D01*
X103424003Y-151390566D01*
X103424005Y-151390566D01*
X103424008Y-151390568D01*
X103544412Y-151429689D01*
X103648631Y-151463553D01*
X103881903Y-151500500D01*
X103881908Y-151500500D01*
X105118097Y-151500500D01*
X105351368Y-151463553D01*
X105395628Y-151449172D01*
X105575992Y-151390568D01*
X105786433Y-151283343D01*
X105977510Y-151144517D01*
X105993143Y-151128883D01*
X106054462Y-151095399D01*
X106124154Y-151100382D01*
X106153708Y-151116247D01*
X106192615Y-151144514D01*
X106265978Y-151197815D01*
X106394375Y-151263237D01*
X106462393Y-151297895D01*
X106462396Y-151297896D01*
X106532560Y-151320693D01*
X106672049Y-151366015D01*
X106889778Y-151400500D01*
X106889779Y-151400500D01*
X107110221Y-151400500D01*
X107110222Y-151400500D01*
X107327951Y-151366015D01*
X107537606Y-151297895D01*
X107734022Y-151197815D01*
X107912365Y-151068242D01*
X108068242Y-150912365D01*
X108197815Y-150734022D01*
X108297895Y-150537606D01*
X108366015Y-150327951D01*
X108400500Y-150110222D01*
X108400500Y-149889778D01*
X110599500Y-149889778D01*
X110599500Y-150110222D01*
X110600747Y-150118097D01*
X110633985Y-150327952D01*
X110702103Y-150537603D01*
X110702104Y-150537606D01*
X110762947Y-150657014D01*
X110780553Y-150691568D01*
X110802187Y-150734025D01*
X110931752Y-150912358D01*
X110931756Y-150912363D01*
X111087636Y-151068243D01*
X111087641Y-151068247D01*
X111192615Y-151144514D01*
X111265978Y-151197815D01*
X111394375Y-151263237D01*
X111462393Y-151297895D01*
X111462396Y-151297896D01*
X111532560Y-151320693D01*
X111672049Y-151366015D01*
X111889778Y-151400500D01*
X111889779Y-151400500D01*
X112110221Y-151400500D01*
X112110222Y-151400500D01*
X112327951Y-151366015D01*
X112537606Y-151297895D01*
X112734022Y-151197815D01*
X112912365Y-151068242D01*
X113068242Y-150912365D01*
X113197815Y-150734022D01*
X113297895Y-150537606D01*
X113366015Y-150327951D01*
X113400500Y-150110222D01*
X113400500Y-149889778D01*
X115599500Y-149889778D01*
X115599500Y-150110222D01*
X115600747Y-150118097D01*
X115633985Y-150327952D01*
X115702103Y-150537603D01*
X115702104Y-150537606D01*
X115762947Y-150657014D01*
X115780553Y-150691568D01*
X115802187Y-150734025D01*
X115931752Y-150912358D01*
X115931756Y-150912363D01*
X116087636Y-151068243D01*
X116087641Y-151068247D01*
X116192615Y-151144514D01*
X116265978Y-151197815D01*
X116394375Y-151263237D01*
X116462393Y-151297895D01*
X116462396Y-151297896D01*
X116532560Y-151320693D01*
X116672049Y-151366015D01*
X116889778Y-151400500D01*
X116889779Y-151400500D01*
X117110221Y-151400500D01*
X117110222Y-151400500D01*
X117327951Y-151366015D01*
X117537606Y-151297895D01*
X117734022Y-151197815D01*
X117846292Y-151116246D01*
X117912097Y-151092767D01*
X117980151Y-151108592D01*
X118006857Y-151128884D01*
X118022490Y-151144517D01*
X118213567Y-151283343D01*
X118247240Y-151300500D01*
X118424003Y-151390566D01*
X118424005Y-151390566D01*
X118424008Y-151390568D01*
X118544412Y-151429689D01*
X118648631Y-151463553D01*
X118881903Y-151500500D01*
X118881908Y-151500500D01*
X120118097Y-151500500D01*
X120351368Y-151463553D01*
X120395628Y-151449172D01*
X120575992Y-151390568D01*
X120786433Y-151283343D01*
X120977510Y-151144517D01*
X121144517Y-150977510D01*
X121283343Y-150786433D01*
X121390568Y-150575992D01*
X121463553Y-150351368D01*
X121467650Y-150325500D01*
X121500500Y-150118097D01*
X121500500Y-149881902D01*
X121463553Y-149648631D01*
X121415513Y-149500781D01*
X121390568Y-149424008D01*
X121390566Y-149424005D01*
X121390566Y-149424003D01*
X121322803Y-149291012D01*
X121283343Y-149213567D01*
X121144517Y-149022490D01*
X120977510Y-148855483D01*
X120786433Y-148716657D01*
X120783275Y-148715048D01*
X120575996Y-148609433D01*
X120351368Y-148536446D01*
X120118097Y-148499500D01*
X120118092Y-148499500D01*
X118881908Y-148499500D01*
X118881903Y-148499500D01*
X118648631Y-148536446D01*
X118424003Y-148609433D01*
X118213566Y-148716657D01*
X118022490Y-148855483D01*
X118006855Y-148871118D01*
X117945531Y-148904601D01*
X117875839Y-148899615D01*
X117846291Y-148883752D01*
X117734025Y-148802187D01*
X117734024Y-148802186D01*
X117734022Y-148802185D01*
X117671096Y-148770122D01*
X117537606Y-148702104D01*
X117537603Y-148702103D01*
X117327952Y-148633985D01*
X117172930Y-148609432D01*
X117110222Y-148599500D01*
X116889778Y-148599500D01*
X116885965Y-148600104D01*
X116672047Y-148633985D01*
X116462396Y-148702103D01*
X116462393Y-148702104D01*
X116265974Y-148802187D01*
X116087641Y-148931752D01*
X116087636Y-148931756D01*
X115931756Y-149087636D01*
X115931752Y-149087641D01*
X115802187Y-149265974D01*
X115702104Y-149462393D01*
X115702103Y-149462396D01*
X115633985Y-149672047D01*
X115615999Y-149785606D01*
X115599500Y-149889778D01*
X113400500Y-149889778D01*
X113366015Y-149672049D01*
X113319469Y-149528794D01*
X113297896Y-149462396D01*
X113297895Y-149462393D01*
X113258769Y-149385606D01*
X113197815Y-149265978D01*
X113175395Y-149235119D01*
X113068247Y-149087641D01*
X113068243Y-149087636D01*
X112912363Y-148931756D01*
X112912358Y-148931752D01*
X112734025Y-148802187D01*
X112734024Y-148802186D01*
X112734022Y-148802185D01*
X112671096Y-148770122D01*
X112537606Y-148702104D01*
X112537603Y-148702103D01*
X112327952Y-148633985D01*
X112172930Y-148609432D01*
X112110222Y-148599500D01*
X111889778Y-148599500D01*
X111885965Y-148600104D01*
X111672047Y-148633985D01*
X111462396Y-148702103D01*
X111462393Y-148702104D01*
X111265974Y-148802187D01*
X111087641Y-148931752D01*
X111087636Y-148931756D01*
X110931756Y-149087636D01*
X110931752Y-149087641D01*
X110802187Y-149265974D01*
X110702104Y-149462393D01*
X110702103Y-149462396D01*
X110633985Y-149672047D01*
X110615999Y-149785606D01*
X110599500Y-149889778D01*
X108400500Y-149889778D01*
X108366015Y-149672049D01*
X108319469Y-149528794D01*
X108297896Y-149462396D01*
X108297895Y-149462393D01*
X108258769Y-149385606D01*
X108197815Y-149265978D01*
X108175395Y-149235119D01*
X108068247Y-149087641D01*
X108068243Y-149087636D01*
X107912363Y-148931756D01*
X107912358Y-148931752D01*
X107734025Y-148802187D01*
X107734024Y-148802186D01*
X107734022Y-148802185D01*
X107671096Y-148770122D01*
X107537606Y-148702104D01*
X107537603Y-148702103D01*
X107327952Y-148633985D01*
X107172930Y-148609432D01*
X107110222Y-148599500D01*
X106889778Y-148599500D01*
X106885965Y-148600104D01*
X106672047Y-148633985D01*
X106462396Y-148702103D01*
X106462393Y-148702104D01*
X106265978Y-148802184D01*
X106153708Y-148883753D01*
X106087901Y-148907232D01*
X106019847Y-148891406D01*
X105993142Y-148871115D01*
X105977512Y-148855485D01*
X105977510Y-148855483D01*
X105786433Y-148716657D01*
X105783275Y-148715048D01*
X105575996Y-148609433D01*
X105351368Y-148536446D01*
X105118097Y-148499500D01*
X105118092Y-148499500D01*
X103881908Y-148499500D01*
X103881903Y-148499500D01*
X103648631Y-148536446D01*
X103424003Y-148609433D01*
X103213566Y-148716657D01*
X103104550Y-148795862D01*
X103022490Y-148855483D01*
X103022488Y-148855485D01*
X103022487Y-148855485D01*
X102855485Y-149022487D01*
X102855485Y-149022488D01*
X102855483Y-149022490D01*
X102829331Y-149058485D01*
X102716657Y-149213566D01*
X102609433Y-149424003D01*
X102536446Y-149648631D01*
X102499500Y-149881902D01*
X100300500Y-149881902D01*
X100300500Y-145889778D01*
X110599500Y-145889778D01*
X110599500Y-146110222D01*
X110609768Y-146175050D01*
X110633985Y-146327952D01*
X110702103Y-146537603D01*
X110702104Y-146537606D01*
X110764782Y-146660616D01*
X110800881Y-146731463D01*
X110802187Y-146734025D01*
X110931752Y-146912358D01*
X110931756Y-146912363D01*
X111087636Y-147068243D01*
X111087641Y-147068247D01*
X111172781Y-147130104D01*
X111265978Y-147197815D01*
X111368396Y-147250000D01*
X111462393Y-147297895D01*
X111462396Y-147297896D01*
X111530673Y-147320080D01*
X111672049Y-147366015D01*
X111889778Y-147400500D01*
X111889779Y-147400500D01*
X112110221Y-147400500D01*
X112110222Y-147400500D01*
X112327951Y-147366015D01*
X112537606Y-147297895D01*
X112734022Y-147197815D01*
X112912365Y-147068242D01*
X113068242Y-146912365D01*
X113197815Y-146734022D01*
X113297895Y-146537606D01*
X113366015Y-146327951D01*
X113400500Y-146110222D01*
X113400500Y-145889778D01*
X113366015Y-145672049D01*
X113322594Y-145538412D01*
X113297896Y-145462396D01*
X113297895Y-145462393D01*
X113251572Y-145371481D01*
X113197815Y-145265978D01*
X113164561Y-145220208D01*
X113068247Y-145087641D01*
X113068243Y-145087636D01*
X112912363Y-144931756D01*
X112912358Y-144931752D01*
X112734025Y-144802187D01*
X112734024Y-144802186D01*
X112734022Y-144802185D01*
X112629632Y-144748995D01*
X112537606Y-144702104D01*
X112537603Y-144702103D01*
X112327952Y-144633985D01*
X112219086Y-144616742D01*
X112110222Y-144599500D01*
X111889778Y-144599500D01*
X111817201Y-144610995D01*
X111672047Y-144633985D01*
X111462396Y-144702103D01*
X111462393Y-144702104D01*
X111265974Y-144802187D01*
X111087641Y-144931752D01*
X111087636Y-144931756D01*
X110931756Y-145087636D01*
X110931752Y-145087641D01*
X110802187Y-145265974D01*
X110702104Y-145462393D01*
X110702103Y-145462396D01*
X110633985Y-145672047D01*
X110624444Y-145732287D01*
X110599500Y-145889778D01*
X100300500Y-145889778D01*
X100300500Y-139152155D01*
X106700000Y-139152155D01*
X106700000Y-139750000D01*
X107684314Y-139750000D01*
X107679920Y-139754394D01*
X107627259Y-139845606D01*
X107600000Y-139947339D01*
X107600000Y-140052661D01*
X107627259Y-140154394D01*
X107679920Y-140245606D01*
X107684314Y-140250000D01*
X106700000Y-140250000D01*
X106700000Y-140847844D01*
X106706401Y-140907372D01*
X106706403Y-140907379D01*
X106756645Y-141042086D01*
X106756649Y-141042093D01*
X106842809Y-141157187D01*
X106842812Y-141157190D01*
X106957906Y-141243350D01*
X106957913Y-141243354D01*
X107092620Y-141293596D01*
X107092627Y-141293598D01*
X107152155Y-141299999D01*
X107152172Y-141300000D01*
X107750000Y-141300000D01*
X107750000Y-140315686D01*
X107754394Y-140320080D01*
X107845606Y-140372741D01*
X107947339Y-140400000D01*
X108052661Y-140400000D01*
X108154394Y-140372741D01*
X108245606Y-140320080D01*
X108250000Y-140315686D01*
X108250000Y-141300000D01*
X108847828Y-141300000D01*
X108847844Y-141299999D01*
X108907372Y-141293598D01*
X108907379Y-141293596D01*
X109042086Y-141243354D01*
X109042093Y-141243350D01*
X109157187Y-141157190D01*
X109157190Y-141157187D01*
X109243350Y-141042093D01*
X109243354Y-141042086D01*
X109293596Y-140907379D01*
X109293598Y-140907372D01*
X109299999Y-140847844D01*
X109300000Y-140847827D01*
X109300000Y-140250000D01*
X108315686Y-140250000D01*
X108320080Y-140245606D01*
X108372741Y-140154394D01*
X108400000Y-140052661D01*
X108400000Y-139947339D01*
X108386685Y-139897648D01*
X116859500Y-139897648D01*
X116859500Y-140102351D01*
X116891522Y-140304534D01*
X116954781Y-140499223D01*
X117047715Y-140681613D01*
X117168028Y-140847213D01*
X117312786Y-140991971D01*
X117454665Y-141095050D01*
X117478390Y-141112287D01*
X117566517Y-141157190D01*
X117660776Y-141205218D01*
X117660778Y-141205218D01*
X117660781Y-141205220D01*
X117732254Y-141228443D01*
X117855465Y-141268477D01*
X117937354Y-141281447D01*
X118057648Y-141300500D01*
X118057649Y-141300500D01*
X118262351Y-141300500D01*
X118262352Y-141300500D01*
X118464534Y-141268477D01*
X118659219Y-141205220D01*
X118841610Y-141112287D01*
X118938234Y-141042086D01*
X119007213Y-140991971D01*
X119007215Y-140991968D01*
X119007219Y-140991966D01*
X119151966Y-140847219D01*
X119151968Y-140847215D01*
X119151971Y-140847213D01*
X119256194Y-140703760D01*
X119272287Y-140681610D01*
X119365220Y-140499219D01*
X119428477Y-140304534D01*
X119460500Y-140102352D01*
X119460500Y-139897648D01*
X119437956Y-139755312D01*
X119428477Y-139695465D01*
X119365218Y-139500776D01*
X119324869Y-139421588D01*
X119272287Y-139318390D01*
X119212040Y-139235466D01*
X119151971Y-139152786D01*
X119007213Y-139008028D01*
X118841613Y-138887715D01*
X118841612Y-138887714D01*
X118841610Y-138887713D01*
X118782508Y-138857599D01*
X118659223Y-138794781D01*
X118464534Y-138731522D01*
X118289995Y-138703878D01*
X118262352Y-138699500D01*
X118057648Y-138699500D01*
X118033329Y-138703351D01*
X117855465Y-138731522D01*
X117660776Y-138794781D01*
X117478386Y-138887715D01*
X117312786Y-139008028D01*
X117168028Y-139152786D01*
X117047715Y-139318386D01*
X116954781Y-139500776D01*
X116891522Y-139695465D01*
X116859500Y-139897648D01*
X108386685Y-139897648D01*
X108372741Y-139845606D01*
X108320080Y-139754394D01*
X108315686Y-139750000D01*
X109300000Y-139750000D01*
X109300000Y-139152172D01*
X109299999Y-139152155D01*
X109293598Y-139092627D01*
X109293596Y-139092620D01*
X109243354Y-138957913D01*
X109243350Y-138957906D01*
X109157190Y-138842812D01*
X109157187Y-138842809D01*
X109042093Y-138756649D01*
X109042086Y-138756645D01*
X108907379Y-138706403D01*
X108907372Y-138706401D01*
X108847844Y-138700000D01*
X108250000Y-138700000D01*
X108250000Y-139684314D01*
X108245606Y-139679920D01*
X108154394Y-139627259D01*
X108052661Y-139600000D01*
X107947339Y-139600000D01*
X107845606Y-139627259D01*
X107754394Y-139679920D01*
X107750000Y-139684314D01*
X107750000Y-138700000D01*
X107152155Y-138700000D01*
X107092627Y-138706401D01*
X107092620Y-138706403D01*
X106957913Y-138756645D01*
X106957906Y-138756649D01*
X106842812Y-138842809D01*
X106842809Y-138842812D01*
X106756649Y-138957906D01*
X106756645Y-138957913D01*
X106706403Y-139092620D01*
X106706401Y-139092627D01*
X106700000Y-139152155D01*
X100300500Y-139152155D01*
X100300500Y-134152155D01*
X106700000Y-134152155D01*
X106700000Y-134750000D01*
X107684314Y-134750000D01*
X107679920Y-134754394D01*
X107627259Y-134845606D01*
X107600000Y-134947339D01*
X107600000Y-135052661D01*
X107627259Y-135154394D01*
X107679920Y-135245606D01*
X107684314Y-135250000D01*
X106700000Y-135250000D01*
X106700000Y-135847844D01*
X106706401Y-135907372D01*
X106706403Y-135907379D01*
X106756645Y-136042086D01*
X106756649Y-136042093D01*
X106842809Y-136157187D01*
X106842812Y-136157190D01*
X106957906Y-136243350D01*
X106957913Y-136243354D01*
X107092620Y-136293596D01*
X107092627Y-136293598D01*
X107152155Y-136299999D01*
X107152172Y-136300000D01*
X107750000Y-136300000D01*
X107750000Y-135315686D01*
X107754394Y-135320080D01*
X107845606Y-135372741D01*
X107947339Y-135400000D01*
X108052661Y-135400000D01*
X108154394Y-135372741D01*
X108245606Y-135320080D01*
X108250000Y-135315686D01*
X108250000Y-136300000D01*
X108847828Y-136300000D01*
X108847844Y-136299999D01*
X108907372Y-136293598D01*
X108907379Y-136293596D01*
X109042086Y-136243354D01*
X109042093Y-136243350D01*
X109157187Y-136157190D01*
X109157190Y-136157187D01*
X109243350Y-136042093D01*
X109243354Y-136042086D01*
X109293596Y-135907379D01*
X109293598Y-135907372D01*
X109299999Y-135847844D01*
X109300000Y-135847827D01*
X109300000Y-135250000D01*
X108315686Y-135250000D01*
X108320080Y-135245606D01*
X108372741Y-135154394D01*
X108400000Y-135052661D01*
X108400000Y-134947339D01*
X108386685Y-134897648D01*
X116859500Y-134897648D01*
X116859500Y-135102351D01*
X116891522Y-135304534D01*
X116954781Y-135499223D01*
X116989732Y-135567816D01*
X117046798Y-135679815D01*
X117047715Y-135681613D01*
X117168028Y-135847213D01*
X117312786Y-135991971D01*
X117451177Y-136092516D01*
X117478390Y-136112287D01*
X117566517Y-136157190D01*
X117660776Y-136205218D01*
X117660778Y-136205218D01*
X117660781Y-136205220D01*
X117765137Y-136239127D01*
X117855465Y-136268477D01*
X117956557Y-136284488D01*
X118057648Y-136300500D01*
X118057649Y-136300500D01*
X118262351Y-136300500D01*
X118262352Y-136300500D01*
X118464534Y-136268477D01*
X118659219Y-136205220D01*
X118841610Y-136112287D01*
X118938234Y-136042086D01*
X119007213Y-135991971D01*
X119007215Y-135991968D01*
X119007219Y-135991966D01*
X119151966Y-135847219D01*
X119151968Y-135847215D01*
X119151971Y-135847213D01*
X119218093Y-135756202D01*
X119272287Y-135681610D01*
X119365220Y-135499219D01*
X119428477Y-135304534D01*
X119460500Y-135102352D01*
X119460500Y-134897648D01*
X119441943Y-134780484D01*
X119428477Y-134695465D01*
X119384894Y-134561331D01*
X119365220Y-134500781D01*
X119365218Y-134500778D01*
X119365218Y-134500776D01*
X119310197Y-134392793D01*
X119272287Y-134318390D01*
X119244240Y-134279786D01*
X119151971Y-134152786D01*
X119007213Y-134008028D01*
X118841613Y-133887715D01*
X118841612Y-133887714D01*
X118841610Y-133887713D01*
X118753487Y-133842812D01*
X118659223Y-133794781D01*
X118464534Y-133731522D01*
X118289412Y-133703786D01*
X118262352Y-133699500D01*
X118057648Y-133699500D01*
X118051423Y-133700486D01*
X117855465Y-133731522D01*
X117660776Y-133794781D01*
X117478386Y-133887715D01*
X117312786Y-134008028D01*
X117168028Y-134152786D01*
X117047715Y-134318386D01*
X116954781Y-134500776D01*
X116891522Y-134695465D01*
X116859500Y-134897648D01*
X108386685Y-134897648D01*
X108372741Y-134845606D01*
X108320080Y-134754394D01*
X108315686Y-134750000D01*
X109300000Y-134750000D01*
X109300000Y-134152172D01*
X109299999Y-134152155D01*
X109293598Y-134092627D01*
X109293596Y-134092620D01*
X109243354Y-133957913D01*
X109243350Y-133957906D01*
X109157190Y-133842812D01*
X109157187Y-133842809D01*
X109042093Y-133756649D01*
X109042086Y-133756645D01*
X108907379Y-133706403D01*
X108907372Y-133706401D01*
X108847844Y-133700000D01*
X108250000Y-133700000D01*
X108250000Y-134684314D01*
X108245606Y-134679920D01*
X108154394Y-134627259D01*
X108052661Y-134600000D01*
X107947339Y-134600000D01*
X107845606Y-134627259D01*
X107754394Y-134679920D01*
X107750000Y-134684314D01*
X107750000Y-133700000D01*
X107152155Y-133700000D01*
X107092627Y-133706401D01*
X107092620Y-133706403D01*
X106957913Y-133756645D01*
X106957906Y-133756649D01*
X106842812Y-133842809D01*
X106842809Y-133842812D01*
X106756649Y-133957906D01*
X106756645Y-133957913D01*
X106706403Y-134092620D01*
X106706401Y-134092627D01*
X106700000Y-134152155D01*
X100300500Y-134152155D01*
X100300500Y-129152155D01*
X106700000Y-129152155D01*
X106700000Y-129750000D01*
X107684314Y-129750000D01*
X107679920Y-129754394D01*
X107627259Y-129845606D01*
X107600000Y-129947339D01*
X107600000Y-130052661D01*
X107627259Y-130154394D01*
X107679920Y-130245606D01*
X107684314Y-130250000D01*
X106700000Y-130250000D01*
X106700000Y-130847844D01*
X106706401Y-130907372D01*
X106706403Y-130907379D01*
X106756645Y-131042086D01*
X106756649Y-131042093D01*
X106842809Y-131157187D01*
X106842812Y-131157190D01*
X106957906Y-131243350D01*
X106957913Y-131243354D01*
X107092620Y-131293596D01*
X107092627Y-131293598D01*
X107152155Y-131299999D01*
X107152172Y-131300000D01*
X107750000Y-131300000D01*
X107750000Y-130315686D01*
X107754394Y-130320080D01*
X107845606Y-130372741D01*
X107947339Y-130400000D01*
X108052661Y-130400000D01*
X108154394Y-130372741D01*
X108245606Y-130320080D01*
X108250000Y-130315686D01*
X108250000Y-131300000D01*
X108847828Y-131300000D01*
X108847844Y-131299999D01*
X108907372Y-131293598D01*
X108907379Y-131293596D01*
X109042086Y-131243354D01*
X109042093Y-131243350D01*
X109157187Y-131157190D01*
X109157190Y-131157187D01*
X109243350Y-131042093D01*
X109243354Y-131042086D01*
X109293596Y-130907379D01*
X109293598Y-130907372D01*
X109299999Y-130847844D01*
X109300000Y-130847827D01*
X109300000Y-130250000D01*
X108315686Y-130250000D01*
X108320080Y-130245606D01*
X108372741Y-130154394D01*
X108400000Y-130052661D01*
X108400000Y-129947339D01*
X108386685Y-129897648D01*
X116859500Y-129897648D01*
X116859500Y-130102351D01*
X116891522Y-130304534D01*
X116954781Y-130499223D01*
X117018691Y-130624653D01*
X117034705Y-130656081D01*
X117047715Y-130681613D01*
X117168028Y-130847213D01*
X117312786Y-130991971D01*
X117467749Y-131104556D01*
X117478390Y-131112287D01*
X117566517Y-131157190D01*
X117660776Y-131205218D01*
X117660778Y-131205218D01*
X117660781Y-131205220D01*
X117765137Y-131239127D01*
X117855465Y-131268477D01*
X117862259Y-131269553D01*
X118057648Y-131300500D01*
X118057649Y-131300500D01*
X118262351Y-131300500D01*
X118262352Y-131300500D01*
X118464534Y-131268477D01*
X118659219Y-131205220D01*
X118841610Y-131112287D01*
X118938234Y-131042086D01*
X119007213Y-130991971D01*
X119007215Y-130991968D01*
X119007219Y-130991966D01*
X119151966Y-130847219D01*
X119151968Y-130847215D01*
X119151971Y-130847213D01*
X119204732Y-130774590D01*
X119272287Y-130681610D01*
X119365220Y-130499219D01*
X119428477Y-130304534D01*
X119460500Y-130102352D01*
X119460500Y-129897648D01*
X119449768Y-129829890D01*
X119428477Y-129695465D01*
X119392484Y-129584692D01*
X119365220Y-129500781D01*
X119365218Y-129500778D01*
X119365218Y-129500776D01*
X119313124Y-129398537D01*
X119272287Y-129318390D01*
X119264556Y-129307749D01*
X119151971Y-129152786D01*
X119007213Y-129008028D01*
X118841613Y-128887715D01*
X118841612Y-128887714D01*
X118841610Y-128887713D01*
X118753487Y-128842812D01*
X118659223Y-128794781D01*
X118464534Y-128731522D01*
X118289995Y-128703878D01*
X118262352Y-128699500D01*
X118057648Y-128699500D01*
X118033329Y-128703351D01*
X117855465Y-128731522D01*
X117660776Y-128794781D01*
X117478386Y-128887715D01*
X117312786Y-129008028D01*
X117168028Y-129152786D01*
X117047715Y-129318386D01*
X116954781Y-129500776D01*
X116891522Y-129695465D01*
X116859500Y-129897648D01*
X108386685Y-129897648D01*
X108372741Y-129845606D01*
X108320080Y-129754394D01*
X108315686Y-129750000D01*
X109300000Y-129750000D01*
X109300000Y-129152172D01*
X109299999Y-129152155D01*
X109293598Y-129092627D01*
X109293596Y-129092620D01*
X109243354Y-128957913D01*
X109243350Y-128957906D01*
X109157190Y-128842812D01*
X109157187Y-128842809D01*
X109042093Y-128756649D01*
X109042086Y-128756645D01*
X108907379Y-128706403D01*
X108907372Y-128706401D01*
X108847844Y-128700000D01*
X108250000Y-128700000D01*
X108250000Y-129684314D01*
X108245606Y-129679920D01*
X108154394Y-129627259D01*
X108052661Y-129600000D01*
X107947339Y-129600000D01*
X107845606Y-129627259D01*
X107754394Y-129679920D01*
X107750000Y-129684314D01*
X107750000Y-128700000D01*
X107152155Y-128700000D01*
X107092627Y-128706401D01*
X107092620Y-128706403D01*
X106957913Y-128756645D01*
X106957906Y-128756649D01*
X106842812Y-128842809D01*
X106842809Y-128842812D01*
X106756649Y-128957906D01*
X106756645Y-128957913D01*
X106706403Y-129092620D01*
X106706401Y-129092627D01*
X106700000Y-129152155D01*
X100300500Y-129152155D01*
X100300500Y-124152135D01*
X106699500Y-124152135D01*
X106699500Y-125847870D01*
X106699501Y-125847876D01*
X106705908Y-125907483D01*
X106756202Y-126042328D01*
X106756206Y-126042335D01*
X106842452Y-126157544D01*
X106842455Y-126157547D01*
X106957664Y-126243793D01*
X106957671Y-126243797D01*
X107092517Y-126294091D01*
X107092516Y-126294091D01*
X107099444Y-126294835D01*
X107152127Y-126300500D01*
X108847872Y-126300499D01*
X108907483Y-126294091D01*
X109042331Y-126243796D01*
X109157546Y-126157546D01*
X109243796Y-126042331D01*
X109294091Y-125907483D01*
X109300500Y-125847873D01*
X109300499Y-124152128D01*
X109294091Y-124092517D01*
X109288428Y-124077333D01*
X109243797Y-123957670D01*
X109243793Y-123957664D01*
X109157547Y-123842455D01*
X109157544Y-123842452D01*
X109042335Y-123756206D01*
X109042328Y-123756202D01*
X108907482Y-123705908D01*
X108907483Y-123705908D01*
X108847883Y-123699501D01*
X108847881Y-123699500D01*
X108847873Y-123699500D01*
X108847864Y-123699500D01*
X107152129Y-123699500D01*
X107152123Y-123699501D01*
X107092516Y-123705908D01*
X106957671Y-123756202D01*
X106957664Y-123756206D01*
X106842455Y-123842452D01*
X106842452Y-123842455D01*
X106756206Y-123957664D01*
X106756203Y-123957670D01*
X106705908Y-124092517D01*
X106700906Y-124139047D01*
X106699501Y-124152123D01*
X106699500Y-124152135D01*
X100300500Y-124152135D01*
X100300500Y-119152135D01*
X106699500Y-119152135D01*
X106699500Y-120847870D01*
X106699501Y-120847872D01*
X106705908Y-120907483D01*
X106756202Y-121042328D01*
X106756206Y-121042335D01*
X106842452Y-121157544D01*
X106842455Y-121157547D01*
X106957664Y-121243793D01*
X106957671Y-121243797D01*
X107092517Y-121294091D01*
X107092516Y-121294091D01*
X107099444Y-121294835D01*
X107152127Y-121300500D01*
X108847872Y-121300499D01*
X108907483Y-121294091D01*
X109042331Y-121243796D01*
X109157546Y-121157546D01*
X109243796Y-121042331D01*
X109294091Y-120907483D01*
X109300500Y-120847873D01*
X109300499Y-119152128D01*
X109294091Y-119092517D01*
X109243884Y-118957906D01*
X109243797Y-118957671D01*
X109243793Y-118957664D01*
X109157547Y-118842455D01*
X109157544Y-118842452D01*
X109042335Y-118756206D01*
X109042328Y-118756202D01*
X108907482Y-118705908D01*
X108907483Y-118705908D01*
X108847883Y-118699501D01*
X108847881Y-118699500D01*
X108847873Y-118699500D01*
X108847864Y-118699500D01*
X107152129Y-118699500D01*
X107152123Y-118699501D01*
X107092516Y-118705908D01*
X106957671Y-118756202D01*
X106957664Y-118756206D01*
X106842455Y-118842452D01*
X106842452Y-118842455D01*
X106756206Y-118957664D01*
X106756202Y-118957671D01*
X106705908Y-119092517D01*
X106702954Y-119120000D01*
X106699501Y-119152123D01*
X106699500Y-119152135D01*
X100300500Y-119152135D01*
X100300500Y-114152135D01*
X106699500Y-114152135D01*
X106699500Y-115847870D01*
X106699501Y-115847876D01*
X106705908Y-115907483D01*
X106756202Y-116042328D01*
X106756206Y-116042335D01*
X106842452Y-116157544D01*
X106842455Y-116157547D01*
X106957664Y-116243793D01*
X106957671Y-116243797D01*
X107092517Y-116294091D01*
X107092516Y-116294091D01*
X107099444Y-116294835D01*
X107152127Y-116300500D01*
X108847872Y-116300499D01*
X108907483Y-116294091D01*
X109042331Y-116243796D01*
X109157546Y-116157546D01*
X109243796Y-116042331D01*
X109294091Y-115907483D01*
X109300500Y-115847873D01*
X109300499Y-114897648D01*
X116859500Y-114897648D01*
X116859500Y-115102351D01*
X116891522Y-115304534D01*
X116954781Y-115499223D01*
X117047715Y-115681613D01*
X117168028Y-115847213D01*
X117312786Y-115991971D01*
X117392515Y-116049896D01*
X117478390Y-116112287D01*
X117566517Y-116157190D01*
X117660776Y-116205218D01*
X117660778Y-116205218D01*
X117660781Y-116205220D01*
X117765137Y-116239127D01*
X117855465Y-116268477D01*
X117956557Y-116284488D01*
X118057648Y-116300500D01*
X118057649Y-116300500D01*
X118262351Y-116300500D01*
X118262352Y-116300500D01*
X118464534Y-116268477D01*
X118659219Y-116205220D01*
X118841610Y-116112287D01*
X118938234Y-116042086D01*
X119007213Y-115991971D01*
X119007215Y-115991968D01*
X119007219Y-115991966D01*
X119151966Y-115847219D01*
X119151968Y-115847215D01*
X119151971Y-115847213D01*
X119224422Y-115747491D01*
X119272287Y-115681610D01*
X119365220Y-115499219D01*
X119428477Y-115304534D01*
X119460500Y-115102352D01*
X119460500Y-114897648D01*
X119452257Y-114845606D01*
X119428477Y-114695465D01*
X119365218Y-114500776D01*
X119324797Y-114421447D01*
X119272287Y-114318390D01*
X119243346Y-114278556D01*
X119151971Y-114152786D01*
X119007213Y-114008028D01*
X118841613Y-113887715D01*
X118841612Y-113887714D01*
X118841610Y-113887713D01*
X118753487Y-113842812D01*
X118659223Y-113794781D01*
X118464534Y-113731522D01*
X118289995Y-113703878D01*
X118262352Y-113699500D01*
X118057648Y-113699500D01*
X118033329Y-113703351D01*
X117855465Y-113731522D01*
X117660776Y-113794781D01*
X117478386Y-113887715D01*
X117312786Y-114008028D01*
X117168028Y-114152786D01*
X117047715Y-114318386D01*
X116954781Y-114500776D01*
X116891522Y-114695465D01*
X116859500Y-114897648D01*
X109300499Y-114897648D01*
X109300499Y-114152128D01*
X109294091Y-114092517D01*
X109267636Y-114021588D01*
X109243797Y-113957671D01*
X109243793Y-113957664D01*
X109157547Y-113842455D01*
X109157544Y-113842452D01*
X109042335Y-113756206D01*
X109042328Y-113756202D01*
X108907482Y-113705908D01*
X108907483Y-113705908D01*
X108847883Y-113699501D01*
X108847881Y-113699500D01*
X108847873Y-113699500D01*
X108847864Y-113699500D01*
X107152129Y-113699500D01*
X107152123Y-113699501D01*
X107092516Y-113705908D01*
X106957671Y-113756202D01*
X106957664Y-113756206D01*
X106842455Y-113842452D01*
X106842452Y-113842455D01*
X106756206Y-113957664D01*
X106756202Y-113957671D01*
X106705908Y-114092517D01*
X106699501Y-114152116D01*
X106699501Y-114152123D01*
X106699500Y-114152135D01*
X100300500Y-114152135D01*
X100300500Y-109152135D01*
X106699500Y-109152135D01*
X106699500Y-110847870D01*
X106699501Y-110847876D01*
X106705908Y-110907483D01*
X106756202Y-111042328D01*
X106756206Y-111042335D01*
X106842452Y-111157544D01*
X106842455Y-111157547D01*
X106957664Y-111243793D01*
X106957671Y-111243797D01*
X107092517Y-111294091D01*
X107092516Y-111294091D01*
X107099444Y-111294835D01*
X107152127Y-111300500D01*
X108847872Y-111300499D01*
X108907483Y-111294091D01*
X109042331Y-111243796D01*
X109157546Y-111157546D01*
X109243796Y-111042331D01*
X109294091Y-110907483D01*
X109300500Y-110847873D01*
X109300499Y-109897648D01*
X116859500Y-109897648D01*
X116859500Y-110102351D01*
X116891522Y-110304534D01*
X116954781Y-110499223D01*
X117018691Y-110624653D01*
X117029714Y-110646286D01*
X117047715Y-110681613D01*
X117168028Y-110847213D01*
X117312786Y-110991971D01*
X117464391Y-111102116D01*
X117478390Y-111112287D01*
X117567212Y-111157544D01*
X117660776Y-111205218D01*
X117660778Y-111205218D01*
X117660781Y-111205220D01*
X117764917Y-111239056D01*
X117855465Y-111268477D01*
X117956557Y-111284488D01*
X118057648Y-111300500D01*
X118057649Y-111300500D01*
X118262351Y-111300500D01*
X118262352Y-111300500D01*
X118464534Y-111268477D01*
X118659219Y-111205220D01*
X118841610Y-111112287D01*
X118942369Y-111039082D01*
X119007213Y-110991971D01*
X119007215Y-110991968D01*
X119007219Y-110991966D01*
X119151966Y-110847219D01*
X119151968Y-110847215D01*
X119151971Y-110847213D01*
X119204732Y-110774590D01*
X119272287Y-110681610D01*
X119365220Y-110499219D01*
X119428477Y-110304534D01*
X119460500Y-110102352D01*
X119460500Y-109897648D01*
X119428477Y-109695466D01*
X119365220Y-109500781D01*
X119365218Y-109500778D01*
X119365218Y-109500776D01*
X119325286Y-109422407D01*
X119272287Y-109318390D01*
X119254419Y-109293796D01*
X119151971Y-109152786D01*
X119007213Y-109008028D01*
X118841613Y-108887715D01*
X118841612Y-108887714D01*
X118841610Y-108887713D01*
X118784653Y-108858691D01*
X118659223Y-108794781D01*
X118464534Y-108731522D01*
X118289995Y-108703878D01*
X118262352Y-108699500D01*
X118057648Y-108699500D01*
X118033329Y-108703351D01*
X117855465Y-108731522D01*
X117660776Y-108794781D01*
X117478386Y-108887715D01*
X117312786Y-109008028D01*
X117168028Y-109152786D01*
X117047715Y-109318386D01*
X116954781Y-109500776D01*
X116891522Y-109695465D01*
X116859500Y-109897648D01*
X109300499Y-109897648D01*
X109300499Y-109152128D01*
X109294091Y-109092517D01*
X109270814Y-109030109D01*
X109243797Y-108957671D01*
X109243793Y-108957664D01*
X109157547Y-108842455D01*
X109157544Y-108842452D01*
X109042335Y-108756206D01*
X109042328Y-108756202D01*
X108907482Y-108705908D01*
X108907483Y-108705908D01*
X108847883Y-108699501D01*
X108847881Y-108699500D01*
X108847873Y-108699500D01*
X108847864Y-108699500D01*
X107152129Y-108699500D01*
X107152123Y-108699501D01*
X107092516Y-108705908D01*
X106957671Y-108756202D01*
X106957664Y-108756206D01*
X106842455Y-108842452D01*
X106842452Y-108842455D01*
X106756206Y-108957664D01*
X106756202Y-108957671D01*
X106705908Y-109092517D01*
X106700318Y-109144517D01*
X106699501Y-109152123D01*
X106699500Y-109152135D01*
X100300500Y-109152135D01*
X100300500Y-107881902D01*
X113499500Y-107881902D01*
X113499500Y-108118097D01*
X113536446Y-108351368D01*
X113609433Y-108575996D01*
X113716657Y-108786433D01*
X113855483Y-108977510D01*
X114022490Y-109144517D01*
X114213567Y-109283343D01*
X114282343Y-109318386D01*
X114424003Y-109390566D01*
X114424005Y-109390566D01*
X114424008Y-109390568D01*
X114544412Y-109429689D01*
X114648631Y-109463553D01*
X114881903Y-109500500D01*
X114881908Y-109500500D01*
X115118097Y-109500500D01*
X115351368Y-109463553D01*
X115392633Y-109450145D01*
X115575992Y-109390568D01*
X115786433Y-109283343D01*
X115977510Y-109144517D01*
X116144517Y-108977510D01*
X116283343Y-108786433D01*
X116390568Y-108575992D01*
X116463553Y-108351368D01*
X116469117Y-108316239D01*
X116500500Y-108118097D01*
X116500500Y-107881902D01*
X116463553Y-107648631D01*
X116409276Y-107481585D01*
X116390568Y-107424008D01*
X116390566Y-107424005D01*
X116390566Y-107424003D01*
X116283342Y-107213566D01*
X116144517Y-107022490D01*
X115977510Y-106855483D01*
X115786433Y-106716657D01*
X115575996Y-106609433D01*
X115351368Y-106536446D01*
X115118097Y-106499500D01*
X115118092Y-106499500D01*
X114881908Y-106499500D01*
X114881903Y-106499500D01*
X114648631Y-106536446D01*
X114424003Y-106609433D01*
X114213566Y-106716657D01*
X114144064Y-106767154D01*
X114022490Y-106855483D01*
X114022488Y-106855485D01*
X114022487Y-106855485D01*
X113855485Y-107022487D01*
X113855485Y-107022488D01*
X113855483Y-107022490D01*
X113795862Y-107104550D01*
X113716657Y-107213566D01*
X113609433Y-107424003D01*
X113536446Y-107648631D01*
X113499500Y-107881902D01*
X100300500Y-107881902D01*
X100300500Y-105550318D01*
X100320185Y-105483279D01*
X100372989Y-105437524D01*
X100442147Y-105427580D01*
X100505703Y-105456605D01*
X100512181Y-105462637D01*
X100646367Y-105596823D01*
X100646372Y-105596827D01*
X100646373Y-105596828D01*
X100912240Y-105815019D01*
X101198213Y-106006100D01*
X101198222Y-106006105D01*
X101198224Y-106006106D01*
X101501530Y-106168227D01*
X101501532Y-106168227D01*
X101501538Y-106168231D01*
X101819295Y-106299850D01*
X102148422Y-106399690D01*
X102485750Y-106466789D01*
X102828031Y-106500500D01*
X102828034Y-106500500D01*
X103171966Y-106500500D01*
X103171969Y-106500500D01*
X103514250Y-106466789D01*
X103851578Y-106399690D01*
X104180705Y-106299850D01*
X104498462Y-106168231D01*
X104801787Y-106006100D01*
X105087760Y-105815019D01*
X105353627Y-105596828D01*
X105596828Y-105353627D01*
X105815019Y-105087760D01*
X106006100Y-104801787D01*
X106168231Y-104498462D01*
X106299850Y-104180705D01*
X106399690Y-103851578D01*
X106466789Y-103514250D01*
X106500500Y-103171969D01*
X106500500Y-102828031D01*
X106466789Y-102485750D01*
X106399690Y-102148422D01*
X106340153Y-101952155D01*
X110500000Y-101952155D01*
X110500000Y-102750000D01*
X111566988Y-102750000D01*
X111534075Y-102807007D01*
X111500000Y-102934174D01*
X111500000Y-103065826D01*
X111534075Y-103192993D01*
X111566988Y-103250000D01*
X110500000Y-103250000D01*
X110500000Y-104047844D01*
X110506401Y-104107372D01*
X110506403Y-104107379D01*
X110556645Y-104242086D01*
X110556649Y-104242093D01*
X110642809Y-104357187D01*
X110642812Y-104357190D01*
X110757906Y-104443350D01*
X110757913Y-104443354D01*
X110892620Y-104493596D01*
X110892627Y-104493598D01*
X110952155Y-104499999D01*
X110952172Y-104500000D01*
X111750000Y-104500000D01*
X111750000Y-103433012D01*
X111807007Y-103465925D01*
X111934174Y-103500000D01*
X112065826Y-103500000D01*
X112192993Y-103465925D01*
X112250000Y-103433012D01*
X112250000Y-104500000D01*
X113047828Y-104500000D01*
X113047844Y-104499999D01*
X113107372Y-104493598D01*
X113107379Y-104493596D01*
X113242086Y-104443354D01*
X113242093Y-104443350D01*
X113357187Y-104357190D01*
X113357190Y-104357187D01*
X113443350Y-104242093D01*
X113443354Y-104242086D01*
X113493596Y-104107379D01*
X113493598Y-104107372D01*
X113499999Y-104047844D01*
X113500000Y-104047827D01*
X113500000Y-103250000D01*
X112433012Y-103250000D01*
X112465925Y-103192993D01*
X112500000Y-103065826D01*
X112500000Y-102934174D01*
X112465925Y-102807007D01*
X112433012Y-102750000D01*
X113500000Y-102750000D01*
X116520898Y-102750000D01*
X117566988Y-102750000D01*
X117534075Y-102807007D01*
X117500000Y-102934174D01*
X117500000Y-103065826D01*
X117534075Y-103192993D01*
X117566988Y-103250000D01*
X116520898Y-103250000D01*
X116536934Y-103351247D01*
X116609897Y-103575802D01*
X116717085Y-103786171D01*
X116855866Y-103977186D01*
X117022813Y-104144133D01*
X117213828Y-104282914D01*
X117424195Y-104390102D01*
X117648744Y-104463063D01*
X117648750Y-104463065D01*
X117750000Y-104479101D01*
X117750000Y-103433012D01*
X117807007Y-103465925D01*
X117934174Y-103500000D01*
X118065826Y-103500000D01*
X118192993Y-103465925D01*
X118250000Y-103433012D01*
X118250000Y-104479100D01*
X118351249Y-104463065D01*
X118351255Y-104463063D01*
X118575804Y-104390102D01*
X118786171Y-104282914D01*
X118977186Y-104144133D01*
X119144133Y-103977186D01*
X119282914Y-103786171D01*
X119390102Y-103575802D01*
X119463065Y-103351247D01*
X119479102Y-103250000D01*
X118433012Y-103250000D01*
X118465925Y-103192993D01*
X118500000Y-103065826D01*
X118500000Y-102934174D01*
X118465925Y-102807007D01*
X118433012Y-102750000D01*
X119479102Y-102750000D01*
X119463065Y-102648752D01*
X119390102Y-102424197D01*
X119282915Y-102213829D01*
X119282913Y-102213827D01*
X119238106Y-102152155D01*
X123700000Y-102152155D01*
X123700000Y-102750000D01*
X124684314Y-102750000D01*
X124679920Y-102754394D01*
X124627259Y-102845606D01*
X124600000Y-102947339D01*
X124600000Y-103052661D01*
X124627259Y-103154394D01*
X124679920Y-103245606D01*
X124684314Y-103250000D01*
X123700000Y-103250000D01*
X123700000Y-103847844D01*
X123706401Y-103907372D01*
X123706403Y-103907379D01*
X123756645Y-104042086D01*
X123756649Y-104042093D01*
X123842809Y-104157187D01*
X123842812Y-104157190D01*
X123957906Y-104243350D01*
X123957913Y-104243354D01*
X124092620Y-104293596D01*
X124092627Y-104293598D01*
X124152155Y-104299999D01*
X124152172Y-104300000D01*
X124750000Y-104300000D01*
X124750000Y-103315686D01*
X124754394Y-103320080D01*
X124845606Y-103372741D01*
X124947339Y-103400000D01*
X125052661Y-103400000D01*
X125154394Y-103372741D01*
X125245606Y-103320080D01*
X125250000Y-103315686D01*
X125250000Y-104300000D01*
X125847828Y-104300000D01*
X125847844Y-104299999D01*
X125907372Y-104293598D01*
X125907379Y-104293596D01*
X126042086Y-104243354D01*
X126042088Y-104243352D01*
X126157186Y-104157190D01*
X126157187Y-104157190D01*
X126163473Y-104148793D01*
X126219405Y-104106920D01*
X126289097Y-104101934D01*
X126319032Y-104112614D01*
X126390037Y-104148793D01*
X126500776Y-104205218D01*
X126500778Y-104205218D01*
X126500781Y-104205220D01*
X126605137Y-104239127D01*
X126695465Y-104268477D01*
X126786616Y-104282914D01*
X126897648Y-104300500D01*
X126897649Y-104300500D01*
X127102351Y-104300500D01*
X127102352Y-104300500D01*
X127304534Y-104268477D01*
X127499219Y-104205220D01*
X127681610Y-104112287D01*
X127778234Y-104042086D01*
X127847213Y-103991971D01*
X127847215Y-103991968D01*
X127847219Y-103991966D01*
X127991966Y-103847219D01*
X127991968Y-103847215D01*
X127991971Y-103847213D01*
X128044732Y-103774590D01*
X128112287Y-103681610D01*
X128205220Y-103499219D01*
X128268477Y-103304534D01*
X128300500Y-103102352D01*
X128300500Y-102897648D01*
X128286144Y-102807007D01*
X128268477Y-102695465D01*
X128205218Y-102500776D01*
X128166198Y-102424197D01*
X128112287Y-102318390D01*
X128036320Y-102213829D01*
X127991971Y-102152786D01*
X127847213Y-102008028D01*
X127681613Y-101887715D01*
X127681612Y-101887714D01*
X127681610Y-101887713D01*
X127593487Y-101842812D01*
X127499223Y-101794781D01*
X127304534Y-101731522D01*
X127129995Y-101703878D01*
X127102352Y-101699500D01*
X126897648Y-101699500D01*
X126873329Y-101703351D01*
X126695465Y-101731522D01*
X126500776Y-101794781D01*
X126319037Y-101887383D01*
X126250368Y-101900279D01*
X126185627Y-101874003D01*
X126163475Y-101851209D01*
X126157187Y-101842810D01*
X126157186Y-101842809D01*
X126042088Y-101756647D01*
X126042086Y-101756645D01*
X125907379Y-101706403D01*
X125907372Y-101706401D01*
X125847844Y-101700000D01*
X125250000Y-101700000D01*
X125250000Y-102684314D01*
X125245606Y-102679920D01*
X125154394Y-102627259D01*
X125052661Y-102600000D01*
X124947339Y-102600000D01*
X124845606Y-102627259D01*
X124754394Y-102679920D01*
X124750000Y-102684314D01*
X124750000Y-101700000D01*
X124152155Y-101700000D01*
X124092627Y-101706401D01*
X124092620Y-101706403D01*
X123957913Y-101756645D01*
X123957906Y-101756649D01*
X123842812Y-101842809D01*
X123842809Y-101842812D01*
X123756649Y-101957906D01*
X123756645Y-101957913D01*
X123706403Y-102092620D01*
X123706401Y-102092627D01*
X123700000Y-102152155D01*
X119238106Y-102152155D01*
X119144133Y-102022813D01*
X118977186Y-101855866D01*
X118786171Y-101717085D01*
X118575802Y-101609897D01*
X118351247Y-101536934D01*
X118250000Y-101520897D01*
X118250000Y-102566988D01*
X118192993Y-102534075D01*
X118065826Y-102500000D01*
X117934174Y-102500000D01*
X117807007Y-102534075D01*
X117750000Y-102566988D01*
X117750000Y-101520897D01*
X117648752Y-101536934D01*
X117424197Y-101609897D01*
X117213828Y-101717085D01*
X117022813Y-101855866D01*
X116855866Y-102022813D01*
X116717085Y-102213828D01*
X116609897Y-102424197D01*
X116536934Y-102648752D01*
X116520898Y-102750000D01*
X113500000Y-102750000D01*
X113500000Y-101952172D01*
X113499999Y-101952155D01*
X113493598Y-101892627D01*
X113493596Y-101892620D01*
X113443354Y-101757913D01*
X113443350Y-101757906D01*
X113357190Y-101642812D01*
X113357187Y-101642809D01*
X113242093Y-101556649D01*
X113242086Y-101556645D01*
X113107379Y-101506403D01*
X113107372Y-101506401D01*
X113047844Y-101500000D01*
X112250000Y-101500000D01*
X112250000Y-102566988D01*
X112192993Y-102534075D01*
X112065826Y-102500000D01*
X111934174Y-102500000D01*
X111807007Y-102534075D01*
X111750000Y-102566988D01*
X111750000Y-101500000D01*
X110952155Y-101500000D01*
X110892627Y-101506401D01*
X110892620Y-101506403D01*
X110757913Y-101556645D01*
X110757906Y-101556649D01*
X110642812Y-101642809D01*
X110642809Y-101642812D01*
X110556649Y-101757906D01*
X110556645Y-101757913D01*
X110506403Y-101892620D01*
X110506401Y-101892627D01*
X110500000Y-101952155D01*
X106340153Y-101952155D01*
X106299850Y-101819295D01*
X106168231Y-101501538D01*
X106006100Y-101198213D01*
X105815019Y-100912240D01*
X105596828Y-100646373D01*
X105596827Y-100646372D01*
X105596823Y-100646367D01*
X105462637Y-100512181D01*
X105429152Y-100450858D01*
X105434136Y-100381166D01*
X105476008Y-100325233D01*
X105541472Y-100300816D01*
X105550318Y-100300500D01*
X164449682Y-100300500D01*
X164516721Y-100320185D01*
G37*
%TD.AperFunction*%
%TA.AperFunction,Conductor*%
G36*
X131813039Y-149058485D02*
G01*
X131858794Y-149111289D01*
X131870000Y-149162800D01*
X131870000Y-149224314D01*
X131865606Y-149219920D01*
X131774394Y-149167259D01*
X131672661Y-149140000D01*
X131567339Y-149140000D01*
X131465606Y-149167259D01*
X131374394Y-149219920D01*
X131370000Y-149224314D01*
X131370000Y-149162800D01*
X131389685Y-149095761D01*
X131442489Y-149050006D01*
X131494000Y-149038800D01*
X131746000Y-149038800D01*
X131813039Y-149058485D01*
G37*
%TD.AperFunction*%
%TA.AperFunction,Conductor*%
G36*
X133794058Y-143125185D02*
G01*
X133837503Y-143173203D01*
X133844950Y-143187819D01*
X133969890Y-143359786D01*
X134120213Y-143510109D01*
X134292182Y-143635050D01*
X134300946Y-143639516D01*
X134351742Y-143687491D01*
X134368536Y-143755312D01*
X134345998Y-143821447D01*
X134300946Y-143860484D01*
X134292182Y-143864949D01*
X134120213Y-143989890D01*
X133969890Y-144140213D01*
X133844951Y-144312179D01*
X133748444Y-144501585D01*
X133682753Y-144703760D01*
X133649500Y-144913713D01*
X133649500Y-145126286D01*
X133677268Y-145301610D01*
X133682754Y-145336243D01*
X133738795Y-145508720D01*
X133748444Y-145538414D01*
X133844951Y-145727820D01*
X133969890Y-145899786D01*
X134120213Y-146050109D01*
X134292182Y-146175050D01*
X134300946Y-146179516D01*
X134351742Y-146227491D01*
X134368536Y-146295312D01*
X134345998Y-146361447D01*
X134300946Y-146400484D01*
X134292182Y-146404949D01*
X134120213Y-146529890D01*
X133969890Y-146680213D01*
X133844950Y-146852180D01*
X133834970Y-146871768D01*
X133786994Y-146922563D01*
X133748677Y-146937088D01*
X133640855Y-146958535D01*
X133640847Y-146958537D01*
X133527016Y-147005687D01*
X133442663Y-147062051D01*
X133442662Y-147062052D01*
X133424563Y-147074144D01*
X133424562Y-147074145D01*
X133100201Y-147398507D01*
X133038878Y-147431992D01*
X132969186Y-147427008D01*
X132913253Y-147385136D01*
X132888836Y-147319672D01*
X132890047Y-147291427D01*
X132896609Y-147250000D01*
X131935686Y-147250000D01*
X131940080Y-147245606D01*
X131992741Y-147154394D01*
X132020000Y-147052661D01*
X132020000Y-146947339D01*
X131992741Y-146845606D01*
X131940080Y-146754394D01*
X131935686Y-146750000D01*
X132896609Y-146750000D01*
X132887990Y-146695586D01*
X132824755Y-146500970D01*
X132731859Y-146318650D01*
X132611582Y-146153105D01*
X132611582Y-146153104D01*
X132466895Y-146008417D01*
X132301349Y-145888140D01*
X132119029Y-145795244D01*
X131924413Y-145732009D01*
X131870000Y-145723390D01*
X131870000Y-146684314D01*
X131865606Y-146679920D01*
X131774394Y-146627259D01*
X131672661Y-146600000D01*
X131567339Y-146600000D01*
X131465606Y-146627259D01*
X131374394Y-146679920D01*
X131370000Y-146684314D01*
X131370000Y-145723390D01*
X131315586Y-145732009D01*
X131120970Y-145795244D01*
X130938650Y-145888140D01*
X130773105Y-146008417D01*
X130773104Y-146008417D01*
X130628417Y-146153104D01*
X130628417Y-146153105D01*
X130508140Y-146318650D01*
X130415244Y-146500970D01*
X130352009Y-146695586D01*
X130343391Y-146750000D01*
X131304314Y-146750000D01*
X131299920Y-146754394D01*
X131247259Y-146845606D01*
X131220000Y-146947339D01*
X131220000Y-147052661D01*
X131247259Y-147154394D01*
X131299920Y-147245606D01*
X131304314Y-147250000D01*
X130343391Y-147250000D01*
X130352009Y-147304413D01*
X130415244Y-147499029D01*
X130470515Y-147607505D01*
X130483411Y-147676175D01*
X130457135Y-147740915D01*
X130400028Y-147781172D01*
X130360030Y-147787800D01*
X126315006Y-147787800D01*
X126191793Y-147787800D01*
X126166120Y-147792906D01*
X126140447Y-147798013D01*
X126140446Y-147798012D01*
X126070953Y-147811835D01*
X126070945Y-147811838D01*
X125957116Y-147858987D01*
X125894989Y-147900500D01*
X125884975Y-147907191D01*
X125854663Y-147927444D01*
X125128327Y-148653780D01*
X125067004Y-148687265D01*
X124997312Y-148682281D01*
X124952965Y-148653780D01*
X124847219Y-148548034D01*
X124847213Y-148548030D01*
X124810929Y-148521668D01*
X124768264Y-148466339D01*
X124762285Y-148396726D01*
X124794890Y-148334931D01*
X124855728Y-148300573D01*
X124870562Y-148298060D01*
X124907483Y-148294091D01*
X124907488Y-148294089D01*
X125042331Y-148243796D01*
X125157546Y-148157546D01*
X125243796Y-148042331D01*
X125294091Y-147907483D01*
X125300500Y-147847873D01*
X125300499Y-147687900D01*
X125304298Y-147674961D01*
X125303340Y-147661508D01*
X125313949Y-147642090D01*
X125320183Y-147620862D01*
X125331103Y-147610697D01*
X125336843Y-147600194D01*
X125356481Y-147587076D01*
X125365104Y-147579051D01*
X125370915Y-147575879D01*
X125422986Y-147554312D01*
X125474209Y-147520084D01*
X125525433Y-147485858D01*
X125612558Y-147398733D01*
X125612559Y-147398731D01*
X125619625Y-147391665D01*
X125619627Y-147391661D01*
X129869471Y-143141819D01*
X129930794Y-143108334D01*
X129957152Y-143105500D01*
X133727019Y-143105500D01*
X133794058Y-143125185D01*
G37*
%TD.AperFunction*%
%TA.AperFunction,Conductor*%
G36*
X131870000Y-147663800D02*
G01*
X131850315Y-147730839D01*
X131797511Y-147776594D01*
X131746000Y-147787800D01*
X131494000Y-147787800D01*
X131426961Y-147768115D01*
X131381206Y-147715311D01*
X131370000Y-147663800D01*
X131370000Y-147315686D01*
X131374394Y-147320080D01*
X131465606Y-147372741D01*
X131567339Y-147400000D01*
X131672661Y-147400000D01*
X131774394Y-147372741D01*
X131865606Y-147320080D01*
X131870000Y-147315686D01*
X131870000Y-147663800D01*
G37*
%TD.AperFunction*%
%TA.AperFunction,Conductor*%
G36*
X162724916Y-135221885D02*
G01*
X162770671Y-135274689D01*
X162780615Y-135343847D01*
X162768362Y-135382495D01*
X162748444Y-135421585D01*
X162682753Y-135623760D01*
X162661776Y-135756204D01*
X162649500Y-135833713D01*
X162649500Y-136046287D01*
X162656822Y-136092516D01*
X162680712Y-136243354D01*
X162682754Y-136256243D01*
X162719682Y-136369896D01*
X162748445Y-136458417D01*
X162749713Y-136460906D01*
X162749910Y-136461955D01*
X162750310Y-136462921D01*
X162750107Y-136463004D01*
X162762609Y-136529576D01*
X162736332Y-136594316D01*
X162679225Y-136634572D01*
X162639228Y-136641200D01*
X158050489Y-136641200D01*
X157929653Y-136665235D01*
X157929641Y-136665239D01*
X157897362Y-136678609D01*
X157882497Y-136684767D01*
X157815819Y-136712385D01*
X157815817Y-136712386D01*
X157713366Y-136780841D01*
X157713363Y-136780844D01*
X157101048Y-137393160D01*
X157039725Y-137426645D01*
X156970033Y-137421661D01*
X156914100Y-137379789D01*
X156889683Y-137314325D01*
X156890894Y-137286080D01*
X156896609Y-137250000D01*
X155935686Y-137250000D01*
X155940080Y-137245606D01*
X155992741Y-137154394D01*
X156020000Y-137052661D01*
X156020000Y-136947339D01*
X155992741Y-136845606D01*
X155940080Y-136754394D01*
X155935686Y-136750000D01*
X156896609Y-136750000D01*
X156887990Y-136695586D01*
X156824755Y-136500970D01*
X156731859Y-136318650D01*
X156611582Y-136153105D01*
X156611582Y-136153104D01*
X156466895Y-136008417D01*
X156301349Y-135888140D01*
X156119029Y-135795244D01*
X155924413Y-135732009D01*
X155870000Y-135723390D01*
X155870000Y-136684314D01*
X155865606Y-136679920D01*
X155774394Y-136627259D01*
X155672661Y-136600000D01*
X155567339Y-136600000D01*
X155465606Y-136627259D01*
X155374394Y-136679920D01*
X155370000Y-136684314D01*
X155370000Y-135723390D01*
X155315586Y-135732009D01*
X155120970Y-135795244D01*
X154938650Y-135888140D01*
X154773105Y-136008417D01*
X154773104Y-136008417D01*
X154628417Y-136153104D01*
X154628417Y-136153105D01*
X154508140Y-136318650D01*
X154415244Y-136500970D01*
X154352009Y-136695586D01*
X154343391Y-136750000D01*
X155304314Y-136750000D01*
X155299920Y-136754394D01*
X155247259Y-136845606D01*
X155220000Y-136947339D01*
X155220000Y-137052661D01*
X155247259Y-137154394D01*
X155299920Y-137245606D01*
X155304314Y-137250000D01*
X154343391Y-137250000D01*
X154352009Y-137304413D01*
X154352009Y-137304414D01*
X154397455Y-137444282D01*
X154399450Y-137514123D01*
X154363370Y-137573956D01*
X154300669Y-137604784D01*
X154279524Y-137606600D01*
X149424500Y-137606600D01*
X149357461Y-137586915D01*
X149311706Y-137534111D01*
X149300500Y-137482600D01*
X149300500Y-137138556D01*
X149300499Y-136152128D01*
X149294091Y-136092517D01*
X149276848Y-136046287D01*
X149243797Y-135957671D01*
X149243793Y-135957664D01*
X149157547Y-135842455D01*
X149157544Y-135842452D01*
X149042335Y-135756206D01*
X149042328Y-135756202D01*
X148907482Y-135705908D01*
X148907483Y-135705908D01*
X148847883Y-135699501D01*
X148847881Y-135699500D01*
X148847873Y-135699500D01*
X148847865Y-135699500D01*
X148422351Y-135699500D01*
X148355312Y-135679815D01*
X148309557Y-135627011D01*
X148299613Y-135557853D01*
X148328638Y-135494297D01*
X148334670Y-135487819D01*
X148381790Y-135440700D01*
X148583971Y-135238519D01*
X148645294Y-135205034D01*
X148671652Y-135202200D01*
X162657877Y-135202200D01*
X162724916Y-135221885D01*
G37*
%TD.AperFunction*%
%TD*%
M02*
