%TF.GenerationSoftware,KiCad,Pcbnew,9.0.7*%
%TF.CreationDate,2026-03-08T23:28:27+02:00*%
%TF.ProjectId,64korppu-E,36346b6f-7270-4707-952d-452e6b696361,rev?*%
%TF.SameCoordinates,Original*%
%TF.FileFunction,Copper,L2,Inr*%
%TF.FilePolarity,Positive*%
%FSLAX46Y46*%
G04 Gerber Fmt 4.6, Leading zero omitted, Abs format (unit mm)*
G04 Created by KiCad (PCBNEW 9.0.7) date 2026-03-08 23:28:27*
%MOMM*%
%LPD*%
G01*
G04 APERTURE LIST*
%TA.AperFunction,ComponentPad*%
%ADD10R,2.000000X2.000000*%
%TD*%
%TA.AperFunction,ComponentPad*%
%ADD11O,2.000000X2.000000*%
%TD*%
%TA.AperFunction,ComponentPad*%
%ADD12R,1.600000X1.600000*%
%TD*%
%TA.AperFunction,ComponentPad*%
%ADD13O,1.600000X1.600000*%
%TD*%
%TA.AperFunction,ComponentPad*%
%ADD14R,1.800000X1.800000*%
%TD*%
%TA.AperFunction,ComponentPad*%
%ADD15O,1.800000X1.800000*%
%TD*%
%TA.AperFunction,ComponentPad*%
%ADD16O,3.000000X2.000000*%
%TD*%
%TA.AperFunction,ComponentPad*%
%ADD17R,1.700000X1.700000*%
%TD*%
%TA.AperFunction,ComponentPad*%
%ADD18O,1.700000X1.700000*%
%TD*%
%TA.AperFunction,ComponentPad*%
%ADD19C,6.000000*%
%TD*%
%TA.AperFunction,ViaPad*%
%ADD20C,0.600000*%
%TD*%
%TA.AperFunction,Conductor*%
%ADD21C,0.250000*%
%TD*%
G04 APERTURE END LIST*
D10*
%TO.N,+5V*%
%TO.C,J3*%
X112000000Y-103000000D03*
D11*
X118000000Y-103000000D03*
%TO.N,GND*%
X115000000Y-108000000D03*
%TD*%
D12*
%TO.N,+5V*%
%TO.C,C4*%
X125000000Y-103000000D03*
D13*
%TO.N,GND*%
X127000000Y-103000000D03*
%TD*%
D14*
%TO.N,GND*%
%TO.C,J1*%
X108500000Y-154000000D03*
D15*
X115500000Y-154000000D03*
%TO.N,IEC_ATN*%
X107000000Y-150000000D03*
%TO.N,IEC_CLK*%
X112000000Y-146000000D03*
%TO.N,IEC_DATA*%
X117000000Y-150000000D03*
%TO.N,IEC_RESET*%
X112000000Y-150000000D03*
D16*
%TO.N,GND*%
X104500000Y-150000000D03*
X119500000Y-150000000D03*
%TD*%
D12*
%TO.N,IEC_ATN*%
%TO.C,R1*%
X108000000Y-110000000D03*
D13*
%TO.N,NANO_D2*%
X118160000Y-110000000D03*
%TD*%
D12*
%TO.N,IEC_CLK*%
%TO.C,R2*%
X108000000Y-115000000D03*
D13*
%TO.N,NANO_D3*%
X118160000Y-115000000D03*
%TD*%
D12*
%TO.N,IEC_DATA*%
%TO.C,R3*%
X108000000Y-120000000D03*
D13*
%TO.N,NANO_D4*%
X118160000Y-120000000D03*
%TD*%
D12*
%TO.N,IEC_RESET*%
%TO.C,R4*%
X108000000Y-125000000D03*
D13*
%TO.N,NANO_D5*%
X118160000Y-125000000D03*
%TD*%
D12*
%TO.N,+5V*%
%TO.C,R5*%
X108000000Y-130000000D03*
D13*
%TO.N,NANO_D2*%
X118160000Y-130000000D03*
%TD*%
D12*
%TO.N,+5V*%
%TO.C,R6*%
X108000000Y-135000000D03*
D13*
%TO.N,NANO_D3*%
X118160000Y-135000000D03*
%TD*%
D12*
%TO.N,+5V*%
%TO.C,R7*%
X108000000Y-140000000D03*
D13*
%TO.N,NANO_D4*%
X118160000Y-140000000D03*
%TD*%
D17*
%TO.N,N/C*%
%TO.C,U1*%
X135000000Y-112000000D03*
D18*
X137540000Y-112000000D03*
X135000000Y-114540000D03*
%TO.N,GND*%
X137540000Y-114540000D03*
%TO.N,N/C*%
X135000000Y-117080000D03*
X137540000Y-117080000D03*
%TO.N,GND*%
X135000000Y-119620000D03*
%TO.N,+5V*%
X137540000Y-119620000D03*
%TO.N,NANO_D2*%
X135000000Y-122160000D03*
%TO.N,N/C*%
X137540000Y-122160000D03*
%TO.N,NANO_D3*%
X135000000Y-124700000D03*
%TO.N,N/C*%
X137540000Y-124700000D03*
%TO.N,NANO_D4*%
X135000000Y-127240000D03*
%TO.N,LED_ANODE*%
X137540000Y-127240000D03*
%TO.N,NANO_D5*%
X135000000Y-129780000D03*
%TO.N,N/C*%
X137540000Y-129780000D03*
%TO.N,LATCH_595*%
X135000000Y-132320000D03*
%TO.N,N/C*%
X137540000Y-132320000D03*
%TO.N,FLOPPY_WDATA*%
X135000000Y-134860000D03*
%TO.N,FLOPPY_DSKCHG*%
X137540000Y-134860000D03*
%TO.N,FLOPPY_RDATA*%
X135000000Y-137400000D03*
%TO.N,FLOPPY_WPT*%
X137540000Y-137400000D03*
%TO.N,N/C*%
X135000000Y-139940000D03*
%TO.N,FLOPPY_TRK00*%
X137540000Y-139940000D03*
%TO.N,SPI_CS_SRAM*%
X135000000Y-142480000D03*
%TO.N,N/C*%
X137540000Y-142480000D03*
%TO.N,SPI_MOSI*%
X135000000Y-145020000D03*
%TO.N,N/C*%
X137540000Y-145020000D03*
%TO.N,SPI_MISO*%
X135000000Y-147560000D03*
%TO.N,SPI_SCK*%
X137540000Y-147560000D03*
%TD*%
D12*
%TO.N,SPI_CS_SRAM*%
%TO.C,U2*%
X124000000Y-147000000D03*
D13*
%TO.N,SPI_MISO*%
X124000000Y-149540000D03*
%TO.N,N/C*%
X124000000Y-152080000D03*
%TO.N,GND*%
X124000000Y-154620000D03*
%TO.N,SPI_MOSI*%
X131620000Y-154620000D03*
%TO.N,SPI_SCK*%
X131620000Y-152080000D03*
%TO.N,+5V*%
X131620000Y-149540000D03*
X131620000Y-147000000D03*
%TD*%
D12*
%TO.N,FLOPPY_DENSITY*%
%TO.C,U3*%
X148000000Y-137000000D03*
D13*
%TO.N,FLOPPY_MOTEA*%
X148000000Y-139540000D03*
%TO.N,FLOPPY_DRVSEL*%
X148000000Y-142080000D03*
%TO.N,FLOPPY_MOTOR*%
X148000000Y-144620000D03*
%TO.N,FLOPPY_DIR*%
X148000000Y-147160000D03*
%TO.N,FLOPPY_STEP*%
X148000000Y-149700000D03*
%TO.N,FLOPPY_WGATE*%
X148000000Y-152240000D03*
%TO.N,GND*%
X148000000Y-154780000D03*
%TO.N,N/C*%
X155620000Y-154780000D03*
%TO.N,+5V*%
X155620000Y-152240000D03*
%TO.N,SPI_SCK*%
X155620000Y-149700000D03*
%TO.N,LATCH_595*%
X155620000Y-147160000D03*
%TO.N,GND*%
X155620000Y-144620000D03*
%TO.N,SPI_MOSI*%
X155620000Y-142080000D03*
%TO.N,FLOPPY_SIDE1*%
X155620000Y-139540000D03*
%TO.N,+5V*%
X155620000Y-137000000D03*
%TD*%
D17*
%TO.N,GND*%
%TO.C,J2*%
X164000000Y-108000000D03*
D18*
%TO.N,FLOPPY_DENSITY*%
X166540000Y-108000000D03*
%TO.N,GND*%
X164000000Y-110540000D03*
%TO.N,N/C*%
X166540000Y-110540000D03*
%TO.N,GND*%
X164000000Y-113080000D03*
%TO.N,N/C*%
X166540000Y-113080000D03*
%TO.N,GND*%
X164000000Y-115620000D03*
%TO.N,N/C*%
X166540000Y-115620000D03*
%TO.N,GND*%
X164000000Y-118160000D03*
%TO.N,FLOPPY_MOTEA*%
X166540000Y-118160000D03*
%TO.N,GND*%
X164000000Y-120700000D03*
%TO.N,FLOPPY_DRVSEL*%
X166540000Y-120700000D03*
%TO.N,GND*%
X164000000Y-123240000D03*
%TO.N,N/C*%
X166540000Y-123240000D03*
%TO.N,GND*%
X164000000Y-125780000D03*
%TO.N,FLOPPY_MOTOR*%
X166540000Y-125780000D03*
%TO.N,GND*%
X164000000Y-128320000D03*
%TO.N,FLOPPY_DIR*%
X166540000Y-128320000D03*
%TO.N,GND*%
X164000000Y-130860000D03*
%TO.N,FLOPPY_STEP*%
X166540000Y-130860000D03*
%TO.N,GND*%
X164000000Y-133400000D03*
%TO.N,FLOPPY_WDATA*%
X166540000Y-133400000D03*
%TO.N,GND*%
X164000000Y-135940000D03*
%TO.N,FLOPPY_WGATE*%
X166540000Y-135940000D03*
%TO.N,GND*%
X164000000Y-138480000D03*
%TO.N,FLOPPY_TRK00*%
X166540000Y-138480000D03*
%TO.N,GND*%
X164000000Y-141020000D03*
%TO.N,FLOPPY_WPT*%
X166540000Y-141020000D03*
%TO.N,GND*%
X164000000Y-143560000D03*
%TO.N,FLOPPY_RDATA*%
X166540000Y-143560000D03*
%TO.N,GND*%
X164000000Y-146100000D03*
%TO.N,FLOPPY_SIDE1*%
X166540000Y-146100000D03*
%TO.N,GND*%
X164000000Y-148640000D03*
%TO.N,FLOPPY_DSKCHG*%
X166540000Y-148640000D03*
%TD*%
D12*
%TO.N,LED_ANODE*%
%TO.C,R8*%
X120000000Y-157000000D03*
D13*
%TO.N,LED_CATHODE*%
X130160000Y-157000000D03*
%TD*%
D12*
%TO.N,LED_CATHODE*%
%TO.C,D1*%
X112000000Y-157000000D03*
D13*
%TO.N,GND*%
X114540000Y-157000000D03*
%TD*%
D12*
%TO.N,+5V*%
%TO.C,R9*%
X148000000Y-115000000D03*
D13*
%TO.N,FLOPPY_TRK00*%
X158160000Y-115000000D03*
%TD*%
D12*
%TO.N,+5V*%
%TO.C,R10*%
X148000000Y-120000000D03*
D13*
%TO.N,FLOPPY_WPT*%
X158160000Y-120000000D03*
%TD*%
D12*
%TO.N,+5V*%
%TO.C,R11*%
X148000000Y-125000000D03*
D13*
%TO.N,FLOPPY_RDATA*%
X158160000Y-125000000D03*
%TD*%
D12*
%TO.N,+5V*%
%TO.C,R12*%
X148000000Y-130000000D03*
D13*
%TO.N,FLOPPY_DSKCHG*%
X158160000Y-130000000D03*
%TD*%
D12*
%TO.N,+5V*%
%TO.C,C1*%
X135000000Y-150000000D03*
D13*
%TO.N,GND*%
X140000000Y-150000000D03*
%TD*%
D12*
%TO.N,+5V*%
%TO.C,C2*%
X133000000Y-157000000D03*
D13*
%TO.N,GND*%
X138000000Y-157000000D03*
%TD*%
D12*
%TO.N,+5V*%
%TO.C,C3*%
X148000000Y-157000000D03*
D13*
%TO.N,GND*%
X153000000Y-157000000D03*
%TD*%
D19*
%TO.N,N/C*%
%TO.C,H1*%
X103000000Y-103000000D03*
%TD*%
%TO.N,N/C*%
%TO.C,H2*%
X167000000Y-103000000D03*
%TD*%
%TO.N,N/C*%
%TO.C,H3*%
X103000000Y-157000000D03*
%TD*%
%TO.N,N/C*%
%TO.C,H4*%
X167000000Y-157000000D03*
%TD*%
D20*
%TO.N,LATCH_595*%
X139620000Y-144867400D03*
%TO.N,NANO_D3*%
X115942500Y-121399500D03*
%TO.N,FLOPPY_TRK00*%
X157110400Y-138268400D03*
%TO.N,FLOPPY_DENSITY*%
X148162500Y-109932700D03*
%TO.N,FLOPPY_MOTEA*%
X154012500Y-122428300D03*
%TO.N,FLOPPY_DRVSEL*%
X154166800Y-124420600D03*
%TO.N,FLOPPY_MOTOR*%
X153348900Y-127008300D03*
%TO.N,FLOPPY_DIR*%
X151836100Y-129792300D03*
%TO.N,FLOPPY_STEP*%
X154228200Y-133082000D03*
%TO.N,FLOPPY_WGATE*%
X165712500Y-150494900D03*
%TD*%
D21*
%TO.N,SPI_MOSI*%
X133823300Y-151571800D02*
X133823300Y-147005600D01*
X131901800Y-153493300D02*
X133823300Y-151571800D01*
X131620000Y-154620000D02*
X131620000Y-153493300D01*
X135000000Y-145020000D02*
X135000000Y-146196700D01*
X133823300Y-147005600D02*
X134632200Y-146196700D01*
X134632200Y-146196700D02*
X135000000Y-146196700D01*
X131620000Y-153493300D02*
X131901800Y-153493300D01*
%TO.N,LATCH_595*%
X136176700Y-135197500D02*
X137109200Y-136130000D01*
X139620000Y-137737400D02*
X139620000Y-144867400D01*
X136176700Y-134305600D02*
X136176700Y-135197500D01*
X138012600Y-136130000D02*
X139620000Y-137737400D01*
X135000000Y-133496700D02*
X135367800Y-133496700D01*
X137109200Y-136130000D02*
X138012600Y-136130000D01*
X135367800Y-133496700D02*
X136176700Y-134305600D01*
X135000000Y-132320000D02*
X135000000Y-133496700D01*
%TO.N,IEC_ATN*%
X107000000Y-150000000D02*
X107000000Y-148773300D01*
X108000000Y-111126700D02*
X106873300Y-112253400D01*
X106873300Y-112253400D02*
X106873300Y-148646600D01*
X106873300Y-148646600D02*
X107000000Y-148773300D01*
X108000000Y-110000000D02*
X108000000Y-111126700D01*
%TO.N,IEC_CLK*%
X112000000Y-146000000D02*
X112000000Y-120126700D01*
X112000000Y-120126700D02*
X108000000Y-116126700D01*
X108000000Y-115000000D02*
X108000000Y-116126700D01*
%TO.N,IEC_DATA*%
X108000000Y-120000000D02*
X108000000Y-121126700D01*
X109892700Y-123019400D02*
X109892700Y-145637800D01*
X109892700Y-145637800D02*
X114254900Y-150000000D01*
X108000000Y-121126700D02*
X109892700Y-123019400D01*
X114254900Y-150000000D02*
X117000000Y-150000000D01*
%TO.N,IEC_RESET*%
X108000000Y-125000000D02*
X108000000Y-126126700D01*
X109126700Y-127253400D02*
X109126700Y-145900000D01*
X112000000Y-150000000D02*
X112000000Y-148773300D01*
X108000000Y-126126700D02*
X109126700Y-127253400D01*
X109126700Y-145900000D02*
X112000000Y-148773300D01*
%TO.N,NANO_D2*%
X119286700Y-127746600D02*
X119286700Y-112253400D01*
X118160000Y-128873300D02*
X119286700Y-127746600D01*
X118160000Y-110000000D02*
X118160000Y-111126700D01*
X119286700Y-112253400D02*
X118160000Y-111126700D01*
X118160000Y-130000000D02*
X118160000Y-128873300D01*
%TO.N,NANO_D3*%
X117033300Y-121399500D02*
X115942500Y-121399500D01*
X118160000Y-135000000D02*
X118160000Y-133873300D01*
X117033300Y-121399500D02*
X117033300Y-117253400D01*
X118160000Y-133873300D02*
X117033300Y-132746600D01*
X118160000Y-115000000D02*
X118160000Y-116126700D01*
X117033300Y-117253400D02*
X118160000Y-116126700D01*
X117033300Y-132746600D02*
X117033300Y-121399500D01*
%TO.N,FLOPPY_RDATA*%
X158160000Y-126126700D02*
X159286700Y-127253400D01*
X166540000Y-143560000D02*
X166540000Y-142383300D01*
X159286700Y-127253400D02*
X159286700Y-137970900D01*
X159286700Y-137970900D02*
X163699100Y-142383300D01*
X163699100Y-142383300D02*
X166540000Y-142383300D01*
X158160000Y-125000000D02*
X158160000Y-126126700D01*
%TO.N,FLOPPY_TRK00*%
X158160000Y-115000000D02*
X158160000Y-116126700D01*
X157019100Y-117267600D02*
X157019100Y-138177100D01*
X157019100Y-138177100D02*
X157110400Y-138268400D01*
X158160000Y-116126700D02*
X157019100Y-117267600D01*
%TO.N,FLOPPY_WPT*%
X163512500Y-137303300D02*
X162823300Y-137992500D01*
X165853800Y-140295000D02*
X166275400Y-140295000D01*
X162823300Y-137992500D02*
X162823300Y-138967500D01*
X162823300Y-138967500D02*
X163512500Y-139656700D01*
X166275400Y-140295000D02*
X166540000Y-140030400D01*
X158160000Y-121126700D02*
X162431300Y-125398000D01*
X164411400Y-137303300D02*
X163512500Y-137303300D01*
X165206800Y-132853900D02*
X165206800Y-136507900D01*
X165206800Y-136507900D02*
X164411400Y-137303300D01*
X163592900Y-132130000D02*
X164482900Y-132130000D01*
X162431300Y-125398000D02*
X162431300Y-130968400D01*
X164482900Y-132130000D02*
X165206800Y-132853900D01*
X158160000Y-120000000D02*
X158160000Y-121126700D01*
X162431300Y-130968400D02*
X163592900Y-132130000D01*
X165215500Y-139656700D02*
X165853800Y-140295000D01*
X166540000Y-141020000D02*
X166540000Y-140030400D01*
X163512500Y-139656700D02*
X165215500Y-139656700D01*
%TO.N,FLOPPY_DSKCHG*%
X163629300Y-147463300D02*
X158160000Y-141994000D01*
X166540000Y-148640000D02*
X165363300Y-148640000D01*
X164554400Y-147463300D02*
X163629300Y-147463300D01*
X165363300Y-148640000D02*
X165363300Y-148272200D01*
X158160000Y-141994000D02*
X158160000Y-130000000D01*
X165363300Y-148272200D02*
X164554400Y-147463300D01*
%TO.N,FLOPPY_DENSITY*%
X146873300Y-134746600D02*
X148000000Y-135873300D01*
X148000000Y-137000000D02*
X148000000Y-135873300D01*
X148162500Y-109932700D02*
X146873300Y-111221900D01*
X146873300Y-111221900D02*
X146873300Y-134746600D01*
%TO.N,FLOPPY_MOTEA*%
X154012500Y-122428300D02*
X149126700Y-127314100D01*
X149126700Y-127314100D02*
X149126700Y-137990800D01*
X148000000Y-139540000D02*
X148000000Y-138413300D01*
X149126700Y-137990800D02*
X148704200Y-138413300D01*
X148704200Y-138413300D02*
X148000000Y-138413300D01*
%TO.N,FLOPPY_DRVSEL*%
X148281700Y-140953300D02*
X148000000Y-140953300D01*
X148000000Y-142080000D02*
X148000000Y-140953300D01*
X149803700Y-139431300D02*
X148281700Y-140953300D01*
X154166800Y-124420600D02*
X149803700Y-128783700D01*
X149803700Y-128783700D02*
X149803700Y-139431300D01*
%TO.N,FLOPPY_MOTOR*%
X148281700Y-143493300D02*
X151190100Y-140584900D01*
X151190100Y-140584900D02*
X151190100Y-129167100D01*
X148000000Y-144620000D02*
X148000000Y-143493300D01*
X148000000Y-143493300D02*
X148281700Y-143493300D01*
X151190100Y-129167100D02*
X153348900Y-127008300D01*
%TO.N,FLOPPY_DIR*%
X151836100Y-142478900D02*
X148281700Y-146033300D01*
X148000000Y-147160000D02*
X148000000Y-146033300D01*
X151836100Y-129792300D02*
X151836100Y-142478900D01*
X148281700Y-146033300D02*
X148000000Y-146033300D01*
%TO.N,FLOPPY_STEP*%
X148281700Y-148573300D02*
X154228200Y-142626800D01*
X148000000Y-149700000D02*
X148000000Y-148573300D01*
X154228200Y-142626800D02*
X154228200Y-133082000D01*
X148000000Y-148573300D02*
X148281700Y-148573300D01*
%TO.N,FLOPPY_WGATE*%
X166376300Y-150494900D02*
X167716700Y-149154500D01*
X166907800Y-137116700D02*
X166540000Y-137116700D01*
X166540000Y-135940000D02*
X166540000Y-137116700D01*
X165712500Y-150494900D02*
X166376300Y-150494900D01*
X167716700Y-149154500D02*
X167716700Y-137925600D01*
X167716700Y-137925600D02*
X166907800Y-137116700D01*
X166540000Y-135940000D02*
X166540000Y-137116700D01*
%TO.N,LED_ANODE*%
X123641100Y-150810000D02*
X120000000Y-154451100D01*
X120000000Y-154451100D02*
X120000000Y-157000000D01*
X136363300Y-127240000D02*
X136363300Y-127607800D01*
X135554400Y-128416700D02*
X134682200Y-128416700D01*
X134682200Y-128416700D02*
X126537200Y-136561700D01*
X124394200Y-150810000D02*
X123641100Y-150810000D01*
X126537200Y-148667000D02*
X124394200Y-150810000D01*
X137540000Y-127240000D02*
X136363300Y-127240000D01*
X126537200Y-136561700D02*
X126537200Y-148667000D01*
X136363300Y-127607800D02*
X135554400Y-128416700D01*
%TD*%
%TA.AperFunction,Conductor*%
%TO.N,GND*%
G36*
X164470927Y-100306738D02*
G01*
X164493016Y-100308318D01*
X164503799Y-100316390D01*
X164516721Y-100320185D01*
X164531220Y-100336918D01*
X164548949Y-100350190D01*
X164553656Y-100362810D01*
X164562476Y-100372989D01*
X164565627Y-100394906D01*
X164573366Y-100415654D01*
X164570503Y-100428814D01*
X164572420Y-100442147D01*
X164563220Y-100462290D01*
X164558514Y-100483927D01*
X164545245Y-100501652D01*
X164543395Y-100505703D01*
X164537363Y-100512181D01*
X164403176Y-100646367D01*
X164184985Y-100912234D01*
X164184975Y-100912248D01*
X163993904Y-101198206D01*
X163993893Y-101198224D01*
X163831772Y-101501530D01*
X163831770Y-101501535D01*
X163700150Y-101819293D01*
X163600308Y-102148427D01*
X163533210Y-102485750D01*
X163514087Y-102679920D01*
X163499500Y-102828031D01*
X163499500Y-103171969D01*
X163507185Y-103250000D01*
X163533210Y-103514249D01*
X163600308Y-103851572D01*
X163700150Y-104180706D01*
X163773399Y-104357544D01*
X163829958Y-104494091D01*
X163831770Y-104498464D01*
X163831772Y-104498469D01*
X163993893Y-104801775D01*
X163993904Y-104801793D01*
X164184975Y-105087751D01*
X164184985Y-105087765D01*
X164403176Y-105353632D01*
X164646367Y-105596823D01*
X164646372Y-105596827D01*
X164646373Y-105596828D01*
X164912240Y-105815019D01*
X165198213Y-106006100D01*
X165198222Y-106006105D01*
X165198224Y-106006106D01*
X165501530Y-106168227D01*
X165501532Y-106168227D01*
X165501538Y-106168231D01*
X165819295Y-106299850D01*
X166148422Y-106399690D01*
X166293021Y-106428452D01*
X166354931Y-106460837D01*
X166389505Y-106521552D01*
X166385766Y-106591322D01*
X166344900Y-106647994D01*
X166288228Y-106672542D01*
X166223759Y-106682753D01*
X166021585Y-106748444D01*
X165832179Y-106844951D01*
X165660215Y-106969889D01*
X165546285Y-107083819D01*
X165484962Y-107117303D01*
X165415270Y-107112319D01*
X165359337Y-107070447D01*
X165342422Y-107039470D01*
X165293354Y-106907913D01*
X165293350Y-106907906D01*
X165207190Y-106792812D01*
X165207187Y-106792809D01*
X165092093Y-106706649D01*
X165092086Y-106706645D01*
X164957379Y-106656403D01*
X164957372Y-106656401D01*
X164897844Y-106650000D01*
X164250000Y-106650000D01*
X164250000Y-107566988D01*
X164192993Y-107534075D01*
X164065826Y-107500000D01*
X163934174Y-107500000D01*
X163807007Y-107534075D01*
X163750000Y-107566988D01*
X163750000Y-106650000D01*
X163102155Y-106650000D01*
X163042627Y-106656401D01*
X163042620Y-106656403D01*
X162907913Y-106706645D01*
X162907906Y-106706649D01*
X162792812Y-106792809D01*
X162792809Y-106792812D01*
X162706649Y-106907906D01*
X162706645Y-106907913D01*
X162656403Y-107042620D01*
X162656401Y-107042627D01*
X162650000Y-107102155D01*
X162650000Y-107750000D01*
X163566988Y-107750000D01*
X163534075Y-107807007D01*
X163500000Y-107934174D01*
X163500000Y-108065826D01*
X163534075Y-108192993D01*
X163566988Y-108250000D01*
X162650000Y-108250000D01*
X162650000Y-108897844D01*
X162656401Y-108957372D01*
X162656403Y-108957379D01*
X162706645Y-109092086D01*
X162706649Y-109092093D01*
X162792809Y-109207187D01*
X162792812Y-109207190D01*
X162907906Y-109293350D01*
X162907913Y-109293354D01*
X163039986Y-109342614D01*
X163095920Y-109384485D01*
X163120337Y-109449949D01*
X163105486Y-109518222D01*
X163084335Y-109546477D01*
X162970271Y-109660541D01*
X162845379Y-109832442D01*
X162748904Y-110021782D01*
X162683242Y-110223870D01*
X162683242Y-110223873D01*
X162672769Y-110290000D01*
X163566988Y-110290000D01*
X163534075Y-110347007D01*
X163500000Y-110474174D01*
X163500000Y-110605826D01*
X163534075Y-110732993D01*
X163566988Y-110790000D01*
X162672769Y-110790000D01*
X162683242Y-110856126D01*
X162683242Y-110856129D01*
X162748904Y-111058217D01*
X162845379Y-111247557D01*
X162970272Y-111419459D01*
X162970276Y-111419464D01*
X163120535Y-111569723D01*
X163120540Y-111569727D01*
X163292444Y-111694622D01*
X163302048Y-111699516D01*
X163352844Y-111747491D01*
X163369638Y-111815312D01*
X163347100Y-111881447D01*
X163302048Y-111920484D01*
X163292444Y-111925377D01*
X163120540Y-112050272D01*
X163120535Y-112050276D01*
X162970276Y-112200535D01*
X162970272Y-112200540D01*
X162845379Y-112372442D01*
X162748904Y-112561782D01*
X162683242Y-112763870D01*
X162683242Y-112763873D01*
X162672769Y-112830000D01*
X163566988Y-112830000D01*
X163534075Y-112887007D01*
X163500000Y-113014174D01*
X163500000Y-113145826D01*
X163534075Y-113272993D01*
X163566988Y-113330000D01*
X162672769Y-113330000D01*
X162683242Y-113396126D01*
X162683242Y-113396129D01*
X162748904Y-113598217D01*
X162845379Y-113787557D01*
X162970272Y-113959459D01*
X162970276Y-113959464D01*
X163120535Y-114109723D01*
X163120540Y-114109727D01*
X163292444Y-114234622D01*
X163302048Y-114239516D01*
X163352844Y-114287491D01*
X163369638Y-114355312D01*
X163347100Y-114421447D01*
X163302048Y-114460484D01*
X163292444Y-114465377D01*
X163120540Y-114590272D01*
X163120535Y-114590276D01*
X162970276Y-114740535D01*
X162970272Y-114740540D01*
X162845379Y-114912442D01*
X162748904Y-115101782D01*
X162683242Y-115303870D01*
X162683242Y-115303873D01*
X162672769Y-115370000D01*
X163566988Y-115370000D01*
X163534075Y-115427007D01*
X163500000Y-115554174D01*
X163500000Y-115685826D01*
X163534075Y-115812993D01*
X163566988Y-115870000D01*
X162672769Y-115870000D01*
X162683242Y-115936126D01*
X162683242Y-115936129D01*
X162748904Y-116138217D01*
X162845379Y-116327557D01*
X162970272Y-116499459D01*
X162970276Y-116499464D01*
X163120535Y-116649723D01*
X163120540Y-116649727D01*
X163292444Y-116774622D01*
X163302048Y-116779516D01*
X163352844Y-116827491D01*
X163369638Y-116895312D01*
X163347100Y-116961447D01*
X163302048Y-117000484D01*
X163292444Y-117005377D01*
X163120540Y-117130272D01*
X163120535Y-117130276D01*
X162970276Y-117280535D01*
X162970272Y-117280540D01*
X162845379Y-117452442D01*
X162748904Y-117641782D01*
X162683242Y-117843870D01*
X162683242Y-117843873D01*
X162672769Y-117910000D01*
X163566988Y-117910000D01*
X163534075Y-117967007D01*
X163500000Y-118094174D01*
X163500000Y-118225826D01*
X163534075Y-118352993D01*
X163566988Y-118410000D01*
X162672769Y-118410000D01*
X162683242Y-118476126D01*
X162683242Y-118476129D01*
X162748904Y-118678217D01*
X162845379Y-118867557D01*
X162970272Y-119039459D01*
X162970276Y-119039464D01*
X163120535Y-119189723D01*
X163120540Y-119189727D01*
X163292444Y-119314622D01*
X163302048Y-119319516D01*
X163352844Y-119367491D01*
X163369638Y-119435312D01*
X163347100Y-119501447D01*
X163302048Y-119540484D01*
X163292444Y-119545377D01*
X163120540Y-119670272D01*
X163120535Y-119670276D01*
X162970276Y-119820535D01*
X162970272Y-119820540D01*
X162845379Y-119992442D01*
X162748904Y-120181782D01*
X162683242Y-120383870D01*
X162683242Y-120383873D01*
X162672769Y-120450000D01*
X163566988Y-120450000D01*
X163534075Y-120507007D01*
X163500000Y-120634174D01*
X163500000Y-120765826D01*
X163534075Y-120892993D01*
X163566988Y-120950000D01*
X162672769Y-120950000D01*
X162683242Y-121016126D01*
X162683242Y-121016129D01*
X162748904Y-121218217D01*
X162845379Y-121407557D01*
X162970272Y-121579459D01*
X162970276Y-121579464D01*
X163120535Y-121729723D01*
X163120540Y-121729727D01*
X163292444Y-121854622D01*
X163302048Y-121859516D01*
X163352844Y-121907491D01*
X163369638Y-121975312D01*
X163347100Y-122041447D01*
X163302048Y-122080484D01*
X163292444Y-122085377D01*
X163120540Y-122210272D01*
X163120535Y-122210276D01*
X162970276Y-122360535D01*
X162970272Y-122360540D01*
X162845379Y-122532442D01*
X162748904Y-122721782D01*
X162683242Y-122923870D01*
X162683242Y-122923873D01*
X162672769Y-122990000D01*
X163566988Y-122990000D01*
X163534075Y-123047007D01*
X163500000Y-123174174D01*
X163500000Y-123305826D01*
X163534075Y-123432993D01*
X163566988Y-123490000D01*
X162672769Y-123490000D01*
X162683242Y-123556126D01*
X162683242Y-123556129D01*
X162748904Y-123758217D01*
X162845379Y-123947557D01*
X162970272Y-124119459D01*
X162970276Y-124119464D01*
X163120535Y-124269723D01*
X163120540Y-124269727D01*
X163292444Y-124394622D01*
X163302048Y-124399516D01*
X163352844Y-124447491D01*
X163369638Y-124515312D01*
X163347100Y-124581447D01*
X163302048Y-124620484D01*
X163292444Y-124625377D01*
X163120541Y-124750271D01*
X162982032Y-124888780D01*
X162920709Y-124922264D01*
X162851017Y-124917280D01*
X162806670Y-124888779D01*
X160957677Y-123039786D01*
X159046217Y-121128327D01*
X159042369Y-121121280D01*
X159035862Y-121116573D01*
X159025864Y-121091053D01*
X159012733Y-121067005D01*
X159013305Y-121058996D01*
X159010376Y-121051518D01*
X159015762Y-121024646D01*
X159017717Y-120997313D01*
X159022881Y-120989130D01*
X159024108Y-120983011D01*
X159042630Y-120957839D01*
X159044793Y-120954414D01*
X159045453Y-120953731D01*
X159151966Y-120847219D01*
X159272287Y-120681610D01*
X159365220Y-120499219D01*
X159428477Y-120304534D01*
X159460500Y-120102352D01*
X159460500Y-119897648D01*
X159433359Y-119726287D01*
X159428477Y-119695465D01*
X159379710Y-119545377D01*
X159365220Y-119500781D01*
X159365218Y-119500778D01*
X159365218Y-119500776D01*
X159319758Y-119411557D01*
X159272287Y-119318390D01*
X159261656Y-119303757D01*
X159151971Y-119152786D01*
X159007213Y-119008028D01*
X158841613Y-118887715D01*
X158841612Y-118887714D01*
X158841610Y-118887713D01*
X158784284Y-118858504D01*
X158659223Y-118794781D01*
X158464534Y-118731522D01*
X158289995Y-118703878D01*
X158262352Y-118699500D01*
X158057648Y-118699500D01*
X157990254Y-118710174D01*
X157855464Y-118731523D01*
X157855457Y-118731524D01*
X157806917Y-118747296D01*
X157737076Y-118749291D01*
X157677243Y-118713210D01*
X157646416Y-118650509D01*
X157644600Y-118629365D01*
X157644600Y-117578051D01*
X157664285Y-117511012D01*
X157680915Y-117490374D01*
X158558729Y-116612560D01*
X158558733Y-116612558D01*
X158645858Y-116525433D01*
X158714311Y-116422986D01*
X158761463Y-116309152D01*
X158784350Y-116194085D01*
X158816734Y-116132177D01*
X158837769Y-116115289D01*
X158837668Y-116115150D01*
X158840574Y-116113038D01*
X158841199Y-116112537D01*
X158841587Y-116112298D01*
X158841610Y-116112287D01*
X159007219Y-115991966D01*
X159151966Y-115847219D01*
X159175353Y-115815029D01*
X159215295Y-115760054D01*
X159215297Y-115760051D01*
X159237493Y-115729500D01*
X159272287Y-115681610D01*
X159365220Y-115499219D01*
X159428477Y-115304534D01*
X159460500Y-115102352D01*
X159460500Y-114897648D01*
X159428477Y-114695466D01*
X159412497Y-114646286D01*
X159365218Y-114500776D01*
X159321003Y-114414000D01*
X159272287Y-114318390D01*
X159243346Y-114278556D01*
X159151971Y-114152786D01*
X159007213Y-114008028D01*
X158841613Y-113887715D01*
X158841612Y-113887714D01*
X158841610Y-113887713D01*
X158784653Y-113858691D01*
X158659223Y-113794781D01*
X158464534Y-113731522D01*
X158289995Y-113703878D01*
X158262352Y-113699500D01*
X158057648Y-113699500D01*
X158033329Y-113703351D01*
X157855465Y-113731522D01*
X157660776Y-113794781D01*
X157478386Y-113887715D01*
X157312786Y-114008028D01*
X157168028Y-114152786D01*
X157047715Y-114318386D01*
X156954781Y-114500776D01*
X156891522Y-114695465D01*
X156859500Y-114897648D01*
X156859500Y-115102351D01*
X156891522Y-115304534D01*
X156954781Y-115499223D01*
X156990900Y-115570109D01*
X157047712Y-115681609D01*
X157047715Y-115681613D01*
X157168027Y-115847211D01*
X157168031Y-115847215D01*
X157168034Y-115847219D01*
X157228297Y-115907482D01*
X157273781Y-115952966D01*
X157307265Y-116014289D01*
X157302281Y-116083981D01*
X157273780Y-116128328D01*
X156902650Y-116499459D01*
X156620370Y-116781739D01*
X156620367Y-116781742D01*
X156592657Y-116809452D01*
X156533242Y-116868866D01*
X156506798Y-116908443D01*
X156506797Y-116908442D01*
X156464786Y-116971316D01*
X156464785Y-116971318D01*
X156431446Y-117051808D01*
X156423519Y-117070949D01*
X156417638Y-117085146D01*
X156417635Y-117085156D01*
X156399060Y-117178542D01*
X156399060Y-117178543D01*
X156393600Y-117205991D01*
X156393600Y-135732234D01*
X156373915Y-135799273D01*
X156321111Y-135845028D01*
X156251953Y-135854972D01*
X156213305Y-135842719D01*
X156119223Y-135794781D01*
X155924534Y-135731522D01*
X155749995Y-135703878D01*
X155722352Y-135699500D01*
X155517648Y-135699500D01*
X155493329Y-135703351D01*
X155315465Y-135731522D01*
X155120773Y-135794782D01*
X155033994Y-135838999D01*
X154965325Y-135851895D01*
X154900585Y-135825618D01*
X154860328Y-135768512D01*
X154853700Y-135728514D01*
X154853700Y-133624350D01*
X154873385Y-133557311D01*
X154874598Y-133555459D01*
X154890832Y-133531163D01*
X154937594Y-133461179D01*
X154997937Y-133315497D01*
X155028700Y-133160842D01*
X155028700Y-133003158D01*
X155028700Y-133003155D01*
X155028699Y-133003153D01*
X155020591Y-132962392D01*
X154997937Y-132848503D01*
X154964056Y-132766706D01*
X154937597Y-132702827D01*
X154937590Y-132702814D01*
X154849989Y-132571711D01*
X154849986Y-132571707D01*
X154738492Y-132460213D01*
X154738488Y-132460210D01*
X154607385Y-132372609D01*
X154607372Y-132372602D01*
X154461701Y-132312264D01*
X154461689Y-132312261D01*
X154307045Y-132281500D01*
X154307042Y-132281500D01*
X154149358Y-132281500D01*
X154149355Y-132281500D01*
X153994710Y-132312261D01*
X153994698Y-132312264D01*
X153849027Y-132372602D01*
X153849014Y-132372609D01*
X153717911Y-132460210D01*
X153717907Y-132460213D01*
X153606413Y-132571707D01*
X153606410Y-132571711D01*
X153518809Y-132702814D01*
X153518802Y-132702827D01*
X153458464Y-132848498D01*
X153458461Y-132848510D01*
X153427700Y-133003153D01*
X153427700Y-133160846D01*
X153458461Y-133315489D01*
X153458464Y-133315501D01*
X153518802Y-133461172D01*
X153518809Y-133461184D01*
X153581802Y-133555459D01*
X153602680Y-133622136D01*
X153602700Y-133624350D01*
X153602700Y-142316347D01*
X153583015Y-142383386D01*
X153566381Y-142404028D01*
X149361144Y-146609264D01*
X149299821Y-146642749D01*
X149230129Y-146637765D01*
X149174196Y-146595893D01*
X149162978Y-146577877D01*
X149142457Y-146537603D01*
X149112287Y-146478390D01*
X149112284Y-146478386D01*
X149009964Y-146337553D01*
X148986484Y-146271747D01*
X149002310Y-146203693D01*
X149022597Y-146176991D01*
X152321958Y-142877633D01*
X152390412Y-142775185D01*
X152426357Y-142688406D01*
X152437563Y-142661352D01*
X152445888Y-142619500D01*
X152461601Y-142540506D01*
X152461601Y-142417293D01*
X152461600Y-142417287D01*
X152461600Y-130334650D01*
X152481285Y-130267611D01*
X152482498Y-130265759D01*
X152518223Y-130212293D01*
X152545494Y-130171479D01*
X152549630Y-130161495D01*
X152574127Y-130102352D01*
X152605837Y-130025797D01*
X152636600Y-129871142D01*
X152636600Y-129713458D01*
X152636600Y-129713455D01*
X152636599Y-129713453D01*
X152613099Y-129595312D01*
X152605837Y-129558803D01*
X152581802Y-129500776D01*
X152545497Y-129413127D01*
X152545490Y-129413114D01*
X152457889Y-129282011D01*
X152457886Y-129282007D01*
X152346392Y-129170513D01*
X152346386Y-129170508D01*
X152307101Y-129144258D01*
X152262296Y-129090645D01*
X152253590Y-129021320D01*
X152283746Y-128958293D01*
X152288293Y-128953495D01*
X153407697Y-127834091D01*
X153469018Y-127800608D01*
X153471028Y-127800189D01*
X153582397Y-127778037D01*
X153728079Y-127717694D01*
X153859189Y-127630089D01*
X153970689Y-127518589D01*
X154058294Y-127387479D01*
X154118637Y-127241797D01*
X154149400Y-127087142D01*
X154149400Y-126929458D01*
X154149400Y-126929457D01*
X154149400Y-126929455D01*
X154149399Y-126929453D01*
X154129267Y-126828243D01*
X154118637Y-126774803D01*
X154115630Y-126767543D01*
X154058297Y-126629127D01*
X154058290Y-126629114D01*
X153970689Y-126498011D01*
X153970686Y-126498007D01*
X153859192Y-126386513D01*
X153859188Y-126386510D01*
X153728085Y-126298909D01*
X153728072Y-126298902D01*
X153582401Y-126238564D01*
X153582392Y-126238561D01*
X153518852Y-126225922D01*
X153456942Y-126193536D01*
X153422368Y-126132820D01*
X153426109Y-126063050D01*
X153455362Y-126016626D01*
X154225597Y-125246391D01*
X154286918Y-125212908D01*
X154288928Y-125212489D01*
X154400297Y-125190337D01*
X154545979Y-125129994D01*
X154677089Y-125042389D01*
X154788589Y-124930889D01*
X154876194Y-124799779D01*
X154936537Y-124654097D01*
X154967300Y-124499442D01*
X154967300Y-124341758D01*
X154967300Y-124341755D01*
X154967299Y-124341753D01*
X154952971Y-124269723D01*
X154936537Y-124187103D01*
X154934251Y-124181585D01*
X154876197Y-124041427D01*
X154876190Y-124041414D01*
X154788589Y-123910311D01*
X154788586Y-123910307D01*
X154677092Y-123798813D01*
X154677088Y-123798810D01*
X154545985Y-123711209D01*
X154545972Y-123711202D01*
X154400301Y-123650864D01*
X154400289Y-123650861D01*
X154245645Y-123620100D01*
X154245642Y-123620100D01*
X154087958Y-123620100D01*
X154087953Y-123620100D01*
X154011190Y-123635369D01*
X153977457Y-123632350D01*
X153943665Y-123629934D01*
X153942744Y-123629244D01*
X153941598Y-123629142D01*
X153914845Y-123608359D01*
X153887732Y-123588062D01*
X153887329Y-123586984D01*
X153886421Y-123586278D01*
X153875154Y-123554339D01*
X153863315Y-123522598D01*
X153863559Y-123521472D01*
X153863177Y-123520388D01*
X153870967Y-123487421D01*
X153878167Y-123454325D01*
X153879074Y-123453112D01*
X153879245Y-123452392D01*
X153899314Y-123426075D01*
X154071298Y-123254091D01*
X154132619Y-123220608D01*
X154134614Y-123220192D01*
X154245997Y-123198037D01*
X154391679Y-123137694D01*
X154522789Y-123050089D01*
X154634289Y-122938589D01*
X154721894Y-122807479D01*
X154782237Y-122661797D01*
X154813000Y-122507142D01*
X154813000Y-122349458D01*
X154813000Y-122349455D01*
X154812999Y-122349453D01*
X154782237Y-122194803D01*
X154771647Y-122169236D01*
X154721897Y-122049127D01*
X154721890Y-122049114D01*
X154634289Y-121918011D01*
X154634286Y-121918007D01*
X154522792Y-121806513D01*
X154522788Y-121806510D01*
X154391685Y-121718909D01*
X154391672Y-121718902D01*
X154246001Y-121658564D01*
X154245989Y-121658561D01*
X154091345Y-121627800D01*
X154091342Y-121627800D01*
X153933658Y-121627800D01*
X153933655Y-121627800D01*
X153779010Y-121658561D01*
X153778998Y-121658564D01*
X153633327Y-121718902D01*
X153633314Y-121718909D01*
X153502211Y-121806510D01*
X153502207Y-121806513D01*
X153390713Y-121918007D01*
X153390710Y-121918011D01*
X153303109Y-122049114D01*
X153303102Y-122049127D01*
X153242764Y-122194798D01*
X153242761Y-122194808D01*
X153220641Y-122306013D01*
X153188256Y-122367924D01*
X153186705Y-122369502D01*
X149486201Y-126070007D01*
X149424878Y-126103492D01*
X149355186Y-126098508D01*
X149299253Y-126056636D01*
X149274836Y-125991172D01*
X149282339Y-125938991D01*
X149294091Y-125907483D01*
X149296370Y-125886286D01*
X149300500Y-125847873D01*
X149300499Y-124152128D01*
X149294091Y-124092517D01*
X149275033Y-124041421D01*
X149243797Y-123957671D01*
X149243793Y-123957664D01*
X149157547Y-123842455D01*
X149157544Y-123842452D01*
X149042335Y-123756206D01*
X149042328Y-123756202D01*
X148907482Y-123705908D01*
X148907483Y-123705908D01*
X148847883Y-123699501D01*
X148847881Y-123699500D01*
X148847873Y-123699500D01*
X148847865Y-123699500D01*
X147622800Y-123699500D01*
X147555761Y-123679815D01*
X147510006Y-123627011D01*
X147498800Y-123575500D01*
X147498800Y-121424499D01*
X147518485Y-121357460D01*
X147571289Y-121311705D01*
X147622800Y-121300499D01*
X148847871Y-121300499D01*
X148847872Y-121300499D01*
X148907483Y-121294091D01*
X149042331Y-121243796D01*
X149157546Y-121157546D01*
X149243796Y-121042331D01*
X149294091Y-120907483D01*
X149300500Y-120847873D01*
X149300499Y-119152128D01*
X149294091Y-119092517D01*
X149249250Y-118972293D01*
X149243797Y-118957671D01*
X149243793Y-118957664D01*
X149157547Y-118842455D01*
X149157544Y-118842452D01*
X149042335Y-118756206D01*
X149042328Y-118756202D01*
X148907482Y-118705908D01*
X148907483Y-118705908D01*
X148847883Y-118699501D01*
X148847881Y-118699500D01*
X148847873Y-118699500D01*
X148847865Y-118699500D01*
X147622800Y-118699500D01*
X147555761Y-118679815D01*
X147510006Y-118627011D01*
X147498800Y-118575500D01*
X147498800Y-116424499D01*
X147518485Y-116357460D01*
X147571289Y-116311705D01*
X147622800Y-116300499D01*
X148847871Y-116300499D01*
X148847872Y-116300499D01*
X148907483Y-116294091D01*
X149042331Y-116243796D01*
X149157546Y-116157546D01*
X149243796Y-116042331D01*
X149294091Y-115907483D01*
X149300500Y-115847873D01*
X149300499Y-114152128D01*
X149294091Y-114092517D01*
X149274503Y-114040000D01*
X149243797Y-113957671D01*
X149243793Y-113957664D01*
X149157547Y-113842455D01*
X149157544Y-113842452D01*
X149042335Y-113756206D01*
X149042328Y-113756202D01*
X148907482Y-113705908D01*
X148907483Y-113705908D01*
X148847883Y-113699501D01*
X148847881Y-113699500D01*
X148847873Y-113699500D01*
X148847865Y-113699500D01*
X147622800Y-113699500D01*
X147555761Y-113679815D01*
X147510006Y-113627011D01*
X147498800Y-113575500D01*
X147498800Y-111532351D01*
X147518485Y-111465312D01*
X147535115Y-111444674D01*
X148221297Y-110758491D01*
X148282618Y-110725008D01*
X148284628Y-110724589D01*
X148395997Y-110702437D01*
X148541679Y-110642094D01*
X148672789Y-110554489D01*
X148784289Y-110442989D01*
X148871894Y-110311879D01*
X148932237Y-110166197D01*
X148963000Y-110011542D01*
X148963000Y-109853858D01*
X148963000Y-109853855D01*
X148962999Y-109853853D01*
X148932238Y-109699210D01*
X148932238Y-109699208D01*
X148932237Y-109699203D01*
X148916223Y-109660541D01*
X148871897Y-109553527D01*
X148871890Y-109553514D01*
X148784289Y-109422411D01*
X148784286Y-109422407D01*
X148672792Y-109310913D01*
X148672788Y-109310910D01*
X148541685Y-109223309D01*
X148541672Y-109223302D01*
X148396001Y-109162964D01*
X148395989Y-109162961D01*
X148241345Y-109132200D01*
X148241342Y-109132200D01*
X148083658Y-109132200D01*
X148083655Y-109132200D01*
X147929010Y-109162961D01*
X147928998Y-109162964D01*
X147783327Y-109223302D01*
X147783314Y-109223309D01*
X147652211Y-109310910D01*
X147652207Y-109310913D01*
X147540713Y-109422407D01*
X147540710Y-109422411D01*
X147453109Y-109553514D01*
X147453102Y-109553527D01*
X147392764Y-109699198D01*
X147392761Y-109699208D01*
X147370641Y-109810414D01*
X147338256Y-109872325D01*
X147336705Y-109873903D01*
X146898737Y-110311872D01*
X146474570Y-110736039D01*
X146474567Y-110736042D01*
X146452116Y-110758493D01*
X146387442Y-110823166D01*
X146358892Y-110865895D01*
X146358891Y-110865896D01*
X146318990Y-110925609D01*
X146318985Y-110925618D01*
X146271840Y-111039438D01*
X146271837Y-111039446D01*
X146263089Y-111083431D01*
X146248846Y-111155040D01*
X146248351Y-111157528D01*
X146248347Y-111157544D01*
X146247800Y-111160289D01*
X146247800Y-111160294D01*
X146247800Y-134808206D01*
X146271837Y-134929052D01*
X146271838Y-134929055D01*
X146271839Y-134929059D01*
X146275183Y-134937131D01*
X146275189Y-134937144D01*
X146276165Y-134939500D01*
X146318988Y-135042886D01*
X146330563Y-135060208D01*
X146335918Y-135068223D01*
X146335920Y-135068226D01*
X146387440Y-135145331D01*
X146387441Y-135145332D01*
X146387442Y-135145333D01*
X146474567Y-135232458D01*
X146474568Y-135232458D01*
X146481635Y-135239525D01*
X146481634Y-135239525D01*
X146481638Y-135239528D01*
X146879724Y-135637614D01*
X146913209Y-135698937D01*
X146908225Y-135768629D01*
X146866356Y-135824560D01*
X146842454Y-135842453D01*
X146842452Y-135842455D01*
X146756206Y-135957664D01*
X146756202Y-135957671D01*
X146705908Y-136092517D01*
X146699501Y-136152116D01*
X146699500Y-136152135D01*
X146699500Y-137847870D01*
X146699501Y-137847872D01*
X146705908Y-137907483D01*
X146756202Y-138042328D01*
X146756206Y-138042335D01*
X146842452Y-138157544D01*
X146842455Y-138157547D01*
X146957664Y-138243793D01*
X146957671Y-138243797D01*
X147002618Y-138260561D01*
X147092517Y-138294091D01*
X147129441Y-138298060D01*
X147193989Y-138324796D01*
X147233838Y-138382188D01*
X147236333Y-138452013D01*
X147200681Y-138512102D01*
X147189071Y-138521666D01*
X147152784Y-138548030D01*
X147008028Y-138692786D01*
X146887715Y-138858386D01*
X146794781Y-139040776D01*
X146731522Y-139235465D01*
X146699500Y-139437648D01*
X146699500Y-139642351D01*
X146731522Y-139844534D01*
X146794781Y-140039223D01*
X146887715Y-140221613D01*
X147008028Y-140387213D01*
X147152786Y-140531971D01*
X147318385Y-140652284D01*
X147318387Y-140652285D01*
X147318390Y-140652287D01*
X147328939Y-140657662D01*
X147348617Y-140676246D01*
X147370570Y-140692077D01*
X147373639Y-140699878D01*
X147379735Y-140705635D01*
X147386242Y-140731910D01*
X147396151Y-140757095D01*
X147395497Y-140769282D01*
X147396531Y-140773455D01*
X147394262Y-140792338D01*
X147375649Y-140885911D01*
X147343264Y-140947822D01*
X147322231Y-140964711D01*
X147322331Y-140964849D01*
X147319481Y-140966919D01*
X147318833Y-140967440D01*
X147318396Y-140967707D01*
X147152786Y-141088028D01*
X147008028Y-141232786D01*
X146887715Y-141398386D01*
X146794781Y-141580776D01*
X146731522Y-141775465D01*
X146699500Y-141977648D01*
X146699500Y-142182351D01*
X146731522Y-142384534D01*
X146794781Y-142579223D01*
X146887715Y-142761613D01*
X147008028Y-142927213D01*
X147152786Y-143071971D01*
X147318385Y-143192284D01*
X147318387Y-143192285D01*
X147318390Y-143192287D01*
X147328939Y-143197662D01*
X147348617Y-143216246D01*
X147370570Y-143232077D01*
X147373639Y-143239878D01*
X147379735Y-143245635D01*
X147386242Y-143271910D01*
X147396151Y-143297095D01*
X147395497Y-143309282D01*
X147396531Y-143313455D01*
X147394262Y-143332338D01*
X147375649Y-143425911D01*
X147343264Y-143487822D01*
X147322231Y-143504711D01*
X147322331Y-143504849D01*
X147319481Y-143506919D01*
X147318833Y-143507440D01*
X147318396Y-143507707D01*
X147152786Y-143628028D01*
X147008028Y-143772786D01*
X146887715Y-143938386D01*
X146794781Y-144120776D01*
X146731522Y-144315465D01*
X146699500Y-144517648D01*
X146699500Y-144722351D01*
X146731522Y-144924534D01*
X146794781Y-145119223D01*
X146887715Y-145301613D01*
X147008028Y-145467213D01*
X147152786Y-145611971D01*
X147318385Y-145732284D01*
X147318387Y-145732285D01*
X147318390Y-145732287D01*
X147328939Y-145737662D01*
X147348617Y-145756246D01*
X147370570Y-145772077D01*
X147373639Y-145779878D01*
X147379735Y-145785635D01*
X147386242Y-145811910D01*
X147396151Y-145837095D01*
X147395497Y-145849282D01*
X147396531Y-145853455D01*
X147394262Y-145872338D01*
X147375649Y-145965911D01*
X147343264Y-146027822D01*
X147322231Y-146044711D01*
X147322331Y-146044849D01*
X147319481Y-146046919D01*
X147318833Y-146047440D01*
X147318396Y-146047707D01*
X147152786Y-146168028D01*
X147008028Y-146312786D01*
X146887715Y-146478386D01*
X146794781Y-146660776D01*
X146731522Y-146855465D01*
X146699500Y-147057648D01*
X146699500Y-147262351D01*
X146731522Y-147464534D01*
X146794781Y-147659223D01*
X146853851Y-147775153D01*
X146868908Y-147804704D01*
X146887715Y-147841613D01*
X147008028Y-148007213D01*
X147152786Y-148151971D01*
X147318385Y-148272284D01*
X147318387Y-148272285D01*
X147318390Y-148272287D01*
X147328939Y-148277662D01*
X147348617Y-148296246D01*
X147370570Y-148312077D01*
X147373639Y-148319878D01*
X147379735Y-148325635D01*
X147386242Y-148351910D01*
X147396151Y-148377095D01*
X147395497Y-148389282D01*
X147396531Y-148393455D01*
X147394262Y-148412338D01*
X147375649Y-148505911D01*
X147343264Y-148567822D01*
X147322231Y-148584711D01*
X147322331Y-148584849D01*
X147319481Y-148586919D01*
X147318833Y-148587440D01*
X147318396Y-148587707D01*
X147152786Y-148708028D01*
X147008028Y-148852786D01*
X146887715Y-149018386D01*
X146794781Y-149200776D01*
X146731522Y-149395465D01*
X146699500Y-149597648D01*
X146699500Y-149802351D01*
X146731522Y-150004534D01*
X146794781Y-150199223D01*
X146887715Y-150381613D01*
X147008028Y-150547213D01*
X147152786Y-150691971D01*
X147282444Y-150786171D01*
X147318390Y-150812287D01*
X147388251Y-150847883D01*
X147411080Y-150859515D01*
X147461876Y-150907490D01*
X147478671Y-150975311D01*
X147456134Y-151041446D01*
X147411080Y-151080485D01*
X147318386Y-151127715D01*
X147152786Y-151248028D01*
X147008028Y-151392786D01*
X146887715Y-151558386D01*
X146794781Y-151740776D01*
X146731522Y-151935465D01*
X146699500Y-152137648D01*
X146699500Y-152342351D01*
X146731522Y-152544534D01*
X146794781Y-152739223D01*
X146887715Y-152921613D01*
X147008028Y-153087213D01*
X147152786Y-153231971D01*
X147290932Y-153332338D01*
X147318390Y-153352287D01*
X147373761Y-153380500D01*
X147411629Y-153399795D01*
X147462425Y-153447770D01*
X147479220Y-153515591D01*
X147456682Y-153581726D01*
X147411629Y-153620765D01*
X147318650Y-153668140D01*
X147153105Y-153788417D01*
X147153104Y-153788417D01*
X147008417Y-153933104D01*
X147008417Y-153933105D01*
X146888140Y-154098650D01*
X146795244Y-154280970D01*
X146732009Y-154475586D01*
X146723391Y-154530000D01*
X147684314Y-154530000D01*
X147679920Y-154534394D01*
X147627259Y-154625606D01*
X147600000Y-154727339D01*
X147600000Y-154832661D01*
X147627259Y-154934394D01*
X147679920Y-155025606D01*
X147684314Y-155030000D01*
X146723391Y-155030000D01*
X146732009Y-155084413D01*
X146795244Y-155279029D01*
X146888140Y-155461349D01*
X146979539Y-155587148D01*
X147003019Y-155652955D01*
X146987194Y-155721009D01*
X146953532Y-155759300D01*
X146842455Y-155842452D01*
X146842452Y-155842455D01*
X146756206Y-155957664D01*
X146756202Y-155957671D01*
X146705908Y-156092517D01*
X146699898Y-156148422D01*
X146699501Y-156152123D01*
X146699500Y-156152135D01*
X146699500Y-157847870D01*
X146699501Y-157847876D01*
X146705908Y-157907483D01*
X146756202Y-158042328D01*
X146756206Y-158042335D01*
X146842452Y-158157544D01*
X146842455Y-158157547D01*
X146957664Y-158243793D01*
X146957671Y-158243797D01*
X147092517Y-158294091D01*
X147092516Y-158294091D01*
X147099444Y-158294835D01*
X147152127Y-158300500D01*
X148847872Y-158300499D01*
X148907483Y-158294091D01*
X149042331Y-158243796D01*
X149157546Y-158157546D01*
X149243796Y-158042331D01*
X149294091Y-157907483D01*
X149300500Y-157847873D01*
X149300499Y-156750000D01*
X151723391Y-156750000D01*
X152684314Y-156750000D01*
X152679920Y-156754394D01*
X152627259Y-156845606D01*
X152600000Y-156947339D01*
X152600000Y-157052661D01*
X152627259Y-157154394D01*
X152679920Y-157245606D01*
X152684314Y-157250000D01*
X151723391Y-157250000D01*
X151732009Y-157304413D01*
X151795244Y-157499029D01*
X151888140Y-157681349D01*
X152008417Y-157846894D01*
X152008417Y-157846895D01*
X152153104Y-157991582D01*
X152318650Y-158111859D01*
X152500968Y-158204754D01*
X152695578Y-158267988D01*
X152750000Y-158276607D01*
X152750000Y-157315686D01*
X152754394Y-157320080D01*
X152845606Y-157372741D01*
X152947339Y-157400000D01*
X153052661Y-157400000D01*
X153154394Y-157372741D01*
X153245606Y-157320080D01*
X153250000Y-157315686D01*
X153250000Y-158276606D01*
X153304421Y-158267988D01*
X153499031Y-158204754D01*
X153681349Y-158111859D01*
X153846894Y-157991582D01*
X153846895Y-157991582D01*
X153991582Y-157846895D01*
X153991582Y-157846894D01*
X154111859Y-157681349D01*
X154204755Y-157499029D01*
X154267990Y-157304413D01*
X154276609Y-157250000D01*
X153315686Y-157250000D01*
X153320080Y-157245606D01*
X153372741Y-157154394D01*
X153400000Y-157052661D01*
X153400000Y-156947339D01*
X153372741Y-156845606D01*
X153320080Y-156754394D01*
X153315686Y-156750000D01*
X154276609Y-156750000D01*
X154267990Y-156695586D01*
X154204755Y-156500970D01*
X154111859Y-156318650D01*
X153991582Y-156153105D01*
X153991582Y-156153104D01*
X153846895Y-156008417D01*
X153681349Y-155888140D01*
X153499029Y-155795244D01*
X153304413Y-155732009D01*
X153250000Y-155723390D01*
X153250000Y-156684314D01*
X153245606Y-156679920D01*
X153154394Y-156627259D01*
X153052661Y-156600000D01*
X152947339Y-156600000D01*
X152845606Y-156627259D01*
X152754394Y-156679920D01*
X152750000Y-156684314D01*
X152750000Y-155723390D01*
X152695586Y-155732009D01*
X152500970Y-155795244D01*
X152318650Y-155888140D01*
X152153105Y-156008417D01*
X152153104Y-156008417D01*
X152008417Y-156153104D01*
X152008417Y-156153105D01*
X151888140Y-156318650D01*
X151795244Y-156500970D01*
X151732009Y-156695586D01*
X151723391Y-156750000D01*
X149300499Y-156750000D01*
X149300499Y-156152128D01*
X149294091Y-156092517D01*
X149256969Y-155992989D01*
X149243797Y-155957671D01*
X149243793Y-155957664D01*
X149157547Y-155842456D01*
X149157548Y-155842456D01*
X149157546Y-155842454D01*
X149046465Y-155759299D01*
X149004596Y-155703367D01*
X148999612Y-155633675D01*
X149020460Y-155587148D01*
X149111859Y-155461349D01*
X149204755Y-155279029D01*
X149267990Y-155084413D01*
X149276609Y-155030000D01*
X148315686Y-155030000D01*
X148320080Y-155025606D01*
X148372741Y-154934394D01*
X148400000Y-154832661D01*
X148400000Y-154727339D01*
X148372741Y-154625606D01*
X148320080Y-154534394D01*
X148315686Y-154530000D01*
X149276609Y-154530000D01*
X149267990Y-154475586D01*
X149204755Y-154280970D01*
X149111859Y-154098650D01*
X148991582Y-153933105D01*
X148991582Y-153933104D01*
X148846895Y-153788417D01*
X148681349Y-153668140D01*
X148588370Y-153620765D01*
X148537574Y-153572790D01*
X148520779Y-153504969D01*
X148543316Y-153438835D01*
X148588370Y-153399795D01*
X148588920Y-153399515D01*
X148681610Y-153352287D01*
X148735058Y-153313455D01*
X148847213Y-153231971D01*
X148847215Y-153231968D01*
X148847219Y-153231966D01*
X148991966Y-153087219D01*
X148991968Y-153087215D01*
X148991971Y-153087213D01*
X149044732Y-153014590D01*
X149112287Y-152921610D01*
X149205220Y-152739219D01*
X149268477Y-152544534D01*
X149300500Y-152342352D01*
X149300500Y-152137648D01*
X149268477Y-151935466D01*
X149205220Y-151740781D01*
X149205218Y-151740778D01*
X149205218Y-151740776D01*
X149163886Y-151659659D01*
X149112287Y-151558390D01*
X149068370Y-151497943D01*
X148991971Y-151392786D01*
X148847213Y-151248028D01*
X148681614Y-151127715D01*
X148643498Y-151108294D01*
X148588917Y-151080483D01*
X148538123Y-151032511D01*
X148521328Y-150964690D01*
X148543865Y-150898555D01*
X148588917Y-150859516D01*
X148681610Y-150812287D01*
X148717556Y-150786171D01*
X148847213Y-150691971D01*
X148847215Y-150691968D01*
X148847219Y-150691966D01*
X148991966Y-150547219D01*
X148991968Y-150547215D01*
X148991971Y-150547213D01*
X149087259Y-150416058D01*
X149112287Y-150381610D01*
X149205220Y-150199219D01*
X149268477Y-150004534D01*
X149300500Y-149802352D01*
X149300500Y-149597648D01*
X149288116Y-149519459D01*
X149268477Y-149395465D01*
X149216490Y-149235466D01*
X149205220Y-149200781D01*
X149205218Y-149200778D01*
X149205218Y-149200776D01*
X149150248Y-149092893D01*
X149112287Y-149018390D01*
X149072251Y-148963285D01*
X149009964Y-148877553D01*
X148986484Y-148811747D01*
X149002310Y-148743693D01*
X149022597Y-148716991D01*
X154626929Y-143112660D01*
X154626933Y-143112658D01*
X154636995Y-143102595D01*
X154665614Y-143086970D01*
X154698307Y-143069118D01*
X154698311Y-143069118D01*
X154698318Y-143069115D01*
X154735633Y-143071786D01*
X154767999Y-143074100D01*
X154768006Y-143074103D01*
X154768009Y-143074104D01*
X154768015Y-143074108D01*
X154797554Y-143089965D01*
X154893814Y-143159901D01*
X154938390Y-143192287D01*
X155010424Y-143228990D01*
X155031629Y-143239795D01*
X155082425Y-143287770D01*
X155099220Y-143355591D01*
X155076682Y-143421726D01*
X155031629Y-143460765D01*
X154938650Y-143508140D01*
X154773105Y-143628417D01*
X154773104Y-143628417D01*
X154628417Y-143773104D01*
X154628417Y-143773105D01*
X154508140Y-143938650D01*
X154415244Y-144120970D01*
X154352009Y-144315586D01*
X154343391Y-144370000D01*
X155304314Y-144370000D01*
X155299920Y-144374394D01*
X155247259Y-144465606D01*
X155220000Y-144567339D01*
X155220000Y-144672661D01*
X155247259Y-144774394D01*
X155299920Y-144865606D01*
X155304314Y-144870000D01*
X154343391Y-144870000D01*
X154352009Y-144924413D01*
X154415244Y-145119029D01*
X154508140Y-145301349D01*
X154628417Y-145466894D01*
X154628416Y-145466894D01*
X154773104Y-145611582D01*
X154938652Y-145731861D01*
X155031628Y-145779234D01*
X155082425Y-145827208D01*
X155099220Y-145895029D01*
X155076683Y-145961164D01*
X155031630Y-146000203D01*
X154938388Y-146047713D01*
X154772786Y-146168028D01*
X154628028Y-146312786D01*
X154507715Y-146478386D01*
X154414781Y-146660776D01*
X154351522Y-146855465D01*
X154319500Y-147057648D01*
X154319500Y-147262351D01*
X154351522Y-147464534D01*
X154414781Y-147659223D01*
X154473851Y-147775153D01*
X154488908Y-147804704D01*
X154507715Y-147841613D01*
X154628028Y-148007213D01*
X154772786Y-148151971D01*
X154920179Y-148259056D01*
X154938390Y-148272287D01*
X155016482Y-148312077D01*
X155031080Y-148319515D01*
X155081876Y-148367490D01*
X155098671Y-148435311D01*
X155076134Y-148501446D01*
X155031080Y-148540485D01*
X154938386Y-148587715D01*
X154772786Y-148708028D01*
X154628028Y-148852786D01*
X154507715Y-149018386D01*
X154414781Y-149200776D01*
X154351522Y-149395465D01*
X154319500Y-149597648D01*
X154319500Y-149802351D01*
X154351522Y-150004534D01*
X154414781Y-150199223D01*
X154507715Y-150381613D01*
X154628028Y-150547213D01*
X154772786Y-150691971D01*
X154902444Y-150786171D01*
X154938390Y-150812287D01*
X155008251Y-150847883D01*
X155031080Y-150859515D01*
X155081876Y-150907490D01*
X155098671Y-150975311D01*
X155076134Y-151041446D01*
X155031080Y-151080485D01*
X154938386Y-151127715D01*
X154772786Y-151248028D01*
X154628028Y-151392786D01*
X154507715Y-151558386D01*
X154414781Y-151740776D01*
X154351522Y-151935465D01*
X154319500Y-152137648D01*
X154319500Y-152342351D01*
X154351522Y-152544534D01*
X154414781Y-152739223D01*
X154507715Y-152921613D01*
X154628028Y-153087213D01*
X154772786Y-153231971D01*
X154910932Y-153332338D01*
X154938390Y-153352287D01*
X155029840Y-153398883D01*
X155031080Y-153399515D01*
X155081876Y-153447490D01*
X155098671Y-153515311D01*
X155076134Y-153581446D01*
X155031080Y-153620485D01*
X154938386Y-153667715D01*
X154772786Y-153788028D01*
X154628028Y-153932786D01*
X154507715Y-154098386D01*
X154414781Y-154280776D01*
X154351522Y-154475465D01*
X154319500Y-154677648D01*
X154319500Y-154882351D01*
X154351522Y-155084534D01*
X154414781Y-155279223D01*
X154507715Y-155461613D01*
X154628028Y-155627213D01*
X154772786Y-155771971D01*
X154895109Y-155860842D01*
X154938390Y-155892287D01*
X155032395Y-155940185D01*
X155120776Y-155985218D01*
X155120778Y-155985218D01*
X155120781Y-155985220D01*
X155192174Y-156008417D01*
X155315465Y-156048477D01*
X155416557Y-156064488D01*
X155517648Y-156080500D01*
X155517649Y-156080500D01*
X155722351Y-156080500D01*
X155722352Y-156080500D01*
X155924534Y-156048477D01*
X156119219Y-155985220D01*
X156301610Y-155892287D01*
X156394590Y-155824732D01*
X156467213Y-155771971D01*
X156467215Y-155771968D01*
X156467219Y-155771966D01*
X156611966Y-155627219D01*
X156611968Y-155627215D01*
X156611971Y-155627213D01*
X156664732Y-155554590D01*
X156732287Y-155461610D01*
X156825220Y-155279219D01*
X156888477Y-155084534D01*
X156920500Y-154882352D01*
X156920500Y-154677648D01*
X156915546Y-154646373D01*
X156888477Y-154475465D01*
X156836490Y-154315466D01*
X156825220Y-154280781D01*
X156825218Y-154280778D01*
X156825218Y-154280776D01*
X156761039Y-154154819D01*
X156732287Y-154098390D01*
X156698849Y-154052366D01*
X156611971Y-153932786D01*
X156467213Y-153788028D01*
X156301614Y-153667715D01*
X156293834Y-153663751D01*
X156208917Y-153620483D01*
X156158123Y-153572511D01*
X156141328Y-153504690D01*
X156163865Y-153438555D01*
X156208917Y-153399516D01*
X156301610Y-153352287D01*
X156355058Y-153313455D01*
X156467213Y-153231971D01*
X156467215Y-153231968D01*
X156467219Y-153231966D01*
X156611966Y-153087219D01*
X156611968Y-153087215D01*
X156611971Y-153087213D01*
X156664732Y-153014590D01*
X156732287Y-152921610D01*
X156825220Y-152739219D01*
X156888477Y-152544534D01*
X156920500Y-152342352D01*
X156920500Y-152137648D01*
X156888477Y-151935466D01*
X156825220Y-151740781D01*
X156825218Y-151740778D01*
X156825218Y-151740776D01*
X156783886Y-151659659D01*
X156732287Y-151558390D01*
X156688370Y-151497943D01*
X156611971Y-151392786D01*
X156467213Y-151248028D01*
X156301614Y-151127715D01*
X156263498Y-151108294D01*
X156208917Y-151080483D01*
X156158123Y-151032511D01*
X156141328Y-150964690D01*
X156163865Y-150898555D01*
X156208917Y-150859516D01*
X156301610Y-150812287D01*
X156337556Y-150786171D01*
X156467213Y-150691971D01*
X156467215Y-150691968D01*
X156467219Y-150691966D01*
X156611966Y-150547219D01*
X156611968Y-150547215D01*
X156611971Y-150547213D01*
X156707259Y-150416058D01*
X156732287Y-150381610D01*
X156825220Y-150199219D01*
X156888477Y-150004534D01*
X156920500Y-149802352D01*
X156920500Y-149597648D01*
X156908116Y-149519459D01*
X156888477Y-149395465D01*
X156836490Y-149235466D01*
X156825220Y-149200781D01*
X156825218Y-149200778D01*
X156825218Y-149200776D01*
X156770248Y-149092893D01*
X156732287Y-149018390D01*
X156692256Y-148963291D01*
X156665035Y-148925824D01*
X156665032Y-148925821D01*
X156646208Y-148899912D01*
X156611966Y-148852781D01*
X156467219Y-148708034D01*
X156467213Y-148708028D01*
X156301614Y-148587715D01*
X156275038Y-148574174D01*
X156208917Y-148540483D01*
X156158123Y-148492511D01*
X156141328Y-148424690D01*
X156163865Y-148358555D01*
X156208917Y-148319516D01*
X156301610Y-148272287D01*
X156322770Y-148256913D01*
X156467213Y-148151971D01*
X156467215Y-148151968D01*
X156467219Y-148151966D01*
X156611966Y-148007219D01*
X156611968Y-148007215D01*
X156611971Y-148007213D01*
X156684428Y-147907483D01*
X156732287Y-147841610D01*
X156825220Y-147659219D01*
X156888477Y-147464534D01*
X156920500Y-147262352D01*
X156920500Y-147057648D01*
X156907796Y-146977442D01*
X156888477Y-146855465D01*
X156836490Y-146695466D01*
X156825220Y-146660781D01*
X156825218Y-146660778D01*
X156825218Y-146660776D01*
X156762459Y-146537606D01*
X156732287Y-146478390D01*
X156678931Y-146404951D01*
X156611971Y-146312786D01*
X156467213Y-146168028D01*
X156301611Y-146047713D01*
X156208369Y-146000203D01*
X156157574Y-145952229D01*
X156140779Y-145884407D01*
X156163317Y-145818273D01*
X156208371Y-145779234D01*
X156301347Y-145731861D01*
X156466894Y-145611582D01*
X156466895Y-145611582D01*
X156611584Y-145466894D01*
X156731859Y-145301349D01*
X156824755Y-145119029D01*
X156887990Y-144924413D01*
X156896609Y-144870000D01*
X155935686Y-144870000D01*
X155940080Y-144865606D01*
X155992741Y-144774394D01*
X156020000Y-144672661D01*
X156020000Y-144567339D01*
X155992741Y-144465606D01*
X155940080Y-144374394D01*
X155935686Y-144370000D01*
X156896609Y-144370000D01*
X156887990Y-144315586D01*
X156824755Y-144120970D01*
X156731859Y-143938650D01*
X156611582Y-143773105D01*
X156611582Y-143773104D01*
X156466895Y-143628417D01*
X156301349Y-143508140D01*
X156208370Y-143460765D01*
X156157574Y-143412790D01*
X156140779Y-143344969D01*
X156163316Y-143278835D01*
X156208370Y-143239795D01*
X156301610Y-143192287D01*
X156346186Y-143159901D01*
X156467213Y-143071971D01*
X156467215Y-143071968D01*
X156467219Y-143071966D01*
X156611966Y-142927219D01*
X156611968Y-142927215D01*
X156611971Y-142927213D01*
X156666291Y-142852446D01*
X156732287Y-142761610D01*
X156825220Y-142579219D01*
X156888477Y-142384534D01*
X156920500Y-142182352D01*
X156920500Y-141977648D01*
X156899235Y-141843388D01*
X156888477Y-141775465D01*
X156855522Y-141674041D01*
X156825220Y-141580781D01*
X156825218Y-141580778D01*
X156825218Y-141580776D01*
X156776888Y-141485925D01*
X156732287Y-141398390D01*
X156678931Y-141324951D01*
X156611971Y-141232786D01*
X156467213Y-141088028D01*
X156301614Y-140967715D01*
X156275038Y-140954174D01*
X156208917Y-140920483D01*
X156158123Y-140872511D01*
X156141328Y-140804690D01*
X156163865Y-140738555D01*
X156208917Y-140699516D01*
X156301610Y-140652287D01*
X156346186Y-140619901D01*
X156467213Y-140531971D01*
X156467215Y-140531968D01*
X156467219Y-140531966D01*
X156611966Y-140387219D01*
X156611968Y-140387215D01*
X156611971Y-140387213D01*
X156673964Y-140301885D01*
X156732287Y-140221610D01*
X156825220Y-140039219D01*
X156888477Y-139844534D01*
X156920500Y-139642352D01*
X156920500Y-139437648D01*
X156888477Y-139235466D01*
X156888476Y-139235462D01*
X156888476Y-139235461D01*
X156886108Y-139228173D01*
X156884113Y-139158332D01*
X156920193Y-139098499D01*
X156982894Y-139067671D01*
X157028234Y-139068238D01*
X157031558Y-139068900D01*
X157031561Y-139068900D01*
X157189244Y-139068900D01*
X157189245Y-139068899D01*
X157343897Y-139038137D01*
X157363047Y-139030204D01*
X157432514Y-139022735D01*
X157494994Y-139054008D01*
X157530648Y-139114096D01*
X157534500Y-139144765D01*
X157534500Y-142055606D01*
X157556945Y-142168446D01*
X157558538Y-142176455D01*
X157558539Y-142176460D01*
X157561713Y-142184122D01*
X157561720Y-142184136D01*
X157563389Y-142188165D01*
X157605688Y-142290286D01*
X157637067Y-142337246D01*
X157641413Y-142343750D01*
X157674143Y-142392735D01*
X157765586Y-142484178D01*
X157765608Y-142484198D01*
X162925548Y-147644138D01*
X162959033Y-147705461D01*
X162954049Y-147775153D01*
X162938186Y-147804704D01*
X162845376Y-147932446D01*
X162748904Y-148121782D01*
X162683242Y-148323870D01*
X162683242Y-148323873D01*
X162672769Y-148390000D01*
X163566988Y-148390000D01*
X163534075Y-148447007D01*
X163500000Y-148574174D01*
X163500000Y-148705826D01*
X163534075Y-148832993D01*
X163566988Y-148890000D01*
X162672769Y-148890000D01*
X162683242Y-148956126D01*
X162683242Y-148956129D01*
X162748904Y-149158217D01*
X162845379Y-149347557D01*
X162970272Y-149519459D01*
X162970276Y-149519464D01*
X163120535Y-149669723D01*
X163120540Y-149669727D01*
X163292442Y-149794620D01*
X163481782Y-149891095D01*
X163683871Y-149956757D01*
X163750000Y-149967231D01*
X163750000Y-149073012D01*
X163807007Y-149105925D01*
X163934174Y-149140000D01*
X164065826Y-149140000D01*
X164192993Y-149105925D01*
X164250000Y-149073012D01*
X164250000Y-149967230D01*
X164316126Y-149956757D01*
X164316129Y-149956757D01*
X164518217Y-149891095D01*
X164707557Y-149794620D01*
X164879459Y-149669727D01*
X164879464Y-149669723D01*
X165029723Y-149519464D01*
X165029727Y-149519459D01*
X165154620Y-149347558D01*
X165159232Y-149338507D01*
X165207205Y-149287709D01*
X165275025Y-149270912D01*
X165341161Y-149293447D01*
X165380204Y-149338504D01*
X165384949Y-149347817D01*
X165509890Y-149519786D01*
X165514842Y-149524738D01*
X165548327Y-149586061D01*
X165543343Y-149655753D01*
X165501471Y-149711686D01*
X165474614Y-149726980D01*
X165333324Y-149785504D01*
X165333314Y-149785509D01*
X165202211Y-149873110D01*
X165202207Y-149873113D01*
X165090713Y-149984607D01*
X165090710Y-149984611D01*
X165003109Y-150115714D01*
X165003102Y-150115727D01*
X164942764Y-150261398D01*
X164942761Y-150261410D01*
X164912000Y-150416053D01*
X164912000Y-150573746D01*
X164942761Y-150728389D01*
X164942764Y-150728401D01*
X165003102Y-150874072D01*
X165003109Y-150874085D01*
X165090710Y-151005188D01*
X165090713Y-151005192D01*
X165202207Y-151116686D01*
X165202211Y-151116689D01*
X165333314Y-151204290D01*
X165333327Y-151204297D01*
X165471058Y-151261346D01*
X165479003Y-151264637D01*
X165627077Y-151294091D01*
X165633653Y-151295399D01*
X165633656Y-151295400D01*
X165633658Y-151295400D01*
X165791344Y-151295400D01*
X165791345Y-151295399D01*
X165945997Y-151264637D01*
X166058666Y-151217967D01*
X166091672Y-151204297D01*
X166091672Y-151204296D01*
X166091679Y-151204294D01*
X166185959Y-151141298D01*
X166252636Y-151120420D01*
X166254850Y-151120400D01*
X166437908Y-151120400D01*
X166437908Y-151120399D01*
X166508864Y-151106286D01*
X166558752Y-151096363D01*
X166592092Y-151082552D01*
X166672586Y-151049212D01*
X166738469Y-151005189D01*
X166775033Y-150980758D01*
X166862158Y-150893633D01*
X166862159Y-150893631D01*
X166869225Y-150886565D01*
X166869228Y-150886561D01*
X168115429Y-149640360D01*
X168115433Y-149640358D01*
X168202558Y-149553233D01*
X168271011Y-149450786D01*
X168271012Y-149450785D01*
X168271013Y-149450782D01*
X168271015Y-149450779D01*
X168284825Y-149417437D01*
X168318163Y-149336951D01*
X168342200Y-149216107D01*
X168342200Y-149092893D01*
X168342200Y-137863994D01*
X168341204Y-137858989D01*
X168318163Y-137743149D01*
X168307813Y-137718163D01*
X168271011Y-137629314D01*
X168271009Y-137629312D01*
X168271009Y-137629310D01*
X168202559Y-137526868D01*
X168161443Y-137485752D01*
X168115433Y-137439742D01*
X168115432Y-137439741D01*
X167613589Y-136937898D01*
X167580104Y-136876575D01*
X167585088Y-136806883D01*
X167600947Y-136777338D01*
X167695051Y-136647816D01*
X167791557Y-136458412D01*
X167857246Y-136256243D01*
X167890500Y-136046287D01*
X167890500Y-135833713D01*
X167857246Y-135623757D01*
X167791557Y-135421588D01*
X167695051Y-135232184D01*
X167695049Y-135232181D01*
X167695048Y-135232179D01*
X167570107Y-135060211D01*
X167419786Y-134909890D01*
X167247820Y-134784951D01*
X167247115Y-134784591D01*
X167239054Y-134780485D01*
X167188259Y-134732512D01*
X167171463Y-134664692D01*
X167193999Y-134598556D01*
X167239054Y-134559515D01*
X167247816Y-134555051D01*
X167322520Y-134500776D01*
X167419786Y-134430109D01*
X167419788Y-134430106D01*
X167419792Y-134430104D01*
X167570104Y-134279792D01*
X167570106Y-134279788D01*
X167570109Y-134279786D01*
X167695048Y-134107820D01*
X167695047Y-134107820D01*
X167695051Y-134107816D01*
X167791557Y-133918412D01*
X167857246Y-133716243D01*
X167890500Y-133506287D01*
X167890500Y-133293713D01*
X167857246Y-133083757D01*
X167791557Y-132881588D01*
X167695051Y-132692184D01*
X167695049Y-132692181D01*
X167695048Y-132692179D01*
X167570109Y-132520213D01*
X167419786Y-132369890D01*
X167247820Y-132244951D01*
X167247115Y-132244591D01*
X167239054Y-132240485D01*
X167188259Y-132192512D01*
X167171463Y-132124692D01*
X167193999Y-132058556D01*
X167239054Y-132019515D01*
X167247816Y-132015051D01*
X167269789Y-131999086D01*
X167419786Y-131890109D01*
X167419788Y-131890106D01*
X167419792Y-131890104D01*
X167570104Y-131739792D01*
X167570106Y-131739788D01*
X167570109Y-131739786D01*
X167695048Y-131567820D01*
X167695050Y-131567817D01*
X167695051Y-131567816D01*
X167791557Y-131378412D01*
X167857246Y-131176243D01*
X167890500Y-130966287D01*
X167890500Y-130753713D01*
X167857246Y-130543757D01*
X167791557Y-130341588D01*
X167695051Y-130152184D01*
X167695049Y-130152181D01*
X167695048Y-130152179D01*
X167570109Y-129980213D01*
X167419786Y-129829890D01*
X167247820Y-129704951D01*
X167247115Y-129704591D01*
X167239054Y-129700485D01*
X167188259Y-129652512D01*
X167171463Y-129584692D01*
X167193999Y-129518556D01*
X167239054Y-129479515D01*
X167247816Y-129475051D01*
X167333066Y-129413114D01*
X167419786Y-129350109D01*
X167419788Y-129350106D01*
X167419792Y-129350104D01*
X167570104Y-129199792D01*
X167570106Y-129199788D01*
X167570109Y-129199786D01*
X167695048Y-129027820D01*
X167695050Y-129027817D01*
X167695051Y-129027816D01*
X167791557Y-128838412D01*
X167857246Y-128636243D01*
X167890500Y-128426287D01*
X167890500Y-128213713D01*
X167857246Y-128003757D01*
X167791557Y-127801588D01*
X167695051Y-127612184D01*
X167695049Y-127612181D01*
X167695048Y-127612179D01*
X167570109Y-127440213D01*
X167419786Y-127289890D01*
X167247818Y-127164950D01*
X167247450Y-127164762D01*
X167239054Y-127160485D01*
X167188259Y-127112512D01*
X167171463Y-127044692D01*
X167193999Y-126978556D01*
X167239054Y-126939515D01*
X167247816Y-126935051D01*
X167274910Y-126915366D01*
X167419786Y-126810109D01*
X167419788Y-126810106D01*
X167419792Y-126810104D01*
X167570104Y-126659792D01*
X167570106Y-126659788D01*
X167570109Y-126659786D01*
X167695048Y-126487820D01*
X167695050Y-126487817D01*
X167695051Y-126487816D01*
X167791557Y-126298412D01*
X167857246Y-126096243D01*
X167890500Y-125886287D01*
X167890500Y-125673713D01*
X167857246Y-125463757D01*
X167791557Y-125261588D01*
X167695051Y-125072184D01*
X167695049Y-125072181D01*
X167695048Y-125072179D01*
X167570109Y-124900213D01*
X167419786Y-124749890D01*
X167247820Y-124624951D01*
X167247115Y-124624591D01*
X167239054Y-124620485D01*
X167188259Y-124572512D01*
X167171463Y-124504692D01*
X167193999Y-124438556D01*
X167239054Y-124399515D01*
X167247816Y-124395051D01*
X167321175Y-124341753D01*
X167419786Y-124270109D01*
X167419788Y-124270106D01*
X167419792Y-124270104D01*
X167570104Y-124119792D01*
X167570106Y-124119788D01*
X167570109Y-124119786D01*
X167695048Y-123947820D01*
X167695050Y-123947817D01*
X167695051Y-123947816D01*
X167791557Y-123758412D01*
X167857246Y-123556243D01*
X167890500Y-123346287D01*
X167890500Y-123133713D01*
X167857246Y-122923757D01*
X167791557Y-122721588D01*
X167695051Y-122532184D01*
X167695049Y-122532181D01*
X167695048Y-122532179D01*
X167570109Y-122360213D01*
X167419786Y-122209890D01*
X167247820Y-122084951D01*
X167247115Y-122084591D01*
X167239054Y-122080485D01*
X167188259Y-122032512D01*
X167171463Y-121964692D01*
X167193999Y-121898556D01*
X167239054Y-121859515D01*
X167247816Y-121855051D01*
X167310578Y-121809452D01*
X167419786Y-121730109D01*
X167419788Y-121730106D01*
X167419792Y-121730104D01*
X167570104Y-121579792D01*
X167570106Y-121579788D01*
X167570109Y-121579786D01*
X167695048Y-121407820D01*
X167695050Y-121407817D01*
X167695051Y-121407816D01*
X167791557Y-121218412D01*
X167857246Y-121016243D01*
X167890500Y-120806287D01*
X167890500Y-120593713D01*
X167857246Y-120383757D01*
X167791557Y-120181588D01*
X167695051Y-119992184D01*
X167695049Y-119992181D01*
X167695048Y-119992179D01*
X167570109Y-119820213D01*
X167419786Y-119669890D01*
X167247820Y-119544951D01*
X167247115Y-119544591D01*
X167239054Y-119540485D01*
X167188259Y-119492512D01*
X167171463Y-119424692D01*
X167193999Y-119358556D01*
X167239054Y-119319515D01*
X167247816Y-119315051D01*
X167378780Y-119219901D01*
X167419786Y-119190109D01*
X167419788Y-119190106D01*
X167419792Y-119190104D01*
X167570104Y-119039792D01*
X167570106Y-119039788D01*
X167570109Y-119039786D01*
X167695048Y-118867820D01*
X167695050Y-118867817D01*
X167695051Y-118867816D01*
X167791557Y-118678412D01*
X167857246Y-118476243D01*
X167890500Y-118266287D01*
X167890500Y-118053713D01*
X167857246Y-117843757D01*
X167791557Y-117641588D01*
X167695051Y-117452184D01*
X167695049Y-117452181D01*
X167695048Y-117452179D01*
X167570109Y-117280213D01*
X167419786Y-117129890D01*
X167247820Y-117004951D01*
X167247115Y-117004591D01*
X167239054Y-117000485D01*
X167188259Y-116952512D01*
X167171463Y-116884692D01*
X167193999Y-116818556D01*
X167239054Y-116779515D01*
X167247816Y-116775051D01*
X167329453Y-116715739D01*
X167419786Y-116650109D01*
X167419788Y-116650106D01*
X167419792Y-116650104D01*
X167570104Y-116499792D01*
X167570106Y-116499788D01*
X167570109Y-116499786D01*
X167695048Y-116327820D01*
X167695050Y-116327817D01*
X167695051Y-116327816D01*
X167791557Y-116138412D01*
X167857246Y-115936243D01*
X167890500Y-115726287D01*
X167890500Y-115513713D01*
X167857246Y-115303757D01*
X167791557Y-115101588D01*
X167695051Y-114912184D01*
X167695049Y-114912181D01*
X167695048Y-114912179D01*
X167570109Y-114740213D01*
X167419786Y-114589890D01*
X167247820Y-114464951D01*
X167247115Y-114464591D01*
X167239054Y-114460485D01*
X167188259Y-114412512D01*
X167171463Y-114344692D01*
X167193999Y-114278556D01*
X167239054Y-114239515D01*
X167247816Y-114235051D01*
X167361052Y-114152781D01*
X167419786Y-114110109D01*
X167419788Y-114110106D01*
X167419792Y-114110104D01*
X167570104Y-113959792D01*
X167570106Y-113959788D01*
X167570109Y-113959786D01*
X167695048Y-113787820D01*
X167695050Y-113787817D01*
X167695051Y-113787816D01*
X167791557Y-113598412D01*
X167857246Y-113396243D01*
X167890500Y-113186287D01*
X167890500Y-112973713D01*
X167857246Y-112763757D01*
X167791557Y-112561588D01*
X167695051Y-112372184D01*
X167695049Y-112372181D01*
X167695048Y-112372179D01*
X167570109Y-112200213D01*
X167419786Y-112049890D01*
X167247820Y-111924951D01*
X167247115Y-111924591D01*
X167239054Y-111920485D01*
X167188259Y-111872512D01*
X167171463Y-111804692D01*
X167193999Y-111738556D01*
X167239054Y-111699515D01*
X167247816Y-111695051D01*
X167351632Y-111619625D01*
X167419786Y-111570109D01*
X167419788Y-111570106D01*
X167419792Y-111570104D01*
X167570104Y-111419792D01*
X167570106Y-111419788D01*
X167570109Y-111419786D01*
X167695048Y-111247820D01*
X167695050Y-111247817D01*
X167695051Y-111247816D01*
X167791557Y-111058412D01*
X167857246Y-110856243D01*
X167890500Y-110646287D01*
X167890500Y-110433713D01*
X167857246Y-110223757D01*
X167791557Y-110021588D01*
X167695051Y-109832184D01*
X167695049Y-109832181D01*
X167695048Y-109832179D01*
X167570109Y-109660213D01*
X167419786Y-109509890D01*
X167247820Y-109384951D01*
X167246905Y-109384485D01*
X167239054Y-109380485D01*
X167188259Y-109332512D01*
X167171463Y-109264692D01*
X167193999Y-109198556D01*
X167239054Y-109159515D01*
X167247816Y-109155051D01*
X167279268Y-109132200D01*
X167419786Y-109030109D01*
X167419788Y-109030106D01*
X167419792Y-109030104D01*
X167570104Y-108879792D01*
X167570106Y-108879788D01*
X167570109Y-108879786D01*
X167695048Y-108707820D01*
X167695047Y-108707820D01*
X167695051Y-108707816D01*
X167791557Y-108518412D01*
X167857246Y-108316243D01*
X167890500Y-108106287D01*
X167890500Y-107893713D01*
X167857246Y-107683757D01*
X167791557Y-107481588D01*
X167695051Y-107292184D01*
X167695049Y-107292181D01*
X167695048Y-107292179D01*
X167570109Y-107120213D01*
X167419786Y-106969890D01*
X167247820Y-106844951D01*
X167058414Y-106748444D01*
X167058413Y-106748443D01*
X167058412Y-106748443D01*
X167039907Y-106742430D01*
X166982232Y-106702994D01*
X166955034Y-106638635D01*
X166966949Y-106569789D01*
X167014193Y-106518313D01*
X167078226Y-106500500D01*
X167171966Y-106500500D01*
X167171969Y-106500500D01*
X167514250Y-106466789D01*
X167851578Y-106399690D01*
X168180705Y-106299850D01*
X168498462Y-106168231D01*
X168801787Y-106006100D01*
X169087760Y-105815019D01*
X169353627Y-105596828D01*
X169408983Y-105541472D01*
X169487819Y-105462637D01*
X169549142Y-105429152D01*
X169618834Y-105434136D01*
X169674767Y-105476008D01*
X169699184Y-105541472D01*
X169699500Y-105550318D01*
X169699500Y-154449682D01*
X169679815Y-154516721D01*
X169627011Y-154562476D01*
X169557853Y-154572420D01*
X169494297Y-154543395D01*
X169487819Y-154537363D01*
X169353632Y-154403176D01*
X169087765Y-154184985D01*
X169087764Y-154184984D01*
X169087760Y-154184981D01*
X168801787Y-153993900D01*
X168801782Y-153993897D01*
X168801775Y-153993893D01*
X168498469Y-153831772D01*
X168498464Y-153831770D01*
X168180706Y-153700150D01*
X167851572Y-153600308D01*
X167514248Y-153533210D01*
X167514249Y-153533210D01*
X167247297Y-153506919D01*
X167171969Y-153499500D01*
X166828031Y-153499500D01*
X166752703Y-153506919D01*
X166485750Y-153533210D01*
X166148427Y-153600308D01*
X165819293Y-153700150D01*
X165501535Y-153831770D01*
X165501530Y-153831772D01*
X165198224Y-153993893D01*
X165198206Y-153993904D01*
X164912248Y-154184975D01*
X164912234Y-154184985D01*
X164646367Y-154403176D01*
X164403176Y-154646367D01*
X164184985Y-154912234D01*
X164184975Y-154912248D01*
X163993904Y-155198206D01*
X163993893Y-155198224D01*
X163831772Y-155501530D01*
X163831770Y-155501535D01*
X163700150Y-155819293D01*
X163600308Y-156148427D01*
X163533210Y-156485750D01*
X163514087Y-156679920D01*
X163499500Y-156828031D01*
X163499500Y-157171969D01*
X163507185Y-157250000D01*
X163533210Y-157514249D01*
X163600308Y-157851572D01*
X163700150Y-158180706D01*
X163831770Y-158498464D01*
X163831772Y-158498469D01*
X163993893Y-158801775D01*
X163993904Y-158801793D01*
X164184975Y-159087751D01*
X164184985Y-159087765D01*
X164403176Y-159353632D01*
X164537363Y-159487819D01*
X164570848Y-159549142D01*
X164565864Y-159618834D01*
X164523992Y-159674767D01*
X164458528Y-159699184D01*
X164449682Y-159699500D01*
X105550318Y-159699500D01*
X105483279Y-159679815D01*
X105437524Y-159627011D01*
X105427580Y-159557853D01*
X105456605Y-159494297D01*
X105462637Y-159487819D01*
X105596823Y-159353632D01*
X105596828Y-159353627D01*
X105815019Y-159087760D01*
X106006100Y-158801787D01*
X106168231Y-158498462D01*
X106299850Y-158180705D01*
X106399690Y-157851578D01*
X106466789Y-157514250D01*
X106500500Y-157171969D01*
X106500500Y-156828031D01*
X106466789Y-156485750D01*
X106400429Y-156152135D01*
X110699500Y-156152135D01*
X110699500Y-157847870D01*
X110699501Y-157847876D01*
X110705908Y-157907483D01*
X110756202Y-158042328D01*
X110756206Y-158042335D01*
X110842452Y-158157544D01*
X110842455Y-158157547D01*
X110957664Y-158243793D01*
X110957671Y-158243797D01*
X111092517Y-158294091D01*
X111092516Y-158294091D01*
X111099444Y-158294835D01*
X111152127Y-158300500D01*
X112847872Y-158300499D01*
X112907483Y-158294091D01*
X113042331Y-158243796D01*
X113157546Y-158157546D01*
X113243796Y-158042331D01*
X113294091Y-157907483D01*
X113298140Y-157869815D01*
X113324876Y-157805268D01*
X113382268Y-157765419D01*
X113452093Y-157762924D01*
X113512183Y-157798576D01*
X113521747Y-157810187D01*
X113548417Y-157846894D01*
X113548417Y-157846895D01*
X113693104Y-157991582D01*
X113858650Y-158111859D01*
X114040968Y-158204754D01*
X114235578Y-158267988D01*
X114290000Y-158276607D01*
X114290000Y-157315686D01*
X114294394Y-157320080D01*
X114385606Y-157372741D01*
X114487339Y-157400000D01*
X114592661Y-157400000D01*
X114694394Y-157372741D01*
X114785606Y-157320080D01*
X114790000Y-157315686D01*
X114790000Y-158276606D01*
X114844421Y-158267988D01*
X115039031Y-158204754D01*
X115221349Y-158111859D01*
X115386894Y-157991582D01*
X115386895Y-157991582D01*
X115531582Y-157846895D01*
X115531582Y-157846894D01*
X115651859Y-157681349D01*
X115744755Y-157499029D01*
X115807990Y-157304413D01*
X115816609Y-157250000D01*
X114855686Y-157250000D01*
X114860080Y-157245606D01*
X114912741Y-157154394D01*
X114940000Y-157052661D01*
X114940000Y-156947339D01*
X114912741Y-156845606D01*
X114860080Y-156754394D01*
X114855686Y-156750000D01*
X115816609Y-156750000D01*
X115807990Y-156695586D01*
X115744755Y-156500970D01*
X115651857Y-156318647D01*
X115581417Y-156221694D01*
X115581415Y-156221692D01*
X115531583Y-156153105D01*
X115530613Y-156152135D01*
X118699500Y-156152135D01*
X118699500Y-157847870D01*
X118699501Y-157847876D01*
X118705908Y-157907483D01*
X118756202Y-158042328D01*
X118756206Y-158042335D01*
X118842452Y-158157544D01*
X118842455Y-158157547D01*
X118957664Y-158243793D01*
X118957671Y-158243797D01*
X119092517Y-158294091D01*
X119092516Y-158294091D01*
X119099444Y-158294835D01*
X119152127Y-158300500D01*
X120847872Y-158300499D01*
X120907483Y-158294091D01*
X121042331Y-158243796D01*
X121157546Y-158157546D01*
X121243796Y-158042331D01*
X121294091Y-157907483D01*
X121300500Y-157847873D01*
X121300499Y-156152128D01*
X121294091Y-156092517D01*
X121256969Y-155992989D01*
X121243797Y-155957671D01*
X121243793Y-155957664D01*
X121157547Y-155842455D01*
X121157544Y-155842452D01*
X121042335Y-155756206D01*
X121042328Y-155756202D01*
X120907482Y-155705908D01*
X120907483Y-155705908D01*
X120847883Y-155699501D01*
X120847881Y-155699500D01*
X120847873Y-155699500D01*
X120847865Y-155699500D01*
X120749500Y-155699500D01*
X120682461Y-155679815D01*
X120636706Y-155627011D01*
X120625500Y-155575500D01*
X120625500Y-154761551D01*
X120645185Y-154694512D01*
X120661814Y-154673875D01*
X122661167Y-152674521D01*
X122722488Y-152641038D01*
X122792180Y-152646022D01*
X122848113Y-152687894D01*
X122859330Y-152705908D01*
X122887713Y-152761611D01*
X123008028Y-152927213D01*
X123152786Y-153071971D01*
X123307749Y-153184556D01*
X123318390Y-153192287D01*
X123390424Y-153228990D01*
X123411629Y-153239795D01*
X123462425Y-153287770D01*
X123479220Y-153355591D01*
X123456682Y-153421726D01*
X123411629Y-153460765D01*
X123318650Y-153508140D01*
X123153105Y-153628417D01*
X123153104Y-153628417D01*
X123008417Y-153773104D01*
X123008417Y-153773105D01*
X122888140Y-153938650D01*
X122795244Y-154120970D01*
X122732009Y-154315586D01*
X122723391Y-154370000D01*
X123684314Y-154370000D01*
X123679920Y-154374394D01*
X123627259Y-154465606D01*
X123600000Y-154567339D01*
X123600000Y-154672661D01*
X123627259Y-154774394D01*
X123679920Y-154865606D01*
X123684314Y-154870000D01*
X122723391Y-154870000D01*
X122732009Y-154924413D01*
X122795244Y-155119029D01*
X122888140Y-155301349D01*
X123008417Y-155466894D01*
X123008417Y-155466895D01*
X123153104Y-155611582D01*
X123318650Y-155731859D01*
X123500968Y-155824754D01*
X123695578Y-155887988D01*
X123750000Y-155896607D01*
X123750000Y-154935686D01*
X123754394Y-154940080D01*
X123845606Y-154992741D01*
X123947339Y-155020000D01*
X124052661Y-155020000D01*
X124154394Y-154992741D01*
X124245606Y-154940080D01*
X124250000Y-154935686D01*
X124250000Y-155896606D01*
X124304421Y-155887988D01*
X124499031Y-155824754D01*
X124681349Y-155731859D01*
X124846894Y-155611582D01*
X124846895Y-155611582D01*
X124991582Y-155466895D01*
X124991582Y-155466894D01*
X125111859Y-155301349D01*
X125204755Y-155119029D01*
X125267990Y-154924413D01*
X125276609Y-154870000D01*
X124315686Y-154870000D01*
X124320080Y-154865606D01*
X124372741Y-154774394D01*
X124400000Y-154672661D01*
X124400000Y-154567339D01*
X124372741Y-154465606D01*
X124320080Y-154374394D01*
X124315686Y-154370000D01*
X125276609Y-154370000D01*
X125267990Y-154315586D01*
X125204755Y-154120970D01*
X125111859Y-153938650D01*
X124991582Y-153773105D01*
X124991582Y-153773104D01*
X124846895Y-153628417D01*
X124681349Y-153508140D01*
X124588370Y-153460765D01*
X124537574Y-153412790D01*
X124520779Y-153344969D01*
X124543316Y-153278835D01*
X124588370Y-153239795D01*
X124681610Y-153192287D01*
X124825208Y-153087958D01*
X124847213Y-153071971D01*
X124847215Y-153071968D01*
X124847219Y-153071966D01*
X124991966Y-152927219D01*
X124991968Y-152927215D01*
X124991971Y-152927213D01*
X125044732Y-152854590D01*
X125112287Y-152761610D01*
X125205220Y-152579219D01*
X125268477Y-152384534D01*
X125300500Y-152182352D01*
X125300500Y-151977648D01*
X125268477Y-151775466D01*
X125205220Y-151580781D01*
X125205218Y-151580778D01*
X125205218Y-151580776D01*
X125163012Y-151497943D01*
X125112287Y-151398390D01*
X125050037Y-151312709D01*
X124997004Y-151239714D01*
X124973524Y-151173907D01*
X124989350Y-151105854D01*
X125009641Y-151079148D01*
X125463290Y-150625500D01*
X127023058Y-149065733D01*
X127091512Y-148963285D01*
X127130323Y-148869586D01*
X127138663Y-148849452D01*
X127143226Y-148826511D01*
X127160521Y-148739561D01*
X127162701Y-148728607D01*
X127162701Y-148600283D01*
X127162700Y-148600257D01*
X127162700Y-136872152D01*
X127182385Y-136805113D01*
X127199019Y-136784471D01*
X130398798Y-133584692D01*
X133606374Y-130377115D01*
X133667695Y-130343632D01*
X133737387Y-130348616D01*
X133793320Y-130390488D01*
X133804535Y-130408500D01*
X133814603Y-130428259D01*
X133844949Y-130487817D01*
X133969890Y-130659786D01*
X134120213Y-130810109D01*
X134292182Y-130935050D01*
X134300946Y-130939516D01*
X134351742Y-130987491D01*
X134368536Y-131055312D01*
X134345998Y-131121447D01*
X134300946Y-131160484D01*
X134292182Y-131164949D01*
X134120213Y-131289890D01*
X133969890Y-131440213D01*
X133844951Y-131612179D01*
X133748444Y-131801585D01*
X133682753Y-132003760D01*
X133649500Y-132213713D01*
X133649500Y-132426286D01*
X133664376Y-132520213D01*
X133682754Y-132636243D01*
X133745056Y-132827989D01*
X133748444Y-132838414D01*
X133844951Y-133027820D01*
X133969890Y-133199786D01*
X134120213Y-133350109D01*
X134292179Y-133475048D01*
X134292181Y-133475049D01*
X134292184Y-133475051D01*
X134300941Y-133479512D01*
X134351738Y-133527483D01*
X134368536Y-133595303D01*
X134346002Y-133661440D01*
X134300953Y-133700480D01*
X134292181Y-133704950D01*
X134120213Y-133829890D01*
X133969890Y-133980213D01*
X133844951Y-134152179D01*
X133748444Y-134341585D01*
X133682753Y-134543760D01*
X133649500Y-134753713D01*
X133649500Y-134966286D01*
X133671050Y-135102351D01*
X133682754Y-135176243D01*
X133724438Y-135304534D01*
X133748444Y-135378414D01*
X133844951Y-135567820D01*
X133969890Y-135739786D01*
X134120213Y-135890109D01*
X134292182Y-136015050D01*
X134300946Y-136019516D01*
X134351742Y-136067491D01*
X134368536Y-136135312D01*
X134345998Y-136201447D01*
X134300946Y-136240484D01*
X134292182Y-136244949D01*
X134120213Y-136369890D01*
X133969890Y-136520213D01*
X133844951Y-136692179D01*
X133748444Y-136881585D01*
X133682753Y-137083760D01*
X133656400Y-137250149D01*
X133649500Y-137293713D01*
X133649500Y-137506287D01*
X133652760Y-137526867D01*
X133679581Y-137696214D01*
X133682754Y-137716243D01*
X133730762Y-137863997D01*
X133748444Y-137918414D01*
X133844951Y-138107820D01*
X133969890Y-138279786D01*
X134120213Y-138430109D01*
X134292182Y-138555050D01*
X134300946Y-138559516D01*
X134351742Y-138607491D01*
X134368536Y-138675312D01*
X134345998Y-138741447D01*
X134300946Y-138780484D01*
X134292182Y-138784949D01*
X134120213Y-138909890D01*
X133969890Y-139060213D01*
X133844951Y-139232179D01*
X133748444Y-139421585D01*
X133682753Y-139623760D01*
X133649500Y-139833713D01*
X133649500Y-140046286D01*
X133677268Y-140221610D01*
X133682754Y-140256243D01*
X133746595Y-140452725D01*
X133748444Y-140458414D01*
X133844951Y-140647820D01*
X133969890Y-140819786D01*
X134120213Y-140970109D01*
X134292182Y-141095050D01*
X134300946Y-141099516D01*
X134351742Y-141147491D01*
X134368536Y-141215312D01*
X134345998Y-141281447D01*
X134300946Y-141320484D01*
X134292182Y-141324949D01*
X134120213Y-141449890D01*
X133969890Y-141600213D01*
X133844951Y-141772179D01*
X133748444Y-141961585D01*
X133682753Y-142163760D01*
X133658586Y-142316347D01*
X133649500Y-142373713D01*
X133649500Y-142586287D01*
X133655901Y-142626701D01*
X133680502Y-142782029D01*
X133682754Y-142796243D01*
X133746595Y-142992725D01*
X133748444Y-142998414D01*
X133844951Y-143187820D01*
X133969890Y-143359786D01*
X134120213Y-143510109D01*
X134292182Y-143635050D01*
X134300946Y-143639516D01*
X134351742Y-143687491D01*
X134368536Y-143755312D01*
X134345998Y-143821447D01*
X134300946Y-143860484D01*
X134292182Y-143864949D01*
X134120213Y-143989890D01*
X133969890Y-144140213D01*
X133844951Y-144312179D01*
X133748444Y-144501585D01*
X133682753Y-144703760D01*
X133649500Y-144913713D01*
X133649500Y-145126286D01*
X133678095Y-145306832D01*
X133682754Y-145336243D01*
X133748321Y-145538037D01*
X133748444Y-145538414D01*
X133844948Y-145727815D01*
X133939047Y-145857332D01*
X133962526Y-145923139D01*
X133946700Y-145991193D01*
X133926409Y-146017898D01*
X133424569Y-146519740D01*
X133337444Y-146606864D01*
X133337438Y-146606872D01*
X133268992Y-146709305D01*
X133268984Y-146709319D01*
X133236907Y-146786766D01*
X133235647Y-146789807D01*
X133230812Y-146801481D01*
X133221837Y-146823145D01*
X133221835Y-146823153D01*
X133197800Y-146943989D01*
X133197800Y-151261346D01*
X133178115Y-151328385D01*
X133161481Y-151349027D01*
X132981178Y-151529329D01*
X132919855Y-151562814D01*
X132850163Y-151557830D01*
X132794230Y-151515958D01*
X132783012Y-151497943D01*
X132776790Y-151485732D01*
X132732287Y-151398390D01*
X132724556Y-151387749D01*
X132611971Y-151232786D01*
X132467213Y-151088028D01*
X132301614Y-150967715D01*
X132295006Y-150964348D01*
X132208917Y-150920483D01*
X132158123Y-150872511D01*
X132141328Y-150804690D01*
X132163865Y-150738555D01*
X132208917Y-150699516D01*
X132301610Y-150652287D01*
X132322770Y-150636913D01*
X132467213Y-150531971D01*
X132467215Y-150531968D01*
X132467219Y-150531966D01*
X132611966Y-150387219D01*
X132611968Y-150387215D01*
X132611971Y-150387213D01*
X132664732Y-150314590D01*
X132732287Y-150221610D01*
X132825220Y-150039219D01*
X132888477Y-149844534D01*
X132920500Y-149642352D01*
X132920500Y-149437648D01*
X132904551Y-149336949D01*
X132888477Y-149235465D01*
X132852863Y-149125858D01*
X132825220Y-149040781D01*
X132825218Y-149040778D01*
X132825218Y-149040776D01*
X132782870Y-148957664D01*
X132732287Y-148858390D01*
X132720709Y-148842454D01*
X132611971Y-148692786D01*
X132467213Y-148548028D01*
X132301614Y-148427715D01*
X132271435Y-148412338D01*
X132208917Y-148380483D01*
X132158123Y-148332511D01*
X132141328Y-148264690D01*
X132163865Y-148198555D01*
X132208917Y-148159516D01*
X132301610Y-148112287D01*
X132367022Y-148064763D01*
X132467213Y-147991971D01*
X132467215Y-147991968D01*
X132467219Y-147991966D01*
X132611966Y-147847219D01*
X132611968Y-147847215D01*
X132611971Y-147847213D01*
X132714958Y-147705461D01*
X132732287Y-147681610D01*
X132825220Y-147499219D01*
X132888477Y-147304534D01*
X132920500Y-147102352D01*
X132920500Y-146897648D01*
X132906272Y-146807816D01*
X132888477Y-146695465D01*
X132850270Y-146577877D01*
X132825220Y-146500781D01*
X132825218Y-146500778D01*
X132825218Y-146500776D01*
X132782146Y-146416243D01*
X132732287Y-146318390D01*
X132718008Y-146298736D01*
X132611971Y-146152786D01*
X132467213Y-146008028D01*
X132301613Y-145887715D01*
X132301612Y-145887714D01*
X132301610Y-145887713D01*
X132234375Y-145853455D01*
X132119223Y-145794781D01*
X131924534Y-145731522D01*
X131749995Y-145703878D01*
X131722352Y-145699500D01*
X131517648Y-145699500D01*
X131493329Y-145703351D01*
X131315465Y-145731522D01*
X131120776Y-145794781D01*
X130938386Y-145887715D01*
X130772786Y-146008028D01*
X130628028Y-146152786D01*
X130507715Y-146318386D01*
X130414781Y-146500776D01*
X130351522Y-146695465D01*
X130319500Y-146897648D01*
X130319500Y-147102351D01*
X130351522Y-147304534D01*
X130414781Y-147499223D01*
X130458269Y-147584571D01*
X130496306Y-147659223D01*
X130507715Y-147681613D01*
X130628028Y-147847213D01*
X130772786Y-147991971D01*
X130927749Y-148104556D01*
X130938390Y-148112287D01*
X131016274Y-148151971D01*
X131031080Y-148159515D01*
X131081876Y-148207490D01*
X131098671Y-148275311D01*
X131076134Y-148341446D01*
X131031080Y-148380485D01*
X130938386Y-148427715D01*
X130772786Y-148548028D01*
X130628028Y-148692786D01*
X130507715Y-148858386D01*
X130414781Y-149040776D01*
X130351522Y-149235465D01*
X130326181Y-149395465D01*
X130319500Y-149437648D01*
X130319500Y-149642352D01*
X130320514Y-149648752D01*
X130351522Y-149844534D01*
X130414781Y-150039223D01*
X130473465Y-150154394D01*
X130506264Y-150218767D01*
X130507715Y-150221613D01*
X130628028Y-150387213D01*
X130772786Y-150531971D01*
X130927749Y-150644556D01*
X130938390Y-150652287D01*
X131016274Y-150691971D01*
X131031080Y-150699515D01*
X131081876Y-150747490D01*
X131098671Y-150815311D01*
X131076134Y-150881446D01*
X131031080Y-150920485D01*
X130938386Y-150967715D01*
X130772786Y-151088028D01*
X130628028Y-151232786D01*
X130507715Y-151398386D01*
X130414781Y-151580776D01*
X130351522Y-151775465D01*
X130319500Y-151977648D01*
X130319500Y-152182351D01*
X130351522Y-152384534D01*
X130414781Y-152579223D01*
X130463340Y-152674523D01*
X130498133Y-152742809D01*
X130507715Y-152761613D01*
X130628028Y-152927213D01*
X130772786Y-153071971D01*
X130938385Y-153192284D01*
X130938387Y-153192285D01*
X130938390Y-153192287D01*
X130948939Y-153197662D01*
X130968617Y-153216246D01*
X130990570Y-153232077D01*
X130993639Y-153239878D01*
X130999735Y-153245635D01*
X131006242Y-153271910D01*
X131016151Y-153297095D01*
X131015497Y-153309282D01*
X131016531Y-153313455D01*
X131014262Y-153332338D01*
X130995649Y-153425911D01*
X130963264Y-153487822D01*
X130942231Y-153504711D01*
X130942331Y-153504849D01*
X130939481Y-153506919D01*
X130938833Y-153507440D01*
X130938396Y-153507707D01*
X130772786Y-153628028D01*
X130628028Y-153772786D01*
X130507715Y-153938386D01*
X130414781Y-154120776D01*
X130351522Y-154315465D01*
X130319500Y-154517648D01*
X130319500Y-154722351D01*
X130351522Y-154924534D01*
X130414781Y-155119223D01*
X130455035Y-155198224D01*
X130505584Y-155297432D01*
X130507715Y-155301613D01*
X130628028Y-155467213D01*
X130733024Y-155572209D01*
X130766509Y-155633532D01*
X130761525Y-155703224D01*
X130719653Y-155759157D01*
X130654189Y-155783574D01*
X130607025Y-155777821D01*
X130464536Y-155731523D01*
X130302816Y-155705909D01*
X130262352Y-155699500D01*
X130057648Y-155699500D01*
X130034136Y-155703224D01*
X129855465Y-155731522D01*
X129660776Y-155794781D01*
X129478386Y-155887715D01*
X129312786Y-156008028D01*
X129168028Y-156152786D01*
X129047715Y-156318386D01*
X128954781Y-156500776D01*
X128891522Y-156695465D01*
X128859500Y-156897648D01*
X128859500Y-157102351D01*
X128891522Y-157304534D01*
X128954781Y-157499223D01*
X129047715Y-157681613D01*
X129168028Y-157847213D01*
X129312786Y-157991971D01*
X129467749Y-158104556D01*
X129478390Y-158112287D01*
X129567212Y-158157544D01*
X129660776Y-158205218D01*
X129660778Y-158205218D01*
X129660781Y-158205220D01*
X129765137Y-158239127D01*
X129855465Y-158268477D01*
X129956557Y-158284488D01*
X130057648Y-158300500D01*
X130057649Y-158300500D01*
X130262351Y-158300500D01*
X130262352Y-158300500D01*
X130464534Y-158268477D01*
X130659219Y-158205220D01*
X130841610Y-158112287D01*
X130937901Y-158042328D01*
X131007213Y-157991971D01*
X131007215Y-157991968D01*
X131007219Y-157991966D01*
X131151966Y-157847219D01*
X131151968Y-157847215D01*
X131151971Y-157847213D01*
X131213209Y-157762924D01*
X131272287Y-157681610D01*
X131365220Y-157499219D01*
X131428477Y-157304534D01*
X131453027Y-157149528D01*
X131482956Y-157086395D01*
X131542267Y-157049463D01*
X131612130Y-157050461D01*
X131670363Y-157089070D01*
X131698477Y-157153034D01*
X131699500Y-157168927D01*
X131699500Y-157847870D01*
X131699501Y-157847876D01*
X131705908Y-157907483D01*
X131756202Y-158042328D01*
X131756206Y-158042335D01*
X131842452Y-158157544D01*
X131842455Y-158157547D01*
X131957664Y-158243793D01*
X131957671Y-158243797D01*
X132092517Y-158294091D01*
X132092516Y-158294091D01*
X132099444Y-158294835D01*
X132152127Y-158300500D01*
X133847872Y-158300499D01*
X133907483Y-158294091D01*
X134042331Y-158243796D01*
X134157546Y-158157546D01*
X134243796Y-158042331D01*
X134294091Y-157907483D01*
X134300500Y-157847873D01*
X134300499Y-156750000D01*
X136723391Y-156750000D01*
X137684314Y-156750000D01*
X137679920Y-156754394D01*
X137627259Y-156845606D01*
X137600000Y-156947339D01*
X137600000Y-157052661D01*
X137627259Y-157154394D01*
X137679920Y-157245606D01*
X137684314Y-157250000D01*
X136723391Y-157250000D01*
X136732009Y-157304413D01*
X136795244Y-157499029D01*
X136888140Y-157681349D01*
X137008417Y-157846894D01*
X137008417Y-157846895D01*
X137153104Y-157991582D01*
X137318650Y-158111859D01*
X137500968Y-158204754D01*
X137695578Y-158267988D01*
X137750000Y-158276607D01*
X137750000Y-157315686D01*
X137754394Y-157320080D01*
X137845606Y-157372741D01*
X137947339Y-157400000D01*
X138052661Y-157400000D01*
X138154394Y-157372741D01*
X138245606Y-157320080D01*
X138250000Y-157315686D01*
X138250000Y-158276606D01*
X138304421Y-158267988D01*
X138499031Y-158204754D01*
X138681349Y-158111859D01*
X138846894Y-157991582D01*
X138846895Y-157991582D01*
X138991582Y-157846895D01*
X138991582Y-157846894D01*
X139111859Y-157681349D01*
X139204755Y-157499029D01*
X139267990Y-157304413D01*
X139276609Y-157250000D01*
X138315686Y-157250000D01*
X138320080Y-157245606D01*
X138372741Y-157154394D01*
X138400000Y-157052661D01*
X138400000Y-156947339D01*
X138372741Y-156845606D01*
X138320080Y-156754394D01*
X138315686Y-156750000D01*
X139276609Y-156750000D01*
X139267990Y-156695586D01*
X139204755Y-156500970D01*
X139111857Y-156318647D01*
X139041417Y-156221694D01*
X139041415Y-156221692D01*
X138991583Y-156153105D01*
X138846895Y-156008417D01*
X138681349Y-155888140D01*
X138499029Y-155795244D01*
X138304413Y-155732009D01*
X138250000Y-155723390D01*
X138250000Y-156684314D01*
X138245606Y-156679920D01*
X138154394Y-156627259D01*
X138052661Y-156600000D01*
X137947339Y-156600000D01*
X137845606Y-156627259D01*
X137754394Y-156679920D01*
X137750000Y-156684314D01*
X137750000Y-155723390D01*
X137695586Y-155732009D01*
X137500970Y-155795244D01*
X137318650Y-155888140D01*
X137153105Y-156008417D01*
X137153104Y-156008417D01*
X137008417Y-156153104D01*
X137008417Y-156153105D01*
X136888140Y-156318650D01*
X136795244Y-156500970D01*
X136732009Y-156695586D01*
X136723391Y-156750000D01*
X134300499Y-156750000D01*
X134300499Y-156152128D01*
X134294091Y-156092517D01*
X134256969Y-155992989D01*
X134243797Y-155957671D01*
X134243793Y-155957664D01*
X134157547Y-155842455D01*
X134157544Y-155842452D01*
X134042335Y-155756206D01*
X134042328Y-155756202D01*
X133907482Y-155705908D01*
X133907483Y-155705908D01*
X133847883Y-155699501D01*
X133847881Y-155699500D01*
X133847873Y-155699500D01*
X133847865Y-155699500D01*
X132679047Y-155699500D01*
X132612008Y-155679815D01*
X132566253Y-155627011D01*
X132556309Y-155557853D01*
X132585334Y-155494297D01*
X132591366Y-155487819D01*
X132611966Y-155467219D01*
X132611968Y-155467215D01*
X132611971Y-155467213D01*
X132676893Y-155377854D01*
X132732287Y-155301610D01*
X132825220Y-155119219D01*
X132888477Y-154924534D01*
X132920500Y-154722352D01*
X132920500Y-154517648D01*
X132902369Y-154403176D01*
X132888477Y-154315465D01*
X132846080Y-154184981D01*
X132825220Y-154120781D01*
X132825218Y-154120778D01*
X132825218Y-154120776D01*
X132790361Y-154052366D01*
X132732287Y-153938390D01*
X132654823Y-153831769D01*
X132630006Y-153797611D01*
X132606526Y-153731805D01*
X132622352Y-153663751D01*
X132642639Y-153637049D01*
X134309157Y-151970534D01*
X134377611Y-151868086D01*
X134400241Y-151813453D01*
X134424763Y-151754252D01*
X134448800Y-151633406D01*
X134448800Y-151424499D01*
X134468485Y-151357460D01*
X134521289Y-151311705D01*
X134572800Y-151300499D01*
X135847871Y-151300499D01*
X135847872Y-151300499D01*
X135907483Y-151294091D01*
X136042331Y-151243796D01*
X136157546Y-151157546D01*
X136243796Y-151042331D01*
X136294091Y-150907483D01*
X136300500Y-150847873D01*
X136300499Y-149750000D01*
X138723391Y-149750000D01*
X139684314Y-149750000D01*
X139679920Y-149754394D01*
X139627259Y-149845606D01*
X139600000Y-149947339D01*
X139600000Y-150052661D01*
X139627259Y-150154394D01*
X139679920Y-150245606D01*
X139684314Y-150250000D01*
X138723391Y-150250000D01*
X138732009Y-150304413D01*
X138795244Y-150499029D01*
X138888140Y-150681349D01*
X139008417Y-150846894D01*
X139008417Y-150846895D01*
X139153104Y-150991582D01*
X139318650Y-151111859D01*
X139500968Y-151204754D01*
X139695578Y-151267988D01*
X139750000Y-151276607D01*
X139750000Y-150315686D01*
X139754394Y-150320080D01*
X139845606Y-150372741D01*
X139947339Y-150400000D01*
X140052661Y-150400000D01*
X140154394Y-150372741D01*
X140245606Y-150320080D01*
X140250000Y-150315686D01*
X140250000Y-151276606D01*
X140304421Y-151267988D01*
X140499031Y-151204754D01*
X140681349Y-151111859D01*
X140846894Y-150991582D01*
X140846895Y-150991582D01*
X140991582Y-150846895D01*
X140991582Y-150846894D01*
X141111859Y-150681349D01*
X141204755Y-150499029D01*
X141267990Y-150304413D01*
X141276609Y-150250000D01*
X140315686Y-150250000D01*
X140320080Y-150245606D01*
X140372741Y-150154394D01*
X140400000Y-150052661D01*
X140400000Y-149947339D01*
X140372741Y-149845606D01*
X140320080Y-149754394D01*
X140315686Y-149750000D01*
X141276609Y-149750000D01*
X141267990Y-149695586D01*
X141204755Y-149500970D01*
X141111859Y-149318650D01*
X140991582Y-149153105D01*
X140991582Y-149153104D01*
X140846895Y-149008417D01*
X140681349Y-148888140D01*
X140499029Y-148795244D01*
X140304413Y-148732009D01*
X140250000Y-148723390D01*
X140250000Y-149684314D01*
X140245606Y-149679920D01*
X140154394Y-149627259D01*
X140052661Y-149600000D01*
X139947339Y-149600000D01*
X139845606Y-149627259D01*
X139754394Y-149679920D01*
X139750000Y-149684314D01*
X139750000Y-148723390D01*
X139695586Y-148732009D01*
X139500970Y-148795244D01*
X139318650Y-148888140D01*
X139153105Y-149008417D01*
X139153104Y-149008417D01*
X139008417Y-149153104D01*
X139008417Y-149153105D01*
X138888140Y-149318650D01*
X138795244Y-149500970D01*
X138732009Y-149695586D01*
X138723391Y-149750000D01*
X136300499Y-149750000D01*
X136300499Y-149152128D01*
X136294502Y-149096337D01*
X136294091Y-149092516D01*
X136243797Y-148957671D01*
X136243793Y-148957664D01*
X136157547Y-148842455D01*
X136157544Y-148842452D01*
X136042335Y-148756206D01*
X136042328Y-148756202D01*
X135983751Y-148734355D01*
X135927818Y-148692484D01*
X135903400Y-148627020D01*
X135918251Y-148558747D01*
X135939397Y-148530498D01*
X136030104Y-148439792D01*
X136038879Y-148427715D01*
X136133078Y-148298059D01*
X136155051Y-148267816D01*
X136159514Y-148259054D01*
X136207488Y-148208259D01*
X136275308Y-148191463D01*
X136341444Y-148213999D01*
X136380486Y-148259056D01*
X136384951Y-148267820D01*
X136509890Y-148439786D01*
X136660213Y-148590109D01*
X136832179Y-148715048D01*
X136832181Y-148715049D01*
X136832184Y-148715051D01*
X137021588Y-148811557D01*
X137223757Y-148877246D01*
X137433713Y-148910500D01*
X137433714Y-148910500D01*
X137646286Y-148910500D01*
X137646287Y-148910500D01*
X137856243Y-148877246D01*
X138058412Y-148811557D01*
X138247816Y-148715051D01*
X138359395Y-148633985D01*
X138419786Y-148590109D01*
X138419788Y-148590106D01*
X138419792Y-148590104D01*
X138570104Y-148439792D01*
X138570106Y-148439788D01*
X138570109Y-148439786D01*
X138695048Y-148267820D01*
X138695047Y-148267820D01*
X138695051Y-148267816D01*
X138791557Y-148078412D01*
X138857246Y-147876243D01*
X138890500Y-147666287D01*
X138890500Y-147453713D01*
X138857246Y-147243757D01*
X138791557Y-147041588D01*
X138695051Y-146852184D01*
X138695049Y-146852181D01*
X138695048Y-146852179D01*
X138570109Y-146680213D01*
X138419786Y-146529890D01*
X138247820Y-146404951D01*
X138247115Y-146404591D01*
X138239054Y-146400485D01*
X138188259Y-146352512D01*
X138171463Y-146284692D01*
X138193999Y-146218556D01*
X138239054Y-146179515D01*
X138247816Y-146175051D01*
X138337046Y-146110222D01*
X138419786Y-146050109D01*
X138419788Y-146050106D01*
X138419792Y-146050104D01*
X138570104Y-145899792D01*
X138570106Y-145899788D01*
X138570109Y-145899786D01*
X138695048Y-145727820D01*
X138695047Y-145727820D01*
X138695051Y-145727816D01*
X138791557Y-145538412D01*
X138819122Y-145453573D01*
X138858558Y-145395900D01*
X138922916Y-145368701D01*
X138991762Y-145380615D01*
X139024733Y-145404212D01*
X139109707Y-145489186D01*
X139109711Y-145489189D01*
X139240814Y-145576790D01*
X139240827Y-145576797D01*
X139386498Y-145637135D01*
X139386503Y-145637137D01*
X139541153Y-145667899D01*
X139541156Y-145667900D01*
X139541158Y-145667900D01*
X139698844Y-145667900D01*
X139698845Y-145667899D01*
X139853497Y-145637137D01*
X139999179Y-145576794D01*
X140130289Y-145489189D01*
X140241789Y-145377689D01*
X140329394Y-145246579D01*
X140389737Y-145100897D01*
X140420500Y-144946242D01*
X140420500Y-144788558D01*
X140420500Y-144788555D01*
X140420499Y-144788553D01*
X140412211Y-144746889D01*
X140389737Y-144633903D01*
X140371437Y-144589723D01*
X140329397Y-144488228D01*
X140329396Y-144488227D01*
X140329394Y-144488221D01*
X140266397Y-144393939D01*
X140245520Y-144327263D01*
X140245500Y-144325050D01*
X140245500Y-137675793D01*
X140245499Y-137675789D01*
X140238957Y-137642899D01*
X140221463Y-137554948D01*
X140192801Y-137485752D01*
X140174312Y-137441115D01*
X140174311Y-137441113D01*
X140174310Y-137441111D01*
X140174309Y-137441110D01*
X140150221Y-137405060D01*
X140150219Y-137405057D01*
X140145993Y-137398733D01*
X140105858Y-137338667D01*
X140018733Y-137251542D01*
X140018729Y-137251539D01*
X138618428Y-135851238D01*
X138584943Y-135789915D01*
X138589927Y-135720223D01*
X138605787Y-135690677D01*
X138695051Y-135567816D01*
X138791557Y-135378412D01*
X138857246Y-135176243D01*
X138890500Y-134966287D01*
X138890500Y-134753713D01*
X138857246Y-134543757D01*
X138791557Y-134341588D01*
X138695051Y-134152184D01*
X138695049Y-134152181D01*
X138695048Y-134152179D01*
X138570109Y-133980213D01*
X138419786Y-133829890D01*
X138247820Y-133704951D01*
X138247115Y-133704591D01*
X138239054Y-133700485D01*
X138188259Y-133652512D01*
X138171463Y-133584692D01*
X138193999Y-133518556D01*
X138239054Y-133479515D01*
X138247816Y-133475051D01*
X138368399Y-133387443D01*
X138419786Y-133350109D01*
X138419788Y-133350106D01*
X138419792Y-133350104D01*
X138570104Y-133199792D01*
X138570106Y-133199788D01*
X138570109Y-133199786D01*
X138695048Y-133027820D01*
X138695047Y-133027820D01*
X138695051Y-133027816D01*
X138791557Y-132838412D01*
X138857246Y-132636243D01*
X138890500Y-132426287D01*
X138890500Y-132213713D01*
X138857246Y-132003757D01*
X138791557Y-131801588D01*
X138695051Y-131612184D01*
X138695049Y-131612181D01*
X138695048Y-131612179D01*
X138570109Y-131440213D01*
X138419786Y-131289890D01*
X138247820Y-131164951D01*
X138247115Y-131164591D01*
X138239054Y-131160485D01*
X138188259Y-131112512D01*
X138171463Y-131044692D01*
X138193999Y-130978556D01*
X138239054Y-130939515D01*
X138247816Y-130935051D01*
X138286710Y-130906793D01*
X138419786Y-130810109D01*
X138419788Y-130810106D01*
X138419792Y-130810104D01*
X138570104Y-130659792D01*
X138570106Y-130659788D01*
X138570109Y-130659786D01*
X138695048Y-130487820D01*
X138695050Y-130487817D01*
X138695051Y-130487816D01*
X138791557Y-130298412D01*
X138857246Y-130096243D01*
X138890500Y-129886287D01*
X138890500Y-129673713D01*
X138857246Y-129463757D01*
X138791557Y-129261588D01*
X138695051Y-129072184D01*
X138695049Y-129072181D01*
X138695048Y-129072179D01*
X138570109Y-128900213D01*
X138419786Y-128749890D01*
X138247820Y-128624951D01*
X138247115Y-128624591D01*
X138239054Y-128620485D01*
X138188259Y-128572512D01*
X138171463Y-128504692D01*
X138193999Y-128438556D01*
X138239054Y-128399515D01*
X138247816Y-128395051D01*
X138378941Y-128299784D01*
X138419786Y-128270109D01*
X138419788Y-128270106D01*
X138419792Y-128270104D01*
X138570104Y-128119792D01*
X138570106Y-128119788D01*
X138570109Y-128119786D01*
X138695048Y-127947820D01*
X138695047Y-127947820D01*
X138695051Y-127947816D01*
X138791557Y-127758412D01*
X138857246Y-127556243D01*
X138890500Y-127346287D01*
X138890500Y-127133713D01*
X138857246Y-126923757D01*
X138791557Y-126721588D01*
X138695051Y-126532184D01*
X138695049Y-126532181D01*
X138695048Y-126532179D01*
X138570109Y-126360213D01*
X138419786Y-126209890D01*
X138247820Y-126084951D01*
X138247115Y-126084591D01*
X138239054Y-126080485D01*
X138188259Y-126032512D01*
X138171463Y-125964692D01*
X138193999Y-125898556D01*
X138239054Y-125859515D01*
X138247816Y-125855051D01*
X138269789Y-125839086D01*
X138419786Y-125730109D01*
X138419788Y-125730106D01*
X138419792Y-125730104D01*
X138570104Y-125579792D01*
X138570106Y-125579788D01*
X138570109Y-125579786D01*
X138695048Y-125407820D01*
X138695047Y-125407820D01*
X138695051Y-125407816D01*
X138791557Y-125218412D01*
X138857246Y-125016243D01*
X138890500Y-124806287D01*
X138890500Y-124593713D01*
X138857246Y-124383757D01*
X138791557Y-124181588D01*
X138695051Y-123992184D01*
X138695049Y-123992181D01*
X138695048Y-123992179D01*
X138570109Y-123820213D01*
X138419786Y-123669890D01*
X138247820Y-123544951D01*
X138247115Y-123544591D01*
X138239054Y-123540485D01*
X138188259Y-123492512D01*
X138171463Y-123424692D01*
X138193999Y-123358556D01*
X138239054Y-123319515D01*
X138247816Y-123315051D01*
X138331718Y-123254093D01*
X138419786Y-123190109D01*
X138419788Y-123190106D01*
X138419792Y-123190104D01*
X138570104Y-123039792D01*
X138570106Y-123039788D01*
X138570109Y-123039786D01*
X138695048Y-122867820D01*
X138695047Y-122867820D01*
X138695051Y-122867816D01*
X138791557Y-122678412D01*
X138857246Y-122476243D01*
X138890500Y-122266287D01*
X138890500Y-122053713D01*
X138857246Y-121843757D01*
X138791557Y-121641588D01*
X138695051Y-121452184D01*
X138695049Y-121452181D01*
X138695048Y-121452179D01*
X138570109Y-121280213D01*
X138419786Y-121129890D01*
X138247820Y-121004951D01*
X138247115Y-121004591D01*
X138239054Y-121000485D01*
X138188259Y-120952512D01*
X138171463Y-120884692D01*
X138193999Y-120818556D01*
X138239054Y-120779515D01*
X138247816Y-120775051D01*
X138285531Y-120747650D01*
X138419786Y-120650109D01*
X138419788Y-120650106D01*
X138419792Y-120650104D01*
X138570104Y-120499792D01*
X138570106Y-120499788D01*
X138570109Y-120499786D01*
X138695048Y-120327820D01*
X138695050Y-120327817D01*
X138695051Y-120327816D01*
X138791557Y-120138412D01*
X138857246Y-119936243D01*
X138890500Y-119726287D01*
X138890500Y-119513713D01*
X138857246Y-119303757D01*
X138791557Y-119101588D01*
X138695051Y-118912184D01*
X138695049Y-118912181D01*
X138695048Y-118912179D01*
X138570109Y-118740213D01*
X138419786Y-118589890D01*
X138247820Y-118464951D01*
X138239600Y-118460763D01*
X138239054Y-118460485D01*
X138188259Y-118412512D01*
X138171463Y-118344692D01*
X138193999Y-118278556D01*
X138239054Y-118239515D01*
X138247816Y-118235051D01*
X138269789Y-118219086D01*
X138419786Y-118110109D01*
X138419788Y-118110106D01*
X138419792Y-118110104D01*
X138570104Y-117959792D01*
X138570106Y-117959788D01*
X138570109Y-117959786D01*
X138695048Y-117787820D01*
X138695047Y-117787820D01*
X138695051Y-117787816D01*
X138791557Y-117598412D01*
X138857246Y-117396243D01*
X138890500Y-117186287D01*
X138890500Y-116973713D01*
X138857246Y-116763757D01*
X138791557Y-116561588D01*
X138695051Y-116372184D01*
X138695049Y-116372181D01*
X138695048Y-116372179D01*
X138570109Y-116200213D01*
X138419786Y-116049890D01*
X138247817Y-115924949D01*
X138238504Y-115920204D01*
X138187707Y-115872230D01*
X138170912Y-115804409D01*
X138193449Y-115738274D01*
X138238507Y-115699232D01*
X138247558Y-115694620D01*
X138419459Y-115569727D01*
X138419464Y-115569723D01*
X138569723Y-115419464D01*
X138569727Y-115419459D01*
X138694620Y-115247557D01*
X138791095Y-115058217D01*
X138856757Y-114856129D01*
X138856757Y-114856126D01*
X138867231Y-114790000D01*
X137973012Y-114790000D01*
X138005925Y-114732993D01*
X138040000Y-114605826D01*
X138040000Y-114474174D01*
X138005925Y-114347007D01*
X137973012Y-114290000D01*
X138867231Y-114290000D01*
X138856757Y-114223873D01*
X138856757Y-114223870D01*
X138791095Y-114021782D01*
X138694620Y-113832442D01*
X138569727Y-113660540D01*
X138569723Y-113660535D01*
X138419464Y-113510276D01*
X138419459Y-113510272D01*
X138247555Y-113385377D01*
X138238500Y-113380763D01*
X138187706Y-113332788D01*
X138170912Y-113264966D01*
X138193451Y-113198832D01*
X138238508Y-113159793D01*
X138247816Y-113155051D01*
X138334147Y-113092328D01*
X138419786Y-113030109D01*
X138419788Y-113030106D01*
X138419792Y-113030104D01*
X138570104Y-112879792D01*
X138570106Y-112879788D01*
X138570109Y-112879786D01*
X138695048Y-112707820D01*
X138695047Y-112707820D01*
X138695051Y-112707816D01*
X138791557Y-112518412D01*
X138857246Y-112316243D01*
X138890500Y-112106287D01*
X138890500Y-111893713D01*
X138857246Y-111683757D01*
X138791557Y-111481588D01*
X138695051Y-111292184D01*
X138695049Y-111292181D01*
X138695048Y-111292179D01*
X138570109Y-111120213D01*
X138419786Y-110969890D01*
X138247820Y-110844951D01*
X138058414Y-110748444D01*
X138058413Y-110748443D01*
X138058412Y-110748443D01*
X137856243Y-110682754D01*
X137856241Y-110682753D01*
X137856240Y-110682753D01*
X137694957Y-110657208D01*
X137646287Y-110649500D01*
X137433713Y-110649500D01*
X137385042Y-110657208D01*
X137223760Y-110682753D01*
X137021585Y-110748444D01*
X136832179Y-110844951D01*
X136660215Y-110969889D01*
X136546673Y-111083431D01*
X136485350Y-111116915D01*
X136415658Y-111111931D01*
X136359725Y-111070059D01*
X136342810Y-111039082D01*
X136293797Y-110907671D01*
X136293793Y-110907664D01*
X136207547Y-110792455D01*
X136207544Y-110792452D01*
X136092335Y-110706206D01*
X136092328Y-110706202D01*
X135957482Y-110655908D01*
X135957483Y-110655908D01*
X135897883Y-110649501D01*
X135897881Y-110649500D01*
X135897873Y-110649500D01*
X135897864Y-110649500D01*
X134102129Y-110649500D01*
X134102123Y-110649501D01*
X134042516Y-110655908D01*
X133907671Y-110706202D01*
X133907664Y-110706206D01*
X133792455Y-110792452D01*
X133792452Y-110792455D01*
X133706206Y-110907664D01*
X133706202Y-110907671D01*
X133655908Y-111042517D01*
X133649501Y-111102116D01*
X133649500Y-111102135D01*
X133649500Y-112897870D01*
X133649501Y-112897876D01*
X133655908Y-112957483D01*
X133706202Y-113092328D01*
X133706206Y-113092335D01*
X133792452Y-113207544D01*
X133792455Y-113207547D01*
X133907664Y-113293793D01*
X133907671Y-113293797D01*
X134039082Y-113342810D01*
X134095016Y-113384681D01*
X134119433Y-113450145D01*
X134104582Y-113518418D01*
X134083431Y-113546673D01*
X133969889Y-113660215D01*
X133844951Y-113832179D01*
X133748444Y-114021585D01*
X133682753Y-114223760D01*
X133649500Y-114433713D01*
X133649500Y-114646286D01*
X133664427Y-114740535D01*
X133682754Y-114856243D01*
X133718594Y-114966548D01*
X133748444Y-115058414D01*
X133844951Y-115247820D01*
X133969890Y-115419786D01*
X134120213Y-115570109D01*
X134292182Y-115695050D01*
X134300946Y-115699516D01*
X134351742Y-115747491D01*
X134368536Y-115815312D01*
X134345998Y-115881447D01*
X134300946Y-115920484D01*
X134292182Y-115924949D01*
X134120213Y-116049890D01*
X133969890Y-116200213D01*
X133844951Y-116372179D01*
X133748444Y-116561585D01*
X133682753Y-116763760D01*
X133660242Y-116905889D01*
X133649500Y-116973713D01*
X133649500Y-117186287D01*
X133650372Y-117191794D01*
X133664427Y-117280535D01*
X133682754Y-117396243D01*
X133741827Y-117578051D01*
X133748444Y-117598414D01*
X133844951Y-117787820D01*
X133969890Y-117959786D01*
X134120213Y-118110109D01*
X134292179Y-118235048D01*
X134292181Y-118235049D01*
X134292184Y-118235051D01*
X134301493Y-118239794D01*
X134352290Y-118287766D01*
X134369087Y-118355587D01*
X134346552Y-118421722D01*
X134301502Y-118460762D01*
X134292443Y-118465378D01*
X134120540Y-118590272D01*
X134120535Y-118590276D01*
X133970276Y-118740535D01*
X133970272Y-118740540D01*
X133845379Y-118912442D01*
X133748904Y-119101782D01*
X133683242Y-119303870D01*
X133683242Y-119303873D01*
X133672769Y-119370000D01*
X134566988Y-119370000D01*
X134534075Y-119427007D01*
X134500000Y-119554174D01*
X134500000Y-119685826D01*
X134534075Y-119812993D01*
X134566988Y-119870000D01*
X133672769Y-119870000D01*
X133683242Y-119936126D01*
X133683242Y-119936129D01*
X133748904Y-120138217D01*
X133845379Y-120327557D01*
X133970272Y-120499459D01*
X133970276Y-120499464D01*
X134120535Y-120649723D01*
X134120540Y-120649727D01*
X134292444Y-120774622D01*
X134301495Y-120779234D01*
X134352292Y-120827208D01*
X134369087Y-120895029D01*
X134346550Y-120961164D01*
X134301499Y-121000202D01*
X134292182Y-121004949D01*
X134120213Y-121129890D01*
X133969890Y-121280213D01*
X133844951Y-121452179D01*
X133748444Y-121641585D01*
X133748443Y-121641587D01*
X133748443Y-121641588D01*
X133735163Y-121682458D01*
X133682753Y-121843760D01*
X133649500Y-122053713D01*
X133649500Y-122266286D01*
X133664427Y-122360535D01*
X133682754Y-122476243D01*
X133743044Y-122661797D01*
X133748444Y-122678414D01*
X133844951Y-122867820D01*
X133969890Y-123039786D01*
X134120213Y-123190109D01*
X134292182Y-123315050D01*
X134300946Y-123319516D01*
X134351742Y-123367491D01*
X134368536Y-123435312D01*
X134345998Y-123501447D01*
X134300946Y-123540484D01*
X134292182Y-123544949D01*
X134120213Y-123669890D01*
X133969890Y-123820213D01*
X133844951Y-123992179D01*
X133748444Y-124181585D01*
X133682753Y-124383760D01*
X133649500Y-124593713D01*
X133649500Y-124806286D01*
X133669235Y-124930892D01*
X133682754Y-125016243D01*
X133747512Y-125215548D01*
X133748444Y-125218414D01*
X133844951Y-125407820D01*
X133969890Y-125579786D01*
X134120213Y-125730109D01*
X134292182Y-125855050D01*
X134300946Y-125859516D01*
X134351742Y-125907491D01*
X134368536Y-125975312D01*
X134345998Y-126041447D01*
X134300946Y-126080484D01*
X134292182Y-126084949D01*
X134120213Y-126209890D01*
X133969890Y-126360213D01*
X133844951Y-126532179D01*
X133748444Y-126721585D01*
X133682753Y-126923760D01*
X133649500Y-127133713D01*
X133649500Y-127346286D01*
X133679685Y-127536871D01*
X133682754Y-127556243D01*
X133742112Y-127738928D01*
X133748444Y-127758414D01*
X133844948Y-127947815D01*
X133960087Y-128106292D01*
X133983566Y-128172099D01*
X133967740Y-128240153D01*
X133947449Y-128266858D01*
X128062130Y-134152179D01*
X126138469Y-136075840D01*
X126138467Y-136075842D01*
X126102752Y-136111557D01*
X126051344Y-136162964D01*
X126019580Y-136210501D01*
X125982888Y-136265414D01*
X125982885Y-136265419D01*
X125963405Y-136312451D01*
X125935738Y-136379244D01*
X125935735Y-136379256D01*
X125911700Y-136500089D01*
X125911700Y-148356546D01*
X125892015Y-148423585D01*
X125875381Y-148444227D01*
X125350748Y-148968859D01*
X125289425Y-149002344D01*
X125219733Y-148997360D01*
X125163800Y-148955488D01*
X125152582Y-148937473D01*
X125135984Y-148904898D01*
X125112287Y-148858390D01*
X125100709Y-148842454D01*
X124991971Y-148692786D01*
X124847219Y-148548034D01*
X124847211Y-148548028D01*
X124810929Y-148521668D01*
X124768264Y-148466339D01*
X124762285Y-148396726D01*
X124794890Y-148334931D01*
X124855728Y-148300573D01*
X124870562Y-148298060D01*
X124907483Y-148294091D01*
X124957835Y-148275311D01*
X125042331Y-148243796D01*
X125157546Y-148157546D01*
X125243796Y-148042331D01*
X125294091Y-147907483D01*
X125300500Y-147847873D01*
X125300499Y-146152128D01*
X125294091Y-146092517D01*
X125277380Y-146047713D01*
X125243797Y-145957671D01*
X125243793Y-145957664D01*
X125157547Y-145842455D01*
X125157544Y-145842452D01*
X125042335Y-145756206D01*
X125042328Y-145756202D01*
X124907482Y-145705908D01*
X124907483Y-145705908D01*
X124847883Y-145699501D01*
X124847881Y-145699500D01*
X124847873Y-145699500D01*
X124847864Y-145699500D01*
X123152129Y-145699500D01*
X123152123Y-145699501D01*
X123092516Y-145705908D01*
X122957671Y-145756202D01*
X122957664Y-145756206D01*
X122842455Y-145842452D01*
X122842452Y-145842455D01*
X122756206Y-145957664D01*
X122756202Y-145957671D01*
X122705908Y-146092517D01*
X122704005Y-146110222D01*
X122699501Y-146152123D01*
X122699500Y-146152135D01*
X122699500Y-147847870D01*
X122699501Y-147847876D01*
X122705908Y-147907483D01*
X122756202Y-148042328D01*
X122756206Y-148042335D01*
X122842452Y-148157544D01*
X122842455Y-148157547D01*
X122957664Y-148243793D01*
X122957671Y-148243797D01*
X122998583Y-148259056D01*
X123092517Y-148294091D01*
X123129441Y-148298060D01*
X123193989Y-148324796D01*
X123233838Y-148382188D01*
X123236333Y-148452013D01*
X123200681Y-148512102D01*
X123189071Y-148521666D01*
X123152784Y-148548030D01*
X123008028Y-148692786D01*
X122887715Y-148858386D01*
X122794781Y-149040776D01*
X122731522Y-149235465D01*
X122706181Y-149395465D01*
X122699500Y-149437648D01*
X122699500Y-149642352D01*
X122700514Y-149648752D01*
X122731522Y-149844534D01*
X122794781Y-150039223D01*
X122853465Y-150154394D01*
X122886264Y-150218767D01*
X122887715Y-150221613D01*
X123008028Y-150387213D01*
X123011191Y-150390915D01*
X123009778Y-150392121D01*
X123039466Y-150446489D01*
X123034482Y-150516181D01*
X123005981Y-150560528D01*
X119601270Y-153965239D01*
X119601267Y-153965242D01*
X119572616Y-153993893D01*
X119514142Y-154052366D01*
X119495320Y-154080536D01*
X119495319Y-154080535D01*
X119445689Y-154154812D01*
X119445685Y-154154819D01*
X119433193Y-154184980D01*
X119433193Y-154184981D01*
X119398538Y-154268645D01*
X119398535Y-154268655D01*
X119374500Y-154389489D01*
X119374500Y-155575500D01*
X119354815Y-155642539D01*
X119302011Y-155688294D01*
X119250501Y-155699500D01*
X119152130Y-155699500D01*
X119152123Y-155699501D01*
X119092516Y-155705908D01*
X118957671Y-155756202D01*
X118957664Y-155756206D01*
X118842455Y-155842452D01*
X118842452Y-155842455D01*
X118756206Y-155957664D01*
X118756202Y-155957671D01*
X118705908Y-156092517D01*
X118699898Y-156148422D01*
X118699501Y-156152123D01*
X118699500Y-156152135D01*
X115530613Y-156152135D01*
X115386895Y-156008417D01*
X115221349Y-155888140D01*
X115039029Y-155795244D01*
X114844413Y-155732009D01*
X114790000Y-155723390D01*
X114790000Y-156684314D01*
X114785606Y-156679920D01*
X114694394Y-156627259D01*
X114592661Y-156600000D01*
X114487339Y-156600000D01*
X114385606Y-156627259D01*
X114294394Y-156679920D01*
X114290000Y-156684314D01*
X114290000Y-155723390D01*
X114235586Y-155732009D01*
X114040970Y-155795244D01*
X113858650Y-155888140D01*
X113693105Y-156008417D01*
X113693104Y-156008417D01*
X113548414Y-156153107D01*
X113521746Y-156189813D01*
X113466415Y-156232478D01*
X113396802Y-156238456D01*
X113335007Y-156205849D01*
X113300651Y-156145010D01*
X113298139Y-156130177D01*
X113294091Y-156092517D01*
X113243797Y-155957671D01*
X113243793Y-155957664D01*
X113157547Y-155842455D01*
X113157544Y-155842452D01*
X113042335Y-155756206D01*
X113042328Y-155756202D01*
X112907482Y-155705908D01*
X112907483Y-155705908D01*
X112847883Y-155699501D01*
X112847881Y-155699500D01*
X112847873Y-155699500D01*
X112847864Y-155699500D01*
X111152129Y-155699500D01*
X111152123Y-155699501D01*
X111092516Y-155705908D01*
X110957671Y-155756202D01*
X110957664Y-155756206D01*
X110842455Y-155842452D01*
X110842452Y-155842455D01*
X110756206Y-155957664D01*
X110756202Y-155957671D01*
X110705908Y-156092517D01*
X110699898Y-156148422D01*
X110699501Y-156152123D01*
X110699500Y-156152135D01*
X106400429Y-156152135D01*
X106399690Y-156148422D01*
X106299850Y-155819295D01*
X106168231Y-155501538D01*
X106149713Y-155466894D01*
X106006106Y-155198224D01*
X106006105Y-155198222D01*
X106006100Y-155198213D01*
X105815019Y-154912240D01*
X105596828Y-154646373D01*
X105596827Y-154646372D01*
X105596823Y-154646367D01*
X105353632Y-154403176D01*
X105221209Y-154294499D01*
X105221204Y-154294495D01*
X105087760Y-154184981D01*
X104801787Y-153993900D01*
X104801782Y-153993897D01*
X104801775Y-153993893D01*
X104498469Y-153831772D01*
X104498464Y-153831770D01*
X104180706Y-153700150D01*
X103851572Y-153600308D01*
X103514248Y-153533210D01*
X103514249Y-153533210D01*
X103247297Y-153506919D01*
X103171969Y-153499500D01*
X102828031Y-153499500D01*
X102752703Y-153506919D01*
X102485750Y-153533210D01*
X102148427Y-153600308D01*
X101819293Y-153700150D01*
X101501535Y-153831770D01*
X101501530Y-153831772D01*
X101198224Y-153993893D01*
X101198206Y-153993904D01*
X100912248Y-154184975D01*
X100912234Y-154184985D01*
X100646367Y-154403176D01*
X100512181Y-154537363D01*
X100450858Y-154570848D01*
X100381166Y-154565864D01*
X100325233Y-154523992D01*
X100300816Y-154458528D01*
X100300500Y-154449682D01*
X100300500Y-153052155D01*
X107100000Y-153052155D01*
X107100000Y-153750000D01*
X108066988Y-153750000D01*
X108034075Y-153807007D01*
X108000000Y-153934174D01*
X108000000Y-154065826D01*
X108034075Y-154192993D01*
X108066988Y-154250000D01*
X107100000Y-154250000D01*
X107100000Y-154947844D01*
X107106401Y-155007372D01*
X107106403Y-155007379D01*
X107156645Y-155142086D01*
X107156649Y-155142093D01*
X107242809Y-155257187D01*
X107242812Y-155257190D01*
X107357906Y-155343350D01*
X107357913Y-155343354D01*
X107492620Y-155393596D01*
X107492627Y-155393598D01*
X107552155Y-155399999D01*
X107552172Y-155400000D01*
X108250000Y-155400000D01*
X108250000Y-154433012D01*
X108307007Y-154465925D01*
X108434174Y-154500000D01*
X108565826Y-154500000D01*
X108692993Y-154465925D01*
X108750000Y-154433012D01*
X108750000Y-155400000D01*
X109447828Y-155400000D01*
X109447844Y-155399999D01*
X109507372Y-155393598D01*
X109507379Y-155393596D01*
X109642086Y-155343354D01*
X109642093Y-155343350D01*
X109757187Y-155257190D01*
X109757190Y-155257187D01*
X109843350Y-155142093D01*
X109843354Y-155142086D01*
X109893596Y-155007379D01*
X109893598Y-155007372D01*
X109899999Y-154947844D01*
X109900000Y-154947827D01*
X109900000Y-154250000D01*
X108933012Y-154250000D01*
X108965925Y-154192993D01*
X109000000Y-154065826D01*
X109000000Y-153934174D01*
X108965925Y-153807007D01*
X108933012Y-153750000D01*
X109900000Y-153750000D01*
X114122145Y-153750000D01*
X115066988Y-153750000D01*
X115034075Y-153807007D01*
X115000000Y-153934174D01*
X115000000Y-154065826D01*
X115034075Y-154192993D01*
X115066988Y-154250000D01*
X114122145Y-154250000D01*
X114134473Y-154327835D01*
X114134473Y-154327838D01*
X114202567Y-154537410D01*
X114302613Y-154733760D01*
X114432142Y-154912041D01*
X114587958Y-155067857D01*
X114766239Y-155197386D01*
X114962589Y-155297432D01*
X115172163Y-155365526D01*
X115249999Y-155377854D01*
X115250000Y-155377854D01*
X115250000Y-154433012D01*
X115307007Y-154465925D01*
X115434174Y-154500000D01*
X115565826Y-154500000D01*
X115692993Y-154465925D01*
X115750000Y-154433012D01*
X115750000Y-155377854D01*
X115827834Y-155365526D01*
X115827837Y-155365526D01*
X116037410Y-155297432D01*
X116233760Y-155197386D01*
X116412041Y-155067857D01*
X116567857Y-154912041D01*
X116697386Y-154733760D01*
X116797432Y-154537410D01*
X116865526Y-154327838D01*
X116865526Y-154327835D01*
X116877855Y-154250000D01*
X115933012Y-154250000D01*
X115965925Y-154192993D01*
X116000000Y-154065826D01*
X116000000Y-153934174D01*
X115965925Y-153807007D01*
X115933012Y-153750000D01*
X116877855Y-153750000D01*
X116865526Y-153672164D01*
X116865526Y-153672161D01*
X116797432Y-153462589D01*
X116697386Y-153266239D01*
X116567857Y-153087958D01*
X116412041Y-152932142D01*
X116233760Y-152802613D01*
X116037410Y-152702567D01*
X115827836Y-152634473D01*
X115750000Y-152622144D01*
X115750000Y-153566988D01*
X115692993Y-153534075D01*
X115565826Y-153500000D01*
X115434174Y-153500000D01*
X115307007Y-153534075D01*
X115250000Y-153566988D01*
X115250000Y-152622144D01*
X115172164Y-152634473D01*
X115172161Y-152634473D01*
X114962589Y-152702567D01*
X114766239Y-152802613D01*
X114587958Y-152932142D01*
X114432142Y-153087958D01*
X114302613Y-153266239D01*
X114202567Y-153462589D01*
X114134473Y-153672161D01*
X114134473Y-153672164D01*
X114122145Y-153750000D01*
X109900000Y-153750000D01*
X109900000Y-153052172D01*
X109899999Y-153052155D01*
X109893598Y-152992627D01*
X109893596Y-152992620D01*
X109843354Y-152857913D01*
X109843350Y-152857906D01*
X109757190Y-152742812D01*
X109757187Y-152742809D01*
X109642093Y-152656649D01*
X109642086Y-152656645D01*
X109507379Y-152606403D01*
X109507372Y-152606401D01*
X109447844Y-152600000D01*
X108750000Y-152600000D01*
X108750000Y-153566988D01*
X108692993Y-153534075D01*
X108565826Y-153500000D01*
X108434174Y-153500000D01*
X108307007Y-153534075D01*
X108250000Y-153566988D01*
X108250000Y-152600000D01*
X107552155Y-152600000D01*
X107492627Y-152606401D01*
X107492620Y-152606403D01*
X107357913Y-152656645D01*
X107357906Y-152656649D01*
X107242812Y-152742809D01*
X107242809Y-152742812D01*
X107156649Y-152857906D01*
X107156645Y-152857913D01*
X107106403Y-152992620D01*
X107106401Y-152992627D01*
X107100000Y-153052155D01*
X100300500Y-153052155D01*
X100300500Y-149750000D01*
X102520898Y-149750000D01*
X103791759Y-149750000D01*
X103778822Y-149781233D01*
X103750000Y-149926131D01*
X103750000Y-150073869D01*
X103778822Y-150218767D01*
X103791759Y-150250000D01*
X102520898Y-150250000D01*
X102536934Y-150351247D01*
X102609897Y-150575802D01*
X102717085Y-150786171D01*
X102855866Y-150977186D01*
X103022813Y-151144133D01*
X103213828Y-151282914D01*
X103424197Y-151390102D01*
X103648752Y-151463065D01*
X103648751Y-151463065D01*
X103881948Y-151500000D01*
X104250000Y-151500000D01*
X104250000Y-150708240D01*
X104281233Y-150721178D01*
X104426131Y-150750000D01*
X104573869Y-150750000D01*
X104718767Y-150721178D01*
X104750000Y-150708240D01*
X104750000Y-151500000D01*
X105118052Y-151500000D01*
X105351247Y-151463065D01*
X105575802Y-151390102D01*
X105786171Y-151282914D01*
X105977185Y-151144133D01*
X105992730Y-151128589D01*
X106054053Y-151095102D01*
X106123744Y-151100085D01*
X106153299Y-151115950D01*
X106220539Y-151164802D01*
X106265978Y-151197815D01*
X106390663Y-151261346D01*
X106462393Y-151297895D01*
X106462396Y-151297896D01*
X106504897Y-151311705D01*
X106672049Y-151366015D01*
X106889778Y-151400500D01*
X106889779Y-151400500D01*
X107110221Y-151400500D01*
X107110222Y-151400500D01*
X107327951Y-151366015D01*
X107537606Y-151297895D01*
X107734022Y-151197815D01*
X107912365Y-151068242D01*
X108068242Y-150912365D01*
X108197815Y-150734022D01*
X108297895Y-150537606D01*
X108366015Y-150327951D01*
X108400500Y-150110222D01*
X108400500Y-149889778D01*
X108366015Y-149672049D01*
X108327409Y-149553231D01*
X108297896Y-149462396D01*
X108297895Y-149462393D01*
X108253110Y-149374500D01*
X108197815Y-149265978D01*
X108119523Y-149158217D01*
X108068247Y-149087641D01*
X108068243Y-149087636D01*
X107912363Y-148931756D01*
X107912358Y-148931752D01*
X107734023Y-148802185D01*
X107686878Y-148778163D01*
X107685639Y-148776993D01*
X107683972Y-148776634D01*
X107660319Y-148753078D01*
X107636083Y-148730188D01*
X107635286Y-148728149D01*
X107634465Y-148727331D01*
X107627564Y-148708374D01*
X107622063Y-148694288D01*
X107621793Y-148693060D01*
X107601463Y-148590849D01*
X107601154Y-148590104D01*
X107577797Y-148533713D01*
X107554312Y-148477015D01*
X107523915Y-148431523D01*
X107523911Y-148431517D01*
X107519694Y-148425205D01*
X107498820Y-148358526D01*
X107498800Y-148356320D01*
X107498800Y-141424499D01*
X107518485Y-141357460D01*
X107571289Y-141311705D01*
X107622800Y-141300499D01*
X108377200Y-141300499D01*
X108444239Y-141320184D01*
X108489994Y-141372988D01*
X108501200Y-141424499D01*
X108501200Y-145961607D01*
X108503206Y-145971694D01*
X108505267Y-145982051D01*
X108525237Y-146082452D01*
X108532299Y-146099500D01*
X108535982Y-146108393D01*
X108535984Y-146108399D01*
X108572385Y-146196280D01*
X108572390Y-146196289D01*
X108601104Y-146239261D01*
X108601105Y-146239263D01*
X108640841Y-146298732D01*
X108640844Y-146298736D01*
X108732286Y-146390178D01*
X108732308Y-146390198D01*
X111093227Y-148751117D01*
X111126712Y-148812440D01*
X111121728Y-148882132D01*
X111090104Y-148927337D01*
X111091080Y-148928313D01*
X110931756Y-149087636D01*
X110931752Y-149087641D01*
X110802187Y-149265974D01*
X110702104Y-149462393D01*
X110702103Y-149462396D01*
X110633985Y-149672047D01*
X110599500Y-149889778D01*
X110599500Y-150110221D01*
X110633985Y-150327952D01*
X110702103Y-150537603D01*
X110702104Y-150537606D01*
X110766833Y-150664641D01*
X110781387Y-150693205D01*
X110802187Y-150734025D01*
X110931752Y-150912358D01*
X110931756Y-150912363D01*
X111087636Y-151068243D01*
X111087641Y-151068247D01*
X111220539Y-151164802D01*
X111265978Y-151197815D01*
X111390663Y-151261346D01*
X111462393Y-151297895D01*
X111462396Y-151297896D01*
X111504897Y-151311705D01*
X111672049Y-151366015D01*
X111889778Y-151400500D01*
X111889779Y-151400500D01*
X112110221Y-151400500D01*
X112110222Y-151400500D01*
X112327951Y-151366015D01*
X112537606Y-151297895D01*
X112734022Y-151197815D01*
X112912365Y-151068242D01*
X113068242Y-150912365D01*
X113197815Y-150734022D01*
X113297895Y-150537606D01*
X113366015Y-150327951D01*
X113373372Y-150281496D01*
X113403300Y-150218365D01*
X113462612Y-150181433D01*
X113532474Y-150182431D01*
X113583524Y-150213215D01*
X113769041Y-150398732D01*
X113769042Y-150398733D01*
X113816798Y-150446489D01*
X113856168Y-150485859D01*
X113933613Y-150537606D01*
X113933612Y-150537606D01*
X113958612Y-150554310D01*
X113958613Y-150554310D01*
X113958614Y-150554311D01*
X114072448Y-150601463D01*
X114193288Y-150625499D01*
X114193292Y-150625500D01*
X114193293Y-150625500D01*
X114193294Y-150625500D01*
X115670903Y-150625500D01*
X115737942Y-150645185D01*
X115781388Y-150693205D01*
X115802187Y-150734026D01*
X115931752Y-150912358D01*
X115931756Y-150912363D01*
X116087636Y-151068243D01*
X116087641Y-151068247D01*
X116220539Y-151164802D01*
X116265978Y-151197815D01*
X116390663Y-151261346D01*
X116462393Y-151297895D01*
X116462396Y-151297896D01*
X116504897Y-151311705D01*
X116672049Y-151366015D01*
X116889778Y-151400500D01*
X116889779Y-151400500D01*
X117110221Y-151400500D01*
X117110222Y-151400500D01*
X117327951Y-151366015D01*
X117537606Y-151297895D01*
X117734022Y-151197815D01*
X117846704Y-151115947D01*
X117912505Y-151092469D01*
X117980559Y-151108294D01*
X118007266Y-151128586D01*
X118022813Y-151144133D01*
X118213828Y-151282914D01*
X118424197Y-151390102D01*
X118648752Y-151463065D01*
X118648751Y-151463065D01*
X118881948Y-151500000D01*
X119250000Y-151500000D01*
X119250000Y-150708240D01*
X119281233Y-150721178D01*
X119426131Y-150750000D01*
X119573869Y-150750000D01*
X119718767Y-150721178D01*
X119750000Y-150708240D01*
X119750000Y-151500000D01*
X120118052Y-151500000D01*
X120351247Y-151463065D01*
X120575802Y-151390102D01*
X120786171Y-151282914D01*
X120977186Y-151144133D01*
X121144133Y-150977186D01*
X121282914Y-150786171D01*
X121390102Y-150575802D01*
X121463065Y-150351247D01*
X121479102Y-150250000D01*
X120208241Y-150250000D01*
X120221178Y-150218767D01*
X120250000Y-150073869D01*
X120250000Y-149926131D01*
X120221178Y-149781233D01*
X120208241Y-149750000D01*
X121479102Y-149750000D01*
X121463065Y-149648752D01*
X121390102Y-149424197D01*
X121282914Y-149213828D01*
X121144133Y-149022813D01*
X120977186Y-148855866D01*
X120786171Y-148717085D01*
X120575802Y-148609897D01*
X120351247Y-148536934D01*
X120351248Y-148536934D01*
X120118052Y-148500000D01*
X119750000Y-148500000D01*
X119750000Y-149291759D01*
X119718767Y-149278822D01*
X119573869Y-149250000D01*
X119426131Y-149250000D01*
X119281233Y-149278822D01*
X119250000Y-149291759D01*
X119250000Y-148500000D01*
X118881948Y-148500000D01*
X118648752Y-148536934D01*
X118424197Y-148609897D01*
X118213825Y-148717087D01*
X118022819Y-148855860D01*
X118007264Y-148871415D01*
X117945940Y-148904898D01*
X117876248Y-148899912D01*
X117846700Y-148884049D01*
X117734025Y-148802187D01*
X117734024Y-148802186D01*
X117734022Y-148802185D01*
X117643784Y-148756206D01*
X117537606Y-148702104D01*
X117537603Y-148702103D01*
X117327952Y-148633985D01*
X117219086Y-148616742D01*
X117110222Y-148599500D01*
X116889778Y-148599500D01*
X116824134Y-148609897D01*
X116672047Y-148633985D01*
X116462396Y-148702103D01*
X116462393Y-148702104D01*
X116265974Y-148802187D01*
X116087641Y-148931752D01*
X116087636Y-148931756D01*
X115931756Y-149087636D01*
X115931752Y-149087641D01*
X115802187Y-149265973D01*
X115781388Y-149306795D01*
X115733414Y-149357591D01*
X115670903Y-149374500D01*
X114565353Y-149374500D01*
X114498314Y-149354815D01*
X114477672Y-149338181D01*
X112591896Y-147452405D01*
X112558411Y-147391082D01*
X112563395Y-147321390D01*
X112605267Y-147265457D01*
X112623274Y-147254244D01*
X112734022Y-147197815D01*
X112912365Y-147068242D01*
X113068242Y-146912365D01*
X113197815Y-146734022D01*
X113297895Y-146537606D01*
X113366015Y-146327951D01*
X113400500Y-146110222D01*
X113400500Y-145889778D01*
X113366015Y-145672049D01*
X113297895Y-145462394D01*
X113297895Y-145462393D01*
X113254735Y-145377688D01*
X113197815Y-145265978D01*
X113164561Y-145220208D01*
X113068247Y-145087641D01*
X113068243Y-145087636D01*
X112912363Y-144931756D01*
X112912358Y-144931752D01*
X112734023Y-144802185D01*
X112693204Y-144781386D01*
X112642408Y-144733411D01*
X112625500Y-144670902D01*
X112625500Y-139897648D01*
X116859500Y-139897648D01*
X116859500Y-140102351D01*
X116891522Y-140304534D01*
X116954781Y-140499223D01*
X117003073Y-140593999D01*
X117035510Y-140657661D01*
X117047715Y-140681613D01*
X117168028Y-140847213D01*
X117312786Y-140991971D01*
X117441969Y-141085826D01*
X117478390Y-141112287D01*
X117547482Y-141147491D01*
X117660776Y-141205218D01*
X117660778Y-141205218D01*
X117660781Y-141205220D01*
X117765137Y-141239127D01*
X117855465Y-141268477D01*
X117937354Y-141281447D01*
X118057648Y-141300500D01*
X118057649Y-141300500D01*
X118262351Y-141300500D01*
X118262352Y-141300500D01*
X118464534Y-141268477D01*
X118659219Y-141205220D01*
X118841610Y-141112287D01*
X118955911Y-141029243D01*
X119007213Y-140991971D01*
X119007215Y-140991968D01*
X119007219Y-140991966D01*
X119151966Y-140847219D01*
X119151968Y-140847215D01*
X119151971Y-140847213D01*
X119249486Y-140712993D01*
X119272287Y-140681610D01*
X119365220Y-140499219D01*
X119428477Y-140304534D01*
X119460500Y-140102352D01*
X119460500Y-139897648D01*
X119449338Y-139827177D01*
X119428477Y-139695465D01*
X119365218Y-139500776D01*
X119324869Y-139421588D01*
X119272287Y-139318390D01*
X119264556Y-139307749D01*
X119151971Y-139152786D01*
X119007213Y-139008028D01*
X118841613Y-138887715D01*
X118841612Y-138887714D01*
X118841610Y-138887713D01*
X118784053Y-138858386D01*
X118659223Y-138794781D01*
X118464534Y-138731522D01*
X118289995Y-138703878D01*
X118262352Y-138699500D01*
X118057648Y-138699500D01*
X118033329Y-138703351D01*
X117855465Y-138731522D01*
X117660776Y-138794781D01*
X117478386Y-138887715D01*
X117312786Y-139008028D01*
X117168028Y-139152786D01*
X117047715Y-139318386D01*
X116954781Y-139500776D01*
X116891522Y-139695465D01*
X116859500Y-139897648D01*
X112625500Y-139897648D01*
X112625500Y-121320653D01*
X115142000Y-121320653D01*
X115142000Y-121478346D01*
X115172761Y-121632989D01*
X115172764Y-121633001D01*
X115233102Y-121778672D01*
X115233109Y-121778685D01*
X115320710Y-121909788D01*
X115320713Y-121909792D01*
X115432207Y-122021286D01*
X115432211Y-122021289D01*
X115563314Y-122108890D01*
X115563327Y-122108897D01*
X115706125Y-122168045D01*
X115709003Y-122169237D01*
X115863653Y-122199999D01*
X115863656Y-122200000D01*
X115863658Y-122200000D01*
X116021344Y-122200000D01*
X116021345Y-122199999D01*
X116175997Y-122169237D01*
X116236348Y-122144238D01*
X116305817Y-122136770D01*
X116368296Y-122168045D01*
X116403948Y-122228134D01*
X116407800Y-122258800D01*
X116407800Y-132808210D01*
X116431835Y-132929044D01*
X116431838Y-132929054D01*
X116443869Y-132958101D01*
X116443872Y-132958107D01*
X116445647Y-132962392D01*
X116478988Y-133042886D01*
X116506298Y-133083757D01*
X116525831Y-133112990D01*
X116547440Y-133145331D01*
X116547441Y-133145332D01*
X116547442Y-133145333D01*
X116634567Y-133232458D01*
X116634568Y-133232458D01*
X116641635Y-133239525D01*
X116641634Y-133239525D01*
X116641637Y-133239527D01*
X117273782Y-133871672D01*
X117307266Y-133932994D01*
X117302282Y-134002686D01*
X117273782Y-134047033D01*
X117168027Y-134152788D01*
X117047715Y-134318386D01*
X116954781Y-134500776D01*
X116891522Y-134695465D01*
X116859500Y-134897648D01*
X116859500Y-135102351D01*
X116891522Y-135304534D01*
X116954781Y-135499223D01*
X117047715Y-135681613D01*
X117168028Y-135847213D01*
X117312786Y-135991971D01*
X117451179Y-136092517D01*
X117478390Y-136112287D01*
X117577849Y-136162964D01*
X117660776Y-136205218D01*
X117660778Y-136205218D01*
X117660781Y-136205220D01*
X117765137Y-136239127D01*
X117855465Y-136268477D01*
X117956557Y-136284488D01*
X118057648Y-136300500D01*
X118057649Y-136300500D01*
X118262351Y-136300500D01*
X118262352Y-136300500D01*
X118464534Y-136268477D01*
X118659219Y-136205220D01*
X118841610Y-136112287D01*
X118956751Y-136028633D01*
X119007213Y-135991971D01*
X119007215Y-135991968D01*
X119007219Y-135991966D01*
X119151966Y-135847219D01*
X119151968Y-135847215D01*
X119151971Y-135847213D01*
X119207085Y-135771353D01*
X119272287Y-135681610D01*
X119365220Y-135499219D01*
X119428477Y-135304534D01*
X119460500Y-135102352D01*
X119460500Y-134897648D01*
X119442650Y-134784949D01*
X119428477Y-134695465D01*
X119384304Y-134559516D01*
X119365220Y-134500781D01*
X119365218Y-134500778D01*
X119365218Y-134500776D01*
X119329014Y-134429723D01*
X119272287Y-134318390D01*
X119244002Y-134279459D01*
X119151971Y-134152786D01*
X119007213Y-134008028D01*
X118841616Y-133887716D01*
X118841176Y-133887447D01*
X118841043Y-133887300D01*
X118837669Y-133884849D01*
X118838184Y-133884139D01*
X118794301Y-133835634D01*
X118784350Y-133805913D01*
X118761463Y-133690848D01*
X118714311Y-133577014D01*
X118714310Y-133577013D01*
X118714307Y-133577007D01*
X118645859Y-133474568D01*
X118632463Y-133461172D01*
X118558733Y-133387442D01*
X118558732Y-133387441D01*
X117695119Y-132523828D01*
X117661634Y-132462505D01*
X117658800Y-132436147D01*
X117658800Y-131375248D01*
X117678485Y-131308209D01*
X117731289Y-131262454D01*
X117800447Y-131252510D01*
X117821119Y-131257317D01*
X117855465Y-131268477D01*
X117956557Y-131284488D01*
X118057648Y-131300500D01*
X118057649Y-131300500D01*
X118262351Y-131300500D01*
X118262352Y-131300500D01*
X118464534Y-131268477D01*
X118659219Y-131205220D01*
X118841610Y-131112287D01*
X118954861Y-131030006D01*
X119007213Y-130991971D01*
X119007215Y-130991968D01*
X119007219Y-130991966D01*
X119151966Y-130847219D01*
X119151968Y-130847215D01*
X119151971Y-130847213D01*
X119204732Y-130774590D01*
X119272287Y-130681610D01*
X119365220Y-130499219D01*
X119428477Y-130304534D01*
X119460500Y-130102352D01*
X119460500Y-129897648D01*
X119428477Y-129695466D01*
X119414520Y-129652512D01*
X119392484Y-129584692D01*
X119365220Y-129500781D01*
X119365218Y-129500778D01*
X119365218Y-129500776D01*
X119320551Y-129413114D01*
X119272287Y-129318390D01*
X119264556Y-129307749D01*
X119151971Y-129152786D01*
X119046218Y-129047033D01*
X119012733Y-128985710D01*
X119017717Y-128916018D01*
X119046215Y-128871674D01*
X119772557Y-128145334D01*
X119785054Y-128126632D01*
X119841011Y-128042886D01*
X119888163Y-127929052D01*
X119891034Y-127914615D01*
X119902921Y-127854862D01*
X119912200Y-127808207D01*
X119912200Y-112191793D01*
X119912199Y-112191789D01*
X119888164Y-112070955D01*
X119888163Y-112070948D01*
X119841011Y-111957114D01*
X119841010Y-111957113D01*
X119841007Y-111957107D01*
X119772559Y-111854668D01*
X119733203Y-111815312D01*
X119685433Y-111767542D01*
X119685432Y-111767541D01*
X119046219Y-111128328D01*
X119012734Y-111067005D01*
X119017718Y-110997313D01*
X119046219Y-110952966D01*
X119091703Y-110907482D01*
X119151966Y-110847219D01*
X119151968Y-110847215D01*
X119151971Y-110847213D01*
X119216429Y-110758493D01*
X119272287Y-110681610D01*
X119365220Y-110499219D01*
X119428477Y-110304534D01*
X119460500Y-110102352D01*
X119460500Y-109897648D01*
X119453563Y-109853853D01*
X119428477Y-109695465D01*
X119382354Y-109553514D01*
X119365220Y-109500781D01*
X119365218Y-109500778D01*
X119365218Y-109500776D01*
X119308826Y-109390102D01*
X119272287Y-109318390D01*
X119264556Y-109307749D01*
X119151971Y-109152786D01*
X119007213Y-109008028D01*
X118841613Y-108887715D01*
X118841612Y-108887714D01*
X118841610Y-108887713D01*
X118784653Y-108858691D01*
X118659223Y-108794781D01*
X118464534Y-108731522D01*
X118289995Y-108703878D01*
X118262352Y-108699500D01*
X118057648Y-108699500D01*
X118033329Y-108703351D01*
X117855465Y-108731522D01*
X117660776Y-108794781D01*
X117478386Y-108887715D01*
X117312786Y-109008028D01*
X117168028Y-109152786D01*
X117047715Y-109318386D01*
X116954781Y-109500776D01*
X116891522Y-109695465D01*
X116859500Y-109897648D01*
X116859500Y-110102351D01*
X116891522Y-110304534D01*
X116954781Y-110499223D01*
X117009099Y-110605826D01*
X117029714Y-110646286D01*
X117047715Y-110681613D01*
X117168028Y-110847213D01*
X117168034Y-110847219D01*
X117312781Y-110991966D01*
X117478390Y-111112287D01*
X117478392Y-111112288D01*
X117478395Y-111112290D01*
X117478810Y-111112544D01*
X117478934Y-111112681D01*
X117482332Y-111115150D01*
X117481813Y-111115863D01*
X117498843Y-111134681D01*
X117520695Y-111155040D01*
X117523210Y-111161609D01*
X117525691Y-111164350D01*
X117534191Y-111187652D01*
X117535005Y-111190848D01*
X117558537Y-111309152D01*
X117572347Y-111342492D01*
X117575750Y-111350708D01*
X117575751Y-111350711D01*
X117605685Y-111422980D01*
X117605690Y-111422989D01*
X117639914Y-111474207D01*
X117639915Y-111474209D01*
X117674140Y-111525431D01*
X117674141Y-111525432D01*
X117674142Y-111525433D01*
X117761267Y-111612558D01*
X117761268Y-111612558D01*
X117768335Y-111619625D01*
X117768334Y-111619625D01*
X117768338Y-111619628D01*
X118624881Y-112476171D01*
X118658366Y-112537494D01*
X118661200Y-112563852D01*
X118661200Y-113624751D01*
X118641515Y-113691790D01*
X118588711Y-113737545D01*
X118519553Y-113747489D01*
X118498884Y-113742683D01*
X118464535Y-113731523D01*
X118302816Y-113705909D01*
X118262352Y-113699500D01*
X118057648Y-113699500D01*
X118033329Y-113703351D01*
X117855465Y-113731522D01*
X117660776Y-113794781D01*
X117478386Y-113887715D01*
X117312786Y-114008028D01*
X117168028Y-114152786D01*
X117047715Y-114318386D01*
X116954781Y-114500776D01*
X116891522Y-114695465D01*
X116859500Y-114897648D01*
X116859500Y-115102351D01*
X116891522Y-115304534D01*
X116954781Y-115499223D01*
X116990900Y-115570109D01*
X117047712Y-115681609D01*
X117047715Y-115681613D01*
X117168028Y-115847213D01*
X117273780Y-115952965D01*
X117307265Y-116014288D01*
X117302281Y-116083980D01*
X117273780Y-116128327D01*
X116634569Y-116767540D01*
X116547444Y-116854664D01*
X116547438Y-116854672D01*
X116513214Y-116905889D01*
X116513215Y-116905890D01*
X116478991Y-116957108D01*
X116478987Y-116957115D01*
X116459176Y-117004947D01*
X116459175Y-117004949D01*
X116431838Y-117070945D01*
X116431835Y-117070955D01*
X116407800Y-117191789D01*
X116407800Y-120540199D01*
X116388115Y-120607238D01*
X116335311Y-120652993D01*
X116266153Y-120662937D01*
X116236349Y-120654761D01*
X116186646Y-120634174D01*
X116175997Y-120629763D01*
X116175993Y-120629762D01*
X116175989Y-120629761D01*
X116021345Y-120599000D01*
X116021342Y-120599000D01*
X115863658Y-120599000D01*
X115863655Y-120599000D01*
X115709010Y-120629761D01*
X115708998Y-120629764D01*
X115563327Y-120690102D01*
X115563314Y-120690109D01*
X115432211Y-120777710D01*
X115432207Y-120777713D01*
X115320713Y-120889207D01*
X115320710Y-120889211D01*
X115233109Y-121020314D01*
X115233102Y-121020327D01*
X115172764Y-121165998D01*
X115172761Y-121166010D01*
X115142000Y-121320653D01*
X112625500Y-121320653D01*
X112625500Y-120065093D01*
X112625499Y-120065089D01*
X112616550Y-120020099D01*
X112601463Y-119944248D01*
X112554311Y-119830414D01*
X112554310Y-119830413D01*
X112554307Y-119830407D01*
X112485858Y-119727967D01*
X112485855Y-119727963D01*
X112395637Y-119637745D01*
X112395606Y-119637716D01*
X109120275Y-116362385D01*
X109086790Y-116301062D01*
X109091774Y-116231370D01*
X109133645Y-116175438D01*
X109157546Y-116157546D01*
X109243796Y-116042331D01*
X109294091Y-115907483D01*
X109300500Y-115847873D01*
X109300499Y-114152128D01*
X109294091Y-114092517D01*
X109274503Y-114040000D01*
X109243797Y-113957671D01*
X109243793Y-113957664D01*
X109157547Y-113842455D01*
X109157544Y-113842452D01*
X109042335Y-113756206D01*
X109042328Y-113756202D01*
X108907482Y-113705908D01*
X108907483Y-113705908D01*
X108847883Y-113699501D01*
X108847881Y-113699500D01*
X108847873Y-113699500D01*
X108847865Y-113699500D01*
X107622800Y-113699500D01*
X107555761Y-113679815D01*
X107510006Y-113627011D01*
X107498800Y-113575500D01*
X107498800Y-112563852D01*
X107518485Y-112496813D01*
X107535119Y-112476171D01*
X108485854Y-111525437D01*
X108485857Y-111525434D01*
X108515156Y-111481585D01*
X108554311Y-111422986D01*
X108573340Y-111377047D01*
X108617181Y-111322643D01*
X108683475Y-111300578D01*
X108687901Y-111300499D01*
X108847871Y-111300499D01*
X108847872Y-111300499D01*
X108907483Y-111294091D01*
X109042331Y-111243796D01*
X109157546Y-111157546D01*
X109243796Y-111042331D01*
X109294091Y-110907483D01*
X109300500Y-110847873D01*
X109300499Y-109152128D01*
X109294091Y-109092517D01*
X109293930Y-109092086D01*
X109243797Y-108957671D01*
X109243793Y-108957664D01*
X109157547Y-108842455D01*
X109157544Y-108842452D01*
X109042335Y-108756206D01*
X109042328Y-108756202D01*
X108907482Y-108705908D01*
X108907483Y-108705908D01*
X108847883Y-108699501D01*
X108847881Y-108699500D01*
X108847873Y-108699500D01*
X108847864Y-108699500D01*
X107152129Y-108699500D01*
X107152123Y-108699501D01*
X107092516Y-108705908D01*
X106957671Y-108756202D01*
X106957664Y-108756206D01*
X106842455Y-108842452D01*
X106842452Y-108842455D01*
X106756206Y-108957664D01*
X106756202Y-108957671D01*
X106705908Y-109092517D01*
X106701642Y-109132200D01*
X106699501Y-109152123D01*
X106699500Y-109152135D01*
X106699500Y-110847870D01*
X106699501Y-110847876D01*
X106705908Y-110907483D01*
X106756202Y-111042328D01*
X106756206Y-111042335D01*
X106842452Y-111157544D01*
X106842454Y-111157546D01*
X106866355Y-111175439D01*
X106908225Y-111231373D01*
X106913208Y-111301065D01*
X106879723Y-111362385D01*
X106672386Y-111569723D01*
X106474569Y-111767540D01*
X106474567Y-111767542D01*
X106450552Y-111791557D01*
X106387442Y-111854666D01*
X106363499Y-111890500D01*
X106363498Y-111890499D01*
X106318986Y-111957116D01*
X106318985Y-111957118D01*
X106285647Y-112037607D01*
X106280559Y-112049890D01*
X106271837Y-112070945D01*
X106271835Y-112070953D01*
X106247800Y-112191789D01*
X106247800Y-148708208D01*
X106250942Y-148724004D01*
X106249372Y-148741545D01*
X106252870Y-148758807D01*
X106246323Y-148775622D01*
X106244715Y-148793596D01*
X106233870Y-148807607D01*
X106227521Y-148823916D01*
X106202210Y-148848514D01*
X106153299Y-148884050D01*
X106087493Y-148907530D01*
X106019439Y-148891705D01*
X105992733Y-148871413D01*
X105977186Y-148855866D01*
X105786171Y-148717085D01*
X105575802Y-148609897D01*
X105351247Y-148536934D01*
X105351248Y-148536934D01*
X105118052Y-148500000D01*
X104750000Y-148500000D01*
X104750000Y-149291759D01*
X104718767Y-149278822D01*
X104573869Y-149250000D01*
X104426131Y-149250000D01*
X104281233Y-149278822D01*
X104250000Y-149291759D01*
X104250000Y-148500000D01*
X103881948Y-148500000D01*
X103648752Y-148536934D01*
X103424197Y-148609897D01*
X103213828Y-148717085D01*
X103022813Y-148855866D01*
X102855866Y-149022813D01*
X102717085Y-149213828D01*
X102609897Y-149424197D01*
X102536934Y-149648752D01*
X102520898Y-149750000D01*
X100300500Y-149750000D01*
X100300500Y-107750000D01*
X113520898Y-107750000D01*
X114566988Y-107750000D01*
X114534075Y-107807007D01*
X114500000Y-107934174D01*
X114500000Y-108065826D01*
X114534075Y-108192993D01*
X114566988Y-108250000D01*
X113520898Y-108250000D01*
X113536934Y-108351247D01*
X113609897Y-108575802D01*
X113717085Y-108786171D01*
X113855866Y-108977186D01*
X114022813Y-109144133D01*
X114213828Y-109282914D01*
X114424195Y-109390102D01*
X114648744Y-109463063D01*
X114648750Y-109463065D01*
X114750000Y-109479101D01*
X114750000Y-108433012D01*
X114807007Y-108465925D01*
X114934174Y-108500000D01*
X115065826Y-108500000D01*
X115192993Y-108465925D01*
X115250000Y-108433012D01*
X115250000Y-109479100D01*
X115351249Y-109463065D01*
X115351255Y-109463063D01*
X115575804Y-109390102D01*
X115786171Y-109282914D01*
X115977186Y-109144133D01*
X116144133Y-108977186D01*
X116282914Y-108786171D01*
X116390102Y-108575802D01*
X116463065Y-108351247D01*
X116479102Y-108250000D01*
X115433012Y-108250000D01*
X115465925Y-108192993D01*
X115500000Y-108065826D01*
X115500000Y-107934174D01*
X115465925Y-107807007D01*
X115433012Y-107750000D01*
X116479102Y-107750000D01*
X116463065Y-107648752D01*
X116390102Y-107424197D01*
X116282914Y-107213828D01*
X116252333Y-107171737D01*
X116252332Y-107171735D01*
X116144138Y-107022819D01*
X116144133Y-107022813D01*
X115977186Y-106855866D01*
X115786171Y-106717085D01*
X115575802Y-106609897D01*
X115351247Y-106536934D01*
X115250000Y-106520897D01*
X115250000Y-107566988D01*
X115192993Y-107534075D01*
X115065826Y-107500000D01*
X114934174Y-107500000D01*
X114807007Y-107534075D01*
X114750000Y-107566988D01*
X114750000Y-106520897D01*
X114648752Y-106536934D01*
X114424197Y-106609897D01*
X114213828Y-106717085D01*
X114022813Y-106855866D01*
X113855866Y-107022813D01*
X113717085Y-107213828D01*
X113609897Y-107424197D01*
X113536934Y-107648752D01*
X113520898Y-107750000D01*
X100300500Y-107750000D01*
X100300500Y-105550318D01*
X100320185Y-105483279D01*
X100372989Y-105437524D01*
X100442147Y-105427580D01*
X100505703Y-105456605D01*
X100512181Y-105462637D01*
X100646367Y-105596823D01*
X100646372Y-105596827D01*
X100646373Y-105596828D01*
X100912240Y-105815019D01*
X101198213Y-106006100D01*
X101198222Y-106006105D01*
X101198224Y-106006106D01*
X101501530Y-106168227D01*
X101501532Y-106168227D01*
X101501538Y-106168231D01*
X101819295Y-106299850D01*
X102148422Y-106399690D01*
X102485750Y-106466789D01*
X102828031Y-106500500D01*
X102828034Y-106500500D01*
X103171966Y-106500500D01*
X103171969Y-106500500D01*
X103514250Y-106466789D01*
X103851578Y-106399690D01*
X104180705Y-106299850D01*
X104498462Y-106168231D01*
X104801787Y-106006100D01*
X105087760Y-105815019D01*
X105353627Y-105596828D01*
X105596828Y-105353627D01*
X105815019Y-105087760D01*
X106006100Y-104801787D01*
X106168231Y-104498462D01*
X106299850Y-104180705D01*
X106399690Y-103851578D01*
X106466789Y-103514250D01*
X106500500Y-103171969D01*
X106500500Y-102828031D01*
X106466789Y-102485750D01*
X106399690Y-102148422D01*
X106340147Y-101952135D01*
X110499500Y-101952135D01*
X110499500Y-104047870D01*
X110499501Y-104047876D01*
X110505908Y-104107483D01*
X110556202Y-104242328D01*
X110556206Y-104242335D01*
X110642452Y-104357544D01*
X110642455Y-104357547D01*
X110757664Y-104443793D01*
X110757671Y-104443797D01*
X110892517Y-104494091D01*
X110892516Y-104494091D01*
X110899444Y-104494835D01*
X110952127Y-104500500D01*
X113047872Y-104500499D01*
X113107483Y-104494091D01*
X113242331Y-104443796D01*
X113357546Y-104357546D01*
X113443796Y-104242331D01*
X113494091Y-104107483D01*
X113500500Y-104047873D01*
X113500499Y-102881902D01*
X116499500Y-102881902D01*
X116499500Y-103118097D01*
X116536446Y-103351368D01*
X116609433Y-103575996D01*
X116663114Y-103681349D01*
X116716657Y-103786433D01*
X116855483Y-103977510D01*
X117022490Y-104144517D01*
X117213567Y-104283343D01*
X117247236Y-104300498D01*
X117424003Y-104390566D01*
X117424005Y-104390566D01*
X117424008Y-104390568D01*
X117544412Y-104429689D01*
X117648631Y-104463553D01*
X117881903Y-104500500D01*
X117881908Y-104500500D01*
X118118097Y-104500500D01*
X118351368Y-104463553D01*
X118575992Y-104390568D01*
X118786433Y-104283343D01*
X118977510Y-104144517D01*
X119144517Y-103977510D01*
X119283343Y-103786433D01*
X119390568Y-103575992D01*
X119463553Y-103351368D01*
X119500500Y-103118097D01*
X119500500Y-102881902D01*
X119463553Y-102648631D01*
X119429689Y-102544412D01*
X119390568Y-102424008D01*
X119390566Y-102424005D01*
X119390566Y-102424003D01*
X119283342Y-102213566D01*
X119238710Y-102152135D01*
X123699500Y-102152135D01*
X123699500Y-103847870D01*
X123699501Y-103847876D01*
X123705908Y-103907483D01*
X123756202Y-104042328D01*
X123756206Y-104042335D01*
X123842452Y-104157544D01*
X123842455Y-104157547D01*
X123957664Y-104243793D01*
X123957671Y-104243797D01*
X124092517Y-104294091D01*
X124092516Y-104294091D01*
X124099444Y-104294835D01*
X124152127Y-104300500D01*
X125847872Y-104300499D01*
X125907483Y-104294091D01*
X126042331Y-104243796D01*
X126157546Y-104157546D01*
X126164230Y-104148616D01*
X126220159Y-104106746D01*
X126289851Y-104101759D01*
X126319792Y-104112441D01*
X126500968Y-104204755D01*
X126695578Y-104267988D01*
X126750000Y-104276607D01*
X126750000Y-103315686D01*
X126754394Y-103320080D01*
X126845606Y-103372741D01*
X126947339Y-103400000D01*
X127052661Y-103400000D01*
X127154394Y-103372741D01*
X127245606Y-103320080D01*
X127250000Y-103315686D01*
X127250000Y-104276606D01*
X127304421Y-104267988D01*
X127499031Y-104204754D01*
X127681349Y-104111859D01*
X127846894Y-103991582D01*
X127846895Y-103991582D01*
X127991582Y-103846895D01*
X127991582Y-103846894D01*
X128111859Y-103681349D01*
X128204755Y-103499029D01*
X128267990Y-103304413D01*
X128276609Y-103250000D01*
X127315686Y-103250000D01*
X127320080Y-103245606D01*
X127372741Y-103154394D01*
X127400000Y-103052661D01*
X127400000Y-102947339D01*
X127372741Y-102845606D01*
X127320080Y-102754394D01*
X127315686Y-102750000D01*
X128276609Y-102750000D01*
X128267990Y-102695586D01*
X128204755Y-102500970D01*
X128111859Y-102318650D01*
X127991582Y-102153105D01*
X127991582Y-102153104D01*
X127846895Y-102008417D01*
X127681349Y-101888140D01*
X127499029Y-101795244D01*
X127304413Y-101732009D01*
X127250000Y-101723390D01*
X127250000Y-102684314D01*
X127245606Y-102679920D01*
X127154394Y-102627259D01*
X127052661Y-102600000D01*
X126947339Y-102600000D01*
X126845606Y-102627259D01*
X126754394Y-102679920D01*
X126750000Y-102684314D01*
X126750000Y-101723390D01*
X126695586Y-101732009D01*
X126500967Y-101795245D01*
X126319791Y-101887558D01*
X126251122Y-101900454D01*
X126186382Y-101874177D01*
X126164234Y-101851388D01*
X126157546Y-101842454D01*
X126126607Y-101819293D01*
X126042335Y-101756206D01*
X126042328Y-101756202D01*
X125907482Y-101705908D01*
X125907483Y-101705908D01*
X125847883Y-101699501D01*
X125847881Y-101699500D01*
X125847873Y-101699500D01*
X125847864Y-101699500D01*
X124152129Y-101699500D01*
X124152123Y-101699501D01*
X124092516Y-101705908D01*
X123957671Y-101756202D01*
X123957664Y-101756206D01*
X123842455Y-101842452D01*
X123842452Y-101842455D01*
X123756206Y-101957664D01*
X123756202Y-101957671D01*
X123705908Y-102092517D01*
X123699501Y-102152116D01*
X123699500Y-102152135D01*
X119238710Y-102152135D01*
X119144517Y-102022490D01*
X118977510Y-101855483D01*
X118786433Y-101716657D01*
X118765337Y-101705908D01*
X118575996Y-101609433D01*
X118351368Y-101536446D01*
X118118097Y-101499500D01*
X118118092Y-101499500D01*
X117881908Y-101499500D01*
X117881903Y-101499500D01*
X117648631Y-101536446D01*
X117424003Y-101609433D01*
X117213566Y-101716657D01*
X117157119Y-101757669D01*
X117022490Y-101855483D01*
X117022488Y-101855485D01*
X117022487Y-101855485D01*
X116855485Y-102022487D01*
X116855485Y-102022488D01*
X116855483Y-102022490D01*
X116804605Y-102092517D01*
X116716657Y-102213566D01*
X116609433Y-102424003D01*
X116536446Y-102648631D01*
X116499500Y-102881902D01*
X113500499Y-102881902D01*
X113500499Y-101952128D01*
X113494091Y-101892517D01*
X113492458Y-101888140D01*
X113443797Y-101757671D01*
X113443793Y-101757664D01*
X113357547Y-101642455D01*
X113357544Y-101642452D01*
X113242335Y-101556206D01*
X113242328Y-101556202D01*
X113107482Y-101505908D01*
X113107483Y-101505908D01*
X113047883Y-101499501D01*
X113047881Y-101499500D01*
X113047873Y-101499500D01*
X113047864Y-101499500D01*
X110952129Y-101499500D01*
X110952123Y-101499501D01*
X110892516Y-101505908D01*
X110757671Y-101556202D01*
X110757664Y-101556206D01*
X110642455Y-101642452D01*
X110642452Y-101642455D01*
X110556206Y-101757664D01*
X110556202Y-101757671D01*
X110505908Y-101892517D01*
X110499501Y-101952116D01*
X110499501Y-101952123D01*
X110499500Y-101952135D01*
X106340147Y-101952135D01*
X106299850Y-101819295D01*
X106168231Y-101501538D01*
X106006100Y-101198213D01*
X105815019Y-100912240D01*
X105596828Y-100646373D01*
X105596827Y-100646372D01*
X105596823Y-100646367D01*
X105462637Y-100512181D01*
X105429152Y-100450858D01*
X105434136Y-100381166D01*
X105476008Y-100325233D01*
X105541472Y-100300816D01*
X105550318Y-100300500D01*
X164449682Y-100300500D01*
X164470927Y-100306738D01*
G37*
%TD.AperFunction*%
%TA.AperFunction,Conductor*%
G36*
X164193039Y-148108485D02*
G01*
X164238794Y-148161289D01*
X164248554Y-148206153D01*
X164192993Y-148174075D01*
X164065826Y-148140000D01*
X163934174Y-148140000D01*
X163807007Y-148174075D01*
X163752054Y-148205801D01*
X163769685Y-148145761D01*
X163822489Y-148100006D01*
X163874000Y-148088800D01*
X164126000Y-148088800D01*
X164193039Y-148108485D01*
G37*
%TD.AperFunction*%
%TA.AperFunction,Conductor*%
G36*
X164250000Y-146713800D02*
G01*
X164247449Y-146722485D01*
X164248738Y-146731447D01*
X164237759Y-146755487D01*
X164230315Y-146780839D01*
X164223474Y-146786766D01*
X164219713Y-146795003D01*
X164197478Y-146809292D01*
X164177511Y-146826594D01*
X164166996Y-146828881D01*
X164160935Y-146832777D01*
X164126000Y-146837800D01*
X163939752Y-146837800D01*
X163872713Y-146818115D01*
X163852071Y-146801481D01*
X163786319Y-146735729D01*
X163752834Y-146674406D01*
X163750000Y-146648048D01*
X163750000Y-146533012D01*
X163807007Y-146565925D01*
X163934174Y-146600000D01*
X164065826Y-146600000D01*
X164192993Y-146565925D01*
X164250000Y-146533012D01*
X164250000Y-146713800D01*
G37*
%TD.AperFunction*%
%TA.AperFunction,Conductor*%
G36*
X164250000Y-145666988D02*
G01*
X164192993Y-145634075D01*
X164065826Y-145600000D01*
X163934174Y-145600000D01*
X163807007Y-145634075D01*
X163750000Y-145666988D01*
X163750000Y-143993012D01*
X163807007Y-144025925D01*
X163934174Y-144060000D01*
X164065826Y-144060000D01*
X164192993Y-144025925D01*
X164250000Y-143993012D01*
X164250000Y-145666988D01*
G37*
%TD.AperFunction*%
%TA.AperFunction,Conductor*%
G36*
X158990703Y-138559939D02*
G01*
X158997181Y-138565971D01*
X162954920Y-142523710D01*
X162988405Y-142585033D01*
X162983421Y-142654725D01*
X162967558Y-142684276D01*
X162845376Y-142852446D01*
X162748904Y-143041782D01*
X162683242Y-143243870D01*
X162683242Y-143243873D01*
X162672769Y-143310000D01*
X163566988Y-143310000D01*
X163534075Y-143367007D01*
X163500000Y-143494174D01*
X163500000Y-143625826D01*
X163534075Y-143752993D01*
X163566988Y-143810000D01*
X162672769Y-143810000D01*
X162683242Y-143876126D01*
X162683242Y-143876129D01*
X162748904Y-144078217D01*
X162845379Y-144267557D01*
X162970272Y-144439459D01*
X162970276Y-144439464D01*
X163120535Y-144589723D01*
X163120540Y-144589727D01*
X163292444Y-144714622D01*
X163302048Y-144719516D01*
X163352844Y-144767491D01*
X163369638Y-144835312D01*
X163347100Y-144901447D01*
X163302048Y-144940484D01*
X163292444Y-144945377D01*
X163120540Y-145070272D01*
X163120535Y-145070276D01*
X162970276Y-145220535D01*
X162970272Y-145220540D01*
X162845377Y-145392444D01*
X162787052Y-145506912D01*
X162739078Y-145557707D01*
X162671256Y-145574502D01*
X162605122Y-145551964D01*
X162588887Y-145538297D01*
X158821819Y-141771229D01*
X158788334Y-141709906D01*
X158785500Y-141683548D01*
X158785500Y-138653652D01*
X158805185Y-138586613D01*
X158857989Y-138540858D01*
X158927147Y-138530914D01*
X158990703Y-138559939D01*
G37*
%TD.AperFunction*%
%TA.AperFunction,Conductor*%
G36*
X164193039Y-143028485D02*
G01*
X164238794Y-143081289D01*
X164248554Y-143126153D01*
X164192993Y-143094075D01*
X164065826Y-143060000D01*
X163934174Y-143060000D01*
X163807007Y-143094075D01*
X163752054Y-143125801D01*
X163769685Y-143065761D01*
X163822489Y-143020006D01*
X163874000Y-143008800D01*
X164126000Y-143008800D01*
X164193039Y-143028485D01*
G37*
%TD.AperFunction*%
%TA.AperFunction,Conductor*%
G36*
X164250000Y-141633800D02*
G01*
X164247449Y-141642485D01*
X164248738Y-141651447D01*
X164237759Y-141675487D01*
X164230315Y-141700839D01*
X164223474Y-141706766D01*
X164219713Y-141715003D01*
X164197478Y-141729292D01*
X164177511Y-141746594D01*
X164166996Y-141748881D01*
X164160935Y-141752777D01*
X164126000Y-141757800D01*
X164009552Y-141757800D01*
X163942513Y-141738115D01*
X163921871Y-141721481D01*
X163786319Y-141585929D01*
X163752834Y-141524606D01*
X163750000Y-141498248D01*
X163750000Y-141453012D01*
X163807007Y-141485925D01*
X163934174Y-141520000D01*
X164065826Y-141520000D01*
X164192993Y-141485925D01*
X164250000Y-141453012D01*
X164250000Y-141633800D01*
G37*
%TD.AperFunction*%
%TA.AperFunction,Conductor*%
G36*
X164193039Y-140301885D02*
G01*
X164238794Y-140354689D01*
X164250000Y-140406200D01*
X164250000Y-140586988D01*
X164192993Y-140554075D01*
X164065826Y-140520000D01*
X163934174Y-140520000D01*
X163807007Y-140554075D01*
X163750000Y-140586988D01*
X163750000Y-140406200D01*
X163769685Y-140339161D01*
X163822489Y-140293406D01*
X163874000Y-140282200D01*
X164126000Y-140282200D01*
X164193039Y-140301885D01*
G37*
%TD.AperFunction*%
%TA.AperFunction,Conductor*%
G36*
X157849803Y-121701539D02*
G01*
X157856281Y-121707571D01*
X161769481Y-125620771D01*
X161802966Y-125682094D01*
X161805800Y-125708452D01*
X161805800Y-130906793D01*
X161805800Y-131030007D01*
X161813445Y-131068443D01*
X161813445Y-131068444D01*
X161813444Y-131068444D01*
X161829834Y-131150841D01*
X161829836Y-131150850D01*
X161829837Y-131150852D01*
X161832610Y-131157546D01*
X161876988Y-131264686D01*
X161900919Y-131300500D01*
X161905656Y-131307590D01*
X161905657Y-131307591D01*
X161945440Y-131367131D01*
X161945441Y-131367132D01*
X161945442Y-131367133D01*
X162032567Y-131454258D01*
X162032568Y-131454258D01*
X162039635Y-131461325D01*
X162039634Y-131461325D01*
X162039638Y-131461328D01*
X162949491Y-132371182D01*
X162982976Y-132432505D01*
X162977992Y-132502197D01*
X162962129Y-132531747D01*
X162845378Y-132692443D01*
X162748904Y-132881782D01*
X162683242Y-133083870D01*
X162683242Y-133083873D01*
X162672769Y-133150000D01*
X163566988Y-133150000D01*
X163534075Y-133207007D01*
X163500000Y-133334174D01*
X163500000Y-133465826D01*
X163534075Y-133592993D01*
X163566988Y-133650000D01*
X162672769Y-133650000D01*
X162683242Y-133716126D01*
X162683242Y-133716129D01*
X162748904Y-133918217D01*
X162845379Y-134107557D01*
X162970272Y-134279459D01*
X162970276Y-134279464D01*
X163120535Y-134429723D01*
X163120540Y-134429727D01*
X163292444Y-134554622D01*
X163302048Y-134559516D01*
X163352844Y-134607491D01*
X163369638Y-134675312D01*
X163347100Y-134741447D01*
X163302048Y-134780484D01*
X163292444Y-134785377D01*
X163120540Y-134910272D01*
X163120535Y-134910276D01*
X162970276Y-135060535D01*
X162970272Y-135060540D01*
X162845379Y-135232442D01*
X162748904Y-135421782D01*
X162683242Y-135623870D01*
X162683242Y-135623873D01*
X162672769Y-135690000D01*
X163566988Y-135690000D01*
X163534075Y-135747007D01*
X163500000Y-135874174D01*
X163500000Y-136005826D01*
X163534075Y-136132993D01*
X163566988Y-136190000D01*
X162672769Y-136190000D01*
X162683242Y-136256126D01*
X162683242Y-136256129D01*
X162748904Y-136458217D01*
X162845379Y-136647557D01*
X162967557Y-136815722D01*
X162991037Y-136881528D01*
X162975211Y-136949582D01*
X162954920Y-136976288D01*
X162686039Y-137245170D01*
X162424570Y-137506639D01*
X162424567Y-137506642D01*
X162400148Y-137531061D01*
X162337442Y-137593766D01*
X162320972Y-137618415D01*
X162304613Y-137642899D01*
X162268988Y-137696214D01*
X162268986Y-137696216D01*
X162243350Y-137758110D01*
X162221839Y-137810041D01*
X162221835Y-137810056D01*
X162214313Y-137847871D01*
X162214314Y-137847872D01*
X162198217Y-137928800D01*
X162197800Y-137930894D01*
X162197800Y-138905893D01*
X162197800Y-139029107D01*
X162198487Y-139032564D01*
X162221835Y-139149945D01*
X162221837Y-139149952D01*
X162233920Y-139179124D01*
X162233923Y-139179130D01*
X162235647Y-139183292D01*
X162268988Y-139263786D01*
X162294668Y-139302218D01*
X162298934Y-139308603D01*
X162298936Y-139308606D01*
X162337441Y-139366232D01*
X162337444Y-139366236D01*
X162428886Y-139457678D01*
X162428908Y-139457698D01*
X162954920Y-139983710D01*
X162988405Y-140045033D01*
X162983421Y-140114725D01*
X162967558Y-140144276D01*
X162845376Y-140312446D01*
X162810614Y-140380672D01*
X162762639Y-140431468D01*
X162694818Y-140448263D01*
X162628683Y-140425725D01*
X162612448Y-140412058D01*
X159948519Y-137748129D01*
X159915034Y-137686806D01*
X159912200Y-137660448D01*
X159912200Y-127191795D01*
X159912200Y-127191794D01*
X159906860Y-127164949D01*
X159905972Y-127160486D01*
X159888164Y-127070955D01*
X159888163Y-127070948D01*
X159841011Y-126957114D01*
X159832403Y-126944231D01*
X159822532Y-126929457D01*
X159822532Y-126929458D01*
X159772559Y-126854668D01*
X159746131Y-126828240D01*
X159685433Y-126767542D01*
X159685432Y-126767541D01*
X159046219Y-126128328D01*
X159012734Y-126067005D01*
X159017718Y-125997313D01*
X159046219Y-125952966D01*
X159091702Y-125907483D01*
X159151966Y-125847219D01*
X159151968Y-125847215D01*
X159151971Y-125847213D01*
X159204732Y-125774590D01*
X159272287Y-125681610D01*
X159365220Y-125499219D01*
X159428477Y-125304534D01*
X159460500Y-125102352D01*
X159460500Y-124897648D01*
X159446030Y-124806287D01*
X159428477Y-124695465D01*
X159368215Y-124510000D01*
X159365220Y-124500781D01*
X159365218Y-124500778D01*
X159365218Y-124500776D01*
X159313622Y-124399514D01*
X159272287Y-124318390D01*
X159237209Y-124270109D01*
X159151971Y-124152786D01*
X159007213Y-124008028D01*
X158841613Y-123887715D01*
X158841612Y-123887714D01*
X158841610Y-123887713D01*
X158784653Y-123858691D01*
X158659223Y-123794781D01*
X158464534Y-123731522D01*
X158289995Y-123703878D01*
X158262352Y-123699500D01*
X158057648Y-123699500D01*
X157990254Y-123710174D01*
X157855464Y-123731523D01*
X157855457Y-123731524D01*
X157806917Y-123747296D01*
X157737076Y-123749291D01*
X157677243Y-123713210D01*
X157646416Y-123650509D01*
X157644600Y-123629365D01*
X157644600Y-121795252D01*
X157664285Y-121728213D01*
X157717089Y-121682458D01*
X157786247Y-121672514D01*
X157849803Y-121701539D01*
G37*
%TD.AperFunction*%
%TA.AperFunction,Conductor*%
G36*
X163807007Y-138945925D02*
G01*
X163934174Y-138980000D01*
X164065826Y-138980000D01*
X164192993Y-138945925D01*
X164247945Y-138914198D01*
X164230315Y-138974239D01*
X164177511Y-139019994D01*
X164126000Y-139031200D01*
X163874000Y-139031200D01*
X163806961Y-139011515D01*
X163761206Y-138958711D01*
X163751445Y-138913846D01*
X163807007Y-138945925D01*
G37*
%TD.AperFunction*%
%TA.AperFunction,Conductor*%
G36*
X164193039Y-137948485D02*
G01*
X164238794Y-138001289D01*
X164248554Y-138046153D01*
X164192993Y-138014075D01*
X164065826Y-137980000D01*
X163934174Y-137980000D01*
X163807007Y-138014075D01*
X163752054Y-138045801D01*
X163769685Y-137985761D01*
X163822489Y-137940006D01*
X163874000Y-137928800D01*
X164126000Y-137928800D01*
X164193039Y-137948485D01*
G37*
%TD.AperFunction*%
%TA.AperFunction,Conductor*%
G36*
X164250000Y-136528746D02*
G01*
X164241355Y-136558186D01*
X164234833Y-136588171D01*
X164231077Y-136593187D01*
X164230315Y-136595785D01*
X164213683Y-136616425D01*
X164188630Y-136641479D01*
X164127308Y-136674966D01*
X164100947Y-136677800D01*
X163874000Y-136677800D01*
X163806961Y-136658115D01*
X163761206Y-136605311D01*
X163750000Y-136553800D01*
X163750000Y-136373012D01*
X163807007Y-136405925D01*
X163934174Y-136440000D01*
X164065826Y-136440000D01*
X164192993Y-136405925D01*
X164250000Y-136373012D01*
X164250000Y-136528746D01*
G37*
%TD.AperFunction*%
%TA.AperFunction,Conductor*%
G36*
X164250000Y-135506988D02*
G01*
X164192993Y-135474075D01*
X164065826Y-135440000D01*
X163934174Y-135440000D01*
X163807007Y-135474075D01*
X163750000Y-135506988D01*
X163750000Y-133833012D01*
X163807007Y-133865925D01*
X163934174Y-133900000D01*
X164065826Y-133900000D01*
X164192993Y-133865925D01*
X164250000Y-133833012D01*
X164250000Y-135506988D01*
G37*
%TD.AperFunction*%
%TA.AperFunction,Conductor*%
G36*
X164193039Y-132775185D02*
G01*
X164238794Y-132827989D01*
X164250000Y-132879500D01*
X164250000Y-132966988D01*
X164192993Y-132934075D01*
X164065826Y-132900000D01*
X163934174Y-132900000D01*
X163807007Y-132934075D01*
X163750000Y-132966988D01*
X163750000Y-132879500D01*
X163769685Y-132812461D01*
X163822489Y-132766706D01*
X163874000Y-132755500D01*
X164126000Y-132755500D01*
X164193039Y-132775185D01*
G37*
%TD.AperFunction*%
%TA.AperFunction,Conductor*%
G36*
X164250000Y-131380500D02*
G01*
X164247449Y-131389185D01*
X164248738Y-131398147D01*
X164237759Y-131422187D01*
X164230315Y-131447539D01*
X164223474Y-131453466D01*
X164219713Y-131461703D01*
X164197478Y-131475992D01*
X164177511Y-131493294D01*
X164166996Y-131495581D01*
X164160935Y-131499477D01*
X164126000Y-131504500D01*
X163903353Y-131504500D01*
X163836314Y-131484815D01*
X163815672Y-131468181D01*
X163786319Y-131438828D01*
X163752834Y-131377505D01*
X163750000Y-131351147D01*
X163750000Y-131293012D01*
X163807007Y-131325925D01*
X163934174Y-131360000D01*
X164065826Y-131360000D01*
X164192993Y-131325925D01*
X164250000Y-131293012D01*
X164250000Y-131380500D01*
G37*
%TD.AperFunction*%
%TA.AperFunction,Conductor*%
G36*
X164250000Y-130426988D02*
G01*
X164192993Y-130394075D01*
X164065826Y-130360000D01*
X163934174Y-130360000D01*
X163807007Y-130394075D01*
X163750000Y-130426988D01*
X163750000Y-128753012D01*
X163807007Y-128785925D01*
X163934174Y-128820000D01*
X164065826Y-128820000D01*
X164192993Y-128785925D01*
X164250000Y-128753012D01*
X164250000Y-130426988D01*
G37*
%TD.AperFunction*%
%TA.AperFunction,Conductor*%
G36*
X164250000Y-127886988D02*
G01*
X164192993Y-127854075D01*
X164065826Y-127820000D01*
X163934174Y-127820000D01*
X163807007Y-127854075D01*
X163750000Y-127886988D01*
X163750000Y-126213012D01*
X163807007Y-126245925D01*
X163934174Y-126280000D01*
X164065826Y-126280000D01*
X164192993Y-126245925D01*
X164250000Y-126213012D01*
X164250000Y-127886988D01*
G37*
%TD.AperFunction*%
%TA.AperFunction,Conductor*%
G36*
X164250000Y-125346988D02*
G01*
X164192993Y-125314075D01*
X164065826Y-125280000D01*
X163934174Y-125280000D01*
X163807007Y-125314075D01*
X163750000Y-125346988D01*
X163750000Y-123673012D01*
X163807007Y-123705925D01*
X163934174Y-123740000D01*
X164065826Y-123740000D01*
X164192993Y-123705925D01*
X164250000Y-123673012D01*
X164250000Y-125346988D01*
G37*
%TD.AperFunction*%
%TA.AperFunction,Conductor*%
G36*
X164250000Y-122806988D02*
G01*
X164192993Y-122774075D01*
X164065826Y-122740000D01*
X163934174Y-122740000D01*
X163807007Y-122774075D01*
X163750000Y-122806988D01*
X163750000Y-121133012D01*
X163807007Y-121165925D01*
X163934174Y-121200000D01*
X164065826Y-121200000D01*
X164192993Y-121165925D01*
X164250000Y-121133012D01*
X164250000Y-122806988D01*
G37*
%TD.AperFunction*%
%TA.AperFunction,Conductor*%
G36*
X164250000Y-120266988D02*
G01*
X164192993Y-120234075D01*
X164065826Y-120200000D01*
X163934174Y-120200000D01*
X163807007Y-120234075D01*
X163750000Y-120266988D01*
X163750000Y-118593012D01*
X163807007Y-118625925D01*
X163934174Y-118660000D01*
X164065826Y-118660000D01*
X164192993Y-118625925D01*
X164250000Y-118593012D01*
X164250000Y-120266988D01*
G37*
%TD.AperFunction*%
%TA.AperFunction,Conductor*%
G36*
X164250000Y-117726988D02*
G01*
X164192993Y-117694075D01*
X164065826Y-117660000D01*
X163934174Y-117660000D01*
X163807007Y-117694075D01*
X163750000Y-117726988D01*
X163750000Y-116053012D01*
X163807007Y-116085925D01*
X163934174Y-116120000D01*
X164065826Y-116120000D01*
X164192993Y-116085925D01*
X164250000Y-116053012D01*
X164250000Y-117726988D01*
G37*
%TD.AperFunction*%
%TA.AperFunction,Conductor*%
G36*
X164250000Y-115186988D02*
G01*
X164192993Y-115154075D01*
X164065826Y-115120000D01*
X163934174Y-115120000D01*
X163807007Y-115154075D01*
X163750000Y-115186988D01*
X163750000Y-113513012D01*
X163807007Y-113545925D01*
X163934174Y-113580000D01*
X164065826Y-113580000D01*
X164192993Y-113545925D01*
X164250000Y-113513012D01*
X164250000Y-115186988D01*
G37*
%TD.AperFunction*%
%TA.AperFunction,Conductor*%
G36*
X164250000Y-112646988D02*
G01*
X164192993Y-112614075D01*
X164065826Y-112580000D01*
X163934174Y-112580000D01*
X163807007Y-112614075D01*
X163750000Y-112646988D01*
X163750000Y-110973012D01*
X163807007Y-111005925D01*
X163934174Y-111040000D01*
X164065826Y-111040000D01*
X164192993Y-111005925D01*
X164250000Y-110973012D01*
X164250000Y-112646988D01*
G37*
%TD.AperFunction*%
%TA.AperFunction,Conductor*%
G36*
X164250000Y-110106988D02*
G01*
X164192993Y-110074075D01*
X164065826Y-110040000D01*
X163934174Y-110040000D01*
X163807007Y-110074075D01*
X163750000Y-110106988D01*
X163750000Y-108433012D01*
X163807007Y-108465925D01*
X163934174Y-108500000D01*
X164065826Y-108500000D01*
X164192993Y-108465925D01*
X164250000Y-108433012D01*
X164250000Y-110106988D01*
G37*
%TD.AperFunction*%
%TD*%
M02*
