%TF.GenerationSoftware,KiCad,Pcbnew,9.0.7*%
%TF.CreationDate,2026-03-08T22:55:14+02:00*%
%TF.ProjectId,64korppu-E,36346b6f-7270-4707-952d-452e6b696361,rev?*%
%TF.SameCoordinates,Original*%
%TF.FileFunction,Copper,L1,Top*%
%TF.FilePolarity,Positive*%
%FSLAX46Y46*%
G04 Gerber Fmt 4.6, Leading zero omitted, Abs format (unit mm)*
G04 Created by KiCad (PCBNEW 9.0.7) date 2026-03-08 22:55:14*
%MOMM*%
%LPD*%
G01*
G04 APERTURE LIST*
%TA.AperFunction,ComponentPad*%
%ADD10R,2.000000X2.000000*%
%TD*%
%TA.AperFunction,ComponentPad*%
%ADD11O,2.000000X2.000000*%
%TD*%
%TA.AperFunction,ComponentPad*%
%ADD12R,1.600000X1.600000*%
%TD*%
%TA.AperFunction,ComponentPad*%
%ADD13O,1.600000X1.600000*%
%TD*%
%TA.AperFunction,ComponentPad*%
%ADD14R,1.800000X1.800000*%
%TD*%
%TA.AperFunction,ComponentPad*%
%ADD15O,1.800000X1.800000*%
%TD*%
%TA.AperFunction,ComponentPad*%
%ADD16O,3.000000X2.000000*%
%TD*%
%TA.AperFunction,ComponentPad*%
%ADD17R,1.700000X1.700000*%
%TD*%
%TA.AperFunction,ComponentPad*%
%ADD18O,1.700000X1.700000*%
%TD*%
%TA.AperFunction,ComponentPad*%
%ADD19C,6.000000*%
%TD*%
%TA.AperFunction,ViaPad*%
%ADD20C,0.600000*%
%TD*%
%TA.AperFunction,Conductor*%
%ADD21C,0.250000*%
%TD*%
G04 APERTURE END LIST*
D10*
%TO.P,J3,1*%
%TO.N,+5V*%
X162000000Y-108000000D03*
D11*
%TO.P,J3,2*%
X168000000Y-108000000D03*
%TO.P,J3,3*%
%TO.N,GND*%
X165000000Y-113000000D03*
%TD*%
D12*
%TO.P,C4,1*%
%TO.N,+5V*%
X180000000Y-108000000D03*
D13*
%TO.P,C4,2*%
%TO.N,GND*%
X182000000Y-108000000D03*
%TD*%
D14*
%TO.P,J1,1*%
%TO.N,GND*%
X104500000Y-152000000D03*
D15*
%TO.P,J1,2*%
X111500000Y-152000000D03*
%TO.P,J1,3*%
%TO.N,IEC_ATN*%
X103000000Y-148000000D03*
%TO.P,J1,4*%
%TO.N,IEC_CLK*%
X108000000Y-144000000D03*
%TO.P,J1,5*%
%TO.N,IEC_DATA*%
X113000000Y-148000000D03*
%TO.P,J1,6*%
%TO.N,IEC_RESET*%
X108000000Y-148000000D03*
D16*
%TO.P,J1,SH*%
%TO.N,GND*%
X100500000Y-148000000D03*
X115500000Y-148000000D03*
%TD*%
D12*
%TO.P,R1,1*%
%TO.N,IEC_ATN*%
X122000000Y-122000000D03*
D13*
%TO.P,R1,2*%
%TO.N,NANO_D2*%
X132160000Y-122000000D03*
%TD*%
D12*
%TO.P,R2,1*%
%TO.N,IEC_CLK*%
X122000000Y-129000000D03*
D13*
%TO.P,R2,2*%
%TO.N,NANO_D3*%
X132160000Y-129000000D03*
%TD*%
D12*
%TO.P,R3,1*%
%TO.N,IEC_DATA*%
X122000000Y-136000000D03*
D13*
%TO.P,R3,2*%
%TO.N,NANO_D4*%
X132160000Y-136000000D03*
%TD*%
D12*
%TO.P,R4,1*%
%TO.N,IEC_RESET*%
X122000000Y-143000000D03*
D13*
%TO.P,R4,2*%
%TO.N,NANO_D5*%
X132160000Y-143000000D03*
%TD*%
D12*
%TO.P,R5,1*%
%TO.N,+5V*%
X140000000Y-122000000D03*
D13*
%TO.P,R5,2*%
%TO.N,NANO_D2*%
X150160000Y-122000000D03*
%TD*%
D12*
%TO.P,R6,1*%
%TO.N,+5V*%
X140000000Y-129000000D03*
D13*
%TO.P,R6,2*%
%TO.N,NANO_D3*%
X150160000Y-129000000D03*
%TD*%
D12*
%TO.P,R7,1*%
%TO.N,+5V*%
X140000000Y-136000000D03*
D13*
%TO.P,R7,2*%
%TO.N,NANO_D4*%
X150160000Y-136000000D03*
%TD*%
D17*
%TO.P,U1,1*%
%TO.N,N/C*%
X165000000Y-125000000D03*
D18*
%TO.P,U1,2*%
X167540000Y-125000000D03*
%TO.P,U1,3*%
X165000000Y-127540000D03*
%TO.P,U1,4*%
%TO.N,GND*%
X167540000Y-127540000D03*
%TO.P,U1,5*%
%TO.N,N/C*%
X165000000Y-130080000D03*
%TO.P,U1,6*%
X167540000Y-130080000D03*
%TO.P,U1,7*%
%TO.N,GND*%
X165000000Y-132620000D03*
%TO.P,U1,8*%
%TO.N,+5V*%
X167540000Y-132620000D03*
%TO.P,U1,9*%
%TO.N,NANO_D2*%
X165000000Y-135160000D03*
%TO.P,U1,10*%
%TO.N,N/C*%
X167540000Y-135160000D03*
%TO.P,U1,11*%
%TO.N,NANO_D3*%
X165000000Y-137700000D03*
%TO.P,U1,12*%
%TO.N,N/C*%
X167540000Y-137700000D03*
%TO.P,U1,13*%
%TO.N,NANO_D4*%
X165000000Y-140240000D03*
%TO.P,U1,14*%
%TO.N,LED_ANODE*%
X167540000Y-140240000D03*
%TO.P,U1,15*%
%TO.N,NANO_D5*%
X165000000Y-142780000D03*
%TO.P,U1,16*%
%TO.N,N/C*%
X167540000Y-142780000D03*
%TO.P,U1,17*%
%TO.N,LATCH_595*%
X165000000Y-145320000D03*
%TO.P,U1,18*%
%TO.N,N/C*%
X167540000Y-145320000D03*
%TO.P,U1,19*%
%TO.N,FLOPPY_WDATA*%
X165000000Y-147860000D03*
%TO.P,U1,20*%
%TO.N,FLOPPY_DSKCHG*%
X167540000Y-147860000D03*
%TO.P,U1,21*%
%TO.N,FLOPPY_RDATA*%
X165000000Y-150400000D03*
%TO.P,U1,22*%
%TO.N,FLOPPY_WPT*%
X167540000Y-150400000D03*
%TO.P,U1,23*%
%TO.N,N/C*%
X165000000Y-152940000D03*
%TO.P,U1,24*%
%TO.N,FLOPPY_TRK00*%
X167540000Y-152940000D03*
%TO.P,U1,25*%
%TO.N,SPI_CS_SRAM*%
X165000000Y-155480000D03*
%TO.P,U1,26*%
%TO.N,N/C*%
X167540000Y-155480000D03*
%TO.P,U1,27*%
%TO.N,SPI_MOSI*%
X165000000Y-158020000D03*
%TO.P,U1,28*%
%TO.N,N/C*%
X167540000Y-158020000D03*
%TO.P,U1,29*%
%TO.N,SPI_MISO*%
X165000000Y-160560000D03*
%TO.P,U1,30*%
%TO.N,SPI_SCK*%
X167540000Y-160560000D03*
%TD*%
D12*
%TO.P,U2,1*%
%TO.N,SPI_CS_SRAM*%
X128000000Y-172000000D03*
D13*
%TO.P,U2,2*%
%TO.N,SPI_MISO*%
X128000000Y-174540000D03*
%TO.P,U2,3*%
%TO.N,N/C*%
X128000000Y-177080000D03*
%TO.P,U2,4*%
%TO.N,GND*%
X128000000Y-179620000D03*
%TO.P,U2,5*%
%TO.N,SPI_MOSI*%
X135620000Y-179620000D03*
%TO.P,U2,6*%
%TO.N,SPI_SCK*%
X135620000Y-177080000D03*
%TO.P,U2,7*%
%TO.N,+5V*%
X135620000Y-174540000D03*
%TO.P,U2,8*%
X135620000Y-172000000D03*
%TD*%
D12*
%TO.P,U3,1*%
%TO.N,FLOPPY_DENSITY*%
X195000000Y-172000000D03*
D13*
%TO.P,U3,2*%
%TO.N,FLOPPY_MOTEA*%
X195000000Y-174540000D03*
%TO.P,U3,3*%
%TO.N,FLOPPY_DRVSEL*%
X195000000Y-177080000D03*
%TO.P,U3,4*%
%TO.N,FLOPPY_MOTOR*%
X195000000Y-179620000D03*
%TO.P,U3,5*%
%TO.N,FLOPPY_DIR*%
X195000000Y-182160000D03*
%TO.P,U3,6*%
%TO.N,FLOPPY_STEP*%
X195000000Y-184700000D03*
%TO.P,U3,7*%
%TO.N,FLOPPY_WGATE*%
X195000000Y-187240000D03*
%TO.P,U3,8*%
%TO.N,GND*%
X195000000Y-189780000D03*
%TO.P,U3,9*%
%TO.N,N/C*%
X202620000Y-189780000D03*
%TO.P,U3,10*%
%TO.N,+5V*%
X202620000Y-187240000D03*
%TO.P,U3,11*%
%TO.N,SPI_SCK*%
X202620000Y-184700000D03*
%TO.P,U3,12*%
%TO.N,LATCH_595*%
X202620000Y-182160000D03*
%TO.P,U3,13*%
%TO.N,GND*%
X202620000Y-179620000D03*
%TO.P,U3,14*%
%TO.N,SPI_MOSI*%
X202620000Y-177080000D03*
%TO.P,U3,15*%
%TO.N,FLOPPY_SIDE1*%
X202620000Y-174540000D03*
%TO.P,U3,16*%
%TO.N,+5V*%
X202620000Y-172000000D03*
%TD*%
D17*
%TO.P,J2,1*%
%TO.N,GND*%
X225000000Y-128000000D03*
D18*
%TO.P,J2,2*%
%TO.N,FLOPPY_DENSITY*%
X227540000Y-128000000D03*
%TO.P,J2,3*%
%TO.N,GND*%
X225000000Y-130540000D03*
%TO.P,J2,4*%
%TO.N,N/C*%
X227540000Y-130540000D03*
%TO.P,J2,5*%
%TO.N,GND*%
X225000000Y-133080000D03*
%TO.P,J2,6*%
%TO.N,N/C*%
X227540000Y-133080000D03*
%TO.P,J2,7*%
%TO.N,GND*%
X225000000Y-135620000D03*
%TO.P,J2,8*%
%TO.N,N/C*%
X227540000Y-135620000D03*
%TO.P,J2,9*%
%TO.N,GND*%
X225000000Y-138160000D03*
%TO.P,J2,10*%
%TO.N,FLOPPY_MOTEA*%
X227540000Y-138160000D03*
%TO.P,J2,11*%
%TO.N,GND*%
X225000000Y-140700000D03*
%TO.P,J2,12*%
%TO.N,FLOPPY_DRVSEL*%
X227540000Y-140700000D03*
%TO.P,J2,13*%
%TO.N,GND*%
X225000000Y-143240000D03*
%TO.P,J2,14*%
%TO.N,N/C*%
X227540000Y-143240000D03*
%TO.P,J2,15*%
%TO.N,GND*%
X225000000Y-145780000D03*
%TO.P,J2,16*%
%TO.N,FLOPPY_MOTOR*%
X227540000Y-145780000D03*
%TO.P,J2,17*%
%TO.N,GND*%
X225000000Y-148320000D03*
%TO.P,J2,18*%
%TO.N,FLOPPY_DIR*%
X227540000Y-148320000D03*
%TO.P,J2,19*%
%TO.N,GND*%
X225000000Y-150860000D03*
%TO.P,J2,20*%
%TO.N,FLOPPY_STEP*%
X227540000Y-150860000D03*
%TO.P,J2,21*%
%TO.N,GND*%
X225000000Y-153400000D03*
%TO.P,J2,22*%
%TO.N,FLOPPY_WDATA*%
X227540000Y-153400000D03*
%TO.P,J2,23*%
%TO.N,GND*%
X225000000Y-155940000D03*
%TO.P,J2,24*%
%TO.N,FLOPPY_WGATE*%
X227540000Y-155940000D03*
%TO.P,J2,25*%
%TO.N,GND*%
X225000000Y-158480000D03*
%TO.P,J2,26*%
%TO.N,FLOPPY_TRK00*%
X227540000Y-158480000D03*
%TO.P,J2,27*%
%TO.N,GND*%
X225000000Y-161020000D03*
%TO.P,J2,28*%
%TO.N,FLOPPY_WPT*%
X227540000Y-161020000D03*
%TO.P,J2,29*%
%TO.N,GND*%
X225000000Y-163560000D03*
%TO.P,J2,30*%
%TO.N,FLOPPY_RDATA*%
X227540000Y-163560000D03*
%TO.P,J2,31*%
%TO.N,GND*%
X225000000Y-166100000D03*
%TO.P,J2,32*%
%TO.N,FLOPPY_SIDE1*%
X227540000Y-166100000D03*
%TO.P,J2,33*%
%TO.N,GND*%
X225000000Y-168640000D03*
%TO.P,J2,34*%
%TO.N,FLOPPY_DSKCHG*%
X227540000Y-168640000D03*
%TD*%
D12*
%TO.P,R8,1*%
%TO.N,LED_ANODE*%
X126000000Y-198000000D03*
D13*
%TO.P,R8,2*%
%TO.N,LED_CATHODE*%
X136160000Y-198000000D03*
%TD*%
D12*
%TO.P,D1,1*%
%TO.N,LED_CATHODE*%
X115000000Y-198000000D03*
D13*
%TO.P,D1,2*%
%TO.N,GND*%
X117540000Y-198000000D03*
%TD*%
D12*
%TO.P,R9,1*%
%TO.N,+5V*%
X200000000Y-128000000D03*
D13*
%TO.P,R9,2*%
%TO.N,FLOPPY_TRK00*%
X210160000Y-128000000D03*
%TD*%
D12*
%TO.P,R10,1*%
%TO.N,+5V*%
X200000000Y-136000000D03*
D13*
%TO.P,R10,2*%
%TO.N,FLOPPY_WPT*%
X210160000Y-136000000D03*
%TD*%
D12*
%TO.P,R11,1*%
%TO.N,+5V*%
X200000000Y-144000000D03*
D13*
%TO.P,R11,2*%
%TO.N,FLOPPY_RDATA*%
X210160000Y-144000000D03*
%TD*%
D12*
%TO.P,R12,1*%
%TO.N,+5V*%
X200000000Y-152000000D03*
D13*
%TO.P,R12,2*%
%TO.N,FLOPPY_DSKCHG*%
X210160000Y-152000000D03*
%TD*%
D12*
%TO.P,C1,1*%
%TO.N,+5V*%
X155000000Y-198000000D03*
D13*
%TO.P,C1,2*%
%TO.N,GND*%
X160000000Y-198000000D03*
%TD*%
D12*
%TO.P,C2,1*%
%TO.N,+5V*%
X175000000Y-198000000D03*
D13*
%TO.P,C2,2*%
%TO.N,GND*%
X180000000Y-198000000D03*
%TD*%
D12*
%TO.P,C3,1*%
%TO.N,+5V*%
X195000000Y-198000000D03*
D13*
%TO.P,C3,2*%
%TO.N,GND*%
X200000000Y-198000000D03*
%TD*%
D19*
%TO.P,H1,1*%
%TO.N,N/C*%
X103000000Y-103000000D03*
%TD*%
%TO.P,H2,1*%
%TO.N,N/C*%
X237000000Y-103000000D03*
%TD*%
%TO.P,H3,1*%
%TO.N,N/C*%
X103000000Y-217000000D03*
%TD*%
%TO.P,H4,1*%
%TO.N,N/C*%
X237000000Y-217000000D03*
%TD*%
D20*
%TO.N,+5V*%
X160967400Y-151118600D03*
X176835000Y-157894100D03*
X177620000Y-172972000D03*
X158068500Y-140423200D03*
X155085500Y-183452500D03*
X157054200Y-129665800D03*
X163415000Y-142585000D03*
%TO.N,SPI_MOSI*%
X137187500Y-156517700D03*
%TO.N,SPI_MISO*%
X163885700Y-163021600D03*
X131221500Y-159998100D03*
%TO.N,SPI_SCK*%
X157501000Y-170362000D03*
X167017500Y-171725300D03*
X154821900Y-157278100D03*
%TO.N,SPI_CS_SRAM*%
X162074400Y-157456300D03*
X122272500Y-148270900D03*
%TO.N,LATCH_595*%
X159859500Y-167627100D03*
X151593000Y-166838000D03*
%TO.N,IEC_CLK*%
X110462900Y-124944000D03*
%TO.N,NANO_D2*%
X152097600Y-132799400D03*
%TO.N,NANO_D3*%
X142160000Y-119946400D03*
%TO.N,NANO_D4*%
X143153500Y-134647800D03*
X142160000Y-125704300D03*
%TO.N,FLOPPY_WDATA*%
X163186100Y-149152400D03*
%TO.N,FLOPPY_RDATA*%
X186349000Y-146466000D03*
%TO.N,FLOPPY_TRK00*%
X170019400Y-153547200D03*
X170362300Y-139339300D03*
%TO.N,FLOPPY_WPT*%
X166052000Y-148961000D03*
X189444000Y-162996000D03*
X170000500Y-142286500D03*
X189994000Y-140062000D03*
%TO.N,FLOPPY_DSKCHG*%
X190161000Y-151962000D03*
X214745500Y-165861700D03*
%TO.N,FLOPPY_DENSITY*%
X196847500Y-130698800D03*
%TO.N,FLOPPY_MOTEA*%
X197619200Y-141346500D03*
X172271000Y-143038000D03*
%TO.N,FLOPPY_DRVSEL*%
X193057500Y-176854000D03*
X187774700Y-142465300D03*
%TO.N,FLOPPY_MOTOR*%
X193864500Y-148270900D03*
X169388000Y-148779000D03*
%TO.N,FLOPPY_DIR*%
X187432000Y-150574900D03*
X190971000Y-149776600D03*
%TO.N,FLOPPY_STEP*%
X196849000Y-153862900D03*
X175576000Y-154952000D03*
%TO.N,FLOPPY_WGATE*%
X187544500Y-157137600D03*
%TO.N,LED_ANODE*%
X148639000Y-178738000D03*
X125255500Y-180028400D03*
X155085500Y-138832300D03*
%TO.N,LED_CATHODE*%
X135492300Y-181203300D03*
%TD*%
D21*
%TO.N,+5V*%
X166363300Y-132252200D02*
X165554400Y-131443300D01*
X161051500Y-151000000D02*
X161051500Y-151034500D01*
X192746600Y-196873300D02*
X177253400Y-196873300D01*
X165712000Y-155585000D02*
X161127000Y-151000000D01*
X140080700Y-128919300D02*
X140080700Y-128443000D01*
X193873300Y-198000000D02*
X192746600Y-196873300D01*
X154540000Y-129620000D02*
X157008400Y-129620000D01*
X162747000Y-183127000D02*
X163873000Y-182000000D01*
X177620000Y-158000000D02*
X176579500Y-158000000D01*
X175000000Y-198000000D02*
X176126700Y-198000000D01*
X140080700Y-128443000D02*
X143631500Y-128443000D01*
X152554000Y-128443000D02*
X153363000Y-129252000D01*
X146127000Y-182000000D02*
X147268000Y-183142000D01*
X159673300Y-107000000D02*
X160673300Y-108000000D01*
X168222200Y-108000000D02*
X162000000Y-108000000D01*
X140000000Y-129000000D02*
X140080700Y-128919300D01*
X176579500Y-158000000D02*
X176493000Y-158000000D01*
X162000000Y-108000000D02*
X160673300Y-108000000D01*
X155000000Y-198000000D02*
X156126700Y-198000000D01*
X160000000Y-141000000D02*
X158645300Y-141000000D01*
X143631500Y-125772300D02*
X143631500Y-128443000D01*
X174078000Y-155585000D02*
X165712000Y-155585000D01*
X175000000Y-198000000D02*
X173873300Y-198000000D01*
X132000000Y-125000000D02*
X133127000Y-125000000D01*
X133127000Y-125000000D02*
X136570000Y-128443000D01*
X166363300Y-132620000D02*
X166363300Y-132252200D01*
X180000000Y-108000000D02*
X168222200Y-108000000D01*
X140000000Y-122000000D02*
X140000000Y-123126700D01*
X161051500Y-151034500D02*
X160967400Y-151118600D01*
X177253400Y-196873300D02*
X176126700Y-198000000D01*
X167540000Y-132620000D02*
X166363300Y-132620000D01*
X154985000Y-183352000D02*
X154985000Y-183142000D01*
X163873000Y-182000000D02*
X166127000Y-182000000D01*
X156363300Y-131443300D02*
X154540000Y-129620000D01*
X168222200Y-108000000D02*
X168000000Y-108000000D01*
X157008400Y-129620000D02*
X157054200Y-129665800D01*
X153363000Y-129620000D02*
X154540000Y-129620000D01*
X176685400Y-157894100D02*
X176835000Y-157894100D01*
X195000000Y-198000000D02*
X193873300Y-198000000D01*
X136570000Y-128443000D02*
X140080700Y-128443000D01*
X154985000Y-183142000D02*
X156127000Y-182000000D01*
X172746600Y-196873300D02*
X173873300Y-198000000D01*
X177620000Y-173029200D02*
X177620000Y-172972000D01*
X155327000Y-107000000D02*
X152327000Y-104000000D01*
X158000000Y-107000000D02*
X159673300Y-107000000D01*
X155085500Y-183452500D02*
X154985000Y-183352000D01*
X157253000Y-183127000D02*
X162747000Y-183127000D01*
X158645300Y-141000000D02*
X158068500Y-140423200D01*
X177409200Y-173240000D02*
X177620000Y-173029200D01*
X157253400Y-196873300D02*
X172746600Y-196873300D01*
X156127000Y-182000000D02*
X157253000Y-183127000D01*
X158000000Y-107000000D02*
X155327000Y-107000000D01*
X160000000Y-141000000D02*
X161830000Y-141000000D01*
X166127000Y-182000000D02*
X174887000Y-173240000D01*
X174887000Y-173240000D02*
X177409200Y-173240000D01*
X176579500Y-158000000D02*
X176685400Y-157894100D01*
X155000000Y-182000000D02*
X156127000Y-182000000D01*
X161127000Y-151000000D02*
X161051500Y-151000000D01*
X161051500Y-151000000D02*
X160000000Y-151000000D01*
X177409200Y-173240000D02*
X177620000Y-173240000D01*
X161830000Y-141000000D02*
X163415000Y-142585000D01*
X140000000Y-123126700D02*
X140985900Y-123126700D01*
X165554400Y-131443300D02*
X156363300Y-131443300D01*
X143631500Y-128443000D02*
X152554000Y-128443000D01*
X156126700Y-198000000D02*
X157253400Y-196873300D01*
X152327000Y-104000000D02*
X145000000Y-104000000D01*
X140985900Y-123126700D02*
X143631500Y-125772300D01*
X153363000Y-129252000D02*
X153363000Y-129620000D01*
X147268000Y-183142000D02*
X154985000Y-183142000D01*
X176493000Y-158000000D02*
X174078000Y-155585000D01*
X145000000Y-182000000D02*
X146127000Y-182000000D01*
%TO.N,SPI_MOSI*%
X175367000Y-161953000D02*
X157246000Y-161953000D01*
X186363000Y-160112000D02*
X186363000Y-160480000D01*
X152549000Y-156383000D02*
X152187000Y-156383000D01*
X165080000Y-159303000D02*
X185554000Y-159303000D01*
X165080000Y-159276700D02*
X165080000Y-159303000D01*
X156192600Y-160899800D02*
X156192600Y-160899900D01*
X186363000Y-160480000D02*
X187540000Y-160480000D01*
X177620000Y-163080000D02*
X176493000Y-163080000D01*
X137187500Y-155620000D02*
X150223000Y-155620000D01*
X165000000Y-158020000D02*
X165000000Y-159196700D01*
X152187000Y-156383000D02*
X150823000Y-155020000D01*
X201493300Y-177080000D02*
X200366600Y-175953300D01*
X150223000Y-155620000D02*
X150823000Y-155020000D01*
X164824200Y-159047200D02*
X165080000Y-159303000D01*
X155717000Y-149940000D02*
X164824200Y-159047200D01*
X164824200Y-159047200D02*
X158045200Y-159047200D01*
X152000000Y-155020000D02*
X150823000Y-155020000D01*
X176493000Y-163080000D02*
X175367000Y-161953000D01*
X165000000Y-159196700D02*
X165080000Y-159276700D01*
X137187500Y-155620000D02*
X137187500Y-156517700D01*
X158045200Y-159047200D02*
X156192600Y-160899800D01*
X202620000Y-177080000D02*
X201493300Y-177080000D01*
X185554000Y-159303000D02*
X186363000Y-160112000D01*
X157246000Y-161953000D02*
X156192600Y-160899900D01*
X153270000Y-157104000D02*
X152549000Y-156383000D01*
X127620000Y-155620000D02*
X137187500Y-155620000D01*
X190493300Y-175953300D02*
X177620000Y-163080000D01*
X153270000Y-157978000D02*
X153270000Y-157104000D01*
X156192600Y-160899900D02*
X153270000Y-157978000D01*
X200366600Y-175953300D02*
X190493300Y-175953300D01*
X154540000Y-149940000D02*
X155717000Y-149940000D01*
%TO.N,SPI_MISO*%
X157461600Y-163021600D02*
X152000000Y-157560000D01*
X133659600Y-157560000D02*
X131221500Y-159998100D01*
X121127000Y-150822000D02*
X127865000Y-157560000D01*
X163885700Y-163021600D02*
X157461600Y-163021600D01*
X127865000Y-157560000D02*
X133659600Y-157560000D01*
X120000000Y-150540000D02*
X121127000Y-150540000D01*
X121127000Y-150540000D02*
X121127000Y-150822000D01*
X133659600Y-157560000D02*
X152000000Y-157560000D01*
%TO.N,SPI_SCK*%
X152347000Y-153666000D02*
X129332000Y-153666000D01*
X167166500Y-171891000D02*
X159030000Y-171891000D01*
X159030000Y-171891000D02*
X141935700Y-171891000D01*
X154821900Y-157253400D02*
X154821900Y-157278100D01*
X135620000Y-177080000D02*
X136746700Y-177080000D01*
X154540000Y-156971500D02*
X154821900Y-157253400D01*
X202620000Y-184700000D02*
X201493300Y-184700000D01*
X154540000Y-156971500D02*
X154540000Y-156383000D01*
X153363000Y-155574000D02*
X153363000Y-154682000D01*
X167017500Y-171742000D02*
X167017500Y-171725300D01*
X154540000Y-157560000D02*
X154540000Y-156971500D01*
X177620000Y-170700000D02*
X176493000Y-170700000D01*
X177936800Y-172345300D02*
X177446400Y-172345300D01*
X175303000Y-171891000D02*
X167166500Y-171891000D01*
X200223300Y-183430000D02*
X189021500Y-183430000D01*
X129332000Y-153666000D02*
X128747000Y-153080000D01*
X177446400Y-172345300D02*
X176962600Y-171861500D01*
X159030000Y-171891000D02*
X157501000Y-170362000D01*
X141935700Y-171891000D02*
X136746700Y-177080000D01*
X176962600Y-171861500D02*
X175332500Y-171861500D01*
X153363000Y-154682000D02*
X152347000Y-153666000D01*
X189021500Y-183430000D02*
X177936800Y-172345300D01*
X201493300Y-184700000D02*
X200223300Y-183430000D01*
X175332500Y-171861500D02*
X175303000Y-171891000D01*
X176493000Y-170700000D02*
X175332500Y-171861500D01*
X154172000Y-156383000D02*
X153363000Y-155574000D01*
X167166500Y-171891000D02*
X167017500Y-171742000D01*
X128747000Y-153080000D02*
X127620000Y-153080000D01*
X154540000Y-156383000D02*
X154172000Y-156383000D01*
%TO.N,SPI_CS_SRAM*%
X157098100Y-152480000D02*
X152000000Y-152480000D01*
X122272100Y-148270900D02*
X121834700Y-148708300D01*
X121127000Y-148000000D02*
X121834700Y-148708300D01*
X122253000Y-149127000D02*
X147470000Y-149127000D01*
X147470000Y-149127000D02*
X150823000Y-152480000D01*
X121834700Y-148708300D02*
X122253000Y-149127000D01*
X120000000Y-148000000D02*
X121127000Y-148000000D01*
X150823000Y-152480000D02*
X152000000Y-152480000D01*
X162074400Y-157456300D02*
X157098100Y-152480000D01*
X122272500Y-148270900D02*
X122272100Y-148270900D01*
%TO.N,LATCH_595*%
X189366300Y-181033300D02*
X176493000Y-168160000D01*
X161093400Y-169298000D02*
X154054000Y-169298000D01*
X177620000Y-168160000D02*
X176493000Y-168160000D01*
X161093400Y-169298000D02*
X159859500Y-168064100D01*
X175355000Y-169298000D02*
X161093400Y-169298000D01*
X201493300Y-182160000D02*
X200366600Y-181033300D01*
X200366600Y-181033300D02*
X189366300Y-181033300D01*
X202620000Y-182160000D02*
X201493300Y-182160000D01*
X176493000Y-168160000D02*
X175355000Y-169298000D01*
X159859500Y-168064100D02*
X159859500Y-167627100D01*
X154054000Y-169298000D02*
X151593000Y-166838000D01*
%TO.N,IEC_CLK*%
X110000000Y-126000000D02*
X110462900Y-126000000D01*
X118000000Y-120000000D02*
X116873000Y-120000000D01*
X122000000Y-129000000D02*
X114227000Y-129000000D01*
X116873000Y-120353000D02*
X111227000Y-126000000D01*
X116873000Y-120000000D02*
X116873000Y-120353000D01*
X110462900Y-126000000D02*
X110462900Y-124944000D01*
X110462900Y-126000000D02*
X111227000Y-126000000D01*
X114227000Y-129000000D02*
X111227000Y-126000000D01*
%TO.N,IEC_RESET*%
X120000000Y-134000000D02*
X119436500Y-134000000D01*
X119436500Y-134000000D02*
X118873000Y-134000000D01*
X108000000Y-148000000D02*
X109226700Y-148000000D01*
X112553000Y-131327000D02*
X111227000Y-130000000D01*
X114226700Y-143000000D02*
X122000000Y-143000000D01*
X111227000Y-130000000D02*
X110000000Y-130000000D01*
X116200000Y-131327000D02*
X112553000Y-131327000D01*
X119436500Y-134000000D02*
X119436500Y-139309800D01*
X122000000Y-143000000D02*
X122000000Y-141873300D01*
X109226700Y-148000000D02*
X114226700Y-143000000D01*
X119436500Y-139309800D02*
X122000000Y-141873300D01*
X118873000Y-134000000D02*
X116200000Y-131327000D01*
%TO.N,NANO_D2*%
X127687100Y-119503800D02*
X127687100Y-120177700D01*
X139907000Y-116127000D02*
X141033000Y-115000000D01*
X165000000Y-135160000D02*
X163823300Y-135160000D01*
X134413400Y-120873300D02*
X147906600Y-120873300D01*
X133286700Y-122000000D02*
X134413400Y-120873300D01*
X131063900Y-116127000D02*
X127687100Y-119503800D01*
X132160000Y-122000000D02*
X133286700Y-122000000D01*
X128160000Y-115000000D02*
X129287000Y-115000000D01*
X147906600Y-120873300D02*
X149033300Y-122000000D01*
X129287000Y-115000000D02*
X130413000Y-116127000D01*
X129509400Y-122000000D02*
X132160000Y-122000000D01*
X161462700Y-132799400D02*
X152097600Y-132799400D01*
X163823300Y-135160000D02*
X161462700Y-132799400D01*
X131063900Y-116127000D02*
X139907000Y-116127000D01*
X141033000Y-115000000D02*
X142160000Y-115000000D01*
X150160000Y-122000000D02*
X149033300Y-122000000D01*
X127687100Y-120177700D02*
X129509400Y-122000000D01*
X130413000Y-116127000D02*
X131063900Y-116127000D01*
%TO.N,NANO_D3*%
X141033000Y-120000000D02*
X139907000Y-118873000D01*
X161508300Y-135385000D02*
X153728300Y-135385000D01*
X165000000Y-137700000D02*
X163823300Y-137700000D01*
X142160000Y-120000000D02*
X142106400Y-120000000D01*
X129287000Y-120000000D02*
X128160000Y-120000000D01*
X163823300Y-137700000D02*
X161508300Y-135385000D01*
X139907000Y-118873000D02*
X130413000Y-118873000D01*
X150160000Y-129000000D02*
X149033300Y-129000000D01*
X142106400Y-120000000D02*
X141033000Y-120000000D01*
X134413400Y-130126700D02*
X147906600Y-130126700D01*
X153728300Y-135385000D02*
X148188300Y-129845000D01*
X147906600Y-130126700D02*
X148188300Y-129845000D01*
X132160000Y-129000000D02*
X133286700Y-129000000D01*
X130413000Y-118873000D02*
X129287000Y-120000000D01*
X142106400Y-120000000D02*
X142160000Y-119946400D01*
X133286700Y-129000000D02*
X134413400Y-130126700D01*
X148188300Y-129845000D02*
X149033300Y-129000000D01*
%TO.N,NANO_D4*%
X134638900Y-134647800D02*
X143153500Y-134647800D01*
X130413000Y-123873000D02*
X129287000Y-125000000D01*
X141033000Y-125000000D02*
X139907000Y-123873000D01*
X132160000Y-136000000D02*
X133286700Y-136000000D01*
X133286700Y-136000000D02*
X134638900Y-134647800D01*
X142160000Y-125452300D02*
X142160000Y-125704300D01*
X141707700Y-125000000D02*
X141033000Y-125000000D01*
X139907000Y-123873000D02*
X130413000Y-123873000D01*
X165000000Y-140240000D02*
X163823300Y-140240000D01*
X159583300Y-136000000D02*
X150160000Y-136000000D01*
X163823300Y-140240000D02*
X159583300Y-136000000D01*
X129287000Y-125000000D02*
X128160000Y-125000000D01*
X141707700Y-125000000D02*
X142160000Y-125452300D01*
X142160000Y-125000000D02*
X141707700Y-125000000D01*
%TO.N,NANO_D5*%
X152000000Y-139780000D02*
X162000000Y-139780000D01*
X152000000Y-139780000D02*
X151299000Y-139780000D01*
X151299000Y-139780000D02*
X148079000Y-143000000D01*
X145043000Y-134000000D02*
X130160000Y-134000000D01*
X148079000Y-143000000D02*
X132160000Y-143000000D01*
X162000000Y-139780000D02*
X165000000Y-142780000D01*
X150823000Y-139780000D02*
X145043000Y-134000000D01*
X151299000Y-139780000D02*
X150823000Y-139780000D01*
%TO.N,FLOPPY_WDATA*%
X226363300Y-153400000D02*
X226363300Y-153767800D01*
X225554400Y-154576700D02*
X188363300Y-154576700D01*
X162543000Y-148672000D02*
X163023400Y-149152400D01*
X226363300Y-153767800D02*
X225554400Y-154576700D01*
X227540000Y-153400000D02*
X226363300Y-153400000D01*
X188363300Y-154576700D02*
X187540000Y-155400000D01*
X163023400Y-149152400D02*
X163186100Y-149152400D01*
X152000000Y-144860000D02*
X152000000Y-146037000D01*
X175861000Y-156620000D02*
X185511000Y-156620000D01*
X186363000Y-155768000D02*
X186363000Y-155400000D01*
X152000000Y-146037000D02*
X151632000Y-146037000D01*
X150823000Y-146846000D02*
X150823000Y-147892000D01*
X174323000Y-155082000D02*
X175861000Y-156620000D01*
X186363000Y-155400000D02*
X187540000Y-155400000D01*
X168953000Y-155082000D02*
X174323000Y-155082000D01*
X185511000Y-156620000D02*
X186363000Y-155768000D01*
X150823000Y-147892000D02*
X151603000Y-148672000D01*
X151603000Y-148672000D02*
X162543000Y-148672000D01*
X163023400Y-149152400D02*
X168953000Y-155082000D01*
X151632000Y-146037000D02*
X150823000Y-146846000D01*
%TO.N,FLOPPY_RDATA*%
X166680000Y-143646000D02*
X169033000Y-146000000D01*
X165000000Y-149223300D02*
X164143300Y-149223300D01*
X152000000Y-147400000D02*
X152212900Y-147187100D01*
X165000000Y-150400000D02*
X165000000Y-149223300D01*
X210160000Y-144000000D02*
X209033300Y-144000000D01*
X169033000Y-146000000D02*
X171287000Y-146000000D01*
X154053000Y-143646000D02*
X166680000Y-143646000D01*
X171752000Y-146466000D02*
X186349000Y-146466000D01*
X153363000Y-146037000D02*
X153363000Y-144336000D01*
X152212900Y-147187100D02*
X153363000Y-146037000D01*
X171287000Y-146000000D02*
X171752000Y-146466000D01*
X162796700Y-147876700D02*
X152902500Y-147876700D01*
X206567300Y-146466000D02*
X186349000Y-146466000D01*
X152902500Y-147876700D02*
X152212900Y-147187100D01*
X209033300Y-144000000D02*
X206567300Y-146466000D01*
X164143300Y-149223300D02*
X162796700Y-147876700D01*
X153363000Y-144336000D02*
X154053000Y-143646000D01*
%TO.N,FLOPPY_TRK00*%
X210160000Y-128000000D02*
X209033300Y-128000000D01*
X209033300Y-128000000D02*
X207906600Y-129126700D01*
X169323900Y-153547200D02*
X168716700Y-152940000D01*
X167540000Y-152940000D02*
X168716700Y-152940000D01*
X207906600Y-129126700D02*
X180574900Y-129126700D01*
X180574900Y-129126700D02*
X170362300Y-139339300D01*
X170019400Y-153547200D02*
X169323900Y-153547200D01*
%TO.N,FLOPPY_WPT*%
X170000500Y-141000000D02*
X169597000Y-141000000D01*
X226363300Y-161387800D02*
X225554400Y-162196700D01*
X170160000Y-141000000D02*
X170000500Y-141000000D01*
X188717000Y-163020000D02*
X188741000Y-162996000D01*
X227540000Y-161020000D02*
X226363300Y-161020000D01*
X210160000Y-136000000D02*
X209033300Y-136000000D01*
X170000500Y-141000000D02*
X170000500Y-142286500D01*
X190243300Y-162196700D02*
X189444000Y-162996000D01*
X166052000Y-148961000D02*
X164491000Y-147400000D01*
X209033300Y-136000000D02*
X204971300Y-140062000D01*
X188895000Y-138963000D02*
X189994000Y-140062000D01*
X188741000Y-162996000D02*
X189444000Y-162996000D01*
X169597000Y-141000000D02*
X171633000Y-138963000D01*
X204971300Y-140062000D02*
X189994000Y-140062000D01*
X187540000Y-163020000D02*
X188717000Y-163020000D01*
X164491000Y-147400000D02*
X154540000Y-147400000D01*
X171633000Y-138963000D02*
X188895000Y-138963000D01*
X226363300Y-161020000D02*
X226363300Y-161387800D01*
X225554400Y-162196700D02*
X190243300Y-162196700D01*
%TO.N,FLOPPY_DSKCHG*%
X154540000Y-144860000D02*
X162893000Y-144860000D01*
X227540000Y-168640000D02*
X226363300Y-168640000D01*
X225554400Y-167463300D02*
X226363300Y-168272200D01*
X191348100Y-153149100D02*
X190161000Y-151962000D01*
X166295100Y-148262100D02*
X166363300Y-148193900D01*
X166363300Y-148193900D02*
X166363300Y-147860000D01*
X171287000Y-151000000D02*
X171825000Y-151538000D01*
X169033000Y-151000000D02*
X171287000Y-151000000D01*
X209033300Y-152000000D02*
X207884200Y-153149100D01*
X167540000Y-147860000D02*
X166363300Y-147860000D01*
X210160000Y-152000000D02*
X209033300Y-152000000D01*
X162893000Y-144860000D02*
X166295100Y-148262100D01*
X166295100Y-148262100D02*
X169033000Y-151000000D01*
X216347100Y-167463300D02*
X225554400Y-167463300D01*
X171825000Y-151538000D02*
X189737000Y-151538000D01*
X226363300Y-168272200D02*
X226363300Y-168640000D01*
X189737000Y-151538000D02*
X190161000Y-151962000D01*
X207884200Y-153149100D02*
X191348100Y-153149100D01*
X214745500Y-165861700D02*
X216347100Y-167463300D01*
%TO.N,FLOPPY_DENSITY*%
X226363300Y-128809000D02*
X225995600Y-129176700D01*
X215274200Y-130698800D02*
X196847500Y-130698800D01*
X227540000Y-128000000D02*
X226363300Y-128000000D01*
X225995600Y-129176700D02*
X216796300Y-129176700D01*
X226363300Y-128000000D02*
X226363300Y-128809000D01*
X216796300Y-129176700D02*
X215274200Y-130698800D01*
%TO.N,FLOPPY_MOTEA*%
X197619200Y-140932500D02*
X212665500Y-140932500D01*
X214261300Y-139336700D02*
X225554400Y-139336700D01*
X186363000Y-140528000D02*
X186363000Y-140160000D01*
X173971000Y-141337000D02*
X185554000Y-141337000D01*
X197619200Y-141346500D02*
X197619200Y-140932500D01*
X172271000Y-143038000D02*
X173971000Y-141337000D01*
X212665500Y-140932500D02*
X214261300Y-139336700D01*
X185958500Y-140932500D02*
X186363000Y-140528000D01*
X185958500Y-140932500D02*
X197619200Y-140932500D01*
X185554000Y-141337000D02*
X185958500Y-140932500D01*
X186363000Y-140160000D02*
X187540000Y-140160000D01*
X226363300Y-138527800D02*
X226363300Y-138160000D01*
X225554400Y-139336700D02*
X226363300Y-138527800D01*
X227540000Y-138160000D02*
X226363300Y-138160000D01*
%TO.N,FLOPPY_DRVSEL*%
X227540000Y-140700000D02*
X226363300Y-140700000D01*
X226363300Y-140700000D02*
X226363300Y-141067800D01*
X226363300Y-141067800D02*
X225554400Y-141876700D01*
X197975300Y-141876700D02*
X197386700Y-142465300D01*
X193873300Y-177080000D02*
X193647300Y-176854000D01*
X197386700Y-142465300D02*
X187774700Y-142465300D01*
X193647300Y-176854000D02*
X193057500Y-176854000D01*
X195000000Y-177080000D02*
X193873300Y-177080000D01*
X225554400Y-141876700D02*
X197975300Y-141876700D01*
%TO.N,FLOPPY_MOTOR*%
X225554400Y-146956700D02*
X226363300Y-146147800D01*
X193864500Y-147780000D02*
X194687800Y-146956700D01*
X185529000Y-148982000D02*
X169592000Y-148982000D01*
X226363300Y-146147800D02*
X226363300Y-145780000D01*
X194687800Y-146956700D02*
X225554400Y-146956700D01*
X186363000Y-148148000D02*
X185529000Y-148982000D01*
X186363000Y-147780000D02*
X186363000Y-148148000D01*
X227540000Y-145780000D02*
X226363300Y-145780000D01*
X187540000Y-147780000D02*
X186363000Y-147780000D01*
X193864500Y-148270900D02*
X193864500Y-147780000D01*
X187540000Y-147780000D02*
X193864500Y-147780000D01*
X169592000Y-148982000D02*
X169388000Y-148779000D01*
%TO.N,FLOPPY_DIR*%
X226363300Y-148687800D02*
X225554400Y-149496700D01*
X227540000Y-148320000D02*
X226363300Y-148320000D01*
X191250900Y-149496700D02*
X190971000Y-149776600D01*
X225554400Y-149496700D02*
X191250900Y-149496700D01*
X188230300Y-149776600D02*
X190971000Y-149776600D01*
X226363300Y-148320000D02*
X226363300Y-148687800D01*
X187432000Y-150574900D02*
X188230300Y-149776600D01*
%TO.N,FLOPPY_STEP*%
X176491000Y-154037000D02*
X175576000Y-154952000D01*
X185554000Y-154037000D02*
X176491000Y-154037000D01*
X216447600Y-153600800D02*
X196849000Y-153600800D01*
X186363000Y-153228000D02*
X185554000Y-154037000D01*
X187540000Y-152860000D02*
X186363000Y-152860000D01*
X186363000Y-152860000D02*
X186363000Y-153228000D01*
X218011700Y-152036700D02*
X216447600Y-153600800D01*
X226363300Y-151227800D02*
X225554400Y-152036700D01*
X187540000Y-152860000D02*
X188280800Y-153600800D01*
X188280800Y-153600800D02*
X196849000Y-153600800D01*
X196849000Y-153600800D02*
X196849000Y-153862900D01*
X226363300Y-150860000D02*
X226363300Y-151227800D01*
X225554400Y-152036700D02*
X218011700Y-152036700D01*
X227540000Y-150860000D02*
X226363300Y-150860000D01*
%TO.N,FLOPPY_WGATE*%
X226363300Y-155940000D02*
X226363300Y-156307800D01*
X227540000Y-155940000D02*
X226363300Y-155940000D01*
X225533500Y-157137600D02*
X187544500Y-157137600D01*
X226363300Y-156307800D02*
X225533500Y-157137600D01*
%TO.N,FLOPPY_SIDE1*%
X226363300Y-165732300D02*
X225519200Y-164888200D01*
X186363000Y-167732000D02*
X185554000Y-166923000D01*
X199988300Y-173035000D02*
X201493300Y-174540000D01*
X202620000Y-174540000D02*
X201493300Y-174540000D01*
X195053300Y-168100000D02*
X199988300Y-173035000D01*
X178747000Y-161103000D02*
X178747000Y-160540000D01*
X178747000Y-160540000D02*
X177620000Y-160540000D01*
X184567000Y-166923000D02*
X178747000Y-161103000D01*
X225519200Y-164888200D02*
X208135100Y-164888200D01*
X226363300Y-166100000D02*
X226363300Y-165732300D01*
X208135100Y-164888200D02*
X199988300Y-173035000D01*
X187540000Y-168100000D02*
X186363000Y-168100000D01*
X187540000Y-168100000D02*
X195053300Y-168100000D01*
X185554000Y-166923000D02*
X184567000Y-166923000D01*
X227540000Y-166100000D02*
X226363300Y-166100000D01*
X186363000Y-168100000D02*
X186363000Y-167732000D01*
%TO.N,LED_ANODE*%
X125283900Y-180000000D02*
X125255500Y-180028400D01*
X166363300Y-140607700D02*
X165553500Y-141417500D01*
X126127000Y-180000000D02*
X127389000Y-178738000D01*
X127389000Y-178738000D02*
X148639000Y-178738000D01*
X164319200Y-141417500D02*
X161734000Y-138832300D01*
X167540000Y-140240000D02*
X166363300Y-140240000D01*
X125283900Y-180000000D02*
X126127000Y-180000000D01*
X161734000Y-138832300D02*
X155085500Y-138832300D01*
X125000000Y-180000000D02*
X125283900Y-180000000D01*
X166363300Y-140240000D02*
X166363300Y-140607700D01*
X165553500Y-141417500D02*
X164319200Y-141417500D01*
%TO.N,LED_CATHODE*%
X132907000Y-181127000D02*
X135416000Y-181127000D01*
X134033000Y-180000000D02*
X132907000Y-181127000D01*
X134358500Y-197325200D02*
X135033300Y-198000000D01*
X135416000Y-181127000D02*
X135492300Y-181203300D01*
X116126700Y-197718200D02*
X116971600Y-196873300D01*
X119127000Y-180000000D02*
X118000000Y-180000000D01*
X119972000Y-181127000D02*
X119127000Y-180282000D01*
X136160000Y-198000000D02*
X135033300Y-198000000D01*
X115000000Y-198000000D02*
X116126700Y-198000000D01*
X127387200Y-197325100D02*
X127387200Y-197325200D01*
X116126700Y-198000000D02*
X116126700Y-197718200D01*
X135160000Y-180000000D02*
X134033000Y-180000000D01*
X119127000Y-180282000D02*
X119127000Y-180000000D01*
X127387200Y-197325200D02*
X134358500Y-197325200D01*
X116971600Y-196873300D02*
X126935400Y-196873300D01*
X132907000Y-181127000D02*
X119972000Y-181127000D01*
X126935400Y-196873300D02*
X127387200Y-197325100D01*
%TD*%
M02*
