M48
; DRILL file {KiCad 9.0.7} date 2026-03-08T22:55:14+0200
; FORMAT={-:-/ absolute / metric / decimal}
; #@! TF.CreationDate,2026-03-08T22:55:14+02:00
; #@! TF.GenerationSoftware,Kicad,Pcbnew,9.0.7
; #@! TF.FileFunction,MixedPlating,1,2
FMAT,2
METRIC
; #@! TA.AperFunction,Plated,PTH,ViaDrill
T1C0.300
; #@! TA.AperFunction,Plated,PTH,ComponentDrill
T2C0.800
; #@! TA.AperFunction,Plated,PTH,ComponentDrill
T3C1.000
; #@! TA.AperFunction,Plated,PTH,ComponentDrill
T4C1.500
; #@! TA.AperFunction,Plated,PTH,ComponentDrill
T5C3.200
%
G90
G05
T1
X110.463Y-124.944
X122.272Y-148.271
X125.255Y-180.028
X131.221Y-159.998
X135.492Y-181.203
X137.188Y-156.518
X142.16Y-119.946
X142.16Y-125.704
X143.153Y-134.648
X148.639Y-178.738
X151.593Y-166.838
X152.098Y-132.799
X154.822Y-157.278
X155.085Y-138.832
X155.085Y-183.452
X157.054Y-129.666
X157.501Y-170.362
X158.069Y-140.423
X159.859Y-167.627
X160.967Y-151.119
X162.074Y-157.456
X163.186Y-149.152
X163.415Y-142.585
X163.886Y-163.022
X166.052Y-148.961
X167.017Y-171.725
X169.388Y-148.779
X170.0Y-142.286
X170.019Y-153.547
X170.362Y-139.339
X172.271Y-143.038
X175.576Y-154.952
X176.835Y-157.894
X177.62Y-172.972
X186.349Y-146.466
X187.432Y-150.575
X187.544Y-157.138
X187.775Y-142.465
X189.444Y-162.996
X189.994Y-140.062
X190.161Y-151.962
X190.971Y-149.777
X193.058Y-176.854
X193.864Y-148.271
X196.847Y-130.699
X196.849Y-153.863
X197.619Y-141.346
X214.745Y-165.862
T2
X115.0Y-198.0
X117.54Y-198.0
X122.0Y-122.0
X122.0Y-129.0
X122.0Y-136.0
X122.0Y-143.0
X126.0Y-198.0
X128.0Y-172.0
X128.0Y-174.54
X128.0Y-177.08
X128.0Y-179.62
X132.16Y-122.0
X132.16Y-129.0
X132.16Y-136.0
X132.16Y-143.0
X135.62Y-172.0
X135.62Y-174.54
X135.62Y-177.08
X135.62Y-179.62
X136.16Y-198.0
X140.0Y-122.0
X140.0Y-129.0
X140.0Y-136.0
X150.16Y-122.0
X150.16Y-129.0
X150.16Y-136.0
X155.0Y-198.0
X160.0Y-198.0
X175.0Y-198.0
X180.0Y-108.0
X180.0Y-198.0
X182.0Y-108.0
X195.0Y-172.0
X195.0Y-174.54
X195.0Y-177.08
X195.0Y-179.62
X195.0Y-182.16
X195.0Y-184.7
X195.0Y-187.24
X195.0Y-189.78
X195.0Y-198.0
X200.0Y-128.0
X200.0Y-136.0
X200.0Y-144.0
X200.0Y-152.0
X200.0Y-198.0
X202.62Y-172.0
X202.62Y-174.54
X202.62Y-177.08
X202.62Y-179.62
X202.62Y-182.16
X202.62Y-184.7
X202.62Y-187.24
X202.62Y-189.78
X210.16Y-128.0
X210.16Y-136.0
X210.16Y-144.0
X210.16Y-152.0
T3
X103.0Y-148.0
X104.5Y-152.0
X108.0Y-144.0
X108.0Y-148.0
X111.5Y-152.0
X113.0Y-148.0
X162.0Y-108.0
X165.0Y-113.0
X165.0Y-125.0
X165.0Y-127.54
X165.0Y-130.08
X165.0Y-132.62
X165.0Y-135.16
X165.0Y-137.7
X165.0Y-140.24
X165.0Y-142.78
X165.0Y-145.32
X165.0Y-147.86
X165.0Y-150.4
X165.0Y-152.94
X165.0Y-155.48
X165.0Y-158.02
X165.0Y-160.56
X167.54Y-125.0
X167.54Y-127.54
X167.54Y-130.08
X167.54Y-132.62
X167.54Y-135.16
X167.54Y-137.7
X167.54Y-140.24
X167.54Y-142.78
X167.54Y-145.32
X167.54Y-147.86
X167.54Y-150.4
X167.54Y-152.94
X167.54Y-155.48
X167.54Y-158.02
X167.54Y-160.56
X168.0Y-108.0
X225.0Y-128.0
X225.0Y-130.54
X225.0Y-133.08
X225.0Y-135.62
X225.0Y-138.16
X225.0Y-140.7
X225.0Y-143.24
X225.0Y-145.78
X225.0Y-148.32
X225.0Y-150.86
X225.0Y-153.4
X225.0Y-155.94
X225.0Y-158.48
X225.0Y-161.02
X225.0Y-163.56
X225.0Y-166.1
X225.0Y-168.64
X227.54Y-128.0
X227.54Y-130.54
X227.54Y-133.08
X227.54Y-135.62
X227.54Y-138.16
X227.54Y-140.7
X227.54Y-143.24
X227.54Y-145.78
X227.54Y-148.32
X227.54Y-150.86
X227.54Y-153.4
X227.54Y-155.94
X227.54Y-158.48
X227.54Y-161.02
X227.54Y-163.56
X227.54Y-166.1
X227.54Y-168.64
T4
X100.5Y-148.0
X115.5Y-148.0
T5
X103.0Y-103.0
X103.0Y-217.0
X237.0Y-103.0
X237.0Y-217.0
M30
