%TF.GenerationSoftware,KiCad,Pcbnew,9.0.7*%
%TF.CreationDate,2026-03-10T21:43:04+02:00*%
%TF.ProjectId,64korppu-E,36346b6f-7270-4707-952d-452e6b696361,rev?*%
%TF.SameCoordinates,Original*%
%TF.FileFunction,Legend,Top*%
%TF.FilePolarity,Positive*%
%FSLAX46Y46*%
G04 Gerber Fmt 4.6, Leading zero omitted, Abs format (unit mm)*
G04 Created by KiCad (PCBNEW 9.0.7) date 2026-03-10 21:43:04*
%MOMM*%
%LPD*%
G01*
G04 APERTURE LIST*
%ADD10C,0.300000*%
%ADD11C,0.150000*%
G04 APERTURE END LIST*
D10*
X155231205Y-158828139D02*
X155159777Y-158899568D01*
X155159777Y-158899568D02*
X154945491Y-158970996D01*
X154945491Y-158970996D02*
X154802634Y-158970996D01*
X154802634Y-158970996D02*
X154588348Y-158899568D01*
X154588348Y-158899568D02*
X154445491Y-158756710D01*
X154445491Y-158756710D02*
X154374062Y-158613853D01*
X154374062Y-158613853D02*
X154302634Y-158328139D01*
X154302634Y-158328139D02*
X154302634Y-158113853D01*
X154302634Y-158113853D02*
X154374062Y-157828139D01*
X154374062Y-157828139D02*
X154445491Y-157685282D01*
X154445491Y-157685282D02*
X154588348Y-157542425D01*
X154588348Y-157542425D02*
X154802634Y-157470996D01*
X154802634Y-157470996D02*
X154945491Y-157470996D01*
X154945491Y-157470996D02*
X155159777Y-157542425D01*
X155159777Y-157542425D02*
X155231205Y-157613853D01*
X156516920Y-157470996D02*
X156231205Y-157470996D01*
X156231205Y-157470996D02*
X156088348Y-157542425D01*
X156088348Y-157542425D02*
X156016920Y-157613853D01*
X156016920Y-157613853D02*
X155874062Y-157828139D01*
X155874062Y-157828139D02*
X155802634Y-158113853D01*
X155802634Y-158113853D02*
X155802634Y-158685282D01*
X155802634Y-158685282D02*
X155874062Y-158828139D01*
X155874062Y-158828139D02*
X155945491Y-158899568D01*
X155945491Y-158899568D02*
X156088348Y-158970996D01*
X156088348Y-158970996D02*
X156374062Y-158970996D01*
X156374062Y-158970996D02*
X156516920Y-158899568D01*
X156516920Y-158899568D02*
X156588348Y-158828139D01*
X156588348Y-158828139D02*
X156659777Y-158685282D01*
X156659777Y-158685282D02*
X156659777Y-158328139D01*
X156659777Y-158328139D02*
X156588348Y-158185282D01*
X156588348Y-158185282D02*
X156516920Y-158113853D01*
X156516920Y-158113853D02*
X156374062Y-158042425D01*
X156374062Y-158042425D02*
X156088348Y-158042425D01*
X156088348Y-158042425D02*
X155945491Y-158113853D01*
X155945491Y-158113853D02*
X155874062Y-158185282D01*
X155874062Y-158185282D02*
X155802634Y-158328139D01*
X157945491Y-157970996D02*
X157945491Y-158970996D01*
X157588348Y-157399568D02*
X157231205Y-158470996D01*
X157231205Y-158470996D02*
X158159776Y-158470996D01*
X159874061Y-158970996D02*
X159874061Y-157470996D01*
X159874061Y-158185282D02*
X160731204Y-158185282D01*
X160731204Y-158970996D02*
X160731204Y-157470996D01*
X161445490Y-158970996D02*
X161445490Y-157470996D01*
X161445490Y-157470996D02*
X161802633Y-157470996D01*
X161802633Y-157470996D02*
X162016919Y-157542425D01*
X162016919Y-157542425D02*
X162159776Y-157685282D01*
X162159776Y-157685282D02*
X162231205Y-157828139D01*
X162231205Y-157828139D02*
X162302633Y-158113853D01*
X162302633Y-158113853D02*
X162302633Y-158328139D01*
X162302633Y-158328139D02*
X162231205Y-158613853D01*
X162231205Y-158613853D02*
X162159776Y-158756710D01*
X162159776Y-158756710D02*
X162016919Y-158899568D01*
X162016919Y-158899568D02*
X161802633Y-158970996D01*
X161802633Y-158970996D02*
X161445490Y-158970996D01*
X164588347Y-158185282D02*
X164088347Y-158185282D01*
X164088347Y-158970996D02*
X164088347Y-157470996D01*
X164088347Y-157470996D02*
X164802633Y-157470996D01*
X165588347Y-158970996D02*
X165445490Y-158899568D01*
X165445490Y-158899568D02*
X165374061Y-158756710D01*
X165374061Y-158756710D02*
X165374061Y-157470996D01*
X166374061Y-158970996D02*
X166231204Y-158899568D01*
X166231204Y-158899568D02*
X166159775Y-158828139D01*
X166159775Y-158828139D02*
X166088347Y-158685282D01*
X166088347Y-158685282D02*
X166088347Y-158256710D01*
X166088347Y-158256710D02*
X166159775Y-158113853D01*
X166159775Y-158113853D02*
X166231204Y-158042425D01*
X166231204Y-158042425D02*
X166374061Y-157970996D01*
X166374061Y-157970996D02*
X166588347Y-157970996D01*
X166588347Y-157970996D02*
X166731204Y-158042425D01*
X166731204Y-158042425D02*
X166802633Y-158113853D01*
X166802633Y-158113853D02*
X166874061Y-158256710D01*
X166874061Y-158256710D02*
X166874061Y-158685282D01*
X166874061Y-158685282D02*
X166802633Y-158828139D01*
X166802633Y-158828139D02*
X166731204Y-158899568D01*
X166731204Y-158899568D02*
X166588347Y-158970996D01*
X166588347Y-158970996D02*
X166374061Y-158970996D01*
X167516918Y-157970996D02*
X167516918Y-159470996D01*
X167516918Y-158042425D02*
X167659776Y-157970996D01*
X167659776Y-157970996D02*
X167945490Y-157970996D01*
X167945490Y-157970996D02*
X168088347Y-158042425D01*
X168088347Y-158042425D02*
X168159776Y-158113853D01*
X168159776Y-158113853D02*
X168231204Y-158256710D01*
X168231204Y-158256710D02*
X168231204Y-158685282D01*
X168231204Y-158685282D02*
X168159776Y-158828139D01*
X168159776Y-158828139D02*
X168088347Y-158899568D01*
X168088347Y-158899568D02*
X167945490Y-158970996D01*
X167945490Y-158970996D02*
X167659776Y-158970996D01*
X167659776Y-158970996D02*
X167516918Y-158899568D01*
X168874061Y-157970996D02*
X168874061Y-159470996D01*
X168874061Y-158042425D02*
X169016919Y-157970996D01*
X169016919Y-157970996D02*
X169302633Y-157970996D01*
X169302633Y-157970996D02*
X169445490Y-158042425D01*
X169445490Y-158042425D02*
X169516919Y-158113853D01*
X169516919Y-158113853D02*
X169588347Y-158256710D01*
X169588347Y-158256710D02*
X169588347Y-158685282D01*
X169588347Y-158685282D02*
X169516919Y-158828139D01*
X169516919Y-158828139D02*
X169445490Y-158899568D01*
X169445490Y-158899568D02*
X169302633Y-158970996D01*
X169302633Y-158970996D02*
X169016919Y-158970996D01*
X169016919Y-158970996D02*
X168874061Y-158899568D01*
X170088347Y-157970996D02*
X170445490Y-158970996D01*
X170802633Y-157970996D02*
X170445490Y-158970996D01*
X170445490Y-158970996D02*
X170302633Y-159328139D01*
X170302633Y-159328139D02*
X170231204Y-159399568D01*
X170231204Y-159399568D02*
X170088347Y-159470996D01*
X173374061Y-158828139D02*
X173302633Y-158899568D01*
X173302633Y-158899568D02*
X173088347Y-158970996D01*
X173088347Y-158970996D02*
X172945490Y-158970996D01*
X172945490Y-158970996D02*
X172731204Y-158899568D01*
X172731204Y-158899568D02*
X172588347Y-158756710D01*
X172588347Y-158756710D02*
X172516918Y-158613853D01*
X172516918Y-158613853D02*
X172445490Y-158328139D01*
X172445490Y-158328139D02*
X172445490Y-158113853D01*
X172445490Y-158113853D02*
X172516918Y-157828139D01*
X172516918Y-157828139D02*
X172588347Y-157685282D01*
X172588347Y-157685282D02*
X172731204Y-157542425D01*
X172731204Y-157542425D02*
X172945490Y-157470996D01*
X172945490Y-157470996D02*
X173088347Y-157470996D01*
X173088347Y-157470996D02*
X173302633Y-157542425D01*
X173302633Y-157542425D02*
X173374061Y-157613853D01*
X174231204Y-158970996D02*
X174088347Y-158899568D01*
X174088347Y-158899568D02*
X174016918Y-158828139D01*
X174016918Y-158828139D02*
X173945490Y-158685282D01*
X173945490Y-158685282D02*
X173945490Y-158256710D01*
X173945490Y-158256710D02*
X174016918Y-158113853D01*
X174016918Y-158113853D02*
X174088347Y-158042425D01*
X174088347Y-158042425D02*
X174231204Y-157970996D01*
X174231204Y-157970996D02*
X174445490Y-157970996D01*
X174445490Y-157970996D02*
X174588347Y-158042425D01*
X174588347Y-158042425D02*
X174659776Y-158113853D01*
X174659776Y-158113853D02*
X174731204Y-158256710D01*
X174731204Y-158256710D02*
X174731204Y-158685282D01*
X174731204Y-158685282D02*
X174659776Y-158828139D01*
X174659776Y-158828139D02*
X174588347Y-158899568D01*
X174588347Y-158899568D02*
X174445490Y-158970996D01*
X174445490Y-158970996D02*
X174231204Y-158970996D01*
X175374061Y-157970996D02*
X175374061Y-158970996D01*
X175374061Y-158113853D02*
X175445490Y-158042425D01*
X175445490Y-158042425D02*
X175588347Y-157970996D01*
X175588347Y-157970996D02*
X175802633Y-157970996D01*
X175802633Y-157970996D02*
X175945490Y-158042425D01*
X175945490Y-158042425D02*
X176016919Y-158185282D01*
X176016919Y-158185282D02*
X176016919Y-158970996D01*
X176516919Y-157970996D02*
X177088347Y-157970996D01*
X176731204Y-157470996D02*
X176731204Y-158756710D01*
X176731204Y-158756710D02*
X176802633Y-158899568D01*
X176802633Y-158899568D02*
X176945490Y-158970996D01*
X176945490Y-158970996D02*
X177088347Y-158970996D01*
X177588347Y-158970996D02*
X177588347Y-157970996D01*
X177588347Y-158256710D02*
X177659776Y-158113853D01*
X177659776Y-158113853D02*
X177731205Y-158042425D01*
X177731205Y-158042425D02*
X177874062Y-157970996D01*
X177874062Y-157970996D02*
X178016919Y-157970996D01*
X178731204Y-158970996D02*
X178588347Y-158899568D01*
X178588347Y-158899568D02*
X178516918Y-158828139D01*
X178516918Y-158828139D02*
X178445490Y-158685282D01*
X178445490Y-158685282D02*
X178445490Y-158256710D01*
X178445490Y-158256710D02*
X178516918Y-158113853D01*
X178516918Y-158113853D02*
X178588347Y-158042425D01*
X178588347Y-158042425D02*
X178731204Y-157970996D01*
X178731204Y-157970996D02*
X178945490Y-157970996D01*
X178945490Y-157970996D02*
X179088347Y-158042425D01*
X179088347Y-158042425D02*
X179159776Y-158113853D01*
X179159776Y-158113853D02*
X179231204Y-158256710D01*
X179231204Y-158256710D02*
X179231204Y-158685282D01*
X179231204Y-158685282D02*
X179159776Y-158828139D01*
X179159776Y-158828139D02*
X179088347Y-158899568D01*
X179088347Y-158899568D02*
X178945490Y-158970996D01*
X178945490Y-158970996D02*
X178731204Y-158970996D01*
X180088347Y-158970996D02*
X179945490Y-158899568D01*
X179945490Y-158899568D02*
X179874061Y-158756710D01*
X179874061Y-158756710D02*
X179874061Y-157470996D01*
X180874061Y-158970996D02*
X180731204Y-158899568D01*
X180731204Y-158899568D02*
X180659775Y-158756710D01*
X180659775Y-158756710D02*
X180659775Y-157470996D01*
X182016918Y-158899568D02*
X181874061Y-158970996D01*
X181874061Y-158970996D02*
X181588347Y-158970996D01*
X181588347Y-158970996D02*
X181445489Y-158899568D01*
X181445489Y-158899568D02*
X181374061Y-158756710D01*
X181374061Y-158756710D02*
X181374061Y-158185282D01*
X181374061Y-158185282D02*
X181445489Y-158042425D01*
X181445489Y-158042425D02*
X181588347Y-157970996D01*
X181588347Y-157970996D02*
X181874061Y-157970996D01*
X181874061Y-157970996D02*
X182016918Y-158042425D01*
X182016918Y-158042425D02*
X182088347Y-158185282D01*
X182088347Y-158185282D02*
X182088347Y-158328139D01*
X182088347Y-158328139D02*
X181374061Y-158470996D01*
X182731203Y-158970996D02*
X182731203Y-157970996D01*
X182731203Y-158256710D02*
X182802632Y-158113853D01*
X182802632Y-158113853D02*
X182874061Y-158042425D01*
X182874061Y-158042425D02*
X183016918Y-157970996D01*
X183016918Y-157970996D02*
X183159775Y-157970996D01*
X158088346Y-161385912D02*
X158088346Y-159885912D01*
X158231204Y-160814484D02*
X158659775Y-161385912D01*
X158659775Y-160385912D02*
X158088346Y-160957341D01*
X159945490Y-161385912D02*
X159945490Y-160600198D01*
X159945490Y-160600198D02*
X159874061Y-160457341D01*
X159874061Y-160457341D02*
X159731204Y-160385912D01*
X159731204Y-160385912D02*
X159445490Y-160385912D01*
X159445490Y-160385912D02*
X159302632Y-160457341D01*
X159945490Y-161314484D02*
X159802632Y-161385912D01*
X159802632Y-161385912D02*
X159445490Y-161385912D01*
X159445490Y-161385912D02*
X159302632Y-161314484D01*
X159302632Y-161314484D02*
X159231204Y-161171626D01*
X159231204Y-161171626D02*
X159231204Y-161028769D01*
X159231204Y-161028769D02*
X159302632Y-160885912D01*
X159302632Y-160885912D02*
X159445490Y-160814484D01*
X159445490Y-160814484D02*
X159802632Y-160814484D01*
X159802632Y-160814484D02*
X159945490Y-160743055D01*
X160659775Y-161385912D02*
X160659775Y-160385912D01*
X160659775Y-160671626D02*
X160731204Y-160528769D01*
X160731204Y-160528769D02*
X160802633Y-160457341D01*
X160802633Y-160457341D02*
X160945490Y-160385912D01*
X160945490Y-160385912D02*
X161088347Y-160385912D01*
X161516918Y-161314484D02*
X161659775Y-161385912D01*
X161659775Y-161385912D02*
X161945489Y-161385912D01*
X161945489Y-161385912D02*
X162088346Y-161314484D01*
X162088346Y-161314484D02*
X162159775Y-161171626D01*
X162159775Y-161171626D02*
X162159775Y-161100198D01*
X162159775Y-161100198D02*
X162088346Y-160957341D01*
X162088346Y-160957341D02*
X161945489Y-160885912D01*
X161945489Y-160885912D02*
X161731204Y-160885912D01*
X161731204Y-160885912D02*
X161588346Y-160814484D01*
X161588346Y-160814484D02*
X161516918Y-160671626D01*
X161516918Y-160671626D02*
X161516918Y-160600198D01*
X161516918Y-160600198D02*
X161588346Y-160457341D01*
X161588346Y-160457341D02*
X161731204Y-160385912D01*
X161731204Y-160385912D02*
X161945489Y-160385912D01*
X161945489Y-160385912D02*
X162088346Y-160457341D01*
X162802632Y-161385912D02*
X162802632Y-159885912D01*
X162945490Y-160814484D02*
X163374061Y-161385912D01*
X163374061Y-160385912D02*
X162802632Y-160957341D01*
X164016918Y-161385912D02*
X164016918Y-160385912D01*
X164016918Y-159885912D02*
X163945490Y-159957341D01*
X163945490Y-159957341D02*
X164016918Y-160028769D01*
X164016918Y-160028769D02*
X164088347Y-159957341D01*
X164088347Y-159957341D02*
X164016918Y-159885912D01*
X164016918Y-159885912D02*
X164016918Y-160028769D01*
X165874061Y-161385912D02*
X165874061Y-159885912D01*
X165874061Y-160457341D02*
X166016919Y-160385912D01*
X166016919Y-160385912D02*
X166302633Y-160385912D01*
X166302633Y-160385912D02*
X166445490Y-160457341D01*
X166445490Y-160457341D02*
X166516919Y-160528769D01*
X166516919Y-160528769D02*
X166588347Y-160671626D01*
X166588347Y-160671626D02*
X166588347Y-161100198D01*
X166588347Y-161100198D02*
X166516919Y-161243055D01*
X166516919Y-161243055D02*
X166445490Y-161314484D01*
X166445490Y-161314484D02*
X166302633Y-161385912D01*
X166302633Y-161385912D02*
X166016919Y-161385912D01*
X166016919Y-161385912D02*
X165874061Y-161314484D01*
X167088347Y-160385912D02*
X167445490Y-161385912D01*
X167802633Y-160385912D02*
X167445490Y-161385912D01*
X167445490Y-161385912D02*
X167302633Y-161743055D01*
X167302633Y-161743055D02*
X167231204Y-161814484D01*
X167231204Y-161814484D02*
X167088347Y-161885912D01*
X170159776Y-161385912D02*
X170159776Y-159885912D01*
X170159776Y-161314484D02*
X170016918Y-161385912D01*
X170016918Y-161385912D02*
X169731204Y-161385912D01*
X169731204Y-161385912D02*
X169588347Y-161314484D01*
X169588347Y-161314484D02*
X169516918Y-161243055D01*
X169516918Y-161243055D02*
X169445490Y-161100198D01*
X169445490Y-161100198D02*
X169445490Y-160671626D01*
X169445490Y-160671626D02*
X169516918Y-160528769D01*
X169516918Y-160528769D02*
X169588347Y-160457341D01*
X169588347Y-160457341D02*
X169731204Y-160385912D01*
X169731204Y-160385912D02*
X170016918Y-160385912D01*
X170016918Y-160385912D02*
X170159776Y-160457341D01*
X171445490Y-161314484D02*
X171302633Y-161385912D01*
X171302633Y-161385912D02*
X171016919Y-161385912D01*
X171016919Y-161385912D02*
X170874061Y-161314484D01*
X170874061Y-161314484D02*
X170802633Y-161171626D01*
X170802633Y-161171626D02*
X170802633Y-160600198D01*
X170802633Y-160600198D02*
X170874061Y-160457341D01*
X170874061Y-160457341D02*
X171016919Y-160385912D01*
X171016919Y-160385912D02*
X171302633Y-160385912D01*
X171302633Y-160385912D02*
X171445490Y-160457341D01*
X171445490Y-160457341D02*
X171516919Y-160600198D01*
X171516919Y-160600198D02*
X171516919Y-160743055D01*
X171516919Y-160743055D02*
X170802633Y-160885912D01*
X172088347Y-161314484D02*
X172231204Y-161385912D01*
X172231204Y-161385912D02*
X172516918Y-161385912D01*
X172516918Y-161385912D02*
X172659775Y-161314484D01*
X172659775Y-161314484D02*
X172731204Y-161171626D01*
X172731204Y-161171626D02*
X172731204Y-161100198D01*
X172731204Y-161100198D02*
X172659775Y-160957341D01*
X172659775Y-160957341D02*
X172516918Y-160885912D01*
X172516918Y-160885912D02*
X172302633Y-160885912D01*
X172302633Y-160885912D02*
X172159775Y-160814484D01*
X172159775Y-160814484D02*
X172088347Y-160671626D01*
X172088347Y-160671626D02*
X172088347Y-160600198D01*
X172088347Y-160600198D02*
X172159775Y-160457341D01*
X172159775Y-160457341D02*
X172302633Y-160385912D01*
X172302633Y-160385912D02*
X172516918Y-160385912D01*
X172516918Y-160385912D02*
X172659775Y-160457341D01*
X173374061Y-161385912D02*
X173374061Y-160385912D01*
X173374061Y-159885912D02*
X173302633Y-159957341D01*
X173302633Y-159957341D02*
X173374061Y-160028769D01*
X173374061Y-160028769D02*
X173445490Y-159957341D01*
X173445490Y-159957341D02*
X173374061Y-159885912D01*
X173374061Y-159885912D02*
X173374061Y-160028769D01*
X174731205Y-160385912D02*
X174731205Y-161600198D01*
X174731205Y-161600198D02*
X174659776Y-161743055D01*
X174659776Y-161743055D02*
X174588347Y-161814484D01*
X174588347Y-161814484D02*
X174445490Y-161885912D01*
X174445490Y-161885912D02*
X174231205Y-161885912D01*
X174231205Y-161885912D02*
X174088347Y-161814484D01*
X174731205Y-161314484D02*
X174588347Y-161385912D01*
X174588347Y-161385912D02*
X174302633Y-161385912D01*
X174302633Y-161385912D02*
X174159776Y-161314484D01*
X174159776Y-161314484D02*
X174088347Y-161243055D01*
X174088347Y-161243055D02*
X174016919Y-161100198D01*
X174016919Y-161100198D02*
X174016919Y-160671626D01*
X174016919Y-160671626D02*
X174088347Y-160528769D01*
X174088347Y-160528769D02*
X174159776Y-160457341D01*
X174159776Y-160457341D02*
X174302633Y-160385912D01*
X174302633Y-160385912D02*
X174588347Y-160385912D01*
X174588347Y-160385912D02*
X174731205Y-160457341D01*
X175445490Y-160385912D02*
X175445490Y-161385912D01*
X175445490Y-160528769D02*
X175516919Y-160457341D01*
X175516919Y-160457341D02*
X175659776Y-160385912D01*
X175659776Y-160385912D02*
X175874062Y-160385912D01*
X175874062Y-160385912D02*
X176016919Y-160457341D01*
X176016919Y-160457341D02*
X176088348Y-160600198D01*
X176088348Y-160600198D02*
X176088348Y-161385912D01*
X177874062Y-160028769D02*
X177945490Y-159957341D01*
X177945490Y-159957341D02*
X178088348Y-159885912D01*
X178088348Y-159885912D02*
X178445490Y-159885912D01*
X178445490Y-159885912D02*
X178588348Y-159957341D01*
X178588348Y-159957341D02*
X178659776Y-160028769D01*
X178659776Y-160028769D02*
X178731205Y-160171626D01*
X178731205Y-160171626D02*
X178731205Y-160314484D01*
X178731205Y-160314484D02*
X178659776Y-160528769D01*
X178659776Y-160528769D02*
X177802633Y-161385912D01*
X177802633Y-161385912D02*
X178731205Y-161385912D01*
X179659776Y-159885912D02*
X179802633Y-159885912D01*
X179802633Y-159885912D02*
X179945490Y-159957341D01*
X179945490Y-159957341D02*
X180016919Y-160028769D01*
X180016919Y-160028769D02*
X180088347Y-160171626D01*
X180088347Y-160171626D02*
X180159776Y-160457341D01*
X180159776Y-160457341D02*
X180159776Y-160814484D01*
X180159776Y-160814484D02*
X180088347Y-161100198D01*
X180088347Y-161100198D02*
X180016919Y-161243055D01*
X180016919Y-161243055D02*
X179945490Y-161314484D01*
X179945490Y-161314484D02*
X179802633Y-161385912D01*
X179802633Y-161385912D02*
X179659776Y-161385912D01*
X179659776Y-161385912D02*
X179516919Y-161314484D01*
X179516919Y-161314484D02*
X179445490Y-161243055D01*
X179445490Y-161243055D02*
X179374061Y-161100198D01*
X179374061Y-161100198D02*
X179302633Y-160814484D01*
X179302633Y-160814484D02*
X179302633Y-160457341D01*
X179302633Y-160457341D02*
X179374061Y-160171626D01*
X179374061Y-160171626D02*
X179445490Y-160028769D01*
X179445490Y-160028769D02*
X179516919Y-159957341D01*
X179516919Y-159957341D02*
X179659776Y-159885912D01*
X180731204Y-160028769D02*
X180802632Y-159957341D01*
X180802632Y-159957341D02*
X180945490Y-159885912D01*
X180945490Y-159885912D02*
X181302632Y-159885912D01*
X181302632Y-159885912D02*
X181445490Y-159957341D01*
X181445490Y-159957341D02*
X181516918Y-160028769D01*
X181516918Y-160028769D02*
X181588347Y-160171626D01*
X181588347Y-160171626D02*
X181588347Y-160314484D01*
X181588347Y-160314484D02*
X181516918Y-160528769D01*
X181516918Y-160528769D02*
X180659775Y-161385912D01*
X180659775Y-161385912D02*
X181588347Y-161385912D01*
X182874061Y-159885912D02*
X182588346Y-159885912D01*
X182588346Y-159885912D02*
X182445489Y-159957341D01*
X182445489Y-159957341D02*
X182374061Y-160028769D01*
X182374061Y-160028769D02*
X182231203Y-160243055D01*
X182231203Y-160243055D02*
X182159775Y-160528769D01*
X182159775Y-160528769D02*
X182159775Y-161100198D01*
X182159775Y-161100198D02*
X182231203Y-161243055D01*
X182231203Y-161243055D02*
X182302632Y-161314484D01*
X182302632Y-161314484D02*
X182445489Y-161385912D01*
X182445489Y-161385912D02*
X182731203Y-161385912D01*
X182731203Y-161385912D02*
X182874061Y-161314484D01*
X182874061Y-161314484D02*
X182945489Y-161243055D01*
X182945489Y-161243055D02*
X183016918Y-161100198D01*
X183016918Y-161100198D02*
X183016918Y-160743055D01*
X183016918Y-160743055D02*
X182945489Y-160600198D01*
X182945489Y-160600198D02*
X182874061Y-160528769D01*
X182874061Y-160528769D02*
X182731203Y-160457341D01*
X182731203Y-160457341D02*
X182445489Y-160457341D01*
X182445489Y-160457341D02*
X182302632Y-160528769D01*
X182302632Y-160528769D02*
X182231203Y-160600198D01*
X182231203Y-160600198D02*
X182159775Y-160743055D01*
X174874062Y-163800828D02*
X174874062Y-162800828D01*
X174874062Y-163086542D02*
X174945491Y-162943685D01*
X174945491Y-162943685D02*
X175016920Y-162872257D01*
X175016920Y-162872257D02*
X175159777Y-162800828D01*
X175159777Y-162800828D02*
X175302634Y-162800828D01*
X176374062Y-163729400D02*
X176231205Y-163800828D01*
X176231205Y-163800828D02*
X175945491Y-163800828D01*
X175945491Y-163800828D02*
X175802633Y-163729400D01*
X175802633Y-163729400D02*
X175731205Y-163586542D01*
X175731205Y-163586542D02*
X175731205Y-163015114D01*
X175731205Y-163015114D02*
X175802633Y-162872257D01*
X175802633Y-162872257D02*
X175945491Y-162800828D01*
X175945491Y-162800828D02*
X176231205Y-162800828D01*
X176231205Y-162800828D02*
X176374062Y-162872257D01*
X176374062Y-162872257D02*
X176445491Y-163015114D01*
X176445491Y-163015114D02*
X176445491Y-163157971D01*
X176445491Y-163157971D02*
X175731205Y-163300828D01*
X176945490Y-162800828D02*
X177302633Y-163800828D01*
X177302633Y-163800828D02*
X177659776Y-162800828D01*
X179659776Y-162300828D02*
X179802633Y-162300828D01*
X179802633Y-162300828D02*
X179945490Y-162372257D01*
X179945490Y-162372257D02*
X180016919Y-162443685D01*
X180016919Y-162443685D02*
X180088347Y-162586542D01*
X180088347Y-162586542D02*
X180159776Y-162872257D01*
X180159776Y-162872257D02*
X180159776Y-163229400D01*
X180159776Y-163229400D02*
X180088347Y-163515114D01*
X180088347Y-163515114D02*
X180016919Y-163657971D01*
X180016919Y-163657971D02*
X179945490Y-163729400D01*
X179945490Y-163729400D02*
X179802633Y-163800828D01*
X179802633Y-163800828D02*
X179659776Y-163800828D01*
X179659776Y-163800828D02*
X179516919Y-163729400D01*
X179516919Y-163729400D02*
X179445490Y-163657971D01*
X179445490Y-163657971D02*
X179374061Y-163515114D01*
X179374061Y-163515114D02*
X179302633Y-163229400D01*
X179302633Y-163229400D02*
X179302633Y-162872257D01*
X179302633Y-162872257D02*
X179374061Y-162586542D01*
X179374061Y-162586542D02*
X179445490Y-162443685D01*
X179445490Y-162443685D02*
X179516919Y-162372257D01*
X179516919Y-162372257D02*
X179659776Y-162300828D01*
X181088347Y-162300828D02*
X181231204Y-162300828D01*
X181231204Y-162300828D02*
X181374061Y-162372257D01*
X181374061Y-162372257D02*
X181445490Y-162443685D01*
X181445490Y-162443685D02*
X181516918Y-162586542D01*
X181516918Y-162586542D02*
X181588347Y-162872257D01*
X181588347Y-162872257D02*
X181588347Y-163229400D01*
X181588347Y-163229400D02*
X181516918Y-163515114D01*
X181516918Y-163515114D02*
X181445490Y-163657971D01*
X181445490Y-163657971D02*
X181374061Y-163729400D01*
X181374061Y-163729400D02*
X181231204Y-163800828D01*
X181231204Y-163800828D02*
X181088347Y-163800828D01*
X181088347Y-163800828D02*
X180945490Y-163729400D01*
X180945490Y-163729400D02*
X180874061Y-163657971D01*
X180874061Y-163657971D02*
X180802632Y-163515114D01*
X180802632Y-163515114D02*
X180731204Y-163229400D01*
X180731204Y-163229400D02*
X180731204Y-162872257D01*
X180731204Y-162872257D02*
X180802632Y-162586542D01*
X180802632Y-162586542D02*
X180874061Y-162443685D01*
X180874061Y-162443685D02*
X180945490Y-162372257D01*
X180945490Y-162372257D02*
X181088347Y-162300828D01*
X183016918Y-163800828D02*
X182159775Y-163800828D01*
X182588346Y-163800828D02*
X182588346Y-162300828D01*
X182588346Y-162300828D02*
X182445489Y-162515114D01*
X182445489Y-162515114D02*
X182302632Y-162657971D01*
X182302632Y-162657971D02*
X182159775Y-162729400D01*
D11*
X114666666Y-101454819D02*
X114666666Y-102169104D01*
X114666666Y-102169104D02*
X114619047Y-102311961D01*
X114619047Y-102311961D02*
X114523809Y-102407200D01*
X114523809Y-102407200D02*
X114380952Y-102454819D01*
X114380952Y-102454819D02*
X114285714Y-102454819D01*
X115047619Y-101454819D02*
X115666666Y-101454819D01*
X115666666Y-101454819D02*
X115333333Y-101835771D01*
X115333333Y-101835771D02*
X115476190Y-101835771D01*
X115476190Y-101835771D02*
X115571428Y-101883390D01*
X115571428Y-101883390D02*
X115619047Y-101931009D01*
X115619047Y-101931009D02*
X115666666Y-102026247D01*
X115666666Y-102026247D02*
X115666666Y-102264342D01*
X115666666Y-102264342D02*
X115619047Y-102359580D01*
X115619047Y-102359580D02*
X115571428Y-102407200D01*
X115571428Y-102407200D02*
X115476190Y-102454819D01*
X115476190Y-102454819D02*
X115190476Y-102454819D01*
X115190476Y-102454819D02*
X115095238Y-102407200D01*
X115095238Y-102407200D02*
X115047619Y-102359580D01*
X130833333Y-102359580D02*
X130785714Y-102407200D01*
X130785714Y-102407200D02*
X130642857Y-102454819D01*
X130642857Y-102454819D02*
X130547619Y-102454819D01*
X130547619Y-102454819D02*
X130404762Y-102407200D01*
X130404762Y-102407200D02*
X130309524Y-102311961D01*
X130309524Y-102311961D02*
X130261905Y-102216723D01*
X130261905Y-102216723D02*
X130214286Y-102026247D01*
X130214286Y-102026247D02*
X130214286Y-101883390D01*
X130214286Y-101883390D02*
X130261905Y-101692914D01*
X130261905Y-101692914D02*
X130309524Y-101597676D01*
X130309524Y-101597676D02*
X130404762Y-101502438D01*
X130404762Y-101502438D02*
X130547619Y-101454819D01*
X130547619Y-101454819D02*
X130642857Y-101454819D01*
X130642857Y-101454819D02*
X130785714Y-101502438D01*
X130785714Y-101502438D02*
X130833333Y-101550057D01*
X131690476Y-101788152D02*
X131690476Y-102454819D01*
X131452381Y-101407200D02*
X131214286Y-102121485D01*
X131214286Y-102121485D02*
X131833333Y-102121485D01*
X109666666Y-145454819D02*
X109666666Y-146169104D01*
X109666666Y-146169104D02*
X109619047Y-146311961D01*
X109619047Y-146311961D02*
X109523809Y-146407200D01*
X109523809Y-146407200D02*
X109380952Y-146454819D01*
X109380952Y-146454819D02*
X109285714Y-146454819D01*
X110666666Y-146454819D02*
X110095238Y-146454819D01*
X110380952Y-146454819D02*
X110380952Y-145454819D01*
X110380952Y-145454819D02*
X110285714Y-145597676D01*
X110285714Y-145597676D02*
X110190476Y-145692914D01*
X110190476Y-145692914D02*
X110095238Y-145740533D01*
X112833333Y-114454819D02*
X112500000Y-113978628D01*
X112261905Y-114454819D02*
X112261905Y-113454819D01*
X112261905Y-113454819D02*
X112642857Y-113454819D01*
X112642857Y-113454819D02*
X112738095Y-113502438D01*
X112738095Y-113502438D02*
X112785714Y-113550057D01*
X112785714Y-113550057D02*
X112833333Y-113645295D01*
X112833333Y-113645295D02*
X112833333Y-113788152D01*
X112833333Y-113788152D02*
X112785714Y-113883390D01*
X112785714Y-113883390D02*
X112738095Y-113931009D01*
X112738095Y-113931009D02*
X112642857Y-113978628D01*
X112642857Y-113978628D02*
X112261905Y-113978628D01*
X113785714Y-114454819D02*
X113214286Y-114454819D01*
X113500000Y-114454819D02*
X113500000Y-113454819D01*
X113500000Y-113454819D02*
X113404762Y-113597676D01*
X113404762Y-113597676D02*
X113309524Y-113692914D01*
X113309524Y-113692914D02*
X113214286Y-113740533D01*
X112833333Y-119454819D02*
X112500000Y-118978628D01*
X112261905Y-119454819D02*
X112261905Y-118454819D01*
X112261905Y-118454819D02*
X112642857Y-118454819D01*
X112642857Y-118454819D02*
X112738095Y-118502438D01*
X112738095Y-118502438D02*
X112785714Y-118550057D01*
X112785714Y-118550057D02*
X112833333Y-118645295D01*
X112833333Y-118645295D02*
X112833333Y-118788152D01*
X112833333Y-118788152D02*
X112785714Y-118883390D01*
X112785714Y-118883390D02*
X112738095Y-118931009D01*
X112738095Y-118931009D02*
X112642857Y-118978628D01*
X112642857Y-118978628D02*
X112261905Y-118978628D01*
X113214286Y-118550057D02*
X113261905Y-118502438D01*
X113261905Y-118502438D02*
X113357143Y-118454819D01*
X113357143Y-118454819D02*
X113595238Y-118454819D01*
X113595238Y-118454819D02*
X113690476Y-118502438D01*
X113690476Y-118502438D02*
X113738095Y-118550057D01*
X113738095Y-118550057D02*
X113785714Y-118645295D01*
X113785714Y-118645295D02*
X113785714Y-118740533D01*
X113785714Y-118740533D02*
X113738095Y-118883390D01*
X113738095Y-118883390D02*
X113166667Y-119454819D01*
X113166667Y-119454819D02*
X113785714Y-119454819D01*
X112833333Y-124454819D02*
X112500000Y-123978628D01*
X112261905Y-124454819D02*
X112261905Y-123454819D01*
X112261905Y-123454819D02*
X112642857Y-123454819D01*
X112642857Y-123454819D02*
X112738095Y-123502438D01*
X112738095Y-123502438D02*
X112785714Y-123550057D01*
X112785714Y-123550057D02*
X112833333Y-123645295D01*
X112833333Y-123645295D02*
X112833333Y-123788152D01*
X112833333Y-123788152D02*
X112785714Y-123883390D01*
X112785714Y-123883390D02*
X112738095Y-123931009D01*
X112738095Y-123931009D02*
X112642857Y-123978628D01*
X112642857Y-123978628D02*
X112261905Y-123978628D01*
X113166667Y-123454819D02*
X113785714Y-123454819D01*
X113785714Y-123454819D02*
X113452381Y-123835771D01*
X113452381Y-123835771D02*
X113595238Y-123835771D01*
X113595238Y-123835771D02*
X113690476Y-123883390D01*
X113690476Y-123883390D02*
X113738095Y-123931009D01*
X113738095Y-123931009D02*
X113785714Y-124026247D01*
X113785714Y-124026247D02*
X113785714Y-124264342D01*
X113785714Y-124264342D02*
X113738095Y-124359580D01*
X113738095Y-124359580D02*
X113690476Y-124407200D01*
X113690476Y-124407200D02*
X113595238Y-124454819D01*
X113595238Y-124454819D02*
X113309524Y-124454819D01*
X113309524Y-124454819D02*
X113214286Y-124407200D01*
X113214286Y-124407200D02*
X113166667Y-124359580D01*
X112833333Y-129454819D02*
X112500000Y-128978628D01*
X112261905Y-129454819D02*
X112261905Y-128454819D01*
X112261905Y-128454819D02*
X112642857Y-128454819D01*
X112642857Y-128454819D02*
X112738095Y-128502438D01*
X112738095Y-128502438D02*
X112785714Y-128550057D01*
X112785714Y-128550057D02*
X112833333Y-128645295D01*
X112833333Y-128645295D02*
X112833333Y-128788152D01*
X112833333Y-128788152D02*
X112785714Y-128883390D01*
X112785714Y-128883390D02*
X112738095Y-128931009D01*
X112738095Y-128931009D02*
X112642857Y-128978628D01*
X112642857Y-128978628D02*
X112261905Y-128978628D01*
X113690476Y-128788152D02*
X113690476Y-129454819D01*
X113452381Y-128407200D02*
X113214286Y-129121485D01*
X113214286Y-129121485D02*
X113833333Y-129121485D01*
X112833333Y-134454819D02*
X112500000Y-133978628D01*
X112261905Y-134454819D02*
X112261905Y-133454819D01*
X112261905Y-133454819D02*
X112642857Y-133454819D01*
X112642857Y-133454819D02*
X112738095Y-133502438D01*
X112738095Y-133502438D02*
X112785714Y-133550057D01*
X112785714Y-133550057D02*
X112833333Y-133645295D01*
X112833333Y-133645295D02*
X112833333Y-133788152D01*
X112833333Y-133788152D02*
X112785714Y-133883390D01*
X112785714Y-133883390D02*
X112738095Y-133931009D01*
X112738095Y-133931009D02*
X112642857Y-133978628D01*
X112642857Y-133978628D02*
X112261905Y-133978628D01*
X113738095Y-133454819D02*
X113261905Y-133454819D01*
X113261905Y-133454819D02*
X113214286Y-133931009D01*
X113214286Y-133931009D02*
X113261905Y-133883390D01*
X113261905Y-133883390D02*
X113357143Y-133835771D01*
X113357143Y-133835771D02*
X113595238Y-133835771D01*
X113595238Y-133835771D02*
X113690476Y-133883390D01*
X113690476Y-133883390D02*
X113738095Y-133931009D01*
X113738095Y-133931009D02*
X113785714Y-134026247D01*
X113785714Y-134026247D02*
X113785714Y-134264342D01*
X113785714Y-134264342D02*
X113738095Y-134359580D01*
X113738095Y-134359580D02*
X113690476Y-134407200D01*
X113690476Y-134407200D02*
X113595238Y-134454819D01*
X113595238Y-134454819D02*
X113357143Y-134454819D01*
X113357143Y-134454819D02*
X113261905Y-134407200D01*
X113261905Y-134407200D02*
X113214286Y-134359580D01*
X112833333Y-138454819D02*
X112500000Y-137978628D01*
X112261905Y-138454819D02*
X112261905Y-137454819D01*
X112261905Y-137454819D02*
X112642857Y-137454819D01*
X112642857Y-137454819D02*
X112738095Y-137502438D01*
X112738095Y-137502438D02*
X112785714Y-137550057D01*
X112785714Y-137550057D02*
X112833333Y-137645295D01*
X112833333Y-137645295D02*
X112833333Y-137788152D01*
X112833333Y-137788152D02*
X112785714Y-137883390D01*
X112785714Y-137883390D02*
X112738095Y-137931009D01*
X112738095Y-137931009D02*
X112642857Y-137978628D01*
X112642857Y-137978628D02*
X112261905Y-137978628D01*
X113690476Y-137454819D02*
X113500000Y-137454819D01*
X113500000Y-137454819D02*
X113404762Y-137502438D01*
X113404762Y-137502438D02*
X113357143Y-137550057D01*
X113357143Y-137550057D02*
X113261905Y-137692914D01*
X113261905Y-137692914D02*
X113214286Y-137883390D01*
X113214286Y-137883390D02*
X113214286Y-138264342D01*
X113214286Y-138264342D02*
X113261905Y-138359580D01*
X113261905Y-138359580D02*
X113309524Y-138407200D01*
X113309524Y-138407200D02*
X113404762Y-138454819D01*
X113404762Y-138454819D02*
X113595238Y-138454819D01*
X113595238Y-138454819D02*
X113690476Y-138407200D01*
X113690476Y-138407200D02*
X113738095Y-138359580D01*
X113738095Y-138359580D02*
X113785714Y-138264342D01*
X113785714Y-138264342D02*
X113785714Y-138026247D01*
X113785714Y-138026247D02*
X113738095Y-137931009D01*
X113738095Y-137931009D02*
X113690476Y-137883390D01*
X113690476Y-137883390D02*
X113595238Y-137835771D01*
X113595238Y-137835771D02*
X113404762Y-137835771D01*
X113404762Y-137835771D02*
X113309524Y-137883390D01*
X113309524Y-137883390D02*
X113261905Y-137931009D01*
X113261905Y-137931009D02*
X113214286Y-138026247D01*
X112833333Y-142454819D02*
X112500000Y-141978628D01*
X112261905Y-142454819D02*
X112261905Y-141454819D01*
X112261905Y-141454819D02*
X112642857Y-141454819D01*
X112642857Y-141454819D02*
X112738095Y-141502438D01*
X112738095Y-141502438D02*
X112785714Y-141550057D01*
X112785714Y-141550057D02*
X112833333Y-141645295D01*
X112833333Y-141645295D02*
X112833333Y-141788152D01*
X112833333Y-141788152D02*
X112785714Y-141883390D01*
X112785714Y-141883390D02*
X112738095Y-141931009D01*
X112738095Y-141931009D02*
X112642857Y-141978628D01*
X112642857Y-141978628D02*
X112261905Y-141978628D01*
X113166667Y-141454819D02*
X113833333Y-141454819D01*
X113833333Y-141454819D02*
X113404762Y-142454819D01*
X132008095Y-111454819D02*
X132008095Y-112264342D01*
X132008095Y-112264342D02*
X132055714Y-112359580D01*
X132055714Y-112359580D02*
X132103333Y-112407200D01*
X132103333Y-112407200D02*
X132198571Y-112454819D01*
X132198571Y-112454819D02*
X132389047Y-112454819D01*
X132389047Y-112454819D02*
X132484285Y-112407200D01*
X132484285Y-112407200D02*
X132531904Y-112359580D01*
X132531904Y-112359580D02*
X132579523Y-112264342D01*
X132579523Y-112264342D02*
X132579523Y-111454819D01*
X133579523Y-112454819D02*
X133008095Y-112454819D01*
X133293809Y-112454819D02*
X133293809Y-111454819D01*
X133293809Y-111454819D02*
X133198571Y-111597676D01*
X133198571Y-111597676D02*
X133103333Y-111692914D01*
X133103333Y-111692914D02*
X133008095Y-111740533D01*
X132548095Y-151454819D02*
X132548095Y-152264342D01*
X132548095Y-152264342D02*
X132595714Y-152359580D01*
X132595714Y-152359580D02*
X132643333Y-152407200D01*
X132643333Y-152407200D02*
X132738571Y-152454819D01*
X132738571Y-152454819D02*
X132929047Y-152454819D01*
X132929047Y-152454819D02*
X133024285Y-152407200D01*
X133024285Y-152407200D02*
X133071904Y-152359580D01*
X133071904Y-152359580D02*
X133119523Y-152264342D01*
X133119523Y-152264342D02*
X133119523Y-151454819D01*
X133548095Y-151550057D02*
X133595714Y-151502438D01*
X133595714Y-151502438D02*
X133690952Y-151454819D01*
X133690952Y-151454819D02*
X133929047Y-151454819D01*
X133929047Y-151454819D02*
X134024285Y-151502438D01*
X134024285Y-151502438D02*
X134071904Y-151550057D01*
X134071904Y-151550057D02*
X134119523Y-151645295D01*
X134119523Y-151645295D02*
X134119523Y-151740533D01*
X134119523Y-151740533D02*
X134071904Y-151883390D01*
X134071904Y-151883390D02*
X133500476Y-152454819D01*
X133500476Y-152454819D02*
X134119523Y-152454819D01*
X146548095Y-142454819D02*
X146548095Y-143264342D01*
X146548095Y-143264342D02*
X146595714Y-143359580D01*
X146595714Y-143359580D02*
X146643333Y-143407200D01*
X146643333Y-143407200D02*
X146738571Y-143454819D01*
X146738571Y-143454819D02*
X146929047Y-143454819D01*
X146929047Y-143454819D02*
X147024285Y-143407200D01*
X147024285Y-143407200D02*
X147071904Y-143359580D01*
X147071904Y-143359580D02*
X147119523Y-143264342D01*
X147119523Y-143264342D02*
X147119523Y-142454819D01*
X147500476Y-142454819D02*
X148119523Y-142454819D01*
X148119523Y-142454819D02*
X147786190Y-142835771D01*
X147786190Y-142835771D02*
X147929047Y-142835771D01*
X147929047Y-142835771D02*
X148024285Y-142883390D01*
X148024285Y-142883390D02*
X148071904Y-142931009D01*
X148071904Y-142931009D02*
X148119523Y-143026247D01*
X148119523Y-143026247D02*
X148119523Y-143264342D01*
X148119523Y-143264342D02*
X148071904Y-143359580D01*
X148071904Y-143359580D02*
X148024285Y-143407200D01*
X148024285Y-143407200D02*
X147929047Y-143454819D01*
X147929047Y-143454819D02*
X147643333Y-143454819D01*
X147643333Y-143454819D02*
X147548095Y-143407200D01*
X147548095Y-143407200D02*
X147500476Y-143359580D01*
X182936666Y-110454819D02*
X182936666Y-111169104D01*
X182936666Y-111169104D02*
X182889047Y-111311961D01*
X182889047Y-111311961D02*
X182793809Y-111407200D01*
X182793809Y-111407200D02*
X182650952Y-111454819D01*
X182650952Y-111454819D02*
X182555714Y-111454819D01*
X183365238Y-110550057D02*
X183412857Y-110502438D01*
X183412857Y-110502438D02*
X183508095Y-110454819D01*
X183508095Y-110454819D02*
X183746190Y-110454819D01*
X183746190Y-110454819D02*
X183841428Y-110502438D01*
X183841428Y-110502438D02*
X183889047Y-110550057D01*
X183889047Y-110550057D02*
X183936666Y-110645295D01*
X183936666Y-110645295D02*
X183936666Y-110740533D01*
X183936666Y-110740533D02*
X183889047Y-110883390D01*
X183889047Y-110883390D02*
X183317619Y-111454819D01*
X183317619Y-111454819D02*
X183936666Y-111454819D01*
X148833333Y-105454819D02*
X148500000Y-104978628D01*
X148261905Y-105454819D02*
X148261905Y-104454819D01*
X148261905Y-104454819D02*
X148642857Y-104454819D01*
X148642857Y-104454819D02*
X148738095Y-104502438D01*
X148738095Y-104502438D02*
X148785714Y-104550057D01*
X148785714Y-104550057D02*
X148833333Y-104645295D01*
X148833333Y-104645295D02*
X148833333Y-104788152D01*
X148833333Y-104788152D02*
X148785714Y-104883390D01*
X148785714Y-104883390D02*
X148738095Y-104931009D01*
X148738095Y-104931009D02*
X148642857Y-104978628D01*
X148642857Y-104978628D02*
X148261905Y-104978628D01*
X149404762Y-104883390D02*
X149309524Y-104835771D01*
X149309524Y-104835771D02*
X149261905Y-104788152D01*
X149261905Y-104788152D02*
X149214286Y-104692914D01*
X149214286Y-104692914D02*
X149214286Y-104645295D01*
X149214286Y-104645295D02*
X149261905Y-104550057D01*
X149261905Y-104550057D02*
X149309524Y-104502438D01*
X149309524Y-104502438D02*
X149404762Y-104454819D01*
X149404762Y-104454819D02*
X149595238Y-104454819D01*
X149595238Y-104454819D02*
X149690476Y-104502438D01*
X149690476Y-104502438D02*
X149738095Y-104550057D01*
X149738095Y-104550057D02*
X149785714Y-104645295D01*
X149785714Y-104645295D02*
X149785714Y-104692914D01*
X149785714Y-104692914D02*
X149738095Y-104788152D01*
X149738095Y-104788152D02*
X149690476Y-104835771D01*
X149690476Y-104835771D02*
X149595238Y-104883390D01*
X149595238Y-104883390D02*
X149404762Y-104883390D01*
X149404762Y-104883390D02*
X149309524Y-104931009D01*
X149309524Y-104931009D02*
X149261905Y-104978628D01*
X149261905Y-104978628D02*
X149214286Y-105073866D01*
X149214286Y-105073866D02*
X149214286Y-105264342D01*
X149214286Y-105264342D02*
X149261905Y-105359580D01*
X149261905Y-105359580D02*
X149309524Y-105407200D01*
X149309524Y-105407200D02*
X149404762Y-105454819D01*
X149404762Y-105454819D02*
X149595238Y-105454819D01*
X149595238Y-105454819D02*
X149690476Y-105407200D01*
X149690476Y-105407200D02*
X149738095Y-105359580D01*
X149738095Y-105359580D02*
X149785714Y-105264342D01*
X149785714Y-105264342D02*
X149785714Y-105073866D01*
X149785714Y-105073866D02*
X149738095Y-104978628D01*
X149738095Y-104978628D02*
X149690476Y-104931009D01*
X149690476Y-104931009D02*
X149595238Y-104883390D01*
X138531905Y-105454819D02*
X138531905Y-104454819D01*
X138531905Y-104454819D02*
X138770000Y-104454819D01*
X138770000Y-104454819D02*
X138912857Y-104502438D01*
X138912857Y-104502438D02*
X139008095Y-104597676D01*
X139008095Y-104597676D02*
X139055714Y-104692914D01*
X139055714Y-104692914D02*
X139103333Y-104883390D01*
X139103333Y-104883390D02*
X139103333Y-105026247D01*
X139103333Y-105026247D02*
X139055714Y-105216723D01*
X139055714Y-105216723D02*
X139008095Y-105311961D01*
X139008095Y-105311961D02*
X138912857Y-105407200D01*
X138912857Y-105407200D02*
X138770000Y-105454819D01*
X138770000Y-105454819D02*
X138531905Y-105454819D01*
X140055714Y-105454819D02*
X139484286Y-105454819D01*
X139770000Y-105454819D02*
X139770000Y-104454819D01*
X139770000Y-104454819D02*
X139674762Y-104597676D01*
X139674762Y-104597676D02*
X139579524Y-104692914D01*
X139579524Y-104692914D02*
X139484286Y-104740533D01*
X156333333Y-117454819D02*
X156000000Y-116978628D01*
X155761905Y-117454819D02*
X155761905Y-116454819D01*
X155761905Y-116454819D02*
X156142857Y-116454819D01*
X156142857Y-116454819D02*
X156238095Y-116502438D01*
X156238095Y-116502438D02*
X156285714Y-116550057D01*
X156285714Y-116550057D02*
X156333333Y-116645295D01*
X156333333Y-116645295D02*
X156333333Y-116788152D01*
X156333333Y-116788152D02*
X156285714Y-116883390D01*
X156285714Y-116883390D02*
X156238095Y-116931009D01*
X156238095Y-116931009D02*
X156142857Y-116978628D01*
X156142857Y-116978628D02*
X155761905Y-116978628D01*
X156809524Y-117454819D02*
X157000000Y-117454819D01*
X157000000Y-117454819D02*
X157095238Y-117407200D01*
X157095238Y-117407200D02*
X157142857Y-117359580D01*
X157142857Y-117359580D02*
X157238095Y-117216723D01*
X157238095Y-117216723D02*
X157285714Y-117026247D01*
X157285714Y-117026247D02*
X157285714Y-116645295D01*
X157285714Y-116645295D02*
X157238095Y-116550057D01*
X157238095Y-116550057D02*
X157190476Y-116502438D01*
X157190476Y-116502438D02*
X157095238Y-116454819D01*
X157095238Y-116454819D02*
X156904762Y-116454819D01*
X156904762Y-116454819D02*
X156809524Y-116502438D01*
X156809524Y-116502438D02*
X156761905Y-116550057D01*
X156761905Y-116550057D02*
X156714286Y-116645295D01*
X156714286Y-116645295D02*
X156714286Y-116883390D01*
X156714286Y-116883390D02*
X156761905Y-116978628D01*
X156761905Y-116978628D02*
X156809524Y-117026247D01*
X156809524Y-117026247D02*
X156904762Y-117073866D01*
X156904762Y-117073866D02*
X157095238Y-117073866D01*
X157095238Y-117073866D02*
X157190476Y-117026247D01*
X157190476Y-117026247D02*
X157238095Y-116978628D01*
X157238095Y-116978628D02*
X157285714Y-116883390D01*
X155857142Y-124454819D02*
X155523809Y-123978628D01*
X155285714Y-124454819D02*
X155285714Y-123454819D01*
X155285714Y-123454819D02*
X155666666Y-123454819D01*
X155666666Y-123454819D02*
X155761904Y-123502438D01*
X155761904Y-123502438D02*
X155809523Y-123550057D01*
X155809523Y-123550057D02*
X155857142Y-123645295D01*
X155857142Y-123645295D02*
X155857142Y-123788152D01*
X155857142Y-123788152D02*
X155809523Y-123883390D01*
X155809523Y-123883390D02*
X155761904Y-123931009D01*
X155761904Y-123931009D02*
X155666666Y-123978628D01*
X155666666Y-123978628D02*
X155285714Y-123978628D01*
X156809523Y-124454819D02*
X156238095Y-124454819D01*
X156523809Y-124454819D02*
X156523809Y-123454819D01*
X156523809Y-123454819D02*
X156428571Y-123597676D01*
X156428571Y-123597676D02*
X156333333Y-123692914D01*
X156333333Y-123692914D02*
X156238095Y-123740533D01*
X157428571Y-123454819D02*
X157523809Y-123454819D01*
X157523809Y-123454819D02*
X157619047Y-123502438D01*
X157619047Y-123502438D02*
X157666666Y-123550057D01*
X157666666Y-123550057D02*
X157714285Y-123645295D01*
X157714285Y-123645295D02*
X157761904Y-123835771D01*
X157761904Y-123835771D02*
X157761904Y-124073866D01*
X157761904Y-124073866D02*
X157714285Y-124264342D01*
X157714285Y-124264342D02*
X157666666Y-124359580D01*
X157666666Y-124359580D02*
X157619047Y-124407200D01*
X157619047Y-124407200D02*
X157523809Y-124454819D01*
X157523809Y-124454819D02*
X157428571Y-124454819D01*
X157428571Y-124454819D02*
X157333333Y-124407200D01*
X157333333Y-124407200D02*
X157285714Y-124359580D01*
X157285714Y-124359580D02*
X157238095Y-124264342D01*
X157238095Y-124264342D02*
X157190476Y-124073866D01*
X157190476Y-124073866D02*
X157190476Y-123835771D01*
X157190476Y-123835771D02*
X157238095Y-123645295D01*
X157238095Y-123645295D02*
X157285714Y-123550057D01*
X157285714Y-123550057D02*
X157333333Y-123502438D01*
X157333333Y-123502438D02*
X157428571Y-123454819D01*
X155857142Y-131454819D02*
X155523809Y-130978628D01*
X155285714Y-131454819D02*
X155285714Y-130454819D01*
X155285714Y-130454819D02*
X155666666Y-130454819D01*
X155666666Y-130454819D02*
X155761904Y-130502438D01*
X155761904Y-130502438D02*
X155809523Y-130550057D01*
X155809523Y-130550057D02*
X155857142Y-130645295D01*
X155857142Y-130645295D02*
X155857142Y-130788152D01*
X155857142Y-130788152D02*
X155809523Y-130883390D01*
X155809523Y-130883390D02*
X155761904Y-130931009D01*
X155761904Y-130931009D02*
X155666666Y-130978628D01*
X155666666Y-130978628D02*
X155285714Y-130978628D01*
X156809523Y-131454819D02*
X156238095Y-131454819D01*
X156523809Y-131454819D02*
X156523809Y-130454819D01*
X156523809Y-130454819D02*
X156428571Y-130597676D01*
X156428571Y-130597676D02*
X156333333Y-130692914D01*
X156333333Y-130692914D02*
X156238095Y-130740533D01*
X157761904Y-131454819D02*
X157190476Y-131454819D01*
X157476190Y-131454819D02*
X157476190Y-130454819D01*
X157476190Y-130454819D02*
X157380952Y-130597676D01*
X157380952Y-130597676D02*
X157285714Y-130692914D01*
X157285714Y-130692914D02*
X157190476Y-130740533D01*
X155857142Y-138454819D02*
X155523809Y-137978628D01*
X155285714Y-138454819D02*
X155285714Y-137454819D01*
X155285714Y-137454819D02*
X155666666Y-137454819D01*
X155666666Y-137454819D02*
X155761904Y-137502438D01*
X155761904Y-137502438D02*
X155809523Y-137550057D01*
X155809523Y-137550057D02*
X155857142Y-137645295D01*
X155857142Y-137645295D02*
X155857142Y-137788152D01*
X155857142Y-137788152D02*
X155809523Y-137883390D01*
X155809523Y-137883390D02*
X155761904Y-137931009D01*
X155761904Y-137931009D02*
X155666666Y-137978628D01*
X155666666Y-137978628D02*
X155285714Y-137978628D01*
X156809523Y-138454819D02*
X156238095Y-138454819D01*
X156523809Y-138454819D02*
X156523809Y-137454819D01*
X156523809Y-137454819D02*
X156428571Y-137597676D01*
X156428571Y-137597676D02*
X156333333Y-137692914D01*
X156333333Y-137692914D02*
X156238095Y-137740533D01*
X157190476Y-137550057D02*
X157238095Y-137502438D01*
X157238095Y-137502438D02*
X157333333Y-137454819D01*
X157333333Y-137454819D02*
X157571428Y-137454819D01*
X157571428Y-137454819D02*
X157666666Y-137502438D01*
X157666666Y-137502438D02*
X157714285Y-137550057D01*
X157714285Y-137550057D02*
X157761904Y-137645295D01*
X157761904Y-137645295D02*
X157761904Y-137740533D01*
X157761904Y-137740533D02*
X157714285Y-137883390D01*
X157714285Y-137883390D02*
X157142857Y-138454819D01*
X157142857Y-138454819D02*
X157761904Y-138454819D01*
X122333333Y-154359580D02*
X122285714Y-154407200D01*
X122285714Y-154407200D02*
X122142857Y-154454819D01*
X122142857Y-154454819D02*
X122047619Y-154454819D01*
X122047619Y-154454819D02*
X121904762Y-154407200D01*
X121904762Y-154407200D02*
X121809524Y-154311961D01*
X121809524Y-154311961D02*
X121761905Y-154216723D01*
X121761905Y-154216723D02*
X121714286Y-154026247D01*
X121714286Y-154026247D02*
X121714286Y-153883390D01*
X121714286Y-153883390D02*
X121761905Y-153692914D01*
X121761905Y-153692914D02*
X121809524Y-153597676D01*
X121809524Y-153597676D02*
X121904762Y-153502438D01*
X121904762Y-153502438D02*
X122047619Y-153454819D01*
X122047619Y-153454819D02*
X122142857Y-153454819D01*
X122142857Y-153454819D02*
X122285714Y-153502438D01*
X122285714Y-153502438D02*
X122333333Y-153550057D01*
X123285714Y-154454819D02*
X122714286Y-154454819D01*
X123000000Y-154454819D02*
X123000000Y-153454819D01*
X123000000Y-153454819D02*
X122904762Y-153597676D01*
X122904762Y-153597676D02*
X122809524Y-153692914D01*
X122809524Y-153692914D02*
X122714286Y-153740533D01*
X157833333Y-145359580D02*
X157785714Y-145407200D01*
X157785714Y-145407200D02*
X157642857Y-145454819D01*
X157642857Y-145454819D02*
X157547619Y-145454819D01*
X157547619Y-145454819D02*
X157404762Y-145407200D01*
X157404762Y-145407200D02*
X157309524Y-145311961D01*
X157309524Y-145311961D02*
X157261905Y-145216723D01*
X157261905Y-145216723D02*
X157214286Y-145026247D01*
X157214286Y-145026247D02*
X157214286Y-144883390D01*
X157214286Y-144883390D02*
X157261905Y-144692914D01*
X157261905Y-144692914D02*
X157309524Y-144597676D01*
X157309524Y-144597676D02*
X157404762Y-144502438D01*
X157404762Y-144502438D02*
X157547619Y-144454819D01*
X157547619Y-144454819D02*
X157642857Y-144454819D01*
X157642857Y-144454819D02*
X157785714Y-144502438D01*
X157785714Y-144502438D02*
X157833333Y-144550057D01*
X158214286Y-144550057D02*
X158261905Y-144502438D01*
X158261905Y-144502438D02*
X158357143Y-144454819D01*
X158357143Y-144454819D02*
X158595238Y-144454819D01*
X158595238Y-144454819D02*
X158690476Y-144502438D01*
X158690476Y-144502438D02*
X158738095Y-144550057D01*
X158738095Y-144550057D02*
X158785714Y-144645295D01*
X158785714Y-144645295D02*
X158785714Y-144740533D01*
X158785714Y-144740533D02*
X158738095Y-144883390D01*
X158738095Y-144883390D02*
X158166667Y-145454819D01*
X158166667Y-145454819D02*
X158785714Y-145454819D01*
X159833333Y-109359580D02*
X159785714Y-109407200D01*
X159785714Y-109407200D02*
X159642857Y-109454819D01*
X159642857Y-109454819D02*
X159547619Y-109454819D01*
X159547619Y-109454819D02*
X159404762Y-109407200D01*
X159404762Y-109407200D02*
X159309524Y-109311961D01*
X159309524Y-109311961D02*
X159261905Y-109216723D01*
X159261905Y-109216723D02*
X159214286Y-109026247D01*
X159214286Y-109026247D02*
X159214286Y-108883390D01*
X159214286Y-108883390D02*
X159261905Y-108692914D01*
X159261905Y-108692914D02*
X159309524Y-108597676D01*
X159309524Y-108597676D02*
X159404762Y-108502438D01*
X159404762Y-108502438D02*
X159547619Y-108454819D01*
X159547619Y-108454819D02*
X159642857Y-108454819D01*
X159642857Y-108454819D02*
X159785714Y-108502438D01*
X159785714Y-108502438D02*
X159833333Y-108550057D01*
X160166667Y-108454819D02*
X160785714Y-108454819D01*
X160785714Y-108454819D02*
X160452381Y-108835771D01*
X160452381Y-108835771D02*
X160595238Y-108835771D01*
X160595238Y-108835771D02*
X160690476Y-108883390D01*
X160690476Y-108883390D02*
X160738095Y-108931009D01*
X160738095Y-108931009D02*
X160785714Y-109026247D01*
X160785714Y-109026247D02*
X160785714Y-109264342D01*
X160785714Y-109264342D02*
X160738095Y-109359580D01*
X160738095Y-109359580D02*
X160690476Y-109407200D01*
X160690476Y-109407200D02*
X160595238Y-109454819D01*
X160595238Y-109454819D02*
X160309524Y-109454819D01*
X160309524Y-109454819D02*
X160214286Y-109407200D01*
X160214286Y-109407200D02*
X160166667Y-109359580D01*
M02*
