%TF.GenerationSoftware,KiCad,Pcbnew,9.0.7*%
%TF.CreationDate,2026-03-09T00:08:02+02:00*%
%TF.ProjectId,64korppu-E,36346b6f-7270-4707-952d-452e6b696361,rev?*%
%TF.SameCoordinates,Original*%
%TF.FileFunction,Copper,L1,Top*%
%TF.FilePolarity,Positive*%
%FSLAX46Y46*%
G04 Gerber Fmt 4.6, Leading zero omitted, Abs format (unit mm)*
G04 Created by KiCad (PCBNEW 9.0.7) date 2026-03-09 00:08:02*
%MOMM*%
%LPD*%
G01*
G04 APERTURE LIST*
%TA.AperFunction,ComponentPad*%
%ADD10R,2.000000X2.000000*%
%TD*%
%TA.AperFunction,ComponentPad*%
%ADD11O,2.000000X2.000000*%
%TD*%
%TA.AperFunction,ComponentPad*%
%ADD12R,1.600000X1.600000*%
%TD*%
%TA.AperFunction,ComponentPad*%
%ADD13O,1.600000X1.600000*%
%TD*%
%TA.AperFunction,ComponentPad*%
%ADD14R,1.800000X1.800000*%
%TD*%
%TA.AperFunction,ComponentPad*%
%ADD15O,1.800000X1.800000*%
%TD*%
%TA.AperFunction,ComponentPad*%
%ADD16O,3.000000X2.000000*%
%TD*%
%TA.AperFunction,ComponentPad*%
%ADD17R,1.700000X1.700000*%
%TD*%
%TA.AperFunction,ComponentPad*%
%ADD18O,1.700000X1.700000*%
%TD*%
%TA.AperFunction,ComponentPad*%
%ADD19C,6.000000*%
%TD*%
%TA.AperFunction,ViaPad*%
%ADD20C,0.600000*%
%TD*%
%TA.AperFunction,Conductor*%
%ADD21C,0.250000*%
%TD*%
G04 APERTURE END LIST*
D10*
%TO.P,J3,1*%
%TO.N,+5V*%
X162000000Y-108000000D03*
D11*
%TO.P,J3,2*%
X168000000Y-108000000D03*
%TO.P,J3,3*%
%TO.N,GND*%
X165000000Y-113000000D03*
%TD*%
D12*
%TO.P,C4,1*%
%TO.N,+5V*%
X180000000Y-108000000D03*
D13*
%TO.P,C4,2*%
%TO.N,GND*%
X182000000Y-108000000D03*
%TD*%
D14*
%TO.P,J1,1*%
%TO.N,GND*%
X114500000Y-162000000D03*
D15*
%TO.P,J1,2*%
X121500000Y-162000000D03*
%TO.P,J1,3*%
%TO.N,IEC_ATN*%
X113000000Y-158000000D03*
%TO.P,J1,4*%
%TO.N,IEC_CLK*%
X118000000Y-154000000D03*
%TO.P,J1,5*%
%TO.N,IEC_DATA*%
X123000000Y-158000000D03*
%TO.P,J1,6*%
%TO.N,IEC_RESET*%
X118000000Y-158000000D03*
D16*
%TO.P,J1,SH*%
%TO.N,GND*%
X110500000Y-158000000D03*
X125500000Y-158000000D03*
%TD*%
D12*
%TO.P,R1,1*%
%TO.N,IEC_ATN*%
X122000000Y-122000000D03*
D13*
%TO.P,R1,2*%
%TO.N,NANO_D2*%
X132160000Y-122000000D03*
%TD*%
D12*
%TO.P,R2,1*%
%TO.N,IEC_CLK*%
X122000000Y-129000000D03*
D13*
%TO.P,R2,2*%
%TO.N,NANO_D3*%
X132160000Y-129000000D03*
%TD*%
D12*
%TO.P,R3,1*%
%TO.N,IEC_DATA*%
X122000000Y-136000000D03*
D13*
%TO.P,R3,2*%
%TO.N,NANO_D4*%
X132160000Y-136000000D03*
%TD*%
D12*
%TO.P,R4,1*%
%TO.N,IEC_RESET*%
X122000000Y-143000000D03*
D13*
%TO.P,R4,2*%
%TO.N,NANO_D5*%
X132160000Y-143000000D03*
%TD*%
D12*
%TO.P,R5,1*%
%TO.N,+5V*%
X140000000Y-122000000D03*
D13*
%TO.P,R5,2*%
%TO.N,NANO_D2*%
X150160000Y-122000000D03*
%TD*%
D12*
%TO.P,R6,1*%
%TO.N,+5V*%
X140000000Y-129000000D03*
D13*
%TO.P,R6,2*%
%TO.N,NANO_D3*%
X150160000Y-129000000D03*
%TD*%
D12*
%TO.P,R7,1*%
%TO.N,+5V*%
X140000000Y-136000000D03*
D13*
%TO.P,R7,2*%
%TO.N,NANO_D4*%
X150160000Y-136000000D03*
%TD*%
D17*
%TO.P,U1,1*%
%TO.N,N/C*%
X165000000Y-125000000D03*
D18*
%TO.P,U1,2*%
X167540000Y-125000000D03*
%TO.P,U1,3*%
X165000000Y-127540000D03*
%TO.P,U1,4*%
%TO.N,GND*%
X167540000Y-127540000D03*
%TO.P,U1,5*%
%TO.N,N/C*%
X165000000Y-130080000D03*
%TO.P,U1,6*%
X167540000Y-130080000D03*
%TO.P,U1,7*%
%TO.N,GND*%
X165000000Y-132620000D03*
%TO.P,U1,8*%
%TO.N,+5V*%
X167540000Y-132620000D03*
%TO.P,U1,9*%
%TO.N,NANO_D2*%
X165000000Y-135160000D03*
%TO.P,U1,10*%
%TO.N,N/C*%
X167540000Y-135160000D03*
%TO.P,U1,11*%
%TO.N,NANO_D3*%
X165000000Y-137700000D03*
%TO.P,U1,12*%
%TO.N,N/C*%
X167540000Y-137700000D03*
%TO.P,U1,13*%
%TO.N,NANO_D4*%
X165000000Y-140240000D03*
%TO.P,U1,14*%
%TO.N,LED_ANODE*%
X167540000Y-140240000D03*
%TO.P,U1,15*%
%TO.N,NANO_D5*%
X165000000Y-142780000D03*
%TO.P,U1,16*%
%TO.N,N/C*%
X167540000Y-142780000D03*
%TO.P,U1,17*%
%TO.N,LATCH_595*%
X165000000Y-145320000D03*
%TO.P,U1,18*%
%TO.N,N/C*%
X167540000Y-145320000D03*
%TO.P,U1,19*%
%TO.N,FLOPPY_WDATA*%
X165000000Y-147860000D03*
%TO.P,U1,20*%
%TO.N,FLOPPY_DSKCHG*%
X167540000Y-147860000D03*
%TO.P,U1,21*%
%TO.N,FLOPPY_RDATA*%
X165000000Y-150400000D03*
%TO.P,U1,22*%
%TO.N,FLOPPY_WPT*%
X167540000Y-150400000D03*
%TO.P,U1,23*%
%TO.N,N/C*%
X165000000Y-152940000D03*
%TO.P,U1,24*%
%TO.N,FLOPPY_TRK00*%
X167540000Y-152940000D03*
%TO.P,U1,25*%
%TO.N,SPI_CS_SRAM*%
X165000000Y-155480000D03*
%TO.P,U1,26*%
%TO.N,N/C*%
X167540000Y-155480000D03*
%TO.P,U1,27*%
%TO.N,SPI_MOSI*%
X165000000Y-158020000D03*
%TO.P,U1,28*%
%TO.N,N/C*%
X167540000Y-158020000D03*
%TO.P,U1,29*%
%TO.N,SPI_MISO*%
X165000000Y-160560000D03*
%TO.P,U1,30*%
%TO.N,SPI_SCK*%
X167540000Y-160560000D03*
%TD*%
D12*
%TO.P,U2,1*%
%TO.N,SPI_CS_SRAM*%
X128000000Y-172000000D03*
D13*
%TO.P,U2,2*%
%TO.N,SPI_MISO*%
X128000000Y-174540000D03*
%TO.P,U2,3*%
%TO.N,N/C*%
X128000000Y-177080000D03*
%TO.P,U2,4*%
%TO.N,GND*%
X128000000Y-179620000D03*
%TO.P,U2,5*%
%TO.N,SPI_MOSI*%
X135620000Y-179620000D03*
%TO.P,U2,6*%
%TO.N,SPI_SCK*%
X135620000Y-177080000D03*
%TO.P,U2,7*%
%TO.N,+5V*%
X135620000Y-174540000D03*
%TO.P,U2,8*%
X135620000Y-172000000D03*
%TD*%
D12*
%TO.P,U3,1*%
%TO.N,FLOPPY_DENSITY*%
X195000000Y-172000000D03*
D13*
%TO.P,U3,2*%
%TO.N,FLOPPY_MOTEA*%
X195000000Y-174540000D03*
%TO.P,U3,3*%
%TO.N,FLOPPY_DRVSEL*%
X195000000Y-177080000D03*
%TO.P,U3,4*%
%TO.N,FLOPPY_MOTOR*%
X195000000Y-179620000D03*
%TO.P,U3,5*%
%TO.N,FLOPPY_DIR*%
X195000000Y-182160000D03*
%TO.P,U3,6*%
%TO.N,FLOPPY_STEP*%
X195000000Y-184700000D03*
%TO.P,U3,7*%
%TO.N,FLOPPY_WGATE*%
X195000000Y-187240000D03*
%TO.P,U3,8*%
%TO.N,GND*%
X195000000Y-189780000D03*
%TO.P,U3,9*%
%TO.N,N/C*%
X202620000Y-189780000D03*
%TO.P,U3,10*%
%TO.N,+5V*%
X202620000Y-187240000D03*
%TO.P,U3,11*%
%TO.N,SPI_SCK*%
X202620000Y-184700000D03*
%TO.P,U3,12*%
%TO.N,LATCH_595*%
X202620000Y-182160000D03*
%TO.P,U3,13*%
%TO.N,GND*%
X202620000Y-179620000D03*
%TO.P,U3,14*%
%TO.N,SPI_MOSI*%
X202620000Y-177080000D03*
%TO.P,U3,15*%
%TO.N,FLOPPY_SIDE1*%
X202620000Y-174540000D03*
%TO.P,U3,16*%
%TO.N,+5V*%
X202620000Y-172000000D03*
%TD*%
D17*
%TO.P,J2,1*%
%TO.N,GND*%
X225000000Y-128000000D03*
D18*
%TO.P,J2,2*%
%TO.N,FLOPPY_DENSITY*%
X227540000Y-128000000D03*
%TO.P,J2,3*%
%TO.N,GND*%
X225000000Y-130540000D03*
%TO.P,J2,4*%
%TO.N,N/C*%
X227540000Y-130540000D03*
%TO.P,J2,5*%
%TO.N,GND*%
X225000000Y-133080000D03*
%TO.P,J2,6*%
%TO.N,N/C*%
X227540000Y-133080000D03*
%TO.P,J2,7*%
%TO.N,GND*%
X225000000Y-135620000D03*
%TO.P,J2,8*%
%TO.N,N/C*%
X227540000Y-135620000D03*
%TO.P,J2,9*%
%TO.N,GND*%
X225000000Y-138160000D03*
%TO.P,J2,10*%
%TO.N,FLOPPY_MOTEA*%
X227540000Y-138160000D03*
%TO.P,J2,11*%
%TO.N,GND*%
X225000000Y-140700000D03*
%TO.P,J2,12*%
%TO.N,FLOPPY_DRVSEL*%
X227540000Y-140700000D03*
%TO.P,J2,13*%
%TO.N,GND*%
X225000000Y-143240000D03*
%TO.P,J2,14*%
%TO.N,N/C*%
X227540000Y-143240000D03*
%TO.P,J2,15*%
%TO.N,GND*%
X225000000Y-145780000D03*
%TO.P,J2,16*%
%TO.N,FLOPPY_MOTOR*%
X227540000Y-145780000D03*
%TO.P,J2,17*%
%TO.N,GND*%
X225000000Y-148320000D03*
%TO.P,J2,18*%
%TO.N,FLOPPY_DIR*%
X227540000Y-148320000D03*
%TO.P,J2,19*%
%TO.N,GND*%
X225000000Y-150860000D03*
%TO.P,J2,20*%
%TO.N,FLOPPY_STEP*%
X227540000Y-150860000D03*
%TO.P,J2,21*%
%TO.N,GND*%
X225000000Y-153400000D03*
%TO.P,J2,22*%
%TO.N,FLOPPY_WDATA*%
X227540000Y-153400000D03*
%TO.P,J2,23*%
%TO.N,GND*%
X225000000Y-155940000D03*
%TO.P,J2,24*%
%TO.N,FLOPPY_WGATE*%
X227540000Y-155940000D03*
%TO.P,J2,25*%
%TO.N,GND*%
X225000000Y-158480000D03*
%TO.P,J2,26*%
%TO.N,FLOPPY_TRK00*%
X227540000Y-158480000D03*
%TO.P,J2,27*%
%TO.N,GND*%
X225000000Y-161020000D03*
%TO.P,J2,28*%
%TO.N,FLOPPY_WPT*%
X227540000Y-161020000D03*
%TO.P,J2,29*%
%TO.N,GND*%
X225000000Y-163560000D03*
%TO.P,J2,30*%
%TO.N,FLOPPY_RDATA*%
X227540000Y-163560000D03*
%TO.P,J2,31*%
%TO.N,GND*%
X225000000Y-166100000D03*
%TO.P,J2,32*%
%TO.N,FLOPPY_SIDE1*%
X227540000Y-166100000D03*
%TO.P,J2,33*%
%TO.N,GND*%
X225000000Y-168640000D03*
%TO.P,J2,34*%
%TO.N,FLOPPY_DSKCHG*%
X227540000Y-168640000D03*
%TD*%
D12*
%TO.P,R8,1*%
%TO.N,LED_ANODE*%
X126000000Y-198000000D03*
D13*
%TO.P,R8,2*%
%TO.N,LED_CATHODE*%
X136160000Y-198000000D03*
%TD*%
D12*
%TO.P,D1,1*%
%TO.N,LED_CATHODE*%
X115000000Y-198000000D03*
D13*
%TO.P,D1,2*%
%TO.N,GND*%
X117540000Y-198000000D03*
%TD*%
D12*
%TO.P,R9,1*%
%TO.N,+5V*%
X200000000Y-128000000D03*
D13*
%TO.P,R9,2*%
%TO.N,FLOPPY_TRK00*%
X210160000Y-128000000D03*
%TD*%
D12*
%TO.P,R10,1*%
%TO.N,+5V*%
X200000000Y-136000000D03*
D13*
%TO.P,R10,2*%
%TO.N,FLOPPY_WPT*%
X210160000Y-136000000D03*
%TD*%
D12*
%TO.P,R11,1*%
%TO.N,+5V*%
X200000000Y-144000000D03*
D13*
%TO.P,R11,2*%
%TO.N,FLOPPY_RDATA*%
X210160000Y-144000000D03*
%TD*%
D12*
%TO.P,R12,1*%
%TO.N,+5V*%
X200000000Y-152000000D03*
D13*
%TO.P,R12,2*%
%TO.N,FLOPPY_DSKCHG*%
X210160000Y-152000000D03*
%TD*%
D12*
%TO.P,C1,1*%
%TO.N,+5V*%
X155000000Y-198000000D03*
D13*
%TO.P,C1,2*%
%TO.N,GND*%
X160000000Y-198000000D03*
%TD*%
D12*
%TO.P,C2,1*%
%TO.N,+5V*%
X175000000Y-198000000D03*
D13*
%TO.P,C2,2*%
%TO.N,GND*%
X180000000Y-198000000D03*
%TD*%
D12*
%TO.P,C3,1*%
%TO.N,+5V*%
X195000000Y-198000000D03*
D13*
%TO.P,C3,2*%
%TO.N,GND*%
X200000000Y-198000000D03*
%TD*%
D19*
%TO.P,H1,1*%
%TO.N,N/C*%
X103000000Y-103000000D03*
%TD*%
%TO.P,H2,1*%
%TO.N,N/C*%
X237000000Y-103000000D03*
%TD*%
%TO.P,H3,1*%
%TO.N,N/C*%
X103000000Y-217000000D03*
%TD*%
%TO.P,H4,1*%
%TO.N,N/C*%
X237000000Y-217000000D03*
%TD*%
D20*
%TO.N,GND*%
X200129200Y-171873100D03*
%TO.N,SPI_SCK*%
X170000500Y-183452500D03*
%TO.N,LATCH_595*%
X167017500Y-177588900D03*
%TO.N,FLOPPY_RDATA*%
X218125400Y-162558600D03*
%TO.N,FLOPPY_TRK00*%
X229771000Y-127748300D03*
X170000500Y-157066300D03*
%TO.N,FLOPPY_WPT*%
X217728500Y-159779200D03*
X216898700Y-152794800D03*
%TO.N,FLOPPY_DENSITY*%
X199107000Y-130680100D03*
%TO.N,FLOPPY_MOTEA*%
X226677500Y-174657100D03*
%TO.N,FLOPPY_DRVSEL*%
X196847500Y-142407300D03*
%TO.N,FLOPPY_MOTOR*%
X197846300Y-147826000D03*
%TO.N,FLOPPY_DIR*%
X193624000Y-150016700D03*
%TO.N,FLOPPY_STEP*%
X199107000Y-148255800D03*
%TO.N,FLOPPY_WGATE*%
X199107000Y-156389300D03*
%TO.N,LED_ANODE*%
X163797500Y-189027900D03*
%TD*%
D21*
%TO.N,GND*%
X182253400Y-196873300D02*
X197746600Y-196873300D01*
X200129200Y-171873100D02*
X205902300Y-166100000D01*
X121500000Y-162000000D02*
X122726700Y-162000000D01*
X177746600Y-196873300D02*
X162253400Y-196873300D01*
X167540000Y-127540000D02*
X168716700Y-127540000D01*
X165000000Y-113000000D02*
X166326700Y-113000000D01*
X181126700Y-198000000D02*
X182253400Y-196873300D01*
X205902300Y-166100000D02*
X225000000Y-166100000D01*
X170200000Y-109126700D02*
X166326700Y-113000000D01*
X129251900Y-196810100D02*
X159936800Y-196810100D01*
X160000000Y-198000000D02*
X161126700Y-198000000D01*
X127126700Y-198935400D02*
X127126700Y-198935300D01*
X179436700Y-198000000D02*
X178873300Y-198000000D01*
X200000000Y-198000000D02*
X198873300Y-198000000D01*
X122726700Y-160773300D02*
X122726700Y-162000000D01*
X117540000Y-198000000D02*
X118666700Y-198000000D01*
X119793400Y-199126700D02*
X126935400Y-199126700D01*
X118666700Y-198000000D02*
X119793400Y-199126700D01*
X159936800Y-196810100D02*
X161126700Y-198000000D01*
X162253400Y-196873300D02*
X161126700Y-198000000D01*
X179436700Y-198000000D02*
X180000000Y-198000000D01*
X197746600Y-196873300D02*
X198873300Y-198000000D01*
X211485300Y-129176700D02*
X212662000Y-128000000D01*
X125500000Y-158000000D02*
X122726700Y-160773300D01*
X178873300Y-198000000D02*
X177746600Y-196873300D01*
X126935400Y-199126700D02*
X127126700Y-198935400D01*
X114500000Y-162000000D02*
X121500000Y-162000000D01*
X168716700Y-127540000D02*
X170353400Y-129176700D01*
X127126700Y-198935300D02*
X129251900Y-196810100D01*
X180000000Y-198000000D02*
X181126700Y-198000000D01*
X170353400Y-129176700D02*
X211485300Y-129176700D01*
X182000000Y-109126700D02*
X170200000Y-109126700D01*
X182000000Y-108000000D02*
X182000000Y-109126700D01*
X212662000Y-128000000D02*
X225000000Y-128000000D01*
%TO.N,+5V*%
X200000000Y-136000000D02*
X198873300Y-136000000D01*
X155000000Y-198000000D02*
X156126700Y-198000000D01*
X192746600Y-199126700D02*
X193873300Y-198000000D01*
X195493300Y-132620000D02*
X198873300Y-136000000D01*
X167540000Y-132620000D02*
X195493300Y-132620000D01*
X173873300Y-199126700D02*
X192746600Y-199126700D01*
X157253400Y-199126700D02*
X173873300Y-199126700D01*
X195000000Y-198000000D02*
X193873300Y-198000000D01*
X156126700Y-198000000D02*
X157253400Y-199126700D01*
X168000000Y-108000000D02*
X162000000Y-108000000D01*
X180000000Y-108000000D02*
X168000000Y-108000000D01*
X175000000Y-198000000D02*
X173873300Y-198000000D01*
X173873300Y-198000000D02*
X173873300Y-199126700D01*
%TO.N,SPI_MOSI*%
X134493300Y-177648400D02*
X135338200Y-178493300D01*
X165367800Y-159196700D02*
X166293900Y-160122800D01*
X200366600Y-175953300D02*
X201493300Y-177080000D01*
X134493300Y-176575100D02*
X134493300Y-177648400D01*
X135620000Y-179620000D02*
X135620000Y-178493300D01*
X135258400Y-175810000D02*
X134493300Y-176575100D01*
X165000000Y-158020000D02*
X165000000Y-159196700D01*
X166293900Y-160995000D02*
X151478900Y-175810000D01*
X166293900Y-160995000D02*
X181252200Y-175953300D01*
X166293900Y-160122800D02*
X166293900Y-160995000D01*
X181252200Y-175953300D02*
X200366600Y-175953300D01*
X151478900Y-175810000D02*
X135258400Y-175810000D01*
X135338200Y-178493300D02*
X135620000Y-178493300D01*
X165000000Y-159196700D02*
X165367800Y-159196700D01*
X202620000Y-177080000D02*
X201493300Y-177080000D01*
%TO.N,SPI_MISO*%
X129126700Y-174540000D02*
X143106700Y-160560000D01*
X143106700Y-160560000D02*
X165000000Y-160560000D01*
X128000000Y-174540000D02*
X129126700Y-174540000D01*
%TO.N,SPI_SCK*%
X202620000Y-184700000D02*
X201493300Y-184700000D01*
X201493300Y-184700000D02*
X200245800Y-183452500D01*
X135620000Y-177080000D02*
X136746700Y-177080000D01*
X200245800Y-183452500D02*
X170000500Y-183452500D01*
X136746700Y-177080000D02*
X143119200Y-183452500D01*
X143119200Y-183452500D02*
X170000500Y-183452500D01*
%TO.N,SPI_CS_SRAM*%
X145646700Y-155480000D02*
X129126700Y-172000000D01*
X165000000Y-155480000D02*
X145646700Y-155480000D01*
X128000000Y-172000000D02*
X129126700Y-172000000D01*
%TO.N,LATCH_595*%
X200366600Y-181033300D02*
X201493300Y-182160000D01*
X202620000Y-182160000D02*
X201493300Y-182160000D01*
X170461900Y-181033300D02*
X200366600Y-181033300D01*
X167017500Y-177588900D02*
X170461900Y-181033300D01*
%TO.N,NANO_D2*%
X132160000Y-122000000D02*
X133286700Y-122000000D01*
X150160000Y-122000000D02*
X149033300Y-122000000D01*
X151286700Y-122623400D02*
X151286700Y-122000000D01*
X165000000Y-135160000D02*
X163823300Y-135160000D01*
X150160000Y-122000000D02*
X151286700Y-122000000D01*
X147906600Y-120873300D02*
X149033300Y-122000000D01*
X163823300Y-135160000D02*
X151286700Y-122623400D01*
X134413400Y-120873300D02*
X147906600Y-120873300D01*
X133286700Y-122000000D02*
X134413400Y-120873300D01*
%TO.N,NANO_D3*%
X165000000Y-137700000D02*
X163823300Y-137700000D01*
X134413400Y-127873300D02*
X133286700Y-129000000D01*
X149033300Y-129000000D02*
X147906600Y-127873300D01*
X147906600Y-127873300D02*
X134413400Y-127873300D01*
X150160000Y-129000000D02*
X149033300Y-129000000D01*
X155123300Y-129000000D02*
X150160000Y-129000000D01*
X163823300Y-137700000D02*
X155123300Y-129000000D01*
X132160000Y-129000000D02*
X133286700Y-129000000D01*
%TO.N,NANO_D4*%
X134413400Y-137126700D02*
X133286700Y-136000000D01*
X132160000Y-136000000D02*
X133286700Y-136000000D01*
X165000000Y-140240000D02*
X163823300Y-140240000D01*
X159583300Y-136000000D02*
X150160000Y-136000000D01*
X150160000Y-136000000D02*
X149033300Y-136000000D01*
X149033300Y-136000000D02*
X147906600Y-137126700D01*
X163823300Y-140240000D02*
X159583300Y-136000000D01*
X147906600Y-137126700D02*
X134413400Y-137126700D01*
%TO.N,NANO_D5*%
X165000000Y-142780000D02*
X133506700Y-142780000D01*
X132160000Y-143000000D02*
X133286700Y-143000000D01*
X133506700Y-142780000D02*
X133286700Y-143000000D01*
%TO.N,FLOPPY_WDATA*%
X163782400Y-149077600D02*
X163782400Y-150922400D01*
X199539300Y-153601400D02*
X216978400Y-153601400D01*
X165000000Y-147860000D02*
X163782400Y-149077600D01*
X218356500Y-152223300D02*
X225554400Y-152223300D01*
X227540000Y-153400000D02*
X226363300Y-153400000D01*
X216978400Y-153601400D02*
X218356500Y-152223300D01*
X164512900Y-151652900D02*
X197590800Y-151652900D01*
X163782400Y-150922400D02*
X164512900Y-151652900D01*
X226363300Y-153032200D02*
X226363300Y-153400000D01*
X197590800Y-151652900D02*
X199539300Y-153601400D01*
X225554400Y-152223300D02*
X226363300Y-153032200D01*
%TO.N,FLOPPY_RDATA*%
X200054900Y-145943700D02*
X199867800Y-146130800D01*
X218300700Y-162383300D02*
X225554400Y-162383300D01*
X166176700Y-147522500D02*
X166176700Y-148414400D01*
X200054900Y-145943700D02*
X199867800Y-146130800D01*
X199651000Y-146130800D02*
X199466900Y-146314900D01*
X226363300Y-163192200D02*
X226363300Y-163560000D01*
X199651000Y-146130800D02*
X199466900Y-146314900D01*
X198977800Y-146500500D02*
X167198700Y-146500500D01*
X165000000Y-150400000D02*
X165000000Y-149223300D01*
X218125400Y-162558600D02*
X218300700Y-162383300D01*
X199466900Y-146314900D02*
X199163400Y-146314900D01*
X227540000Y-163560000D02*
X226363300Y-163560000D01*
X165367800Y-149223300D02*
X165000000Y-149223300D01*
X210160000Y-144000000D02*
X209033300Y-144000000D01*
X207089600Y-145943700D02*
X200054900Y-145943700D01*
X209033300Y-144000000D02*
X207089600Y-145943700D01*
X167198700Y-146500500D02*
X166176700Y-147522500D01*
X225554400Y-162383300D02*
X226363300Y-163192200D01*
X199160400Y-146317900D02*
X198977800Y-146500500D01*
X166176700Y-148414400D02*
X165367800Y-149223300D01*
X199163400Y-146314900D02*
X199160400Y-146317900D01*
X199160400Y-146317900D02*
X198977800Y-146500500D01*
X199867800Y-146130800D02*
X199651000Y-146130800D01*
%TO.N,FLOPPY_TRK00*%
X227540000Y-158480000D02*
X226363300Y-158480000D01*
X228787000Y-126764300D02*
X229771000Y-127748300D01*
X210160000Y-128000000D02*
X211286700Y-128000000D01*
X225554400Y-157303300D02*
X226363300Y-158112200D01*
X226363300Y-158112200D02*
X226363300Y-158480000D01*
X170000500Y-157066300D02*
X170237500Y-157303300D01*
X212522400Y-126764300D02*
X228787000Y-126764300D01*
X211286700Y-128000000D02*
X212522400Y-126764300D01*
X170237500Y-157303300D02*
X225554400Y-157303300D01*
%TO.N,FLOPPY_WPT*%
X167540000Y-150400000D02*
X168716700Y-150400000D01*
X216543800Y-153149700D02*
X216898700Y-152794800D01*
X226363300Y-161020000D02*
X226363300Y-160652200D01*
X226363300Y-160652200D02*
X225490300Y-159779200D01*
X194070700Y-151095100D02*
X194292500Y-150873300D01*
X169411800Y-151095100D02*
X194070700Y-151095100D01*
X168716700Y-150400000D02*
X169411800Y-151095100D01*
X227540000Y-161020000D02*
X226363300Y-161020000D01*
X194292500Y-150873300D02*
X201278600Y-150873300D01*
X225490300Y-159779200D02*
X217728500Y-159779200D01*
X203555000Y-153149700D02*
X216543800Y-153149700D01*
X201278600Y-150873300D02*
X203555000Y-153149700D01*
%TO.N,FLOPPY_DSKCHG*%
X193883600Y-150643400D02*
X194105400Y-150421600D01*
X210160000Y-152000000D02*
X209033300Y-152000000D01*
X167540000Y-147860000D02*
X168716700Y-147860000D01*
X171500100Y-150643400D02*
X193883600Y-150643400D01*
X194105400Y-150421600D02*
X207454900Y-150421600D01*
X207454900Y-150421600D02*
X209033300Y-152000000D01*
X168716700Y-147860000D02*
X171500100Y-150643400D01*
%TO.N,FLOPPY_DENSITY*%
X210845900Y-130680100D02*
X212347800Y-129178200D01*
X212347800Y-129178200D02*
X225994100Y-129178200D01*
X226363300Y-128809000D02*
X226363300Y-128000000D01*
X227540000Y-128000000D02*
X226363300Y-128000000D01*
X225994100Y-129178200D02*
X226363300Y-128809000D01*
X199107000Y-130680100D02*
X210845900Y-130680100D01*
%TO.N,FLOPPY_MOTEA*%
X201667400Y-175675700D02*
X200531700Y-174540000D01*
X226677500Y-174657100D02*
X225658900Y-175675700D01*
X200531700Y-174540000D02*
X195000000Y-174540000D01*
X225658900Y-175675700D02*
X201667400Y-175675700D01*
%TO.N,FLOPPY_DRVSEL*%
X227540000Y-140700000D02*
X226363300Y-140700000D01*
X196847500Y-142407300D02*
X197378100Y-141876700D01*
X197378100Y-141876700D02*
X225554400Y-141876700D01*
X226363300Y-141067800D02*
X226363300Y-140700000D01*
X225554400Y-141876700D02*
X226363300Y-141067800D01*
%TO.N,FLOPPY_MOTOR*%
X226363300Y-145780000D02*
X226363300Y-145412300D01*
X221428400Y-146624200D02*
X200103900Y-146624200D01*
X200103900Y-146624200D02*
X199413400Y-147314700D01*
X225515900Y-144564900D02*
X223487700Y-144564900D01*
X198357600Y-147314700D02*
X197846300Y-147826000D01*
X199413400Y-147314700D02*
X198357600Y-147314700D01*
X227540000Y-145780000D02*
X226363300Y-145780000D01*
X226363300Y-145412300D02*
X225515900Y-144564900D01*
X223487700Y-144564900D02*
X221428400Y-146624200D01*
%TO.N,FLOPPY_DIR*%
X194144000Y-149496700D02*
X193624000Y-150016700D01*
X226363300Y-148687800D02*
X225554400Y-149496700D01*
X227540000Y-148320000D02*
X226363300Y-148320000D01*
X225554400Y-149496700D02*
X194144000Y-149496700D01*
X226363300Y-148320000D02*
X226363300Y-148687800D01*
%TO.N,FLOPPY_STEP*%
X228716700Y-148874400D02*
X227907800Y-149683300D01*
X228716700Y-147780700D02*
X228716700Y-148874400D01*
X227540000Y-150860000D02*
X227540000Y-149683300D01*
X199107000Y-148255800D02*
X199111200Y-148255800D01*
X200264900Y-147102100D02*
X228038100Y-147102100D01*
X199111200Y-148255800D02*
X200264900Y-147102100D01*
X227907800Y-149683300D02*
X227540000Y-149683300D01*
X228038100Y-147102100D02*
X228716700Y-147780700D01*
%TO.N,FLOPPY_WGATE*%
X200770100Y-154726200D02*
X199107000Y-156389300D01*
X227540000Y-155940000D02*
X226363300Y-155940000D01*
X226363300Y-155940000D02*
X226363300Y-155572300D01*
X225517200Y-154726200D02*
X200770100Y-154726200D01*
X226363300Y-155572300D02*
X225517200Y-154726200D01*
%TO.N,FLOPPY_SIDE1*%
X212472800Y-167463800D02*
X212658400Y-167278200D01*
X202620000Y-174540000D02*
X203746700Y-174540000D01*
X226363300Y-166467800D02*
X226363300Y-166100000D01*
X227540000Y-166100000D02*
X226363300Y-166100000D01*
X212472800Y-167463800D02*
X212658400Y-167278200D01*
X205396600Y-174540000D02*
X212472800Y-167463800D01*
X212658400Y-167278200D02*
X225552900Y-167278200D01*
X225552900Y-167278200D02*
X226363300Y-166467800D01*
X203746700Y-174540000D02*
X205396600Y-174540000D01*
%TO.N,LED_ANODE*%
X126000000Y-198000000D02*
X127126700Y-198000000D01*
X136098800Y-189027900D02*
X127126700Y-198000000D01*
X163797500Y-189027900D02*
X136098800Y-189027900D01*
%TO.N,LED_CATHODE*%
X115000000Y-198000000D02*
X116126700Y-198000000D01*
X127572700Y-199128200D02*
X133905100Y-199128200D01*
X116126700Y-198230100D02*
X117475000Y-199578400D01*
X133905100Y-199128200D02*
X135033300Y-198000000D01*
X127387100Y-199313800D02*
X127572700Y-199128200D01*
X136160000Y-198000000D02*
X135033300Y-198000000D01*
X117475000Y-199578400D02*
X127122500Y-199578400D01*
X116126700Y-198000000D02*
X116126700Y-198230100D01*
X127387100Y-199313800D02*
X127572700Y-199128200D01*
X127122500Y-199578400D02*
X127387100Y-199313800D01*
%TD*%
M02*
