%TF.GenerationSoftware,KiCad,Pcbnew,9.0.7*%
%TF.CreationDate,2026-03-08T22:55:14+02:00*%
%TF.ProjectId,64korppu-E,36346b6f-7270-4707-952d-452e6b696361,rev?*%
%TF.SameCoordinates,Original*%
%TF.FileFunction,Legend,Top*%
%TF.FilePolarity,Positive*%
%FSLAX46Y46*%
G04 Gerber Fmt 4.6, Leading zero omitted, Abs format (unit mm)*
G04 Created by KiCad (PCBNEW 9.0.7) date 2026-03-08 22:55:14*
%MOMM*%
%LPD*%
G01*
G04 APERTURE LIST*
%ADD10C,0.150000*%
G04 APERTURE END LIST*
D10*
X164666666Y-104454819D02*
X164666666Y-105169104D01*
X164666666Y-105169104D02*
X164619047Y-105311961D01*
X164619047Y-105311961D02*
X164523809Y-105407200D01*
X164523809Y-105407200D02*
X164380952Y-105454819D01*
X164380952Y-105454819D02*
X164285714Y-105454819D01*
X165047619Y-104454819D02*
X165666666Y-104454819D01*
X165666666Y-104454819D02*
X165333333Y-104835771D01*
X165333333Y-104835771D02*
X165476190Y-104835771D01*
X165476190Y-104835771D02*
X165571428Y-104883390D01*
X165571428Y-104883390D02*
X165619047Y-104931009D01*
X165619047Y-104931009D02*
X165666666Y-105026247D01*
X165666666Y-105026247D02*
X165666666Y-105264342D01*
X165666666Y-105264342D02*
X165619047Y-105359580D01*
X165619047Y-105359580D02*
X165571428Y-105407200D01*
X165571428Y-105407200D02*
X165476190Y-105454819D01*
X165476190Y-105454819D02*
X165190476Y-105454819D01*
X165190476Y-105454819D02*
X165095238Y-105407200D01*
X165095238Y-105407200D02*
X165047619Y-105359580D01*
X180833333Y-105359580D02*
X180785714Y-105407200D01*
X180785714Y-105407200D02*
X180642857Y-105454819D01*
X180642857Y-105454819D02*
X180547619Y-105454819D01*
X180547619Y-105454819D02*
X180404762Y-105407200D01*
X180404762Y-105407200D02*
X180309524Y-105311961D01*
X180309524Y-105311961D02*
X180261905Y-105216723D01*
X180261905Y-105216723D02*
X180214286Y-105026247D01*
X180214286Y-105026247D02*
X180214286Y-104883390D01*
X180214286Y-104883390D02*
X180261905Y-104692914D01*
X180261905Y-104692914D02*
X180309524Y-104597676D01*
X180309524Y-104597676D02*
X180404762Y-104502438D01*
X180404762Y-104502438D02*
X180547619Y-104454819D01*
X180547619Y-104454819D02*
X180642857Y-104454819D01*
X180642857Y-104454819D02*
X180785714Y-104502438D01*
X180785714Y-104502438D02*
X180833333Y-104550057D01*
X181690476Y-104788152D02*
X181690476Y-105454819D01*
X181452381Y-104407200D02*
X181214286Y-105121485D01*
X181214286Y-105121485D02*
X181833333Y-105121485D01*
X107666666Y-138454819D02*
X107666666Y-139169104D01*
X107666666Y-139169104D02*
X107619047Y-139311961D01*
X107619047Y-139311961D02*
X107523809Y-139407200D01*
X107523809Y-139407200D02*
X107380952Y-139454819D01*
X107380952Y-139454819D02*
X107285714Y-139454819D01*
X108666666Y-139454819D02*
X108095238Y-139454819D01*
X108380952Y-139454819D02*
X108380952Y-138454819D01*
X108380952Y-138454819D02*
X108285714Y-138597676D01*
X108285714Y-138597676D02*
X108190476Y-138692914D01*
X108190476Y-138692914D02*
X108095238Y-138740533D01*
X126833333Y-120454819D02*
X126500000Y-119978628D01*
X126261905Y-120454819D02*
X126261905Y-119454819D01*
X126261905Y-119454819D02*
X126642857Y-119454819D01*
X126642857Y-119454819D02*
X126738095Y-119502438D01*
X126738095Y-119502438D02*
X126785714Y-119550057D01*
X126785714Y-119550057D02*
X126833333Y-119645295D01*
X126833333Y-119645295D02*
X126833333Y-119788152D01*
X126833333Y-119788152D02*
X126785714Y-119883390D01*
X126785714Y-119883390D02*
X126738095Y-119931009D01*
X126738095Y-119931009D02*
X126642857Y-119978628D01*
X126642857Y-119978628D02*
X126261905Y-119978628D01*
X127785714Y-120454819D02*
X127214286Y-120454819D01*
X127500000Y-120454819D02*
X127500000Y-119454819D01*
X127500000Y-119454819D02*
X127404762Y-119597676D01*
X127404762Y-119597676D02*
X127309524Y-119692914D01*
X127309524Y-119692914D02*
X127214286Y-119740533D01*
X126833333Y-127454819D02*
X126500000Y-126978628D01*
X126261905Y-127454819D02*
X126261905Y-126454819D01*
X126261905Y-126454819D02*
X126642857Y-126454819D01*
X126642857Y-126454819D02*
X126738095Y-126502438D01*
X126738095Y-126502438D02*
X126785714Y-126550057D01*
X126785714Y-126550057D02*
X126833333Y-126645295D01*
X126833333Y-126645295D02*
X126833333Y-126788152D01*
X126833333Y-126788152D02*
X126785714Y-126883390D01*
X126785714Y-126883390D02*
X126738095Y-126931009D01*
X126738095Y-126931009D02*
X126642857Y-126978628D01*
X126642857Y-126978628D02*
X126261905Y-126978628D01*
X127214286Y-126550057D02*
X127261905Y-126502438D01*
X127261905Y-126502438D02*
X127357143Y-126454819D01*
X127357143Y-126454819D02*
X127595238Y-126454819D01*
X127595238Y-126454819D02*
X127690476Y-126502438D01*
X127690476Y-126502438D02*
X127738095Y-126550057D01*
X127738095Y-126550057D02*
X127785714Y-126645295D01*
X127785714Y-126645295D02*
X127785714Y-126740533D01*
X127785714Y-126740533D02*
X127738095Y-126883390D01*
X127738095Y-126883390D02*
X127166667Y-127454819D01*
X127166667Y-127454819D02*
X127785714Y-127454819D01*
X126833333Y-134454819D02*
X126500000Y-133978628D01*
X126261905Y-134454819D02*
X126261905Y-133454819D01*
X126261905Y-133454819D02*
X126642857Y-133454819D01*
X126642857Y-133454819D02*
X126738095Y-133502438D01*
X126738095Y-133502438D02*
X126785714Y-133550057D01*
X126785714Y-133550057D02*
X126833333Y-133645295D01*
X126833333Y-133645295D02*
X126833333Y-133788152D01*
X126833333Y-133788152D02*
X126785714Y-133883390D01*
X126785714Y-133883390D02*
X126738095Y-133931009D01*
X126738095Y-133931009D02*
X126642857Y-133978628D01*
X126642857Y-133978628D02*
X126261905Y-133978628D01*
X127166667Y-133454819D02*
X127785714Y-133454819D01*
X127785714Y-133454819D02*
X127452381Y-133835771D01*
X127452381Y-133835771D02*
X127595238Y-133835771D01*
X127595238Y-133835771D02*
X127690476Y-133883390D01*
X127690476Y-133883390D02*
X127738095Y-133931009D01*
X127738095Y-133931009D02*
X127785714Y-134026247D01*
X127785714Y-134026247D02*
X127785714Y-134264342D01*
X127785714Y-134264342D02*
X127738095Y-134359580D01*
X127738095Y-134359580D02*
X127690476Y-134407200D01*
X127690476Y-134407200D02*
X127595238Y-134454819D01*
X127595238Y-134454819D02*
X127309524Y-134454819D01*
X127309524Y-134454819D02*
X127214286Y-134407200D01*
X127214286Y-134407200D02*
X127166667Y-134359580D01*
X126833333Y-141454819D02*
X126500000Y-140978628D01*
X126261905Y-141454819D02*
X126261905Y-140454819D01*
X126261905Y-140454819D02*
X126642857Y-140454819D01*
X126642857Y-140454819D02*
X126738095Y-140502438D01*
X126738095Y-140502438D02*
X126785714Y-140550057D01*
X126785714Y-140550057D02*
X126833333Y-140645295D01*
X126833333Y-140645295D02*
X126833333Y-140788152D01*
X126833333Y-140788152D02*
X126785714Y-140883390D01*
X126785714Y-140883390D02*
X126738095Y-140931009D01*
X126738095Y-140931009D02*
X126642857Y-140978628D01*
X126642857Y-140978628D02*
X126261905Y-140978628D01*
X127690476Y-140788152D02*
X127690476Y-141454819D01*
X127452381Y-140407200D02*
X127214286Y-141121485D01*
X127214286Y-141121485D02*
X127833333Y-141121485D01*
X144833333Y-120454819D02*
X144500000Y-119978628D01*
X144261905Y-120454819D02*
X144261905Y-119454819D01*
X144261905Y-119454819D02*
X144642857Y-119454819D01*
X144642857Y-119454819D02*
X144738095Y-119502438D01*
X144738095Y-119502438D02*
X144785714Y-119550057D01*
X144785714Y-119550057D02*
X144833333Y-119645295D01*
X144833333Y-119645295D02*
X144833333Y-119788152D01*
X144833333Y-119788152D02*
X144785714Y-119883390D01*
X144785714Y-119883390D02*
X144738095Y-119931009D01*
X144738095Y-119931009D02*
X144642857Y-119978628D01*
X144642857Y-119978628D02*
X144261905Y-119978628D01*
X145738095Y-119454819D02*
X145261905Y-119454819D01*
X145261905Y-119454819D02*
X145214286Y-119931009D01*
X145214286Y-119931009D02*
X145261905Y-119883390D01*
X145261905Y-119883390D02*
X145357143Y-119835771D01*
X145357143Y-119835771D02*
X145595238Y-119835771D01*
X145595238Y-119835771D02*
X145690476Y-119883390D01*
X145690476Y-119883390D02*
X145738095Y-119931009D01*
X145738095Y-119931009D02*
X145785714Y-120026247D01*
X145785714Y-120026247D02*
X145785714Y-120264342D01*
X145785714Y-120264342D02*
X145738095Y-120359580D01*
X145738095Y-120359580D02*
X145690476Y-120407200D01*
X145690476Y-120407200D02*
X145595238Y-120454819D01*
X145595238Y-120454819D02*
X145357143Y-120454819D01*
X145357143Y-120454819D02*
X145261905Y-120407200D01*
X145261905Y-120407200D02*
X145214286Y-120359580D01*
X144833333Y-127454819D02*
X144500000Y-126978628D01*
X144261905Y-127454819D02*
X144261905Y-126454819D01*
X144261905Y-126454819D02*
X144642857Y-126454819D01*
X144642857Y-126454819D02*
X144738095Y-126502438D01*
X144738095Y-126502438D02*
X144785714Y-126550057D01*
X144785714Y-126550057D02*
X144833333Y-126645295D01*
X144833333Y-126645295D02*
X144833333Y-126788152D01*
X144833333Y-126788152D02*
X144785714Y-126883390D01*
X144785714Y-126883390D02*
X144738095Y-126931009D01*
X144738095Y-126931009D02*
X144642857Y-126978628D01*
X144642857Y-126978628D02*
X144261905Y-126978628D01*
X145690476Y-126454819D02*
X145500000Y-126454819D01*
X145500000Y-126454819D02*
X145404762Y-126502438D01*
X145404762Y-126502438D02*
X145357143Y-126550057D01*
X145357143Y-126550057D02*
X145261905Y-126692914D01*
X145261905Y-126692914D02*
X145214286Y-126883390D01*
X145214286Y-126883390D02*
X145214286Y-127264342D01*
X145214286Y-127264342D02*
X145261905Y-127359580D01*
X145261905Y-127359580D02*
X145309524Y-127407200D01*
X145309524Y-127407200D02*
X145404762Y-127454819D01*
X145404762Y-127454819D02*
X145595238Y-127454819D01*
X145595238Y-127454819D02*
X145690476Y-127407200D01*
X145690476Y-127407200D02*
X145738095Y-127359580D01*
X145738095Y-127359580D02*
X145785714Y-127264342D01*
X145785714Y-127264342D02*
X145785714Y-127026247D01*
X145785714Y-127026247D02*
X145738095Y-126931009D01*
X145738095Y-126931009D02*
X145690476Y-126883390D01*
X145690476Y-126883390D02*
X145595238Y-126835771D01*
X145595238Y-126835771D02*
X145404762Y-126835771D01*
X145404762Y-126835771D02*
X145309524Y-126883390D01*
X145309524Y-126883390D02*
X145261905Y-126931009D01*
X145261905Y-126931009D02*
X145214286Y-127026247D01*
X144833333Y-134454819D02*
X144500000Y-133978628D01*
X144261905Y-134454819D02*
X144261905Y-133454819D01*
X144261905Y-133454819D02*
X144642857Y-133454819D01*
X144642857Y-133454819D02*
X144738095Y-133502438D01*
X144738095Y-133502438D02*
X144785714Y-133550057D01*
X144785714Y-133550057D02*
X144833333Y-133645295D01*
X144833333Y-133645295D02*
X144833333Y-133788152D01*
X144833333Y-133788152D02*
X144785714Y-133883390D01*
X144785714Y-133883390D02*
X144738095Y-133931009D01*
X144738095Y-133931009D02*
X144642857Y-133978628D01*
X144642857Y-133978628D02*
X144261905Y-133978628D01*
X145166667Y-133454819D02*
X145833333Y-133454819D01*
X145833333Y-133454819D02*
X145404762Y-134454819D01*
X165508095Y-122454819D02*
X165508095Y-123264342D01*
X165508095Y-123264342D02*
X165555714Y-123359580D01*
X165555714Y-123359580D02*
X165603333Y-123407200D01*
X165603333Y-123407200D02*
X165698571Y-123454819D01*
X165698571Y-123454819D02*
X165889047Y-123454819D01*
X165889047Y-123454819D02*
X165984285Y-123407200D01*
X165984285Y-123407200D02*
X166031904Y-123359580D01*
X166031904Y-123359580D02*
X166079523Y-123264342D01*
X166079523Y-123264342D02*
X166079523Y-122454819D01*
X167079523Y-123454819D02*
X166508095Y-123454819D01*
X166793809Y-123454819D02*
X166793809Y-122454819D01*
X166793809Y-122454819D02*
X166698571Y-122597676D01*
X166698571Y-122597676D02*
X166603333Y-122692914D01*
X166603333Y-122692914D02*
X166508095Y-122740533D01*
X131048095Y-169454819D02*
X131048095Y-170264342D01*
X131048095Y-170264342D02*
X131095714Y-170359580D01*
X131095714Y-170359580D02*
X131143333Y-170407200D01*
X131143333Y-170407200D02*
X131238571Y-170454819D01*
X131238571Y-170454819D02*
X131429047Y-170454819D01*
X131429047Y-170454819D02*
X131524285Y-170407200D01*
X131524285Y-170407200D02*
X131571904Y-170359580D01*
X131571904Y-170359580D02*
X131619523Y-170264342D01*
X131619523Y-170264342D02*
X131619523Y-169454819D01*
X132048095Y-169550057D02*
X132095714Y-169502438D01*
X132095714Y-169502438D02*
X132190952Y-169454819D01*
X132190952Y-169454819D02*
X132429047Y-169454819D01*
X132429047Y-169454819D02*
X132524285Y-169502438D01*
X132524285Y-169502438D02*
X132571904Y-169550057D01*
X132571904Y-169550057D02*
X132619523Y-169645295D01*
X132619523Y-169645295D02*
X132619523Y-169740533D01*
X132619523Y-169740533D02*
X132571904Y-169883390D01*
X132571904Y-169883390D02*
X132000476Y-170454819D01*
X132000476Y-170454819D02*
X132619523Y-170454819D01*
X198048095Y-169454819D02*
X198048095Y-170264342D01*
X198048095Y-170264342D02*
X198095714Y-170359580D01*
X198095714Y-170359580D02*
X198143333Y-170407200D01*
X198143333Y-170407200D02*
X198238571Y-170454819D01*
X198238571Y-170454819D02*
X198429047Y-170454819D01*
X198429047Y-170454819D02*
X198524285Y-170407200D01*
X198524285Y-170407200D02*
X198571904Y-170359580D01*
X198571904Y-170359580D02*
X198619523Y-170264342D01*
X198619523Y-170264342D02*
X198619523Y-169454819D01*
X199000476Y-169454819D02*
X199619523Y-169454819D01*
X199619523Y-169454819D02*
X199286190Y-169835771D01*
X199286190Y-169835771D02*
X199429047Y-169835771D01*
X199429047Y-169835771D02*
X199524285Y-169883390D01*
X199524285Y-169883390D02*
X199571904Y-169931009D01*
X199571904Y-169931009D02*
X199619523Y-170026247D01*
X199619523Y-170026247D02*
X199619523Y-170264342D01*
X199619523Y-170264342D02*
X199571904Y-170359580D01*
X199571904Y-170359580D02*
X199524285Y-170407200D01*
X199524285Y-170407200D02*
X199429047Y-170454819D01*
X199429047Y-170454819D02*
X199143333Y-170454819D01*
X199143333Y-170454819D02*
X199048095Y-170407200D01*
X199048095Y-170407200D02*
X199000476Y-170359580D01*
X225936666Y-125454819D02*
X225936666Y-126169104D01*
X225936666Y-126169104D02*
X225889047Y-126311961D01*
X225889047Y-126311961D02*
X225793809Y-126407200D01*
X225793809Y-126407200D02*
X225650952Y-126454819D01*
X225650952Y-126454819D02*
X225555714Y-126454819D01*
X226365238Y-125550057D02*
X226412857Y-125502438D01*
X226412857Y-125502438D02*
X226508095Y-125454819D01*
X226508095Y-125454819D02*
X226746190Y-125454819D01*
X226746190Y-125454819D02*
X226841428Y-125502438D01*
X226841428Y-125502438D02*
X226889047Y-125550057D01*
X226889047Y-125550057D02*
X226936666Y-125645295D01*
X226936666Y-125645295D02*
X226936666Y-125740533D01*
X226936666Y-125740533D02*
X226889047Y-125883390D01*
X226889047Y-125883390D02*
X226317619Y-126454819D01*
X226317619Y-126454819D02*
X226936666Y-126454819D01*
X130833333Y-196454819D02*
X130500000Y-195978628D01*
X130261905Y-196454819D02*
X130261905Y-195454819D01*
X130261905Y-195454819D02*
X130642857Y-195454819D01*
X130642857Y-195454819D02*
X130738095Y-195502438D01*
X130738095Y-195502438D02*
X130785714Y-195550057D01*
X130785714Y-195550057D02*
X130833333Y-195645295D01*
X130833333Y-195645295D02*
X130833333Y-195788152D01*
X130833333Y-195788152D02*
X130785714Y-195883390D01*
X130785714Y-195883390D02*
X130738095Y-195931009D01*
X130738095Y-195931009D02*
X130642857Y-195978628D01*
X130642857Y-195978628D02*
X130261905Y-195978628D01*
X131404762Y-195883390D02*
X131309524Y-195835771D01*
X131309524Y-195835771D02*
X131261905Y-195788152D01*
X131261905Y-195788152D02*
X131214286Y-195692914D01*
X131214286Y-195692914D02*
X131214286Y-195645295D01*
X131214286Y-195645295D02*
X131261905Y-195550057D01*
X131261905Y-195550057D02*
X131309524Y-195502438D01*
X131309524Y-195502438D02*
X131404762Y-195454819D01*
X131404762Y-195454819D02*
X131595238Y-195454819D01*
X131595238Y-195454819D02*
X131690476Y-195502438D01*
X131690476Y-195502438D02*
X131738095Y-195550057D01*
X131738095Y-195550057D02*
X131785714Y-195645295D01*
X131785714Y-195645295D02*
X131785714Y-195692914D01*
X131785714Y-195692914D02*
X131738095Y-195788152D01*
X131738095Y-195788152D02*
X131690476Y-195835771D01*
X131690476Y-195835771D02*
X131595238Y-195883390D01*
X131595238Y-195883390D02*
X131404762Y-195883390D01*
X131404762Y-195883390D02*
X131309524Y-195931009D01*
X131309524Y-195931009D02*
X131261905Y-195978628D01*
X131261905Y-195978628D02*
X131214286Y-196073866D01*
X131214286Y-196073866D02*
X131214286Y-196264342D01*
X131214286Y-196264342D02*
X131261905Y-196359580D01*
X131261905Y-196359580D02*
X131309524Y-196407200D01*
X131309524Y-196407200D02*
X131404762Y-196454819D01*
X131404762Y-196454819D02*
X131595238Y-196454819D01*
X131595238Y-196454819D02*
X131690476Y-196407200D01*
X131690476Y-196407200D02*
X131738095Y-196359580D01*
X131738095Y-196359580D02*
X131785714Y-196264342D01*
X131785714Y-196264342D02*
X131785714Y-196073866D01*
X131785714Y-196073866D02*
X131738095Y-195978628D01*
X131738095Y-195978628D02*
X131690476Y-195931009D01*
X131690476Y-195931009D02*
X131595238Y-195883390D01*
X115531905Y-196454819D02*
X115531905Y-195454819D01*
X115531905Y-195454819D02*
X115770000Y-195454819D01*
X115770000Y-195454819D02*
X115912857Y-195502438D01*
X115912857Y-195502438D02*
X116008095Y-195597676D01*
X116008095Y-195597676D02*
X116055714Y-195692914D01*
X116055714Y-195692914D02*
X116103333Y-195883390D01*
X116103333Y-195883390D02*
X116103333Y-196026247D01*
X116103333Y-196026247D02*
X116055714Y-196216723D01*
X116055714Y-196216723D02*
X116008095Y-196311961D01*
X116008095Y-196311961D02*
X115912857Y-196407200D01*
X115912857Y-196407200D02*
X115770000Y-196454819D01*
X115770000Y-196454819D02*
X115531905Y-196454819D01*
X117055714Y-196454819D02*
X116484286Y-196454819D01*
X116770000Y-196454819D02*
X116770000Y-195454819D01*
X116770000Y-195454819D02*
X116674762Y-195597676D01*
X116674762Y-195597676D02*
X116579524Y-195692914D01*
X116579524Y-195692914D02*
X116484286Y-195740533D01*
X204833333Y-126454819D02*
X204500000Y-125978628D01*
X204261905Y-126454819D02*
X204261905Y-125454819D01*
X204261905Y-125454819D02*
X204642857Y-125454819D01*
X204642857Y-125454819D02*
X204738095Y-125502438D01*
X204738095Y-125502438D02*
X204785714Y-125550057D01*
X204785714Y-125550057D02*
X204833333Y-125645295D01*
X204833333Y-125645295D02*
X204833333Y-125788152D01*
X204833333Y-125788152D02*
X204785714Y-125883390D01*
X204785714Y-125883390D02*
X204738095Y-125931009D01*
X204738095Y-125931009D02*
X204642857Y-125978628D01*
X204642857Y-125978628D02*
X204261905Y-125978628D01*
X205309524Y-126454819D02*
X205500000Y-126454819D01*
X205500000Y-126454819D02*
X205595238Y-126407200D01*
X205595238Y-126407200D02*
X205642857Y-126359580D01*
X205642857Y-126359580D02*
X205738095Y-126216723D01*
X205738095Y-126216723D02*
X205785714Y-126026247D01*
X205785714Y-126026247D02*
X205785714Y-125645295D01*
X205785714Y-125645295D02*
X205738095Y-125550057D01*
X205738095Y-125550057D02*
X205690476Y-125502438D01*
X205690476Y-125502438D02*
X205595238Y-125454819D01*
X205595238Y-125454819D02*
X205404762Y-125454819D01*
X205404762Y-125454819D02*
X205309524Y-125502438D01*
X205309524Y-125502438D02*
X205261905Y-125550057D01*
X205261905Y-125550057D02*
X205214286Y-125645295D01*
X205214286Y-125645295D02*
X205214286Y-125883390D01*
X205214286Y-125883390D02*
X205261905Y-125978628D01*
X205261905Y-125978628D02*
X205309524Y-126026247D01*
X205309524Y-126026247D02*
X205404762Y-126073866D01*
X205404762Y-126073866D02*
X205595238Y-126073866D01*
X205595238Y-126073866D02*
X205690476Y-126026247D01*
X205690476Y-126026247D02*
X205738095Y-125978628D01*
X205738095Y-125978628D02*
X205785714Y-125883390D01*
X204357142Y-134454819D02*
X204023809Y-133978628D01*
X203785714Y-134454819D02*
X203785714Y-133454819D01*
X203785714Y-133454819D02*
X204166666Y-133454819D01*
X204166666Y-133454819D02*
X204261904Y-133502438D01*
X204261904Y-133502438D02*
X204309523Y-133550057D01*
X204309523Y-133550057D02*
X204357142Y-133645295D01*
X204357142Y-133645295D02*
X204357142Y-133788152D01*
X204357142Y-133788152D02*
X204309523Y-133883390D01*
X204309523Y-133883390D02*
X204261904Y-133931009D01*
X204261904Y-133931009D02*
X204166666Y-133978628D01*
X204166666Y-133978628D02*
X203785714Y-133978628D01*
X205309523Y-134454819D02*
X204738095Y-134454819D01*
X205023809Y-134454819D02*
X205023809Y-133454819D01*
X205023809Y-133454819D02*
X204928571Y-133597676D01*
X204928571Y-133597676D02*
X204833333Y-133692914D01*
X204833333Y-133692914D02*
X204738095Y-133740533D01*
X205928571Y-133454819D02*
X206023809Y-133454819D01*
X206023809Y-133454819D02*
X206119047Y-133502438D01*
X206119047Y-133502438D02*
X206166666Y-133550057D01*
X206166666Y-133550057D02*
X206214285Y-133645295D01*
X206214285Y-133645295D02*
X206261904Y-133835771D01*
X206261904Y-133835771D02*
X206261904Y-134073866D01*
X206261904Y-134073866D02*
X206214285Y-134264342D01*
X206214285Y-134264342D02*
X206166666Y-134359580D01*
X206166666Y-134359580D02*
X206119047Y-134407200D01*
X206119047Y-134407200D02*
X206023809Y-134454819D01*
X206023809Y-134454819D02*
X205928571Y-134454819D01*
X205928571Y-134454819D02*
X205833333Y-134407200D01*
X205833333Y-134407200D02*
X205785714Y-134359580D01*
X205785714Y-134359580D02*
X205738095Y-134264342D01*
X205738095Y-134264342D02*
X205690476Y-134073866D01*
X205690476Y-134073866D02*
X205690476Y-133835771D01*
X205690476Y-133835771D02*
X205738095Y-133645295D01*
X205738095Y-133645295D02*
X205785714Y-133550057D01*
X205785714Y-133550057D02*
X205833333Y-133502438D01*
X205833333Y-133502438D02*
X205928571Y-133454819D01*
X204357142Y-142454819D02*
X204023809Y-141978628D01*
X203785714Y-142454819D02*
X203785714Y-141454819D01*
X203785714Y-141454819D02*
X204166666Y-141454819D01*
X204166666Y-141454819D02*
X204261904Y-141502438D01*
X204261904Y-141502438D02*
X204309523Y-141550057D01*
X204309523Y-141550057D02*
X204357142Y-141645295D01*
X204357142Y-141645295D02*
X204357142Y-141788152D01*
X204357142Y-141788152D02*
X204309523Y-141883390D01*
X204309523Y-141883390D02*
X204261904Y-141931009D01*
X204261904Y-141931009D02*
X204166666Y-141978628D01*
X204166666Y-141978628D02*
X203785714Y-141978628D01*
X205309523Y-142454819D02*
X204738095Y-142454819D01*
X205023809Y-142454819D02*
X205023809Y-141454819D01*
X205023809Y-141454819D02*
X204928571Y-141597676D01*
X204928571Y-141597676D02*
X204833333Y-141692914D01*
X204833333Y-141692914D02*
X204738095Y-141740533D01*
X206261904Y-142454819D02*
X205690476Y-142454819D01*
X205976190Y-142454819D02*
X205976190Y-141454819D01*
X205976190Y-141454819D02*
X205880952Y-141597676D01*
X205880952Y-141597676D02*
X205785714Y-141692914D01*
X205785714Y-141692914D02*
X205690476Y-141740533D01*
X204357142Y-150454819D02*
X204023809Y-149978628D01*
X203785714Y-150454819D02*
X203785714Y-149454819D01*
X203785714Y-149454819D02*
X204166666Y-149454819D01*
X204166666Y-149454819D02*
X204261904Y-149502438D01*
X204261904Y-149502438D02*
X204309523Y-149550057D01*
X204309523Y-149550057D02*
X204357142Y-149645295D01*
X204357142Y-149645295D02*
X204357142Y-149788152D01*
X204357142Y-149788152D02*
X204309523Y-149883390D01*
X204309523Y-149883390D02*
X204261904Y-149931009D01*
X204261904Y-149931009D02*
X204166666Y-149978628D01*
X204166666Y-149978628D02*
X203785714Y-149978628D01*
X205309523Y-150454819D02*
X204738095Y-150454819D01*
X205023809Y-150454819D02*
X205023809Y-149454819D01*
X205023809Y-149454819D02*
X204928571Y-149597676D01*
X204928571Y-149597676D02*
X204833333Y-149692914D01*
X204833333Y-149692914D02*
X204738095Y-149740533D01*
X205690476Y-149550057D02*
X205738095Y-149502438D01*
X205738095Y-149502438D02*
X205833333Y-149454819D01*
X205833333Y-149454819D02*
X206071428Y-149454819D01*
X206071428Y-149454819D02*
X206166666Y-149502438D01*
X206166666Y-149502438D02*
X206214285Y-149550057D01*
X206214285Y-149550057D02*
X206261904Y-149645295D01*
X206261904Y-149645295D02*
X206261904Y-149740533D01*
X206261904Y-149740533D02*
X206214285Y-149883390D01*
X206214285Y-149883390D02*
X205642857Y-150454819D01*
X205642857Y-150454819D02*
X206261904Y-150454819D01*
X157333333Y-196359580D02*
X157285714Y-196407200D01*
X157285714Y-196407200D02*
X157142857Y-196454819D01*
X157142857Y-196454819D02*
X157047619Y-196454819D01*
X157047619Y-196454819D02*
X156904762Y-196407200D01*
X156904762Y-196407200D02*
X156809524Y-196311961D01*
X156809524Y-196311961D02*
X156761905Y-196216723D01*
X156761905Y-196216723D02*
X156714286Y-196026247D01*
X156714286Y-196026247D02*
X156714286Y-195883390D01*
X156714286Y-195883390D02*
X156761905Y-195692914D01*
X156761905Y-195692914D02*
X156809524Y-195597676D01*
X156809524Y-195597676D02*
X156904762Y-195502438D01*
X156904762Y-195502438D02*
X157047619Y-195454819D01*
X157047619Y-195454819D02*
X157142857Y-195454819D01*
X157142857Y-195454819D02*
X157285714Y-195502438D01*
X157285714Y-195502438D02*
X157333333Y-195550057D01*
X158285714Y-196454819D02*
X157714286Y-196454819D01*
X158000000Y-196454819D02*
X158000000Y-195454819D01*
X158000000Y-195454819D02*
X157904762Y-195597676D01*
X157904762Y-195597676D02*
X157809524Y-195692914D01*
X157809524Y-195692914D02*
X157714286Y-195740533D01*
X177333333Y-196359580D02*
X177285714Y-196407200D01*
X177285714Y-196407200D02*
X177142857Y-196454819D01*
X177142857Y-196454819D02*
X177047619Y-196454819D01*
X177047619Y-196454819D02*
X176904762Y-196407200D01*
X176904762Y-196407200D02*
X176809524Y-196311961D01*
X176809524Y-196311961D02*
X176761905Y-196216723D01*
X176761905Y-196216723D02*
X176714286Y-196026247D01*
X176714286Y-196026247D02*
X176714286Y-195883390D01*
X176714286Y-195883390D02*
X176761905Y-195692914D01*
X176761905Y-195692914D02*
X176809524Y-195597676D01*
X176809524Y-195597676D02*
X176904762Y-195502438D01*
X176904762Y-195502438D02*
X177047619Y-195454819D01*
X177047619Y-195454819D02*
X177142857Y-195454819D01*
X177142857Y-195454819D02*
X177285714Y-195502438D01*
X177285714Y-195502438D02*
X177333333Y-195550057D01*
X177714286Y-195550057D02*
X177761905Y-195502438D01*
X177761905Y-195502438D02*
X177857143Y-195454819D01*
X177857143Y-195454819D02*
X178095238Y-195454819D01*
X178095238Y-195454819D02*
X178190476Y-195502438D01*
X178190476Y-195502438D02*
X178238095Y-195550057D01*
X178238095Y-195550057D02*
X178285714Y-195645295D01*
X178285714Y-195645295D02*
X178285714Y-195740533D01*
X178285714Y-195740533D02*
X178238095Y-195883390D01*
X178238095Y-195883390D02*
X177666667Y-196454819D01*
X177666667Y-196454819D02*
X178285714Y-196454819D01*
X197333333Y-196359580D02*
X197285714Y-196407200D01*
X197285714Y-196407200D02*
X197142857Y-196454819D01*
X197142857Y-196454819D02*
X197047619Y-196454819D01*
X197047619Y-196454819D02*
X196904762Y-196407200D01*
X196904762Y-196407200D02*
X196809524Y-196311961D01*
X196809524Y-196311961D02*
X196761905Y-196216723D01*
X196761905Y-196216723D02*
X196714286Y-196026247D01*
X196714286Y-196026247D02*
X196714286Y-195883390D01*
X196714286Y-195883390D02*
X196761905Y-195692914D01*
X196761905Y-195692914D02*
X196809524Y-195597676D01*
X196809524Y-195597676D02*
X196904762Y-195502438D01*
X196904762Y-195502438D02*
X197047619Y-195454819D01*
X197047619Y-195454819D02*
X197142857Y-195454819D01*
X197142857Y-195454819D02*
X197285714Y-195502438D01*
X197285714Y-195502438D02*
X197333333Y-195550057D01*
X197666667Y-195454819D02*
X198285714Y-195454819D01*
X198285714Y-195454819D02*
X197952381Y-195835771D01*
X197952381Y-195835771D02*
X198095238Y-195835771D01*
X198095238Y-195835771D02*
X198190476Y-195883390D01*
X198190476Y-195883390D02*
X198238095Y-195931009D01*
X198238095Y-195931009D02*
X198285714Y-196026247D01*
X198285714Y-196026247D02*
X198285714Y-196264342D01*
X198285714Y-196264342D02*
X198238095Y-196359580D01*
X198238095Y-196359580D02*
X198190476Y-196407200D01*
X198190476Y-196407200D02*
X198095238Y-196454819D01*
X198095238Y-196454819D02*
X197809524Y-196454819D01*
X197809524Y-196454819D02*
X197714286Y-196407200D01*
X197714286Y-196407200D02*
X197666667Y-196359580D01*
X102238095Y-99954819D02*
X102238095Y-98954819D01*
X102238095Y-99431009D02*
X102809523Y-99431009D01*
X102809523Y-99954819D02*
X102809523Y-98954819D01*
X103809523Y-99954819D02*
X103238095Y-99954819D01*
X103523809Y-99954819D02*
X103523809Y-98954819D01*
X103523809Y-98954819D02*
X103428571Y-99097676D01*
X103428571Y-99097676D02*
X103333333Y-99192914D01*
X103333333Y-99192914D02*
X103238095Y-99240533D01*
X236238095Y-99954819D02*
X236238095Y-98954819D01*
X236238095Y-99431009D02*
X236809523Y-99431009D01*
X236809523Y-99954819D02*
X236809523Y-98954819D01*
X237238095Y-99050057D02*
X237285714Y-99002438D01*
X237285714Y-99002438D02*
X237380952Y-98954819D01*
X237380952Y-98954819D02*
X237619047Y-98954819D01*
X237619047Y-98954819D02*
X237714285Y-99002438D01*
X237714285Y-99002438D02*
X237761904Y-99050057D01*
X237761904Y-99050057D02*
X237809523Y-99145295D01*
X237809523Y-99145295D02*
X237809523Y-99240533D01*
X237809523Y-99240533D02*
X237761904Y-99383390D01*
X237761904Y-99383390D02*
X237190476Y-99954819D01*
X237190476Y-99954819D02*
X237809523Y-99954819D01*
X102238095Y-213954819D02*
X102238095Y-212954819D01*
X102238095Y-213431009D02*
X102809523Y-213431009D01*
X102809523Y-213954819D02*
X102809523Y-212954819D01*
X103190476Y-212954819D02*
X103809523Y-212954819D01*
X103809523Y-212954819D02*
X103476190Y-213335771D01*
X103476190Y-213335771D02*
X103619047Y-213335771D01*
X103619047Y-213335771D02*
X103714285Y-213383390D01*
X103714285Y-213383390D02*
X103761904Y-213431009D01*
X103761904Y-213431009D02*
X103809523Y-213526247D01*
X103809523Y-213526247D02*
X103809523Y-213764342D01*
X103809523Y-213764342D02*
X103761904Y-213859580D01*
X103761904Y-213859580D02*
X103714285Y-213907200D01*
X103714285Y-213907200D02*
X103619047Y-213954819D01*
X103619047Y-213954819D02*
X103333333Y-213954819D01*
X103333333Y-213954819D02*
X103238095Y-213907200D01*
X103238095Y-213907200D02*
X103190476Y-213859580D01*
X236238095Y-213954819D02*
X236238095Y-212954819D01*
X236238095Y-213431009D02*
X236809523Y-213431009D01*
X236809523Y-213954819D02*
X236809523Y-212954819D01*
X237714285Y-213288152D02*
X237714285Y-213954819D01*
X237476190Y-212907200D02*
X237238095Y-213621485D01*
X237238095Y-213621485D02*
X237857142Y-213621485D01*
M02*
