%TF.GenerationSoftware,KiCad,Pcbnew,9.0.7*%
%TF.CreationDate,2026-03-10T00:22:13+02:00*%
%TF.ProjectId,64korppu-E,36346b6f-7270-4707-952d-452e6b696361,rev?*%
%TF.SameCoordinates,Original*%
%TF.FileFunction,Legend,Top*%
%TF.FilePolarity,Positive*%
%FSLAX46Y46*%
G04 Gerber Fmt 4.6, Leading zero omitted, Abs format (unit mm)*
G04 Created by KiCad (PCBNEW 9.0.7) date 2026-03-10 00:22:13*
%MOMM*%
%LPD*%
G01*
G04 APERTURE LIST*
%ADD10C,0.150000*%
G04 APERTURE END LIST*
D10*
X114666666Y-101454819D02*
X114666666Y-102169104D01*
X114666666Y-102169104D02*
X114619047Y-102311961D01*
X114619047Y-102311961D02*
X114523809Y-102407200D01*
X114523809Y-102407200D02*
X114380952Y-102454819D01*
X114380952Y-102454819D02*
X114285714Y-102454819D01*
X115047619Y-101454819D02*
X115666666Y-101454819D01*
X115666666Y-101454819D02*
X115333333Y-101835771D01*
X115333333Y-101835771D02*
X115476190Y-101835771D01*
X115476190Y-101835771D02*
X115571428Y-101883390D01*
X115571428Y-101883390D02*
X115619047Y-101931009D01*
X115619047Y-101931009D02*
X115666666Y-102026247D01*
X115666666Y-102026247D02*
X115666666Y-102264342D01*
X115666666Y-102264342D02*
X115619047Y-102359580D01*
X115619047Y-102359580D02*
X115571428Y-102407200D01*
X115571428Y-102407200D02*
X115476190Y-102454819D01*
X115476190Y-102454819D02*
X115190476Y-102454819D01*
X115190476Y-102454819D02*
X115095238Y-102407200D01*
X115095238Y-102407200D02*
X115047619Y-102359580D01*
X130833333Y-102359580D02*
X130785714Y-102407200D01*
X130785714Y-102407200D02*
X130642857Y-102454819D01*
X130642857Y-102454819D02*
X130547619Y-102454819D01*
X130547619Y-102454819D02*
X130404762Y-102407200D01*
X130404762Y-102407200D02*
X130309524Y-102311961D01*
X130309524Y-102311961D02*
X130261905Y-102216723D01*
X130261905Y-102216723D02*
X130214286Y-102026247D01*
X130214286Y-102026247D02*
X130214286Y-101883390D01*
X130214286Y-101883390D02*
X130261905Y-101692914D01*
X130261905Y-101692914D02*
X130309524Y-101597676D01*
X130309524Y-101597676D02*
X130404762Y-101502438D01*
X130404762Y-101502438D02*
X130547619Y-101454819D01*
X130547619Y-101454819D02*
X130642857Y-101454819D01*
X130642857Y-101454819D02*
X130785714Y-101502438D01*
X130785714Y-101502438D02*
X130833333Y-101550057D01*
X131690476Y-101788152D02*
X131690476Y-102454819D01*
X131452381Y-101407200D02*
X131214286Y-102121485D01*
X131214286Y-102121485D02*
X131833333Y-102121485D01*
X109666666Y-156454819D02*
X109666666Y-157169104D01*
X109666666Y-157169104D02*
X109619047Y-157311961D01*
X109619047Y-157311961D02*
X109523809Y-157407200D01*
X109523809Y-157407200D02*
X109380952Y-157454819D01*
X109380952Y-157454819D02*
X109285714Y-157454819D01*
X110666666Y-157454819D02*
X110095238Y-157454819D01*
X110380952Y-157454819D02*
X110380952Y-156454819D01*
X110380952Y-156454819D02*
X110285714Y-156597676D01*
X110285714Y-156597676D02*
X110190476Y-156692914D01*
X110190476Y-156692914D02*
X110095238Y-156740533D01*
X112833333Y-119454819D02*
X112500000Y-118978628D01*
X112261905Y-119454819D02*
X112261905Y-118454819D01*
X112261905Y-118454819D02*
X112642857Y-118454819D01*
X112642857Y-118454819D02*
X112738095Y-118502438D01*
X112738095Y-118502438D02*
X112785714Y-118550057D01*
X112785714Y-118550057D02*
X112833333Y-118645295D01*
X112833333Y-118645295D02*
X112833333Y-118788152D01*
X112833333Y-118788152D02*
X112785714Y-118883390D01*
X112785714Y-118883390D02*
X112738095Y-118931009D01*
X112738095Y-118931009D02*
X112642857Y-118978628D01*
X112642857Y-118978628D02*
X112261905Y-118978628D01*
X113785714Y-119454819D02*
X113214286Y-119454819D01*
X113500000Y-119454819D02*
X113500000Y-118454819D01*
X113500000Y-118454819D02*
X113404762Y-118597676D01*
X113404762Y-118597676D02*
X113309524Y-118692914D01*
X113309524Y-118692914D02*
X113214286Y-118740533D01*
X112833333Y-124454819D02*
X112500000Y-123978628D01*
X112261905Y-124454819D02*
X112261905Y-123454819D01*
X112261905Y-123454819D02*
X112642857Y-123454819D01*
X112642857Y-123454819D02*
X112738095Y-123502438D01*
X112738095Y-123502438D02*
X112785714Y-123550057D01*
X112785714Y-123550057D02*
X112833333Y-123645295D01*
X112833333Y-123645295D02*
X112833333Y-123788152D01*
X112833333Y-123788152D02*
X112785714Y-123883390D01*
X112785714Y-123883390D02*
X112738095Y-123931009D01*
X112738095Y-123931009D02*
X112642857Y-123978628D01*
X112642857Y-123978628D02*
X112261905Y-123978628D01*
X113214286Y-123550057D02*
X113261905Y-123502438D01*
X113261905Y-123502438D02*
X113357143Y-123454819D01*
X113357143Y-123454819D02*
X113595238Y-123454819D01*
X113595238Y-123454819D02*
X113690476Y-123502438D01*
X113690476Y-123502438D02*
X113738095Y-123550057D01*
X113738095Y-123550057D02*
X113785714Y-123645295D01*
X113785714Y-123645295D02*
X113785714Y-123740533D01*
X113785714Y-123740533D02*
X113738095Y-123883390D01*
X113738095Y-123883390D02*
X113166667Y-124454819D01*
X113166667Y-124454819D02*
X113785714Y-124454819D01*
X112833333Y-129454819D02*
X112500000Y-128978628D01*
X112261905Y-129454819D02*
X112261905Y-128454819D01*
X112261905Y-128454819D02*
X112642857Y-128454819D01*
X112642857Y-128454819D02*
X112738095Y-128502438D01*
X112738095Y-128502438D02*
X112785714Y-128550057D01*
X112785714Y-128550057D02*
X112833333Y-128645295D01*
X112833333Y-128645295D02*
X112833333Y-128788152D01*
X112833333Y-128788152D02*
X112785714Y-128883390D01*
X112785714Y-128883390D02*
X112738095Y-128931009D01*
X112738095Y-128931009D02*
X112642857Y-128978628D01*
X112642857Y-128978628D02*
X112261905Y-128978628D01*
X113166667Y-128454819D02*
X113785714Y-128454819D01*
X113785714Y-128454819D02*
X113452381Y-128835771D01*
X113452381Y-128835771D02*
X113595238Y-128835771D01*
X113595238Y-128835771D02*
X113690476Y-128883390D01*
X113690476Y-128883390D02*
X113738095Y-128931009D01*
X113738095Y-128931009D02*
X113785714Y-129026247D01*
X113785714Y-129026247D02*
X113785714Y-129264342D01*
X113785714Y-129264342D02*
X113738095Y-129359580D01*
X113738095Y-129359580D02*
X113690476Y-129407200D01*
X113690476Y-129407200D02*
X113595238Y-129454819D01*
X113595238Y-129454819D02*
X113309524Y-129454819D01*
X113309524Y-129454819D02*
X113214286Y-129407200D01*
X113214286Y-129407200D02*
X113166667Y-129359580D01*
X112833333Y-134454819D02*
X112500000Y-133978628D01*
X112261905Y-134454819D02*
X112261905Y-133454819D01*
X112261905Y-133454819D02*
X112642857Y-133454819D01*
X112642857Y-133454819D02*
X112738095Y-133502438D01*
X112738095Y-133502438D02*
X112785714Y-133550057D01*
X112785714Y-133550057D02*
X112833333Y-133645295D01*
X112833333Y-133645295D02*
X112833333Y-133788152D01*
X112833333Y-133788152D02*
X112785714Y-133883390D01*
X112785714Y-133883390D02*
X112738095Y-133931009D01*
X112738095Y-133931009D02*
X112642857Y-133978628D01*
X112642857Y-133978628D02*
X112261905Y-133978628D01*
X113690476Y-133788152D02*
X113690476Y-134454819D01*
X113452381Y-133407200D02*
X113214286Y-134121485D01*
X113214286Y-134121485D02*
X113833333Y-134121485D01*
X112833333Y-139454819D02*
X112500000Y-138978628D01*
X112261905Y-139454819D02*
X112261905Y-138454819D01*
X112261905Y-138454819D02*
X112642857Y-138454819D01*
X112642857Y-138454819D02*
X112738095Y-138502438D01*
X112738095Y-138502438D02*
X112785714Y-138550057D01*
X112785714Y-138550057D02*
X112833333Y-138645295D01*
X112833333Y-138645295D02*
X112833333Y-138788152D01*
X112833333Y-138788152D02*
X112785714Y-138883390D01*
X112785714Y-138883390D02*
X112738095Y-138931009D01*
X112738095Y-138931009D02*
X112642857Y-138978628D01*
X112642857Y-138978628D02*
X112261905Y-138978628D01*
X113738095Y-138454819D02*
X113261905Y-138454819D01*
X113261905Y-138454819D02*
X113214286Y-138931009D01*
X113214286Y-138931009D02*
X113261905Y-138883390D01*
X113261905Y-138883390D02*
X113357143Y-138835771D01*
X113357143Y-138835771D02*
X113595238Y-138835771D01*
X113595238Y-138835771D02*
X113690476Y-138883390D01*
X113690476Y-138883390D02*
X113738095Y-138931009D01*
X113738095Y-138931009D02*
X113785714Y-139026247D01*
X113785714Y-139026247D02*
X113785714Y-139264342D01*
X113785714Y-139264342D02*
X113738095Y-139359580D01*
X113738095Y-139359580D02*
X113690476Y-139407200D01*
X113690476Y-139407200D02*
X113595238Y-139454819D01*
X113595238Y-139454819D02*
X113357143Y-139454819D01*
X113357143Y-139454819D02*
X113261905Y-139407200D01*
X113261905Y-139407200D02*
X113214286Y-139359580D01*
X112833333Y-144454819D02*
X112500000Y-143978628D01*
X112261905Y-144454819D02*
X112261905Y-143454819D01*
X112261905Y-143454819D02*
X112642857Y-143454819D01*
X112642857Y-143454819D02*
X112738095Y-143502438D01*
X112738095Y-143502438D02*
X112785714Y-143550057D01*
X112785714Y-143550057D02*
X112833333Y-143645295D01*
X112833333Y-143645295D02*
X112833333Y-143788152D01*
X112833333Y-143788152D02*
X112785714Y-143883390D01*
X112785714Y-143883390D02*
X112738095Y-143931009D01*
X112738095Y-143931009D02*
X112642857Y-143978628D01*
X112642857Y-143978628D02*
X112261905Y-143978628D01*
X113690476Y-143454819D02*
X113500000Y-143454819D01*
X113500000Y-143454819D02*
X113404762Y-143502438D01*
X113404762Y-143502438D02*
X113357143Y-143550057D01*
X113357143Y-143550057D02*
X113261905Y-143692914D01*
X113261905Y-143692914D02*
X113214286Y-143883390D01*
X113214286Y-143883390D02*
X113214286Y-144264342D01*
X113214286Y-144264342D02*
X113261905Y-144359580D01*
X113261905Y-144359580D02*
X113309524Y-144407200D01*
X113309524Y-144407200D02*
X113404762Y-144454819D01*
X113404762Y-144454819D02*
X113595238Y-144454819D01*
X113595238Y-144454819D02*
X113690476Y-144407200D01*
X113690476Y-144407200D02*
X113738095Y-144359580D01*
X113738095Y-144359580D02*
X113785714Y-144264342D01*
X113785714Y-144264342D02*
X113785714Y-144026247D01*
X113785714Y-144026247D02*
X113738095Y-143931009D01*
X113738095Y-143931009D02*
X113690476Y-143883390D01*
X113690476Y-143883390D02*
X113595238Y-143835771D01*
X113595238Y-143835771D02*
X113404762Y-143835771D01*
X113404762Y-143835771D02*
X113309524Y-143883390D01*
X113309524Y-143883390D02*
X113261905Y-143931009D01*
X113261905Y-143931009D02*
X113214286Y-144026247D01*
X112833333Y-149454819D02*
X112500000Y-148978628D01*
X112261905Y-149454819D02*
X112261905Y-148454819D01*
X112261905Y-148454819D02*
X112642857Y-148454819D01*
X112642857Y-148454819D02*
X112738095Y-148502438D01*
X112738095Y-148502438D02*
X112785714Y-148550057D01*
X112785714Y-148550057D02*
X112833333Y-148645295D01*
X112833333Y-148645295D02*
X112833333Y-148788152D01*
X112833333Y-148788152D02*
X112785714Y-148883390D01*
X112785714Y-148883390D02*
X112738095Y-148931009D01*
X112738095Y-148931009D02*
X112642857Y-148978628D01*
X112642857Y-148978628D02*
X112261905Y-148978628D01*
X113166667Y-148454819D02*
X113833333Y-148454819D01*
X113833333Y-148454819D02*
X113404762Y-149454819D01*
X135508095Y-116454819D02*
X135508095Y-117264342D01*
X135508095Y-117264342D02*
X135555714Y-117359580D01*
X135555714Y-117359580D02*
X135603333Y-117407200D01*
X135603333Y-117407200D02*
X135698571Y-117454819D01*
X135698571Y-117454819D02*
X135889047Y-117454819D01*
X135889047Y-117454819D02*
X135984285Y-117407200D01*
X135984285Y-117407200D02*
X136031904Y-117359580D01*
X136031904Y-117359580D02*
X136079523Y-117264342D01*
X136079523Y-117264342D02*
X136079523Y-116454819D01*
X137079523Y-117454819D02*
X136508095Y-117454819D01*
X136793809Y-117454819D02*
X136793809Y-116454819D01*
X136793809Y-116454819D02*
X136698571Y-116597676D01*
X136698571Y-116597676D02*
X136603333Y-116692914D01*
X136603333Y-116692914D02*
X136508095Y-116740533D01*
X136048095Y-156454819D02*
X136048095Y-157264342D01*
X136048095Y-157264342D02*
X136095714Y-157359580D01*
X136095714Y-157359580D02*
X136143333Y-157407200D01*
X136143333Y-157407200D02*
X136238571Y-157454819D01*
X136238571Y-157454819D02*
X136429047Y-157454819D01*
X136429047Y-157454819D02*
X136524285Y-157407200D01*
X136524285Y-157407200D02*
X136571904Y-157359580D01*
X136571904Y-157359580D02*
X136619523Y-157264342D01*
X136619523Y-157264342D02*
X136619523Y-156454819D01*
X137048095Y-156550057D02*
X137095714Y-156502438D01*
X137095714Y-156502438D02*
X137190952Y-156454819D01*
X137190952Y-156454819D02*
X137429047Y-156454819D01*
X137429047Y-156454819D02*
X137524285Y-156502438D01*
X137524285Y-156502438D02*
X137571904Y-156550057D01*
X137571904Y-156550057D02*
X137619523Y-156645295D01*
X137619523Y-156645295D02*
X137619523Y-156740533D01*
X137619523Y-156740533D02*
X137571904Y-156883390D01*
X137571904Y-156883390D02*
X137000476Y-157454819D01*
X137000476Y-157454819D02*
X137619523Y-157454819D01*
X150048095Y-148454819D02*
X150048095Y-149264342D01*
X150048095Y-149264342D02*
X150095714Y-149359580D01*
X150095714Y-149359580D02*
X150143333Y-149407200D01*
X150143333Y-149407200D02*
X150238571Y-149454819D01*
X150238571Y-149454819D02*
X150429047Y-149454819D01*
X150429047Y-149454819D02*
X150524285Y-149407200D01*
X150524285Y-149407200D02*
X150571904Y-149359580D01*
X150571904Y-149359580D02*
X150619523Y-149264342D01*
X150619523Y-149264342D02*
X150619523Y-148454819D01*
X151000476Y-148454819D02*
X151619523Y-148454819D01*
X151619523Y-148454819D02*
X151286190Y-148835771D01*
X151286190Y-148835771D02*
X151429047Y-148835771D01*
X151429047Y-148835771D02*
X151524285Y-148883390D01*
X151524285Y-148883390D02*
X151571904Y-148931009D01*
X151571904Y-148931009D02*
X151619523Y-149026247D01*
X151619523Y-149026247D02*
X151619523Y-149264342D01*
X151619523Y-149264342D02*
X151571904Y-149359580D01*
X151571904Y-149359580D02*
X151524285Y-149407200D01*
X151524285Y-149407200D02*
X151429047Y-149454819D01*
X151429047Y-149454819D02*
X151143333Y-149454819D01*
X151143333Y-149454819D02*
X151048095Y-149407200D01*
X151048095Y-149407200D02*
X151000476Y-149359580D01*
X192936666Y-115454819D02*
X192936666Y-116169104D01*
X192936666Y-116169104D02*
X192889047Y-116311961D01*
X192889047Y-116311961D02*
X192793809Y-116407200D01*
X192793809Y-116407200D02*
X192650952Y-116454819D01*
X192650952Y-116454819D02*
X192555714Y-116454819D01*
X193365238Y-115550057D02*
X193412857Y-115502438D01*
X193412857Y-115502438D02*
X193508095Y-115454819D01*
X193508095Y-115454819D02*
X193746190Y-115454819D01*
X193746190Y-115454819D02*
X193841428Y-115502438D01*
X193841428Y-115502438D02*
X193889047Y-115550057D01*
X193889047Y-115550057D02*
X193936666Y-115645295D01*
X193936666Y-115645295D02*
X193936666Y-115740533D01*
X193936666Y-115740533D02*
X193889047Y-115883390D01*
X193889047Y-115883390D02*
X193317619Y-116454819D01*
X193317619Y-116454819D02*
X193936666Y-116454819D01*
X147833333Y-105454819D02*
X147500000Y-104978628D01*
X147261905Y-105454819D02*
X147261905Y-104454819D01*
X147261905Y-104454819D02*
X147642857Y-104454819D01*
X147642857Y-104454819D02*
X147738095Y-104502438D01*
X147738095Y-104502438D02*
X147785714Y-104550057D01*
X147785714Y-104550057D02*
X147833333Y-104645295D01*
X147833333Y-104645295D02*
X147833333Y-104788152D01*
X147833333Y-104788152D02*
X147785714Y-104883390D01*
X147785714Y-104883390D02*
X147738095Y-104931009D01*
X147738095Y-104931009D02*
X147642857Y-104978628D01*
X147642857Y-104978628D02*
X147261905Y-104978628D01*
X148404762Y-104883390D02*
X148309524Y-104835771D01*
X148309524Y-104835771D02*
X148261905Y-104788152D01*
X148261905Y-104788152D02*
X148214286Y-104692914D01*
X148214286Y-104692914D02*
X148214286Y-104645295D01*
X148214286Y-104645295D02*
X148261905Y-104550057D01*
X148261905Y-104550057D02*
X148309524Y-104502438D01*
X148309524Y-104502438D02*
X148404762Y-104454819D01*
X148404762Y-104454819D02*
X148595238Y-104454819D01*
X148595238Y-104454819D02*
X148690476Y-104502438D01*
X148690476Y-104502438D02*
X148738095Y-104550057D01*
X148738095Y-104550057D02*
X148785714Y-104645295D01*
X148785714Y-104645295D02*
X148785714Y-104692914D01*
X148785714Y-104692914D02*
X148738095Y-104788152D01*
X148738095Y-104788152D02*
X148690476Y-104835771D01*
X148690476Y-104835771D02*
X148595238Y-104883390D01*
X148595238Y-104883390D02*
X148404762Y-104883390D01*
X148404762Y-104883390D02*
X148309524Y-104931009D01*
X148309524Y-104931009D02*
X148261905Y-104978628D01*
X148261905Y-104978628D02*
X148214286Y-105073866D01*
X148214286Y-105073866D02*
X148214286Y-105264342D01*
X148214286Y-105264342D02*
X148261905Y-105359580D01*
X148261905Y-105359580D02*
X148309524Y-105407200D01*
X148309524Y-105407200D02*
X148404762Y-105454819D01*
X148404762Y-105454819D02*
X148595238Y-105454819D01*
X148595238Y-105454819D02*
X148690476Y-105407200D01*
X148690476Y-105407200D02*
X148738095Y-105359580D01*
X148738095Y-105359580D02*
X148785714Y-105264342D01*
X148785714Y-105264342D02*
X148785714Y-105073866D01*
X148785714Y-105073866D02*
X148738095Y-104978628D01*
X148738095Y-104978628D02*
X148690476Y-104931009D01*
X148690476Y-104931009D02*
X148595238Y-104883390D01*
X137531905Y-105454819D02*
X137531905Y-104454819D01*
X137531905Y-104454819D02*
X137770000Y-104454819D01*
X137770000Y-104454819D02*
X137912857Y-104502438D01*
X137912857Y-104502438D02*
X138008095Y-104597676D01*
X138008095Y-104597676D02*
X138055714Y-104692914D01*
X138055714Y-104692914D02*
X138103333Y-104883390D01*
X138103333Y-104883390D02*
X138103333Y-105026247D01*
X138103333Y-105026247D02*
X138055714Y-105216723D01*
X138055714Y-105216723D02*
X138008095Y-105311961D01*
X138008095Y-105311961D02*
X137912857Y-105407200D01*
X137912857Y-105407200D02*
X137770000Y-105454819D01*
X137770000Y-105454819D02*
X137531905Y-105454819D01*
X139055714Y-105454819D02*
X138484286Y-105454819D01*
X138770000Y-105454819D02*
X138770000Y-104454819D01*
X138770000Y-104454819D02*
X138674762Y-104597676D01*
X138674762Y-104597676D02*
X138579524Y-104692914D01*
X138579524Y-104692914D02*
X138484286Y-104740533D01*
X159833333Y-122454819D02*
X159500000Y-121978628D01*
X159261905Y-122454819D02*
X159261905Y-121454819D01*
X159261905Y-121454819D02*
X159642857Y-121454819D01*
X159642857Y-121454819D02*
X159738095Y-121502438D01*
X159738095Y-121502438D02*
X159785714Y-121550057D01*
X159785714Y-121550057D02*
X159833333Y-121645295D01*
X159833333Y-121645295D02*
X159833333Y-121788152D01*
X159833333Y-121788152D02*
X159785714Y-121883390D01*
X159785714Y-121883390D02*
X159738095Y-121931009D01*
X159738095Y-121931009D02*
X159642857Y-121978628D01*
X159642857Y-121978628D02*
X159261905Y-121978628D01*
X160309524Y-122454819D02*
X160500000Y-122454819D01*
X160500000Y-122454819D02*
X160595238Y-122407200D01*
X160595238Y-122407200D02*
X160642857Y-122359580D01*
X160642857Y-122359580D02*
X160738095Y-122216723D01*
X160738095Y-122216723D02*
X160785714Y-122026247D01*
X160785714Y-122026247D02*
X160785714Y-121645295D01*
X160785714Y-121645295D02*
X160738095Y-121550057D01*
X160738095Y-121550057D02*
X160690476Y-121502438D01*
X160690476Y-121502438D02*
X160595238Y-121454819D01*
X160595238Y-121454819D02*
X160404762Y-121454819D01*
X160404762Y-121454819D02*
X160309524Y-121502438D01*
X160309524Y-121502438D02*
X160261905Y-121550057D01*
X160261905Y-121550057D02*
X160214286Y-121645295D01*
X160214286Y-121645295D02*
X160214286Y-121883390D01*
X160214286Y-121883390D02*
X160261905Y-121978628D01*
X160261905Y-121978628D02*
X160309524Y-122026247D01*
X160309524Y-122026247D02*
X160404762Y-122073866D01*
X160404762Y-122073866D02*
X160595238Y-122073866D01*
X160595238Y-122073866D02*
X160690476Y-122026247D01*
X160690476Y-122026247D02*
X160738095Y-121978628D01*
X160738095Y-121978628D02*
X160785714Y-121883390D01*
X159357142Y-129454819D02*
X159023809Y-128978628D01*
X158785714Y-129454819D02*
X158785714Y-128454819D01*
X158785714Y-128454819D02*
X159166666Y-128454819D01*
X159166666Y-128454819D02*
X159261904Y-128502438D01*
X159261904Y-128502438D02*
X159309523Y-128550057D01*
X159309523Y-128550057D02*
X159357142Y-128645295D01*
X159357142Y-128645295D02*
X159357142Y-128788152D01*
X159357142Y-128788152D02*
X159309523Y-128883390D01*
X159309523Y-128883390D02*
X159261904Y-128931009D01*
X159261904Y-128931009D02*
X159166666Y-128978628D01*
X159166666Y-128978628D02*
X158785714Y-128978628D01*
X160309523Y-129454819D02*
X159738095Y-129454819D01*
X160023809Y-129454819D02*
X160023809Y-128454819D01*
X160023809Y-128454819D02*
X159928571Y-128597676D01*
X159928571Y-128597676D02*
X159833333Y-128692914D01*
X159833333Y-128692914D02*
X159738095Y-128740533D01*
X160928571Y-128454819D02*
X161023809Y-128454819D01*
X161023809Y-128454819D02*
X161119047Y-128502438D01*
X161119047Y-128502438D02*
X161166666Y-128550057D01*
X161166666Y-128550057D02*
X161214285Y-128645295D01*
X161214285Y-128645295D02*
X161261904Y-128835771D01*
X161261904Y-128835771D02*
X161261904Y-129073866D01*
X161261904Y-129073866D02*
X161214285Y-129264342D01*
X161214285Y-129264342D02*
X161166666Y-129359580D01*
X161166666Y-129359580D02*
X161119047Y-129407200D01*
X161119047Y-129407200D02*
X161023809Y-129454819D01*
X161023809Y-129454819D02*
X160928571Y-129454819D01*
X160928571Y-129454819D02*
X160833333Y-129407200D01*
X160833333Y-129407200D02*
X160785714Y-129359580D01*
X160785714Y-129359580D02*
X160738095Y-129264342D01*
X160738095Y-129264342D02*
X160690476Y-129073866D01*
X160690476Y-129073866D02*
X160690476Y-128835771D01*
X160690476Y-128835771D02*
X160738095Y-128645295D01*
X160738095Y-128645295D02*
X160785714Y-128550057D01*
X160785714Y-128550057D02*
X160833333Y-128502438D01*
X160833333Y-128502438D02*
X160928571Y-128454819D01*
X159357142Y-136454819D02*
X159023809Y-135978628D01*
X158785714Y-136454819D02*
X158785714Y-135454819D01*
X158785714Y-135454819D02*
X159166666Y-135454819D01*
X159166666Y-135454819D02*
X159261904Y-135502438D01*
X159261904Y-135502438D02*
X159309523Y-135550057D01*
X159309523Y-135550057D02*
X159357142Y-135645295D01*
X159357142Y-135645295D02*
X159357142Y-135788152D01*
X159357142Y-135788152D02*
X159309523Y-135883390D01*
X159309523Y-135883390D02*
X159261904Y-135931009D01*
X159261904Y-135931009D02*
X159166666Y-135978628D01*
X159166666Y-135978628D02*
X158785714Y-135978628D01*
X160309523Y-136454819D02*
X159738095Y-136454819D01*
X160023809Y-136454819D02*
X160023809Y-135454819D01*
X160023809Y-135454819D02*
X159928571Y-135597676D01*
X159928571Y-135597676D02*
X159833333Y-135692914D01*
X159833333Y-135692914D02*
X159738095Y-135740533D01*
X161261904Y-136454819D02*
X160690476Y-136454819D01*
X160976190Y-136454819D02*
X160976190Y-135454819D01*
X160976190Y-135454819D02*
X160880952Y-135597676D01*
X160880952Y-135597676D02*
X160785714Y-135692914D01*
X160785714Y-135692914D02*
X160690476Y-135740533D01*
X159357142Y-143454819D02*
X159023809Y-142978628D01*
X158785714Y-143454819D02*
X158785714Y-142454819D01*
X158785714Y-142454819D02*
X159166666Y-142454819D01*
X159166666Y-142454819D02*
X159261904Y-142502438D01*
X159261904Y-142502438D02*
X159309523Y-142550057D01*
X159309523Y-142550057D02*
X159357142Y-142645295D01*
X159357142Y-142645295D02*
X159357142Y-142788152D01*
X159357142Y-142788152D02*
X159309523Y-142883390D01*
X159309523Y-142883390D02*
X159261904Y-142931009D01*
X159261904Y-142931009D02*
X159166666Y-142978628D01*
X159166666Y-142978628D02*
X158785714Y-142978628D01*
X160309523Y-143454819D02*
X159738095Y-143454819D01*
X160023809Y-143454819D02*
X160023809Y-142454819D01*
X160023809Y-142454819D02*
X159928571Y-142597676D01*
X159928571Y-142597676D02*
X159833333Y-142692914D01*
X159833333Y-142692914D02*
X159738095Y-142740533D01*
X160690476Y-142550057D02*
X160738095Y-142502438D01*
X160738095Y-142502438D02*
X160833333Y-142454819D01*
X160833333Y-142454819D02*
X161071428Y-142454819D01*
X161071428Y-142454819D02*
X161166666Y-142502438D01*
X161166666Y-142502438D02*
X161214285Y-142550057D01*
X161214285Y-142550057D02*
X161261904Y-142645295D01*
X161261904Y-142645295D02*
X161261904Y-142740533D01*
X161261904Y-142740533D02*
X161214285Y-142883390D01*
X161214285Y-142883390D02*
X160642857Y-143454819D01*
X160642857Y-143454819D02*
X161261904Y-143454819D01*
X125333333Y-159359580D02*
X125285714Y-159407200D01*
X125285714Y-159407200D02*
X125142857Y-159454819D01*
X125142857Y-159454819D02*
X125047619Y-159454819D01*
X125047619Y-159454819D02*
X124904762Y-159407200D01*
X124904762Y-159407200D02*
X124809524Y-159311961D01*
X124809524Y-159311961D02*
X124761905Y-159216723D01*
X124761905Y-159216723D02*
X124714286Y-159026247D01*
X124714286Y-159026247D02*
X124714286Y-158883390D01*
X124714286Y-158883390D02*
X124761905Y-158692914D01*
X124761905Y-158692914D02*
X124809524Y-158597676D01*
X124809524Y-158597676D02*
X124904762Y-158502438D01*
X124904762Y-158502438D02*
X125047619Y-158454819D01*
X125047619Y-158454819D02*
X125142857Y-158454819D01*
X125142857Y-158454819D02*
X125285714Y-158502438D01*
X125285714Y-158502438D02*
X125333333Y-158550057D01*
X126285714Y-159454819D02*
X125714286Y-159454819D01*
X126000000Y-159454819D02*
X126000000Y-158454819D01*
X126000000Y-158454819D02*
X125904762Y-158597676D01*
X125904762Y-158597676D02*
X125809524Y-158692914D01*
X125809524Y-158692914D02*
X125714286Y-158740533D01*
X161333333Y-151359580D02*
X161285714Y-151407200D01*
X161285714Y-151407200D02*
X161142857Y-151454819D01*
X161142857Y-151454819D02*
X161047619Y-151454819D01*
X161047619Y-151454819D02*
X160904762Y-151407200D01*
X160904762Y-151407200D02*
X160809524Y-151311961D01*
X160809524Y-151311961D02*
X160761905Y-151216723D01*
X160761905Y-151216723D02*
X160714286Y-151026247D01*
X160714286Y-151026247D02*
X160714286Y-150883390D01*
X160714286Y-150883390D02*
X160761905Y-150692914D01*
X160761905Y-150692914D02*
X160809524Y-150597676D01*
X160809524Y-150597676D02*
X160904762Y-150502438D01*
X160904762Y-150502438D02*
X161047619Y-150454819D01*
X161047619Y-150454819D02*
X161142857Y-150454819D01*
X161142857Y-150454819D02*
X161285714Y-150502438D01*
X161285714Y-150502438D02*
X161333333Y-150550057D01*
X161714286Y-150550057D02*
X161761905Y-150502438D01*
X161761905Y-150502438D02*
X161857143Y-150454819D01*
X161857143Y-150454819D02*
X162095238Y-150454819D01*
X162095238Y-150454819D02*
X162190476Y-150502438D01*
X162190476Y-150502438D02*
X162238095Y-150550057D01*
X162238095Y-150550057D02*
X162285714Y-150645295D01*
X162285714Y-150645295D02*
X162285714Y-150740533D01*
X162285714Y-150740533D02*
X162238095Y-150883390D01*
X162238095Y-150883390D02*
X161666667Y-151454819D01*
X161666667Y-151454819D02*
X162285714Y-151454819D01*
X147333333Y-112359580D02*
X147285714Y-112407200D01*
X147285714Y-112407200D02*
X147142857Y-112454819D01*
X147142857Y-112454819D02*
X147047619Y-112454819D01*
X147047619Y-112454819D02*
X146904762Y-112407200D01*
X146904762Y-112407200D02*
X146809524Y-112311961D01*
X146809524Y-112311961D02*
X146761905Y-112216723D01*
X146761905Y-112216723D02*
X146714286Y-112026247D01*
X146714286Y-112026247D02*
X146714286Y-111883390D01*
X146714286Y-111883390D02*
X146761905Y-111692914D01*
X146761905Y-111692914D02*
X146809524Y-111597676D01*
X146809524Y-111597676D02*
X146904762Y-111502438D01*
X146904762Y-111502438D02*
X147047619Y-111454819D01*
X147047619Y-111454819D02*
X147142857Y-111454819D01*
X147142857Y-111454819D02*
X147285714Y-111502438D01*
X147285714Y-111502438D02*
X147333333Y-111550057D01*
X147666667Y-111454819D02*
X148285714Y-111454819D01*
X148285714Y-111454819D02*
X147952381Y-111835771D01*
X147952381Y-111835771D02*
X148095238Y-111835771D01*
X148095238Y-111835771D02*
X148190476Y-111883390D01*
X148190476Y-111883390D02*
X148238095Y-111931009D01*
X148238095Y-111931009D02*
X148285714Y-112026247D01*
X148285714Y-112026247D02*
X148285714Y-112264342D01*
X148285714Y-112264342D02*
X148238095Y-112359580D01*
X148238095Y-112359580D02*
X148190476Y-112407200D01*
X148190476Y-112407200D02*
X148095238Y-112454819D01*
X148095238Y-112454819D02*
X147809524Y-112454819D01*
X147809524Y-112454819D02*
X147714286Y-112407200D01*
X147714286Y-112407200D02*
X147666667Y-112359580D01*
M02*
