%TF.GenerationSoftware,KiCad,Pcbnew,9.0.7*%
%TF.CreationDate,2026-03-08T23:48:38+02:00*%
%TF.ProjectId,64korppu-E,36346b6f-7270-4707-952d-452e6b696361,rev?*%
%TF.SameCoordinates,Original*%
%TF.FileFunction,Copper,L1,Top*%
%TF.FilePolarity,Positive*%
%FSLAX46Y46*%
G04 Gerber Fmt 4.6, Leading zero omitted, Abs format (unit mm)*
G04 Created by KiCad (PCBNEW 9.0.7) date 2026-03-08 23:48:38*
%MOMM*%
%LPD*%
G01*
G04 APERTURE LIST*
%TA.AperFunction,ComponentPad*%
%ADD10R,2.000000X2.000000*%
%TD*%
%TA.AperFunction,ComponentPad*%
%ADD11O,2.000000X2.000000*%
%TD*%
%TA.AperFunction,ComponentPad*%
%ADD12R,1.600000X1.600000*%
%TD*%
%TA.AperFunction,ComponentPad*%
%ADD13O,1.600000X1.600000*%
%TD*%
%TA.AperFunction,ComponentPad*%
%ADD14R,1.800000X1.800000*%
%TD*%
%TA.AperFunction,ComponentPad*%
%ADD15O,1.800000X1.800000*%
%TD*%
%TA.AperFunction,ComponentPad*%
%ADD16O,3.000000X2.000000*%
%TD*%
%TA.AperFunction,ComponentPad*%
%ADD17R,1.700000X1.700000*%
%TD*%
%TA.AperFunction,ComponentPad*%
%ADD18O,1.700000X1.700000*%
%TD*%
%TA.AperFunction,ComponentPad*%
%ADD19C,6.000000*%
%TD*%
%TA.AperFunction,ViaPad*%
%ADD20C,0.600000*%
%TD*%
%TA.AperFunction,Conductor*%
%ADD21C,0.250000*%
%TD*%
G04 APERTURE END LIST*
D10*
%TO.P,J3,1*%
%TO.N,+5V*%
X162000000Y-108000000D03*
D11*
%TO.P,J3,2*%
X168000000Y-108000000D03*
%TO.P,J3,3*%
%TO.N,GND*%
X165000000Y-113000000D03*
%TD*%
D12*
%TO.P,C4,1*%
%TO.N,+5V*%
X180000000Y-108000000D03*
D13*
%TO.P,C4,2*%
%TO.N,GND*%
X182000000Y-108000000D03*
%TD*%
D14*
%TO.P,J1,1*%
%TO.N,GND*%
X104500000Y-152000000D03*
D15*
%TO.P,J1,2*%
X111500000Y-152000000D03*
%TO.P,J1,3*%
%TO.N,IEC_ATN*%
X103000000Y-148000000D03*
%TO.P,J1,4*%
%TO.N,IEC_CLK*%
X108000000Y-144000000D03*
%TO.P,J1,5*%
%TO.N,IEC_DATA*%
X113000000Y-148000000D03*
%TO.P,J1,6*%
%TO.N,IEC_RESET*%
X108000000Y-148000000D03*
D16*
%TO.P,J1,SH*%
%TO.N,GND*%
X100500000Y-148000000D03*
X115500000Y-148000000D03*
%TD*%
D12*
%TO.P,R1,1*%
%TO.N,IEC_ATN*%
X122000000Y-122000000D03*
D13*
%TO.P,R1,2*%
%TO.N,NANO_D2*%
X132160000Y-122000000D03*
%TD*%
D12*
%TO.P,R2,1*%
%TO.N,IEC_CLK*%
X122000000Y-129000000D03*
D13*
%TO.P,R2,2*%
%TO.N,NANO_D3*%
X132160000Y-129000000D03*
%TD*%
D12*
%TO.P,R3,1*%
%TO.N,IEC_DATA*%
X122000000Y-136000000D03*
D13*
%TO.P,R3,2*%
%TO.N,NANO_D4*%
X132160000Y-136000000D03*
%TD*%
D12*
%TO.P,R4,1*%
%TO.N,IEC_RESET*%
X122000000Y-143000000D03*
D13*
%TO.P,R4,2*%
%TO.N,NANO_D5*%
X132160000Y-143000000D03*
%TD*%
D12*
%TO.P,R5,1*%
%TO.N,+5V*%
X140000000Y-122000000D03*
D13*
%TO.P,R5,2*%
%TO.N,NANO_D2*%
X150160000Y-122000000D03*
%TD*%
D12*
%TO.P,R6,1*%
%TO.N,+5V*%
X140000000Y-129000000D03*
D13*
%TO.P,R6,2*%
%TO.N,NANO_D3*%
X150160000Y-129000000D03*
%TD*%
D12*
%TO.P,R7,1*%
%TO.N,+5V*%
X140000000Y-136000000D03*
D13*
%TO.P,R7,2*%
%TO.N,NANO_D4*%
X150160000Y-136000000D03*
%TD*%
D17*
%TO.P,U1,1*%
%TO.N,N/C*%
X165000000Y-125000000D03*
D18*
%TO.P,U1,2*%
X167540000Y-125000000D03*
%TO.P,U1,3*%
X165000000Y-127540000D03*
%TO.P,U1,4*%
%TO.N,GND*%
X167540000Y-127540000D03*
%TO.P,U1,5*%
%TO.N,N/C*%
X165000000Y-130080000D03*
%TO.P,U1,6*%
X167540000Y-130080000D03*
%TO.P,U1,7*%
%TO.N,GND*%
X165000000Y-132620000D03*
%TO.P,U1,8*%
%TO.N,+5V*%
X167540000Y-132620000D03*
%TO.P,U1,9*%
%TO.N,NANO_D2*%
X165000000Y-135160000D03*
%TO.P,U1,10*%
%TO.N,N/C*%
X167540000Y-135160000D03*
%TO.P,U1,11*%
%TO.N,NANO_D3*%
X165000000Y-137700000D03*
%TO.P,U1,12*%
%TO.N,N/C*%
X167540000Y-137700000D03*
%TO.P,U1,13*%
%TO.N,NANO_D4*%
X165000000Y-140240000D03*
%TO.P,U1,14*%
%TO.N,LED_ANODE*%
X167540000Y-140240000D03*
%TO.P,U1,15*%
%TO.N,NANO_D5*%
X165000000Y-142780000D03*
%TO.P,U1,16*%
%TO.N,N/C*%
X167540000Y-142780000D03*
%TO.P,U1,17*%
%TO.N,LATCH_595*%
X165000000Y-145320000D03*
%TO.P,U1,18*%
%TO.N,N/C*%
X167540000Y-145320000D03*
%TO.P,U1,19*%
%TO.N,FLOPPY_WDATA*%
X165000000Y-147860000D03*
%TO.P,U1,20*%
%TO.N,FLOPPY_DSKCHG*%
X167540000Y-147860000D03*
%TO.P,U1,21*%
%TO.N,FLOPPY_RDATA*%
X165000000Y-150400000D03*
%TO.P,U1,22*%
%TO.N,FLOPPY_WPT*%
X167540000Y-150400000D03*
%TO.P,U1,23*%
%TO.N,N/C*%
X165000000Y-152940000D03*
%TO.P,U1,24*%
%TO.N,FLOPPY_TRK00*%
X167540000Y-152940000D03*
%TO.P,U1,25*%
%TO.N,SPI_CS_SRAM*%
X165000000Y-155480000D03*
%TO.P,U1,26*%
%TO.N,N/C*%
X167540000Y-155480000D03*
%TO.P,U1,27*%
%TO.N,SPI_MOSI*%
X165000000Y-158020000D03*
%TO.P,U1,28*%
%TO.N,N/C*%
X167540000Y-158020000D03*
%TO.P,U1,29*%
%TO.N,SPI_MISO*%
X165000000Y-160560000D03*
%TO.P,U1,30*%
%TO.N,SPI_SCK*%
X167540000Y-160560000D03*
%TD*%
D12*
%TO.P,U2,1*%
%TO.N,SPI_CS_SRAM*%
X128000000Y-172000000D03*
D13*
%TO.P,U2,2*%
%TO.N,SPI_MISO*%
X128000000Y-174540000D03*
%TO.P,U2,3*%
%TO.N,N/C*%
X128000000Y-177080000D03*
%TO.P,U2,4*%
%TO.N,GND*%
X128000000Y-179620000D03*
%TO.P,U2,5*%
%TO.N,SPI_MOSI*%
X135620000Y-179620000D03*
%TO.P,U2,6*%
%TO.N,SPI_SCK*%
X135620000Y-177080000D03*
%TO.P,U2,7*%
%TO.N,+5V*%
X135620000Y-174540000D03*
%TO.P,U2,8*%
X135620000Y-172000000D03*
%TD*%
D12*
%TO.P,U3,1*%
%TO.N,FLOPPY_DENSITY*%
X195000000Y-172000000D03*
D13*
%TO.P,U3,2*%
%TO.N,FLOPPY_MOTEA*%
X195000000Y-174540000D03*
%TO.P,U3,3*%
%TO.N,FLOPPY_DRVSEL*%
X195000000Y-177080000D03*
%TO.P,U3,4*%
%TO.N,FLOPPY_MOTOR*%
X195000000Y-179620000D03*
%TO.P,U3,5*%
%TO.N,FLOPPY_DIR*%
X195000000Y-182160000D03*
%TO.P,U3,6*%
%TO.N,FLOPPY_STEP*%
X195000000Y-184700000D03*
%TO.P,U3,7*%
%TO.N,FLOPPY_WGATE*%
X195000000Y-187240000D03*
%TO.P,U3,8*%
%TO.N,GND*%
X195000000Y-189780000D03*
%TO.P,U3,9*%
%TO.N,N/C*%
X202620000Y-189780000D03*
%TO.P,U3,10*%
%TO.N,+5V*%
X202620000Y-187240000D03*
%TO.P,U3,11*%
%TO.N,SPI_SCK*%
X202620000Y-184700000D03*
%TO.P,U3,12*%
%TO.N,LATCH_595*%
X202620000Y-182160000D03*
%TO.P,U3,13*%
%TO.N,GND*%
X202620000Y-179620000D03*
%TO.P,U3,14*%
%TO.N,SPI_MOSI*%
X202620000Y-177080000D03*
%TO.P,U3,15*%
%TO.N,FLOPPY_SIDE1*%
X202620000Y-174540000D03*
%TO.P,U3,16*%
%TO.N,+5V*%
X202620000Y-172000000D03*
%TD*%
D17*
%TO.P,J2,1*%
%TO.N,GND*%
X225000000Y-128000000D03*
D18*
%TO.P,J2,2*%
%TO.N,FLOPPY_DENSITY*%
X227540000Y-128000000D03*
%TO.P,J2,3*%
%TO.N,GND*%
X225000000Y-130540000D03*
%TO.P,J2,4*%
%TO.N,N/C*%
X227540000Y-130540000D03*
%TO.P,J2,5*%
%TO.N,GND*%
X225000000Y-133080000D03*
%TO.P,J2,6*%
%TO.N,N/C*%
X227540000Y-133080000D03*
%TO.P,J2,7*%
%TO.N,GND*%
X225000000Y-135620000D03*
%TO.P,J2,8*%
%TO.N,N/C*%
X227540000Y-135620000D03*
%TO.P,J2,9*%
%TO.N,GND*%
X225000000Y-138160000D03*
%TO.P,J2,10*%
%TO.N,FLOPPY_MOTEA*%
X227540000Y-138160000D03*
%TO.P,J2,11*%
%TO.N,GND*%
X225000000Y-140700000D03*
%TO.P,J2,12*%
%TO.N,FLOPPY_DRVSEL*%
X227540000Y-140700000D03*
%TO.P,J2,13*%
%TO.N,GND*%
X225000000Y-143240000D03*
%TO.P,J2,14*%
%TO.N,N/C*%
X227540000Y-143240000D03*
%TO.P,J2,15*%
%TO.N,GND*%
X225000000Y-145780000D03*
%TO.P,J2,16*%
%TO.N,FLOPPY_MOTOR*%
X227540000Y-145780000D03*
%TO.P,J2,17*%
%TO.N,GND*%
X225000000Y-148320000D03*
%TO.P,J2,18*%
%TO.N,FLOPPY_DIR*%
X227540000Y-148320000D03*
%TO.P,J2,19*%
%TO.N,GND*%
X225000000Y-150860000D03*
%TO.P,J2,20*%
%TO.N,FLOPPY_STEP*%
X227540000Y-150860000D03*
%TO.P,J2,21*%
%TO.N,GND*%
X225000000Y-153400000D03*
%TO.P,J2,22*%
%TO.N,FLOPPY_WDATA*%
X227540000Y-153400000D03*
%TO.P,J2,23*%
%TO.N,GND*%
X225000000Y-155940000D03*
%TO.P,J2,24*%
%TO.N,FLOPPY_WGATE*%
X227540000Y-155940000D03*
%TO.P,J2,25*%
%TO.N,GND*%
X225000000Y-158480000D03*
%TO.P,J2,26*%
%TO.N,FLOPPY_TRK00*%
X227540000Y-158480000D03*
%TO.P,J2,27*%
%TO.N,GND*%
X225000000Y-161020000D03*
%TO.P,J2,28*%
%TO.N,FLOPPY_WPT*%
X227540000Y-161020000D03*
%TO.P,J2,29*%
%TO.N,GND*%
X225000000Y-163560000D03*
%TO.P,J2,30*%
%TO.N,FLOPPY_RDATA*%
X227540000Y-163560000D03*
%TO.P,J2,31*%
%TO.N,GND*%
X225000000Y-166100000D03*
%TO.P,J2,32*%
%TO.N,FLOPPY_SIDE1*%
X227540000Y-166100000D03*
%TO.P,J2,33*%
%TO.N,GND*%
X225000000Y-168640000D03*
%TO.P,J2,34*%
%TO.N,FLOPPY_DSKCHG*%
X227540000Y-168640000D03*
%TD*%
D12*
%TO.P,R8,1*%
%TO.N,LED_ANODE*%
X126000000Y-198000000D03*
D13*
%TO.P,R8,2*%
%TO.N,LED_CATHODE*%
X136160000Y-198000000D03*
%TD*%
D12*
%TO.P,D1,1*%
%TO.N,LED_CATHODE*%
X115000000Y-198000000D03*
D13*
%TO.P,D1,2*%
%TO.N,GND*%
X117540000Y-198000000D03*
%TD*%
D12*
%TO.P,R9,1*%
%TO.N,+5V*%
X200000000Y-128000000D03*
D13*
%TO.P,R9,2*%
%TO.N,FLOPPY_TRK00*%
X210160000Y-128000000D03*
%TD*%
D12*
%TO.P,R10,1*%
%TO.N,+5V*%
X200000000Y-136000000D03*
D13*
%TO.P,R10,2*%
%TO.N,FLOPPY_WPT*%
X210160000Y-136000000D03*
%TD*%
D12*
%TO.P,R11,1*%
%TO.N,+5V*%
X200000000Y-144000000D03*
D13*
%TO.P,R11,2*%
%TO.N,FLOPPY_RDATA*%
X210160000Y-144000000D03*
%TD*%
D12*
%TO.P,R12,1*%
%TO.N,+5V*%
X200000000Y-152000000D03*
D13*
%TO.P,R12,2*%
%TO.N,FLOPPY_DSKCHG*%
X210160000Y-152000000D03*
%TD*%
D12*
%TO.P,C1,1*%
%TO.N,+5V*%
X155000000Y-198000000D03*
D13*
%TO.P,C1,2*%
%TO.N,GND*%
X160000000Y-198000000D03*
%TD*%
D12*
%TO.P,C2,1*%
%TO.N,+5V*%
X175000000Y-198000000D03*
D13*
%TO.P,C2,2*%
%TO.N,GND*%
X180000000Y-198000000D03*
%TD*%
D12*
%TO.P,C3,1*%
%TO.N,+5V*%
X195000000Y-198000000D03*
D13*
%TO.P,C3,2*%
%TO.N,GND*%
X200000000Y-198000000D03*
%TD*%
D19*
%TO.P,H1,1*%
%TO.N,N/C*%
X103000000Y-103000000D03*
%TD*%
%TO.P,H2,1*%
%TO.N,N/C*%
X237000000Y-103000000D03*
%TD*%
%TO.P,H3,1*%
%TO.N,N/C*%
X103000000Y-217000000D03*
%TD*%
%TO.P,H4,1*%
%TO.N,N/C*%
X237000000Y-217000000D03*
%TD*%
D20*
%TO.N,GND*%
X193038600Y-197363200D03*
X201908500Y-165817700D03*
%TO.N,SPI_MOSI*%
X161051500Y-175275800D03*
%TO.N,SPI_SCK*%
X170496900Y-181572400D03*
%TO.N,LATCH_595*%
X167017500Y-177590500D03*
%TO.N,IEC_ATN*%
X104374500Y-122047800D03*
%TO.N,FLOPPY_RDATA*%
X226270000Y-144580300D03*
%TO.N,FLOPPY_TRK00*%
X211762500Y-157066300D03*
%TO.N,FLOPPY_WPT*%
X213837900Y-159779200D03*
%TO.N,FLOPPY_DSKCHG*%
X220711500Y-153560900D03*
%TO.N,FLOPPY_DENSITY*%
X210489600Y-167364600D03*
%TO.N,FLOPPY_MOTEA*%
X230468800Y-168793500D03*
%TO.N,FLOPPY_DRVSEL*%
X229660500Y-171725300D03*
%TO.N,FLOPPY_MOTOR*%
X199107000Y-147270000D03*
%TO.N,FLOPPY_DIR*%
X197115200Y-147288300D03*
%TO.N,FLOPPY_STEP*%
X223694500Y-180520700D03*
%TO.N,FLOPPY_WGATE*%
X200567500Y-156344200D03*
%TO.N,LED_ANODE*%
X134328000Y-141908200D03*
%TD*%
D21*
%TO.N,GND*%
X225000000Y-128000000D02*
X225000000Y-130540000D01*
X119793400Y-196873300D02*
X155935400Y-196873300D01*
X181126700Y-196873300D02*
X162253400Y-196873300D01*
X200000000Y-198000000D02*
X198873300Y-198000000D01*
X225000000Y-166100000D02*
X223823300Y-166100000D01*
X201908500Y-165817700D02*
X223541000Y-165817700D01*
X165000000Y-113000000D02*
X178126700Y-113000000D01*
X178126700Y-113000000D02*
X182000000Y-109126700D01*
X181126700Y-198000000D02*
X181126700Y-196873300D01*
X225000000Y-128000000D02*
X223823300Y-128000000D01*
X197746600Y-196873300D02*
X193038600Y-196873300D01*
X193038600Y-196873300D02*
X181126700Y-196873300D01*
X118666700Y-198000000D02*
X119793400Y-196873300D01*
X182000000Y-108000000D02*
X182000000Y-109126700D01*
X156387200Y-197325100D02*
X156387200Y-197325200D01*
X158198500Y-197325200D02*
X158873300Y-198000000D01*
X117540000Y-198000000D02*
X118666700Y-198000000D01*
X180000000Y-198000000D02*
X181126700Y-198000000D01*
X225000000Y-166100000D02*
X225000000Y-163560000D01*
X222669500Y-126846200D02*
X223823300Y-128000000D01*
X155935400Y-196873300D02*
X156387200Y-197325100D01*
X223541000Y-165817700D02*
X223823300Y-166100000D01*
X160000000Y-198000000D02*
X161126700Y-198000000D01*
X162253400Y-196873300D02*
X161126700Y-198000000D01*
X156387200Y-197325200D02*
X158198500Y-197325200D01*
X160000000Y-198000000D02*
X158873300Y-198000000D01*
X198873300Y-198000000D02*
X197746600Y-196873300D01*
X167540000Y-127540000D02*
X168716700Y-127540000D01*
X169410500Y-126846200D02*
X222669500Y-126846200D01*
X168716700Y-127540000D02*
X169410500Y-126846200D01*
X193038600Y-196873300D02*
X193038600Y-197363200D01*
X111500000Y-152000000D02*
X104500000Y-152000000D01*
%TO.N,+5V*%
X141126700Y-122000000D02*
X142253400Y-123126700D01*
X192746600Y-199126700D02*
X177253400Y-199126700D01*
X154148600Y-123126700D02*
X162465200Y-131443300D01*
X168000000Y-108000000D02*
X162000000Y-108000000D01*
X177253400Y-199126700D02*
X176126700Y-198000000D01*
X180000000Y-108000000D02*
X168000000Y-108000000D01*
X167540000Y-132620000D02*
X166363300Y-132620000D01*
X157253400Y-199126700D02*
X156126700Y-198000000D01*
X142253400Y-123126700D02*
X154148600Y-123126700D01*
X162465200Y-131443300D02*
X165554400Y-131443300D01*
X140000000Y-122000000D02*
X141126700Y-122000000D01*
X175000000Y-198000000D02*
X176126700Y-198000000D01*
X200000000Y-136000000D02*
X198873300Y-136000000D01*
X173873300Y-198000000D02*
X172746600Y-199126700D01*
X166363300Y-132252200D02*
X166363300Y-132620000D01*
X172746600Y-199126700D02*
X157253400Y-199126700D01*
X165554400Y-131443300D02*
X166363300Y-132252200D01*
X155000000Y-198000000D02*
X156126700Y-198000000D01*
X195493300Y-132620000D02*
X198873300Y-136000000D01*
X193873300Y-198000000D02*
X192746600Y-199126700D01*
X167540000Y-132620000D02*
X195493300Y-132620000D01*
X195000000Y-198000000D02*
X193873300Y-198000000D01*
X175000000Y-198000000D02*
X173873300Y-198000000D01*
%TO.N,SPI_MOSI*%
X161051500Y-175953300D02*
X161051500Y-175275800D01*
X157384800Y-179620000D02*
X135620000Y-179620000D01*
X200366600Y-175953300D02*
X201493300Y-177080000D01*
X202620000Y-177080000D02*
X201493300Y-177080000D01*
X161051500Y-175953300D02*
X200366600Y-175953300D01*
X161051500Y-175953300D02*
X157384800Y-179620000D01*
%TO.N,SPI_MISO*%
X143106700Y-160560000D02*
X165000000Y-160560000D01*
X128000000Y-174540000D02*
X129126700Y-174540000D01*
X129126700Y-174540000D02*
X143106700Y-160560000D01*
%TO.N,SPI_SCK*%
X150211000Y-177080000D02*
X135620000Y-177080000D01*
X166363300Y-160927700D02*
X150211000Y-177080000D01*
X202620000Y-184700000D02*
X201493300Y-184700000D01*
X167540000Y-160560000D02*
X166363300Y-160560000D01*
X166363300Y-160560000D02*
X166363300Y-160927700D01*
X174751200Y-185826700D02*
X200366600Y-185826700D01*
X200366600Y-185826700D02*
X201493300Y-184700000D01*
X170496900Y-181572400D02*
X174751200Y-185826700D01*
%TO.N,SPI_CS_SRAM*%
X129126700Y-172000000D02*
X145646700Y-155480000D01*
X145646700Y-155480000D02*
X165000000Y-155480000D01*
X128000000Y-172000000D02*
X129126700Y-172000000D01*
%TO.N,LATCH_595*%
X170372700Y-180945700D02*
X167017500Y-177590500D01*
X200279000Y-180945700D02*
X170372700Y-180945700D01*
X202620000Y-182160000D02*
X201493300Y-182160000D01*
X201493300Y-182160000D02*
X200279000Y-180945700D01*
%TO.N,IEC_ATN*%
X122000000Y-122000000D02*
X104422300Y-122000000D01*
X104422300Y-122000000D02*
X104374500Y-122047800D01*
%TO.N,IEC_RESET*%
X122000000Y-143000000D02*
X114226700Y-143000000D01*
X114226700Y-143000000D02*
X109226700Y-148000000D01*
X108000000Y-148000000D02*
X109226700Y-148000000D01*
%TO.N,NANO_D2*%
X133286700Y-122000000D02*
X134413400Y-120873300D01*
X132160000Y-122000000D02*
X133286700Y-122000000D01*
X134413400Y-120873300D02*
X147906600Y-120873300D01*
X147906600Y-120873300D02*
X149033300Y-122000000D01*
X150160000Y-122000000D02*
X149033300Y-122000000D01*
%TO.N,NANO_D3*%
X159986700Y-137700000D02*
X151286700Y-129000000D01*
X147906600Y-127873300D02*
X134413400Y-127873300D01*
X165000000Y-137700000D02*
X159986700Y-137700000D01*
X150160000Y-129000000D02*
X149033300Y-129000000D01*
X150723400Y-129000000D02*
X151286700Y-129000000D01*
X132160000Y-129000000D02*
X133286700Y-129000000D01*
X134413400Y-127873300D02*
X133286700Y-129000000D01*
X149033300Y-129000000D02*
X147906600Y-127873300D01*
X150723400Y-129000000D02*
X150160000Y-129000000D01*
%TO.N,NANO_D4*%
X165000000Y-140240000D02*
X155526700Y-140240000D01*
X134413400Y-137126700D02*
X133286700Y-136000000D01*
X150723400Y-136000000D02*
X150160000Y-136000000D01*
X155526700Y-140240000D02*
X151286700Y-136000000D01*
X150160000Y-136000000D02*
X149033300Y-136000000D01*
X132160000Y-136000000D02*
X133286700Y-136000000D01*
X149033300Y-136000000D02*
X147906600Y-137126700D01*
X147906600Y-137126700D02*
X134413400Y-137126700D01*
X150723400Y-136000000D02*
X151286700Y-136000000D01*
%TO.N,NANO_D5*%
X163603300Y-143000000D02*
X132160000Y-143000000D01*
X163823300Y-142780000D02*
X163603300Y-143000000D01*
X165000000Y-142780000D02*
X163823300Y-142780000D01*
%TO.N,FLOPPY_WDATA*%
X222943600Y-152223300D02*
X225554400Y-152223300D01*
X166986500Y-146682500D02*
X194552200Y-146682500D01*
X166176700Y-147860000D02*
X166176700Y-147492300D01*
X194552200Y-146682500D02*
X195784700Y-147915000D01*
X166176700Y-147492300D02*
X166986500Y-146682500D01*
X197946200Y-148348400D02*
X219068700Y-148348400D01*
X226363300Y-153032200D02*
X226363300Y-153400000D01*
X225554400Y-152223300D02*
X226363300Y-153032200D01*
X195784700Y-147915000D02*
X197512800Y-147915000D01*
X219068700Y-148348400D02*
X222943600Y-152223300D01*
X227540000Y-153400000D02*
X226363300Y-153400000D01*
X165000000Y-147860000D02*
X166176700Y-147860000D01*
X197512800Y-147915000D02*
X197946200Y-148348400D01*
%TO.N,FLOPPY_RDATA*%
X164632300Y-149223300D02*
X163823100Y-148414100D01*
X163823100Y-148414100D02*
X163823100Y-144806000D01*
X211867000Y-144580300D02*
X211286700Y-144000000D01*
X164579100Y-144050000D02*
X196792600Y-144050000D01*
X165000000Y-149223300D02*
X164632300Y-149223300D01*
X207906600Y-142873300D02*
X209033300Y-144000000D01*
X165000000Y-150400000D02*
X165000000Y-149223300D01*
X210160000Y-144000000D02*
X211286700Y-144000000D01*
X163823100Y-144806000D02*
X164579100Y-144050000D01*
X210160000Y-144000000D02*
X209033300Y-144000000D01*
X196792600Y-144050000D02*
X197969300Y-142873300D01*
X226270000Y-144580300D02*
X211867000Y-144580300D01*
X197969300Y-142873300D02*
X207906600Y-142873300D01*
%TO.N,FLOPPY_TRK00*%
X191239100Y-149148400D02*
X199157000Y-157066300D01*
X166363300Y-150954400D02*
X166363300Y-149878800D01*
X226363300Y-158112200D02*
X226363300Y-158480000D01*
X199157000Y-157066300D02*
X211762500Y-157066300D01*
X167540000Y-151763300D02*
X167172200Y-151763300D01*
X166363300Y-149878800D02*
X167093700Y-149148400D01*
X225554400Y-157303300D02*
X226363300Y-158112200D01*
X211999500Y-157303300D02*
X225554400Y-157303300D01*
X227540000Y-158480000D02*
X226363300Y-158480000D01*
X167172200Y-151763300D02*
X166363300Y-150954400D01*
X167093700Y-149148400D02*
X191239100Y-149148400D01*
X211762500Y-157066300D02*
X211999500Y-157303300D01*
X167540000Y-152940000D02*
X167540000Y-151763300D01*
%TO.N,FLOPPY_WPT*%
X227540000Y-161020000D02*
X226363300Y-161020000D01*
X226363300Y-161020000D02*
X226363300Y-160652200D01*
X225490300Y-159779200D02*
X213837900Y-159779200D01*
X178095900Y-159779200D02*
X168716700Y-150400000D01*
X213837900Y-159779200D02*
X178095900Y-159779200D01*
X226363300Y-160652200D02*
X225490300Y-159779200D01*
X167540000Y-150400000D02*
X168716700Y-150400000D01*
%TO.N,FLOPPY_DSKCHG*%
X210160000Y-152000000D02*
X209033300Y-152000000D01*
X169223400Y-148366700D02*
X197250300Y-148366700D01*
X197683700Y-148800100D02*
X205833400Y-148800100D01*
X168716700Y-147860000D02*
X169223400Y-148366700D01*
X167540000Y-147860000D02*
X168716700Y-147860000D01*
X219150600Y-152000000D02*
X220711500Y-153560900D01*
X205833400Y-148800100D02*
X209033300Y-152000000D01*
X210160000Y-152000000D02*
X219150600Y-152000000D01*
X197250300Y-148366700D02*
X197683700Y-148800100D01*
%TO.N,FLOPPY_DENSITY*%
X200762100Y-167364600D02*
X196126700Y-172000000D01*
X210489600Y-167364600D02*
X200762100Y-167364600D01*
X195000000Y-172000000D02*
X196126700Y-172000000D01*
%TO.N,FLOPPY_MOTEA*%
X230468800Y-168793500D02*
X223586600Y-175675700D01*
X223586600Y-175675700D02*
X201667400Y-175675700D01*
X201667400Y-175675700D02*
X200531700Y-174540000D01*
X200531700Y-174540000D02*
X195000000Y-174540000D01*
%TO.N,FLOPPY_DRVSEL*%
X195000000Y-177080000D02*
X196126700Y-177080000D01*
X223115200Y-178270600D02*
X229660500Y-171725300D01*
X196126700Y-177080000D02*
X197317300Y-178270600D01*
X197317300Y-178270600D02*
X223115200Y-178270600D01*
%TO.N,FLOPPY_MOTOR*%
X199107000Y-147270000D02*
X199420300Y-146956700D01*
X225554400Y-146956700D02*
X226363300Y-146147800D01*
X226363300Y-146147800D02*
X226363300Y-145780000D01*
X199420300Y-146956700D02*
X225554400Y-146956700D01*
X227540000Y-145780000D02*
X226363300Y-145780000D01*
%TO.N,FLOPPY_DIR*%
X198284500Y-147896700D02*
X220859000Y-147896700D01*
X197115200Y-147288300D02*
X197676100Y-147288300D01*
X226363300Y-148687800D02*
X226363300Y-148320000D01*
X220859000Y-147896700D02*
X222459000Y-149496700D01*
X222459000Y-149496700D02*
X225554400Y-149496700D01*
X197676100Y-147288300D02*
X198284500Y-147896700D01*
X225554400Y-149496700D02*
X226363300Y-148687800D01*
X227540000Y-148320000D02*
X226363300Y-148320000D01*
%TO.N,FLOPPY_STEP*%
X197253400Y-183573300D02*
X196126700Y-184700000D01*
X220641900Y-183573300D02*
X197253400Y-183573300D01*
X195000000Y-184700000D02*
X196126700Y-184700000D01*
X223694500Y-180520700D02*
X220641900Y-183573300D01*
%TO.N,FLOPPY_WGATE*%
X225538000Y-154747000D02*
X202164700Y-154747000D01*
X202164700Y-154747000D02*
X200567500Y-156344200D01*
X226363300Y-155572300D02*
X225538000Y-154747000D01*
X226363300Y-155940000D02*
X226363300Y-155572300D01*
X227540000Y-155940000D02*
X226363300Y-155940000D01*
%TO.N,FLOPPY_SIDE1*%
X225554400Y-167276700D02*
X226363300Y-166467800D01*
X227540000Y-166100000D02*
X226363300Y-166100000D01*
X202620000Y-174540000D02*
X203746700Y-174540000D01*
X211463800Y-167276700D02*
X225554400Y-167276700D01*
X226363300Y-166467800D02*
X226363300Y-166100000D01*
X203746700Y-174540000D02*
X204200500Y-174540000D01*
X204200500Y-174540000D02*
X211463800Y-167276700D01*
%TO.N,LED_ANODE*%
X167540000Y-140240000D02*
X166363300Y-140240000D01*
X165554400Y-141416700D02*
X166363300Y-140607800D01*
X134819500Y-141416700D02*
X165554400Y-141416700D01*
X166363300Y-140607800D02*
X166363300Y-140240000D01*
X134328000Y-141908200D02*
X134819500Y-141416700D01*
%TO.N,LED_CATHODE*%
X135033300Y-198000000D02*
X133906600Y-199126700D01*
X116126700Y-198281800D02*
X116126700Y-198000000D01*
X136160000Y-198000000D02*
X135033300Y-198000000D01*
X133906600Y-199126700D02*
X116971600Y-199126700D01*
X115000000Y-198000000D02*
X116126700Y-198000000D01*
X116971600Y-199126700D02*
X116126700Y-198281800D01*
%TD*%
M02*
