%TF.GenerationSoftware,KiCad,Pcbnew,9.0.7*%
%TF.CreationDate,2026-03-09T23:54:03+02:00*%
%TF.ProjectId,64korppu-E,36346b6f-7270-4707-952d-452e6b696361,rev?*%
%TF.SameCoordinates,Original*%
%TF.FileFunction,Copper,L1,Top*%
%TF.FilePolarity,Positive*%
%FSLAX46Y46*%
G04 Gerber Fmt 4.6, Leading zero omitted, Abs format (unit mm)*
G04 Created by KiCad (PCBNEW 9.0.7) date 2026-03-09 23:54:03*
%MOMM*%
%LPD*%
G01*
G04 APERTURE LIST*
%TA.AperFunction,ComponentPad*%
%ADD10R,2.000000X2.000000*%
%TD*%
%TA.AperFunction,ComponentPad*%
%ADD11O,2.000000X2.000000*%
%TD*%
%TA.AperFunction,ComponentPad*%
%ADD12R,1.600000X1.600000*%
%TD*%
%TA.AperFunction,ComponentPad*%
%ADD13O,1.600000X1.600000*%
%TD*%
%TA.AperFunction,ComponentPad*%
%ADD14R,1.800000X1.800000*%
%TD*%
%TA.AperFunction,ComponentPad*%
%ADD15O,1.800000X1.800000*%
%TD*%
%TA.AperFunction,ComponentPad*%
%ADD16O,3.000000X2.000000*%
%TD*%
%TA.AperFunction,ComponentPad*%
%ADD17R,1.700000X1.700000*%
%TD*%
%TA.AperFunction,ComponentPad*%
%ADD18O,1.700000X1.700000*%
%TD*%
%TA.AperFunction,ComponentPad*%
%ADD19C,6.000000*%
%TD*%
%TA.AperFunction,ViaPad*%
%ADD20C,0.600000*%
%TD*%
%TA.AperFunction,Conductor*%
%ADD21C,0.250000*%
%TD*%
G04 APERTURE END LIST*
D10*
%TO.P,J3,1*%
%TO.N,+5V*%
X162000000Y-108000000D03*
D11*
%TO.P,J3,2*%
X168000000Y-108000000D03*
%TO.P,J3,3*%
%TO.N,GND*%
X165000000Y-113000000D03*
%TD*%
D12*
%TO.P,C4,1*%
%TO.N,+5V*%
X180000000Y-108000000D03*
D13*
%TO.P,C4,2*%
%TO.N,GND*%
X182000000Y-108000000D03*
%TD*%
D14*
%TO.P,J1,1*%
%TO.N,GND*%
X114500000Y-162000000D03*
D15*
%TO.P,J1,2*%
X121500000Y-162000000D03*
%TO.P,J1,3*%
%TO.N,IEC_ATN*%
X113000000Y-158000000D03*
%TO.P,J1,4*%
%TO.N,IEC_CLK*%
X118000000Y-154000000D03*
%TO.P,J1,5*%
%TO.N,IEC_DATA*%
X123000000Y-158000000D03*
%TO.P,J1,6*%
%TO.N,IEC_RESET*%
X118000000Y-158000000D03*
D16*
%TO.P,J1,SH*%
%TO.N,GND*%
X110500000Y-158000000D03*
X125500000Y-158000000D03*
%TD*%
D12*
%TO.P,R1,1*%
%TO.N,IEC_ATN*%
X122000000Y-122000000D03*
D13*
%TO.P,R1,2*%
%TO.N,NANO_D2*%
X132160000Y-122000000D03*
%TD*%
D12*
%TO.P,R2,1*%
%TO.N,IEC_CLK*%
X122000000Y-129000000D03*
D13*
%TO.P,R2,2*%
%TO.N,NANO_D3*%
X132160000Y-129000000D03*
%TD*%
D12*
%TO.P,R3,1*%
%TO.N,IEC_DATA*%
X122000000Y-136000000D03*
D13*
%TO.P,R3,2*%
%TO.N,NANO_D4*%
X132160000Y-136000000D03*
%TD*%
D12*
%TO.P,R4,1*%
%TO.N,IEC_RESET*%
X122000000Y-143000000D03*
D13*
%TO.P,R4,2*%
%TO.N,NANO_D5*%
X132160000Y-143000000D03*
%TD*%
D12*
%TO.P,R5,1*%
%TO.N,+5V*%
X140000000Y-122000000D03*
D13*
%TO.P,R5,2*%
%TO.N,NANO_D2*%
X150160000Y-122000000D03*
%TD*%
D12*
%TO.P,R6,1*%
%TO.N,+5V*%
X140000000Y-129000000D03*
D13*
%TO.P,R6,2*%
%TO.N,NANO_D3*%
X150160000Y-129000000D03*
%TD*%
D12*
%TO.P,R7,1*%
%TO.N,+5V*%
X140000000Y-136000000D03*
D13*
%TO.P,R7,2*%
%TO.N,NANO_D4*%
X150160000Y-136000000D03*
%TD*%
D17*
%TO.P,U1,1*%
%TO.N,N/C*%
X165000000Y-125000000D03*
D18*
%TO.P,U1,2*%
X167540000Y-125000000D03*
%TO.P,U1,3*%
X165000000Y-127540000D03*
%TO.P,U1,4*%
%TO.N,GND*%
X167540000Y-127540000D03*
%TO.P,U1,5*%
%TO.N,N/C*%
X165000000Y-130080000D03*
%TO.P,U1,6*%
X167540000Y-130080000D03*
%TO.P,U1,7*%
%TO.N,GND*%
X165000000Y-132620000D03*
%TO.P,U1,8*%
%TO.N,+5V*%
X167540000Y-132620000D03*
%TO.P,U1,9*%
%TO.N,NANO_D2*%
X165000000Y-135160000D03*
%TO.P,U1,10*%
%TO.N,N/C*%
X167540000Y-135160000D03*
%TO.P,U1,11*%
%TO.N,NANO_D3*%
X165000000Y-137700000D03*
%TO.P,U1,12*%
%TO.N,N/C*%
X167540000Y-137700000D03*
%TO.P,U1,13*%
%TO.N,NANO_D4*%
X165000000Y-140240000D03*
%TO.P,U1,14*%
%TO.N,LED_ANODE*%
X167540000Y-140240000D03*
%TO.P,U1,15*%
%TO.N,NANO_D5*%
X165000000Y-142780000D03*
%TO.P,U1,16*%
%TO.N,N/C*%
X167540000Y-142780000D03*
%TO.P,U1,17*%
%TO.N,LATCH_595*%
X165000000Y-145320000D03*
%TO.P,U1,18*%
%TO.N,N/C*%
X167540000Y-145320000D03*
%TO.P,U1,19*%
%TO.N,FLOPPY_WDATA*%
X165000000Y-147860000D03*
%TO.P,U1,20*%
%TO.N,FLOPPY_DSKCHG*%
X167540000Y-147860000D03*
%TO.P,U1,21*%
%TO.N,FLOPPY_RDATA*%
X165000000Y-150400000D03*
%TO.P,U1,22*%
%TO.N,FLOPPY_WPT*%
X167540000Y-150400000D03*
%TO.P,U1,23*%
%TO.N,N/C*%
X165000000Y-152940000D03*
%TO.P,U1,24*%
%TO.N,FLOPPY_TRK00*%
X167540000Y-152940000D03*
%TO.P,U1,25*%
%TO.N,SPI_CS_SRAM*%
X165000000Y-155480000D03*
%TO.P,U1,26*%
%TO.N,N/C*%
X167540000Y-155480000D03*
%TO.P,U1,27*%
%TO.N,SPI_MOSI*%
X165000000Y-158020000D03*
%TO.P,U1,28*%
%TO.N,N/C*%
X167540000Y-158020000D03*
%TO.P,U1,29*%
%TO.N,SPI_MISO*%
X165000000Y-160560000D03*
%TO.P,U1,30*%
%TO.N,SPI_SCK*%
X167540000Y-160560000D03*
%TD*%
D12*
%TO.P,U2,1*%
%TO.N,SPI_CS_SRAM*%
X128000000Y-172000000D03*
D13*
%TO.P,U2,2*%
%TO.N,SPI_MISO*%
X128000000Y-174540000D03*
%TO.P,U2,3*%
%TO.N,N/C*%
X128000000Y-177080000D03*
%TO.P,U2,4*%
%TO.N,GND*%
X128000000Y-179620000D03*
%TO.P,U2,5*%
%TO.N,SPI_MOSI*%
X135620000Y-179620000D03*
%TO.P,U2,6*%
%TO.N,SPI_SCK*%
X135620000Y-177080000D03*
%TO.P,U2,7*%
%TO.N,+5V*%
X135620000Y-174540000D03*
%TO.P,U2,8*%
X135620000Y-172000000D03*
%TD*%
D12*
%TO.P,U3,1*%
%TO.N,FLOPPY_DENSITY*%
X195000000Y-172000000D03*
D13*
%TO.P,U3,2*%
%TO.N,FLOPPY_MOTEA*%
X195000000Y-174540000D03*
%TO.P,U3,3*%
%TO.N,FLOPPY_DRVSEL*%
X195000000Y-177080000D03*
%TO.P,U3,4*%
%TO.N,FLOPPY_MOTOR*%
X195000000Y-179620000D03*
%TO.P,U3,5*%
%TO.N,FLOPPY_DIR*%
X195000000Y-182160000D03*
%TO.P,U3,6*%
%TO.N,FLOPPY_STEP*%
X195000000Y-184700000D03*
%TO.P,U3,7*%
%TO.N,FLOPPY_WGATE*%
X195000000Y-187240000D03*
%TO.P,U3,8*%
%TO.N,GND*%
X195000000Y-189780000D03*
%TO.P,U3,9*%
%TO.N,N/C*%
X202620000Y-189780000D03*
%TO.P,U3,10*%
%TO.N,+5V*%
X202620000Y-187240000D03*
%TO.P,U3,11*%
%TO.N,SPI_SCK*%
X202620000Y-184700000D03*
%TO.P,U3,12*%
%TO.N,LATCH_595*%
X202620000Y-182160000D03*
%TO.P,U3,13*%
%TO.N,GND*%
X202620000Y-179620000D03*
%TO.P,U3,14*%
%TO.N,SPI_MOSI*%
X202620000Y-177080000D03*
%TO.P,U3,15*%
%TO.N,FLOPPY_SIDE1*%
X202620000Y-174540000D03*
%TO.P,U3,16*%
%TO.N,+5V*%
X202620000Y-172000000D03*
%TD*%
D17*
%TO.P,J2,1*%
%TO.N,GND*%
X225000000Y-128000000D03*
D18*
%TO.P,J2,2*%
%TO.N,FLOPPY_DENSITY*%
X227540000Y-128000000D03*
%TO.P,J2,3*%
%TO.N,GND*%
X225000000Y-130540000D03*
%TO.P,J2,4*%
%TO.N,N/C*%
X227540000Y-130540000D03*
%TO.P,J2,5*%
%TO.N,GND*%
X225000000Y-133080000D03*
%TO.P,J2,6*%
%TO.N,N/C*%
X227540000Y-133080000D03*
%TO.P,J2,7*%
%TO.N,GND*%
X225000000Y-135620000D03*
%TO.P,J2,8*%
%TO.N,N/C*%
X227540000Y-135620000D03*
%TO.P,J2,9*%
%TO.N,GND*%
X225000000Y-138160000D03*
%TO.P,J2,10*%
%TO.N,FLOPPY_MOTEA*%
X227540000Y-138160000D03*
%TO.P,J2,11*%
%TO.N,GND*%
X225000000Y-140700000D03*
%TO.P,J2,12*%
%TO.N,FLOPPY_DRVSEL*%
X227540000Y-140700000D03*
%TO.P,J2,13*%
%TO.N,GND*%
X225000000Y-143240000D03*
%TO.P,J2,14*%
%TO.N,N/C*%
X227540000Y-143240000D03*
%TO.P,J2,15*%
%TO.N,GND*%
X225000000Y-145780000D03*
%TO.P,J2,16*%
%TO.N,FLOPPY_MOTOR*%
X227540000Y-145780000D03*
%TO.P,J2,17*%
%TO.N,GND*%
X225000000Y-148320000D03*
%TO.P,J2,18*%
%TO.N,FLOPPY_DIR*%
X227540000Y-148320000D03*
%TO.P,J2,19*%
%TO.N,GND*%
X225000000Y-150860000D03*
%TO.P,J2,20*%
%TO.N,FLOPPY_STEP*%
X227540000Y-150860000D03*
%TO.P,J2,21*%
%TO.N,GND*%
X225000000Y-153400000D03*
%TO.P,J2,22*%
%TO.N,FLOPPY_WDATA*%
X227540000Y-153400000D03*
%TO.P,J2,23*%
%TO.N,GND*%
X225000000Y-155940000D03*
%TO.P,J2,24*%
%TO.N,FLOPPY_WGATE*%
X227540000Y-155940000D03*
%TO.P,J2,25*%
%TO.N,GND*%
X225000000Y-158480000D03*
%TO.P,J2,26*%
%TO.N,FLOPPY_TRK00*%
X227540000Y-158480000D03*
%TO.P,J2,27*%
%TO.N,GND*%
X225000000Y-161020000D03*
%TO.P,J2,28*%
%TO.N,FLOPPY_WPT*%
X227540000Y-161020000D03*
%TO.P,J2,29*%
%TO.N,GND*%
X225000000Y-163560000D03*
%TO.P,J2,30*%
%TO.N,FLOPPY_RDATA*%
X227540000Y-163560000D03*
%TO.P,J2,31*%
%TO.N,GND*%
X225000000Y-166100000D03*
%TO.P,J2,32*%
%TO.N,FLOPPY_SIDE1*%
X227540000Y-166100000D03*
%TO.P,J2,33*%
%TO.N,GND*%
X225000000Y-168640000D03*
%TO.P,J2,34*%
%TO.N,FLOPPY_DSKCHG*%
X227540000Y-168640000D03*
%TD*%
D12*
%TO.P,R8,1*%
%TO.N,LED_ANODE*%
X126000000Y-198000000D03*
D13*
%TO.P,R8,2*%
%TO.N,LED_CATHODE*%
X136160000Y-198000000D03*
%TD*%
D12*
%TO.P,D1,1*%
%TO.N,LED_CATHODE*%
X115000000Y-198000000D03*
D13*
%TO.P,D1,2*%
%TO.N,GND*%
X117540000Y-198000000D03*
%TD*%
D12*
%TO.P,R9,1*%
%TO.N,+5V*%
X200000000Y-128000000D03*
D13*
%TO.P,R9,2*%
%TO.N,FLOPPY_TRK00*%
X210160000Y-128000000D03*
%TD*%
D12*
%TO.P,R10,1*%
%TO.N,+5V*%
X200000000Y-136000000D03*
D13*
%TO.P,R10,2*%
%TO.N,FLOPPY_WPT*%
X210160000Y-136000000D03*
%TD*%
D12*
%TO.P,R11,1*%
%TO.N,+5V*%
X200000000Y-144000000D03*
D13*
%TO.P,R11,2*%
%TO.N,FLOPPY_RDATA*%
X210160000Y-144000000D03*
%TD*%
D12*
%TO.P,R12,1*%
%TO.N,+5V*%
X200000000Y-152000000D03*
D13*
%TO.P,R12,2*%
%TO.N,FLOPPY_DSKCHG*%
X210160000Y-152000000D03*
%TD*%
D12*
%TO.P,C1,1*%
%TO.N,+5V*%
X155000000Y-198000000D03*
D13*
%TO.P,C1,2*%
%TO.N,GND*%
X160000000Y-198000000D03*
%TD*%
D12*
%TO.P,C2,1*%
%TO.N,+5V*%
X175000000Y-198000000D03*
D13*
%TO.P,C2,2*%
%TO.N,GND*%
X180000000Y-198000000D03*
%TD*%
D12*
%TO.P,C3,1*%
%TO.N,+5V*%
X195000000Y-198000000D03*
D13*
%TO.P,C3,2*%
%TO.N,GND*%
X200000000Y-198000000D03*
%TD*%
D19*
%TO.P,H1,1*%
%TO.N,N/C*%
X103000000Y-103000000D03*
%TD*%
%TO.P,H2,1*%
%TO.N,N/C*%
X237000000Y-103000000D03*
%TD*%
%TO.P,H3,1*%
%TO.N,N/C*%
X103000000Y-217000000D03*
%TD*%
%TO.P,H4,1*%
%TO.N,N/C*%
X237000000Y-217000000D03*
%TD*%
D20*
%TO.N,+5V*%
X104092000Y-121915000D03*
X143154000Y-113089000D03*
%TO.N,SPI_MOSI*%
X104242000Y-136750000D03*
X164034000Y-178694000D03*
X128238000Y-137375000D03*
X163759000Y-180796000D03*
%TO.N,SPI_MISO*%
X104753000Y-168794000D03*
%TO.N,SPI_SCK*%
X105705000Y-174657000D03*
%TO.N,SPI_CS_SRAM*%
X103755000Y-154134000D03*
%TO.N,LATCH_595*%
X167018000Y-180521000D03*
%TO.N,IEC_CLK*%
X104888000Y-127668000D03*
%TO.N,IEC_DATA*%
X101130000Y-130680000D03*
%TO.N,FLOPPY_WDATA*%
X108166000Y-143141000D03*
%TO.N,FLOPPY_RDATA*%
X211762000Y-160772000D03*
X107358000Y-148271000D03*
X163346000Y-145339000D03*
%TO.N,FLOPPY_TRK00*%
X212571000Y-157066000D03*
%TO.N,FLOPPY_WPT*%
X212975000Y-136544000D03*
X222627000Y-157980000D03*
X220629000Y-153736000D03*
%TO.N,FLOPPY_DSKCHG*%
X223176000Y-154126000D03*
%TO.N,FLOPPY_DENSITY*%
X197292000Y-133298000D03*
%TO.N,FLOPPY_MOTEA*%
X196848000Y-139476000D03*
%TO.N,FLOPPY_DRVSEL*%
X225691000Y-171725000D03*
%TO.N,FLOPPY_MOTOR*%
X101917000Y-121915000D03*
X199107000Y-142071000D03*
%TO.N,FLOPPY_DIR*%
X229660000Y-177589000D03*
%TO.N,FLOPPY_STEP*%
X223694000Y-184189000D03*
X104374000Y-180521000D03*
%TO.N,FLOPPY_WGATE*%
X196848000Y-156271000D03*
%TO.N,FLOPPY_SIDE1*%
X105753000Y-151155000D03*
%TO.N,LED_ANODE*%
X167018000Y-192248000D03*
%TD*%
D21*
%TO.N,+5V*%
X140000000Y-122000000D02*
X138873000Y-122000000D01*
X200000000Y-136000000D02*
X198873000Y-136000000D01*
X143154000Y-113089000D02*
X148243000Y-108000000D01*
X156127000Y-198000000D02*
X157253000Y-196873000D01*
X192747000Y-199127000D02*
X177253000Y-199127000D01*
X195000000Y-198000000D02*
X193873000Y-198000000D01*
X195493000Y-132620000D02*
X198873000Y-136000000D01*
X167540000Y-132620000D02*
X195493000Y-132620000D01*
X180000000Y-108000000D02*
X168000000Y-108000000D01*
X176127000Y-198000000D02*
X175000000Y-198000000D01*
X105304000Y-123127000D02*
X137747000Y-123127000D01*
X155000000Y-198000000D02*
X156127000Y-198000000D01*
X148243000Y-108000000D02*
X162000000Y-108000000D01*
X157253000Y-196873000D02*
X172747000Y-196873000D01*
X175000000Y-198000000D02*
X173873000Y-198000000D01*
X193873000Y-198000000D02*
X192747000Y-199127000D01*
X137747000Y-123127000D02*
X138873000Y-122000000D01*
X104092000Y-121915000D02*
X105304000Y-123127000D01*
X172747000Y-196873000D02*
X173873000Y-198000000D01*
X177253000Y-199127000D02*
X176127000Y-198000000D01*
X162000000Y-108000000D02*
X168000000Y-108000000D01*
%TO.N,SPI_MOSI*%
X135620000Y-179620000D02*
X136747000Y-179620000D01*
X137923000Y-180796000D02*
X136747000Y-179620000D01*
X201493000Y-177080000D02*
X200367000Y-178207000D01*
X202620000Y-177080000D02*
X201493000Y-177080000D01*
X163759000Y-180796000D02*
X137923000Y-180796000D01*
X200367000Y-178207000D02*
X164522000Y-178207000D01*
X164522000Y-178207000D02*
X164034000Y-178694000D01*
X104242000Y-136750000D02*
X104867000Y-137375000D01*
X104867000Y-137375000D02*
X128238000Y-137375000D01*
%TO.N,SPI_MISO*%
X128000000Y-174540000D02*
X129127000Y-174540000D01*
X110499000Y-174540000D02*
X104753000Y-168794000D01*
X128000000Y-174540000D02*
X110499000Y-174540000D01*
X129127000Y-174540000D02*
X143107000Y-160560000D01*
X143107000Y-160560000D02*
X165000000Y-160560000D01*
%TO.N,SPI_SCK*%
X166363000Y-160928000D02*
X166363000Y-160560000D01*
X105705000Y-174657000D02*
X107001000Y-175953000D01*
X133367000Y-175953000D02*
X134493000Y-177080000D01*
X200367000Y-183573000D02*
X168018000Y-183573000D01*
X167540000Y-160560000D02*
X166363000Y-160560000D01*
X202620000Y-184700000D02*
X201493000Y-184700000D01*
X135620000Y-177080000D02*
X134493000Y-177080000D01*
X201493000Y-184700000D02*
X200367000Y-183573000D01*
X135620000Y-177080000D02*
X150211000Y-177080000D01*
X150211000Y-177080000D02*
X155868000Y-171423000D01*
X107001000Y-175953000D02*
X133367000Y-175953000D01*
X168018000Y-183573000D02*
X155868000Y-171423000D01*
X155868000Y-171423000D02*
X166363000Y-160928000D01*
%TO.N,SPI_CS_SRAM*%
X165000000Y-155480000D02*
X145647000Y-155480000D01*
X129127000Y-172000000D02*
X111261000Y-154134000D01*
X145647000Y-155480000D02*
X129127000Y-172000000D01*
X128000000Y-172000000D02*
X129127000Y-172000000D01*
X111261000Y-154134000D02*
X103755000Y-154134000D01*
%TO.N,LATCH_595*%
X201493000Y-182160000D02*
X200365000Y-181032000D01*
X200365000Y-181032000D02*
X167529000Y-181032000D01*
X167529000Y-181032000D02*
X167018000Y-180521000D01*
X202620000Y-182160000D02*
X201493000Y-182160000D01*
%TO.N,IEC_CLK*%
X104888000Y-127668000D02*
X119542000Y-127668000D01*
X122000000Y-129000000D02*
X120873000Y-129000000D01*
X119542000Y-127668000D02*
X120873000Y-129000000D01*
%TO.N,IEC_DATA*%
X106450000Y-136000000D02*
X101130000Y-130680000D01*
X122000000Y-136000000D02*
X106450000Y-136000000D01*
%TO.N,NANO_D2*%
X149033000Y-122000000D02*
X150160000Y-122000000D01*
X165000000Y-135160000D02*
X163823000Y-135160000D01*
X132160000Y-122000000D02*
X133287000Y-122000000D01*
X151287000Y-122623000D02*
X151287000Y-122000000D01*
X147907000Y-120873000D02*
X149033000Y-122000000D01*
X134413000Y-120873000D02*
X147907000Y-120873000D01*
X150160000Y-122000000D02*
X151287000Y-122000000D01*
X133287000Y-122000000D02*
X134413000Y-120873000D01*
X163823000Y-135160000D02*
X151287000Y-122623000D01*
%TO.N,NANO_D3*%
X147907000Y-130127000D02*
X149033000Y-129000000D01*
X150160000Y-129000000D02*
X151287000Y-129000000D01*
X132160000Y-129000000D02*
X133287000Y-129000000D01*
X134413000Y-130127000D02*
X147907000Y-130127000D01*
X133287000Y-129000000D02*
X134413000Y-130127000D01*
X150160000Y-129000000D02*
X149033000Y-129000000D01*
X159987000Y-137700000D02*
X151287000Y-129000000D01*
X165000000Y-137700000D02*
X159987000Y-137700000D01*
%TO.N,NANO_D4*%
X133287000Y-136000000D02*
X134413000Y-134873000D01*
X155527000Y-140240000D02*
X151287000Y-136000000D01*
X165000000Y-140240000D02*
X155527000Y-140240000D01*
X151287000Y-136000000D02*
X150160000Y-136000000D01*
X147907000Y-134873000D02*
X149033000Y-136000000D01*
X132160000Y-136000000D02*
X133287000Y-136000000D01*
X150160000Y-136000000D02*
X149033000Y-136000000D01*
X134413000Y-134873000D02*
X147907000Y-134873000D01*
%TO.N,NANO_D5*%
X133507000Y-142780000D02*
X133287000Y-143000000D01*
X165000000Y-142780000D02*
X133507000Y-142780000D01*
X133287000Y-143000000D02*
X132160000Y-143000000D01*
%TO.N,FLOPPY_WDATA*%
X166177000Y-147492000D02*
X167024000Y-146645000D01*
X225554000Y-152223000D02*
X226363000Y-153032000D01*
X222446000Y-152223000D02*
X225554000Y-152223000D01*
X108166000Y-143141000D02*
X112885000Y-147860000D01*
X226363000Y-153032000D02*
X226363000Y-153400000D01*
X226363000Y-153400000D02*
X227540000Y-153400000D01*
X216868000Y-146645000D02*
X222446000Y-152223000D01*
X166177000Y-147860000D02*
X166177000Y-147492000D01*
X112885000Y-147860000D02*
X165000000Y-147860000D01*
X167024000Y-146645000D02*
X216868000Y-146645000D01*
X165000000Y-147860000D02*
X166177000Y-147860000D01*
%TO.N,FLOPPY_RDATA*%
X163346000Y-145339000D02*
X163346000Y-145264000D01*
X192287000Y-144117000D02*
X193296000Y-145127000D01*
X193296000Y-145127000D02*
X207907000Y-145127000D01*
X164493000Y-144117000D02*
X192287000Y-144117000D01*
X213374000Y-162383000D02*
X225554000Y-162383000D01*
X207907000Y-145127000D02*
X209033000Y-144000000D01*
X226363000Y-163192000D02*
X226363000Y-163560000D01*
X225554000Y-162383000D02*
X226363000Y-163192000D01*
X210160000Y-144000000D02*
X209033000Y-144000000D01*
X211762000Y-160772000D02*
X213374000Y-162383000D01*
X107358000Y-148271000D02*
X109487000Y-150400000D01*
X163346000Y-145264000D02*
X164493000Y-144117000D01*
X226363000Y-163560000D02*
X227540000Y-163560000D01*
X109487000Y-150400000D02*
X165000000Y-150400000D01*
%TO.N,FLOPPY_TRK00*%
X226363000Y-158112000D02*
X225554000Y-157303000D01*
X227540000Y-158480000D02*
X226363000Y-158480000D01*
X167540000Y-152940000D02*
X168717000Y-152940000D01*
X226363000Y-158480000D02*
X226363000Y-158112000D01*
X168717000Y-152940000D02*
X172843000Y-157066000D01*
X212808000Y-157303000D02*
X212571000Y-157066000D01*
X225554000Y-157303000D02*
X212808000Y-157303000D01*
X172843000Y-157066000D02*
X212571000Y-157066000D01*
%TO.N,FLOPPY_WPT*%
X172053000Y-153736000D02*
X168717000Y-150400000D01*
X225554000Y-159843000D02*
X224490000Y-159843000D01*
X226363000Y-160652000D02*
X225554000Y-159843000D01*
X224490000Y-159843000D02*
X222627000Y-157980000D01*
X167540000Y-150400000D02*
X168717000Y-150400000D01*
X220629000Y-153736000D02*
X172053000Y-153736000D01*
X210160000Y-136000000D02*
X212431000Y-136000000D01*
X212431000Y-136000000D02*
X212975000Y-136544000D01*
X226363000Y-161020000D02*
X226363000Y-160652000D01*
X227540000Y-161020000D02*
X226363000Y-161020000D01*
%TO.N,FLOPPY_DSKCHG*%
X210160000Y-152000000D02*
X211287000Y-152000000D01*
X210160000Y-152000000D02*
X209033000Y-152000000D01*
X168717000Y-147860000D02*
X204893000Y-147860000D01*
X204893000Y-147860000D02*
X209033000Y-152000000D01*
X221050000Y-152000000D02*
X211287000Y-152000000D01*
X223176000Y-154126000D02*
X221050000Y-152000000D01*
X167540000Y-147860000D02*
X168717000Y-147860000D01*
%TO.N,FLOPPY_DENSITY*%
X227540000Y-128000000D02*
X226363000Y-128000000D01*
X226363000Y-128809000D02*
X225996000Y-129177000D01*
X226363000Y-128000000D02*
X226363000Y-128809000D01*
X201414000Y-129177000D02*
X197292000Y-133298000D01*
X225996000Y-129177000D02*
X201414000Y-129177000D01*
%TO.N,FLOPPY_MOTEA*%
X226363000Y-138528000D02*
X225416000Y-139476000D01*
X226363000Y-138160000D02*
X226363000Y-138528000D01*
X225416000Y-139476000D02*
X196848000Y-139476000D01*
X227540000Y-138160000D02*
X226363000Y-138160000D01*
%TO.N,FLOPPY_DRVSEL*%
X195000000Y-177080000D02*
X196127000Y-177080000D01*
X225691000Y-171725000D02*
X221463000Y-175953000D01*
X197253000Y-175953000D02*
X196127000Y-177080000D01*
X221463000Y-175953000D02*
X197253000Y-175953000D01*
%TO.N,FLOPPY_MOTOR*%
X219977000Y-142071000D02*
X199107000Y-142071000D01*
X104043000Y-124041000D02*
X101917000Y-121915000D01*
X226363000Y-145780000D02*
X226363000Y-145412000D01*
X150560000Y-132648000D02*
X130008000Y-132648000D01*
X156882000Y-138970000D02*
X150560000Y-132648000D01*
X130008000Y-132648000D02*
X121400000Y-124041000D01*
X225554000Y-144603000D02*
X222509000Y-144603000D01*
X227540000Y-145780000D02*
X226363000Y-145780000D01*
X222509000Y-144603000D02*
X219977000Y-142071000D01*
X199107000Y-142071000D02*
X173325000Y-142071000D01*
X226363000Y-145412000D02*
X225554000Y-144603000D01*
X170224000Y-138970000D02*
X156882000Y-138970000D01*
X173325000Y-142071000D02*
X170224000Y-138970000D01*
X121400000Y-124041000D02*
X104043000Y-124041000D01*
%TO.N,FLOPPY_DIR*%
X195000000Y-182160000D02*
X199998000Y-182160000D01*
X201172000Y-183334000D02*
X223915000Y-183334000D01*
X199998000Y-182160000D02*
X201172000Y-183334000D01*
X223915000Y-183334000D02*
X229660000Y-177589000D01*
%TO.N,FLOPPY_STEP*%
X196127000Y-184700000D02*
X197317000Y-185891000D01*
X108554000Y-184700000D02*
X195000000Y-184700000D01*
X104374000Y-180521000D02*
X108554000Y-184700000D01*
X221993000Y-185891000D02*
X223694000Y-184189000D01*
X197317000Y-185891000D02*
X221993000Y-185891000D01*
X195000000Y-184700000D02*
X196127000Y-184700000D01*
%TO.N,FLOPPY_WGATE*%
X196848000Y-156271000D02*
X198355000Y-154763000D01*
X198355000Y-154763000D02*
X225554000Y-154763000D01*
X226363000Y-155572000D02*
X226363000Y-155940000D01*
X226363000Y-155940000D02*
X227540000Y-155940000D01*
X225554000Y-154763000D02*
X226363000Y-155572000D01*
%TO.N,FLOPPY_SIDE1*%
X225554000Y-167277000D02*
X226363000Y-166468000D01*
X205253000Y-173034000D02*
X191424000Y-159206000D01*
X202620000Y-174540000D02*
X203747000Y-174540000D01*
X161363000Y-151203000D02*
X105917000Y-151203000D01*
X166270000Y-154982000D02*
X165498000Y-154210000D01*
X105917000Y-151203000D02*
X105869000Y-151155000D01*
X191424000Y-159206000D02*
X167025000Y-159206000D01*
X164370000Y-154210000D02*
X161363000Y-151203000D01*
X105869000Y-151155000D02*
X105753000Y-151155000D01*
X226363000Y-166468000D02*
X226363000Y-166100000D01*
X203747000Y-174540000D02*
X205253000Y-173034000D01*
X165498000Y-154210000D02*
X164370000Y-154210000D01*
X167025000Y-159206000D02*
X166270000Y-158451000D01*
X166270000Y-158451000D02*
X166270000Y-154982000D01*
X211010000Y-167277000D02*
X225554000Y-167277000D01*
X205253000Y-173034000D02*
X211010000Y-167277000D01*
X227540000Y-166100000D02*
X226363000Y-166100000D01*
%TO.N,LED_ANODE*%
X126000000Y-198000000D02*
X127127000Y-198000000D01*
X132879000Y-192248000D02*
X127127000Y-198000000D01*
X167018000Y-192248000D02*
X132879000Y-192248000D01*
%TO.N,LED_CATHODE*%
X136160000Y-198000000D02*
X135033000Y-198000000D01*
X135033000Y-198000000D02*
X133907000Y-199127000D01*
X133907000Y-199127000D02*
X116972000Y-199127000D01*
X116972000Y-199127000D02*
X116127000Y-198282000D01*
X116127000Y-198282000D02*
X116127000Y-198000000D01*
X115000000Y-198000000D02*
X116127000Y-198000000D01*
%TD*%
M02*
