M48
; DRILL file {KiCad 9.0.7} date 2026-03-10T21:17:34+0200
; FORMAT={-:-/ absolute / metric / decimal}
; #@! TF.CreationDate,2026-03-10T21:17:34+02:00
; #@! TF.GenerationSoftware,Kicad,Pcbnew,9.0.7
; #@! TF.FileFunction,MixedPlating,1,2
FMAT,2
METRIC
; #@! TA.AperFunction,Plated,PTH,ViaDrill
T1C0.300
; #@! TA.AperFunction,Plated,PTH,ComponentDrill
T2C0.800
; #@! TA.AperFunction,Plated,PTH,ComponentDrill
T3C1.000
; #@! TA.AperFunction,Plated,PTH,ComponentDrill
T4C1.500
; #@! TA.AperFunction,Plated,PTH,ComponentDrill
T5C3.200
%
G90
G05
T1
X102.401Y-139.049
X103.06Y-128.25
X103.28Y-125.55
X104.015Y-136.515
X104.613Y-144.486
X104.735Y-140.47
X105.375Y-133.538
X105.508Y-140.888
X106.341Y-146.247
X118.739Y-148.142
X119.287Y-124.426
X121.723Y-123.326
X129.948Y-133.05
X139.278Y-154.002
X142.091Y-133.538
X143.908Y-118.885
X145.244Y-124.762
X145.246Y-135.868
X146.078Y-150.497
X147.91Y-141.512
X150.37Y-127.975
X151.95Y-142.299
X158.985Y-139.375
X159.549Y-143.516
X162.459Y-151.299
X165.368Y-142.938
X179.806Y-150.588
X183.266Y-154.592
T2
X108.0Y-116.0
X108.0Y-121.0
X108.0Y-126.0
X108.0Y-131.0
X108.0Y-136.0
X108.0Y-140.0
X108.0Y-144.0
X118.16Y-116.0
X118.16Y-121.0
X118.16Y-126.0
X118.16Y-131.0
X118.16Y-136.0
X118.16Y-140.0
X118.16Y-144.0
X120.0Y-156.0
X125.0Y-156.0
X129.5Y-154.0
X129.5Y-156.54
X129.5Y-159.08
X129.5Y-161.62
X130.0Y-105.0
X132.0Y-105.0
X137.12Y-154.0
X137.12Y-156.54
X137.12Y-159.08
X137.12Y-161.62
X138.0Y-107.0
X140.54Y-107.0
X143.5Y-145.0
X143.5Y-147.54
X143.5Y-150.08
X143.5Y-152.62
X143.5Y-155.16
X143.5Y-157.7
X143.5Y-160.24
X143.5Y-162.78
X144.0Y-107.0
X151.12Y-145.0
X151.12Y-147.54
X151.12Y-150.08
X151.12Y-152.62
X151.12Y-155.16
X151.12Y-157.7
X151.12Y-160.24
X151.12Y-162.78
X151.5Y-119.0
X151.5Y-126.0
X151.5Y-133.0
X151.5Y-140.0
X154.16Y-107.0
X155.5Y-147.0
X157.5Y-111.0
X160.5Y-147.0
X161.66Y-119.0
X161.66Y-126.0
X161.66Y-133.0
X161.66Y-140.0
X162.5Y-111.0
T3
X105.0Y-155.0
X106.5Y-159.0
X110.0Y-151.0
X110.0Y-155.0
X112.0Y-105.0
X113.5Y-159.0
X115.0Y-110.0
X115.0Y-155.0
X118.0Y-105.0
X131.5Y-114.0
X131.5Y-116.54
X131.5Y-119.08
X131.5Y-121.62
X131.5Y-124.16
X131.5Y-126.7
X131.5Y-129.24
X131.5Y-131.78
X131.5Y-134.32
X131.5Y-136.86
X131.5Y-139.4
X131.5Y-141.94
X131.5Y-144.48
X131.5Y-147.02
X131.5Y-149.56
X134.04Y-114.0
X134.04Y-116.54
X134.04Y-119.08
X134.04Y-121.62
X134.04Y-124.16
X134.04Y-126.7
X134.04Y-129.24
X134.04Y-131.78
X134.04Y-134.32
X134.04Y-136.86
X134.04Y-139.4
X134.04Y-141.94
X134.04Y-144.48
X134.04Y-147.02
X134.04Y-149.56
X182.0Y-113.0
X182.0Y-115.54
X182.0Y-118.08
X182.0Y-120.62
X182.0Y-123.16
X182.0Y-125.7
X182.0Y-128.24
X182.0Y-130.78
X182.0Y-133.32
X182.0Y-135.86
X182.0Y-138.4
X182.0Y-140.94
X182.0Y-143.48
X182.0Y-146.02
X182.0Y-148.56
X182.0Y-151.1
X182.0Y-153.64
X184.54Y-113.0
X184.54Y-115.54
X184.54Y-118.08
X184.54Y-120.62
X184.54Y-123.16
X184.54Y-125.7
X184.54Y-128.24
X184.54Y-130.78
X184.54Y-133.32
X184.54Y-135.86
X184.54Y-138.4
X184.54Y-140.94
X184.54Y-143.48
X184.54Y-146.02
X184.54Y-148.56
X184.54Y-151.1
X184.54Y-153.64
T4
X102.5Y-155.0
X117.5Y-155.0
T5
X103.0Y-103.0
X103.0Y-167.0
X187.0Y-103.0
X187.0Y-167.0
M30
