%TF.GenerationSoftware,KiCad,Pcbnew,9.0.7*%
%TF.CreationDate,2026-03-09T23:54:03+02:00*%
%TF.ProjectId,64korppu-E,36346b6f-7270-4707-952d-452e6b696361,rev?*%
%TF.SameCoordinates,Original*%
%TF.FileFunction,Soldermask,Bot*%
%TF.FilePolarity,Negative*%
%FSLAX46Y46*%
G04 Gerber Fmt 4.6, Leading zero omitted, Abs format (unit mm)*
G04 Created by KiCad (PCBNEW 9.0.7) date 2026-03-09 23:54:03*
%MOMM*%
%LPD*%
G01*
G04 APERTURE LIST*
%ADD10R,2.000000X2.000000*%
%ADD11O,2.000000X2.000000*%
%ADD12R,1.600000X1.600000*%
%ADD13O,1.600000X1.600000*%
%ADD14R,1.800000X1.800000*%
%ADD15O,1.800000X1.800000*%
%ADD16O,3.000000X2.000000*%
%ADD17R,1.700000X1.700000*%
%ADD18O,1.700000X1.700000*%
%ADD19C,6.000000*%
%ADD20C,1.500000*%
G04 APERTURE END LIST*
D10*
%TO.C,J3*%
X162000000Y-108000000D03*
D11*
X168000000Y-108000000D03*
X165000000Y-113000000D03*
%TD*%
D12*
%TO.C,C4*%
X180000000Y-108000000D03*
D13*
X182000000Y-108000000D03*
%TD*%
D14*
%TO.C,J1*%
X114500000Y-162000000D03*
D15*
X121500000Y-162000000D03*
X113000000Y-158000000D03*
X118000000Y-154000000D03*
X123000000Y-158000000D03*
X118000000Y-158000000D03*
D16*
X110500000Y-158000000D03*
X125500000Y-158000000D03*
%TD*%
D12*
%TO.C,R1*%
X122000000Y-122000000D03*
D13*
X132160000Y-122000000D03*
%TD*%
D12*
%TO.C,R2*%
X122000000Y-129000000D03*
D13*
X132160000Y-129000000D03*
%TD*%
D12*
%TO.C,R3*%
X122000000Y-136000000D03*
D13*
X132160000Y-136000000D03*
%TD*%
D12*
%TO.C,R4*%
X122000000Y-143000000D03*
D13*
X132160000Y-143000000D03*
%TD*%
D12*
%TO.C,R5*%
X140000000Y-122000000D03*
D13*
X150160000Y-122000000D03*
%TD*%
D12*
%TO.C,R6*%
X140000000Y-129000000D03*
D13*
X150160000Y-129000000D03*
%TD*%
D12*
%TO.C,R7*%
X140000000Y-136000000D03*
D13*
X150160000Y-136000000D03*
%TD*%
D17*
%TO.C,U1*%
X165000000Y-125000000D03*
D18*
X167540000Y-125000000D03*
X165000000Y-127540000D03*
X167540000Y-127540000D03*
X165000000Y-130080000D03*
X167540000Y-130080000D03*
X165000000Y-132620000D03*
X167540000Y-132620000D03*
X165000000Y-135160000D03*
X167540000Y-135160000D03*
X165000000Y-137700000D03*
X167540000Y-137700000D03*
X165000000Y-140240000D03*
X167540000Y-140240000D03*
X165000000Y-142780000D03*
X167540000Y-142780000D03*
X165000000Y-145320000D03*
X167540000Y-145320000D03*
X165000000Y-147860000D03*
X167540000Y-147860000D03*
X165000000Y-150400000D03*
X167540000Y-150400000D03*
X165000000Y-152940000D03*
X167540000Y-152940000D03*
X165000000Y-155480000D03*
X167540000Y-155480000D03*
X165000000Y-158020000D03*
X167540000Y-158020000D03*
X165000000Y-160560000D03*
X167540000Y-160560000D03*
%TD*%
D12*
%TO.C,U2*%
X128000000Y-172000000D03*
D13*
X128000000Y-174540000D03*
X128000000Y-177080000D03*
X128000000Y-179620000D03*
X135620000Y-179620000D03*
X135620000Y-177080000D03*
X135620000Y-174540000D03*
X135620000Y-172000000D03*
%TD*%
D12*
%TO.C,U3*%
X195000000Y-172000000D03*
D13*
X195000000Y-174540000D03*
X195000000Y-177080000D03*
X195000000Y-179620000D03*
X195000000Y-182160000D03*
X195000000Y-184700000D03*
X195000000Y-187240000D03*
X195000000Y-189780000D03*
X202620000Y-189780000D03*
X202620000Y-187240000D03*
X202620000Y-184700000D03*
X202620000Y-182160000D03*
X202620000Y-179620000D03*
X202620000Y-177080000D03*
X202620000Y-174540000D03*
X202620000Y-172000000D03*
%TD*%
D17*
%TO.C,J2*%
X225000000Y-128000000D03*
D18*
X227540000Y-128000000D03*
X225000000Y-130540000D03*
X227540000Y-130540000D03*
X225000000Y-133080000D03*
X227540000Y-133080000D03*
X225000000Y-135620000D03*
X227540000Y-135620000D03*
X225000000Y-138160000D03*
X227540000Y-138160000D03*
X225000000Y-140700000D03*
X227540000Y-140700000D03*
X225000000Y-143240000D03*
X227540000Y-143240000D03*
X225000000Y-145780000D03*
X227540000Y-145780000D03*
X225000000Y-148320000D03*
X227540000Y-148320000D03*
X225000000Y-150860000D03*
X227540000Y-150860000D03*
X225000000Y-153400000D03*
X227540000Y-153400000D03*
X225000000Y-155940000D03*
X227540000Y-155940000D03*
X225000000Y-158480000D03*
X227540000Y-158480000D03*
X225000000Y-161020000D03*
X227540000Y-161020000D03*
X225000000Y-163560000D03*
X227540000Y-163560000D03*
X225000000Y-166100000D03*
X227540000Y-166100000D03*
X225000000Y-168640000D03*
X227540000Y-168640000D03*
%TD*%
D12*
%TO.C,R8*%
X126000000Y-198000000D03*
D13*
X136160000Y-198000000D03*
%TD*%
D12*
%TO.C,D1*%
X115000000Y-198000000D03*
D13*
X117540000Y-198000000D03*
%TD*%
D12*
%TO.C,R9*%
X200000000Y-128000000D03*
D13*
X210160000Y-128000000D03*
%TD*%
D12*
%TO.C,R10*%
X200000000Y-136000000D03*
D13*
X210160000Y-136000000D03*
%TD*%
D12*
%TO.C,R11*%
X200000000Y-144000000D03*
D13*
X210160000Y-144000000D03*
%TD*%
D12*
%TO.C,R12*%
X200000000Y-152000000D03*
D13*
X210160000Y-152000000D03*
%TD*%
D12*
%TO.C,C1*%
X155000000Y-198000000D03*
D13*
X160000000Y-198000000D03*
%TD*%
D12*
%TO.C,C2*%
X175000000Y-198000000D03*
D13*
X180000000Y-198000000D03*
%TD*%
D12*
%TO.C,C3*%
X195000000Y-198000000D03*
D13*
X200000000Y-198000000D03*
%TD*%
D19*
%TO.C,H1*%
X103000000Y-103000000D03*
%TD*%
%TO.C,H2*%
X237000000Y-103000000D03*
%TD*%
%TO.C,H3*%
X103000000Y-217000000D03*
%TD*%
%TO.C,H4*%
X237000000Y-217000000D03*
%TD*%
D20*
%TO.C,TP7*%
X103000000Y-123000000D03*
%TD*%
%TO.C,TP13*%
X103000000Y-138000000D03*
%TD*%
%TO.C,TP3*%
X103000000Y-113000000D03*
%TD*%
%TO.C,TP5*%
X103000000Y-118000000D03*
%TD*%
%TO.C,TP10*%
X103000000Y-130500000D03*
%TD*%
%TO.C,TP6*%
X103000000Y-120500000D03*
%TD*%
%TO.C,TP4*%
X103000000Y-115500000D03*
%TD*%
%TO.C,TP12*%
X103000000Y-135500000D03*
%TD*%
%TO.C,TP9*%
X103000000Y-128000000D03*
%TD*%
%TO.C,TP8*%
X103000000Y-125500000D03*
%TD*%
%TO.C,TP14*%
X103000000Y-140500000D03*
%TD*%
%TO.C,TP1*%
X103000000Y-108000000D03*
%TD*%
%TO.C,TP11*%
X103000000Y-133000000D03*
%TD*%
%TO.C,TP2*%
X103000000Y-110500000D03*
%TD*%
M02*
