M48
; DRILL file {KiCad 9.0.7} date 2026-03-08T23:48:38+0200
; FORMAT={-:-/ absolute / metric / decimal}
; #@! TF.CreationDate,2026-03-08T23:48:38+02:00
; #@! TF.GenerationSoftware,Kicad,Pcbnew,9.0.7
; #@! TF.FileFunction,MixedPlating,1,2
FMAT,2
METRIC
; #@! TA.AperFunction,Plated,PTH,ViaDrill
T1C0.300
; #@! TA.AperFunction,Plated,PTH,ComponentDrill
T2C0.800
; #@! TA.AperFunction,Plated,PTH,ComponentDrill
T3C1.000
; #@! TA.AperFunction,Plated,PTH,ComponentDrill
T4C1.500
; #@! TA.AperFunction,Plated,PTH,ComponentDrill
T5C3.200
%
G90
G05
T1
X104.374Y-122.048
X134.328Y-141.908
X161.052Y-175.276
X167.017Y-177.59
X170.497Y-181.572
X193.039Y-197.363
X197.115Y-147.288
X199.107Y-147.27
X200.567Y-156.344
X201.909Y-165.818
X210.49Y-167.365
X211.762Y-157.066
X213.838Y-159.779
X220.712Y-153.561
X223.694Y-180.521
X226.27Y-144.58
X229.66Y-171.725
X230.469Y-168.793
T2
X115.0Y-198.0
X117.54Y-198.0
X122.0Y-122.0
X122.0Y-129.0
X122.0Y-136.0
X122.0Y-143.0
X126.0Y-198.0
X128.0Y-172.0
X128.0Y-174.54
X128.0Y-177.08
X128.0Y-179.62
X132.16Y-122.0
X132.16Y-129.0
X132.16Y-136.0
X132.16Y-143.0
X135.62Y-172.0
X135.62Y-174.54
X135.62Y-177.08
X135.62Y-179.62
X136.16Y-198.0
X140.0Y-122.0
X140.0Y-129.0
X140.0Y-136.0
X150.16Y-122.0
X150.16Y-129.0
X150.16Y-136.0
X155.0Y-198.0
X160.0Y-198.0
X175.0Y-198.0
X180.0Y-108.0
X180.0Y-198.0
X182.0Y-108.0
X195.0Y-172.0
X195.0Y-174.54
X195.0Y-177.08
X195.0Y-179.62
X195.0Y-182.16
X195.0Y-184.7
X195.0Y-187.24
X195.0Y-189.78
X195.0Y-198.0
X200.0Y-128.0
X200.0Y-136.0
X200.0Y-144.0
X200.0Y-152.0
X200.0Y-198.0
X202.62Y-172.0
X202.62Y-174.54
X202.62Y-177.08
X202.62Y-179.62
X202.62Y-182.16
X202.62Y-184.7
X202.62Y-187.24
X202.62Y-189.78
X210.16Y-128.0
X210.16Y-136.0
X210.16Y-144.0
X210.16Y-152.0
T3
X103.0Y-148.0
X104.5Y-152.0
X108.0Y-144.0
X108.0Y-148.0
X111.5Y-152.0
X113.0Y-148.0
X162.0Y-108.0
X165.0Y-113.0
X165.0Y-125.0
X165.0Y-127.54
X165.0Y-130.08
X165.0Y-132.62
X165.0Y-135.16
X165.0Y-137.7
X165.0Y-140.24
X165.0Y-142.78
X165.0Y-145.32
X165.0Y-147.86
X165.0Y-150.4
X165.0Y-152.94
X165.0Y-155.48
X165.0Y-158.02
X165.0Y-160.56
X167.54Y-125.0
X167.54Y-127.54
X167.54Y-130.08
X167.54Y-132.62
X167.54Y-135.16
X167.54Y-137.7
X167.54Y-140.24
X167.54Y-142.78
X167.54Y-145.32
X167.54Y-147.86
X167.54Y-150.4
X167.54Y-152.94
X167.54Y-155.48
X167.54Y-158.02
X167.54Y-160.56
X168.0Y-108.0
X225.0Y-128.0
X225.0Y-130.54
X225.0Y-133.08
X225.0Y-135.62
X225.0Y-138.16
X225.0Y-140.7
X225.0Y-143.24
X225.0Y-145.78
X225.0Y-148.32
X225.0Y-150.86
X225.0Y-153.4
X225.0Y-155.94
X225.0Y-158.48
X225.0Y-161.02
X225.0Y-163.56
X225.0Y-166.1
X225.0Y-168.64
X227.54Y-128.0
X227.54Y-130.54
X227.54Y-133.08
X227.54Y-135.62
X227.54Y-138.16
X227.54Y-140.7
X227.54Y-143.24
X227.54Y-145.78
X227.54Y-148.32
X227.54Y-150.86
X227.54Y-153.4
X227.54Y-155.94
X227.54Y-158.48
X227.54Y-161.02
X227.54Y-163.56
X227.54Y-166.1
X227.54Y-168.64
T4
X100.5Y-148.0
X115.5Y-148.0
T5
X103.0Y-103.0
X103.0Y-217.0
X237.0Y-103.0
X237.0Y-217.0
M30
