%TF.GenerationSoftware,KiCad,Pcbnew,9.0.7*%
%TF.CreationDate,2026-03-10T00:31:53+02:00*%
%TF.ProjectId,64korppu-E,36346b6f-7270-4707-952d-452e6b696361,rev?*%
%TF.SameCoordinates,Original*%
%TF.FileFunction,Legend,Bot*%
%TF.FilePolarity,Positive*%
%FSLAX46Y46*%
G04 Gerber Fmt 4.6, Leading zero omitted, Abs format (unit mm)*
G04 Created by KiCad (PCBNEW 9.0.7) date 2026-03-10 00:31:53*
%MOMM*%
%LPD*%
G01*
G04 APERTURE LIST*
%ADD10C,0.150000*%
G04 APERTURE END LIST*
D10*
X106509523Y-123762295D02*
X106052380Y-123762295D01*
X106280952Y-124562295D02*
X106280952Y-123762295D01*
X105785713Y-124562295D02*
X105785713Y-123762295D01*
X105785713Y-123762295D02*
X105480951Y-123762295D01*
X105480951Y-123762295D02*
X105404761Y-123800390D01*
X105404761Y-123800390D02*
X105366666Y-123838485D01*
X105366666Y-123838485D02*
X105328570Y-123914676D01*
X105328570Y-123914676D02*
X105328570Y-124028961D01*
X105328570Y-124028961D02*
X105366666Y-124105152D01*
X105366666Y-124105152D02*
X105404761Y-124143247D01*
X105404761Y-124143247D02*
X105480951Y-124181342D01*
X105480951Y-124181342D02*
X105785713Y-124181342D01*
X105061904Y-123762295D02*
X104528570Y-123762295D01*
X104528570Y-123762295D02*
X104871428Y-124562295D01*
X106890476Y-139962295D02*
X106433333Y-139962295D01*
X106661905Y-140762295D02*
X106661905Y-139962295D01*
X106166666Y-140762295D02*
X106166666Y-139962295D01*
X106166666Y-139962295D02*
X105861904Y-139962295D01*
X105861904Y-139962295D02*
X105785714Y-140000390D01*
X105785714Y-140000390D02*
X105747619Y-140038485D01*
X105747619Y-140038485D02*
X105709523Y-140114676D01*
X105709523Y-140114676D02*
X105709523Y-140228961D01*
X105709523Y-140228961D02*
X105747619Y-140305152D01*
X105747619Y-140305152D02*
X105785714Y-140343247D01*
X105785714Y-140343247D02*
X105861904Y-140381342D01*
X105861904Y-140381342D02*
X106166666Y-140381342D01*
X104947619Y-140762295D02*
X105404762Y-140762295D01*
X105176190Y-140762295D02*
X105176190Y-139962295D01*
X105176190Y-139962295D02*
X105252381Y-140076580D01*
X105252381Y-140076580D02*
X105328571Y-140152771D01*
X105328571Y-140152771D02*
X105404762Y-140190866D01*
X104680952Y-139962295D02*
X104185714Y-139962295D01*
X104185714Y-139962295D02*
X104452380Y-140267057D01*
X104452380Y-140267057D02*
X104338095Y-140267057D01*
X104338095Y-140267057D02*
X104261904Y-140305152D01*
X104261904Y-140305152D02*
X104223809Y-140343247D01*
X104223809Y-140343247D02*
X104185714Y-140419438D01*
X104185714Y-140419438D02*
X104185714Y-140609914D01*
X104185714Y-140609914D02*
X104223809Y-140686104D01*
X104223809Y-140686104D02*
X104261904Y-140724200D01*
X104261904Y-140724200D02*
X104338095Y-140762295D01*
X104338095Y-140762295D02*
X104566666Y-140762295D01*
X104566666Y-140762295D02*
X104642857Y-140724200D01*
X104642857Y-140724200D02*
X104680952Y-140686104D01*
X106509523Y-112962295D02*
X106052380Y-112962295D01*
X106280952Y-113762295D02*
X106280952Y-112962295D01*
X105785713Y-113762295D02*
X105785713Y-112962295D01*
X105785713Y-112962295D02*
X105480951Y-112962295D01*
X105480951Y-112962295D02*
X105404761Y-113000390D01*
X105404761Y-113000390D02*
X105366666Y-113038485D01*
X105366666Y-113038485D02*
X105328570Y-113114676D01*
X105328570Y-113114676D02*
X105328570Y-113228961D01*
X105328570Y-113228961D02*
X105366666Y-113305152D01*
X105366666Y-113305152D02*
X105404761Y-113343247D01*
X105404761Y-113343247D02*
X105480951Y-113381342D01*
X105480951Y-113381342D02*
X105785713Y-113381342D01*
X105061904Y-112962295D02*
X104566666Y-112962295D01*
X104566666Y-112962295D02*
X104833332Y-113267057D01*
X104833332Y-113267057D02*
X104719047Y-113267057D01*
X104719047Y-113267057D02*
X104642856Y-113305152D01*
X104642856Y-113305152D02*
X104604761Y-113343247D01*
X104604761Y-113343247D02*
X104566666Y-113419438D01*
X104566666Y-113419438D02*
X104566666Y-113609914D01*
X104566666Y-113609914D02*
X104604761Y-113686104D01*
X104604761Y-113686104D02*
X104642856Y-113724200D01*
X104642856Y-113724200D02*
X104719047Y-113762295D01*
X104719047Y-113762295D02*
X104947618Y-113762295D01*
X104947618Y-113762295D02*
X105023809Y-113724200D01*
X105023809Y-113724200D02*
X105061904Y-113686104D01*
X106509523Y-118362295D02*
X106052380Y-118362295D01*
X106280952Y-119162295D02*
X106280952Y-118362295D01*
X105785713Y-119162295D02*
X105785713Y-118362295D01*
X105785713Y-118362295D02*
X105480951Y-118362295D01*
X105480951Y-118362295D02*
X105404761Y-118400390D01*
X105404761Y-118400390D02*
X105366666Y-118438485D01*
X105366666Y-118438485D02*
X105328570Y-118514676D01*
X105328570Y-118514676D02*
X105328570Y-118628961D01*
X105328570Y-118628961D02*
X105366666Y-118705152D01*
X105366666Y-118705152D02*
X105404761Y-118743247D01*
X105404761Y-118743247D02*
X105480951Y-118781342D01*
X105480951Y-118781342D02*
X105785713Y-118781342D01*
X104604761Y-118362295D02*
X104985713Y-118362295D01*
X104985713Y-118362295D02*
X105023809Y-118743247D01*
X105023809Y-118743247D02*
X104985713Y-118705152D01*
X104985713Y-118705152D02*
X104909523Y-118667057D01*
X104909523Y-118667057D02*
X104719047Y-118667057D01*
X104719047Y-118667057D02*
X104642856Y-118705152D01*
X104642856Y-118705152D02*
X104604761Y-118743247D01*
X104604761Y-118743247D02*
X104566666Y-118819438D01*
X104566666Y-118819438D02*
X104566666Y-119009914D01*
X104566666Y-119009914D02*
X104604761Y-119086104D01*
X104604761Y-119086104D02*
X104642856Y-119124200D01*
X104642856Y-119124200D02*
X104719047Y-119162295D01*
X104719047Y-119162295D02*
X104909523Y-119162295D01*
X104909523Y-119162295D02*
X104985713Y-119124200D01*
X104985713Y-119124200D02*
X105023809Y-119086104D01*
X106890476Y-131862295D02*
X106433333Y-131862295D01*
X106661905Y-132662295D02*
X106661905Y-131862295D01*
X106166666Y-132662295D02*
X106166666Y-131862295D01*
X106166666Y-131862295D02*
X105861904Y-131862295D01*
X105861904Y-131862295D02*
X105785714Y-131900390D01*
X105785714Y-131900390D02*
X105747619Y-131938485D01*
X105747619Y-131938485D02*
X105709523Y-132014676D01*
X105709523Y-132014676D02*
X105709523Y-132128961D01*
X105709523Y-132128961D02*
X105747619Y-132205152D01*
X105747619Y-132205152D02*
X105785714Y-132243247D01*
X105785714Y-132243247D02*
X105861904Y-132281342D01*
X105861904Y-132281342D02*
X106166666Y-132281342D01*
X104947619Y-132662295D02*
X105404762Y-132662295D01*
X105176190Y-132662295D02*
X105176190Y-131862295D01*
X105176190Y-131862295D02*
X105252381Y-131976580D01*
X105252381Y-131976580D02*
X105328571Y-132052771D01*
X105328571Y-132052771D02*
X105404762Y-132090866D01*
X104452380Y-131862295D02*
X104376190Y-131862295D01*
X104376190Y-131862295D02*
X104299999Y-131900390D01*
X104299999Y-131900390D02*
X104261904Y-131938485D01*
X104261904Y-131938485D02*
X104223809Y-132014676D01*
X104223809Y-132014676D02*
X104185714Y-132167057D01*
X104185714Y-132167057D02*
X104185714Y-132357533D01*
X104185714Y-132357533D02*
X104223809Y-132509914D01*
X104223809Y-132509914D02*
X104261904Y-132586104D01*
X104261904Y-132586104D02*
X104299999Y-132624200D01*
X104299999Y-132624200D02*
X104376190Y-132662295D01*
X104376190Y-132662295D02*
X104452380Y-132662295D01*
X104452380Y-132662295D02*
X104528571Y-132624200D01*
X104528571Y-132624200D02*
X104566666Y-132586104D01*
X104566666Y-132586104D02*
X104604761Y-132509914D01*
X104604761Y-132509914D02*
X104642857Y-132357533D01*
X104642857Y-132357533D02*
X104642857Y-132167057D01*
X104642857Y-132167057D02*
X104604761Y-132014676D01*
X104604761Y-132014676D02*
X104566666Y-131938485D01*
X104566666Y-131938485D02*
X104528571Y-131900390D01*
X104528571Y-131900390D02*
X104452380Y-131862295D01*
X106509523Y-121062295D02*
X106052380Y-121062295D01*
X106280952Y-121862295D02*
X106280952Y-121062295D01*
X105785713Y-121862295D02*
X105785713Y-121062295D01*
X105785713Y-121062295D02*
X105480951Y-121062295D01*
X105480951Y-121062295D02*
X105404761Y-121100390D01*
X105404761Y-121100390D02*
X105366666Y-121138485D01*
X105366666Y-121138485D02*
X105328570Y-121214676D01*
X105328570Y-121214676D02*
X105328570Y-121328961D01*
X105328570Y-121328961D02*
X105366666Y-121405152D01*
X105366666Y-121405152D02*
X105404761Y-121443247D01*
X105404761Y-121443247D02*
X105480951Y-121481342D01*
X105480951Y-121481342D02*
X105785713Y-121481342D01*
X104642856Y-121062295D02*
X104795237Y-121062295D01*
X104795237Y-121062295D02*
X104871428Y-121100390D01*
X104871428Y-121100390D02*
X104909523Y-121138485D01*
X104909523Y-121138485D02*
X104985713Y-121252771D01*
X104985713Y-121252771D02*
X105023809Y-121405152D01*
X105023809Y-121405152D02*
X105023809Y-121709914D01*
X105023809Y-121709914D02*
X104985713Y-121786104D01*
X104985713Y-121786104D02*
X104947618Y-121824200D01*
X104947618Y-121824200D02*
X104871428Y-121862295D01*
X104871428Y-121862295D02*
X104719047Y-121862295D01*
X104719047Y-121862295D02*
X104642856Y-121824200D01*
X104642856Y-121824200D02*
X104604761Y-121786104D01*
X104604761Y-121786104D02*
X104566666Y-121709914D01*
X104566666Y-121709914D02*
X104566666Y-121519438D01*
X104566666Y-121519438D02*
X104604761Y-121443247D01*
X104604761Y-121443247D02*
X104642856Y-121405152D01*
X104642856Y-121405152D02*
X104719047Y-121367057D01*
X104719047Y-121367057D02*
X104871428Y-121367057D01*
X104871428Y-121367057D02*
X104947618Y-121405152D01*
X104947618Y-121405152D02*
X104985713Y-121443247D01*
X104985713Y-121443247D02*
X105023809Y-121519438D01*
X106509523Y-115662295D02*
X106052380Y-115662295D01*
X106280952Y-116462295D02*
X106280952Y-115662295D01*
X105785713Y-116462295D02*
X105785713Y-115662295D01*
X105785713Y-115662295D02*
X105480951Y-115662295D01*
X105480951Y-115662295D02*
X105404761Y-115700390D01*
X105404761Y-115700390D02*
X105366666Y-115738485D01*
X105366666Y-115738485D02*
X105328570Y-115814676D01*
X105328570Y-115814676D02*
X105328570Y-115928961D01*
X105328570Y-115928961D02*
X105366666Y-116005152D01*
X105366666Y-116005152D02*
X105404761Y-116043247D01*
X105404761Y-116043247D02*
X105480951Y-116081342D01*
X105480951Y-116081342D02*
X105785713Y-116081342D01*
X104642856Y-115928961D02*
X104642856Y-116462295D01*
X104833332Y-115624200D02*
X105023809Y-116195628D01*
X105023809Y-116195628D02*
X104528570Y-116195628D01*
X106890476Y-137262295D02*
X106433333Y-137262295D01*
X106661905Y-138062295D02*
X106661905Y-137262295D01*
X106166666Y-138062295D02*
X106166666Y-137262295D01*
X106166666Y-137262295D02*
X105861904Y-137262295D01*
X105861904Y-137262295D02*
X105785714Y-137300390D01*
X105785714Y-137300390D02*
X105747619Y-137338485D01*
X105747619Y-137338485D02*
X105709523Y-137414676D01*
X105709523Y-137414676D02*
X105709523Y-137528961D01*
X105709523Y-137528961D02*
X105747619Y-137605152D01*
X105747619Y-137605152D02*
X105785714Y-137643247D01*
X105785714Y-137643247D02*
X105861904Y-137681342D01*
X105861904Y-137681342D02*
X106166666Y-137681342D01*
X104947619Y-138062295D02*
X105404762Y-138062295D01*
X105176190Y-138062295D02*
X105176190Y-137262295D01*
X105176190Y-137262295D02*
X105252381Y-137376580D01*
X105252381Y-137376580D02*
X105328571Y-137452771D01*
X105328571Y-137452771D02*
X105404762Y-137490866D01*
X104642857Y-137338485D02*
X104604761Y-137300390D01*
X104604761Y-137300390D02*
X104528571Y-137262295D01*
X104528571Y-137262295D02*
X104338095Y-137262295D01*
X104338095Y-137262295D02*
X104261904Y-137300390D01*
X104261904Y-137300390D02*
X104223809Y-137338485D01*
X104223809Y-137338485D02*
X104185714Y-137414676D01*
X104185714Y-137414676D02*
X104185714Y-137490866D01*
X104185714Y-137490866D02*
X104223809Y-137605152D01*
X104223809Y-137605152D02*
X104680952Y-138062295D01*
X104680952Y-138062295D02*
X104185714Y-138062295D01*
X106509523Y-129162295D02*
X106052380Y-129162295D01*
X106280952Y-129962295D02*
X106280952Y-129162295D01*
X105785713Y-129962295D02*
X105785713Y-129162295D01*
X105785713Y-129162295D02*
X105480951Y-129162295D01*
X105480951Y-129162295D02*
X105404761Y-129200390D01*
X105404761Y-129200390D02*
X105366666Y-129238485D01*
X105366666Y-129238485D02*
X105328570Y-129314676D01*
X105328570Y-129314676D02*
X105328570Y-129428961D01*
X105328570Y-129428961D02*
X105366666Y-129505152D01*
X105366666Y-129505152D02*
X105404761Y-129543247D01*
X105404761Y-129543247D02*
X105480951Y-129581342D01*
X105480951Y-129581342D02*
X105785713Y-129581342D01*
X104947618Y-129962295D02*
X104795237Y-129962295D01*
X104795237Y-129962295D02*
X104719047Y-129924200D01*
X104719047Y-129924200D02*
X104680951Y-129886104D01*
X104680951Y-129886104D02*
X104604761Y-129771819D01*
X104604761Y-129771819D02*
X104566666Y-129619438D01*
X104566666Y-129619438D02*
X104566666Y-129314676D01*
X104566666Y-129314676D02*
X104604761Y-129238485D01*
X104604761Y-129238485D02*
X104642856Y-129200390D01*
X104642856Y-129200390D02*
X104719047Y-129162295D01*
X104719047Y-129162295D02*
X104871428Y-129162295D01*
X104871428Y-129162295D02*
X104947618Y-129200390D01*
X104947618Y-129200390D02*
X104985713Y-129238485D01*
X104985713Y-129238485D02*
X105023809Y-129314676D01*
X105023809Y-129314676D02*
X105023809Y-129505152D01*
X105023809Y-129505152D02*
X104985713Y-129581342D01*
X104985713Y-129581342D02*
X104947618Y-129619438D01*
X104947618Y-129619438D02*
X104871428Y-129657533D01*
X104871428Y-129657533D02*
X104719047Y-129657533D01*
X104719047Y-129657533D02*
X104642856Y-129619438D01*
X104642856Y-129619438D02*
X104604761Y-129581342D01*
X104604761Y-129581342D02*
X104566666Y-129505152D01*
X106509523Y-126462295D02*
X106052380Y-126462295D01*
X106280952Y-127262295D02*
X106280952Y-126462295D01*
X105785713Y-127262295D02*
X105785713Y-126462295D01*
X105785713Y-126462295D02*
X105480951Y-126462295D01*
X105480951Y-126462295D02*
X105404761Y-126500390D01*
X105404761Y-126500390D02*
X105366666Y-126538485D01*
X105366666Y-126538485D02*
X105328570Y-126614676D01*
X105328570Y-126614676D02*
X105328570Y-126728961D01*
X105328570Y-126728961D02*
X105366666Y-126805152D01*
X105366666Y-126805152D02*
X105404761Y-126843247D01*
X105404761Y-126843247D02*
X105480951Y-126881342D01*
X105480951Y-126881342D02*
X105785713Y-126881342D01*
X104871428Y-126805152D02*
X104947618Y-126767057D01*
X104947618Y-126767057D02*
X104985713Y-126728961D01*
X104985713Y-126728961D02*
X105023809Y-126652771D01*
X105023809Y-126652771D02*
X105023809Y-126614676D01*
X105023809Y-126614676D02*
X104985713Y-126538485D01*
X104985713Y-126538485D02*
X104947618Y-126500390D01*
X104947618Y-126500390D02*
X104871428Y-126462295D01*
X104871428Y-126462295D02*
X104719047Y-126462295D01*
X104719047Y-126462295D02*
X104642856Y-126500390D01*
X104642856Y-126500390D02*
X104604761Y-126538485D01*
X104604761Y-126538485D02*
X104566666Y-126614676D01*
X104566666Y-126614676D02*
X104566666Y-126652771D01*
X104566666Y-126652771D02*
X104604761Y-126728961D01*
X104604761Y-126728961D02*
X104642856Y-126767057D01*
X104642856Y-126767057D02*
X104719047Y-126805152D01*
X104719047Y-126805152D02*
X104871428Y-126805152D01*
X104871428Y-126805152D02*
X104947618Y-126843247D01*
X104947618Y-126843247D02*
X104985713Y-126881342D01*
X104985713Y-126881342D02*
X105023809Y-126957533D01*
X105023809Y-126957533D02*
X105023809Y-127109914D01*
X105023809Y-127109914D02*
X104985713Y-127186104D01*
X104985713Y-127186104D02*
X104947618Y-127224200D01*
X104947618Y-127224200D02*
X104871428Y-127262295D01*
X104871428Y-127262295D02*
X104719047Y-127262295D01*
X104719047Y-127262295D02*
X104642856Y-127224200D01*
X104642856Y-127224200D02*
X104604761Y-127186104D01*
X104604761Y-127186104D02*
X104566666Y-127109914D01*
X104566666Y-127109914D02*
X104566666Y-126957533D01*
X104566666Y-126957533D02*
X104604761Y-126881342D01*
X104604761Y-126881342D02*
X104642856Y-126843247D01*
X104642856Y-126843247D02*
X104719047Y-126805152D01*
X106890476Y-142662295D02*
X106433333Y-142662295D01*
X106661905Y-143462295D02*
X106661905Y-142662295D01*
X106166666Y-143462295D02*
X106166666Y-142662295D01*
X106166666Y-142662295D02*
X105861904Y-142662295D01*
X105861904Y-142662295D02*
X105785714Y-142700390D01*
X105785714Y-142700390D02*
X105747619Y-142738485D01*
X105747619Y-142738485D02*
X105709523Y-142814676D01*
X105709523Y-142814676D02*
X105709523Y-142928961D01*
X105709523Y-142928961D02*
X105747619Y-143005152D01*
X105747619Y-143005152D02*
X105785714Y-143043247D01*
X105785714Y-143043247D02*
X105861904Y-143081342D01*
X105861904Y-143081342D02*
X106166666Y-143081342D01*
X104947619Y-143462295D02*
X105404762Y-143462295D01*
X105176190Y-143462295D02*
X105176190Y-142662295D01*
X105176190Y-142662295D02*
X105252381Y-142776580D01*
X105252381Y-142776580D02*
X105328571Y-142852771D01*
X105328571Y-142852771D02*
X105404762Y-142890866D01*
X104261904Y-142928961D02*
X104261904Y-143462295D01*
X104452380Y-142624200D02*
X104642857Y-143195628D01*
X104642857Y-143195628D02*
X104147618Y-143195628D01*
X106509523Y-107562295D02*
X106052380Y-107562295D01*
X106280952Y-108362295D02*
X106280952Y-107562295D01*
X105785713Y-108362295D02*
X105785713Y-107562295D01*
X105785713Y-107562295D02*
X105480951Y-107562295D01*
X105480951Y-107562295D02*
X105404761Y-107600390D01*
X105404761Y-107600390D02*
X105366666Y-107638485D01*
X105366666Y-107638485D02*
X105328570Y-107714676D01*
X105328570Y-107714676D02*
X105328570Y-107828961D01*
X105328570Y-107828961D02*
X105366666Y-107905152D01*
X105366666Y-107905152D02*
X105404761Y-107943247D01*
X105404761Y-107943247D02*
X105480951Y-107981342D01*
X105480951Y-107981342D02*
X105785713Y-107981342D01*
X104566666Y-108362295D02*
X105023809Y-108362295D01*
X104795237Y-108362295D02*
X104795237Y-107562295D01*
X104795237Y-107562295D02*
X104871428Y-107676580D01*
X104871428Y-107676580D02*
X104947618Y-107752771D01*
X104947618Y-107752771D02*
X105023809Y-107790866D01*
X106890476Y-134562295D02*
X106433333Y-134562295D01*
X106661905Y-135362295D02*
X106661905Y-134562295D01*
X106166666Y-135362295D02*
X106166666Y-134562295D01*
X106166666Y-134562295D02*
X105861904Y-134562295D01*
X105861904Y-134562295D02*
X105785714Y-134600390D01*
X105785714Y-134600390D02*
X105747619Y-134638485D01*
X105747619Y-134638485D02*
X105709523Y-134714676D01*
X105709523Y-134714676D02*
X105709523Y-134828961D01*
X105709523Y-134828961D02*
X105747619Y-134905152D01*
X105747619Y-134905152D02*
X105785714Y-134943247D01*
X105785714Y-134943247D02*
X105861904Y-134981342D01*
X105861904Y-134981342D02*
X106166666Y-134981342D01*
X104947619Y-135362295D02*
X105404762Y-135362295D01*
X105176190Y-135362295D02*
X105176190Y-134562295D01*
X105176190Y-134562295D02*
X105252381Y-134676580D01*
X105252381Y-134676580D02*
X105328571Y-134752771D01*
X105328571Y-134752771D02*
X105404762Y-134790866D01*
X104185714Y-135362295D02*
X104642857Y-135362295D01*
X104414285Y-135362295D02*
X104414285Y-134562295D01*
X104414285Y-134562295D02*
X104490476Y-134676580D01*
X104490476Y-134676580D02*
X104566666Y-134752771D01*
X104566666Y-134752771D02*
X104642857Y-134790866D01*
X106509523Y-110262295D02*
X106052380Y-110262295D01*
X106280952Y-111062295D02*
X106280952Y-110262295D01*
X105785713Y-111062295D02*
X105785713Y-110262295D01*
X105785713Y-110262295D02*
X105480951Y-110262295D01*
X105480951Y-110262295D02*
X105404761Y-110300390D01*
X105404761Y-110300390D02*
X105366666Y-110338485D01*
X105366666Y-110338485D02*
X105328570Y-110414676D01*
X105328570Y-110414676D02*
X105328570Y-110528961D01*
X105328570Y-110528961D02*
X105366666Y-110605152D01*
X105366666Y-110605152D02*
X105404761Y-110643247D01*
X105404761Y-110643247D02*
X105480951Y-110681342D01*
X105480951Y-110681342D02*
X105785713Y-110681342D01*
X105023809Y-110338485D02*
X104985713Y-110300390D01*
X104985713Y-110300390D02*
X104909523Y-110262295D01*
X104909523Y-110262295D02*
X104719047Y-110262295D01*
X104719047Y-110262295D02*
X104642856Y-110300390D01*
X104642856Y-110300390D02*
X104604761Y-110338485D01*
X104604761Y-110338485D02*
X104566666Y-110414676D01*
X104566666Y-110414676D02*
X104566666Y-110490866D01*
X104566666Y-110490866D02*
X104604761Y-110605152D01*
X104604761Y-110605152D02*
X105061904Y-111062295D01*
X105061904Y-111062295D02*
X104566666Y-111062295D01*
M02*
