%TF.GenerationSoftware,KiCad,Pcbnew,9.0.7*%
%TF.CreationDate,2026-03-10T21:43:04+02:00*%
%TF.ProjectId,64korppu-E,36346b6f-7270-4707-952d-452e6b696361,rev?*%
%TF.SameCoordinates,Original*%
%TF.FileFunction,AssemblyDrawing,Top*%
%FSLAX46Y46*%
G04 Gerber Fmt 4.6, Leading zero omitted, Abs format (unit mm)*
G04 Created by KiCad (PCBNEW 9.0.7) date 2026-03-10 21:43:04*
%MOMM*%
%LPD*%
G01*
G04 APERTURE LIST*
%ADD10C,0.150000*%
G04 APERTURE END LIST*
D10*
X309190476Y-210454819D02*
X309190476Y-209454819D01*
X309190476Y-209454819D02*
X309428571Y-209454819D01*
X309428571Y-209454819D02*
X309571428Y-209502438D01*
X309571428Y-209502438D02*
X309666666Y-209597676D01*
X309666666Y-209597676D02*
X309714285Y-209692914D01*
X309714285Y-209692914D02*
X309761904Y-209883390D01*
X309761904Y-209883390D02*
X309761904Y-210026247D01*
X309761904Y-210026247D02*
X309714285Y-210216723D01*
X309714285Y-210216723D02*
X309666666Y-210311961D01*
X309666666Y-210311961D02*
X309571428Y-210407200D01*
X309571428Y-210407200D02*
X309428571Y-210454819D01*
X309428571Y-210454819D02*
X309190476Y-210454819D01*
X310761904Y-210359580D02*
X310714285Y-210407200D01*
X310714285Y-210407200D02*
X310571428Y-210454819D01*
X310571428Y-210454819D02*
X310476190Y-210454819D01*
X310476190Y-210454819D02*
X310333333Y-210407200D01*
X310333333Y-210407200D02*
X310238095Y-210311961D01*
X310238095Y-210311961D02*
X310190476Y-210216723D01*
X310190476Y-210216723D02*
X310142857Y-210026247D01*
X310142857Y-210026247D02*
X310142857Y-209883390D01*
X310142857Y-209883390D02*
X310190476Y-209692914D01*
X310190476Y-209692914D02*
X310238095Y-209597676D01*
X310238095Y-209597676D02*
X310333333Y-209502438D01*
X310333333Y-209502438D02*
X310476190Y-209454819D01*
X310476190Y-209454819D02*
X310571428Y-209454819D01*
X310571428Y-209454819D02*
X310714285Y-209502438D01*
X310714285Y-209502438D02*
X310761904Y-209550057D01*
X310952381Y-210550057D02*
X311714285Y-210550057D01*
X312238095Y-209454819D02*
X312238095Y-210169104D01*
X312238095Y-210169104D02*
X312190476Y-210311961D01*
X312190476Y-210311961D02*
X312095238Y-210407200D01*
X312095238Y-210407200D02*
X311952381Y-210454819D01*
X311952381Y-210454819D02*
X311857143Y-210454819D01*
X313142857Y-210454819D02*
X313142857Y-209931009D01*
X313142857Y-209931009D02*
X313095238Y-209835771D01*
X313095238Y-209835771D02*
X313000000Y-209788152D01*
X313000000Y-209788152D02*
X312809524Y-209788152D01*
X312809524Y-209788152D02*
X312714286Y-209835771D01*
X313142857Y-210407200D02*
X313047619Y-210454819D01*
X313047619Y-210454819D02*
X312809524Y-210454819D01*
X312809524Y-210454819D02*
X312714286Y-210407200D01*
X312714286Y-210407200D02*
X312666667Y-210311961D01*
X312666667Y-210311961D02*
X312666667Y-210216723D01*
X312666667Y-210216723D02*
X312714286Y-210121485D01*
X312714286Y-210121485D02*
X312809524Y-210073866D01*
X312809524Y-210073866D02*
X313047619Y-210073866D01*
X313047619Y-210073866D02*
X313142857Y-210026247D01*
X314047619Y-210407200D02*
X313952381Y-210454819D01*
X313952381Y-210454819D02*
X313761905Y-210454819D01*
X313761905Y-210454819D02*
X313666667Y-210407200D01*
X313666667Y-210407200D02*
X313619048Y-210359580D01*
X313619048Y-210359580D02*
X313571429Y-210264342D01*
X313571429Y-210264342D02*
X313571429Y-209978628D01*
X313571429Y-209978628D02*
X313619048Y-209883390D01*
X313619048Y-209883390D02*
X313666667Y-209835771D01*
X313666667Y-209835771D02*
X313761905Y-209788152D01*
X313761905Y-209788152D02*
X313952381Y-209788152D01*
X313952381Y-209788152D02*
X314047619Y-209835771D01*
X314476191Y-210454819D02*
X314476191Y-209454819D01*
X314571429Y-210073866D02*
X314857143Y-210454819D01*
X314857143Y-209788152D02*
X314476191Y-210169104D01*
X348452380Y-215454819D02*
X347880952Y-215454819D01*
X348166666Y-215454819D02*
X348166666Y-214454819D01*
X348166666Y-214454819D02*
X348071428Y-214597676D01*
X348071428Y-214597676D02*
X347976190Y-214692914D01*
X347976190Y-214692914D02*
X347880952Y-214740533D01*
X349071428Y-214454819D02*
X349166666Y-214454819D01*
X349166666Y-214454819D02*
X349261904Y-214502438D01*
X349261904Y-214502438D02*
X349309523Y-214550057D01*
X349309523Y-214550057D02*
X349357142Y-214645295D01*
X349357142Y-214645295D02*
X349404761Y-214835771D01*
X349404761Y-214835771D02*
X349404761Y-215073866D01*
X349404761Y-215073866D02*
X349357142Y-215264342D01*
X349357142Y-215264342D02*
X349309523Y-215359580D01*
X349309523Y-215359580D02*
X349261904Y-215407200D01*
X349261904Y-215407200D02*
X349166666Y-215454819D01*
X349166666Y-215454819D02*
X349071428Y-215454819D01*
X349071428Y-215454819D02*
X348976190Y-215407200D01*
X348976190Y-215407200D02*
X348928571Y-215359580D01*
X348928571Y-215359580D02*
X348880952Y-215264342D01*
X348880952Y-215264342D02*
X348833333Y-215073866D01*
X348833333Y-215073866D02*
X348833333Y-214835771D01*
X348833333Y-214835771D02*
X348880952Y-214645295D01*
X348880952Y-214645295D02*
X348928571Y-214550057D01*
X348928571Y-214550057D02*
X348976190Y-214502438D01*
X348976190Y-214502438D02*
X349071428Y-214454819D01*
X350023809Y-214454819D02*
X350119047Y-214454819D01*
X350119047Y-214454819D02*
X350214285Y-214502438D01*
X350214285Y-214502438D02*
X350261904Y-214550057D01*
X350261904Y-214550057D02*
X350309523Y-214645295D01*
X350309523Y-214645295D02*
X350357142Y-214835771D01*
X350357142Y-214835771D02*
X350357142Y-215073866D01*
X350357142Y-215073866D02*
X350309523Y-215264342D01*
X350309523Y-215264342D02*
X350261904Y-215359580D01*
X350261904Y-215359580D02*
X350214285Y-215407200D01*
X350214285Y-215407200D02*
X350119047Y-215454819D01*
X350119047Y-215454819D02*
X350023809Y-215454819D01*
X350023809Y-215454819D02*
X349928571Y-215407200D01*
X349928571Y-215407200D02*
X349880952Y-215359580D01*
X349880952Y-215359580D02*
X349833333Y-215264342D01*
X349833333Y-215264342D02*
X349785714Y-215073866D01*
X349785714Y-215073866D02*
X349785714Y-214835771D01*
X349785714Y-214835771D02*
X349833333Y-214645295D01*
X349833333Y-214645295D02*
X349880952Y-214550057D01*
X349880952Y-214550057D02*
X349928571Y-214502438D01*
X349928571Y-214502438D02*
X350023809Y-214454819D01*
X351214285Y-214788152D02*
X351214285Y-215454819D01*
X350785714Y-214788152D02*
X350785714Y-215311961D01*
X350785714Y-215311961D02*
X350833333Y-215407200D01*
X350833333Y-215407200D02*
X350928571Y-215454819D01*
X350928571Y-215454819D02*
X351071428Y-215454819D01*
X351071428Y-215454819D02*
X351166666Y-215407200D01*
X351166666Y-215407200D02*
X351214285Y-215359580D01*
X352023809Y-214931009D02*
X351690476Y-214931009D01*
X351690476Y-215454819D02*
X351690476Y-214454819D01*
X351690476Y-214454819D02*
X352166666Y-214454819D01*
X221309524Y-315454819D02*
X221309524Y-314454819D01*
X221309524Y-314454819D02*
X221547619Y-314454819D01*
X221547619Y-314454819D02*
X221690476Y-314502438D01*
X221690476Y-314502438D02*
X221785714Y-314597676D01*
X221785714Y-314597676D02*
X221833333Y-314692914D01*
X221833333Y-314692914D02*
X221880952Y-314883390D01*
X221880952Y-314883390D02*
X221880952Y-315026247D01*
X221880952Y-315026247D02*
X221833333Y-315216723D01*
X221833333Y-315216723D02*
X221785714Y-315311961D01*
X221785714Y-315311961D02*
X221690476Y-315407200D01*
X221690476Y-315407200D02*
X221547619Y-315454819D01*
X221547619Y-315454819D02*
X221309524Y-315454819D01*
X222309524Y-315454819D02*
X222309524Y-314454819D01*
X222785714Y-315454819D02*
X222785714Y-314454819D01*
X222785714Y-314454819D02*
X223357142Y-315454819D01*
X223357142Y-315454819D02*
X223357142Y-314454819D01*
X223833333Y-315073866D02*
X224595238Y-315073866D01*
X225499999Y-314454819D02*
X225309523Y-314454819D01*
X225309523Y-314454819D02*
X225214285Y-314502438D01*
X225214285Y-314502438D02*
X225166666Y-314550057D01*
X225166666Y-314550057D02*
X225071428Y-314692914D01*
X225071428Y-314692914D02*
X225023809Y-314883390D01*
X225023809Y-314883390D02*
X225023809Y-315264342D01*
X225023809Y-315264342D02*
X225071428Y-315359580D01*
X225071428Y-315359580D02*
X225119047Y-315407200D01*
X225119047Y-315407200D02*
X225214285Y-315454819D01*
X225214285Y-315454819D02*
X225404761Y-315454819D01*
X225404761Y-315454819D02*
X225499999Y-315407200D01*
X225499999Y-315407200D02*
X225547618Y-315359580D01*
X225547618Y-315359580D02*
X225595237Y-315264342D01*
X225595237Y-315264342D02*
X225595237Y-315026247D01*
X225595237Y-315026247D02*
X225547618Y-314931009D01*
X225547618Y-314931009D02*
X225499999Y-314883390D01*
X225499999Y-314883390D02*
X225404761Y-314835771D01*
X225404761Y-314835771D02*
X225214285Y-314835771D01*
X225214285Y-314835771D02*
X225119047Y-314883390D01*
X225119047Y-314883390D02*
X225071428Y-314931009D01*
X225071428Y-314931009D02*
X225023809Y-315026247D01*
X225785714Y-315550057D02*
X226547618Y-315550057D01*
X226785714Y-315454819D02*
X226785714Y-314454819D01*
X227261904Y-314931009D02*
X227595237Y-314931009D01*
X227738094Y-315454819D02*
X227261904Y-315454819D01*
X227261904Y-315454819D02*
X227261904Y-314454819D01*
X227261904Y-314454819D02*
X227738094Y-314454819D01*
X228738094Y-315359580D02*
X228690475Y-315407200D01*
X228690475Y-315407200D02*
X228547618Y-315454819D01*
X228547618Y-315454819D02*
X228452380Y-315454819D01*
X228452380Y-315454819D02*
X228309523Y-315407200D01*
X228309523Y-315407200D02*
X228214285Y-315311961D01*
X228214285Y-315311961D02*
X228166666Y-315216723D01*
X228166666Y-315216723D02*
X228119047Y-315026247D01*
X228119047Y-315026247D02*
X228119047Y-314883390D01*
X228119047Y-314883390D02*
X228166666Y-314692914D01*
X228166666Y-314692914D02*
X228214285Y-314597676D01*
X228214285Y-314597676D02*
X228309523Y-314502438D01*
X228309523Y-314502438D02*
X228452380Y-314454819D01*
X228452380Y-314454819D02*
X228547618Y-314454819D01*
X228547618Y-314454819D02*
X228690475Y-314502438D01*
X228690475Y-314502438D02*
X228738094Y-314550057D01*
X237880952Y-246454819D02*
X237309524Y-246454819D01*
X237595238Y-246454819D02*
X237595238Y-245454819D01*
X237595238Y-245454819D02*
X237500000Y-245597676D01*
X237500000Y-245597676D02*
X237404762Y-245692914D01*
X237404762Y-245692914D02*
X237309524Y-245740533D01*
X238309524Y-246454819D02*
X238309524Y-245454819D01*
X238404762Y-246073866D02*
X238690476Y-246454819D01*
X238690476Y-245788152D02*
X238309524Y-246169104D01*
X237880952Y-259454819D02*
X237309524Y-259454819D01*
X237595238Y-259454819D02*
X237595238Y-258454819D01*
X237595238Y-258454819D02*
X237500000Y-258597676D01*
X237500000Y-258597676D02*
X237404762Y-258692914D01*
X237404762Y-258692914D02*
X237309524Y-258740533D01*
X238309524Y-259454819D02*
X238309524Y-258454819D01*
X238404762Y-259073866D02*
X238690476Y-259454819D01*
X238690476Y-258788152D02*
X238309524Y-259169104D01*
X237880952Y-272454819D02*
X237309524Y-272454819D01*
X237595238Y-272454819D02*
X237595238Y-271454819D01*
X237595238Y-271454819D02*
X237500000Y-271597676D01*
X237500000Y-271597676D02*
X237404762Y-271692914D01*
X237404762Y-271692914D02*
X237309524Y-271740533D01*
X238309524Y-272454819D02*
X238309524Y-271454819D01*
X238404762Y-272073866D02*
X238690476Y-272454819D01*
X238690476Y-271788152D02*
X238309524Y-272169104D01*
X237880952Y-285454819D02*
X237309524Y-285454819D01*
X237595238Y-285454819D02*
X237595238Y-284454819D01*
X237595238Y-284454819D02*
X237500000Y-284597676D01*
X237500000Y-284597676D02*
X237404762Y-284692914D01*
X237404762Y-284692914D02*
X237309524Y-284740533D01*
X238309524Y-285454819D02*
X238309524Y-284454819D01*
X238404762Y-285073866D02*
X238690476Y-285454819D01*
X238690476Y-284788152D02*
X238309524Y-285169104D01*
X257071428Y-265788152D02*
X257071428Y-266454819D01*
X256833333Y-265407200D02*
X256595238Y-266121485D01*
X256595238Y-266121485D02*
X257214285Y-266121485D01*
X257595238Y-266359580D02*
X257642857Y-266407200D01*
X257642857Y-266407200D02*
X257595238Y-266454819D01*
X257595238Y-266454819D02*
X257547619Y-266407200D01*
X257547619Y-266407200D02*
X257595238Y-266359580D01*
X257595238Y-266359580D02*
X257595238Y-266454819D01*
X257976190Y-265454819D02*
X258642856Y-265454819D01*
X258642856Y-265454819D02*
X258214285Y-266454819D01*
X259023809Y-266454819D02*
X259023809Y-265454819D01*
X259119047Y-266073866D02*
X259404761Y-266454819D01*
X259404761Y-265788152D02*
X259023809Y-266169104D01*
X257071428Y-277788152D02*
X257071428Y-278454819D01*
X256833333Y-277407200D02*
X256595238Y-278121485D01*
X256595238Y-278121485D02*
X257214285Y-278121485D01*
X257595238Y-278359580D02*
X257642857Y-278407200D01*
X257642857Y-278407200D02*
X257595238Y-278454819D01*
X257595238Y-278454819D02*
X257547619Y-278407200D01*
X257547619Y-278407200D02*
X257595238Y-278359580D01*
X257595238Y-278359580D02*
X257595238Y-278454819D01*
X257976190Y-277454819D02*
X258642856Y-277454819D01*
X258642856Y-277454819D02*
X258214285Y-278454819D01*
X259023809Y-278454819D02*
X259023809Y-277454819D01*
X259119047Y-278073866D02*
X259404761Y-278454819D01*
X259404761Y-277788152D02*
X259023809Y-278169104D01*
X257071428Y-289788152D02*
X257071428Y-290454819D01*
X256833333Y-289407200D02*
X256595238Y-290121485D01*
X256595238Y-290121485D02*
X257214285Y-290121485D01*
X257595238Y-290359580D02*
X257642857Y-290407200D01*
X257642857Y-290407200D02*
X257595238Y-290454819D01*
X257595238Y-290454819D02*
X257547619Y-290407200D01*
X257547619Y-290407200D02*
X257595238Y-290359580D01*
X257595238Y-290359580D02*
X257595238Y-290454819D01*
X257976190Y-289454819D02*
X258642856Y-289454819D01*
X258642856Y-289454819D02*
X258214285Y-290454819D01*
X259023809Y-290454819D02*
X259023809Y-289454819D01*
X259119047Y-290073866D02*
X259404761Y-290454819D01*
X259404761Y-289788152D02*
X259023809Y-290169104D01*
X326642857Y-269169104D02*
X327119047Y-269169104D01*
X326547619Y-269454819D02*
X326880952Y-268454819D01*
X326880952Y-268454819D02*
X327214285Y-269454819D01*
X327547619Y-269454819D02*
X327547619Y-268788152D01*
X327547619Y-268978628D02*
X327595238Y-268883390D01*
X327595238Y-268883390D02*
X327642857Y-268835771D01*
X327642857Y-268835771D02*
X327738095Y-268788152D01*
X327738095Y-268788152D02*
X327833333Y-268788152D01*
X328595238Y-269454819D02*
X328595238Y-268454819D01*
X328595238Y-269407200D02*
X328500000Y-269454819D01*
X328500000Y-269454819D02*
X328309524Y-269454819D01*
X328309524Y-269454819D02*
X328214286Y-269407200D01*
X328214286Y-269407200D02*
X328166667Y-269359580D01*
X328166667Y-269359580D02*
X328119048Y-269264342D01*
X328119048Y-269264342D02*
X328119048Y-268978628D01*
X328119048Y-268978628D02*
X328166667Y-268883390D01*
X328166667Y-268883390D02*
X328214286Y-268835771D01*
X328214286Y-268835771D02*
X328309524Y-268788152D01*
X328309524Y-268788152D02*
X328500000Y-268788152D01*
X328500000Y-268788152D02*
X328595238Y-268835771D01*
X329500000Y-268788152D02*
X329500000Y-269454819D01*
X329071429Y-268788152D02*
X329071429Y-269311961D01*
X329071429Y-269311961D02*
X329119048Y-269407200D01*
X329119048Y-269407200D02*
X329214286Y-269454819D01*
X329214286Y-269454819D02*
X329357143Y-269454819D01*
X329357143Y-269454819D02*
X329452381Y-269407200D01*
X329452381Y-269407200D02*
X329500000Y-269359580D01*
X329976191Y-269454819D02*
X329976191Y-268788152D01*
X329976191Y-268454819D02*
X329928572Y-268502438D01*
X329928572Y-268502438D02*
X329976191Y-268550057D01*
X329976191Y-268550057D02*
X330023810Y-268502438D01*
X330023810Y-268502438D02*
X329976191Y-268454819D01*
X329976191Y-268454819D02*
X329976191Y-268550057D01*
X330452381Y-268788152D02*
X330452381Y-269454819D01*
X330452381Y-268883390D02*
X330500000Y-268835771D01*
X330500000Y-268835771D02*
X330595238Y-268788152D01*
X330595238Y-268788152D02*
X330738095Y-268788152D01*
X330738095Y-268788152D02*
X330833333Y-268835771D01*
X330833333Y-268835771D02*
X330880952Y-268931009D01*
X330880952Y-268931009D02*
X330880952Y-269454819D01*
X331500000Y-269454819D02*
X331404762Y-269407200D01*
X331404762Y-269407200D02*
X331357143Y-269359580D01*
X331357143Y-269359580D02*
X331309524Y-269264342D01*
X331309524Y-269264342D02*
X331309524Y-268978628D01*
X331309524Y-268978628D02*
X331357143Y-268883390D01*
X331357143Y-268883390D02*
X331404762Y-268835771D01*
X331404762Y-268835771D02*
X331500000Y-268788152D01*
X331500000Y-268788152D02*
X331642857Y-268788152D01*
X331642857Y-268788152D02*
X331738095Y-268835771D01*
X331738095Y-268835771D02*
X331785714Y-268883390D01*
X331785714Y-268883390D02*
X331833333Y-268978628D01*
X331833333Y-268978628D02*
X331833333Y-269264342D01*
X331833333Y-269264342D02*
X331785714Y-269359580D01*
X331785714Y-269359580D02*
X331738095Y-269407200D01*
X331738095Y-269407200D02*
X331642857Y-269454819D01*
X331642857Y-269454819D02*
X331500000Y-269454819D01*
X332023810Y-269550057D02*
X332785714Y-269550057D01*
X333023810Y-269454819D02*
X333023810Y-268454819D01*
X333023810Y-268454819D02*
X333595238Y-269454819D01*
X333595238Y-269454819D02*
X333595238Y-268454819D01*
X334500000Y-269454819D02*
X334500000Y-268931009D01*
X334500000Y-268931009D02*
X334452381Y-268835771D01*
X334452381Y-268835771D02*
X334357143Y-268788152D01*
X334357143Y-268788152D02*
X334166667Y-268788152D01*
X334166667Y-268788152D02*
X334071429Y-268835771D01*
X334500000Y-269407200D02*
X334404762Y-269454819D01*
X334404762Y-269454819D02*
X334166667Y-269454819D01*
X334166667Y-269454819D02*
X334071429Y-269407200D01*
X334071429Y-269407200D02*
X334023810Y-269311961D01*
X334023810Y-269311961D02*
X334023810Y-269216723D01*
X334023810Y-269216723D02*
X334071429Y-269121485D01*
X334071429Y-269121485D02*
X334166667Y-269073866D01*
X334166667Y-269073866D02*
X334404762Y-269073866D01*
X334404762Y-269073866D02*
X334500000Y-269026247D01*
X334976191Y-268788152D02*
X334976191Y-269454819D01*
X334976191Y-268883390D02*
X335023810Y-268835771D01*
X335023810Y-268835771D02*
X335119048Y-268788152D01*
X335119048Y-268788152D02*
X335261905Y-268788152D01*
X335261905Y-268788152D02*
X335357143Y-268835771D01*
X335357143Y-268835771D02*
X335404762Y-268931009D01*
X335404762Y-268931009D02*
X335404762Y-269454819D01*
X336023810Y-269454819D02*
X335928572Y-269407200D01*
X335928572Y-269407200D02*
X335880953Y-269359580D01*
X335880953Y-269359580D02*
X335833334Y-269264342D01*
X335833334Y-269264342D02*
X335833334Y-268978628D01*
X335833334Y-268978628D02*
X335880953Y-268883390D01*
X335880953Y-268883390D02*
X335928572Y-268835771D01*
X335928572Y-268835771D02*
X336023810Y-268788152D01*
X336023810Y-268788152D02*
X336166667Y-268788152D01*
X336166667Y-268788152D02*
X336261905Y-268835771D01*
X336261905Y-268835771D02*
X336309524Y-268883390D01*
X336309524Y-268883390D02*
X336357143Y-268978628D01*
X336357143Y-268978628D02*
X336357143Y-269264342D01*
X336357143Y-269264342D02*
X336309524Y-269359580D01*
X336309524Y-269359580D02*
X336261905Y-269407200D01*
X336261905Y-269407200D02*
X336166667Y-269454819D01*
X336166667Y-269454819D02*
X336023810Y-269454819D01*
X266404762Y-348550057D02*
X266452381Y-348502438D01*
X266452381Y-348502438D02*
X266547619Y-348454819D01*
X266547619Y-348454819D02*
X266785714Y-348454819D01*
X266785714Y-348454819D02*
X266880952Y-348502438D01*
X266880952Y-348502438D02*
X266928571Y-348550057D01*
X266928571Y-348550057D02*
X266976190Y-348645295D01*
X266976190Y-348645295D02*
X266976190Y-348740533D01*
X266976190Y-348740533D02*
X266928571Y-348883390D01*
X266928571Y-348883390D02*
X266357143Y-349454819D01*
X266357143Y-349454819D02*
X266976190Y-349454819D01*
X267309524Y-348454819D02*
X267928571Y-348454819D01*
X267928571Y-348454819D02*
X267595238Y-348835771D01*
X267595238Y-348835771D02*
X267738095Y-348835771D01*
X267738095Y-348835771D02*
X267833333Y-348883390D01*
X267833333Y-348883390D02*
X267880952Y-348931009D01*
X267880952Y-348931009D02*
X267928571Y-349026247D01*
X267928571Y-349026247D02*
X267928571Y-349264342D01*
X267928571Y-349264342D02*
X267880952Y-349359580D01*
X267880952Y-349359580D02*
X267833333Y-349407200D01*
X267833333Y-349407200D02*
X267738095Y-349454819D01*
X267738095Y-349454819D02*
X267452381Y-349454819D01*
X267452381Y-349454819D02*
X267357143Y-349407200D01*
X267357143Y-349407200D02*
X267309524Y-349359580D01*
X268833333Y-349454819D02*
X268357143Y-349454819D01*
X268357143Y-349454819D02*
X268357143Y-348454819D01*
X269738095Y-349359580D02*
X269690476Y-349407200D01*
X269690476Y-349407200D02*
X269547619Y-349454819D01*
X269547619Y-349454819D02*
X269452381Y-349454819D01*
X269452381Y-349454819D02*
X269309524Y-349407200D01*
X269309524Y-349407200D02*
X269214286Y-349311961D01*
X269214286Y-349311961D02*
X269166667Y-349216723D01*
X269166667Y-349216723D02*
X269119048Y-349026247D01*
X269119048Y-349026247D02*
X269119048Y-348883390D01*
X269119048Y-348883390D02*
X269166667Y-348692914D01*
X269166667Y-348692914D02*
X269214286Y-348597676D01*
X269214286Y-348597676D02*
X269309524Y-348502438D01*
X269309524Y-348502438D02*
X269452381Y-348454819D01*
X269452381Y-348454819D02*
X269547619Y-348454819D01*
X269547619Y-348454819D02*
X269690476Y-348502438D01*
X269690476Y-348502438D02*
X269738095Y-348550057D01*
X270119048Y-348550057D02*
X270166667Y-348502438D01*
X270166667Y-348502438D02*
X270261905Y-348454819D01*
X270261905Y-348454819D02*
X270500000Y-348454819D01*
X270500000Y-348454819D02*
X270595238Y-348502438D01*
X270595238Y-348502438D02*
X270642857Y-348550057D01*
X270642857Y-348550057D02*
X270690476Y-348645295D01*
X270690476Y-348645295D02*
X270690476Y-348740533D01*
X270690476Y-348740533D02*
X270642857Y-348883390D01*
X270642857Y-348883390D02*
X270071429Y-349454819D01*
X270071429Y-349454819D02*
X270690476Y-349454819D01*
X271595238Y-348454819D02*
X271119048Y-348454819D01*
X271119048Y-348454819D02*
X271071429Y-348931009D01*
X271071429Y-348931009D02*
X271119048Y-348883390D01*
X271119048Y-348883390D02*
X271214286Y-348835771D01*
X271214286Y-348835771D02*
X271452381Y-348835771D01*
X271452381Y-348835771D02*
X271547619Y-348883390D01*
X271547619Y-348883390D02*
X271595238Y-348931009D01*
X271595238Y-348931009D02*
X271642857Y-349026247D01*
X271642857Y-349026247D02*
X271642857Y-349264342D01*
X271642857Y-349264342D02*
X271595238Y-349359580D01*
X271595238Y-349359580D02*
X271547619Y-349407200D01*
X271547619Y-349407200D02*
X271452381Y-349454819D01*
X271452381Y-349454819D02*
X271214286Y-349454819D01*
X271214286Y-349454819D02*
X271119048Y-349407200D01*
X271119048Y-349407200D02*
X271071429Y-349359580D01*
X272500000Y-348454819D02*
X272309524Y-348454819D01*
X272309524Y-348454819D02*
X272214286Y-348502438D01*
X272214286Y-348502438D02*
X272166667Y-348550057D01*
X272166667Y-348550057D02*
X272071429Y-348692914D01*
X272071429Y-348692914D02*
X272023810Y-348883390D01*
X272023810Y-348883390D02*
X272023810Y-349264342D01*
X272023810Y-349264342D02*
X272071429Y-349359580D01*
X272071429Y-349359580D02*
X272119048Y-349407200D01*
X272119048Y-349407200D02*
X272214286Y-349454819D01*
X272214286Y-349454819D02*
X272404762Y-349454819D01*
X272404762Y-349454819D02*
X272500000Y-349407200D01*
X272500000Y-349407200D02*
X272547619Y-349359580D01*
X272547619Y-349359580D02*
X272595238Y-349264342D01*
X272595238Y-349264342D02*
X272595238Y-349026247D01*
X272595238Y-349026247D02*
X272547619Y-348931009D01*
X272547619Y-348931009D02*
X272500000Y-348883390D01*
X272500000Y-348883390D02*
X272404762Y-348835771D01*
X272404762Y-348835771D02*
X272214286Y-348835771D01*
X272214286Y-348835771D02*
X272119048Y-348883390D01*
X272119048Y-348883390D02*
X272071429Y-348931009D01*
X272071429Y-348931009D02*
X272023810Y-349026247D01*
X340238095Y-344454819D02*
X340904761Y-344454819D01*
X340904761Y-344454819D02*
X340476190Y-345454819D01*
X341714285Y-344788152D02*
X341714285Y-345454819D01*
X341476190Y-344407200D02*
X341238095Y-345121485D01*
X341238095Y-345121485D02*
X341857142Y-345121485D01*
X342238095Y-345454819D02*
X342238095Y-344454819D01*
X342238095Y-344931009D02*
X342809523Y-344931009D01*
X342809523Y-345454819D02*
X342809523Y-344454819D01*
X343857142Y-345359580D02*
X343809523Y-345407200D01*
X343809523Y-345407200D02*
X343666666Y-345454819D01*
X343666666Y-345454819D02*
X343571428Y-345454819D01*
X343571428Y-345454819D02*
X343428571Y-345407200D01*
X343428571Y-345407200D02*
X343333333Y-345311961D01*
X343333333Y-345311961D02*
X343285714Y-345216723D01*
X343285714Y-345216723D02*
X343238095Y-345026247D01*
X343238095Y-345026247D02*
X343238095Y-344883390D01*
X343238095Y-344883390D02*
X343285714Y-344692914D01*
X343285714Y-344692914D02*
X343333333Y-344597676D01*
X343333333Y-344597676D02*
X343428571Y-344502438D01*
X343428571Y-344502438D02*
X343571428Y-344454819D01*
X343571428Y-344454819D02*
X343666666Y-344454819D01*
X343666666Y-344454819D02*
X343809523Y-344502438D01*
X343809523Y-344502438D02*
X343857142Y-344550057D01*
X344761904Y-344454819D02*
X344285714Y-344454819D01*
X344285714Y-344454819D02*
X344238095Y-344931009D01*
X344238095Y-344931009D02*
X344285714Y-344883390D01*
X344285714Y-344883390D02*
X344380952Y-344835771D01*
X344380952Y-344835771D02*
X344619047Y-344835771D01*
X344619047Y-344835771D02*
X344714285Y-344883390D01*
X344714285Y-344883390D02*
X344761904Y-344931009D01*
X344761904Y-344931009D02*
X344809523Y-345026247D01*
X344809523Y-345026247D02*
X344809523Y-345264342D01*
X344809523Y-345264342D02*
X344761904Y-345359580D01*
X344761904Y-345359580D02*
X344714285Y-345407200D01*
X344714285Y-345407200D02*
X344619047Y-345454819D01*
X344619047Y-345454819D02*
X344380952Y-345454819D01*
X344380952Y-345454819D02*
X344285714Y-345407200D01*
X344285714Y-345407200D02*
X344238095Y-345359580D01*
X345285714Y-345454819D02*
X345476190Y-345454819D01*
X345476190Y-345454819D02*
X345571428Y-345407200D01*
X345571428Y-345407200D02*
X345619047Y-345359580D01*
X345619047Y-345359580D02*
X345714285Y-345216723D01*
X345714285Y-345216723D02*
X345761904Y-345026247D01*
X345761904Y-345026247D02*
X345761904Y-344645295D01*
X345761904Y-344645295D02*
X345714285Y-344550057D01*
X345714285Y-344550057D02*
X345666666Y-344502438D01*
X345666666Y-344502438D02*
X345571428Y-344454819D01*
X345571428Y-344454819D02*
X345380952Y-344454819D01*
X345380952Y-344454819D02*
X345285714Y-344502438D01*
X345285714Y-344502438D02*
X345238095Y-344550057D01*
X345238095Y-344550057D02*
X345190476Y-344645295D01*
X345190476Y-344645295D02*
X345190476Y-344883390D01*
X345190476Y-344883390D02*
X345238095Y-344978628D01*
X345238095Y-344978628D02*
X345285714Y-345026247D01*
X345285714Y-345026247D02*
X345380952Y-345073866D01*
X345380952Y-345073866D02*
X345571428Y-345073866D01*
X345571428Y-345073866D02*
X345666666Y-345026247D01*
X345666666Y-345026247D02*
X345714285Y-344978628D01*
X345714285Y-344978628D02*
X345761904Y-344883390D01*
X346666666Y-344454819D02*
X346190476Y-344454819D01*
X346190476Y-344454819D02*
X346142857Y-344931009D01*
X346142857Y-344931009D02*
X346190476Y-344883390D01*
X346190476Y-344883390D02*
X346285714Y-344835771D01*
X346285714Y-344835771D02*
X346523809Y-344835771D01*
X346523809Y-344835771D02*
X346619047Y-344883390D01*
X346619047Y-344883390D02*
X346666666Y-344931009D01*
X346666666Y-344931009D02*
X346714285Y-345026247D01*
X346714285Y-345026247D02*
X346714285Y-345264342D01*
X346714285Y-345264342D02*
X346666666Y-345359580D01*
X346666666Y-345359580D02*
X346619047Y-345407200D01*
X346619047Y-345407200D02*
X346523809Y-345454819D01*
X346523809Y-345454819D02*
X346285714Y-345454819D01*
X346285714Y-345454819D02*
X346190476Y-345407200D01*
X346190476Y-345407200D02*
X346142857Y-345359580D01*
X452666666Y-272931009D02*
X452333333Y-272931009D01*
X452333333Y-273454819D02*
X452333333Y-272454819D01*
X452333333Y-272454819D02*
X452809523Y-272454819D01*
X453333333Y-273454819D02*
X453238095Y-273407200D01*
X453238095Y-273407200D02*
X453190476Y-273311961D01*
X453190476Y-273311961D02*
X453190476Y-272454819D01*
X453857143Y-273454819D02*
X453761905Y-273407200D01*
X453761905Y-273407200D02*
X453714286Y-273359580D01*
X453714286Y-273359580D02*
X453666667Y-273264342D01*
X453666667Y-273264342D02*
X453666667Y-272978628D01*
X453666667Y-272978628D02*
X453714286Y-272883390D01*
X453714286Y-272883390D02*
X453761905Y-272835771D01*
X453761905Y-272835771D02*
X453857143Y-272788152D01*
X453857143Y-272788152D02*
X454000000Y-272788152D01*
X454000000Y-272788152D02*
X454095238Y-272835771D01*
X454095238Y-272835771D02*
X454142857Y-272883390D01*
X454142857Y-272883390D02*
X454190476Y-272978628D01*
X454190476Y-272978628D02*
X454190476Y-273264342D01*
X454190476Y-273264342D02*
X454142857Y-273359580D01*
X454142857Y-273359580D02*
X454095238Y-273407200D01*
X454095238Y-273407200D02*
X454000000Y-273454819D01*
X454000000Y-273454819D02*
X453857143Y-273454819D01*
X454619048Y-272788152D02*
X454619048Y-273788152D01*
X454619048Y-272835771D02*
X454714286Y-272788152D01*
X454714286Y-272788152D02*
X454904762Y-272788152D01*
X454904762Y-272788152D02*
X455000000Y-272835771D01*
X455000000Y-272835771D02*
X455047619Y-272883390D01*
X455047619Y-272883390D02*
X455095238Y-272978628D01*
X455095238Y-272978628D02*
X455095238Y-273264342D01*
X455095238Y-273264342D02*
X455047619Y-273359580D01*
X455047619Y-273359580D02*
X455000000Y-273407200D01*
X455000000Y-273407200D02*
X454904762Y-273454819D01*
X454904762Y-273454819D02*
X454714286Y-273454819D01*
X454714286Y-273454819D02*
X454619048Y-273407200D01*
X455523810Y-272788152D02*
X455523810Y-273788152D01*
X455523810Y-272835771D02*
X455619048Y-272788152D01*
X455619048Y-272788152D02*
X455809524Y-272788152D01*
X455809524Y-272788152D02*
X455904762Y-272835771D01*
X455904762Y-272835771D02*
X455952381Y-272883390D01*
X455952381Y-272883390D02*
X456000000Y-272978628D01*
X456000000Y-272978628D02*
X456000000Y-273264342D01*
X456000000Y-273264342D02*
X455952381Y-273359580D01*
X455952381Y-273359580D02*
X455904762Y-273407200D01*
X455904762Y-273407200D02*
X455809524Y-273454819D01*
X455809524Y-273454819D02*
X455619048Y-273454819D01*
X455619048Y-273454819D02*
X455523810Y-273407200D01*
X456333334Y-272788152D02*
X456571429Y-273454819D01*
X456809524Y-272788152D02*
X456571429Y-273454819D01*
X456571429Y-273454819D02*
X456476191Y-273692914D01*
X456476191Y-273692914D02*
X456428572Y-273740533D01*
X456428572Y-273740533D02*
X456333334Y-273788152D01*
X456952382Y-273550057D02*
X457714286Y-273550057D01*
X457857144Y-272454819D02*
X458476191Y-272454819D01*
X458476191Y-272454819D02*
X458142858Y-272835771D01*
X458142858Y-272835771D02*
X458285715Y-272835771D01*
X458285715Y-272835771D02*
X458380953Y-272883390D01*
X458380953Y-272883390D02*
X458428572Y-272931009D01*
X458428572Y-272931009D02*
X458476191Y-273026247D01*
X458476191Y-273026247D02*
X458476191Y-273264342D01*
X458476191Y-273264342D02*
X458428572Y-273359580D01*
X458428572Y-273359580D02*
X458380953Y-273407200D01*
X458380953Y-273407200D02*
X458285715Y-273454819D01*
X458285715Y-273454819D02*
X458000001Y-273454819D01*
X458000001Y-273454819D02*
X457904763Y-273407200D01*
X457904763Y-273407200D02*
X457857144Y-273359580D01*
X459333334Y-272788152D02*
X459333334Y-273454819D01*
X459095239Y-272407200D02*
X458857144Y-273121485D01*
X458857144Y-273121485D02*
X459476191Y-273121485D01*
X459857144Y-272788152D02*
X459857144Y-273788152D01*
X459857144Y-272835771D02*
X459952382Y-272788152D01*
X459952382Y-272788152D02*
X460142858Y-272788152D01*
X460142858Y-272788152D02*
X460238096Y-272835771D01*
X460238096Y-272835771D02*
X460285715Y-272883390D01*
X460285715Y-272883390D02*
X460333334Y-272978628D01*
X460333334Y-272978628D02*
X460333334Y-273264342D01*
X460333334Y-273264342D02*
X460285715Y-273359580D01*
X460285715Y-273359580D02*
X460238096Y-273407200D01*
X460238096Y-273407200D02*
X460142858Y-273454819D01*
X460142858Y-273454819D02*
X459952382Y-273454819D01*
X459952382Y-273454819D02*
X459857144Y-273407200D01*
X460761906Y-273454819D02*
X460761906Y-272788152D01*
X460761906Y-272454819D02*
X460714287Y-272502438D01*
X460714287Y-272502438D02*
X460761906Y-272550057D01*
X460761906Y-272550057D02*
X460809525Y-272502438D01*
X460809525Y-272502438D02*
X460761906Y-272454819D01*
X460761906Y-272454819D02*
X460761906Y-272550057D01*
X461238096Y-272788152D02*
X461238096Y-273454819D01*
X461238096Y-272883390D02*
X461285715Y-272835771D01*
X461285715Y-272835771D02*
X461380953Y-272788152D01*
X461380953Y-272788152D02*
X461523810Y-272788152D01*
X461523810Y-272788152D02*
X461619048Y-272835771D01*
X461619048Y-272835771D02*
X461666667Y-272931009D01*
X461666667Y-272931009D02*
X461666667Y-273454819D01*
X287714286Y-336454819D02*
X288333333Y-336454819D01*
X288333333Y-336454819D02*
X288000000Y-336835771D01*
X288000000Y-336835771D02*
X288142857Y-336835771D01*
X288142857Y-336835771D02*
X288238095Y-336883390D01*
X288238095Y-336883390D02*
X288285714Y-336931009D01*
X288285714Y-336931009D02*
X288333333Y-337026247D01*
X288333333Y-337026247D02*
X288333333Y-337264342D01*
X288333333Y-337264342D02*
X288285714Y-337359580D01*
X288285714Y-337359580D02*
X288238095Y-337407200D01*
X288238095Y-337407200D02*
X288142857Y-337454819D01*
X288142857Y-337454819D02*
X287857143Y-337454819D01*
X287857143Y-337454819D02*
X287761905Y-337407200D01*
X287761905Y-337407200D02*
X287714286Y-337359580D01*
X288666667Y-336454819D02*
X289285714Y-336454819D01*
X289285714Y-336454819D02*
X288952381Y-336835771D01*
X288952381Y-336835771D02*
X289095238Y-336835771D01*
X289095238Y-336835771D02*
X289190476Y-336883390D01*
X289190476Y-336883390D02*
X289238095Y-336931009D01*
X289238095Y-336931009D02*
X289285714Y-337026247D01*
X289285714Y-337026247D02*
X289285714Y-337264342D01*
X289285714Y-337264342D02*
X289238095Y-337359580D01*
X289238095Y-337359580D02*
X289190476Y-337407200D01*
X289190476Y-337407200D02*
X289095238Y-337454819D01*
X289095238Y-337454819D02*
X288809524Y-337454819D01*
X288809524Y-337454819D02*
X288714286Y-337407200D01*
X288714286Y-337407200D02*
X288666667Y-337359580D01*
X289904762Y-336454819D02*
X290000000Y-336454819D01*
X290000000Y-336454819D02*
X290095238Y-336502438D01*
X290095238Y-336502438D02*
X290142857Y-336550057D01*
X290142857Y-336550057D02*
X290190476Y-336645295D01*
X290190476Y-336645295D02*
X290238095Y-336835771D01*
X290238095Y-336835771D02*
X290238095Y-337073866D01*
X290238095Y-337073866D02*
X290190476Y-337264342D01*
X290190476Y-337264342D02*
X290142857Y-337359580D01*
X290142857Y-337359580D02*
X290095238Y-337407200D01*
X290095238Y-337407200D02*
X290000000Y-337454819D01*
X290000000Y-337454819D02*
X289904762Y-337454819D01*
X289904762Y-337454819D02*
X289809524Y-337407200D01*
X289809524Y-337407200D02*
X289761905Y-337359580D01*
X289761905Y-337359580D02*
X289714286Y-337264342D01*
X289714286Y-337264342D02*
X289666667Y-337073866D01*
X289666667Y-337073866D02*
X289666667Y-336835771D01*
X289666667Y-336835771D02*
X289714286Y-336645295D01*
X289714286Y-336645295D02*
X289761905Y-336550057D01*
X289761905Y-336550057D02*
X289809524Y-336502438D01*
X289809524Y-336502438D02*
X289904762Y-336454819D01*
X272357142Y-337454819D02*
X271880952Y-337454819D01*
X271880952Y-337454819D02*
X271880952Y-336454819D01*
X272690476Y-336931009D02*
X273023809Y-336931009D01*
X273166666Y-337454819D02*
X272690476Y-337454819D01*
X272690476Y-337454819D02*
X272690476Y-336454819D01*
X272690476Y-336454819D02*
X273166666Y-336454819D01*
X273595238Y-337454819D02*
X273595238Y-336454819D01*
X273595238Y-336454819D02*
X273833333Y-336454819D01*
X273833333Y-336454819D02*
X273976190Y-336502438D01*
X273976190Y-336502438D02*
X274071428Y-336597676D01*
X274071428Y-336597676D02*
X274119047Y-336692914D01*
X274119047Y-336692914D02*
X274166666Y-336883390D01*
X274166666Y-336883390D02*
X274166666Y-337026247D01*
X274166666Y-337026247D02*
X274119047Y-337216723D01*
X274119047Y-337216723D02*
X274071428Y-337311961D01*
X274071428Y-337311961D02*
X273976190Y-337407200D01*
X273976190Y-337407200D02*
X273833333Y-337454819D01*
X273833333Y-337454819D02*
X273595238Y-337454819D01*
X155904761Y-121454819D02*
X155333333Y-121454819D01*
X155619047Y-121454819D02*
X155619047Y-120454819D01*
X155619047Y-120454819D02*
X155523809Y-120597676D01*
X155523809Y-120597676D02*
X155428571Y-120692914D01*
X155428571Y-120692914D02*
X155333333Y-120740533D01*
X156523809Y-120454819D02*
X156619047Y-120454819D01*
X156619047Y-120454819D02*
X156714285Y-120502438D01*
X156714285Y-120502438D02*
X156761904Y-120550057D01*
X156761904Y-120550057D02*
X156809523Y-120645295D01*
X156809523Y-120645295D02*
X156857142Y-120835771D01*
X156857142Y-120835771D02*
X156857142Y-121073866D01*
X156857142Y-121073866D02*
X156809523Y-121264342D01*
X156809523Y-121264342D02*
X156761904Y-121359580D01*
X156761904Y-121359580D02*
X156714285Y-121407200D01*
X156714285Y-121407200D02*
X156619047Y-121454819D01*
X156619047Y-121454819D02*
X156523809Y-121454819D01*
X156523809Y-121454819D02*
X156428571Y-121407200D01*
X156428571Y-121407200D02*
X156380952Y-121359580D01*
X156380952Y-121359580D02*
X156333333Y-121264342D01*
X156333333Y-121264342D02*
X156285714Y-121073866D01*
X156285714Y-121073866D02*
X156285714Y-120835771D01*
X156285714Y-120835771D02*
X156333333Y-120645295D01*
X156333333Y-120645295D02*
X156380952Y-120550057D01*
X156380952Y-120550057D02*
X156428571Y-120502438D01*
X156428571Y-120502438D02*
X156523809Y-120454819D01*
X157285714Y-121454819D02*
X157285714Y-120454819D01*
X157380952Y-121073866D02*
X157666666Y-121454819D01*
X157666666Y-120788152D02*
X157285714Y-121169104D01*
X155904761Y-128454819D02*
X155333333Y-128454819D01*
X155619047Y-128454819D02*
X155619047Y-127454819D01*
X155619047Y-127454819D02*
X155523809Y-127597676D01*
X155523809Y-127597676D02*
X155428571Y-127692914D01*
X155428571Y-127692914D02*
X155333333Y-127740533D01*
X156523809Y-127454819D02*
X156619047Y-127454819D01*
X156619047Y-127454819D02*
X156714285Y-127502438D01*
X156714285Y-127502438D02*
X156761904Y-127550057D01*
X156761904Y-127550057D02*
X156809523Y-127645295D01*
X156809523Y-127645295D02*
X156857142Y-127835771D01*
X156857142Y-127835771D02*
X156857142Y-128073866D01*
X156857142Y-128073866D02*
X156809523Y-128264342D01*
X156809523Y-128264342D02*
X156761904Y-128359580D01*
X156761904Y-128359580D02*
X156714285Y-128407200D01*
X156714285Y-128407200D02*
X156619047Y-128454819D01*
X156619047Y-128454819D02*
X156523809Y-128454819D01*
X156523809Y-128454819D02*
X156428571Y-128407200D01*
X156428571Y-128407200D02*
X156380952Y-128359580D01*
X156380952Y-128359580D02*
X156333333Y-128264342D01*
X156333333Y-128264342D02*
X156285714Y-128073866D01*
X156285714Y-128073866D02*
X156285714Y-127835771D01*
X156285714Y-127835771D02*
X156333333Y-127645295D01*
X156333333Y-127645295D02*
X156380952Y-127550057D01*
X156380952Y-127550057D02*
X156428571Y-127502438D01*
X156428571Y-127502438D02*
X156523809Y-127454819D01*
X157285714Y-128454819D02*
X157285714Y-127454819D01*
X157380952Y-128073866D02*
X157666666Y-128454819D01*
X157666666Y-127788152D02*
X157285714Y-128169104D01*
X155904761Y-135454819D02*
X155333333Y-135454819D01*
X155619047Y-135454819D02*
X155619047Y-134454819D01*
X155619047Y-134454819D02*
X155523809Y-134597676D01*
X155523809Y-134597676D02*
X155428571Y-134692914D01*
X155428571Y-134692914D02*
X155333333Y-134740533D01*
X156523809Y-134454819D02*
X156619047Y-134454819D01*
X156619047Y-134454819D02*
X156714285Y-134502438D01*
X156714285Y-134502438D02*
X156761904Y-134550057D01*
X156761904Y-134550057D02*
X156809523Y-134645295D01*
X156809523Y-134645295D02*
X156857142Y-134835771D01*
X156857142Y-134835771D02*
X156857142Y-135073866D01*
X156857142Y-135073866D02*
X156809523Y-135264342D01*
X156809523Y-135264342D02*
X156761904Y-135359580D01*
X156761904Y-135359580D02*
X156714285Y-135407200D01*
X156714285Y-135407200D02*
X156619047Y-135454819D01*
X156619047Y-135454819D02*
X156523809Y-135454819D01*
X156523809Y-135454819D02*
X156428571Y-135407200D01*
X156428571Y-135407200D02*
X156380952Y-135359580D01*
X156380952Y-135359580D02*
X156333333Y-135264342D01*
X156333333Y-135264342D02*
X156285714Y-135073866D01*
X156285714Y-135073866D02*
X156285714Y-134835771D01*
X156285714Y-134835771D02*
X156333333Y-134645295D01*
X156333333Y-134645295D02*
X156380952Y-134550057D01*
X156380952Y-134550057D02*
X156428571Y-134502438D01*
X156428571Y-134502438D02*
X156523809Y-134454819D01*
X157285714Y-135454819D02*
X157285714Y-134454819D01*
X157380952Y-135073866D02*
X157666666Y-135454819D01*
X157666666Y-134788152D02*
X157285714Y-135169104D01*
X155904761Y-142454819D02*
X155333333Y-142454819D01*
X155619047Y-142454819D02*
X155619047Y-141454819D01*
X155619047Y-141454819D02*
X155523809Y-141597676D01*
X155523809Y-141597676D02*
X155428571Y-141692914D01*
X155428571Y-141692914D02*
X155333333Y-141740533D01*
X156523809Y-141454819D02*
X156619047Y-141454819D01*
X156619047Y-141454819D02*
X156714285Y-141502438D01*
X156714285Y-141502438D02*
X156761904Y-141550057D01*
X156761904Y-141550057D02*
X156809523Y-141645295D01*
X156809523Y-141645295D02*
X156857142Y-141835771D01*
X156857142Y-141835771D02*
X156857142Y-142073866D01*
X156857142Y-142073866D02*
X156809523Y-142264342D01*
X156809523Y-142264342D02*
X156761904Y-142359580D01*
X156761904Y-142359580D02*
X156714285Y-142407200D01*
X156714285Y-142407200D02*
X156619047Y-142454819D01*
X156619047Y-142454819D02*
X156523809Y-142454819D01*
X156523809Y-142454819D02*
X156428571Y-142407200D01*
X156428571Y-142407200D02*
X156380952Y-142359580D01*
X156380952Y-142359580D02*
X156333333Y-142264342D01*
X156333333Y-142264342D02*
X156285714Y-142073866D01*
X156285714Y-142073866D02*
X156285714Y-141835771D01*
X156285714Y-141835771D02*
X156333333Y-141645295D01*
X156333333Y-141645295D02*
X156380952Y-141550057D01*
X156380952Y-141550057D02*
X156428571Y-141502438D01*
X156428571Y-141502438D02*
X156523809Y-141454819D01*
X157285714Y-142454819D02*
X157285714Y-141454819D01*
X157380952Y-142073866D02*
X157666666Y-142454819D01*
X157666666Y-141788152D02*
X157285714Y-142169104D01*
X303452380Y-386454819D02*
X302880952Y-386454819D01*
X303166666Y-386454819D02*
X303166666Y-385454819D01*
X303166666Y-385454819D02*
X303071428Y-385597676D01*
X303071428Y-385597676D02*
X302976190Y-385692914D01*
X302976190Y-385692914D02*
X302880952Y-385740533D01*
X304071428Y-385454819D02*
X304166666Y-385454819D01*
X304166666Y-385454819D02*
X304261904Y-385502438D01*
X304261904Y-385502438D02*
X304309523Y-385550057D01*
X304309523Y-385550057D02*
X304357142Y-385645295D01*
X304357142Y-385645295D02*
X304404761Y-385835771D01*
X304404761Y-385835771D02*
X304404761Y-386073866D01*
X304404761Y-386073866D02*
X304357142Y-386264342D01*
X304357142Y-386264342D02*
X304309523Y-386359580D01*
X304309523Y-386359580D02*
X304261904Y-386407200D01*
X304261904Y-386407200D02*
X304166666Y-386454819D01*
X304166666Y-386454819D02*
X304071428Y-386454819D01*
X304071428Y-386454819D02*
X303976190Y-386407200D01*
X303976190Y-386407200D02*
X303928571Y-386359580D01*
X303928571Y-386359580D02*
X303880952Y-386264342D01*
X303880952Y-386264342D02*
X303833333Y-386073866D01*
X303833333Y-386073866D02*
X303833333Y-385835771D01*
X303833333Y-385835771D02*
X303880952Y-385645295D01*
X303880952Y-385645295D02*
X303928571Y-385550057D01*
X303928571Y-385550057D02*
X303976190Y-385502438D01*
X303976190Y-385502438D02*
X304071428Y-385454819D01*
X305023809Y-385454819D02*
X305119047Y-385454819D01*
X305119047Y-385454819D02*
X305214285Y-385502438D01*
X305214285Y-385502438D02*
X305261904Y-385550057D01*
X305261904Y-385550057D02*
X305309523Y-385645295D01*
X305309523Y-385645295D02*
X305357142Y-385835771D01*
X305357142Y-385835771D02*
X305357142Y-386073866D01*
X305357142Y-386073866D02*
X305309523Y-386264342D01*
X305309523Y-386264342D02*
X305261904Y-386359580D01*
X305261904Y-386359580D02*
X305214285Y-386407200D01*
X305214285Y-386407200D02*
X305119047Y-386454819D01*
X305119047Y-386454819D02*
X305023809Y-386454819D01*
X305023809Y-386454819D02*
X304928571Y-386407200D01*
X304928571Y-386407200D02*
X304880952Y-386359580D01*
X304880952Y-386359580D02*
X304833333Y-386264342D01*
X304833333Y-386264342D02*
X304785714Y-386073866D01*
X304785714Y-386073866D02*
X304785714Y-385835771D01*
X304785714Y-385835771D02*
X304833333Y-385645295D01*
X304833333Y-385645295D02*
X304880952Y-385550057D01*
X304880952Y-385550057D02*
X304928571Y-385502438D01*
X304928571Y-385502438D02*
X305023809Y-385454819D01*
X305785714Y-385788152D02*
X305785714Y-386454819D01*
X305785714Y-385883390D02*
X305833333Y-385835771D01*
X305833333Y-385835771D02*
X305928571Y-385788152D01*
X305928571Y-385788152D02*
X306071428Y-385788152D01*
X306071428Y-385788152D02*
X306166666Y-385835771D01*
X306166666Y-385835771D02*
X306214285Y-385931009D01*
X306214285Y-385931009D02*
X306214285Y-386454819D01*
X307023809Y-385931009D02*
X306690476Y-385931009D01*
X306690476Y-386454819D02*
X306690476Y-385454819D01*
X306690476Y-385454819D02*
X307166666Y-385454819D01*
X353952380Y-377454819D02*
X353380952Y-377454819D01*
X353666666Y-377454819D02*
X353666666Y-376454819D01*
X353666666Y-376454819D02*
X353571428Y-376597676D01*
X353571428Y-376597676D02*
X353476190Y-376692914D01*
X353476190Y-376692914D02*
X353380952Y-376740533D01*
X354571428Y-376454819D02*
X354666666Y-376454819D01*
X354666666Y-376454819D02*
X354761904Y-376502438D01*
X354761904Y-376502438D02*
X354809523Y-376550057D01*
X354809523Y-376550057D02*
X354857142Y-376645295D01*
X354857142Y-376645295D02*
X354904761Y-376835771D01*
X354904761Y-376835771D02*
X354904761Y-377073866D01*
X354904761Y-377073866D02*
X354857142Y-377264342D01*
X354857142Y-377264342D02*
X354809523Y-377359580D01*
X354809523Y-377359580D02*
X354761904Y-377407200D01*
X354761904Y-377407200D02*
X354666666Y-377454819D01*
X354666666Y-377454819D02*
X354571428Y-377454819D01*
X354571428Y-377454819D02*
X354476190Y-377407200D01*
X354476190Y-377407200D02*
X354428571Y-377359580D01*
X354428571Y-377359580D02*
X354380952Y-377264342D01*
X354380952Y-377264342D02*
X354333333Y-377073866D01*
X354333333Y-377073866D02*
X354333333Y-376835771D01*
X354333333Y-376835771D02*
X354380952Y-376645295D01*
X354380952Y-376645295D02*
X354428571Y-376550057D01*
X354428571Y-376550057D02*
X354476190Y-376502438D01*
X354476190Y-376502438D02*
X354571428Y-376454819D01*
X355523809Y-376454819D02*
X355619047Y-376454819D01*
X355619047Y-376454819D02*
X355714285Y-376502438D01*
X355714285Y-376502438D02*
X355761904Y-376550057D01*
X355761904Y-376550057D02*
X355809523Y-376645295D01*
X355809523Y-376645295D02*
X355857142Y-376835771D01*
X355857142Y-376835771D02*
X355857142Y-377073866D01*
X355857142Y-377073866D02*
X355809523Y-377264342D01*
X355809523Y-377264342D02*
X355761904Y-377359580D01*
X355761904Y-377359580D02*
X355714285Y-377407200D01*
X355714285Y-377407200D02*
X355619047Y-377454819D01*
X355619047Y-377454819D02*
X355523809Y-377454819D01*
X355523809Y-377454819D02*
X355428571Y-377407200D01*
X355428571Y-377407200D02*
X355380952Y-377359580D01*
X355380952Y-377359580D02*
X355333333Y-377264342D01*
X355333333Y-377264342D02*
X355285714Y-377073866D01*
X355285714Y-377073866D02*
X355285714Y-376835771D01*
X355285714Y-376835771D02*
X355333333Y-376645295D01*
X355333333Y-376645295D02*
X355380952Y-376550057D01*
X355380952Y-376550057D02*
X355428571Y-376502438D01*
X355428571Y-376502438D02*
X355523809Y-376454819D01*
X356285714Y-376788152D02*
X356285714Y-377454819D01*
X356285714Y-376883390D02*
X356333333Y-376835771D01*
X356333333Y-376835771D02*
X356428571Y-376788152D01*
X356428571Y-376788152D02*
X356571428Y-376788152D01*
X356571428Y-376788152D02*
X356666666Y-376835771D01*
X356666666Y-376835771D02*
X356714285Y-376931009D01*
X356714285Y-376931009D02*
X356714285Y-377454819D01*
X357523809Y-376931009D02*
X357190476Y-376931009D01*
X357190476Y-377454819D02*
X357190476Y-376454819D01*
X357190476Y-376454819D02*
X357666666Y-376454819D01*
X370952380Y-341454819D02*
X370380952Y-341454819D01*
X370666666Y-341454819D02*
X370666666Y-340454819D01*
X370666666Y-340454819D02*
X370571428Y-340597676D01*
X370571428Y-340597676D02*
X370476190Y-340692914D01*
X370476190Y-340692914D02*
X370380952Y-340740533D01*
X371571428Y-340454819D02*
X371666666Y-340454819D01*
X371666666Y-340454819D02*
X371761904Y-340502438D01*
X371761904Y-340502438D02*
X371809523Y-340550057D01*
X371809523Y-340550057D02*
X371857142Y-340645295D01*
X371857142Y-340645295D02*
X371904761Y-340835771D01*
X371904761Y-340835771D02*
X371904761Y-341073866D01*
X371904761Y-341073866D02*
X371857142Y-341264342D01*
X371857142Y-341264342D02*
X371809523Y-341359580D01*
X371809523Y-341359580D02*
X371761904Y-341407200D01*
X371761904Y-341407200D02*
X371666666Y-341454819D01*
X371666666Y-341454819D02*
X371571428Y-341454819D01*
X371571428Y-341454819D02*
X371476190Y-341407200D01*
X371476190Y-341407200D02*
X371428571Y-341359580D01*
X371428571Y-341359580D02*
X371380952Y-341264342D01*
X371380952Y-341264342D02*
X371333333Y-341073866D01*
X371333333Y-341073866D02*
X371333333Y-340835771D01*
X371333333Y-340835771D02*
X371380952Y-340645295D01*
X371380952Y-340645295D02*
X371428571Y-340550057D01*
X371428571Y-340550057D02*
X371476190Y-340502438D01*
X371476190Y-340502438D02*
X371571428Y-340454819D01*
X372523809Y-340454819D02*
X372619047Y-340454819D01*
X372619047Y-340454819D02*
X372714285Y-340502438D01*
X372714285Y-340502438D02*
X372761904Y-340550057D01*
X372761904Y-340550057D02*
X372809523Y-340645295D01*
X372809523Y-340645295D02*
X372857142Y-340835771D01*
X372857142Y-340835771D02*
X372857142Y-341073866D01*
X372857142Y-341073866D02*
X372809523Y-341264342D01*
X372809523Y-341264342D02*
X372761904Y-341359580D01*
X372761904Y-341359580D02*
X372714285Y-341407200D01*
X372714285Y-341407200D02*
X372619047Y-341454819D01*
X372619047Y-341454819D02*
X372523809Y-341454819D01*
X372523809Y-341454819D02*
X372428571Y-341407200D01*
X372428571Y-341407200D02*
X372380952Y-341359580D01*
X372380952Y-341359580D02*
X372333333Y-341264342D01*
X372333333Y-341264342D02*
X372285714Y-341073866D01*
X372285714Y-341073866D02*
X372285714Y-340835771D01*
X372285714Y-340835771D02*
X372333333Y-340645295D01*
X372333333Y-340645295D02*
X372380952Y-340550057D01*
X372380952Y-340550057D02*
X372428571Y-340502438D01*
X372428571Y-340502438D02*
X372523809Y-340454819D01*
X373285714Y-340788152D02*
X373285714Y-341454819D01*
X373285714Y-340883390D02*
X373333333Y-340835771D01*
X373333333Y-340835771D02*
X373428571Y-340788152D01*
X373428571Y-340788152D02*
X373571428Y-340788152D01*
X373571428Y-340788152D02*
X373666666Y-340835771D01*
X373666666Y-340835771D02*
X373714285Y-340931009D01*
X373714285Y-340931009D02*
X373714285Y-341454819D01*
X374523809Y-340931009D02*
X374190476Y-340931009D01*
X374190476Y-341454819D02*
X374190476Y-340454819D01*
X374190476Y-340454819D02*
X374666666Y-340454819D01*
X102238095Y-99954819D02*
X102238095Y-98954819D01*
X102238095Y-99431009D02*
X102809523Y-99431009D01*
X102809523Y-99954819D02*
X102809523Y-98954819D01*
X103809523Y-99954819D02*
X103238095Y-99954819D01*
X103523809Y-99954819D02*
X103523809Y-98954819D01*
X103523809Y-98954819D02*
X103428571Y-99097676D01*
X103428571Y-99097676D02*
X103333333Y-99192914D01*
X103333333Y-99192914D02*
X103238095Y-99240533D01*
X201214285Y-206454819D02*
X201214285Y-205454819D01*
X201214285Y-205454819D02*
X201547618Y-206169104D01*
X201547618Y-206169104D02*
X201880951Y-205454819D01*
X201880951Y-205454819D02*
X201880951Y-206454819D01*
X202499999Y-206454819D02*
X202404761Y-206407200D01*
X202404761Y-206407200D02*
X202357142Y-206359580D01*
X202357142Y-206359580D02*
X202309523Y-206264342D01*
X202309523Y-206264342D02*
X202309523Y-205978628D01*
X202309523Y-205978628D02*
X202357142Y-205883390D01*
X202357142Y-205883390D02*
X202404761Y-205835771D01*
X202404761Y-205835771D02*
X202499999Y-205788152D01*
X202499999Y-205788152D02*
X202642856Y-205788152D01*
X202642856Y-205788152D02*
X202738094Y-205835771D01*
X202738094Y-205835771D02*
X202785713Y-205883390D01*
X202785713Y-205883390D02*
X202833332Y-205978628D01*
X202833332Y-205978628D02*
X202833332Y-206264342D01*
X202833332Y-206264342D02*
X202785713Y-206359580D01*
X202785713Y-206359580D02*
X202738094Y-206407200D01*
X202738094Y-206407200D02*
X202642856Y-206454819D01*
X202642856Y-206454819D02*
X202499999Y-206454819D01*
X203690475Y-205788152D02*
X203690475Y-206454819D01*
X203261904Y-205788152D02*
X203261904Y-206311961D01*
X203261904Y-206311961D02*
X203309523Y-206407200D01*
X203309523Y-206407200D02*
X203404761Y-206454819D01*
X203404761Y-206454819D02*
X203547618Y-206454819D01*
X203547618Y-206454819D02*
X203642856Y-206407200D01*
X203642856Y-206407200D02*
X203690475Y-206359580D01*
X204166666Y-205788152D02*
X204166666Y-206454819D01*
X204166666Y-205883390D02*
X204214285Y-205835771D01*
X204214285Y-205835771D02*
X204309523Y-205788152D01*
X204309523Y-205788152D02*
X204452380Y-205788152D01*
X204452380Y-205788152D02*
X204547618Y-205835771D01*
X204547618Y-205835771D02*
X204595237Y-205931009D01*
X204595237Y-205931009D02*
X204595237Y-206454819D01*
X204928571Y-205788152D02*
X205309523Y-205788152D01*
X205071428Y-205454819D02*
X205071428Y-206311961D01*
X205071428Y-206311961D02*
X205119047Y-206407200D01*
X205119047Y-206407200D02*
X205214285Y-206454819D01*
X205214285Y-206454819D02*
X205309523Y-206454819D01*
X205642857Y-206454819D02*
X205642857Y-205788152D01*
X205642857Y-205454819D02*
X205595238Y-205502438D01*
X205595238Y-205502438D02*
X205642857Y-205550057D01*
X205642857Y-205550057D02*
X205690476Y-205502438D01*
X205690476Y-205502438D02*
X205642857Y-205454819D01*
X205642857Y-205454819D02*
X205642857Y-205550057D01*
X206119047Y-205788152D02*
X206119047Y-206454819D01*
X206119047Y-205883390D02*
X206166666Y-205835771D01*
X206166666Y-205835771D02*
X206261904Y-205788152D01*
X206261904Y-205788152D02*
X206404761Y-205788152D01*
X206404761Y-205788152D02*
X206499999Y-205835771D01*
X206499999Y-205835771D02*
X206547618Y-205931009D01*
X206547618Y-205931009D02*
X206547618Y-206454819D01*
X207452380Y-205788152D02*
X207452380Y-206597676D01*
X207452380Y-206597676D02*
X207404761Y-206692914D01*
X207404761Y-206692914D02*
X207357142Y-206740533D01*
X207357142Y-206740533D02*
X207261904Y-206788152D01*
X207261904Y-206788152D02*
X207119047Y-206788152D01*
X207119047Y-206788152D02*
X207023809Y-206740533D01*
X207452380Y-206407200D02*
X207357142Y-206454819D01*
X207357142Y-206454819D02*
X207166666Y-206454819D01*
X207166666Y-206454819D02*
X207071428Y-206407200D01*
X207071428Y-206407200D02*
X207023809Y-206359580D01*
X207023809Y-206359580D02*
X206976190Y-206264342D01*
X206976190Y-206264342D02*
X206976190Y-205978628D01*
X206976190Y-205978628D02*
X207023809Y-205883390D01*
X207023809Y-205883390D02*
X207071428Y-205835771D01*
X207071428Y-205835771D02*
X207166666Y-205788152D01*
X207166666Y-205788152D02*
X207357142Y-205788152D01*
X207357142Y-205788152D02*
X207452380Y-205835771D01*
X207928571Y-206454819D02*
X207928571Y-205454819D01*
X207928571Y-205931009D02*
X208499999Y-205931009D01*
X208499999Y-206454819D02*
X208499999Y-205454819D01*
X209119047Y-206454819D02*
X209023809Y-206407200D01*
X209023809Y-206407200D02*
X208976190Y-206359580D01*
X208976190Y-206359580D02*
X208928571Y-206264342D01*
X208928571Y-206264342D02*
X208928571Y-205978628D01*
X208928571Y-205978628D02*
X208976190Y-205883390D01*
X208976190Y-205883390D02*
X209023809Y-205835771D01*
X209023809Y-205835771D02*
X209119047Y-205788152D01*
X209119047Y-205788152D02*
X209261904Y-205788152D01*
X209261904Y-205788152D02*
X209357142Y-205835771D01*
X209357142Y-205835771D02*
X209404761Y-205883390D01*
X209404761Y-205883390D02*
X209452380Y-205978628D01*
X209452380Y-205978628D02*
X209452380Y-206264342D01*
X209452380Y-206264342D02*
X209404761Y-206359580D01*
X209404761Y-206359580D02*
X209357142Y-206407200D01*
X209357142Y-206407200D02*
X209261904Y-206454819D01*
X209261904Y-206454819D02*
X209119047Y-206454819D01*
X210023809Y-206454819D02*
X209928571Y-206407200D01*
X209928571Y-206407200D02*
X209880952Y-206311961D01*
X209880952Y-206311961D02*
X209880952Y-205454819D01*
X210785714Y-206407200D02*
X210690476Y-206454819D01*
X210690476Y-206454819D02*
X210500000Y-206454819D01*
X210500000Y-206454819D02*
X210404762Y-206407200D01*
X210404762Y-206407200D02*
X210357143Y-206311961D01*
X210357143Y-206311961D02*
X210357143Y-205931009D01*
X210357143Y-205931009D02*
X210404762Y-205835771D01*
X210404762Y-205835771D02*
X210500000Y-205788152D01*
X210500000Y-205788152D02*
X210690476Y-205788152D01*
X210690476Y-205788152D02*
X210785714Y-205835771D01*
X210785714Y-205835771D02*
X210833333Y-205931009D01*
X210833333Y-205931009D02*
X210833333Y-206026247D01*
X210833333Y-206026247D02*
X210357143Y-206121485D01*
X186238095Y-99954819D02*
X186238095Y-98954819D01*
X186238095Y-99431009D02*
X186809523Y-99431009D01*
X186809523Y-99954819D02*
X186809523Y-98954819D01*
X187238095Y-99050057D02*
X187285714Y-99002438D01*
X187285714Y-99002438D02*
X187380952Y-98954819D01*
X187380952Y-98954819D02*
X187619047Y-98954819D01*
X187619047Y-98954819D02*
X187714285Y-99002438D01*
X187714285Y-99002438D02*
X187761904Y-99050057D01*
X187761904Y-99050057D02*
X187809523Y-99145295D01*
X187809523Y-99145295D02*
X187809523Y-99240533D01*
X187809523Y-99240533D02*
X187761904Y-99383390D01*
X187761904Y-99383390D02*
X187190476Y-99954819D01*
X187190476Y-99954819D02*
X187809523Y-99954819D01*
X479214285Y-206454819D02*
X479214285Y-205454819D01*
X479214285Y-205454819D02*
X479547618Y-206169104D01*
X479547618Y-206169104D02*
X479880951Y-205454819D01*
X479880951Y-205454819D02*
X479880951Y-206454819D01*
X480499999Y-206454819D02*
X480404761Y-206407200D01*
X480404761Y-206407200D02*
X480357142Y-206359580D01*
X480357142Y-206359580D02*
X480309523Y-206264342D01*
X480309523Y-206264342D02*
X480309523Y-205978628D01*
X480309523Y-205978628D02*
X480357142Y-205883390D01*
X480357142Y-205883390D02*
X480404761Y-205835771D01*
X480404761Y-205835771D02*
X480499999Y-205788152D01*
X480499999Y-205788152D02*
X480642856Y-205788152D01*
X480642856Y-205788152D02*
X480738094Y-205835771D01*
X480738094Y-205835771D02*
X480785713Y-205883390D01*
X480785713Y-205883390D02*
X480833332Y-205978628D01*
X480833332Y-205978628D02*
X480833332Y-206264342D01*
X480833332Y-206264342D02*
X480785713Y-206359580D01*
X480785713Y-206359580D02*
X480738094Y-206407200D01*
X480738094Y-206407200D02*
X480642856Y-206454819D01*
X480642856Y-206454819D02*
X480499999Y-206454819D01*
X481690475Y-205788152D02*
X481690475Y-206454819D01*
X481261904Y-205788152D02*
X481261904Y-206311961D01*
X481261904Y-206311961D02*
X481309523Y-206407200D01*
X481309523Y-206407200D02*
X481404761Y-206454819D01*
X481404761Y-206454819D02*
X481547618Y-206454819D01*
X481547618Y-206454819D02*
X481642856Y-206407200D01*
X481642856Y-206407200D02*
X481690475Y-206359580D01*
X482166666Y-205788152D02*
X482166666Y-206454819D01*
X482166666Y-205883390D02*
X482214285Y-205835771D01*
X482214285Y-205835771D02*
X482309523Y-205788152D01*
X482309523Y-205788152D02*
X482452380Y-205788152D01*
X482452380Y-205788152D02*
X482547618Y-205835771D01*
X482547618Y-205835771D02*
X482595237Y-205931009D01*
X482595237Y-205931009D02*
X482595237Y-206454819D01*
X482928571Y-205788152D02*
X483309523Y-205788152D01*
X483071428Y-205454819D02*
X483071428Y-206311961D01*
X483071428Y-206311961D02*
X483119047Y-206407200D01*
X483119047Y-206407200D02*
X483214285Y-206454819D01*
X483214285Y-206454819D02*
X483309523Y-206454819D01*
X483642857Y-206454819D02*
X483642857Y-205788152D01*
X483642857Y-205454819D02*
X483595238Y-205502438D01*
X483595238Y-205502438D02*
X483642857Y-205550057D01*
X483642857Y-205550057D02*
X483690476Y-205502438D01*
X483690476Y-205502438D02*
X483642857Y-205454819D01*
X483642857Y-205454819D02*
X483642857Y-205550057D01*
X484119047Y-205788152D02*
X484119047Y-206454819D01*
X484119047Y-205883390D02*
X484166666Y-205835771D01*
X484166666Y-205835771D02*
X484261904Y-205788152D01*
X484261904Y-205788152D02*
X484404761Y-205788152D01*
X484404761Y-205788152D02*
X484499999Y-205835771D01*
X484499999Y-205835771D02*
X484547618Y-205931009D01*
X484547618Y-205931009D02*
X484547618Y-206454819D01*
X485452380Y-205788152D02*
X485452380Y-206597676D01*
X485452380Y-206597676D02*
X485404761Y-206692914D01*
X485404761Y-206692914D02*
X485357142Y-206740533D01*
X485357142Y-206740533D02*
X485261904Y-206788152D01*
X485261904Y-206788152D02*
X485119047Y-206788152D01*
X485119047Y-206788152D02*
X485023809Y-206740533D01*
X485452380Y-206407200D02*
X485357142Y-206454819D01*
X485357142Y-206454819D02*
X485166666Y-206454819D01*
X485166666Y-206454819D02*
X485071428Y-206407200D01*
X485071428Y-206407200D02*
X485023809Y-206359580D01*
X485023809Y-206359580D02*
X484976190Y-206264342D01*
X484976190Y-206264342D02*
X484976190Y-205978628D01*
X484976190Y-205978628D02*
X485023809Y-205883390D01*
X485023809Y-205883390D02*
X485071428Y-205835771D01*
X485071428Y-205835771D02*
X485166666Y-205788152D01*
X485166666Y-205788152D02*
X485357142Y-205788152D01*
X485357142Y-205788152D02*
X485452380Y-205835771D01*
X485928571Y-206454819D02*
X485928571Y-205454819D01*
X485928571Y-205931009D02*
X486499999Y-205931009D01*
X486499999Y-206454819D02*
X486499999Y-205454819D01*
X487119047Y-206454819D02*
X487023809Y-206407200D01*
X487023809Y-206407200D02*
X486976190Y-206359580D01*
X486976190Y-206359580D02*
X486928571Y-206264342D01*
X486928571Y-206264342D02*
X486928571Y-205978628D01*
X486928571Y-205978628D02*
X486976190Y-205883390D01*
X486976190Y-205883390D02*
X487023809Y-205835771D01*
X487023809Y-205835771D02*
X487119047Y-205788152D01*
X487119047Y-205788152D02*
X487261904Y-205788152D01*
X487261904Y-205788152D02*
X487357142Y-205835771D01*
X487357142Y-205835771D02*
X487404761Y-205883390D01*
X487404761Y-205883390D02*
X487452380Y-205978628D01*
X487452380Y-205978628D02*
X487452380Y-206264342D01*
X487452380Y-206264342D02*
X487404761Y-206359580D01*
X487404761Y-206359580D02*
X487357142Y-206407200D01*
X487357142Y-206407200D02*
X487261904Y-206454819D01*
X487261904Y-206454819D02*
X487119047Y-206454819D01*
X488023809Y-206454819D02*
X487928571Y-206407200D01*
X487928571Y-206407200D02*
X487880952Y-206311961D01*
X487880952Y-206311961D02*
X487880952Y-205454819D01*
X488785714Y-206407200D02*
X488690476Y-206454819D01*
X488690476Y-206454819D02*
X488500000Y-206454819D01*
X488500000Y-206454819D02*
X488404762Y-206407200D01*
X488404762Y-206407200D02*
X488357143Y-206311961D01*
X488357143Y-206311961D02*
X488357143Y-205931009D01*
X488357143Y-205931009D02*
X488404762Y-205835771D01*
X488404762Y-205835771D02*
X488500000Y-205788152D01*
X488500000Y-205788152D02*
X488690476Y-205788152D01*
X488690476Y-205788152D02*
X488785714Y-205835771D01*
X488785714Y-205835771D02*
X488833333Y-205931009D01*
X488833333Y-205931009D02*
X488833333Y-206026247D01*
X488833333Y-206026247D02*
X488357143Y-206121485D01*
X102238095Y-163954819D02*
X102238095Y-162954819D01*
X102238095Y-163431009D02*
X102809523Y-163431009D01*
X102809523Y-163954819D02*
X102809523Y-162954819D01*
X103190476Y-162954819D02*
X103809523Y-162954819D01*
X103809523Y-162954819D02*
X103476190Y-163335771D01*
X103476190Y-163335771D02*
X103619047Y-163335771D01*
X103619047Y-163335771D02*
X103714285Y-163383390D01*
X103714285Y-163383390D02*
X103761904Y-163431009D01*
X103761904Y-163431009D02*
X103809523Y-163526247D01*
X103809523Y-163526247D02*
X103809523Y-163764342D01*
X103809523Y-163764342D02*
X103761904Y-163859580D01*
X103761904Y-163859580D02*
X103714285Y-163907200D01*
X103714285Y-163907200D02*
X103619047Y-163954819D01*
X103619047Y-163954819D02*
X103333333Y-163954819D01*
X103333333Y-163954819D02*
X103238095Y-163907200D01*
X103238095Y-163907200D02*
X103190476Y-163859580D01*
X201214285Y-414454819D02*
X201214285Y-413454819D01*
X201214285Y-413454819D02*
X201547618Y-414169104D01*
X201547618Y-414169104D02*
X201880951Y-413454819D01*
X201880951Y-413454819D02*
X201880951Y-414454819D01*
X202499999Y-414454819D02*
X202404761Y-414407200D01*
X202404761Y-414407200D02*
X202357142Y-414359580D01*
X202357142Y-414359580D02*
X202309523Y-414264342D01*
X202309523Y-414264342D02*
X202309523Y-413978628D01*
X202309523Y-413978628D02*
X202357142Y-413883390D01*
X202357142Y-413883390D02*
X202404761Y-413835771D01*
X202404761Y-413835771D02*
X202499999Y-413788152D01*
X202499999Y-413788152D02*
X202642856Y-413788152D01*
X202642856Y-413788152D02*
X202738094Y-413835771D01*
X202738094Y-413835771D02*
X202785713Y-413883390D01*
X202785713Y-413883390D02*
X202833332Y-413978628D01*
X202833332Y-413978628D02*
X202833332Y-414264342D01*
X202833332Y-414264342D02*
X202785713Y-414359580D01*
X202785713Y-414359580D02*
X202738094Y-414407200D01*
X202738094Y-414407200D02*
X202642856Y-414454819D01*
X202642856Y-414454819D02*
X202499999Y-414454819D01*
X203690475Y-413788152D02*
X203690475Y-414454819D01*
X203261904Y-413788152D02*
X203261904Y-414311961D01*
X203261904Y-414311961D02*
X203309523Y-414407200D01*
X203309523Y-414407200D02*
X203404761Y-414454819D01*
X203404761Y-414454819D02*
X203547618Y-414454819D01*
X203547618Y-414454819D02*
X203642856Y-414407200D01*
X203642856Y-414407200D02*
X203690475Y-414359580D01*
X204166666Y-413788152D02*
X204166666Y-414454819D01*
X204166666Y-413883390D02*
X204214285Y-413835771D01*
X204214285Y-413835771D02*
X204309523Y-413788152D01*
X204309523Y-413788152D02*
X204452380Y-413788152D01*
X204452380Y-413788152D02*
X204547618Y-413835771D01*
X204547618Y-413835771D02*
X204595237Y-413931009D01*
X204595237Y-413931009D02*
X204595237Y-414454819D01*
X204928571Y-413788152D02*
X205309523Y-413788152D01*
X205071428Y-413454819D02*
X205071428Y-414311961D01*
X205071428Y-414311961D02*
X205119047Y-414407200D01*
X205119047Y-414407200D02*
X205214285Y-414454819D01*
X205214285Y-414454819D02*
X205309523Y-414454819D01*
X205642857Y-414454819D02*
X205642857Y-413788152D01*
X205642857Y-413454819D02*
X205595238Y-413502438D01*
X205595238Y-413502438D02*
X205642857Y-413550057D01*
X205642857Y-413550057D02*
X205690476Y-413502438D01*
X205690476Y-413502438D02*
X205642857Y-413454819D01*
X205642857Y-413454819D02*
X205642857Y-413550057D01*
X206119047Y-413788152D02*
X206119047Y-414454819D01*
X206119047Y-413883390D02*
X206166666Y-413835771D01*
X206166666Y-413835771D02*
X206261904Y-413788152D01*
X206261904Y-413788152D02*
X206404761Y-413788152D01*
X206404761Y-413788152D02*
X206499999Y-413835771D01*
X206499999Y-413835771D02*
X206547618Y-413931009D01*
X206547618Y-413931009D02*
X206547618Y-414454819D01*
X207452380Y-413788152D02*
X207452380Y-414597676D01*
X207452380Y-414597676D02*
X207404761Y-414692914D01*
X207404761Y-414692914D02*
X207357142Y-414740533D01*
X207357142Y-414740533D02*
X207261904Y-414788152D01*
X207261904Y-414788152D02*
X207119047Y-414788152D01*
X207119047Y-414788152D02*
X207023809Y-414740533D01*
X207452380Y-414407200D02*
X207357142Y-414454819D01*
X207357142Y-414454819D02*
X207166666Y-414454819D01*
X207166666Y-414454819D02*
X207071428Y-414407200D01*
X207071428Y-414407200D02*
X207023809Y-414359580D01*
X207023809Y-414359580D02*
X206976190Y-414264342D01*
X206976190Y-414264342D02*
X206976190Y-413978628D01*
X206976190Y-413978628D02*
X207023809Y-413883390D01*
X207023809Y-413883390D02*
X207071428Y-413835771D01*
X207071428Y-413835771D02*
X207166666Y-413788152D01*
X207166666Y-413788152D02*
X207357142Y-413788152D01*
X207357142Y-413788152D02*
X207452380Y-413835771D01*
X207928571Y-414454819D02*
X207928571Y-413454819D01*
X207928571Y-413931009D02*
X208499999Y-413931009D01*
X208499999Y-414454819D02*
X208499999Y-413454819D01*
X209119047Y-414454819D02*
X209023809Y-414407200D01*
X209023809Y-414407200D02*
X208976190Y-414359580D01*
X208976190Y-414359580D02*
X208928571Y-414264342D01*
X208928571Y-414264342D02*
X208928571Y-413978628D01*
X208928571Y-413978628D02*
X208976190Y-413883390D01*
X208976190Y-413883390D02*
X209023809Y-413835771D01*
X209023809Y-413835771D02*
X209119047Y-413788152D01*
X209119047Y-413788152D02*
X209261904Y-413788152D01*
X209261904Y-413788152D02*
X209357142Y-413835771D01*
X209357142Y-413835771D02*
X209404761Y-413883390D01*
X209404761Y-413883390D02*
X209452380Y-413978628D01*
X209452380Y-413978628D02*
X209452380Y-414264342D01*
X209452380Y-414264342D02*
X209404761Y-414359580D01*
X209404761Y-414359580D02*
X209357142Y-414407200D01*
X209357142Y-414407200D02*
X209261904Y-414454819D01*
X209261904Y-414454819D02*
X209119047Y-414454819D01*
X210023809Y-414454819D02*
X209928571Y-414407200D01*
X209928571Y-414407200D02*
X209880952Y-414311961D01*
X209880952Y-414311961D02*
X209880952Y-413454819D01*
X210785714Y-414407200D02*
X210690476Y-414454819D01*
X210690476Y-414454819D02*
X210500000Y-414454819D01*
X210500000Y-414454819D02*
X210404762Y-414407200D01*
X210404762Y-414407200D02*
X210357143Y-414311961D01*
X210357143Y-414311961D02*
X210357143Y-413931009D01*
X210357143Y-413931009D02*
X210404762Y-413835771D01*
X210404762Y-413835771D02*
X210500000Y-413788152D01*
X210500000Y-413788152D02*
X210690476Y-413788152D01*
X210690476Y-413788152D02*
X210785714Y-413835771D01*
X210785714Y-413835771D02*
X210833333Y-413931009D01*
X210833333Y-413931009D02*
X210833333Y-414026247D01*
X210833333Y-414026247D02*
X210357143Y-414121485D01*
X186238095Y-163954819D02*
X186238095Y-162954819D01*
X186238095Y-163431009D02*
X186809523Y-163431009D01*
X186809523Y-163954819D02*
X186809523Y-162954819D01*
X187714285Y-163288152D02*
X187714285Y-163954819D01*
X187476190Y-162907200D02*
X187238095Y-163621485D01*
X187238095Y-163621485D02*
X187857142Y-163621485D01*
X479214285Y-414454819D02*
X479214285Y-413454819D01*
X479214285Y-413454819D02*
X479547618Y-414169104D01*
X479547618Y-414169104D02*
X479880951Y-413454819D01*
X479880951Y-413454819D02*
X479880951Y-414454819D01*
X480499999Y-414454819D02*
X480404761Y-414407200D01*
X480404761Y-414407200D02*
X480357142Y-414359580D01*
X480357142Y-414359580D02*
X480309523Y-414264342D01*
X480309523Y-414264342D02*
X480309523Y-413978628D01*
X480309523Y-413978628D02*
X480357142Y-413883390D01*
X480357142Y-413883390D02*
X480404761Y-413835771D01*
X480404761Y-413835771D02*
X480499999Y-413788152D01*
X480499999Y-413788152D02*
X480642856Y-413788152D01*
X480642856Y-413788152D02*
X480738094Y-413835771D01*
X480738094Y-413835771D02*
X480785713Y-413883390D01*
X480785713Y-413883390D02*
X480833332Y-413978628D01*
X480833332Y-413978628D02*
X480833332Y-414264342D01*
X480833332Y-414264342D02*
X480785713Y-414359580D01*
X480785713Y-414359580D02*
X480738094Y-414407200D01*
X480738094Y-414407200D02*
X480642856Y-414454819D01*
X480642856Y-414454819D02*
X480499999Y-414454819D01*
X481690475Y-413788152D02*
X481690475Y-414454819D01*
X481261904Y-413788152D02*
X481261904Y-414311961D01*
X481261904Y-414311961D02*
X481309523Y-414407200D01*
X481309523Y-414407200D02*
X481404761Y-414454819D01*
X481404761Y-414454819D02*
X481547618Y-414454819D01*
X481547618Y-414454819D02*
X481642856Y-414407200D01*
X481642856Y-414407200D02*
X481690475Y-414359580D01*
X482166666Y-413788152D02*
X482166666Y-414454819D01*
X482166666Y-413883390D02*
X482214285Y-413835771D01*
X482214285Y-413835771D02*
X482309523Y-413788152D01*
X482309523Y-413788152D02*
X482452380Y-413788152D01*
X482452380Y-413788152D02*
X482547618Y-413835771D01*
X482547618Y-413835771D02*
X482595237Y-413931009D01*
X482595237Y-413931009D02*
X482595237Y-414454819D01*
X482928571Y-413788152D02*
X483309523Y-413788152D01*
X483071428Y-413454819D02*
X483071428Y-414311961D01*
X483071428Y-414311961D02*
X483119047Y-414407200D01*
X483119047Y-414407200D02*
X483214285Y-414454819D01*
X483214285Y-414454819D02*
X483309523Y-414454819D01*
X483642857Y-414454819D02*
X483642857Y-413788152D01*
X483642857Y-413454819D02*
X483595238Y-413502438D01*
X483595238Y-413502438D02*
X483642857Y-413550057D01*
X483642857Y-413550057D02*
X483690476Y-413502438D01*
X483690476Y-413502438D02*
X483642857Y-413454819D01*
X483642857Y-413454819D02*
X483642857Y-413550057D01*
X484119047Y-413788152D02*
X484119047Y-414454819D01*
X484119047Y-413883390D02*
X484166666Y-413835771D01*
X484166666Y-413835771D02*
X484261904Y-413788152D01*
X484261904Y-413788152D02*
X484404761Y-413788152D01*
X484404761Y-413788152D02*
X484499999Y-413835771D01*
X484499999Y-413835771D02*
X484547618Y-413931009D01*
X484547618Y-413931009D02*
X484547618Y-414454819D01*
X485452380Y-413788152D02*
X485452380Y-414597676D01*
X485452380Y-414597676D02*
X485404761Y-414692914D01*
X485404761Y-414692914D02*
X485357142Y-414740533D01*
X485357142Y-414740533D02*
X485261904Y-414788152D01*
X485261904Y-414788152D02*
X485119047Y-414788152D01*
X485119047Y-414788152D02*
X485023809Y-414740533D01*
X485452380Y-414407200D02*
X485357142Y-414454819D01*
X485357142Y-414454819D02*
X485166666Y-414454819D01*
X485166666Y-414454819D02*
X485071428Y-414407200D01*
X485071428Y-414407200D02*
X485023809Y-414359580D01*
X485023809Y-414359580D02*
X484976190Y-414264342D01*
X484976190Y-414264342D02*
X484976190Y-413978628D01*
X484976190Y-413978628D02*
X485023809Y-413883390D01*
X485023809Y-413883390D02*
X485071428Y-413835771D01*
X485071428Y-413835771D02*
X485166666Y-413788152D01*
X485166666Y-413788152D02*
X485357142Y-413788152D01*
X485357142Y-413788152D02*
X485452380Y-413835771D01*
X485928571Y-414454819D02*
X485928571Y-413454819D01*
X485928571Y-413931009D02*
X486499999Y-413931009D01*
X486499999Y-414454819D02*
X486499999Y-413454819D01*
X487119047Y-414454819D02*
X487023809Y-414407200D01*
X487023809Y-414407200D02*
X486976190Y-414359580D01*
X486976190Y-414359580D02*
X486928571Y-414264342D01*
X486928571Y-414264342D02*
X486928571Y-413978628D01*
X486928571Y-413978628D02*
X486976190Y-413883390D01*
X486976190Y-413883390D02*
X487023809Y-413835771D01*
X487023809Y-413835771D02*
X487119047Y-413788152D01*
X487119047Y-413788152D02*
X487261904Y-413788152D01*
X487261904Y-413788152D02*
X487357142Y-413835771D01*
X487357142Y-413835771D02*
X487404761Y-413883390D01*
X487404761Y-413883390D02*
X487452380Y-413978628D01*
X487452380Y-413978628D02*
X487452380Y-414264342D01*
X487452380Y-414264342D02*
X487404761Y-414359580D01*
X487404761Y-414359580D02*
X487357142Y-414407200D01*
X487357142Y-414407200D02*
X487261904Y-414454819D01*
X487261904Y-414454819D02*
X487119047Y-414454819D01*
X488023809Y-414454819D02*
X487928571Y-414407200D01*
X487928571Y-414407200D02*
X487880952Y-414311961D01*
X487880952Y-414311961D02*
X487880952Y-413454819D01*
X488785714Y-414407200D02*
X488690476Y-414454819D01*
X488690476Y-414454819D02*
X488500000Y-414454819D01*
X488500000Y-414454819D02*
X488404762Y-414407200D01*
X488404762Y-414407200D02*
X488357143Y-414311961D01*
X488357143Y-414311961D02*
X488357143Y-413931009D01*
X488357143Y-413931009D02*
X488404762Y-413835771D01*
X488404762Y-413835771D02*
X488500000Y-413788152D01*
X488500000Y-413788152D02*
X488690476Y-413788152D01*
X488690476Y-413788152D02*
X488785714Y-413835771D01*
X488785714Y-413835771D02*
X488833333Y-413931009D01*
X488833333Y-413931009D02*
X488833333Y-414026247D01*
X488833333Y-414026247D02*
X488357143Y-414121485D01*
M02*
