%TF.GenerationSoftware,KiCad,Pcbnew,9.0.7*%
%TF.CreationDate,2026-03-10T00:22:13+02:00*%
%TF.ProjectId,64korppu-E,36346b6f-7270-4707-952d-452e6b696361,rev?*%
%TF.SameCoordinates,Original*%
%TF.FileFunction,Soldermask,Top*%
%TF.FilePolarity,Negative*%
%FSLAX46Y46*%
G04 Gerber Fmt 4.6, Leading zero omitted, Abs format (unit mm)*
G04 Created by KiCad (PCBNEW 9.0.7) date 2026-03-10 00:22:13*
%MOMM*%
%LPD*%
G01*
G04 APERTURE LIST*
%ADD10R,2.000000X2.000000*%
%ADD11O,2.000000X2.000000*%
%ADD12R,1.600000X1.600000*%
%ADD13O,1.600000X1.600000*%
%ADD14R,1.800000X1.800000*%
%ADD15O,1.800000X1.800000*%
%ADD16O,3.000000X2.000000*%
%ADD17R,1.700000X1.700000*%
%ADD18O,1.700000X1.700000*%
%ADD19C,6.000000*%
G04 APERTURE END LIST*
D10*
%TO.C,J3*%
X112000000Y-105000000D03*
D11*
X118000000Y-105000000D03*
X115000000Y-110000000D03*
%TD*%
D12*
%TO.C,C4*%
X130000000Y-105000000D03*
D13*
X132000000Y-105000000D03*
%TD*%
D14*
%TO.C,J1*%
X106500000Y-170000000D03*
D15*
X113500000Y-170000000D03*
X105000000Y-166000000D03*
X110000000Y-162000000D03*
X115000000Y-166000000D03*
X110000000Y-166000000D03*
D16*
X102500000Y-166000000D03*
X117500000Y-166000000D03*
%TD*%
D12*
%TO.C,R1*%
X108000000Y-121000000D03*
D13*
X118160000Y-121000000D03*
%TD*%
D12*
%TO.C,R2*%
X108000000Y-126000000D03*
D13*
X118160000Y-126000000D03*
%TD*%
D12*
%TO.C,R3*%
X108000000Y-131000000D03*
D13*
X118160000Y-131000000D03*
%TD*%
D12*
%TO.C,R4*%
X108000000Y-136000000D03*
D13*
X118160000Y-136000000D03*
%TD*%
D12*
%TO.C,R5*%
X108000000Y-141000000D03*
D13*
X118160000Y-141000000D03*
%TD*%
D12*
%TO.C,R6*%
X108000000Y-146000000D03*
D13*
X118160000Y-146000000D03*
%TD*%
D12*
%TO.C,R7*%
X108000000Y-151000000D03*
D13*
X118160000Y-151000000D03*
%TD*%
D17*
%TO.C,U1*%
X135000000Y-119000000D03*
D18*
X137540000Y-119000000D03*
X135000000Y-121540000D03*
X137540000Y-121540000D03*
X135000000Y-124080000D03*
X137540000Y-124080000D03*
X135000000Y-126620000D03*
X137540000Y-126620000D03*
X135000000Y-129160000D03*
X137540000Y-129160000D03*
X135000000Y-131700000D03*
X137540000Y-131700000D03*
X135000000Y-134240000D03*
X137540000Y-134240000D03*
X135000000Y-136780000D03*
X137540000Y-136780000D03*
X135000000Y-139320000D03*
X137540000Y-139320000D03*
X135000000Y-141860000D03*
X137540000Y-141860000D03*
X135000000Y-144400000D03*
X137540000Y-144400000D03*
X135000000Y-146940000D03*
X137540000Y-146940000D03*
X135000000Y-149480000D03*
X137540000Y-149480000D03*
X135000000Y-152020000D03*
X137540000Y-152020000D03*
X135000000Y-154560000D03*
X137540000Y-154560000D03*
%TD*%
D12*
%TO.C,U2*%
X133000000Y-159000000D03*
D13*
X133000000Y-161540000D03*
X133000000Y-164080000D03*
X133000000Y-166620000D03*
X140620000Y-166620000D03*
X140620000Y-164080000D03*
X140620000Y-161540000D03*
X140620000Y-159000000D03*
%TD*%
D12*
%TO.C,U3*%
X147000000Y-151000000D03*
D13*
X147000000Y-153540000D03*
X147000000Y-156080000D03*
X147000000Y-158620000D03*
X147000000Y-161160000D03*
X147000000Y-163700000D03*
X147000000Y-166240000D03*
X147000000Y-168780000D03*
X154620000Y-168780000D03*
X154620000Y-166240000D03*
X154620000Y-163700000D03*
X154620000Y-161160000D03*
X154620000Y-158620000D03*
X154620000Y-156080000D03*
X154620000Y-153540000D03*
X154620000Y-151000000D03*
%TD*%
D17*
%TO.C,J2*%
X192000000Y-118000000D03*
D18*
X194540000Y-118000000D03*
X192000000Y-120540000D03*
X194540000Y-120540000D03*
X192000000Y-123080000D03*
X194540000Y-123080000D03*
X192000000Y-125620000D03*
X194540000Y-125620000D03*
X192000000Y-128160000D03*
X194540000Y-128160000D03*
X192000000Y-130700000D03*
X194540000Y-130700000D03*
X192000000Y-133240000D03*
X194540000Y-133240000D03*
X192000000Y-135780000D03*
X194540000Y-135780000D03*
X192000000Y-138320000D03*
X194540000Y-138320000D03*
X192000000Y-140860000D03*
X194540000Y-140860000D03*
X192000000Y-143400000D03*
X194540000Y-143400000D03*
X192000000Y-145940000D03*
X194540000Y-145940000D03*
X192000000Y-148480000D03*
X194540000Y-148480000D03*
X192000000Y-151020000D03*
X194540000Y-151020000D03*
X192000000Y-153560000D03*
X194540000Y-153560000D03*
X192000000Y-156100000D03*
X194540000Y-156100000D03*
X192000000Y-158640000D03*
X194540000Y-158640000D03*
%TD*%
D12*
%TO.C,R8*%
X143000000Y-107000000D03*
D13*
X153160000Y-107000000D03*
%TD*%
D12*
%TO.C,D1*%
X137000000Y-107000000D03*
D13*
X139540000Y-107000000D03*
%TD*%
D12*
%TO.C,R9*%
X155000000Y-124000000D03*
D13*
X165160000Y-124000000D03*
%TD*%
D12*
%TO.C,R10*%
X155000000Y-131000000D03*
D13*
X165160000Y-131000000D03*
%TD*%
D12*
%TO.C,R11*%
X155000000Y-138000000D03*
D13*
X165160000Y-138000000D03*
%TD*%
D12*
%TO.C,R12*%
X155000000Y-145000000D03*
D13*
X165160000Y-145000000D03*
%TD*%
D12*
%TO.C,C1*%
X123000000Y-161000000D03*
D13*
X128000000Y-161000000D03*
%TD*%
D12*
%TO.C,C2*%
X159000000Y-153000000D03*
D13*
X164000000Y-153000000D03*
%TD*%
D12*
%TO.C,C3*%
X145000000Y-114000000D03*
D13*
X150000000Y-114000000D03*
%TD*%
D19*
%TO.C,H1*%
X103000000Y-103000000D03*
%TD*%
%TO.C,H2*%
X197000000Y-103000000D03*
%TD*%
%TO.C,H3*%
X103000000Y-177000000D03*
%TD*%
%TO.C,H4*%
X197000000Y-177000000D03*
%TD*%
M02*
