M48
; DRILL file {KiCad 9.0.7} date 2026-03-10T00:11:24+0200
; FORMAT={-:-/ absolute / metric / decimal}
; #@! TF.CreationDate,2026-03-10T00:11:24+02:00
; #@! TF.GenerationSoftware,Kicad,Pcbnew,9.0.7
; #@! TF.FileFunction,MixedPlating,1,2
FMAT,2
METRIC
; #@! TA.AperFunction,Plated,PTH,ViaDrill
T1C0.300
; #@! TA.AperFunction,Plated,PTH,ComponentDrill
T2C0.800
; #@! TA.AperFunction,Plated,PTH,ComponentDrill
T3C1.000
; #@! TA.AperFunction,Plated,PTH,ComponentDrill
T4C1.500
; #@! TA.AperFunction,Plated,PTH,ComponentDrill
T5C3.200
%
G90
G05
T1
X101.675Y-148.526
X103.481Y-152.294
X104.257Y-127.95
X104.582Y-154.135
X104.757Y-124.949
X104.79Y-133.401
X105.651Y-136.737
X106.278Y-144.953
X106.626Y-156.56
X107.357Y-158.177
X116.017Y-163.111
X130.684Y-122.002
X139.479Y-130.843
X148.275Y-142.631
X152.399Y-127.291
X152.868Y-152.448
X154.138Y-130.843
X154.865Y-139.684
X156.254Y-144.758
X157.072Y-145.58
X159.119Y-150.867
X160.002Y-151.227
X163.6Y-141.962
X164.894Y-156.389
X174.661Y-164.507
X175.172Y-158.891
X210.424Y-141.528
X215.706Y-175.05
T2
X108.0Y-131.0
X108.0Y-137.429
X108.0Y-143.857
X108.0Y-150.286
X108.0Y-156.714
X108.0Y-163.143
X108.0Y-169.571
X118.16Y-131.0
X118.16Y-137.429
X118.16Y-143.857
X118.16Y-150.286
X118.16Y-156.714
X118.16Y-163.143
X118.16Y-169.571
X130.0Y-105.0
X130.0Y-171.0
X132.0Y-105.0
X135.0Y-171.0
X137.0Y-107.0
X139.54Y-107.0
X140.0Y-169.0
X140.0Y-171.54
X140.0Y-174.08
X140.0Y-176.62
X143.0Y-107.0
X147.62Y-169.0
X147.62Y-171.54
X147.62Y-174.08
X147.62Y-176.62
X152.0Y-124.0
X153.16Y-107.0
X154.0Y-161.0
X154.0Y-163.54
X154.0Y-166.08
X154.0Y-168.62
X154.0Y-171.16
X154.0Y-173.7
X154.0Y-176.24
X154.0Y-178.78
X157.0Y-124.0
X161.62Y-161.0
X161.62Y-163.54
X161.62Y-166.08
X161.62Y-168.62
X161.62Y-171.16
X161.62Y-173.7
X161.62Y-176.24
X161.62Y-178.78
X162.0Y-134.0
X162.0Y-141.0
X162.0Y-148.0
X162.0Y-155.0
X166.0Y-163.0
X171.0Y-163.0
X172.16Y-134.0
X172.16Y-141.0
X172.16Y-148.0
X172.16Y-155.0
T3
X105.0Y-186.0
X106.5Y-190.0
X110.0Y-182.0
X110.0Y-186.0
X112.0Y-105.0
X113.5Y-190.0
X115.0Y-110.0
X115.0Y-186.0
X118.0Y-105.0
X142.0Y-129.0
X142.0Y-131.54
X142.0Y-134.08
X142.0Y-136.62
X142.0Y-139.16
X142.0Y-141.7
X142.0Y-144.24
X142.0Y-146.78
X142.0Y-149.32
X142.0Y-151.86
X142.0Y-154.4
X142.0Y-156.94
X142.0Y-159.48
X142.0Y-162.02
X142.0Y-164.56
X144.54Y-129.0
X144.54Y-131.54
X144.54Y-134.08
X144.54Y-136.62
X144.54Y-139.16
X144.54Y-141.7
X144.54Y-144.24
X144.54Y-146.78
X144.54Y-149.32
X144.54Y-151.86
X144.54Y-154.4
X144.54Y-156.94
X144.54Y-159.48
X144.54Y-162.02
X144.54Y-164.56
X212.0Y-128.0
X212.0Y-130.54
X212.0Y-133.08
X212.0Y-135.62
X212.0Y-138.16
X212.0Y-140.7
X212.0Y-143.24
X212.0Y-145.78
X212.0Y-148.32
X212.0Y-150.86
X212.0Y-153.4
X212.0Y-155.94
X212.0Y-158.48
X212.0Y-161.02
X212.0Y-163.56
X212.0Y-166.1
X212.0Y-168.64
X214.54Y-128.0
X214.54Y-130.54
X214.54Y-133.08
X214.54Y-135.62
X214.54Y-138.16
X214.54Y-140.7
X214.54Y-143.24
X214.54Y-145.78
X214.54Y-148.32
X214.54Y-150.86
X214.54Y-153.4
X214.54Y-155.94
X214.54Y-158.48
X214.54Y-161.02
X214.54Y-163.56
X214.54Y-166.1
X214.54Y-168.64
T4
X102.5Y-186.0
X117.5Y-186.0
T5
X103.0Y-103.0
X103.0Y-197.0
X217.0Y-103.0
X217.0Y-197.0
M30
