%TF.GenerationSoftware,KiCad,Pcbnew,9.0.7*%
%TF.CreationDate,2026-03-10T00:11:23+02:00*%
%TF.ProjectId,64korppu-E,36346b6f-7270-4707-952d-452e6b696361,rev?*%
%TF.SameCoordinates,Original*%
%TF.FileFunction,Legend,Top*%
%TF.FilePolarity,Positive*%
%FSLAX46Y46*%
G04 Gerber Fmt 4.6, Leading zero omitted, Abs format (unit mm)*
G04 Created by KiCad (PCBNEW 9.0.7) date 2026-03-10 00:11:23*
%MOMM*%
%LPD*%
G01*
G04 APERTURE LIST*
%ADD10C,0.150000*%
G04 APERTURE END LIST*
D10*
X114666666Y-101454819D02*
X114666666Y-102169104D01*
X114666666Y-102169104D02*
X114619047Y-102311961D01*
X114619047Y-102311961D02*
X114523809Y-102407200D01*
X114523809Y-102407200D02*
X114380952Y-102454819D01*
X114380952Y-102454819D02*
X114285714Y-102454819D01*
X115047619Y-101454819D02*
X115666666Y-101454819D01*
X115666666Y-101454819D02*
X115333333Y-101835771D01*
X115333333Y-101835771D02*
X115476190Y-101835771D01*
X115476190Y-101835771D02*
X115571428Y-101883390D01*
X115571428Y-101883390D02*
X115619047Y-101931009D01*
X115619047Y-101931009D02*
X115666666Y-102026247D01*
X115666666Y-102026247D02*
X115666666Y-102264342D01*
X115666666Y-102264342D02*
X115619047Y-102359580D01*
X115619047Y-102359580D02*
X115571428Y-102407200D01*
X115571428Y-102407200D02*
X115476190Y-102454819D01*
X115476190Y-102454819D02*
X115190476Y-102454819D01*
X115190476Y-102454819D02*
X115095238Y-102407200D01*
X115095238Y-102407200D02*
X115047619Y-102359580D01*
X130833333Y-102359580D02*
X130785714Y-102407200D01*
X130785714Y-102407200D02*
X130642857Y-102454819D01*
X130642857Y-102454819D02*
X130547619Y-102454819D01*
X130547619Y-102454819D02*
X130404762Y-102407200D01*
X130404762Y-102407200D02*
X130309524Y-102311961D01*
X130309524Y-102311961D02*
X130261905Y-102216723D01*
X130261905Y-102216723D02*
X130214286Y-102026247D01*
X130214286Y-102026247D02*
X130214286Y-101883390D01*
X130214286Y-101883390D02*
X130261905Y-101692914D01*
X130261905Y-101692914D02*
X130309524Y-101597676D01*
X130309524Y-101597676D02*
X130404762Y-101502438D01*
X130404762Y-101502438D02*
X130547619Y-101454819D01*
X130547619Y-101454819D02*
X130642857Y-101454819D01*
X130642857Y-101454819D02*
X130785714Y-101502438D01*
X130785714Y-101502438D02*
X130833333Y-101550057D01*
X131690476Y-101788152D02*
X131690476Y-102454819D01*
X131452381Y-101407200D02*
X131214286Y-102121485D01*
X131214286Y-102121485D02*
X131833333Y-102121485D01*
X109666666Y-176454819D02*
X109666666Y-177169104D01*
X109666666Y-177169104D02*
X109619047Y-177311961D01*
X109619047Y-177311961D02*
X109523809Y-177407200D01*
X109523809Y-177407200D02*
X109380952Y-177454819D01*
X109380952Y-177454819D02*
X109285714Y-177454819D01*
X110666666Y-177454819D02*
X110095238Y-177454819D01*
X110380952Y-177454819D02*
X110380952Y-176454819D01*
X110380952Y-176454819D02*
X110285714Y-176597676D01*
X110285714Y-176597676D02*
X110190476Y-176692914D01*
X110190476Y-176692914D02*
X110095238Y-176740533D01*
X112833333Y-129454819D02*
X112500000Y-128978628D01*
X112261905Y-129454819D02*
X112261905Y-128454819D01*
X112261905Y-128454819D02*
X112642857Y-128454819D01*
X112642857Y-128454819D02*
X112738095Y-128502438D01*
X112738095Y-128502438D02*
X112785714Y-128550057D01*
X112785714Y-128550057D02*
X112833333Y-128645295D01*
X112833333Y-128645295D02*
X112833333Y-128788152D01*
X112833333Y-128788152D02*
X112785714Y-128883390D01*
X112785714Y-128883390D02*
X112738095Y-128931009D01*
X112738095Y-128931009D02*
X112642857Y-128978628D01*
X112642857Y-128978628D02*
X112261905Y-128978628D01*
X113785714Y-129454819D02*
X113214286Y-129454819D01*
X113500000Y-129454819D02*
X113500000Y-128454819D01*
X113500000Y-128454819D02*
X113404762Y-128597676D01*
X113404762Y-128597676D02*
X113309524Y-128692914D01*
X113309524Y-128692914D02*
X113214286Y-128740533D01*
X112833333Y-135883419D02*
X112500000Y-135407228D01*
X112261905Y-135883419D02*
X112261905Y-134883419D01*
X112261905Y-134883419D02*
X112642857Y-134883419D01*
X112642857Y-134883419D02*
X112738095Y-134931038D01*
X112738095Y-134931038D02*
X112785714Y-134978657D01*
X112785714Y-134978657D02*
X112833333Y-135073895D01*
X112833333Y-135073895D02*
X112833333Y-135216752D01*
X112833333Y-135216752D02*
X112785714Y-135311990D01*
X112785714Y-135311990D02*
X112738095Y-135359609D01*
X112738095Y-135359609D02*
X112642857Y-135407228D01*
X112642857Y-135407228D02*
X112261905Y-135407228D01*
X113214286Y-134978657D02*
X113261905Y-134931038D01*
X113261905Y-134931038D02*
X113357143Y-134883419D01*
X113357143Y-134883419D02*
X113595238Y-134883419D01*
X113595238Y-134883419D02*
X113690476Y-134931038D01*
X113690476Y-134931038D02*
X113738095Y-134978657D01*
X113738095Y-134978657D02*
X113785714Y-135073895D01*
X113785714Y-135073895D02*
X113785714Y-135169133D01*
X113785714Y-135169133D02*
X113738095Y-135311990D01*
X113738095Y-135311990D02*
X113166667Y-135883419D01*
X113166667Y-135883419D02*
X113785714Y-135883419D01*
X112833333Y-142311919D02*
X112500000Y-141835728D01*
X112261905Y-142311919D02*
X112261905Y-141311919D01*
X112261905Y-141311919D02*
X112642857Y-141311919D01*
X112642857Y-141311919D02*
X112738095Y-141359538D01*
X112738095Y-141359538D02*
X112785714Y-141407157D01*
X112785714Y-141407157D02*
X112833333Y-141502395D01*
X112833333Y-141502395D02*
X112833333Y-141645252D01*
X112833333Y-141645252D02*
X112785714Y-141740490D01*
X112785714Y-141740490D02*
X112738095Y-141788109D01*
X112738095Y-141788109D02*
X112642857Y-141835728D01*
X112642857Y-141835728D02*
X112261905Y-141835728D01*
X113166667Y-141311919D02*
X113785714Y-141311919D01*
X113785714Y-141311919D02*
X113452381Y-141692871D01*
X113452381Y-141692871D02*
X113595238Y-141692871D01*
X113595238Y-141692871D02*
X113690476Y-141740490D01*
X113690476Y-141740490D02*
X113738095Y-141788109D01*
X113738095Y-141788109D02*
X113785714Y-141883347D01*
X113785714Y-141883347D02*
X113785714Y-142121442D01*
X113785714Y-142121442D02*
X113738095Y-142216680D01*
X113738095Y-142216680D02*
X113690476Y-142264300D01*
X113690476Y-142264300D02*
X113595238Y-142311919D01*
X113595238Y-142311919D02*
X113309524Y-142311919D01*
X113309524Y-142311919D02*
X113214286Y-142264300D01*
X113214286Y-142264300D02*
X113166667Y-142216680D01*
X112833333Y-148740519D02*
X112500000Y-148264328D01*
X112261905Y-148740519D02*
X112261905Y-147740519D01*
X112261905Y-147740519D02*
X112642857Y-147740519D01*
X112642857Y-147740519D02*
X112738095Y-147788138D01*
X112738095Y-147788138D02*
X112785714Y-147835757D01*
X112785714Y-147835757D02*
X112833333Y-147930995D01*
X112833333Y-147930995D02*
X112833333Y-148073852D01*
X112833333Y-148073852D02*
X112785714Y-148169090D01*
X112785714Y-148169090D02*
X112738095Y-148216709D01*
X112738095Y-148216709D02*
X112642857Y-148264328D01*
X112642857Y-148264328D02*
X112261905Y-148264328D01*
X113690476Y-148073852D02*
X113690476Y-148740519D01*
X113452381Y-147692900D02*
X113214286Y-148407185D01*
X113214286Y-148407185D02*
X113833333Y-148407185D01*
X112833333Y-155169119D02*
X112500000Y-154692928D01*
X112261905Y-155169119D02*
X112261905Y-154169119D01*
X112261905Y-154169119D02*
X112642857Y-154169119D01*
X112642857Y-154169119D02*
X112738095Y-154216738D01*
X112738095Y-154216738D02*
X112785714Y-154264357D01*
X112785714Y-154264357D02*
X112833333Y-154359595D01*
X112833333Y-154359595D02*
X112833333Y-154502452D01*
X112833333Y-154502452D02*
X112785714Y-154597690D01*
X112785714Y-154597690D02*
X112738095Y-154645309D01*
X112738095Y-154645309D02*
X112642857Y-154692928D01*
X112642857Y-154692928D02*
X112261905Y-154692928D01*
X113738095Y-154169119D02*
X113261905Y-154169119D01*
X113261905Y-154169119D02*
X113214286Y-154645309D01*
X113214286Y-154645309D02*
X113261905Y-154597690D01*
X113261905Y-154597690D02*
X113357143Y-154550071D01*
X113357143Y-154550071D02*
X113595238Y-154550071D01*
X113595238Y-154550071D02*
X113690476Y-154597690D01*
X113690476Y-154597690D02*
X113738095Y-154645309D01*
X113738095Y-154645309D02*
X113785714Y-154740547D01*
X113785714Y-154740547D02*
X113785714Y-154978642D01*
X113785714Y-154978642D02*
X113738095Y-155073880D01*
X113738095Y-155073880D02*
X113690476Y-155121500D01*
X113690476Y-155121500D02*
X113595238Y-155169119D01*
X113595238Y-155169119D02*
X113357143Y-155169119D01*
X113357143Y-155169119D02*
X113261905Y-155121500D01*
X113261905Y-155121500D02*
X113214286Y-155073880D01*
X112833333Y-161597719D02*
X112500000Y-161121528D01*
X112261905Y-161597719D02*
X112261905Y-160597719D01*
X112261905Y-160597719D02*
X112642857Y-160597719D01*
X112642857Y-160597719D02*
X112738095Y-160645338D01*
X112738095Y-160645338D02*
X112785714Y-160692957D01*
X112785714Y-160692957D02*
X112833333Y-160788195D01*
X112833333Y-160788195D02*
X112833333Y-160931052D01*
X112833333Y-160931052D02*
X112785714Y-161026290D01*
X112785714Y-161026290D02*
X112738095Y-161073909D01*
X112738095Y-161073909D02*
X112642857Y-161121528D01*
X112642857Y-161121528D02*
X112261905Y-161121528D01*
X113690476Y-160597719D02*
X113500000Y-160597719D01*
X113500000Y-160597719D02*
X113404762Y-160645338D01*
X113404762Y-160645338D02*
X113357143Y-160692957D01*
X113357143Y-160692957D02*
X113261905Y-160835814D01*
X113261905Y-160835814D02*
X113214286Y-161026290D01*
X113214286Y-161026290D02*
X113214286Y-161407242D01*
X113214286Y-161407242D02*
X113261905Y-161502480D01*
X113261905Y-161502480D02*
X113309524Y-161550100D01*
X113309524Y-161550100D02*
X113404762Y-161597719D01*
X113404762Y-161597719D02*
X113595238Y-161597719D01*
X113595238Y-161597719D02*
X113690476Y-161550100D01*
X113690476Y-161550100D02*
X113738095Y-161502480D01*
X113738095Y-161502480D02*
X113785714Y-161407242D01*
X113785714Y-161407242D02*
X113785714Y-161169147D01*
X113785714Y-161169147D02*
X113738095Y-161073909D01*
X113738095Y-161073909D02*
X113690476Y-161026290D01*
X113690476Y-161026290D02*
X113595238Y-160978671D01*
X113595238Y-160978671D02*
X113404762Y-160978671D01*
X113404762Y-160978671D02*
X113309524Y-161026290D01*
X113309524Y-161026290D02*
X113261905Y-161073909D01*
X113261905Y-161073909D02*
X113214286Y-161169147D01*
X112833333Y-168026219D02*
X112500000Y-167550028D01*
X112261905Y-168026219D02*
X112261905Y-167026219D01*
X112261905Y-167026219D02*
X112642857Y-167026219D01*
X112642857Y-167026219D02*
X112738095Y-167073838D01*
X112738095Y-167073838D02*
X112785714Y-167121457D01*
X112785714Y-167121457D02*
X112833333Y-167216695D01*
X112833333Y-167216695D02*
X112833333Y-167359552D01*
X112833333Y-167359552D02*
X112785714Y-167454790D01*
X112785714Y-167454790D02*
X112738095Y-167502409D01*
X112738095Y-167502409D02*
X112642857Y-167550028D01*
X112642857Y-167550028D02*
X112261905Y-167550028D01*
X113166667Y-167026219D02*
X113833333Y-167026219D01*
X113833333Y-167026219D02*
X113404762Y-168026219D01*
X142508095Y-126454819D02*
X142508095Y-127264342D01*
X142508095Y-127264342D02*
X142555714Y-127359580D01*
X142555714Y-127359580D02*
X142603333Y-127407200D01*
X142603333Y-127407200D02*
X142698571Y-127454819D01*
X142698571Y-127454819D02*
X142889047Y-127454819D01*
X142889047Y-127454819D02*
X142984285Y-127407200D01*
X142984285Y-127407200D02*
X143031904Y-127359580D01*
X143031904Y-127359580D02*
X143079523Y-127264342D01*
X143079523Y-127264342D02*
X143079523Y-126454819D01*
X144079523Y-127454819D02*
X143508095Y-127454819D01*
X143793809Y-127454819D02*
X143793809Y-126454819D01*
X143793809Y-126454819D02*
X143698571Y-126597676D01*
X143698571Y-126597676D02*
X143603333Y-126692914D01*
X143603333Y-126692914D02*
X143508095Y-126740533D01*
X143048095Y-166454819D02*
X143048095Y-167264342D01*
X143048095Y-167264342D02*
X143095714Y-167359580D01*
X143095714Y-167359580D02*
X143143333Y-167407200D01*
X143143333Y-167407200D02*
X143238571Y-167454819D01*
X143238571Y-167454819D02*
X143429047Y-167454819D01*
X143429047Y-167454819D02*
X143524285Y-167407200D01*
X143524285Y-167407200D02*
X143571904Y-167359580D01*
X143571904Y-167359580D02*
X143619523Y-167264342D01*
X143619523Y-167264342D02*
X143619523Y-166454819D01*
X144048095Y-166550057D02*
X144095714Y-166502438D01*
X144095714Y-166502438D02*
X144190952Y-166454819D01*
X144190952Y-166454819D02*
X144429047Y-166454819D01*
X144429047Y-166454819D02*
X144524285Y-166502438D01*
X144524285Y-166502438D02*
X144571904Y-166550057D01*
X144571904Y-166550057D02*
X144619523Y-166645295D01*
X144619523Y-166645295D02*
X144619523Y-166740533D01*
X144619523Y-166740533D02*
X144571904Y-166883390D01*
X144571904Y-166883390D02*
X144000476Y-167454819D01*
X144000476Y-167454819D02*
X144619523Y-167454819D01*
X157048095Y-158454819D02*
X157048095Y-159264342D01*
X157048095Y-159264342D02*
X157095714Y-159359580D01*
X157095714Y-159359580D02*
X157143333Y-159407200D01*
X157143333Y-159407200D02*
X157238571Y-159454819D01*
X157238571Y-159454819D02*
X157429047Y-159454819D01*
X157429047Y-159454819D02*
X157524285Y-159407200D01*
X157524285Y-159407200D02*
X157571904Y-159359580D01*
X157571904Y-159359580D02*
X157619523Y-159264342D01*
X157619523Y-159264342D02*
X157619523Y-158454819D01*
X158000476Y-158454819D02*
X158619523Y-158454819D01*
X158619523Y-158454819D02*
X158286190Y-158835771D01*
X158286190Y-158835771D02*
X158429047Y-158835771D01*
X158429047Y-158835771D02*
X158524285Y-158883390D01*
X158524285Y-158883390D02*
X158571904Y-158931009D01*
X158571904Y-158931009D02*
X158619523Y-159026247D01*
X158619523Y-159026247D02*
X158619523Y-159264342D01*
X158619523Y-159264342D02*
X158571904Y-159359580D01*
X158571904Y-159359580D02*
X158524285Y-159407200D01*
X158524285Y-159407200D02*
X158429047Y-159454819D01*
X158429047Y-159454819D02*
X158143333Y-159454819D01*
X158143333Y-159454819D02*
X158048095Y-159407200D01*
X158048095Y-159407200D02*
X158000476Y-159359580D01*
X212936666Y-125454819D02*
X212936666Y-126169104D01*
X212936666Y-126169104D02*
X212889047Y-126311961D01*
X212889047Y-126311961D02*
X212793809Y-126407200D01*
X212793809Y-126407200D02*
X212650952Y-126454819D01*
X212650952Y-126454819D02*
X212555714Y-126454819D01*
X213365238Y-125550057D02*
X213412857Y-125502438D01*
X213412857Y-125502438D02*
X213508095Y-125454819D01*
X213508095Y-125454819D02*
X213746190Y-125454819D01*
X213746190Y-125454819D02*
X213841428Y-125502438D01*
X213841428Y-125502438D02*
X213889047Y-125550057D01*
X213889047Y-125550057D02*
X213936666Y-125645295D01*
X213936666Y-125645295D02*
X213936666Y-125740533D01*
X213936666Y-125740533D02*
X213889047Y-125883390D01*
X213889047Y-125883390D02*
X213317619Y-126454819D01*
X213317619Y-126454819D02*
X213936666Y-126454819D01*
X147833333Y-105454819D02*
X147500000Y-104978628D01*
X147261905Y-105454819D02*
X147261905Y-104454819D01*
X147261905Y-104454819D02*
X147642857Y-104454819D01*
X147642857Y-104454819D02*
X147738095Y-104502438D01*
X147738095Y-104502438D02*
X147785714Y-104550057D01*
X147785714Y-104550057D02*
X147833333Y-104645295D01*
X147833333Y-104645295D02*
X147833333Y-104788152D01*
X147833333Y-104788152D02*
X147785714Y-104883390D01*
X147785714Y-104883390D02*
X147738095Y-104931009D01*
X147738095Y-104931009D02*
X147642857Y-104978628D01*
X147642857Y-104978628D02*
X147261905Y-104978628D01*
X148404762Y-104883390D02*
X148309524Y-104835771D01*
X148309524Y-104835771D02*
X148261905Y-104788152D01*
X148261905Y-104788152D02*
X148214286Y-104692914D01*
X148214286Y-104692914D02*
X148214286Y-104645295D01*
X148214286Y-104645295D02*
X148261905Y-104550057D01*
X148261905Y-104550057D02*
X148309524Y-104502438D01*
X148309524Y-104502438D02*
X148404762Y-104454819D01*
X148404762Y-104454819D02*
X148595238Y-104454819D01*
X148595238Y-104454819D02*
X148690476Y-104502438D01*
X148690476Y-104502438D02*
X148738095Y-104550057D01*
X148738095Y-104550057D02*
X148785714Y-104645295D01*
X148785714Y-104645295D02*
X148785714Y-104692914D01*
X148785714Y-104692914D02*
X148738095Y-104788152D01*
X148738095Y-104788152D02*
X148690476Y-104835771D01*
X148690476Y-104835771D02*
X148595238Y-104883390D01*
X148595238Y-104883390D02*
X148404762Y-104883390D01*
X148404762Y-104883390D02*
X148309524Y-104931009D01*
X148309524Y-104931009D02*
X148261905Y-104978628D01*
X148261905Y-104978628D02*
X148214286Y-105073866D01*
X148214286Y-105073866D02*
X148214286Y-105264342D01*
X148214286Y-105264342D02*
X148261905Y-105359580D01*
X148261905Y-105359580D02*
X148309524Y-105407200D01*
X148309524Y-105407200D02*
X148404762Y-105454819D01*
X148404762Y-105454819D02*
X148595238Y-105454819D01*
X148595238Y-105454819D02*
X148690476Y-105407200D01*
X148690476Y-105407200D02*
X148738095Y-105359580D01*
X148738095Y-105359580D02*
X148785714Y-105264342D01*
X148785714Y-105264342D02*
X148785714Y-105073866D01*
X148785714Y-105073866D02*
X148738095Y-104978628D01*
X148738095Y-104978628D02*
X148690476Y-104931009D01*
X148690476Y-104931009D02*
X148595238Y-104883390D01*
X137531905Y-105454819D02*
X137531905Y-104454819D01*
X137531905Y-104454819D02*
X137770000Y-104454819D01*
X137770000Y-104454819D02*
X137912857Y-104502438D01*
X137912857Y-104502438D02*
X138008095Y-104597676D01*
X138008095Y-104597676D02*
X138055714Y-104692914D01*
X138055714Y-104692914D02*
X138103333Y-104883390D01*
X138103333Y-104883390D02*
X138103333Y-105026247D01*
X138103333Y-105026247D02*
X138055714Y-105216723D01*
X138055714Y-105216723D02*
X138008095Y-105311961D01*
X138008095Y-105311961D02*
X137912857Y-105407200D01*
X137912857Y-105407200D02*
X137770000Y-105454819D01*
X137770000Y-105454819D02*
X137531905Y-105454819D01*
X139055714Y-105454819D02*
X138484286Y-105454819D01*
X138770000Y-105454819D02*
X138770000Y-104454819D01*
X138770000Y-104454819D02*
X138674762Y-104597676D01*
X138674762Y-104597676D02*
X138579524Y-104692914D01*
X138579524Y-104692914D02*
X138484286Y-104740533D01*
X166833333Y-132454819D02*
X166500000Y-131978628D01*
X166261905Y-132454819D02*
X166261905Y-131454819D01*
X166261905Y-131454819D02*
X166642857Y-131454819D01*
X166642857Y-131454819D02*
X166738095Y-131502438D01*
X166738095Y-131502438D02*
X166785714Y-131550057D01*
X166785714Y-131550057D02*
X166833333Y-131645295D01*
X166833333Y-131645295D02*
X166833333Y-131788152D01*
X166833333Y-131788152D02*
X166785714Y-131883390D01*
X166785714Y-131883390D02*
X166738095Y-131931009D01*
X166738095Y-131931009D02*
X166642857Y-131978628D01*
X166642857Y-131978628D02*
X166261905Y-131978628D01*
X167309524Y-132454819D02*
X167500000Y-132454819D01*
X167500000Y-132454819D02*
X167595238Y-132407200D01*
X167595238Y-132407200D02*
X167642857Y-132359580D01*
X167642857Y-132359580D02*
X167738095Y-132216723D01*
X167738095Y-132216723D02*
X167785714Y-132026247D01*
X167785714Y-132026247D02*
X167785714Y-131645295D01*
X167785714Y-131645295D02*
X167738095Y-131550057D01*
X167738095Y-131550057D02*
X167690476Y-131502438D01*
X167690476Y-131502438D02*
X167595238Y-131454819D01*
X167595238Y-131454819D02*
X167404762Y-131454819D01*
X167404762Y-131454819D02*
X167309524Y-131502438D01*
X167309524Y-131502438D02*
X167261905Y-131550057D01*
X167261905Y-131550057D02*
X167214286Y-131645295D01*
X167214286Y-131645295D02*
X167214286Y-131883390D01*
X167214286Y-131883390D02*
X167261905Y-131978628D01*
X167261905Y-131978628D02*
X167309524Y-132026247D01*
X167309524Y-132026247D02*
X167404762Y-132073866D01*
X167404762Y-132073866D02*
X167595238Y-132073866D01*
X167595238Y-132073866D02*
X167690476Y-132026247D01*
X167690476Y-132026247D02*
X167738095Y-131978628D01*
X167738095Y-131978628D02*
X167785714Y-131883390D01*
X166357142Y-139454819D02*
X166023809Y-138978628D01*
X165785714Y-139454819D02*
X165785714Y-138454819D01*
X165785714Y-138454819D02*
X166166666Y-138454819D01*
X166166666Y-138454819D02*
X166261904Y-138502438D01*
X166261904Y-138502438D02*
X166309523Y-138550057D01*
X166309523Y-138550057D02*
X166357142Y-138645295D01*
X166357142Y-138645295D02*
X166357142Y-138788152D01*
X166357142Y-138788152D02*
X166309523Y-138883390D01*
X166309523Y-138883390D02*
X166261904Y-138931009D01*
X166261904Y-138931009D02*
X166166666Y-138978628D01*
X166166666Y-138978628D02*
X165785714Y-138978628D01*
X167309523Y-139454819D02*
X166738095Y-139454819D01*
X167023809Y-139454819D02*
X167023809Y-138454819D01*
X167023809Y-138454819D02*
X166928571Y-138597676D01*
X166928571Y-138597676D02*
X166833333Y-138692914D01*
X166833333Y-138692914D02*
X166738095Y-138740533D01*
X167928571Y-138454819D02*
X168023809Y-138454819D01*
X168023809Y-138454819D02*
X168119047Y-138502438D01*
X168119047Y-138502438D02*
X168166666Y-138550057D01*
X168166666Y-138550057D02*
X168214285Y-138645295D01*
X168214285Y-138645295D02*
X168261904Y-138835771D01*
X168261904Y-138835771D02*
X168261904Y-139073866D01*
X168261904Y-139073866D02*
X168214285Y-139264342D01*
X168214285Y-139264342D02*
X168166666Y-139359580D01*
X168166666Y-139359580D02*
X168119047Y-139407200D01*
X168119047Y-139407200D02*
X168023809Y-139454819D01*
X168023809Y-139454819D02*
X167928571Y-139454819D01*
X167928571Y-139454819D02*
X167833333Y-139407200D01*
X167833333Y-139407200D02*
X167785714Y-139359580D01*
X167785714Y-139359580D02*
X167738095Y-139264342D01*
X167738095Y-139264342D02*
X167690476Y-139073866D01*
X167690476Y-139073866D02*
X167690476Y-138835771D01*
X167690476Y-138835771D02*
X167738095Y-138645295D01*
X167738095Y-138645295D02*
X167785714Y-138550057D01*
X167785714Y-138550057D02*
X167833333Y-138502438D01*
X167833333Y-138502438D02*
X167928571Y-138454819D01*
X166357142Y-146454819D02*
X166023809Y-145978628D01*
X165785714Y-146454819D02*
X165785714Y-145454819D01*
X165785714Y-145454819D02*
X166166666Y-145454819D01*
X166166666Y-145454819D02*
X166261904Y-145502438D01*
X166261904Y-145502438D02*
X166309523Y-145550057D01*
X166309523Y-145550057D02*
X166357142Y-145645295D01*
X166357142Y-145645295D02*
X166357142Y-145788152D01*
X166357142Y-145788152D02*
X166309523Y-145883390D01*
X166309523Y-145883390D02*
X166261904Y-145931009D01*
X166261904Y-145931009D02*
X166166666Y-145978628D01*
X166166666Y-145978628D02*
X165785714Y-145978628D01*
X167309523Y-146454819D02*
X166738095Y-146454819D01*
X167023809Y-146454819D02*
X167023809Y-145454819D01*
X167023809Y-145454819D02*
X166928571Y-145597676D01*
X166928571Y-145597676D02*
X166833333Y-145692914D01*
X166833333Y-145692914D02*
X166738095Y-145740533D01*
X168261904Y-146454819D02*
X167690476Y-146454819D01*
X167976190Y-146454819D02*
X167976190Y-145454819D01*
X167976190Y-145454819D02*
X167880952Y-145597676D01*
X167880952Y-145597676D02*
X167785714Y-145692914D01*
X167785714Y-145692914D02*
X167690476Y-145740533D01*
X166357142Y-153454819D02*
X166023809Y-152978628D01*
X165785714Y-153454819D02*
X165785714Y-152454819D01*
X165785714Y-152454819D02*
X166166666Y-152454819D01*
X166166666Y-152454819D02*
X166261904Y-152502438D01*
X166261904Y-152502438D02*
X166309523Y-152550057D01*
X166309523Y-152550057D02*
X166357142Y-152645295D01*
X166357142Y-152645295D02*
X166357142Y-152788152D01*
X166357142Y-152788152D02*
X166309523Y-152883390D01*
X166309523Y-152883390D02*
X166261904Y-152931009D01*
X166261904Y-152931009D02*
X166166666Y-152978628D01*
X166166666Y-152978628D02*
X165785714Y-152978628D01*
X167309523Y-153454819D02*
X166738095Y-153454819D01*
X167023809Y-153454819D02*
X167023809Y-152454819D01*
X167023809Y-152454819D02*
X166928571Y-152597676D01*
X166928571Y-152597676D02*
X166833333Y-152692914D01*
X166833333Y-152692914D02*
X166738095Y-152740533D01*
X167690476Y-152550057D02*
X167738095Y-152502438D01*
X167738095Y-152502438D02*
X167833333Y-152454819D01*
X167833333Y-152454819D02*
X168071428Y-152454819D01*
X168071428Y-152454819D02*
X168166666Y-152502438D01*
X168166666Y-152502438D02*
X168214285Y-152550057D01*
X168214285Y-152550057D02*
X168261904Y-152645295D01*
X168261904Y-152645295D02*
X168261904Y-152740533D01*
X168261904Y-152740533D02*
X168214285Y-152883390D01*
X168214285Y-152883390D02*
X167642857Y-153454819D01*
X167642857Y-153454819D02*
X168261904Y-153454819D01*
X132333333Y-169359580D02*
X132285714Y-169407200D01*
X132285714Y-169407200D02*
X132142857Y-169454819D01*
X132142857Y-169454819D02*
X132047619Y-169454819D01*
X132047619Y-169454819D02*
X131904762Y-169407200D01*
X131904762Y-169407200D02*
X131809524Y-169311961D01*
X131809524Y-169311961D02*
X131761905Y-169216723D01*
X131761905Y-169216723D02*
X131714286Y-169026247D01*
X131714286Y-169026247D02*
X131714286Y-168883390D01*
X131714286Y-168883390D02*
X131761905Y-168692914D01*
X131761905Y-168692914D02*
X131809524Y-168597676D01*
X131809524Y-168597676D02*
X131904762Y-168502438D01*
X131904762Y-168502438D02*
X132047619Y-168454819D01*
X132047619Y-168454819D02*
X132142857Y-168454819D01*
X132142857Y-168454819D02*
X132285714Y-168502438D01*
X132285714Y-168502438D02*
X132333333Y-168550057D01*
X133285714Y-169454819D02*
X132714286Y-169454819D01*
X133000000Y-169454819D02*
X133000000Y-168454819D01*
X133000000Y-168454819D02*
X132904762Y-168597676D01*
X132904762Y-168597676D02*
X132809524Y-168692914D01*
X132809524Y-168692914D02*
X132714286Y-168740533D01*
X168333333Y-161359580D02*
X168285714Y-161407200D01*
X168285714Y-161407200D02*
X168142857Y-161454819D01*
X168142857Y-161454819D02*
X168047619Y-161454819D01*
X168047619Y-161454819D02*
X167904762Y-161407200D01*
X167904762Y-161407200D02*
X167809524Y-161311961D01*
X167809524Y-161311961D02*
X167761905Y-161216723D01*
X167761905Y-161216723D02*
X167714286Y-161026247D01*
X167714286Y-161026247D02*
X167714286Y-160883390D01*
X167714286Y-160883390D02*
X167761905Y-160692914D01*
X167761905Y-160692914D02*
X167809524Y-160597676D01*
X167809524Y-160597676D02*
X167904762Y-160502438D01*
X167904762Y-160502438D02*
X168047619Y-160454819D01*
X168047619Y-160454819D02*
X168142857Y-160454819D01*
X168142857Y-160454819D02*
X168285714Y-160502438D01*
X168285714Y-160502438D02*
X168333333Y-160550057D01*
X168714286Y-160550057D02*
X168761905Y-160502438D01*
X168761905Y-160502438D02*
X168857143Y-160454819D01*
X168857143Y-160454819D02*
X169095238Y-160454819D01*
X169095238Y-160454819D02*
X169190476Y-160502438D01*
X169190476Y-160502438D02*
X169238095Y-160550057D01*
X169238095Y-160550057D02*
X169285714Y-160645295D01*
X169285714Y-160645295D02*
X169285714Y-160740533D01*
X169285714Y-160740533D02*
X169238095Y-160883390D01*
X169238095Y-160883390D02*
X168666667Y-161454819D01*
X168666667Y-161454819D02*
X169285714Y-161454819D01*
X154333333Y-122359580D02*
X154285714Y-122407200D01*
X154285714Y-122407200D02*
X154142857Y-122454819D01*
X154142857Y-122454819D02*
X154047619Y-122454819D01*
X154047619Y-122454819D02*
X153904762Y-122407200D01*
X153904762Y-122407200D02*
X153809524Y-122311961D01*
X153809524Y-122311961D02*
X153761905Y-122216723D01*
X153761905Y-122216723D02*
X153714286Y-122026247D01*
X153714286Y-122026247D02*
X153714286Y-121883390D01*
X153714286Y-121883390D02*
X153761905Y-121692914D01*
X153761905Y-121692914D02*
X153809524Y-121597676D01*
X153809524Y-121597676D02*
X153904762Y-121502438D01*
X153904762Y-121502438D02*
X154047619Y-121454819D01*
X154047619Y-121454819D02*
X154142857Y-121454819D01*
X154142857Y-121454819D02*
X154285714Y-121502438D01*
X154285714Y-121502438D02*
X154333333Y-121550057D01*
X154666667Y-121454819D02*
X155285714Y-121454819D01*
X155285714Y-121454819D02*
X154952381Y-121835771D01*
X154952381Y-121835771D02*
X155095238Y-121835771D01*
X155095238Y-121835771D02*
X155190476Y-121883390D01*
X155190476Y-121883390D02*
X155238095Y-121931009D01*
X155238095Y-121931009D02*
X155285714Y-122026247D01*
X155285714Y-122026247D02*
X155285714Y-122264342D01*
X155285714Y-122264342D02*
X155238095Y-122359580D01*
X155238095Y-122359580D02*
X155190476Y-122407200D01*
X155190476Y-122407200D02*
X155095238Y-122454819D01*
X155095238Y-122454819D02*
X154809524Y-122454819D01*
X154809524Y-122454819D02*
X154714286Y-122407200D01*
X154714286Y-122407200D02*
X154666667Y-122359580D01*
M02*
