%TF.GenerationSoftware,KiCad,Pcbnew,9.0.7*%
%TF.CreationDate,2026-03-10T21:43:04+02:00*%
%TF.ProjectId,64korppu-E,36346b6f-7270-4707-952d-452e6b696361,rev?*%
%TF.SameCoordinates,Original*%
%TF.FileFunction,Copper,L2,Bot*%
%TF.FilePolarity,Positive*%
%FSLAX46Y46*%
G04 Gerber Fmt 4.6, Leading zero omitted, Abs format (unit mm)*
G04 Created by KiCad (PCBNEW 9.0.7) date 2026-03-10 21:43:04*
%MOMM*%
%LPD*%
G01*
G04 APERTURE LIST*
%TA.AperFunction,ComponentPad*%
%ADD10R,2.000000X2.000000*%
%TD*%
%TA.AperFunction,ComponentPad*%
%ADD11O,2.000000X2.000000*%
%TD*%
%TA.AperFunction,ComponentPad*%
%ADD12R,1.600000X1.600000*%
%TD*%
%TA.AperFunction,ComponentPad*%
%ADD13O,1.600000X1.600000*%
%TD*%
%TA.AperFunction,ComponentPad*%
%ADD14R,1.800000X1.800000*%
%TD*%
%TA.AperFunction,ComponentPad*%
%ADD15O,1.800000X1.800000*%
%TD*%
%TA.AperFunction,ComponentPad*%
%ADD16O,3.000000X2.000000*%
%TD*%
%TA.AperFunction,ComponentPad*%
%ADD17R,1.700000X1.700000*%
%TD*%
%TA.AperFunction,ComponentPad*%
%ADD18O,1.700000X1.700000*%
%TD*%
%TA.AperFunction,ComponentPad*%
%ADD19C,6.000000*%
%TD*%
%TA.AperFunction,SMDPad,CuDef*%
%ADD20C,1.500000*%
%TD*%
%TA.AperFunction,ViaPad*%
%ADD21C,0.600000*%
%TD*%
%TA.AperFunction,Conductor*%
%ADD22C,0.250000*%
%TD*%
G04 APERTURE END LIST*
D10*
%TO.P,J3,1*%
%TO.N,+5V*%
X112000000Y-105000000D03*
D11*
%TO.P,J3,2*%
X118000000Y-105000000D03*
%TO.P,J3,3*%
%TO.N,GND*%
X115000000Y-110000000D03*
%TD*%
D12*
%TO.P,C4,1*%
%TO.N,+5V*%
X130000000Y-105000000D03*
D13*
%TO.P,C4,2*%
%TO.N,GND*%
X132000000Y-105000000D03*
%TD*%
D14*
%TO.P,J1,1*%
%TO.N,GND*%
X106500000Y-159000000D03*
D15*
%TO.P,J1,2*%
X113500000Y-159000000D03*
%TO.P,J1,3*%
%TO.N,IEC_ATN*%
X105000000Y-155000000D03*
%TO.P,J1,4*%
%TO.N,IEC_CLK*%
X110000000Y-151000000D03*
%TO.P,J1,5*%
%TO.N,IEC_DATA*%
X115000000Y-155000000D03*
%TO.P,J1,6*%
%TO.N,IEC_RESET*%
X110000000Y-155000000D03*
D16*
%TO.P,J1,SH*%
%TO.N,GND*%
X102500000Y-155000000D03*
X117500000Y-155000000D03*
%TD*%
D12*
%TO.P,R1,1*%
%TO.N,IEC_ATN*%
X108000000Y-116000000D03*
D13*
%TO.P,R1,2*%
%TO.N,NANO_D2*%
X118160000Y-116000000D03*
%TD*%
D12*
%TO.P,R2,1*%
%TO.N,IEC_CLK*%
X108000000Y-121000000D03*
D13*
%TO.P,R2,2*%
%TO.N,NANO_D3*%
X118160000Y-121000000D03*
%TD*%
D12*
%TO.P,R3,1*%
%TO.N,IEC_DATA*%
X108000000Y-126000000D03*
D13*
%TO.P,R3,2*%
%TO.N,NANO_D4*%
X118160000Y-126000000D03*
%TD*%
D12*
%TO.P,R4,1*%
%TO.N,IEC_RESET*%
X108000000Y-131000000D03*
D13*
%TO.P,R4,2*%
%TO.N,NANO_D5*%
X118160000Y-131000000D03*
%TD*%
D12*
%TO.P,R5,1*%
%TO.N,+5V*%
X108000000Y-136000000D03*
D13*
%TO.P,R5,2*%
%TO.N,NANO_D2*%
X118160000Y-136000000D03*
%TD*%
D12*
%TO.P,R6,1*%
%TO.N,+5V*%
X108000000Y-140000000D03*
D13*
%TO.P,R6,2*%
%TO.N,NANO_D3*%
X118160000Y-140000000D03*
%TD*%
D12*
%TO.P,R7,1*%
%TO.N,+5V*%
X108000000Y-144000000D03*
D13*
%TO.P,R7,2*%
%TO.N,NANO_D4*%
X118160000Y-144000000D03*
%TD*%
D17*
%TO.P,U1,1*%
%TO.N,N/C*%
X131500000Y-114000000D03*
D18*
%TO.P,U1,2*%
X134040000Y-114000000D03*
%TO.P,U1,3*%
X131500000Y-116540000D03*
%TO.P,U1,4*%
%TO.N,GND*%
X134040000Y-116540000D03*
%TO.P,U1,5*%
%TO.N,N/C*%
X131500000Y-119080000D03*
%TO.P,U1,6*%
X134040000Y-119080000D03*
%TO.P,U1,7*%
%TO.N,GND*%
X131500000Y-121620000D03*
%TO.P,U1,8*%
%TO.N,+5V*%
X134040000Y-121620000D03*
%TO.P,U1,9*%
%TO.N,NANO_D2*%
X131500000Y-124160000D03*
%TO.P,U1,10*%
%TO.N,N/C*%
X134040000Y-124160000D03*
%TO.P,U1,11*%
%TO.N,NANO_D3*%
X131500000Y-126700000D03*
%TO.P,U1,12*%
%TO.N,N/C*%
X134040000Y-126700000D03*
%TO.P,U1,13*%
%TO.N,NANO_D4*%
X131500000Y-129240000D03*
%TO.P,U1,14*%
%TO.N,LED_ANODE*%
X134040000Y-129240000D03*
%TO.P,U1,15*%
%TO.N,NANO_D5*%
X131500000Y-131780000D03*
%TO.P,U1,16*%
%TO.N,N/C*%
X134040000Y-131780000D03*
%TO.P,U1,17*%
%TO.N,LATCH_595*%
X131500000Y-134320000D03*
%TO.P,U1,18*%
%TO.N,N/C*%
X134040000Y-134320000D03*
%TO.P,U1,19*%
%TO.N,FLOPPY_WDATA*%
X131500000Y-136860000D03*
%TO.P,U1,20*%
%TO.N,FLOPPY_DSKCHG*%
X134040000Y-136860000D03*
%TO.P,U1,21*%
%TO.N,FLOPPY_RDATA*%
X131500000Y-139400000D03*
%TO.P,U1,22*%
%TO.N,FLOPPY_WPT*%
X134040000Y-139400000D03*
%TO.P,U1,23*%
%TO.N,N/C*%
X131500000Y-141940000D03*
%TO.P,U1,24*%
%TO.N,FLOPPY_TRK00*%
X134040000Y-141940000D03*
%TO.P,U1,25*%
%TO.N,SPI_CS_SRAM*%
X131500000Y-144480000D03*
%TO.P,U1,26*%
%TO.N,N/C*%
X134040000Y-144480000D03*
%TO.P,U1,27*%
%TO.N,SPI_MOSI*%
X131500000Y-147020000D03*
%TO.P,U1,28*%
%TO.N,N/C*%
X134040000Y-147020000D03*
%TO.P,U1,29*%
%TO.N,SPI_MISO*%
X131500000Y-149560000D03*
%TO.P,U1,30*%
%TO.N,SPI_SCK*%
X134040000Y-149560000D03*
%TD*%
D12*
%TO.P,U2,1*%
%TO.N,SPI_CS_SRAM*%
X129500000Y-154000000D03*
D13*
%TO.P,U2,2*%
%TO.N,SPI_MISO*%
X129500000Y-156540000D03*
%TO.P,U2,3*%
%TO.N,N/C*%
X129500000Y-159080000D03*
%TO.P,U2,4*%
%TO.N,GND*%
X129500000Y-161620000D03*
%TO.P,U2,5*%
%TO.N,SPI_MOSI*%
X137120000Y-161620000D03*
%TO.P,U2,6*%
%TO.N,SPI_SCK*%
X137120000Y-159080000D03*
%TO.P,U2,7*%
%TO.N,+5V*%
X137120000Y-156540000D03*
%TO.P,U2,8*%
X137120000Y-154000000D03*
%TD*%
D12*
%TO.P,U3,1*%
%TO.N,FLOPPY_DENSITY*%
X143500000Y-145000000D03*
D13*
%TO.P,U3,2*%
%TO.N,FLOPPY_MOTEA*%
X143500000Y-147540000D03*
%TO.P,U3,3*%
%TO.N,FLOPPY_DRVSEL*%
X143500000Y-150080000D03*
%TO.P,U3,4*%
%TO.N,FLOPPY_MOTOR*%
X143500000Y-152620000D03*
%TO.P,U3,5*%
%TO.N,FLOPPY_DIR*%
X143500000Y-155160000D03*
%TO.P,U3,6*%
%TO.N,FLOPPY_STEP*%
X143500000Y-157700000D03*
%TO.P,U3,7*%
%TO.N,FLOPPY_WGATE*%
X143500000Y-160240000D03*
%TO.P,U3,8*%
%TO.N,GND*%
X143500000Y-162780000D03*
%TO.P,U3,9*%
%TO.N,N/C*%
X151120000Y-162780000D03*
%TO.P,U3,10*%
%TO.N,+5V*%
X151120000Y-160240000D03*
%TO.P,U3,11*%
%TO.N,SPI_SCK*%
X151120000Y-157700000D03*
%TO.P,U3,12*%
%TO.N,LATCH_595*%
X151120000Y-155160000D03*
%TO.P,U3,13*%
%TO.N,GND*%
X151120000Y-152620000D03*
%TO.P,U3,14*%
%TO.N,SPI_MOSI*%
X151120000Y-150080000D03*
%TO.P,U3,15*%
%TO.N,FLOPPY_SIDE1*%
X151120000Y-147540000D03*
%TO.P,U3,16*%
%TO.N,+5V*%
X151120000Y-145000000D03*
%TD*%
D17*
%TO.P,J2,1*%
%TO.N,GND*%
X182000000Y-113000000D03*
D18*
%TO.P,J2,2*%
%TO.N,FLOPPY_DENSITY*%
X184540000Y-113000000D03*
%TO.P,J2,3*%
%TO.N,GND*%
X182000000Y-115540000D03*
%TO.P,J2,4*%
%TO.N,N/C*%
X184540000Y-115540000D03*
%TO.P,J2,5*%
%TO.N,GND*%
X182000000Y-118080000D03*
%TO.P,J2,6*%
%TO.N,N/C*%
X184540000Y-118080000D03*
%TO.P,J2,7*%
%TO.N,GND*%
X182000000Y-120620000D03*
%TO.P,J2,8*%
%TO.N,N/C*%
X184540000Y-120620000D03*
%TO.P,J2,9*%
%TO.N,GND*%
X182000000Y-123160000D03*
%TO.P,J2,10*%
%TO.N,FLOPPY_MOTEA*%
X184540000Y-123160000D03*
%TO.P,J2,11*%
%TO.N,GND*%
X182000000Y-125700000D03*
%TO.P,J2,12*%
%TO.N,FLOPPY_DRVSEL*%
X184540000Y-125700000D03*
%TO.P,J2,13*%
%TO.N,GND*%
X182000000Y-128240000D03*
%TO.P,J2,14*%
%TO.N,N/C*%
X184540000Y-128240000D03*
%TO.P,J2,15*%
%TO.N,GND*%
X182000000Y-130780000D03*
%TO.P,J2,16*%
%TO.N,FLOPPY_MOTOR*%
X184540000Y-130780000D03*
%TO.P,J2,17*%
%TO.N,GND*%
X182000000Y-133320000D03*
%TO.P,J2,18*%
%TO.N,FLOPPY_DIR*%
X184540000Y-133320000D03*
%TO.P,J2,19*%
%TO.N,GND*%
X182000000Y-135860000D03*
%TO.P,J2,20*%
%TO.N,FLOPPY_STEP*%
X184540000Y-135860000D03*
%TO.P,J2,21*%
%TO.N,GND*%
X182000000Y-138400000D03*
%TO.P,J2,22*%
%TO.N,FLOPPY_WDATA*%
X184540000Y-138400000D03*
%TO.P,J2,23*%
%TO.N,GND*%
X182000000Y-140940000D03*
%TO.P,J2,24*%
%TO.N,FLOPPY_WGATE*%
X184540000Y-140940000D03*
%TO.P,J2,25*%
%TO.N,GND*%
X182000000Y-143480000D03*
%TO.P,J2,26*%
%TO.N,FLOPPY_TRK00*%
X184540000Y-143480000D03*
%TO.P,J2,27*%
%TO.N,GND*%
X182000000Y-146020000D03*
%TO.P,J2,28*%
%TO.N,FLOPPY_WPT*%
X184540000Y-146020000D03*
%TO.P,J2,29*%
%TO.N,GND*%
X182000000Y-148560000D03*
%TO.P,J2,30*%
%TO.N,FLOPPY_RDATA*%
X184540000Y-148560000D03*
%TO.P,J2,31*%
%TO.N,GND*%
X182000000Y-151100000D03*
%TO.P,J2,32*%
%TO.N,FLOPPY_SIDE1*%
X184540000Y-151100000D03*
%TO.P,J2,33*%
%TO.N,GND*%
X182000000Y-153640000D03*
%TO.P,J2,34*%
%TO.N,FLOPPY_DSKCHG*%
X184540000Y-153640000D03*
%TD*%
D12*
%TO.P,R8,1*%
%TO.N,LED_ANODE*%
X144000000Y-107000000D03*
D13*
%TO.P,R8,2*%
%TO.N,LED_CATHODE*%
X154160000Y-107000000D03*
%TD*%
D12*
%TO.P,D1,1*%
%TO.N,LED_CATHODE*%
X138000000Y-107000000D03*
D13*
%TO.P,D1,2*%
%TO.N,GND*%
X140540000Y-107000000D03*
%TD*%
D12*
%TO.P,R9,1*%
%TO.N,+5V*%
X151500000Y-119000000D03*
D13*
%TO.P,R9,2*%
%TO.N,FLOPPY_TRK00*%
X161660000Y-119000000D03*
%TD*%
D12*
%TO.P,R10,1*%
%TO.N,+5V*%
X151500000Y-126000000D03*
D13*
%TO.P,R10,2*%
%TO.N,FLOPPY_WPT*%
X161660000Y-126000000D03*
%TD*%
D12*
%TO.P,R11,1*%
%TO.N,+5V*%
X151500000Y-133000000D03*
D13*
%TO.P,R11,2*%
%TO.N,FLOPPY_RDATA*%
X161660000Y-133000000D03*
%TD*%
D12*
%TO.P,R12,1*%
%TO.N,+5V*%
X151500000Y-140000000D03*
D13*
%TO.P,R12,2*%
%TO.N,FLOPPY_DSKCHG*%
X161660000Y-140000000D03*
%TD*%
D12*
%TO.P,C1,1*%
%TO.N,+5V*%
X120000000Y-156000000D03*
D13*
%TO.P,C1,2*%
%TO.N,GND*%
X125000000Y-156000000D03*
%TD*%
D12*
%TO.P,C2,1*%
%TO.N,+5V*%
X155500000Y-147000000D03*
D13*
%TO.P,C2,2*%
%TO.N,GND*%
X160500000Y-147000000D03*
%TD*%
D12*
%TO.P,C3,1*%
%TO.N,+5V*%
X157500000Y-111000000D03*
D13*
%TO.P,C3,2*%
%TO.N,GND*%
X162500000Y-111000000D03*
%TD*%
D19*
%TO.P,H1,1*%
%TO.N,N/C*%
X103000000Y-103000000D03*
%TD*%
%TO.P,H2,1*%
%TO.N,N/C*%
X187000000Y-103000000D03*
%TD*%
%TO.P,H3,1*%
%TO.N,N/C*%
X103000000Y-167000000D03*
%TD*%
%TO.P,H4,1*%
%TO.N,N/C*%
X187000000Y-167000000D03*
%TD*%
D20*
%TO.P,TP7,1*%
%TO.N,FLOPPY_STEP*%
X103000000Y-124200000D03*
%TD*%
%TO.P,TP13,1*%
%TO.N,SPI_MISO*%
X103000000Y-140400000D03*
%TD*%
%TO.P,TP3,1*%
%TO.N,IEC_ATN*%
X103000000Y-113400000D03*
%TD*%
%TO.P,TP5,1*%
%TO.N,IEC_DATA*%
X103000000Y-118800000D03*
%TD*%
%TO.P,TP10,1*%
%TO.N,FLOPPY_SIDE1*%
X103000000Y-132300000D03*
%TD*%
%TO.P,TP6,1*%
%TO.N,FLOPPY_MOTOR*%
X103000000Y-121500000D03*
%TD*%
%TO.P,TP4,1*%
%TO.N,IEC_CLK*%
X103000000Y-116100000D03*
%TD*%
%TO.P,TP12,1*%
%TO.N,SPI_MOSI*%
X103000000Y-137700000D03*
%TD*%
%TO.P,TP9,1*%
%TO.N,FLOPPY_WDATA*%
X103000000Y-129600000D03*
%TD*%
%TO.P,TP8,1*%
%TO.N,FLOPPY_RDATA*%
X103000000Y-126900000D03*
%TD*%
%TO.P,TP14,1*%
%TO.N,SPI_CS_SRAM*%
X103000000Y-143100000D03*
%TD*%
%TO.P,TP1,1*%
%TO.N,GND*%
X103000000Y-108000000D03*
%TD*%
%TO.P,TP11,1*%
%TO.N,SPI_SCK*%
X103000000Y-135000000D03*
%TD*%
%TO.P,TP2,1*%
%TO.N,+5V*%
X103000000Y-110700000D03*
%TD*%
D21*
%TO.N,+5V*%
X118739000Y-148142000D03*
%TO.N,SPI_MOSI*%
X102401000Y-139049000D03*
%TO.N,SPI_MISO*%
X104613000Y-144486000D03*
%TO.N,SPI_SCK*%
X104015000Y-136515000D03*
%TO.N,SPI_CS_SRAM*%
X105508000Y-140888000D03*
%TO.N,LATCH_595*%
X139278000Y-154002000D03*
%TO.N,NANO_D2*%
X119287000Y-124426000D03*
%TO.N,NANO_D3*%
X121723000Y-123326000D03*
%TO.N,FLOPPY_WDATA*%
X105375000Y-133538000D03*
%TO.N,FLOPPY_RDATA*%
X129948000Y-133050000D03*
X165368000Y-142938000D03*
X103060000Y-128250000D03*
%TO.N,FLOPPY_TRK00*%
X151950000Y-142299000D03*
%TO.N,FLOPPY_WPT*%
X159549000Y-143516000D03*
X158985000Y-139375000D03*
%TO.N,FLOPPY_DSKCHG*%
X162459000Y-151299000D03*
%TO.N,FLOPPY_DENSITY*%
X143908000Y-118885000D03*
%TO.N,FLOPPY_MOTEA*%
X145244000Y-124762000D03*
%TO.N,FLOPPY_DRVSEL*%
X146078000Y-150497000D03*
X150370000Y-127975000D03*
%TO.N,FLOPPY_MOTOR*%
X179806000Y-150588000D03*
X106341000Y-146247000D03*
%TO.N,FLOPPY_DIR*%
X145246000Y-135868000D03*
%TO.N,FLOPPY_STEP*%
X183266000Y-154592000D03*
X142091000Y-133538000D03*
X103280000Y-125550000D03*
%TO.N,FLOPPY_WGATE*%
X147910000Y-141512000D03*
%TO.N,FLOPPY_SIDE1*%
X104735000Y-140470000D03*
%TD*%
D22*
%TO.N,+5V*%
X151120000Y-145000000D02*
X151120000Y-144764000D01*
X151753000Y-117873000D02*
X151500000Y-117873000D01*
X157500000Y-112127000D02*
X151753000Y-117873000D01*
X151402000Y-159113000D02*
X152247000Y-158268000D01*
X151500000Y-133000000D02*
X151500000Y-131873000D01*
X151500000Y-124954000D02*
X151500000Y-131873000D01*
X151120000Y-159113000D02*
X151402000Y-159113000D01*
X151120000Y-160240000D02*
X151120000Y-159113000D01*
X108000000Y-140000000D02*
X108000000Y-144000000D01*
X152247000Y-145891000D02*
X151120000Y-144764000D01*
X132863000Y-119634000D02*
X133672000Y-120443000D01*
X132863000Y-108990000D02*
X132863000Y-119634000D01*
X157500000Y-111000000D02*
X157500000Y-112127000D01*
X137120000Y-154000000D02*
X137120000Y-156540000D01*
X133672000Y-120443000D02*
X134040000Y-120443000D01*
X151500000Y-140000000D02*
X151500000Y-141127000D01*
X120000000Y-149403000D02*
X120000000Y-156000000D01*
X134040000Y-121620000D02*
X134040000Y-120443000D01*
X151500000Y-124954000D02*
X151500000Y-126000000D01*
X151120000Y-144764000D02*
X151120000Y-143873000D01*
X112000000Y-105000000D02*
X110673000Y-105000000D01*
X151120000Y-141507000D02*
X151120000Y-143873000D01*
X151500000Y-133000000D02*
X151500000Y-140000000D01*
X118739000Y-148142000D02*
X120000000Y-149403000D01*
X151500000Y-119000000D02*
X151500000Y-117873000D01*
X151500000Y-141127000D02*
X151120000Y-141507000D01*
X103000000Y-110700000D02*
X104973000Y-110700000D01*
X108000000Y-136000000D02*
X108000000Y-140000000D01*
X130000000Y-105000000D02*
X130000000Y-106127000D01*
X104973000Y-110700000D02*
X110673000Y-105000000D01*
X151500000Y-119000000D02*
X151500000Y-124954000D01*
X130000000Y-106127000D02*
X132863000Y-108990000D01*
X152247000Y-158268000D02*
X152247000Y-145891000D01*
%TO.N,SPI_MOSI*%
X131500000Y-148197000D02*
X131500000Y-147020000D01*
X102401000Y-138299000D02*
X103000000Y-137700000D01*
X136838000Y-160493000D02*
X132677000Y-156332000D01*
X102401000Y-139049000D02*
X102401000Y-138299000D01*
X131868000Y-148197000D02*
X131500000Y-148197000D01*
X132677000Y-156332000D02*
X132677000Y-149006000D01*
X137120000Y-160493000D02*
X136838000Y-160493000D01*
X137120000Y-161620000D02*
X137120000Y-160493000D01*
X132677000Y-149006000D02*
X131868000Y-148197000D01*
%TO.N,SPI_MISO*%
X129500000Y-155413000D02*
X129500000Y-156540000D01*
X130204000Y-155413000D02*
X129500000Y-155413000D01*
X131500000Y-149560000D02*
X131500000Y-154118000D01*
X104613000Y-142013000D02*
X104613000Y-144486000D01*
X131500000Y-154118000D02*
X130204000Y-155413000D01*
X103000000Y-140400000D02*
X104613000Y-142013000D01*
%TO.N,SPI_SCK*%
X103000000Y-135000000D02*
X104015000Y-136015000D01*
X137120000Y-159080000D02*
X137120000Y-157953000D01*
X104015000Y-136015000D02*
X104015000Y-136515000D01*
X137120000Y-157953000D02*
X136838000Y-157953000D01*
X134040000Y-155155000D02*
X134040000Y-149560000D01*
X136838000Y-157953000D02*
X134040000Y-155155000D01*
%TO.N,SPI_CS_SRAM*%
X104865000Y-145121000D02*
X105508000Y-144479000D01*
X105508000Y-144479000D02*
X105508000Y-140888000D01*
X129500000Y-147289000D02*
X131132000Y-145657000D01*
X131132000Y-145657000D02*
X131500000Y-145657000D01*
X103000000Y-143100000D02*
X103000000Y-143805000D01*
X104316000Y-145121000D02*
X104865000Y-145121000D01*
X129500000Y-154000000D02*
X129500000Y-147289000D01*
X103000000Y-143805000D02*
X104316000Y-145121000D01*
X131500000Y-144480000D02*
X131500000Y-145657000D01*
%TO.N,LATCH_595*%
X139278000Y-140417000D02*
X139278000Y-154002000D01*
X132677000Y-134688000D02*
X133486000Y-135497000D01*
X133486000Y-135497000D02*
X134358000Y-135497000D01*
X131500000Y-134320000D02*
X132677000Y-134320000D01*
X134358000Y-135497000D02*
X139278000Y-140417000D01*
X132677000Y-134320000D02*
X132677000Y-134688000D01*
%TO.N,IEC_ATN*%
X103000000Y-113400000D02*
X101774000Y-114626000D01*
X104273000Y-113400000D02*
X106873000Y-116000000D01*
X101774000Y-150547000D02*
X105000000Y-153773000D01*
X105000000Y-153773000D02*
X105000000Y-155000000D01*
X108000000Y-116000000D02*
X106873000Y-116000000D01*
X103000000Y-113400000D02*
X104273000Y-113400000D01*
X101774000Y-114626000D02*
X101774000Y-150547000D01*
%TO.N,IEC_CLK*%
X108000000Y-121000000D02*
X106873000Y-121000000D01*
X110000000Y-124127000D02*
X108000000Y-122127000D01*
X106873000Y-121000000D02*
X106873000Y-119973000D01*
X108000000Y-121000000D02*
X108000000Y-122127000D01*
X106873000Y-119973000D02*
X103000000Y-116100000D01*
X110000000Y-151000000D02*
X110000000Y-124127000D01*
%TO.N,IEC_DATA*%
X115000000Y-155000000D02*
X113773000Y-155000000D01*
X103000000Y-118800000D02*
X108000000Y-123800000D01*
X106873000Y-128253000D02*
X108000000Y-127127000D01*
X113773000Y-155000000D02*
X112495000Y-156278000D01*
X107011000Y-145805000D02*
X106873000Y-145668000D01*
X107011000Y-153746000D02*
X107011000Y-145805000D01*
X112495000Y-156278000D02*
X109543000Y-156278000D01*
X106873000Y-145668000D02*
X106873000Y-128253000D01*
X108000000Y-123800000D02*
X108000000Y-126000000D01*
X109543000Y-156278000D02*
X107011000Y-153746000D01*
X108000000Y-127127000D02*
X108000000Y-126000000D01*
%TO.N,IEC_RESET*%
X108763000Y-150137000D02*
X109127000Y-149773000D01*
X108000000Y-132127000D02*
X108000000Y-131000000D01*
X110000000Y-155000000D02*
X110000000Y-153773000D01*
X108763000Y-152536000D02*
X108763000Y-150137000D01*
X110000000Y-153773000D02*
X108763000Y-152536000D01*
X109127000Y-133253000D02*
X108000000Y-132127000D01*
X109127000Y-149773000D02*
X109127000Y-133253000D01*
%TO.N,NANO_D2*%
X119287000Y-133747000D02*
X118160000Y-134873000D01*
X119287000Y-118253000D02*
X119287000Y-124426000D01*
X119287000Y-124426000D02*
X119287000Y-133747000D01*
X118160000Y-117127000D02*
X119287000Y-118253000D01*
X118160000Y-136000000D02*
X118160000Y-134873000D01*
X118160000Y-116000000D02*
X118160000Y-117127000D01*
%TO.N,NANO_D3*%
X118160000Y-138873000D02*
X118160000Y-140000000D01*
X121723000Y-123326000D02*
X121723000Y-135310000D01*
X121723000Y-135310000D02*
X118160000Y-138873000D01*
%TO.N,NANO_D4*%
X117033000Y-128253000D02*
X118160000Y-127127000D01*
X117033000Y-141747000D02*
X117033000Y-128253000D01*
X118160000Y-127127000D02*
X118160000Y-126000000D01*
X118160000Y-144000000D02*
X118160000Y-142873000D01*
X118160000Y-142873000D02*
X117033000Y-141747000D01*
%TO.N,FLOPPY_WDATA*%
X103000000Y-129600000D02*
X105375000Y-131975000D01*
X105375000Y-131975000D02*
X105375000Y-133538000D01*
%TO.N,FLOPPY_RDATA*%
X165368000Y-137835000D02*
X165368000Y-142938000D01*
X161660000Y-134127000D02*
X165368000Y-137835000D01*
X131500000Y-139400000D02*
X131500000Y-138223000D01*
X161660000Y-133000000D02*
X161660000Y-134127000D01*
X129948000Y-137039000D02*
X129948000Y-133050000D01*
X103060000Y-128250000D02*
X103000000Y-128190000D01*
X131132000Y-138223000D02*
X129948000Y-137039000D01*
X131500000Y-138223000D02*
X131132000Y-138223000D01*
X103000000Y-128190000D02*
X103000000Y-126900000D01*
%TO.N,FLOPPY_TRK00*%
X152773000Y-129013000D02*
X152773000Y-141476000D01*
X161660000Y-120127000D02*
X152773000Y-129013000D01*
X152773000Y-141476000D02*
X151950000Y-142299000D01*
X161660000Y-119000000D02*
X161660000Y-120127000D01*
%TO.N,FLOPPY_WPT*%
X158985000Y-129801000D02*
X161660000Y-127127000D01*
X158985000Y-142953000D02*
X158985000Y-139375000D01*
X159549000Y-143516000D02*
X158985000Y-142953000D01*
X161660000Y-126000000D02*
X161660000Y-127127000D01*
X158985000Y-139375000D02*
X158985000Y-129801000D01*
%TO.N,FLOPPY_DSKCHG*%
X161660000Y-141127000D02*
X162459000Y-141925000D01*
X161660000Y-140000000D02*
X161660000Y-141127000D01*
X162459000Y-141925000D02*
X162459000Y-151299000D01*
%TO.N,FLOPPY_DENSITY*%
X143908000Y-118885000D02*
X143908000Y-143466000D01*
X143908000Y-143466000D02*
X143500000Y-143873000D01*
X143500000Y-143873000D02*
X143500000Y-145000000D01*
%TO.N,FLOPPY_MOTEA*%
X143500000Y-147540000D02*
X143500000Y-146413000D01*
X144627000Y-139846000D02*
X144627000Y-145991000D01*
X144204000Y-146413000D02*
X143500000Y-146413000D01*
X144627000Y-145991000D02*
X144204000Y-146413000D01*
X145244000Y-124762000D02*
X144568000Y-125438000D01*
X144568000Y-125438000D02*
X144568000Y-139787000D01*
X144568000Y-139787000D02*
X144627000Y-139846000D01*
%TO.N,FLOPPY_DRVSEL*%
X150370000Y-127975000D02*
X146078000Y-132267000D01*
X146078000Y-132267000D02*
X146078000Y-150497000D01*
%TO.N,FLOPPY_MOTOR*%
X184540000Y-130780000D02*
X184540000Y-131957000D01*
X106341000Y-146247000D02*
X106341000Y-124841000D01*
X184172000Y-131957000D02*
X183363000Y-132766000D01*
X183363000Y-133658000D02*
X182431000Y-134590000D01*
X184540000Y-131957000D02*
X184172000Y-131957000D01*
X179806000Y-136311000D02*
X179806000Y-150588000D01*
X181527000Y-134590000D02*
X179806000Y-136311000D01*
X183363000Y-132766000D02*
X183363000Y-133658000D01*
X106341000Y-124841000D02*
X103000000Y-121500000D01*
X182431000Y-134590000D02*
X181527000Y-134590000D01*
%TO.N,FLOPPY_DIR*%
X145246000Y-152570000D02*
X145246000Y-135868000D01*
X143500000Y-155160000D02*
X143500000Y-154033000D01*
X143500000Y-154033000D02*
X143782000Y-154033000D01*
X143782000Y-154033000D02*
X145246000Y-152570000D01*
%TO.N,FLOPPY_STEP*%
X103000000Y-125270000D02*
X103000000Y-124200000D01*
X143218000Y-156573000D02*
X142091000Y-155446000D01*
X143500000Y-157700000D02*
X143500000Y-156573000D01*
X143500000Y-156573000D02*
X143218000Y-156573000D01*
X185762000Y-141406000D02*
X185762000Y-137891000D01*
X184046000Y-142303000D02*
X184864000Y-142303000D01*
X184864000Y-142303000D02*
X185762000Y-141406000D01*
X184908000Y-137037000D02*
X184540000Y-137037000D01*
X183266000Y-143084000D02*
X184046000Y-142303000D01*
X183266000Y-154592000D02*
X183266000Y-143084000D01*
X185762000Y-137891000D02*
X184908000Y-137037000D01*
X103280000Y-125550000D02*
X103000000Y-125270000D01*
X184540000Y-135860000D02*
X184540000Y-137037000D01*
X142091000Y-155446000D02*
X142091000Y-133538000D01*
%TO.N,FLOPPY_WGATE*%
X143782000Y-159113000D02*
X143500000Y-159113000D01*
X147910000Y-154985000D02*
X143782000Y-159113000D01*
X147910000Y-141512000D02*
X147910000Y-154985000D01*
X143500000Y-160240000D02*
X143500000Y-159113000D01*
%TO.N,FLOPPY_SIDE1*%
X104735000Y-134035000D02*
X104735000Y-140470000D01*
X103000000Y-132300000D02*
X104735000Y-134035000D01*
%TO.N,LED_ANODE*%
X143281000Y-119188000D02*
X134406000Y-128063000D01*
X144000000Y-107000000D02*
X144000000Y-108127000D01*
X143281000Y-108846000D02*
X143281000Y-119188000D01*
X134040000Y-129240000D02*
X134040000Y-128063000D01*
X134406000Y-128063000D02*
X134040000Y-128063000D01*
X144000000Y-108127000D02*
X143281000Y-108846000D01*
%TD*%
%TA.AperFunction,Conductor*%
%TO.N,GND*%
G36*
X182250000Y-153206988D02*
G01*
X182192993Y-153174075D01*
X182065826Y-153140000D01*
X181934174Y-153140000D01*
X181807007Y-153174075D01*
X181750000Y-153206988D01*
X181750000Y-151533012D01*
X181807007Y-151565925D01*
X181934174Y-151600000D01*
X182065826Y-151600000D01*
X182192993Y-151565925D01*
X182250000Y-151533012D01*
X182250000Y-153206988D01*
G37*
%TD.AperFunction*%
%TA.AperFunction,Conductor*%
G36*
X182250000Y-150666988D02*
G01*
X182192993Y-150634075D01*
X182065826Y-150600000D01*
X181934174Y-150600000D01*
X181807007Y-150634075D01*
X181750000Y-150666988D01*
X181750000Y-148993012D01*
X181807007Y-149025925D01*
X181934174Y-149060000D01*
X182065826Y-149060000D01*
X182192993Y-149025925D01*
X182250000Y-148993012D01*
X182250000Y-150666988D01*
G37*
%TD.AperFunction*%
%TA.AperFunction,Conductor*%
G36*
X182250000Y-148126988D02*
G01*
X182192993Y-148094075D01*
X182065826Y-148060000D01*
X181934174Y-148060000D01*
X181807007Y-148094075D01*
X181750000Y-148126988D01*
X181750000Y-146453012D01*
X181807007Y-146485925D01*
X181934174Y-146520000D01*
X182065826Y-146520000D01*
X182192993Y-146485925D01*
X182250000Y-146453012D01*
X182250000Y-148126988D01*
G37*
%TD.AperFunction*%
%TA.AperFunction,Conductor*%
G36*
X182250000Y-145586988D02*
G01*
X182192993Y-145554075D01*
X182065826Y-145520000D01*
X181934174Y-145520000D01*
X181807007Y-145554075D01*
X181750000Y-145586988D01*
X181750000Y-143913012D01*
X181807007Y-143945925D01*
X181934174Y-143980000D01*
X182065826Y-143980000D01*
X182192993Y-143945925D01*
X182250000Y-143913012D01*
X182250000Y-145586988D01*
G37*
%TD.AperFunction*%
%TA.AperFunction,Conductor*%
G36*
X182250000Y-143046988D02*
G01*
X182192993Y-143014075D01*
X182065826Y-142980000D01*
X181934174Y-142980000D01*
X181807007Y-143014075D01*
X181750000Y-143046988D01*
X181750000Y-141373012D01*
X181807007Y-141405925D01*
X181934174Y-141440000D01*
X182065826Y-141440000D01*
X182192993Y-141405925D01*
X182250000Y-141373012D01*
X182250000Y-143046988D01*
G37*
%TD.AperFunction*%
%TA.AperFunction,Conductor*%
G36*
X182250000Y-140506988D02*
G01*
X182192993Y-140474075D01*
X182065826Y-140440000D01*
X181934174Y-140440000D01*
X181807007Y-140474075D01*
X181750000Y-140506988D01*
X181750000Y-138833012D01*
X181807007Y-138865925D01*
X181934174Y-138900000D01*
X182065826Y-138900000D01*
X182192993Y-138865925D01*
X182250000Y-138833012D01*
X182250000Y-140506988D01*
G37*
%TD.AperFunction*%
%TA.AperFunction,Conductor*%
G36*
X182250000Y-137966988D02*
G01*
X182192993Y-137934075D01*
X182065826Y-137900000D01*
X181934174Y-137900000D01*
X181807007Y-137934075D01*
X181750000Y-137966988D01*
X181750000Y-136293012D01*
X181807007Y-136325925D01*
X181934174Y-136360000D01*
X182065826Y-136360000D01*
X182192993Y-136325925D01*
X182250000Y-136293012D01*
X182250000Y-137966988D01*
G37*
%TD.AperFunction*%
%TA.AperFunction,Conductor*%
G36*
X182193039Y-135235185D02*
G01*
X182238794Y-135287989D01*
X182250000Y-135339500D01*
X182250000Y-135426988D01*
X182192993Y-135394075D01*
X182065826Y-135360000D01*
X181934174Y-135360000D01*
X181807007Y-135394075D01*
X181750000Y-135426988D01*
X181750000Y-135339500D01*
X181769685Y-135272461D01*
X181822489Y-135226706D01*
X181874000Y-135215500D01*
X182126000Y-135215500D01*
X182193039Y-135235185D01*
G37*
%TD.AperFunction*%
%TA.AperFunction,Conductor*%
G36*
X182250000Y-133835048D02*
G01*
X182241355Y-133864488D01*
X182234832Y-133894475D01*
X182231077Y-133899490D01*
X182230315Y-133902087D01*
X182213681Y-133922729D01*
X182208229Y-133928181D01*
X182146906Y-133961666D01*
X182120548Y-133964500D01*
X181874000Y-133964500D01*
X181806961Y-133944815D01*
X181761206Y-133892011D01*
X181750000Y-133840500D01*
X181750000Y-133753012D01*
X181807007Y-133785925D01*
X181934174Y-133820000D01*
X182065826Y-133820000D01*
X182192993Y-133785925D01*
X182250000Y-133753012D01*
X182250000Y-133835048D01*
G37*
%TD.AperFunction*%
%TA.AperFunction,Conductor*%
G36*
X182250000Y-132886988D02*
G01*
X182192993Y-132854075D01*
X182065826Y-132820000D01*
X181934174Y-132820000D01*
X181807007Y-132854075D01*
X181750000Y-132886988D01*
X181750000Y-131213012D01*
X181807007Y-131245925D01*
X181934174Y-131280000D01*
X182065826Y-131280000D01*
X182192993Y-131245925D01*
X182250000Y-131213012D01*
X182250000Y-132886988D01*
G37*
%TD.AperFunction*%
%TA.AperFunction,Conductor*%
G36*
X182250000Y-130346988D02*
G01*
X182192993Y-130314075D01*
X182065826Y-130280000D01*
X181934174Y-130280000D01*
X181807007Y-130314075D01*
X181750000Y-130346988D01*
X181750000Y-128673012D01*
X181807007Y-128705925D01*
X181934174Y-128740000D01*
X182065826Y-128740000D01*
X182192993Y-128705925D01*
X182250000Y-128673012D01*
X182250000Y-130346988D01*
G37*
%TD.AperFunction*%
%TA.AperFunction,Conductor*%
G36*
X182250000Y-127806988D02*
G01*
X182192993Y-127774075D01*
X182065826Y-127740000D01*
X181934174Y-127740000D01*
X181807007Y-127774075D01*
X181750000Y-127806988D01*
X181750000Y-126133012D01*
X181807007Y-126165925D01*
X181934174Y-126200000D01*
X182065826Y-126200000D01*
X182192993Y-126165925D01*
X182250000Y-126133012D01*
X182250000Y-127806988D01*
G37*
%TD.AperFunction*%
%TA.AperFunction,Conductor*%
G36*
X182250000Y-125266988D02*
G01*
X182192993Y-125234075D01*
X182065826Y-125200000D01*
X181934174Y-125200000D01*
X181807007Y-125234075D01*
X181750000Y-125266988D01*
X181750000Y-123593012D01*
X181807007Y-123625925D01*
X181934174Y-123660000D01*
X182065826Y-123660000D01*
X182192993Y-123625925D01*
X182250000Y-123593012D01*
X182250000Y-125266988D01*
G37*
%TD.AperFunction*%
%TA.AperFunction,Conductor*%
G36*
X182250000Y-122726988D02*
G01*
X182192993Y-122694075D01*
X182065826Y-122660000D01*
X181934174Y-122660000D01*
X181807007Y-122694075D01*
X181750000Y-122726988D01*
X181750000Y-121053012D01*
X181807007Y-121085925D01*
X181934174Y-121120000D01*
X182065826Y-121120000D01*
X182192993Y-121085925D01*
X182250000Y-121053012D01*
X182250000Y-122726988D01*
G37*
%TD.AperFunction*%
%TA.AperFunction,Conductor*%
G36*
X182250000Y-120186988D02*
G01*
X182192993Y-120154075D01*
X182065826Y-120120000D01*
X181934174Y-120120000D01*
X181807007Y-120154075D01*
X181750000Y-120186988D01*
X181750000Y-118513012D01*
X181807007Y-118545925D01*
X181934174Y-118580000D01*
X182065826Y-118580000D01*
X182192993Y-118545925D01*
X182250000Y-118513012D01*
X182250000Y-120186988D01*
G37*
%TD.AperFunction*%
%TA.AperFunction,Conductor*%
G36*
X182250000Y-117646988D02*
G01*
X182192993Y-117614075D01*
X182065826Y-117580000D01*
X181934174Y-117580000D01*
X181807007Y-117614075D01*
X181750000Y-117646988D01*
X181750000Y-115973012D01*
X181807007Y-116005925D01*
X181934174Y-116040000D01*
X182065826Y-116040000D01*
X182192993Y-116005925D01*
X182250000Y-115973012D01*
X182250000Y-117646988D01*
G37*
%TD.AperFunction*%
%TA.AperFunction,Conductor*%
G36*
X182250000Y-115106988D02*
G01*
X182192993Y-115074075D01*
X182065826Y-115040000D01*
X181934174Y-115040000D01*
X181807007Y-115074075D01*
X181750000Y-115106988D01*
X181750000Y-113433012D01*
X181807007Y-113465925D01*
X181934174Y-113500000D01*
X182065826Y-113500000D01*
X182192993Y-113465925D01*
X182250000Y-113433012D01*
X182250000Y-115106988D01*
G37*
%TD.AperFunction*%
%TA.AperFunction,Conductor*%
G36*
X184470927Y-100306738D02*
G01*
X184493016Y-100308318D01*
X184503799Y-100316390D01*
X184516721Y-100320185D01*
X184531220Y-100336918D01*
X184548949Y-100350190D01*
X184553656Y-100362810D01*
X184562476Y-100372989D01*
X184565627Y-100394906D01*
X184573366Y-100415654D01*
X184570503Y-100428814D01*
X184572420Y-100442147D01*
X184563220Y-100462290D01*
X184558514Y-100483927D01*
X184545245Y-100501652D01*
X184543395Y-100505703D01*
X184537363Y-100512181D01*
X184403176Y-100646367D01*
X184184985Y-100912234D01*
X184184975Y-100912248D01*
X183993904Y-101198206D01*
X183993893Y-101198224D01*
X183831772Y-101501530D01*
X183831770Y-101501535D01*
X183700150Y-101819293D01*
X183600308Y-102148427D01*
X183533210Y-102485750D01*
X183499500Y-102828034D01*
X183499500Y-103171965D01*
X183533210Y-103514249D01*
X183600308Y-103851572D01*
X183700150Y-104180706D01*
X183831770Y-104498464D01*
X183831772Y-104498469D01*
X183993893Y-104801775D01*
X183993904Y-104801793D01*
X184184975Y-105087751D01*
X184184985Y-105087765D01*
X184403176Y-105353632D01*
X184646367Y-105596823D01*
X184646372Y-105596827D01*
X184646373Y-105596828D01*
X184912240Y-105815019D01*
X185198213Y-106006100D01*
X185198222Y-106006105D01*
X185198224Y-106006106D01*
X185501530Y-106168227D01*
X185501532Y-106168227D01*
X185501538Y-106168231D01*
X185819295Y-106299850D01*
X186148422Y-106399690D01*
X186485750Y-106466789D01*
X186828031Y-106500500D01*
X186828034Y-106500500D01*
X187171966Y-106500500D01*
X187171969Y-106500500D01*
X187514250Y-106466789D01*
X187851578Y-106399690D01*
X188180705Y-106299850D01*
X188498462Y-106168231D01*
X188801787Y-106006100D01*
X189087760Y-105815019D01*
X189353627Y-105596828D01*
X189408983Y-105541472D01*
X189487819Y-105462637D01*
X189549142Y-105429152D01*
X189618834Y-105434136D01*
X189674767Y-105476008D01*
X189699184Y-105541472D01*
X189699500Y-105550318D01*
X189699500Y-164449682D01*
X189679815Y-164516721D01*
X189627011Y-164562476D01*
X189557853Y-164572420D01*
X189494297Y-164543395D01*
X189487819Y-164537363D01*
X189353632Y-164403176D01*
X189087765Y-164184985D01*
X189087764Y-164184984D01*
X189087760Y-164184981D01*
X188801787Y-163993900D01*
X188801782Y-163993897D01*
X188801775Y-163993893D01*
X188498469Y-163831772D01*
X188498464Y-163831770D01*
X188180706Y-163700150D01*
X187851572Y-163600308D01*
X187514248Y-163533210D01*
X187514249Y-163533210D01*
X187256456Y-163507821D01*
X187171969Y-163499500D01*
X186828031Y-163499500D01*
X186749966Y-163507188D01*
X186485750Y-163533210D01*
X186148427Y-163600308D01*
X185819293Y-163700150D01*
X185501535Y-163831770D01*
X185501530Y-163831772D01*
X185198224Y-163993893D01*
X185198206Y-163993904D01*
X184912248Y-164184975D01*
X184912234Y-164184985D01*
X184646367Y-164403176D01*
X184403176Y-164646367D01*
X184184985Y-164912234D01*
X184184975Y-164912248D01*
X183993904Y-165198206D01*
X183993893Y-165198224D01*
X183831772Y-165501530D01*
X183831770Y-165501535D01*
X183700150Y-165819293D01*
X183600308Y-166148427D01*
X183533210Y-166485750D01*
X183499500Y-166828034D01*
X183499500Y-167171965D01*
X183533210Y-167514249D01*
X183600308Y-167851572D01*
X183700150Y-168180706D01*
X183831770Y-168498464D01*
X183831772Y-168498469D01*
X183993893Y-168801775D01*
X183993904Y-168801793D01*
X184184975Y-169087751D01*
X184184985Y-169087765D01*
X184403176Y-169353632D01*
X184537363Y-169487819D01*
X184570848Y-169549142D01*
X184565864Y-169618834D01*
X184523992Y-169674767D01*
X184458528Y-169699184D01*
X184449682Y-169699500D01*
X105550318Y-169699500D01*
X105483279Y-169679815D01*
X105437524Y-169627011D01*
X105427580Y-169557853D01*
X105456605Y-169494297D01*
X105462637Y-169487819D01*
X105596823Y-169353632D01*
X105596828Y-169353627D01*
X105815019Y-169087760D01*
X106006100Y-168801787D01*
X106168231Y-168498462D01*
X106299850Y-168180705D01*
X106399690Y-167851578D01*
X106466789Y-167514250D01*
X106500500Y-167171969D01*
X106500500Y-166828031D01*
X106466789Y-166485750D01*
X106399690Y-166148422D01*
X106299850Y-165819295D01*
X106168231Y-165501538D01*
X106006100Y-165198213D01*
X105815019Y-164912240D01*
X105596828Y-164646373D01*
X105596827Y-164646372D01*
X105596823Y-164646367D01*
X105353632Y-164403176D01*
X105087765Y-164184985D01*
X105087764Y-164184984D01*
X105087760Y-164184981D01*
X104801787Y-163993900D01*
X104801782Y-163993897D01*
X104801775Y-163993893D01*
X104498469Y-163831772D01*
X104498464Y-163831770D01*
X104180706Y-163700150D01*
X103851572Y-163600308D01*
X103514248Y-163533210D01*
X103514249Y-163533210D01*
X103256456Y-163507821D01*
X103171969Y-163499500D01*
X102828031Y-163499500D01*
X102749966Y-163507188D01*
X102485750Y-163533210D01*
X102148427Y-163600308D01*
X101819293Y-163700150D01*
X101501535Y-163831770D01*
X101501530Y-163831772D01*
X101198224Y-163993893D01*
X101198206Y-163993904D01*
X100912248Y-164184975D01*
X100912234Y-164184985D01*
X100646367Y-164403176D01*
X100512181Y-164537363D01*
X100450858Y-164570848D01*
X100381166Y-164565864D01*
X100325233Y-164523992D01*
X100300816Y-164458528D01*
X100300500Y-164449682D01*
X100300500Y-158052155D01*
X105100000Y-158052155D01*
X105100000Y-158750000D01*
X106066988Y-158750000D01*
X106034075Y-158807007D01*
X106000000Y-158934174D01*
X106000000Y-159065826D01*
X106034075Y-159192993D01*
X106066988Y-159250000D01*
X105100000Y-159250000D01*
X105100000Y-159947844D01*
X105106401Y-160007372D01*
X105106403Y-160007379D01*
X105156645Y-160142086D01*
X105156649Y-160142093D01*
X105242809Y-160257187D01*
X105242812Y-160257190D01*
X105357906Y-160343350D01*
X105357913Y-160343354D01*
X105492620Y-160393596D01*
X105492627Y-160393598D01*
X105552155Y-160399999D01*
X105552172Y-160400000D01*
X106250000Y-160400000D01*
X106250000Y-159433012D01*
X106307007Y-159465925D01*
X106434174Y-159500000D01*
X106565826Y-159500000D01*
X106692993Y-159465925D01*
X106750000Y-159433012D01*
X106750000Y-160400000D01*
X107447828Y-160400000D01*
X107447844Y-160399999D01*
X107507372Y-160393598D01*
X107507379Y-160393596D01*
X107642086Y-160343354D01*
X107642093Y-160343350D01*
X107757187Y-160257190D01*
X107757190Y-160257187D01*
X107843350Y-160142093D01*
X107843354Y-160142086D01*
X107893596Y-160007379D01*
X107893598Y-160007372D01*
X107899999Y-159947844D01*
X107900000Y-159947827D01*
X107900000Y-159250000D01*
X106933012Y-159250000D01*
X106965925Y-159192993D01*
X107000000Y-159065826D01*
X107000000Y-158934174D01*
X106965925Y-158807007D01*
X106933012Y-158750000D01*
X107900000Y-158750000D01*
X112122145Y-158750000D01*
X113066988Y-158750000D01*
X113034075Y-158807007D01*
X113000000Y-158934174D01*
X113000000Y-159065826D01*
X113034075Y-159192993D01*
X113066988Y-159250000D01*
X112122145Y-159250000D01*
X112134473Y-159327835D01*
X112134473Y-159327838D01*
X112202567Y-159537410D01*
X112302613Y-159733760D01*
X112432142Y-159912041D01*
X112587958Y-160067857D01*
X112766239Y-160197386D01*
X112962589Y-160297432D01*
X113172163Y-160365526D01*
X113249999Y-160377854D01*
X113250000Y-160377854D01*
X113250000Y-159433012D01*
X113307007Y-159465925D01*
X113434174Y-159500000D01*
X113565826Y-159500000D01*
X113692993Y-159465925D01*
X113750000Y-159433012D01*
X113750000Y-160377854D01*
X113827834Y-160365526D01*
X113827837Y-160365526D01*
X114037410Y-160297432D01*
X114233760Y-160197386D01*
X114412041Y-160067857D01*
X114567857Y-159912041D01*
X114697386Y-159733760D01*
X114797432Y-159537410D01*
X114865526Y-159327838D01*
X114865526Y-159327835D01*
X114877855Y-159250000D01*
X113933012Y-159250000D01*
X113965925Y-159192993D01*
X114000000Y-159065826D01*
X114000000Y-158934174D01*
X113965925Y-158807007D01*
X113933012Y-158750000D01*
X114877855Y-158750000D01*
X114865526Y-158672164D01*
X114865526Y-158672161D01*
X114797432Y-158462589D01*
X114697386Y-158266239D01*
X114567857Y-158087958D01*
X114412041Y-157932142D01*
X114233760Y-157802613D01*
X114037410Y-157702567D01*
X113827836Y-157634473D01*
X113750000Y-157622144D01*
X113750000Y-158566988D01*
X113692993Y-158534075D01*
X113565826Y-158500000D01*
X113434174Y-158500000D01*
X113307007Y-158534075D01*
X113250000Y-158566988D01*
X113250000Y-157622144D01*
X113172164Y-157634473D01*
X113172161Y-157634473D01*
X112962589Y-157702567D01*
X112766239Y-157802613D01*
X112587958Y-157932142D01*
X112432142Y-158087958D01*
X112302613Y-158266239D01*
X112202567Y-158462589D01*
X112134473Y-158672161D01*
X112134473Y-158672164D01*
X112122145Y-158750000D01*
X107900000Y-158750000D01*
X107900000Y-158052172D01*
X107899999Y-158052155D01*
X107893598Y-157992627D01*
X107893596Y-157992620D01*
X107843354Y-157857913D01*
X107843350Y-157857906D01*
X107757190Y-157742812D01*
X107757187Y-157742809D01*
X107642093Y-157656649D01*
X107642086Y-157656645D01*
X107507379Y-157606403D01*
X107507372Y-157606401D01*
X107447844Y-157600000D01*
X106750000Y-157600000D01*
X106750000Y-158566988D01*
X106692993Y-158534075D01*
X106565826Y-158500000D01*
X106434174Y-158500000D01*
X106307007Y-158534075D01*
X106250000Y-158566988D01*
X106250000Y-157600000D01*
X105552155Y-157600000D01*
X105492627Y-157606401D01*
X105492620Y-157606403D01*
X105357913Y-157656645D01*
X105357906Y-157656649D01*
X105242812Y-157742809D01*
X105242809Y-157742812D01*
X105156649Y-157857906D01*
X105156645Y-157857913D01*
X105106403Y-157992620D01*
X105106401Y-157992627D01*
X105100000Y-158052155D01*
X100300500Y-158052155D01*
X100300500Y-155406482D01*
X100320185Y-155339443D01*
X100372989Y-155293688D01*
X100442147Y-155283744D01*
X100505703Y-155312769D01*
X100542431Y-155368164D01*
X100609897Y-155575802D01*
X100717085Y-155786171D01*
X100855866Y-155977186D01*
X101022813Y-156144133D01*
X101213828Y-156282914D01*
X101424197Y-156390102D01*
X101648752Y-156463065D01*
X101648751Y-156463065D01*
X101881948Y-156500000D01*
X102250000Y-156500000D01*
X102250000Y-155708240D01*
X102281233Y-155721178D01*
X102426131Y-155750000D01*
X102573869Y-155750000D01*
X102718767Y-155721178D01*
X102750000Y-155708240D01*
X102750000Y-156500000D01*
X103118052Y-156500000D01*
X103351247Y-156463065D01*
X103575802Y-156390102D01*
X103786171Y-156282914D01*
X103977185Y-156144133D01*
X103992730Y-156128589D01*
X104054053Y-156095102D01*
X104123744Y-156100085D01*
X104153299Y-156115950D01*
X104250655Y-156186682D01*
X104265978Y-156197815D01*
X104368396Y-156250000D01*
X104462393Y-156297895D01*
X104462396Y-156297896D01*
X104530673Y-156320080D01*
X104672049Y-156366015D01*
X104889778Y-156400500D01*
X104889779Y-156400500D01*
X105110221Y-156400500D01*
X105110222Y-156400500D01*
X105327951Y-156366015D01*
X105537606Y-156297895D01*
X105734022Y-156197815D01*
X105912365Y-156068242D01*
X106068242Y-155912365D01*
X106197815Y-155734022D01*
X106297895Y-155537606D01*
X106366015Y-155327951D01*
X106400500Y-155110222D01*
X106400500Y-154889778D01*
X106366015Y-154672049D01*
X106319996Y-154530414D01*
X106297896Y-154462396D01*
X106297895Y-154462393D01*
X106259626Y-154387288D01*
X106197815Y-154265978D01*
X106159926Y-154213828D01*
X106068247Y-154087641D01*
X106068242Y-154087635D01*
X105912363Y-153931756D01*
X105912358Y-153931752D01*
X105734025Y-153802187D01*
X105734024Y-153802186D01*
X105734022Y-153802185D01*
X105686943Y-153778196D01*
X105662554Y-153755161D01*
X105637612Y-153732666D01*
X105636950Y-153730980D01*
X105636149Y-153730223D01*
X105623592Y-153700276D01*
X105622463Y-153696128D01*
X105603595Y-153601267D01*
X105601463Y-153590548D01*
X105581932Y-153543397D01*
X105554312Y-153476715D01*
X105554310Y-153476712D01*
X105554309Y-153476709D01*
X105533582Y-153445690D01*
X105533581Y-153445689D01*
X105485858Y-153374267D01*
X105485855Y-153374263D01*
X105395637Y-153284045D01*
X105395606Y-153284016D01*
X102435819Y-150324229D01*
X102402334Y-150262906D01*
X102399500Y-150236548D01*
X102399500Y-144390410D01*
X102407427Y-144363412D01*
X102412230Y-144335684D01*
X102417139Y-144330335D01*
X102419185Y-144323371D01*
X102440447Y-144304946D01*
X102459480Y-144284215D01*
X102466502Y-144282370D01*
X102471989Y-144277616D01*
X102499841Y-144273611D01*
X102527057Y-144266461D01*
X102537268Y-144268229D01*
X102541147Y-144267672D01*
X102561827Y-144272482D01*
X102564734Y-144273427D01*
X102614082Y-144303672D01*
X103827016Y-145516606D01*
X103827045Y-145516637D01*
X103917261Y-145606853D01*
X103917264Y-145606855D01*
X103917267Y-145606858D01*
X103945167Y-145625500D01*
X104019714Y-145675312D01*
X104088388Y-145703757D01*
X104133548Y-145722463D01*
X104179268Y-145731557D01*
X104254390Y-145746499D01*
X104254392Y-145746500D01*
X104254393Y-145746500D01*
X104254394Y-145746500D01*
X104864514Y-145746500D01*
X104926120Y-145746548D01*
X104926362Y-145746500D01*
X104926606Y-145746500D01*
X104986425Y-145734600D01*
X104986528Y-145734609D01*
X104986523Y-145734581D01*
X104991304Y-145733634D01*
X105046983Y-145722605D01*
X105046993Y-145722600D01*
X105047437Y-145722465D01*
X105047452Y-145722463D01*
X105104032Y-145699026D01*
X105104036Y-145699036D01*
X105104114Y-145698991D01*
X105160854Y-145675542D01*
X105160860Y-145675537D01*
X105160936Y-145675498D01*
X105161282Y-145675312D01*
X105161286Y-145675311D01*
X105212655Y-145640987D01*
X105263355Y-145607167D01*
X105263525Y-145606996D01*
X105263733Y-145606858D01*
X105307599Y-145562990D01*
X105307686Y-145562943D01*
X105307667Y-145562924D01*
X105503887Y-145367009D01*
X105523290Y-145356432D01*
X105539989Y-145341964D01*
X105553366Y-145340040D01*
X105565236Y-145333571D01*
X105587276Y-145335164D01*
X105609147Y-145332020D01*
X105621442Y-145337635D01*
X105634924Y-145338610D01*
X105652602Y-145351865D01*
X105672703Y-145361045D01*
X105680011Y-145372416D01*
X105690825Y-145380525D01*
X105698530Y-145401234D01*
X105710477Y-145419823D01*
X105713644Y-145441851D01*
X105715191Y-145446008D01*
X105715500Y-145454758D01*
X105715500Y-145704650D01*
X105695815Y-145771689D01*
X105694602Y-145773541D01*
X105631609Y-145867815D01*
X105631602Y-145867828D01*
X105571264Y-146013498D01*
X105571261Y-146013510D01*
X105540500Y-146168153D01*
X105540500Y-146325846D01*
X105571261Y-146480489D01*
X105571264Y-146480501D01*
X105631602Y-146626172D01*
X105631609Y-146626185D01*
X105719210Y-146757288D01*
X105719213Y-146757292D01*
X105830707Y-146868786D01*
X105830711Y-146868789D01*
X105961814Y-146956390D01*
X105961827Y-146956397D01*
X106107498Y-147016735D01*
X106107503Y-147016737D01*
X106262158Y-147047500D01*
X106262163Y-147047500D01*
X106268218Y-147048097D01*
X106268086Y-147049433D01*
X106328539Y-147067185D01*
X106374294Y-147119989D01*
X106385500Y-147171500D01*
X106385500Y-153684393D01*
X106385500Y-153807607D01*
X106390871Y-153834607D01*
X106409537Y-153928452D01*
X106421049Y-153956243D01*
X106424401Y-153964336D01*
X106424403Y-153964343D01*
X106456685Y-154042280D01*
X106456687Y-154042283D01*
X106456688Y-154042286D01*
X106482452Y-154080844D01*
X106486989Y-154087633D01*
X106486990Y-154087635D01*
X106525141Y-154144732D01*
X106525144Y-154144736D01*
X106616586Y-154236178D01*
X106616608Y-154236198D01*
X109057139Y-156676729D01*
X109057142Y-156676733D01*
X109144267Y-156763858D01*
X109221190Y-156815256D01*
X109226990Y-156819132D01*
X109226993Y-156819134D01*
X109246710Y-156832309D01*
X109246712Y-156832310D01*
X109246715Y-156832312D01*
X109313396Y-156859931D01*
X109313398Y-156859933D01*
X109343129Y-156872247D01*
X109360548Y-156879463D01*
X109481394Y-156903500D01*
X109481396Y-156903500D01*
X112556607Y-156903500D01*
X112617029Y-156891481D01*
X112677452Y-156879463D01*
X112710792Y-156865652D01*
X112791286Y-156832312D01*
X112842617Y-156798013D01*
X112893733Y-156763858D01*
X112980858Y-156676733D01*
X112980859Y-156676731D01*
X112987925Y-156669665D01*
X112987928Y-156669661D01*
X113750980Y-155906608D01*
X113812301Y-155873125D01*
X113881993Y-155878109D01*
X113927374Y-155909858D01*
X113928313Y-155908920D01*
X114087636Y-156068243D01*
X114087641Y-156068247D01*
X114202872Y-156151966D01*
X114265978Y-156197815D01*
X114368396Y-156250000D01*
X114462393Y-156297895D01*
X114462396Y-156297896D01*
X114530673Y-156320080D01*
X114672049Y-156366015D01*
X114889778Y-156400500D01*
X114889779Y-156400500D01*
X115110221Y-156400500D01*
X115110222Y-156400500D01*
X115327951Y-156366015D01*
X115537606Y-156297895D01*
X115734022Y-156197815D01*
X115846704Y-156115947D01*
X115912505Y-156092469D01*
X115980559Y-156108294D01*
X116007266Y-156128586D01*
X116022813Y-156144133D01*
X116213828Y-156282914D01*
X116424197Y-156390102D01*
X116648752Y-156463065D01*
X116648751Y-156463065D01*
X116881948Y-156500000D01*
X117250000Y-156500000D01*
X117250000Y-155708240D01*
X117281233Y-155721178D01*
X117426131Y-155750000D01*
X117573869Y-155750000D01*
X117718767Y-155721178D01*
X117750000Y-155708240D01*
X117750000Y-156500000D01*
X118118052Y-156500000D01*
X118351245Y-156463065D01*
X118537181Y-156402651D01*
X118607023Y-156400656D01*
X118666856Y-156436736D01*
X118697684Y-156499437D01*
X118699500Y-156520582D01*
X118699500Y-156847869D01*
X118699501Y-156847876D01*
X118705908Y-156907483D01*
X118756202Y-157042328D01*
X118756206Y-157042335D01*
X118842452Y-157157544D01*
X118842455Y-157157547D01*
X118957664Y-157243793D01*
X118957671Y-157243797D01*
X119092517Y-157294091D01*
X119092516Y-157294091D01*
X119099444Y-157294835D01*
X119152127Y-157300500D01*
X120847872Y-157300499D01*
X120907483Y-157294091D01*
X121042331Y-157243796D01*
X121157546Y-157157546D01*
X121243796Y-157042331D01*
X121294091Y-156907483D01*
X121300500Y-156847873D01*
X121300499Y-155750000D01*
X123723391Y-155750000D01*
X124684314Y-155750000D01*
X124679920Y-155754394D01*
X124627259Y-155845606D01*
X124600000Y-155947339D01*
X124600000Y-156052661D01*
X124627259Y-156154394D01*
X124679920Y-156245606D01*
X124684314Y-156250000D01*
X123723391Y-156250000D01*
X123732009Y-156304413D01*
X123795244Y-156499029D01*
X123888140Y-156681349D01*
X124008417Y-156846894D01*
X124008417Y-156846895D01*
X124153104Y-156991582D01*
X124318650Y-157111859D01*
X124500968Y-157204754D01*
X124695578Y-157267988D01*
X124750000Y-157276607D01*
X124750000Y-156315686D01*
X124754394Y-156320080D01*
X124845606Y-156372741D01*
X124947339Y-156400000D01*
X125052661Y-156400000D01*
X125154394Y-156372741D01*
X125245606Y-156320080D01*
X125250000Y-156315686D01*
X125250000Y-157276606D01*
X125304421Y-157267988D01*
X125499031Y-157204754D01*
X125681349Y-157111859D01*
X125846894Y-156991582D01*
X125846895Y-156991582D01*
X125991582Y-156846895D01*
X125991582Y-156846894D01*
X126111859Y-156681349D01*
X126204755Y-156499029D01*
X126267990Y-156304413D01*
X126276609Y-156250000D01*
X125315686Y-156250000D01*
X125320080Y-156245606D01*
X125372741Y-156154394D01*
X125400000Y-156052661D01*
X125400000Y-155947339D01*
X125372741Y-155845606D01*
X125320080Y-155754394D01*
X125315686Y-155750000D01*
X126276609Y-155750000D01*
X126267990Y-155695586D01*
X126204755Y-155500970D01*
X126111859Y-155318650D01*
X125991582Y-155153105D01*
X125991582Y-155153104D01*
X125846895Y-155008417D01*
X125681349Y-154888140D01*
X125499029Y-154795244D01*
X125304413Y-154732009D01*
X125250000Y-154723390D01*
X125250000Y-155684314D01*
X125245606Y-155679920D01*
X125154394Y-155627259D01*
X125052661Y-155600000D01*
X124947339Y-155600000D01*
X124845606Y-155627259D01*
X124754394Y-155679920D01*
X124750000Y-155684314D01*
X124750000Y-154723390D01*
X124695586Y-154732009D01*
X124500970Y-154795244D01*
X124318650Y-154888140D01*
X124153105Y-155008417D01*
X124153104Y-155008417D01*
X124008417Y-155153104D01*
X124008417Y-155153105D01*
X123888140Y-155318650D01*
X123795244Y-155500970D01*
X123732009Y-155695586D01*
X123723391Y-155750000D01*
X121300499Y-155750000D01*
X121300499Y-155152128D01*
X121294091Y-155092517D01*
X121276967Y-155046606D01*
X121243797Y-154957671D01*
X121243793Y-154957664D01*
X121157547Y-154842455D01*
X121157544Y-154842452D01*
X121042335Y-154756206D01*
X121042328Y-154756202D01*
X120907482Y-154705908D01*
X120907483Y-154705908D01*
X120847883Y-154699501D01*
X120847881Y-154699500D01*
X120847873Y-154699500D01*
X120847865Y-154699500D01*
X120749500Y-154699500D01*
X120682461Y-154679815D01*
X120636706Y-154627011D01*
X120625500Y-154575500D01*
X120625500Y-153152135D01*
X128199500Y-153152135D01*
X128199500Y-154847870D01*
X128199501Y-154847876D01*
X128205908Y-154907483D01*
X128256202Y-155042328D01*
X128256206Y-155042335D01*
X128342452Y-155157544D01*
X128342455Y-155157547D01*
X128457664Y-155243793D01*
X128457671Y-155243797D01*
X128502618Y-155260561D01*
X128592517Y-155294091D01*
X128629441Y-155298060D01*
X128693989Y-155324796D01*
X128733838Y-155382188D01*
X128736333Y-155452013D01*
X128700681Y-155512102D01*
X128689071Y-155521666D01*
X128652784Y-155548030D01*
X128508028Y-155692786D01*
X128387715Y-155858386D01*
X128294781Y-156040776D01*
X128231522Y-156235465D01*
X128199500Y-156437648D01*
X128199500Y-156642351D01*
X128231522Y-156844534D01*
X128294781Y-157039223D01*
X128331792Y-157111859D01*
X128379124Y-157204754D01*
X128387715Y-157221613D01*
X128508028Y-157387213D01*
X128652786Y-157531971D01*
X128776901Y-157622144D01*
X128818390Y-157652287D01*
X128909840Y-157698883D01*
X128911080Y-157699515D01*
X128961876Y-157747490D01*
X128978671Y-157815311D01*
X128956134Y-157881446D01*
X128911080Y-157920485D01*
X128818386Y-157967715D01*
X128652786Y-158088028D01*
X128508028Y-158232786D01*
X128387715Y-158398386D01*
X128294781Y-158580776D01*
X128231522Y-158775465D01*
X128199500Y-158977648D01*
X128199500Y-159182351D01*
X128231522Y-159384534D01*
X128294781Y-159579223D01*
X128387715Y-159761613D01*
X128508028Y-159927213D01*
X128652786Y-160071971D01*
X128749303Y-160142093D01*
X128818390Y-160192287D01*
X128890424Y-160228990D01*
X128911629Y-160239795D01*
X128962425Y-160287770D01*
X128979220Y-160355591D01*
X128956682Y-160421726D01*
X128911629Y-160460765D01*
X128818650Y-160508140D01*
X128653105Y-160628417D01*
X128653104Y-160628417D01*
X128508417Y-160773104D01*
X128508417Y-160773105D01*
X128388140Y-160938650D01*
X128295244Y-161120970D01*
X128232009Y-161315586D01*
X128223391Y-161370000D01*
X129184314Y-161370000D01*
X129179920Y-161374394D01*
X129127259Y-161465606D01*
X129100000Y-161567339D01*
X129100000Y-161672661D01*
X129127259Y-161774394D01*
X129179920Y-161865606D01*
X129184314Y-161870000D01*
X128223391Y-161870000D01*
X128232009Y-161924413D01*
X128295244Y-162119029D01*
X128388140Y-162301349D01*
X128508417Y-162466894D01*
X128508417Y-162466895D01*
X128653104Y-162611582D01*
X128818650Y-162731859D01*
X129000968Y-162824754D01*
X129195578Y-162887988D01*
X129250000Y-162896607D01*
X129250000Y-161935686D01*
X129254394Y-161940080D01*
X129345606Y-161992741D01*
X129447339Y-162020000D01*
X129552661Y-162020000D01*
X129654394Y-161992741D01*
X129745606Y-161940080D01*
X129750000Y-161935686D01*
X129750000Y-162896606D01*
X129804421Y-162887988D01*
X129999031Y-162824754D01*
X130181349Y-162731859D01*
X130346894Y-162611582D01*
X130346895Y-162611582D01*
X130491582Y-162466895D01*
X130491582Y-162466894D01*
X130611859Y-162301349D01*
X130704755Y-162119029D01*
X130767990Y-161924413D01*
X130776609Y-161870000D01*
X129815686Y-161870000D01*
X129820080Y-161865606D01*
X129872741Y-161774394D01*
X129900000Y-161672661D01*
X129900000Y-161567339D01*
X129872741Y-161465606D01*
X129820080Y-161374394D01*
X129815686Y-161370000D01*
X130776609Y-161370000D01*
X130767990Y-161315586D01*
X130704755Y-161120970D01*
X130611859Y-160938650D01*
X130491582Y-160773105D01*
X130491582Y-160773104D01*
X130346895Y-160628417D01*
X130181349Y-160508140D01*
X130088370Y-160460765D01*
X130037574Y-160412790D01*
X130020779Y-160344969D01*
X130043316Y-160278835D01*
X130088370Y-160239795D01*
X130181610Y-160192287D01*
X130250697Y-160142093D01*
X130347213Y-160071971D01*
X130347215Y-160071968D01*
X130347219Y-160071966D01*
X130491966Y-159927219D01*
X130491968Y-159927215D01*
X130491971Y-159927213D01*
X130544732Y-159854590D01*
X130612287Y-159761610D01*
X130705220Y-159579219D01*
X130768477Y-159384534D01*
X130800500Y-159182352D01*
X130800500Y-158977648D01*
X130793040Y-158930548D01*
X130768477Y-158775465D01*
X130705218Y-158580776D01*
X130644998Y-158462589D01*
X130612287Y-158398390D01*
X130562316Y-158329610D01*
X130491971Y-158232786D01*
X130347213Y-158088028D01*
X130181614Y-157967715D01*
X130133112Y-157943002D01*
X130088917Y-157920483D01*
X130038123Y-157872511D01*
X130021328Y-157804690D01*
X130043865Y-157738555D01*
X130088917Y-157699516D01*
X130181610Y-157652287D01*
X130223099Y-157622144D01*
X130347213Y-157531971D01*
X130347215Y-157531968D01*
X130347219Y-157531966D01*
X130491966Y-157387219D01*
X130491968Y-157387215D01*
X130491971Y-157387213D01*
X130544732Y-157314590D01*
X130612287Y-157221610D01*
X130705220Y-157039219D01*
X130768477Y-156844534D01*
X130800500Y-156642352D01*
X130800500Y-156437648D01*
X130774309Y-156272286D01*
X130768477Y-156235465D01*
X130738801Y-156144133D01*
X130705220Y-156040781D01*
X130705218Y-156040778D01*
X130705218Y-156040776D01*
X130663632Y-155959160D01*
X130650736Y-155890491D01*
X130677012Y-155825750D01*
X130686463Y-155815157D01*
X131839854Y-154662656D01*
X131901189Y-154629196D01*
X131970878Y-154634207D01*
X132026796Y-154676100D01*
X132051187Y-154741574D01*
X132051500Y-154750372D01*
X132051500Y-156393606D01*
X132069849Y-156485858D01*
X132069849Y-156485860D01*
X132075534Y-156514444D01*
X132075537Y-156514453D01*
X132122685Y-156628280D01*
X132122687Y-156628283D01*
X132122688Y-156628286D01*
X132155060Y-156676733D01*
X132191142Y-156730733D01*
X132278267Y-156817858D01*
X132278269Y-156817859D01*
X132288318Y-156827908D01*
X136097398Y-160636988D01*
X136130883Y-160698311D01*
X136125899Y-160768003D01*
X136110035Y-160797554D01*
X136007715Y-160938386D01*
X135914781Y-161120776D01*
X135851522Y-161315465D01*
X135819500Y-161517648D01*
X135819500Y-161722351D01*
X135851522Y-161924534D01*
X135914781Y-162119223D01*
X135978691Y-162244653D01*
X135997196Y-162280970D01*
X136007715Y-162301613D01*
X136128028Y-162467213D01*
X136272786Y-162611971D01*
X136427749Y-162724556D01*
X136438390Y-162732287D01*
X136554607Y-162791503D01*
X136620776Y-162825218D01*
X136620778Y-162825218D01*
X136620781Y-162825220D01*
X136725137Y-162859127D01*
X136815465Y-162888477D01*
X136916557Y-162904488D01*
X137017648Y-162920500D01*
X137017649Y-162920500D01*
X137222351Y-162920500D01*
X137222352Y-162920500D01*
X137424534Y-162888477D01*
X137424537Y-162888476D01*
X137424538Y-162888476D01*
X137465993Y-162875006D01*
X137465994Y-162875006D01*
X137496278Y-162865165D01*
X137619219Y-162825220D01*
X137801610Y-162732287D01*
X137894590Y-162664732D01*
X137967213Y-162611971D01*
X137967215Y-162611968D01*
X137967219Y-162611966D01*
X138111966Y-162467219D01*
X138111968Y-162467215D01*
X138111971Y-162467213D01*
X138175334Y-162380000D01*
X138232287Y-162301610D01*
X138325220Y-162119219D01*
X138388477Y-161924534D01*
X138420500Y-161722352D01*
X138420500Y-161517648D01*
X138401789Y-161399515D01*
X138388477Y-161315465D01*
X138325218Y-161120776D01*
X138232419Y-160938650D01*
X138232287Y-160938390D01*
X138220096Y-160921610D01*
X138111971Y-160772786D01*
X137967213Y-160628028D01*
X137801618Y-160507718D01*
X137801249Y-160507492D01*
X137801138Y-160507369D01*
X137797669Y-160504849D01*
X137798198Y-160504120D01*
X137779091Y-160483002D01*
X137756159Y-160459236D01*
X137755245Y-160456647D01*
X137754372Y-160455682D01*
X137744418Y-160425956D01*
X137725791Y-160332307D01*
X137732020Y-160262718D01*
X137774883Y-160207541D01*
X137791107Y-160197638D01*
X137801610Y-160192287D01*
X137967219Y-160071966D01*
X138111966Y-159927219D01*
X138111968Y-159927215D01*
X138111971Y-159927213D01*
X138164732Y-159854590D01*
X138232287Y-159761610D01*
X138325220Y-159579219D01*
X138388477Y-159384534D01*
X138420500Y-159182352D01*
X138420500Y-158977648D01*
X138413040Y-158930548D01*
X138388477Y-158775465D01*
X138325218Y-158580776D01*
X138264998Y-158462589D01*
X138232287Y-158398390D01*
X138182316Y-158329610D01*
X138111971Y-158232786D01*
X137967213Y-158088028D01*
X137801618Y-157967718D01*
X137801249Y-157967492D01*
X137801138Y-157967369D01*
X137797669Y-157964849D01*
X137798198Y-157964120D01*
X137779091Y-157943002D01*
X137756159Y-157919236D01*
X137755245Y-157916647D01*
X137754372Y-157915682D01*
X137744418Y-157885956D01*
X137725791Y-157792307D01*
X137732020Y-157722718D01*
X137774883Y-157667541D01*
X137791107Y-157657638D01*
X137801610Y-157652287D01*
X137967219Y-157531966D01*
X138111966Y-157387219D01*
X138111968Y-157387215D01*
X138111971Y-157387213D01*
X138164732Y-157314590D01*
X138232287Y-157221610D01*
X138325220Y-157039219D01*
X138388477Y-156844534D01*
X138420500Y-156642352D01*
X138420500Y-156437648D01*
X138394309Y-156272286D01*
X138388477Y-156235465D01*
X138358801Y-156144133D01*
X138325220Y-156040781D01*
X138325218Y-156040778D01*
X138325218Y-156040776D01*
X138273323Y-155938928D01*
X138232287Y-155858390D01*
X138193008Y-155804326D01*
X138111971Y-155692786D01*
X137967213Y-155548028D01*
X137797669Y-155424849D01*
X137798884Y-155423176D01*
X137797738Y-155421909D01*
X137788297Y-155417598D01*
X137774700Y-155396441D01*
X137757831Y-155377792D01*
X137755131Y-155365991D01*
X137750523Y-155358820D01*
X137745500Y-155323885D01*
X137745500Y-155216114D01*
X137765185Y-155149075D01*
X137798575Y-155116398D01*
X137797668Y-155115150D01*
X137801605Y-155112289D01*
X137801610Y-155112287D01*
X137967219Y-154991966D01*
X138111966Y-154847219D01*
X138111968Y-154847215D01*
X138111971Y-154847213D01*
X138206786Y-154716709D01*
X138232287Y-154681610D01*
X138325220Y-154499219D01*
X138351654Y-154417860D01*
X138391091Y-154360186D01*
X138455449Y-154332987D01*
X138524296Y-154344901D01*
X138572687Y-154387288D01*
X138656210Y-154512288D01*
X138656213Y-154512292D01*
X138767707Y-154623786D01*
X138767711Y-154623789D01*
X138898814Y-154711390D01*
X138898827Y-154711397D01*
X139044498Y-154771735D01*
X139044503Y-154771737D01*
X139159543Y-154794620D01*
X139199153Y-154802499D01*
X139199156Y-154802500D01*
X139199158Y-154802500D01*
X139356844Y-154802500D01*
X139356845Y-154802499D01*
X139511497Y-154771737D01*
X139628218Y-154723390D01*
X139657172Y-154711397D01*
X139657172Y-154711396D01*
X139657179Y-154711394D01*
X139788289Y-154623789D01*
X139899789Y-154512289D01*
X139987394Y-154381179D01*
X140047737Y-154235497D01*
X140078500Y-154080842D01*
X140078500Y-153923158D01*
X140078500Y-153923155D01*
X140078499Y-153923153D01*
X140070312Y-153881993D01*
X140047737Y-153768503D01*
X140038535Y-153746287D01*
X139987397Y-153622828D01*
X139987396Y-153622827D01*
X139987394Y-153622821D01*
X139924397Y-153528539D01*
X139903520Y-153461863D01*
X139903500Y-153459650D01*
X139903500Y-140355393D01*
X139903499Y-140355389D01*
X139894289Y-140309087D01*
X139879463Y-140234548D01*
X139842262Y-140144737D01*
X139832312Y-140120715D01*
X139832311Y-140120713D01*
X139832310Y-140120711D01*
X139763858Y-140018267D01*
X139763855Y-140018263D01*
X135092507Y-135346916D01*
X135059022Y-135285593D01*
X135064006Y-135215901D01*
X135079870Y-135186350D01*
X135097928Y-135161495D01*
X135195051Y-135027816D01*
X135291557Y-134838412D01*
X135357246Y-134636243D01*
X135390500Y-134426287D01*
X135390500Y-134213713D01*
X135357246Y-134003757D01*
X135291557Y-133801588D01*
X135195051Y-133612184D01*
X135195049Y-133612181D01*
X135195048Y-133612179D01*
X135070109Y-133440213D01*
X134919786Y-133289890D01*
X134747820Y-133164951D01*
X134747115Y-133164591D01*
X134739054Y-133160485D01*
X134688259Y-133112512D01*
X134671463Y-133044692D01*
X134693999Y-132978556D01*
X134739054Y-132939515D01*
X134747816Y-132935051D01*
X134859271Y-132854075D01*
X134919786Y-132810109D01*
X134919788Y-132810106D01*
X134919792Y-132810104D01*
X135070104Y-132659792D01*
X135070106Y-132659788D01*
X135070109Y-132659786D01*
X135195048Y-132487820D01*
X135195047Y-132487820D01*
X135195051Y-132487816D01*
X135291557Y-132298412D01*
X135357246Y-132096243D01*
X135390500Y-131886287D01*
X135390500Y-131673713D01*
X135357246Y-131463757D01*
X135291557Y-131261588D01*
X135195051Y-131072184D01*
X135195049Y-131072181D01*
X135195048Y-131072179D01*
X135070109Y-130900213D01*
X134919786Y-130749890D01*
X134747820Y-130624951D01*
X134747115Y-130624591D01*
X134739054Y-130620485D01*
X134688259Y-130572512D01*
X134671463Y-130504692D01*
X134693999Y-130438556D01*
X134739054Y-130399515D01*
X134747816Y-130395051D01*
X134859271Y-130314075D01*
X134919786Y-130270109D01*
X134919788Y-130270106D01*
X134919792Y-130270104D01*
X135070104Y-130119792D01*
X135070106Y-130119788D01*
X135070109Y-130119786D01*
X135195048Y-129947820D01*
X135195047Y-129947820D01*
X135195051Y-129947816D01*
X135291557Y-129758412D01*
X135357246Y-129556243D01*
X135390500Y-129346287D01*
X135390500Y-129133713D01*
X135357246Y-128923757D01*
X135291557Y-128721588D01*
X135195051Y-128532184D01*
X135100068Y-128401450D01*
X135076588Y-128335644D01*
X135092414Y-128267590D01*
X135112701Y-128240888D01*
X143070819Y-120282771D01*
X143132142Y-120249286D01*
X143201834Y-120254270D01*
X143257767Y-120296142D01*
X143282184Y-120361606D01*
X143282500Y-120370452D01*
X143282500Y-143155007D01*
X143273835Y-143184515D01*
X143267259Y-143214568D01*
X143263565Y-143219488D01*
X143262815Y-143222046D01*
X143246073Y-143242796D01*
X143106090Y-143382435D01*
X143104834Y-143383573D01*
X143057977Y-143430430D01*
X143057872Y-143430535D01*
X143057872Y-143430536D01*
X143014632Y-143473671D01*
X143014629Y-143473674D01*
X143014624Y-143473680D01*
X143014464Y-143473874D01*
X143014233Y-143474154D01*
X143014151Y-143474253D01*
X142980223Y-143525029D01*
X142980139Y-143525154D01*
X142943517Y-143579817D01*
X142889850Y-143624557D01*
X142820514Y-143633179D01*
X142757524Y-143602947D01*
X142720878Y-143543459D01*
X142716500Y-143510800D01*
X142716500Y-134080350D01*
X142736185Y-134013311D01*
X142737398Y-134011459D01*
X142768775Y-133964500D01*
X142800394Y-133917179D01*
X142860737Y-133771497D01*
X142891500Y-133616842D01*
X142891500Y-133459158D01*
X142891500Y-133459155D01*
X142891499Y-133459153D01*
X142885535Y-133429172D01*
X142860737Y-133304503D01*
X142820826Y-133208148D01*
X142800397Y-133158827D01*
X142800390Y-133158814D01*
X142712789Y-133027711D01*
X142712786Y-133027707D01*
X142601292Y-132916213D01*
X142601288Y-132916210D01*
X142470185Y-132828609D01*
X142470172Y-132828602D01*
X142324501Y-132768264D01*
X142324489Y-132768261D01*
X142169845Y-132737500D01*
X142169842Y-132737500D01*
X142012158Y-132737500D01*
X142012155Y-132737500D01*
X141857510Y-132768261D01*
X141857498Y-132768264D01*
X141711827Y-132828602D01*
X141711814Y-132828609D01*
X141580711Y-132916210D01*
X141580707Y-132916213D01*
X141469213Y-133027707D01*
X141469210Y-133027711D01*
X141381609Y-133158814D01*
X141381602Y-133158827D01*
X141321264Y-133304498D01*
X141321261Y-133304510D01*
X141290500Y-133459153D01*
X141290500Y-133616846D01*
X141321261Y-133771489D01*
X141321264Y-133771501D01*
X141381602Y-133917172D01*
X141381609Y-133917184D01*
X141444602Y-134011459D01*
X141465480Y-134078136D01*
X141465500Y-134080350D01*
X141465500Y-155507606D01*
X141489537Y-155628452D01*
X141494676Y-155640858D01*
X141536688Y-155742286D01*
X141559977Y-155777139D01*
X141564669Y-155784161D01*
X141564672Y-155784167D01*
X141605140Y-155844731D01*
X141605141Y-155844732D01*
X141605142Y-155844733D01*
X141692267Y-155931858D01*
X141692268Y-155931858D01*
X141699335Y-155938925D01*
X141699334Y-155938925D01*
X141699338Y-155938928D01*
X142477398Y-156716988D01*
X142510883Y-156778311D01*
X142505899Y-156848003D01*
X142490035Y-156877554D01*
X142387715Y-157018386D01*
X142294781Y-157200776D01*
X142231522Y-157395465D01*
X142199500Y-157597648D01*
X142199500Y-157802351D01*
X142231522Y-158004534D01*
X142294781Y-158199223D01*
X142387715Y-158381613D01*
X142508028Y-158547213D01*
X142508034Y-158547219D01*
X142652781Y-158691966D01*
X142818390Y-158812287D01*
X142828886Y-158817634D01*
X142848563Y-158836218D01*
X142870516Y-158852049D01*
X142873585Y-158859850D01*
X142879681Y-158865607D01*
X142886187Y-158891878D01*
X142896098Y-158917067D01*
X142895444Y-158929257D01*
X142896477Y-158933427D01*
X142894208Y-158952311D01*
X142875581Y-159045953D01*
X142843196Y-159107864D01*
X142822225Y-159124704D01*
X142822331Y-159124849D01*
X142819337Y-159127023D01*
X142818777Y-159127474D01*
X142818398Y-159127705D01*
X142652786Y-159248028D01*
X142508028Y-159392786D01*
X142387715Y-159558386D01*
X142294781Y-159740776D01*
X142231522Y-159935465D01*
X142210554Y-160067857D01*
X142199500Y-160137648D01*
X142199500Y-160342352D01*
X142200470Y-160348477D01*
X142231522Y-160544534D01*
X142294781Y-160739223D01*
X142387715Y-160921613D01*
X142508028Y-161087213D01*
X142652786Y-161231971D01*
X142767875Y-161315586D01*
X142818390Y-161352287D01*
X142890424Y-161388990D01*
X142911629Y-161399795D01*
X142962425Y-161447770D01*
X142979220Y-161515591D01*
X142956682Y-161581726D01*
X142911629Y-161620765D01*
X142818650Y-161668140D01*
X142653105Y-161788417D01*
X142653104Y-161788417D01*
X142508417Y-161933104D01*
X142508417Y-161933105D01*
X142388140Y-162098650D01*
X142295244Y-162280970D01*
X142232009Y-162475586D01*
X142223391Y-162530000D01*
X143184314Y-162530000D01*
X143179920Y-162534394D01*
X143127259Y-162625606D01*
X143100000Y-162727339D01*
X143100000Y-162832661D01*
X143127259Y-162934394D01*
X143179920Y-163025606D01*
X143184314Y-163030000D01*
X142223391Y-163030000D01*
X142232009Y-163084413D01*
X142295244Y-163279029D01*
X142388140Y-163461349D01*
X142508417Y-163626894D01*
X142508417Y-163626895D01*
X142653104Y-163771582D01*
X142818650Y-163891859D01*
X143000968Y-163984754D01*
X143195578Y-164047988D01*
X143250000Y-164056607D01*
X143250000Y-163095686D01*
X143254394Y-163100080D01*
X143345606Y-163152741D01*
X143447339Y-163180000D01*
X143552661Y-163180000D01*
X143654394Y-163152741D01*
X143745606Y-163100080D01*
X143750000Y-163095686D01*
X143750000Y-164056606D01*
X143804421Y-164047988D01*
X143999031Y-163984754D01*
X144181349Y-163891859D01*
X144346894Y-163771582D01*
X144346895Y-163771582D01*
X144491582Y-163626895D01*
X144491582Y-163626894D01*
X144611859Y-163461349D01*
X144704755Y-163279029D01*
X144767990Y-163084413D01*
X144776609Y-163030000D01*
X143815686Y-163030000D01*
X143820080Y-163025606D01*
X143872741Y-162934394D01*
X143900000Y-162832661D01*
X143900000Y-162727339D01*
X143872741Y-162625606D01*
X143820080Y-162534394D01*
X143815686Y-162530000D01*
X144776609Y-162530000D01*
X144767990Y-162475586D01*
X144704755Y-162280970D01*
X144611859Y-162098650D01*
X144491582Y-161933105D01*
X144491582Y-161933104D01*
X144346895Y-161788417D01*
X144181349Y-161668140D01*
X144088370Y-161620765D01*
X144037574Y-161572790D01*
X144020779Y-161504969D01*
X144043316Y-161438835D01*
X144088370Y-161399795D01*
X144088920Y-161399515D01*
X144181610Y-161352287D01*
X144253688Y-161299920D01*
X144347213Y-161231971D01*
X144347215Y-161231968D01*
X144347219Y-161231966D01*
X144491966Y-161087219D01*
X144491968Y-161087215D01*
X144491971Y-161087213D01*
X144544732Y-161014590D01*
X144612287Y-160921610D01*
X144705220Y-160739219D01*
X144768477Y-160544534D01*
X144800500Y-160342352D01*
X144800500Y-160137648D01*
X144768477Y-159935466D01*
X144765797Y-159927219D01*
X144739127Y-159845137D01*
X144705220Y-159740781D01*
X144705218Y-159740778D01*
X144705218Y-159740776D01*
X144671503Y-159674607D01*
X144612287Y-159558390D01*
X144509964Y-159417553D01*
X144486484Y-159351747D01*
X144502310Y-159283693D01*
X144522597Y-159256991D01*
X148395858Y-155383733D01*
X148464312Y-155281285D01*
X148500689Y-155193463D01*
X148511463Y-155167452D01*
X148521555Y-155116714D01*
X148535501Y-155046606D01*
X148535501Y-154923393D01*
X148535500Y-154923387D01*
X148535500Y-142054350D01*
X148555185Y-141987311D01*
X148556398Y-141985459D01*
X148581732Y-141947544D01*
X148619394Y-141891179D01*
X148624841Y-141878030D01*
X148636658Y-141849500D01*
X148679737Y-141745497D01*
X148710500Y-141590842D01*
X148710500Y-141433158D01*
X148710500Y-141433155D01*
X148710499Y-141433153D01*
X148692913Y-141344742D01*
X148679737Y-141278503D01*
X148668930Y-141252412D01*
X148619397Y-141132827D01*
X148619390Y-141132814D01*
X148531789Y-141001711D01*
X148531786Y-141001707D01*
X148420292Y-140890213D01*
X148420288Y-140890210D01*
X148289185Y-140802609D01*
X148289172Y-140802602D01*
X148143501Y-140742264D01*
X148143489Y-140742261D01*
X147988845Y-140711500D01*
X147988842Y-140711500D01*
X147831158Y-140711500D01*
X147831155Y-140711500D01*
X147676510Y-140742261D01*
X147676498Y-140742264D01*
X147530827Y-140802602D01*
X147530814Y-140802609D01*
X147399711Y-140890210D01*
X147399707Y-140890213D01*
X147288213Y-141001707D01*
X147288210Y-141001711D01*
X147200609Y-141132814D01*
X147200602Y-141132827D01*
X147140264Y-141278498D01*
X147140261Y-141278510D01*
X147109500Y-141433153D01*
X147109500Y-141590846D01*
X147140261Y-141745489D01*
X147140264Y-141745501D01*
X147200602Y-141891172D01*
X147200609Y-141891184D01*
X147263602Y-141985459D01*
X147284480Y-142052136D01*
X147284500Y-142054350D01*
X147284500Y-154674546D01*
X147264815Y-154741585D01*
X147248181Y-154762227D01*
X144861144Y-157149263D01*
X144799821Y-157182748D01*
X144730129Y-157177764D01*
X144674196Y-157135892D01*
X144662978Y-157117877D01*
X144659912Y-157111859D01*
X144612287Y-157018390D01*
X144612285Y-157018387D01*
X144612284Y-157018385D01*
X144491971Y-156852786D01*
X144347213Y-156708028D01*
X144181618Y-156587718D01*
X144181249Y-156587492D01*
X144181138Y-156587369D01*
X144177669Y-156584849D01*
X144178198Y-156584120D01*
X144159091Y-156563002D01*
X144136159Y-156539236D01*
X144135245Y-156536647D01*
X144134372Y-156535682D01*
X144124418Y-156505956D01*
X144105791Y-156412307D01*
X144112020Y-156342718D01*
X144154883Y-156287541D01*
X144171107Y-156277638D01*
X144181610Y-156272287D01*
X144347219Y-156151966D01*
X144491966Y-156007219D01*
X144491968Y-156007215D01*
X144491971Y-156007213D01*
X144576773Y-155890491D01*
X144612287Y-155841610D01*
X144705220Y-155659219D01*
X144768477Y-155464534D01*
X144800500Y-155262352D01*
X144800500Y-155057648D01*
X144786851Y-154971474D01*
X144768477Y-154855465D01*
X144719883Y-154705909D01*
X144705220Y-154660781D01*
X144705218Y-154660778D01*
X144705218Y-154660776D01*
X144612287Y-154478390D01*
X144510050Y-154337671D01*
X144486571Y-154271864D01*
X144502397Y-154203810D01*
X144522715Y-154177078D01*
X145644641Y-153055919D01*
X145644733Y-153055858D01*
X145689243Y-153011347D01*
X145731721Y-152968899D01*
X145731724Y-152968893D01*
X145731730Y-152968888D01*
X145731852Y-152968739D01*
X145731852Y-152968738D01*
X145731858Y-152968733D01*
X145765808Y-152917921D01*
X145765840Y-152917894D01*
X145765831Y-152917888D01*
X145772659Y-152907676D01*
X145800211Y-152866475D01*
X145800213Y-152866469D01*
X145800219Y-152866461D01*
X145800302Y-152866305D01*
X145800308Y-152866290D01*
X145800311Y-152866286D01*
X145823385Y-152810578D01*
X145847401Y-152752656D01*
X145847403Y-152752640D01*
X145847410Y-152752626D01*
X145847460Y-152752464D01*
X145847461Y-152752454D01*
X145847463Y-152752452D01*
X145856721Y-152705908D01*
X145859401Y-152692436D01*
X145859408Y-152692437D01*
X145859408Y-152692397D01*
X145871479Y-152631820D01*
X145871479Y-152631711D01*
X145871500Y-152631606D01*
X145871500Y-152571646D01*
X145871522Y-152508607D01*
X145871521Y-152508602D01*
X145871523Y-152502812D01*
X145871500Y-152502324D01*
X145871500Y-151421500D01*
X145891185Y-151354461D01*
X145943989Y-151308706D01*
X145995500Y-151297500D01*
X146156844Y-151297500D01*
X146156845Y-151297499D01*
X146311497Y-151266737D01*
X146448874Y-151209834D01*
X146457172Y-151206397D01*
X146457172Y-151206396D01*
X146457179Y-151206394D01*
X146588289Y-151118789D01*
X146699789Y-151007289D01*
X146787394Y-150876179D01*
X146847737Y-150730497D01*
X146878500Y-150575842D01*
X146878500Y-150418158D01*
X146878500Y-150418155D01*
X146878499Y-150418153D01*
X146871812Y-150384534D01*
X146847737Y-150263503D01*
X146787394Y-150117821D01*
X146724397Y-150023539D01*
X146703520Y-149956863D01*
X146703500Y-149954650D01*
X146703500Y-132577452D01*
X146723185Y-132510413D01*
X146739819Y-132489771D01*
X148555877Y-130673713D01*
X150428798Y-128800791D01*
X150441296Y-128793319D01*
X150448745Y-128784607D01*
X150471144Y-128775475D01*
X150480751Y-128769732D01*
X150486436Y-128768021D01*
X150603497Y-128744737D01*
X150708808Y-128701115D01*
X150714774Y-128699321D01*
X150743727Y-128699128D01*
X150772517Y-128696033D01*
X150778241Y-128698898D01*
X150784642Y-128698856D01*
X150809101Y-128714346D01*
X150834996Y-128727308D01*
X150838262Y-128732813D01*
X150843670Y-128736238D01*
X150855875Y-128762499D01*
X150870648Y-128787398D01*
X150871833Y-128796835D01*
X150873118Y-128799599D01*
X150872629Y-128803168D01*
X150874500Y-128818063D01*
X150874500Y-131575500D01*
X150854815Y-131642539D01*
X150802011Y-131688294D01*
X150750501Y-131699500D01*
X150652130Y-131699500D01*
X150652123Y-131699501D01*
X150592516Y-131705908D01*
X150457671Y-131756202D01*
X150457664Y-131756206D01*
X150342455Y-131842452D01*
X150342452Y-131842455D01*
X150256206Y-131957664D01*
X150256202Y-131957671D01*
X150205908Y-132092517D01*
X150199501Y-132152116D01*
X150199500Y-132152135D01*
X150199500Y-133847870D01*
X150199501Y-133847876D01*
X150205908Y-133907483D01*
X150256202Y-134042328D01*
X150256206Y-134042335D01*
X150342452Y-134157544D01*
X150342455Y-134157547D01*
X150457664Y-134243793D01*
X150457671Y-134243797D01*
X150502618Y-134260561D01*
X150592517Y-134294091D01*
X150652127Y-134300500D01*
X150750500Y-134300499D01*
X150817538Y-134320183D01*
X150863294Y-134372986D01*
X150874500Y-134424499D01*
X150874500Y-138575500D01*
X150854815Y-138642539D01*
X150802011Y-138688294D01*
X150750501Y-138699500D01*
X150652130Y-138699500D01*
X150652123Y-138699501D01*
X150592516Y-138705908D01*
X150457671Y-138756202D01*
X150457664Y-138756206D01*
X150342455Y-138842452D01*
X150342452Y-138842455D01*
X150256206Y-138957664D01*
X150256202Y-138957671D01*
X150205908Y-139092517D01*
X150199501Y-139152116D01*
X150199500Y-139152135D01*
X150199500Y-140847870D01*
X150199501Y-140847876D01*
X150205908Y-140907483D01*
X150256202Y-141042328D01*
X150256206Y-141042335D01*
X150313052Y-141118270D01*
X150342454Y-141157546D01*
X150457669Y-141243796D01*
X150462079Y-141247097D01*
X150472112Y-141260500D01*
X150485692Y-141270292D01*
X150492616Y-141287890D01*
X150503950Y-141303031D01*
X150505333Y-141320210D01*
X150511274Y-141335310D01*
X150509386Y-141370553D01*
X150495746Y-141439132D01*
X150495744Y-141439139D01*
X150494500Y-141445391D01*
X150494500Y-143783885D01*
X150474815Y-143850924D01*
X150441428Y-143883606D01*
X150442331Y-143884849D01*
X150272786Y-144008028D01*
X150128028Y-144152786D01*
X150007715Y-144318386D01*
X149914781Y-144500776D01*
X149851522Y-144695465D01*
X149835561Y-144796243D01*
X149819500Y-144897648D01*
X149819500Y-145102352D01*
X149820943Y-145111463D01*
X149851522Y-145304534D01*
X149914781Y-145499223D01*
X149968750Y-145605141D01*
X150007694Y-145681573D01*
X150007715Y-145681613D01*
X150128028Y-145847213D01*
X150272786Y-145991971D01*
X150401969Y-146085826D01*
X150438390Y-146112287D01*
X150516584Y-146152129D01*
X150531080Y-146159515D01*
X150581876Y-146207490D01*
X150598671Y-146275311D01*
X150576134Y-146341446D01*
X150531080Y-146380485D01*
X150438386Y-146427715D01*
X150272786Y-146548028D01*
X150128028Y-146692786D01*
X150007715Y-146858386D01*
X149914781Y-147040776D01*
X149851522Y-147235465D01*
X149819500Y-147437648D01*
X149819500Y-147642351D01*
X149851522Y-147844534D01*
X149914781Y-148039223D01*
X149951792Y-148111859D01*
X149999124Y-148204754D01*
X150007715Y-148221613D01*
X150128028Y-148387213D01*
X150272786Y-148531971D01*
X150401969Y-148625826D01*
X150438390Y-148652287D01*
X150493200Y-148680214D01*
X150531080Y-148699515D01*
X150581876Y-148747490D01*
X150598671Y-148815311D01*
X150576134Y-148881446D01*
X150531080Y-148920485D01*
X150438386Y-148967715D01*
X150272786Y-149088028D01*
X150128028Y-149232786D01*
X150007715Y-149398386D01*
X149914781Y-149580776D01*
X149851522Y-149775465D01*
X149819500Y-149977648D01*
X149819500Y-150182351D01*
X149851522Y-150384534D01*
X149914781Y-150579223D01*
X149959426Y-150666842D01*
X150006313Y-150758863D01*
X150007715Y-150761613D01*
X150128028Y-150927213D01*
X150272786Y-151071971D01*
X150401969Y-151165826D01*
X150438390Y-151192287D01*
X150493080Y-151220153D01*
X150531629Y-151239795D01*
X150582425Y-151287770D01*
X150599220Y-151355591D01*
X150576682Y-151421726D01*
X150531629Y-151460765D01*
X150438650Y-151508140D01*
X150273105Y-151628417D01*
X150273104Y-151628417D01*
X150128417Y-151773104D01*
X150128417Y-151773105D01*
X150008140Y-151938650D01*
X149915244Y-152120970D01*
X149852009Y-152315586D01*
X149843391Y-152370000D01*
X150804314Y-152370000D01*
X150799920Y-152374394D01*
X150747259Y-152465606D01*
X150720000Y-152567339D01*
X150720000Y-152672661D01*
X150747259Y-152774394D01*
X150799920Y-152865606D01*
X150804314Y-152870000D01*
X149843391Y-152870000D01*
X149852009Y-152924413D01*
X149915244Y-153119029D01*
X150008140Y-153301349D01*
X150128417Y-153466894D01*
X150128417Y-153466895D01*
X150273104Y-153611582D01*
X150438652Y-153731861D01*
X150531628Y-153779234D01*
X150582425Y-153827208D01*
X150599220Y-153895029D01*
X150576683Y-153961164D01*
X150531630Y-154000203D01*
X150438388Y-154047713D01*
X150272786Y-154168028D01*
X150128028Y-154312786D01*
X150007715Y-154478386D01*
X149914781Y-154660776D01*
X149851522Y-154855465D01*
X149819500Y-155057648D01*
X149819500Y-155262351D01*
X149851522Y-155464534D01*
X149914781Y-155659223D01*
X150007715Y-155841613D01*
X150128028Y-156007213D01*
X150272786Y-156151971D01*
X150401666Y-156245606D01*
X150438390Y-156272287D01*
X150501441Y-156304413D01*
X150531080Y-156319515D01*
X150581876Y-156367490D01*
X150598671Y-156435311D01*
X150576134Y-156501446D01*
X150531080Y-156540485D01*
X150438386Y-156587715D01*
X150272786Y-156708028D01*
X150128028Y-156852786D01*
X150007715Y-157018386D01*
X149914781Y-157200776D01*
X149851522Y-157395465D01*
X149819500Y-157597648D01*
X149819500Y-157802351D01*
X149851522Y-158004534D01*
X149914781Y-158199223D01*
X150007715Y-158381613D01*
X150128028Y-158547213D01*
X150128034Y-158547219D01*
X150272781Y-158691966D01*
X150438390Y-158812287D01*
X150448886Y-158817634D01*
X150468563Y-158836218D01*
X150490516Y-158852049D01*
X150493585Y-158859850D01*
X150499681Y-158865607D01*
X150506187Y-158891878D01*
X150516098Y-158917067D01*
X150515444Y-158929257D01*
X150516477Y-158933427D01*
X150514208Y-158952311D01*
X150495581Y-159045953D01*
X150463196Y-159107864D01*
X150442225Y-159124704D01*
X150442331Y-159124849D01*
X150439337Y-159127023D01*
X150438777Y-159127474D01*
X150438398Y-159127705D01*
X150272786Y-159248028D01*
X150128028Y-159392786D01*
X150007715Y-159558386D01*
X149914781Y-159740776D01*
X149851522Y-159935465D01*
X149830554Y-160067857D01*
X149819500Y-160137648D01*
X149819500Y-160342352D01*
X149820470Y-160348477D01*
X149851522Y-160544534D01*
X149914781Y-160739223D01*
X150007715Y-160921613D01*
X150128028Y-161087213D01*
X150272786Y-161231971D01*
X150387875Y-161315586D01*
X150438390Y-161352287D01*
X150529840Y-161398883D01*
X150531080Y-161399515D01*
X150581876Y-161447490D01*
X150598671Y-161515311D01*
X150576134Y-161581446D01*
X150531080Y-161620485D01*
X150438386Y-161667715D01*
X150272786Y-161788028D01*
X150128028Y-161932786D01*
X150007715Y-162098386D01*
X149914781Y-162280776D01*
X149851522Y-162475465D01*
X149819500Y-162677648D01*
X149819500Y-162882351D01*
X149851522Y-163084534D01*
X149914781Y-163279223D01*
X150007715Y-163461613D01*
X150128028Y-163627213D01*
X150272786Y-163771971D01*
X150427749Y-163884556D01*
X150438390Y-163892287D01*
X150554607Y-163951503D01*
X150620776Y-163985218D01*
X150620778Y-163985218D01*
X150620781Y-163985220D01*
X150647508Y-163993904D01*
X150815465Y-164048477D01*
X150916557Y-164064488D01*
X151017648Y-164080500D01*
X151017649Y-164080500D01*
X151222351Y-164080500D01*
X151222352Y-164080500D01*
X151424534Y-164048477D01*
X151619219Y-163985220D01*
X151801610Y-163892287D01*
X151894590Y-163824732D01*
X151967213Y-163771971D01*
X151967215Y-163771968D01*
X151967219Y-163771966D01*
X152111966Y-163627219D01*
X152111968Y-163627215D01*
X152111971Y-163627213D01*
X152180267Y-163533210D01*
X152232287Y-163461610D01*
X152325220Y-163279219D01*
X152388477Y-163084534D01*
X152420500Y-162882352D01*
X152420500Y-162677648D01*
X152410036Y-162611582D01*
X152388477Y-162475465D01*
X152357458Y-162380000D01*
X152325220Y-162280781D01*
X152325218Y-162280778D01*
X152325218Y-162280776D01*
X152291503Y-162214607D01*
X152232287Y-162098390D01*
X152175334Y-162020000D01*
X152111971Y-161932786D01*
X151967213Y-161788028D01*
X151801614Y-161667715D01*
X151795006Y-161664348D01*
X151708917Y-161620483D01*
X151658123Y-161572511D01*
X151641328Y-161504690D01*
X151663865Y-161438555D01*
X151708917Y-161399516D01*
X151801610Y-161352287D01*
X151873688Y-161299920D01*
X151967213Y-161231971D01*
X151967215Y-161231968D01*
X151967219Y-161231966D01*
X152111966Y-161087219D01*
X152111968Y-161087215D01*
X152111971Y-161087213D01*
X152164732Y-161014590D01*
X152232287Y-160921610D01*
X152325220Y-160739219D01*
X152388477Y-160544534D01*
X152420500Y-160342352D01*
X152420500Y-160137648D01*
X152388477Y-159935466D01*
X152385797Y-159927219D01*
X152359127Y-159845137D01*
X152325220Y-159740781D01*
X152325218Y-159740778D01*
X152325218Y-159740776D01*
X152291503Y-159674607D01*
X152232287Y-159558390D01*
X152129964Y-159417553D01*
X152106484Y-159351747D01*
X152122310Y-159283693D01*
X152142597Y-159256992D01*
X152732857Y-158666734D01*
X152777114Y-158600500D01*
X152801311Y-158564286D01*
X152848463Y-158450452D01*
X152858605Y-158399464D01*
X152872500Y-158329607D01*
X152872500Y-158206394D01*
X152872500Y-146152135D01*
X154199500Y-146152135D01*
X154199500Y-147847870D01*
X154199501Y-147847876D01*
X154205908Y-147907483D01*
X154256202Y-148042328D01*
X154256206Y-148042335D01*
X154342452Y-148157544D01*
X154342455Y-148157547D01*
X154457664Y-148243793D01*
X154457671Y-148243797D01*
X154592517Y-148294091D01*
X154592516Y-148294091D01*
X154599444Y-148294835D01*
X154652127Y-148300500D01*
X156347872Y-148300499D01*
X156407483Y-148294091D01*
X156542331Y-148243796D01*
X156657546Y-148157546D01*
X156743796Y-148042331D01*
X156794091Y-147907483D01*
X156800500Y-147847873D01*
X156800499Y-146750000D01*
X159223391Y-146750000D01*
X160184314Y-146750000D01*
X160179920Y-146754394D01*
X160127259Y-146845606D01*
X160100000Y-146947339D01*
X160100000Y-147052661D01*
X160127259Y-147154394D01*
X160179920Y-147245606D01*
X160184314Y-147250000D01*
X159223391Y-147250000D01*
X159232009Y-147304413D01*
X159295244Y-147499029D01*
X159388140Y-147681349D01*
X159508417Y-147846894D01*
X159508417Y-147846895D01*
X159653104Y-147991582D01*
X159818650Y-148111859D01*
X160000968Y-148204754D01*
X160195578Y-148267988D01*
X160250000Y-148276607D01*
X160250000Y-147315686D01*
X160254394Y-147320080D01*
X160345606Y-147372741D01*
X160447339Y-147400000D01*
X160552661Y-147400000D01*
X160654394Y-147372741D01*
X160745606Y-147320080D01*
X160750000Y-147315686D01*
X160750000Y-148276606D01*
X160804421Y-148267988D01*
X160999031Y-148204754D01*
X161181349Y-148111859D01*
X161346894Y-147991582D01*
X161346895Y-147991582D01*
X161491582Y-147846895D01*
X161491587Y-147846889D01*
X161609182Y-147685035D01*
X161664512Y-147642369D01*
X161734125Y-147636390D01*
X161795920Y-147668996D01*
X161830278Y-147729835D01*
X161833500Y-147757920D01*
X161833500Y-150756650D01*
X161813815Y-150823689D01*
X161812602Y-150825541D01*
X161749609Y-150919815D01*
X161749602Y-150919828D01*
X161689264Y-151065498D01*
X161689261Y-151065510D01*
X161658500Y-151220153D01*
X161658500Y-151377846D01*
X161689261Y-151532489D01*
X161689264Y-151532501D01*
X161749602Y-151678172D01*
X161749609Y-151678185D01*
X161837210Y-151809288D01*
X161837213Y-151809292D01*
X161948707Y-151920786D01*
X161948711Y-151920789D01*
X162079814Y-152008390D01*
X162079827Y-152008397D01*
X162224308Y-152068242D01*
X162225503Y-152068737D01*
X162380153Y-152099499D01*
X162380156Y-152099500D01*
X162380158Y-152099500D01*
X162537844Y-152099500D01*
X162537845Y-152099499D01*
X162692497Y-152068737D01*
X162838179Y-152008394D01*
X162969289Y-151920789D01*
X163080789Y-151809289D01*
X163168394Y-151678179D01*
X163228737Y-151532497D01*
X163259500Y-151377842D01*
X163259500Y-151220158D01*
X163259500Y-151220155D01*
X163259499Y-151220153D01*
X163253955Y-151192284D01*
X163228737Y-151065503D01*
X163168394Y-150919821D01*
X163105397Y-150825539D01*
X163084520Y-150758863D01*
X163084500Y-150756650D01*
X163084500Y-150509153D01*
X179005500Y-150509153D01*
X179005500Y-150666846D01*
X179036261Y-150821489D01*
X179036264Y-150821501D01*
X179096602Y-150967172D01*
X179096609Y-150967185D01*
X179184210Y-151098288D01*
X179184213Y-151098292D01*
X179295707Y-151209786D01*
X179295711Y-151209789D01*
X179426814Y-151297390D01*
X179426827Y-151297397D01*
X179550147Y-151348477D01*
X179572503Y-151357737D01*
X179686940Y-151380500D01*
X179727153Y-151388499D01*
X179727156Y-151388500D01*
X179727158Y-151388500D01*
X179884844Y-151388500D01*
X179884845Y-151388499D01*
X180039497Y-151357737D01*
X180185179Y-151297394D01*
X180231059Y-151266738D01*
X180316222Y-151209834D01*
X180316223Y-151209833D01*
X180316224Y-151209833D01*
X180316263Y-151209805D01*
X180316289Y-151209789D01*
X180427789Y-151098289D01*
X180515394Y-150967179D01*
X180532224Y-150926546D01*
X180576064Y-150872145D01*
X180642358Y-150850079D01*
X180646785Y-150850000D01*
X181566988Y-150850000D01*
X181534075Y-150907007D01*
X181500000Y-151034174D01*
X181500000Y-151165826D01*
X181534075Y-151292993D01*
X181566988Y-151350000D01*
X180672769Y-151350000D01*
X180683242Y-151416126D01*
X180683242Y-151416129D01*
X180748904Y-151618217D01*
X180845379Y-151807557D01*
X180970272Y-151979459D01*
X180970276Y-151979464D01*
X181120535Y-152129723D01*
X181120540Y-152129727D01*
X181292444Y-152254622D01*
X181302048Y-152259516D01*
X181352844Y-152307491D01*
X181369638Y-152375312D01*
X181347100Y-152441447D01*
X181302048Y-152480484D01*
X181292444Y-152485377D01*
X181120540Y-152610272D01*
X181120535Y-152610276D01*
X180970276Y-152760535D01*
X180970272Y-152760540D01*
X180845379Y-152932442D01*
X180748904Y-153121782D01*
X180683242Y-153323870D01*
X180683242Y-153323873D01*
X180672769Y-153390000D01*
X181566988Y-153390000D01*
X181534075Y-153447007D01*
X181500000Y-153574174D01*
X181500000Y-153705826D01*
X181534075Y-153832993D01*
X181566988Y-153890000D01*
X180672769Y-153890000D01*
X180683242Y-153956126D01*
X180683242Y-153956129D01*
X180748904Y-154158217D01*
X180845379Y-154347557D01*
X180970272Y-154519459D01*
X180970276Y-154519464D01*
X181120535Y-154669723D01*
X181120540Y-154669727D01*
X181292442Y-154794620D01*
X181481782Y-154891095D01*
X181683871Y-154956757D01*
X181750000Y-154967231D01*
X181750000Y-154073012D01*
X181807007Y-154105925D01*
X181934174Y-154140000D01*
X182065826Y-154140000D01*
X182192993Y-154105925D01*
X182250000Y-154073012D01*
X182250000Y-154967230D01*
X182316126Y-154956757D01*
X182316129Y-154956757D01*
X182416521Y-154924138D01*
X182486362Y-154922143D01*
X182546195Y-154958223D01*
X182557941Y-154973178D01*
X182644210Y-155102288D01*
X182644213Y-155102292D01*
X182755707Y-155213786D01*
X182755711Y-155213789D01*
X182886814Y-155301390D01*
X182886827Y-155301397D01*
X183032498Y-155361735D01*
X183032503Y-155361737D01*
X183143084Y-155383733D01*
X183187153Y-155392499D01*
X183187156Y-155392500D01*
X183187158Y-155392500D01*
X183344844Y-155392500D01*
X183344845Y-155392499D01*
X183499497Y-155361737D01*
X183645179Y-155301394D01*
X183776289Y-155213789D01*
X183887789Y-155102289D01*
X183975198Y-154971472D01*
X184028809Y-154926668D01*
X184098133Y-154917961D01*
X184116602Y-154922429D01*
X184223757Y-154957246D01*
X184433713Y-154990500D01*
X184433714Y-154990500D01*
X184646286Y-154990500D01*
X184646287Y-154990500D01*
X184856243Y-154957246D01*
X185058412Y-154891557D01*
X185247816Y-154795051D01*
X185301285Y-154756204D01*
X185419786Y-154670109D01*
X185419788Y-154670106D01*
X185419792Y-154670104D01*
X185570104Y-154519792D01*
X185570106Y-154519788D01*
X185570109Y-154519786D01*
X185695048Y-154347820D01*
X185695047Y-154347820D01*
X185695051Y-154347816D01*
X185791557Y-154158412D01*
X185857246Y-153956243D01*
X185890500Y-153746287D01*
X185890500Y-153533713D01*
X185857246Y-153323757D01*
X185791557Y-153121588D01*
X185695051Y-152932184D01*
X185695049Y-152932181D01*
X185695048Y-152932179D01*
X185570109Y-152760213D01*
X185419786Y-152609890D01*
X185247820Y-152484951D01*
X185247115Y-152484591D01*
X185239054Y-152480485D01*
X185188259Y-152432512D01*
X185171463Y-152364692D01*
X185193999Y-152298556D01*
X185239054Y-152259515D01*
X185247816Y-152255051D01*
X185326595Y-152197815D01*
X185419786Y-152130109D01*
X185419788Y-152130106D01*
X185419792Y-152130104D01*
X185570104Y-151979792D01*
X185570106Y-151979788D01*
X185570109Y-151979786D01*
X185693981Y-151809289D01*
X185695051Y-151807816D01*
X185791557Y-151618412D01*
X185857246Y-151416243D01*
X185890500Y-151206287D01*
X185890500Y-150993713D01*
X185857246Y-150783757D01*
X185791557Y-150581588D01*
X185695051Y-150392184D01*
X185695049Y-150392181D01*
X185695048Y-150392179D01*
X185570109Y-150220213D01*
X185419786Y-150069890D01*
X185247820Y-149944951D01*
X185247115Y-149944591D01*
X185239054Y-149940485D01*
X185188259Y-149892512D01*
X185171463Y-149824692D01*
X185193999Y-149758556D01*
X185239054Y-149719515D01*
X185247816Y-149715051D01*
X185286296Y-149687094D01*
X185419786Y-149590109D01*
X185419788Y-149590106D01*
X185419792Y-149590104D01*
X185570104Y-149439792D01*
X185570106Y-149439788D01*
X185570109Y-149439786D01*
X185695048Y-149267820D01*
X185695047Y-149267820D01*
X185695051Y-149267816D01*
X185791557Y-149078412D01*
X185857246Y-148876243D01*
X185890500Y-148666287D01*
X185890500Y-148453713D01*
X185857246Y-148243757D01*
X185791557Y-148041588D01*
X185695051Y-147852184D01*
X185695049Y-147852181D01*
X185695048Y-147852179D01*
X185570109Y-147680213D01*
X185419786Y-147529890D01*
X185247820Y-147404951D01*
X185247115Y-147404591D01*
X185239054Y-147400485D01*
X185188259Y-147352512D01*
X185171463Y-147284692D01*
X185193999Y-147218556D01*
X185239054Y-147179515D01*
X185247816Y-147175051D01*
X185276248Y-147154394D01*
X185419786Y-147050109D01*
X185419792Y-147050104D01*
X185477188Y-146992708D01*
X185570104Y-146899792D01*
X185570106Y-146899788D01*
X185570109Y-146899786D01*
X185695048Y-146727820D01*
X185695047Y-146727820D01*
X185695051Y-146727816D01*
X185791557Y-146538412D01*
X185857246Y-146336243D01*
X185890500Y-146126287D01*
X185890500Y-145913713D01*
X185857246Y-145703757D01*
X185791557Y-145501588D01*
X185695051Y-145312184D01*
X185695049Y-145312181D01*
X185695048Y-145312179D01*
X185570109Y-145140213D01*
X185419786Y-144989890D01*
X185247820Y-144864951D01*
X185247115Y-144864591D01*
X185239054Y-144860485D01*
X185188259Y-144812512D01*
X185171463Y-144744692D01*
X185193999Y-144678556D01*
X185239054Y-144639515D01*
X185247816Y-144635051D01*
X185269789Y-144619086D01*
X185419786Y-144510109D01*
X185419788Y-144510106D01*
X185419792Y-144510104D01*
X185570104Y-144359792D01*
X185570106Y-144359788D01*
X185570109Y-144359786D01*
X185695048Y-144187820D01*
X185695047Y-144187820D01*
X185695051Y-144187816D01*
X185791557Y-143998412D01*
X185857246Y-143796243D01*
X185890500Y-143586287D01*
X185890500Y-143373713D01*
X185857246Y-143163757D01*
X185791557Y-142961588D01*
X185695051Y-142772184D01*
X185676217Y-142746261D01*
X185582530Y-142617310D01*
X185559050Y-142551504D01*
X185574876Y-142483450D01*
X185595213Y-142456698D01*
X186160585Y-141891956D01*
X186160733Y-141891858D01*
X186204528Y-141848062D01*
X186247635Y-141805004D01*
X186247640Y-141804995D01*
X186247832Y-141804763D01*
X186247847Y-141804743D01*
X186247858Y-141804733D01*
X186281941Y-141753723D01*
X186281947Y-141753727D01*
X186281976Y-141753670D01*
X186316147Y-141702594D01*
X186316215Y-141702428D01*
X186316311Y-141702286D01*
X186339777Y-141645633D01*
X186363361Y-141588786D01*
X186363394Y-141588616D01*
X186363463Y-141588452D01*
X186375438Y-141528245D01*
X186387466Y-141467955D01*
X186387466Y-141467946D01*
X186387500Y-141467607D01*
X186387500Y-141407241D01*
X186387535Y-141344742D01*
X186387500Y-141344565D01*
X186387500Y-137829394D01*
X186386039Y-137822051D01*
X186369678Y-137739792D01*
X186363463Y-137708548D01*
X186316311Y-137594714D01*
X186316310Y-137594713D01*
X186316307Y-137594707D01*
X186247858Y-137492267D01*
X186212776Y-137457185D01*
X186160733Y-137405142D01*
X186160732Y-137405141D01*
X185613547Y-136857956D01*
X185580062Y-136796633D01*
X185585046Y-136726941D01*
X185600906Y-136697396D01*
X185695051Y-136567816D01*
X185791557Y-136378412D01*
X185857246Y-136176243D01*
X185890500Y-135966287D01*
X185890500Y-135753713D01*
X185857246Y-135543757D01*
X185791557Y-135341588D01*
X185695051Y-135152184D01*
X185695049Y-135152181D01*
X185695048Y-135152179D01*
X185570109Y-134980213D01*
X185419786Y-134829890D01*
X185247820Y-134704951D01*
X185247115Y-134704591D01*
X185239054Y-134700485D01*
X185188259Y-134652512D01*
X185171463Y-134584692D01*
X185193999Y-134518556D01*
X185239054Y-134479515D01*
X185247816Y-134475051D01*
X185308050Y-134431289D01*
X185419786Y-134350109D01*
X185419788Y-134350106D01*
X185419792Y-134350104D01*
X185570104Y-134199792D01*
X185570106Y-134199788D01*
X185570109Y-134199786D01*
X185695048Y-134027820D01*
X185695047Y-134027820D01*
X185695051Y-134027816D01*
X185791557Y-133838412D01*
X185857246Y-133636243D01*
X185890500Y-133426287D01*
X185890500Y-133213713D01*
X185857246Y-133003757D01*
X185791557Y-132801588D01*
X185695051Y-132612184D01*
X185695049Y-132612181D01*
X185695048Y-132612179D01*
X185570109Y-132440213D01*
X185419786Y-132289890D01*
X185247815Y-132164948D01*
X185247812Y-132164946D01*
X185239050Y-132160481D01*
X185188256Y-132112505D01*
X185171463Y-132044683D01*
X185194003Y-131978549D01*
X185239060Y-131939512D01*
X185247816Y-131935051D01*
X185247819Y-131935049D01*
X185419786Y-131810109D01*
X185419788Y-131810106D01*
X185419792Y-131810104D01*
X185570104Y-131659792D01*
X185570106Y-131659788D01*
X185570109Y-131659786D01*
X185695048Y-131487820D01*
X185695047Y-131487820D01*
X185695051Y-131487816D01*
X185791557Y-131298412D01*
X185857246Y-131096243D01*
X185890500Y-130886287D01*
X185890500Y-130673713D01*
X185857246Y-130463757D01*
X185791557Y-130261588D01*
X185695051Y-130072184D01*
X185695049Y-130072181D01*
X185695048Y-130072179D01*
X185570109Y-129900213D01*
X185419786Y-129749890D01*
X185247820Y-129624951D01*
X185247115Y-129624591D01*
X185239054Y-129620485D01*
X185188259Y-129572512D01*
X185171463Y-129504692D01*
X185193999Y-129438556D01*
X185239054Y-129399515D01*
X185247816Y-129395051D01*
X185269789Y-129379086D01*
X185419786Y-129270109D01*
X185419788Y-129270106D01*
X185419792Y-129270104D01*
X185570104Y-129119792D01*
X185570106Y-129119788D01*
X185570109Y-129119786D01*
X185695048Y-128947820D01*
X185695050Y-128947817D01*
X185695051Y-128947816D01*
X185791557Y-128758412D01*
X185857246Y-128556243D01*
X185890500Y-128346287D01*
X185890500Y-128133713D01*
X185857246Y-127923757D01*
X185791557Y-127721588D01*
X185695051Y-127532184D01*
X185695049Y-127532181D01*
X185695048Y-127532179D01*
X185570109Y-127360213D01*
X185419786Y-127209890D01*
X185247820Y-127084951D01*
X185245822Y-127083933D01*
X185239054Y-127080485D01*
X185188259Y-127032512D01*
X185171463Y-126964692D01*
X185193999Y-126898556D01*
X185239054Y-126859515D01*
X185247816Y-126855051D01*
X185269789Y-126839086D01*
X185419786Y-126730109D01*
X185419788Y-126730106D01*
X185419792Y-126730104D01*
X185570104Y-126579792D01*
X185570106Y-126579788D01*
X185570109Y-126579786D01*
X185695048Y-126407820D01*
X185695050Y-126407817D01*
X185695051Y-126407816D01*
X185791557Y-126218412D01*
X185857246Y-126016243D01*
X185890500Y-125806287D01*
X185890500Y-125593713D01*
X185857246Y-125383757D01*
X185791557Y-125181588D01*
X185695051Y-124992184D01*
X185695049Y-124992181D01*
X185695048Y-124992179D01*
X185570109Y-124820213D01*
X185419786Y-124669890D01*
X185247820Y-124544951D01*
X185247115Y-124544591D01*
X185239054Y-124540485D01*
X185188259Y-124492512D01*
X185171463Y-124424692D01*
X185193999Y-124358556D01*
X185239054Y-124319515D01*
X185247816Y-124315051D01*
X185270711Y-124298417D01*
X185419786Y-124190109D01*
X185419788Y-124190106D01*
X185419792Y-124190104D01*
X185570104Y-124039792D01*
X185570106Y-124039788D01*
X185570109Y-124039786D01*
X185695048Y-123867820D01*
X185695050Y-123867817D01*
X185695051Y-123867816D01*
X185791557Y-123678412D01*
X185857246Y-123476243D01*
X185890500Y-123266287D01*
X185890500Y-123053713D01*
X185857246Y-122843757D01*
X185791557Y-122641588D01*
X185695051Y-122452184D01*
X185695049Y-122452181D01*
X185695048Y-122452179D01*
X185570109Y-122280213D01*
X185419786Y-122129890D01*
X185247820Y-122004951D01*
X185247115Y-122004591D01*
X185239054Y-122000485D01*
X185188259Y-121952512D01*
X185171463Y-121884692D01*
X185193999Y-121818556D01*
X185239054Y-121779515D01*
X185247816Y-121775051D01*
X185287802Y-121746000D01*
X185419786Y-121650109D01*
X185419788Y-121650106D01*
X185419792Y-121650104D01*
X185570104Y-121499792D01*
X185570106Y-121499788D01*
X185570109Y-121499786D01*
X185695048Y-121327820D01*
X185695050Y-121327817D01*
X185695051Y-121327816D01*
X185791557Y-121138412D01*
X185857246Y-120936243D01*
X185890500Y-120726287D01*
X185890500Y-120513713D01*
X185857246Y-120303757D01*
X185791557Y-120101588D01*
X185695051Y-119912184D01*
X185695049Y-119912181D01*
X185695048Y-119912179D01*
X185570109Y-119740213D01*
X185419786Y-119589890D01*
X185247820Y-119464951D01*
X185247115Y-119464591D01*
X185239054Y-119460485D01*
X185188259Y-119412512D01*
X185171463Y-119344692D01*
X185193999Y-119278556D01*
X185239054Y-119239515D01*
X185247816Y-119235051D01*
X185269789Y-119219086D01*
X185419786Y-119110109D01*
X185419788Y-119110106D01*
X185419792Y-119110104D01*
X185570104Y-118959792D01*
X185570106Y-118959788D01*
X185570109Y-118959786D01*
X185695048Y-118787820D01*
X185695050Y-118787817D01*
X185695051Y-118787816D01*
X185791557Y-118598412D01*
X185857246Y-118396243D01*
X185890500Y-118186287D01*
X185890500Y-117973713D01*
X185857246Y-117763757D01*
X185791557Y-117561588D01*
X185695051Y-117372184D01*
X185695049Y-117372181D01*
X185695048Y-117372179D01*
X185570109Y-117200213D01*
X185419786Y-117049890D01*
X185247820Y-116924951D01*
X185247115Y-116924591D01*
X185239054Y-116920485D01*
X185188259Y-116872512D01*
X185171463Y-116804692D01*
X185193999Y-116738556D01*
X185239054Y-116699515D01*
X185247816Y-116695051D01*
X185287802Y-116666000D01*
X185419786Y-116570109D01*
X185419788Y-116570106D01*
X185419792Y-116570104D01*
X185570104Y-116419792D01*
X185570106Y-116419788D01*
X185570109Y-116419786D01*
X185695048Y-116247820D01*
X185695050Y-116247817D01*
X185695051Y-116247816D01*
X185791557Y-116058412D01*
X185857246Y-115856243D01*
X185890500Y-115646287D01*
X185890500Y-115433713D01*
X185857246Y-115223757D01*
X185791557Y-115021588D01*
X185695051Y-114832184D01*
X185695049Y-114832181D01*
X185695048Y-114832179D01*
X185570109Y-114660213D01*
X185419786Y-114509890D01*
X185247820Y-114384951D01*
X185246905Y-114384485D01*
X185239054Y-114380485D01*
X185188259Y-114332512D01*
X185171463Y-114264692D01*
X185193999Y-114198556D01*
X185239054Y-114159515D01*
X185247816Y-114155051D01*
X185269789Y-114139086D01*
X185419786Y-114030109D01*
X185419788Y-114030106D01*
X185419792Y-114030104D01*
X185570104Y-113879792D01*
X185570106Y-113879788D01*
X185570109Y-113879786D01*
X185695048Y-113707820D01*
X185695047Y-113707820D01*
X185695051Y-113707816D01*
X185791557Y-113518412D01*
X185857246Y-113316243D01*
X185890500Y-113106287D01*
X185890500Y-112893713D01*
X185857246Y-112683757D01*
X185791557Y-112481588D01*
X185695051Y-112292184D01*
X185695049Y-112292181D01*
X185695048Y-112292179D01*
X185570109Y-112120213D01*
X185419786Y-111969890D01*
X185247820Y-111844951D01*
X185058414Y-111748444D01*
X185058413Y-111748443D01*
X185058412Y-111748443D01*
X184856243Y-111682754D01*
X184856241Y-111682753D01*
X184856240Y-111682753D01*
X184694957Y-111657208D01*
X184646287Y-111649500D01*
X184433713Y-111649500D01*
X184385042Y-111657208D01*
X184223760Y-111682753D01*
X184021585Y-111748444D01*
X183832179Y-111844951D01*
X183660215Y-111969889D01*
X183546285Y-112083819D01*
X183484962Y-112117303D01*
X183415270Y-112112319D01*
X183359337Y-112070447D01*
X183342422Y-112039470D01*
X183293354Y-111907913D01*
X183293350Y-111907906D01*
X183207190Y-111792812D01*
X183207187Y-111792809D01*
X183092093Y-111706649D01*
X183092086Y-111706645D01*
X182957379Y-111656403D01*
X182957372Y-111656401D01*
X182897844Y-111650000D01*
X182250000Y-111650000D01*
X182250000Y-112566988D01*
X182192993Y-112534075D01*
X182065826Y-112500000D01*
X181934174Y-112500000D01*
X181807007Y-112534075D01*
X181750000Y-112566988D01*
X181750000Y-111650000D01*
X181102155Y-111650000D01*
X181042627Y-111656401D01*
X181042620Y-111656403D01*
X180907913Y-111706645D01*
X180907906Y-111706649D01*
X180792812Y-111792809D01*
X180792809Y-111792812D01*
X180706649Y-111907906D01*
X180706645Y-111907913D01*
X180656403Y-112042620D01*
X180656401Y-112042627D01*
X180650000Y-112102155D01*
X180650000Y-112750000D01*
X181566988Y-112750000D01*
X181534075Y-112807007D01*
X181500000Y-112934174D01*
X181500000Y-113065826D01*
X181534075Y-113192993D01*
X181566988Y-113250000D01*
X180650000Y-113250000D01*
X180650000Y-113897844D01*
X180656401Y-113957372D01*
X180656403Y-113957379D01*
X180706645Y-114092086D01*
X180706649Y-114092093D01*
X180792809Y-114207187D01*
X180792812Y-114207190D01*
X180907906Y-114293350D01*
X180907913Y-114293354D01*
X181039986Y-114342614D01*
X181095920Y-114384485D01*
X181120337Y-114449949D01*
X181105486Y-114518222D01*
X181084335Y-114546477D01*
X180970271Y-114660541D01*
X180845379Y-114832442D01*
X180748904Y-115021782D01*
X180683242Y-115223870D01*
X180683242Y-115223873D01*
X180672769Y-115290000D01*
X181566988Y-115290000D01*
X181534075Y-115347007D01*
X181500000Y-115474174D01*
X181500000Y-115605826D01*
X181534075Y-115732993D01*
X181566988Y-115790000D01*
X180672769Y-115790000D01*
X180683242Y-115856126D01*
X180683242Y-115856129D01*
X180748904Y-116058217D01*
X180845379Y-116247557D01*
X180970272Y-116419459D01*
X180970276Y-116419464D01*
X181120535Y-116569723D01*
X181120540Y-116569727D01*
X181292444Y-116694622D01*
X181302048Y-116699516D01*
X181352844Y-116747491D01*
X181369638Y-116815312D01*
X181347100Y-116881447D01*
X181302048Y-116920484D01*
X181292444Y-116925377D01*
X181120540Y-117050272D01*
X181120535Y-117050276D01*
X180970276Y-117200535D01*
X180970272Y-117200540D01*
X180845379Y-117372442D01*
X180748904Y-117561782D01*
X180683242Y-117763870D01*
X180683242Y-117763873D01*
X180672769Y-117830000D01*
X181566988Y-117830000D01*
X181534075Y-117887007D01*
X181500000Y-118014174D01*
X181500000Y-118145826D01*
X181534075Y-118272993D01*
X181566988Y-118330000D01*
X180672769Y-118330000D01*
X180683242Y-118396126D01*
X180683242Y-118396129D01*
X180748904Y-118598217D01*
X180845379Y-118787557D01*
X180970272Y-118959459D01*
X180970276Y-118959464D01*
X181120535Y-119109723D01*
X181120540Y-119109727D01*
X181292444Y-119234622D01*
X181302048Y-119239516D01*
X181352844Y-119287491D01*
X181369638Y-119355312D01*
X181347100Y-119421447D01*
X181302048Y-119460484D01*
X181292444Y-119465377D01*
X181120540Y-119590272D01*
X181120535Y-119590276D01*
X180970276Y-119740535D01*
X180970272Y-119740540D01*
X180845379Y-119912442D01*
X180748904Y-120101782D01*
X180683242Y-120303870D01*
X180683242Y-120303873D01*
X180672769Y-120370000D01*
X181566988Y-120370000D01*
X181534075Y-120427007D01*
X181500000Y-120554174D01*
X181500000Y-120685826D01*
X181534075Y-120812993D01*
X181566988Y-120870000D01*
X180672769Y-120870000D01*
X180683242Y-120936126D01*
X180683242Y-120936129D01*
X180748904Y-121138217D01*
X180845379Y-121327557D01*
X180970272Y-121499459D01*
X180970276Y-121499464D01*
X181120535Y-121649723D01*
X181120540Y-121649727D01*
X181292444Y-121774622D01*
X181302048Y-121779516D01*
X181352844Y-121827491D01*
X181369638Y-121895312D01*
X181347100Y-121961447D01*
X181302048Y-122000484D01*
X181292444Y-122005377D01*
X181120540Y-122130272D01*
X181120535Y-122130276D01*
X180970276Y-122280535D01*
X180970272Y-122280540D01*
X180845379Y-122452442D01*
X180748904Y-122641782D01*
X180683242Y-122843870D01*
X180683242Y-122843873D01*
X180672769Y-122910000D01*
X181566988Y-122910000D01*
X181534075Y-122967007D01*
X181500000Y-123094174D01*
X181500000Y-123225826D01*
X181534075Y-123352993D01*
X181566988Y-123410000D01*
X180672769Y-123410000D01*
X180683242Y-123476126D01*
X180683242Y-123476129D01*
X180748904Y-123678217D01*
X180845379Y-123867557D01*
X180970272Y-124039459D01*
X180970276Y-124039464D01*
X181120535Y-124189723D01*
X181120540Y-124189727D01*
X181292444Y-124314622D01*
X181302048Y-124319516D01*
X181352844Y-124367491D01*
X181369638Y-124435312D01*
X181347100Y-124501447D01*
X181302048Y-124540484D01*
X181292444Y-124545377D01*
X181120540Y-124670272D01*
X181120535Y-124670276D01*
X180970276Y-124820535D01*
X180970272Y-124820540D01*
X180845379Y-124992442D01*
X180748904Y-125181782D01*
X180683242Y-125383870D01*
X180683242Y-125383873D01*
X180672769Y-125450000D01*
X181566988Y-125450000D01*
X181534075Y-125507007D01*
X181500000Y-125634174D01*
X181500000Y-125765826D01*
X181534075Y-125892993D01*
X181566988Y-125950000D01*
X180672769Y-125950000D01*
X180683242Y-126016126D01*
X180683242Y-126016129D01*
X180748904Y-126218217D01*
X180845379Y-126407557D01*
X180970272Y-126579459D01*
X180970276Y-126579464D01*
X181120535Y-126729723D01*
X181120540Y-126729727D01*
X181292444Y-126854622D01*
X181302048Y-126859516D01*
X181352844Y-126907491D01*
X181369638Y-126975312D01*
X181347100Y-127041447D01*
X181302048Y-127080484D01*
X181292444Y-127085377D01*
X181120540Y-127210272D01*
X181120535Y-127210276D01*
X180970276Y-127360535D01*
X180970272Y-127360540D01*
X180845379Y-127532442D01*
X180748904Y-127721782D01*
X180683242Y-127923870D01*
X180683242Y-127923873D01*
X180672769Y-127990000D01*
X181566988Y-127990000D01*
X181534075Y-128047007D01*
X181500000Y-128174174D01*
X181500000Y-128305826D01*
X181534075Y-128432993D01*
X181566988Y-128490000D01*
X180672769Y-128490000D01*
X180683242Y-128556126D01*
X180683242Y-128556129D01*
X180748904Y-128758217D01*
X180845379Y-128947557D01*
X180970272Y-129119459D01*
X180970276Y-129119464D01*
X181120535Y-129269723D01*
X181120540Y-129269727D01*
X181292444Y-129394622D01*
X181302048Y-129399516D01*
X181352844Y-129447491D01*
X181369638Y-129515312D01*
X181347100Y-129581447D01*
X181302048Y-129620484D01*
X181292444Y-129625377D01*
X181120540Y-129750272D01*
X181120535Y-129750276D01*
X180970276Y-129900535D01*
X180970272Y-129900540D01*
X180845379Y-130072442D01*
X180748904Y-130261782D01*
X180683242Y-130463870D01*
X180683242Y-130463873D01*
X180672769Y-130530000D01*
X181566988Y-130530000D01*
X181534075Y-130587007D01*
X181500000Y-130714174D01*
X181500000Y-130845826D01*
X181534075Y-130972993D01*
X181566988Y-131030000D01*
X180672769Y-131030000D01*
X180683242Y-131096126D01*
X180683242Y-131096129D01*
X180748904Y-131298217D01*
X180845379Y-131487557D01*
X180970272Y-131659459D01*
X180970276Y-131659464D01*
X181120535Y-131809723D01*
X181120540Y-131809727D01*
X181292444Y-131934622D01*
X181302048Y-131939516D01*
X181352844Y-131987491D01*
X181369638Y-132055312D01*
X181347100Y-132121447D01*
X181302048Y-132160484D01*
X181292444Y-132165377D01*
X181120540Y-132290272D01*
X181120535Y-132290276D01*
X180970276Y-132440535D01*
X180970272Y-132440540D01*
X180845379Y-132612442D01*
X180748904Y-132801782D01*
X180683242Y-133003870D01*
X180683242Y-133003873D01*
X180672769Y-133070000D01*
X181566988Y-133070000D01*
X181534075Y-133127007D01*
X181500000Y-133254174D01*
X181500000Y-133385826D01*
X181534075Y-133512993D01*
X181566988Y-133570000D01*
X180672769Y-133570000D01*
X180683242Y-133636126D01*
X180683242Y-133636129D01*
X180748904Y-133838217D01*
X180845379Y-134027557D01*
X180934397Y-134150081D01*
X180957877Y-134215887D01*
X180942051Y-134283941D01*
X180921760Y-134310647D01*
X179772508Y-135459901D01*
X179407269Y-135825140D01*
X179407267Y-135825142D01*
X179370367Y-135862042D01*
X179320140Y-135912268D01*
X179295912Y-135948528D01*
X179295906Y-135948538D01*
X179292662Y-135953394D01*
X179251688Y-136014714D01*
X179226052Y-136076607D01*
X179223624Y-136082466D01*
X179223623Y-136082470D01*
X179204537Y-136128547D01*
X179204535Y-136128553D01*
X179199904Y-136151833D01*
X179199905Y-136151834D01*
X179198503Y-136158884D01*
X179187990Y-136211742D01*
X179180946Y-136247155D01*
X179180940Y-136247185D01*
X179180500Y-136249394D01*
X179180500Y-150045650D01*
X179160815Y-150112689D01*
X179159626Y-150114503D01*
X179138802Y-150145668D01*
X179096609Y-150208815D01*
X179096602Y-150208828D01*
X179036264Y-150354498D01*
X179036261Y-150354510D01*
X179005500Y-150509153D01*
X163084500Y-150509153D01*
X163084500Y-141986411D01*
X163084539Y-141986215D01*
X163084500Y-141923808D01*
X163084500Y-141863394D01*
X163084500Y-141863388D01*
X163084462Y-141863009D01*
X163084462Y-141863002D01*
X163073696Y-141809058D01*
X163072289Y-141802006D01*
X163072273Y-141801927D01*
X163062686Y-141753727D01*
X163060463Y-141742548D01*
X163060459Y-141742540D01*
X163060443Y-141742485D01*
X163060347Y-141742167D01*
X163058376Y-141737419D01*
X163036719Y-141685225D01*
X163013311Y-141628714D01*
X163013201Y-141628550D01*
X163013126Y-141628368D01*
X163011710Y-141626252D01*
X163011709Y-141626249D01*
X162979119Y-141577541D01*
X162979119Y-141577540D01*
X162979115Y-141577537D01*
X162944858Y-141526267D01*
X162944720Y-141526129D01*
X162944613Y-141525969D01*
X162944610Y-141525966D01*
X162944608Y-141525963D01*
X162901457Y-141482866D01*
X162857733Y-141439142D01*
X162853793Y-141435202D01*
X162853149Y-141434619D01*
X162546400Y-141128253D01*
X162512877Y-141066953D01*
X162517818Y-140997258D01*
X162546342Y-140952842D01*
X162651966Y-140847219D01*
X162772287Y-140681610D01*
X162865220Y-140499219D01*
X162928477Y-140304534D01*
X162960500Y-140102352D01*
X162960500Y-139897648D01*
X162937775Y-139754172D01*
X162928477Y-139695465D01*
X162884304Y-139559516D01*
X162865220Y-139500781D01*
X162865218Y-139500778D01*
X162865218Y-139500776D01*
X162829014Y-139429723D01*
X162772287Y-139318390D01*
X162756135Y-139296158D01*
X162651971Y-139152786D01*
X162507213Y-139008028D01*
X162341613Y-138887715D01*
X162341612Y-138887714D01*
X162341610Y-138887713D01*
X162284653Y-138858691D01*
X162159223Y-138794781D01*
X161964534Y-138731522D01*
X161789995Y-138703878D01*
X161762352Y-138699500D01*
X161557648Y-138699500D01*
X161533329Y-138703351D01*
X161355465Y-138731522D01*
X161160776Y-138794781D01*
X160978386Y-138887715D01*
X160812786Y-139008028D01*
X160668028Y-139152786D01*
X160547715Y-139318386D01*
X160454781Y-139500776D01*
X160391522Y-139695465D01*
X160362337Y-139879735D01*
X160359500Y-139897648D01*
X160359500Y-140102352D01*
X160363878Y-140129995D01*
X160391522Y-140304534D01*
X160454781Y-140499223D01*
X160505395Y-140598556D01*
X160544900Y-140676090D01*
X160547715Y-140681613D01*
X160668028Y-140847213D01*
X160668034Y-140847219D01*
X160812781Y-140991966D01*
X160978390Y-141112287D01*
X160978403Y-141112293D01*
X160978697Y-141112474D01*
X160978789Y-141112576D01*
X160982332Y-141115150D01*
X160981791Y-141115893D01*
X161000835Y-141136937D01*
X161023763Y-141160669D01*
X161024692Y-141163298D01*
X161025580Y-141164279D01*
X161035524Y-141193939D01*
X161046132Y-141247097D01*
X161046695Y-141249916D01*
X161046702Y-141249992D01*
X161046709Y-141249991D01*
X161058536Y-141309450D01*
X161058652Y-141309831D01*
X161082398Y-141367060D01*
X161082426Y-141367128D01*
X161105691Y-141423295D01*
X161105872Y-141423632D01*
X161140119Y-141474816D01*
X161140120Y-141474816D01*
X161140127Y-141474826D01*
X161174142Y-141525733D01*
X161174282Y-141525873D01*
X161174392Y-141526037D01*
X161217542Y-141569133D01*
X161217598Y-141569189D01*
X161265234Y-141616826D01*
X161265878Y-141617408D01*
X161797126Y-142147992D01*
X161830650Y-142209293D01*
X161833500Y-142235727D01*
X161833500Y-146242079D01*
X161813815Y-146309118D01*
X161761011Y-146354873D01*
X161691853Y-146364817D01*
X161628297Y-146335792D01*
X161609182Y-146314965D01*
X161491582Y-146153105D01*
X161491582Y-146153104D01*
X161346895Y-146008417D01*
X161181349Y-145888140D01*
X160999029Y-145795244D01*
X160804413Y-145732009D01*
X160750000Y-145723390D01*
X160750000Y-146684314D01*
X160745606Y-146679920D01*
X160654394Y-146627259D01*
X160552661Y-146600000D01*
X160447339Y-146600000D01*
X160345606Y-146627259D01*
X160254394Y-146679920D01*
X160250000Y-146684314D01*
X160250000Y-145723390D01*
X160195586Y-145732009D01*
X160000970Y-145795244D01*
X159818650Y-145888140D01*
X159653105Y-146008417D01*
X159653104Y-146008417D01*
X159508417Y-146153104D01*
X159508417Y-146153105D01*
X159388140Y-146318650D01*
X159295244Y-146500970D01*
X159232009Y-146695586D01*
X159223391Y-146750000D01*
X156800499Y-146750000D01*
X156800499Y-146152128D01*
X156794091Y-146092517D01*
X156791595Y-146085826D01*
X156743797Y-145957671D01*
X156743793Y-145957664D01*
X156657547Y-145842455D01*
X156657544Y-145842452D01*
X156542335Y-145756206D01*
X156542328Y-145756202D01*
X156407482Y-145705908D01*
X156407483Y-145705908D01*
X156347883Y-145699501D01*
X156347881Y-145699500D01*
X156347873Y-145699500D01*
X156347864Y-145699500D01*
X154652129Y-145699500D01*
X154652123Y-145699501D01*
X154592516Y-145705908D01*
X154457671Y-145756202D01*
X154457664Y-145756206D01*
X154342455Y-145842452D01*
X154342452Y-145842455D01*
X154256206Y-145957664D01*
X154256202Y-145957671D01*
X154205908Y-146092517D01*
X154203783Y-146112287D01*
X154199501Y-146152123D01*
X154199500Y-146152135D01*
X152872500Y-146152135D01*
X152872500Y-145958741D01*
X152872501Y-145958720D01*
X152872501Y-145829391D01*
X152861391Y-145773541D01*
X152851231Y-145722463D01*
X152848463Y-145708548D01*
X152828932Y-145661397D01*
X152801312Y-145594715D01*
X152780082Y-145562943D01*
X152732858Y-145492267D01*
X152732855Y-145492263D01*
X152454571Y-145213980D01*
X152421086Y-145152657D01*
X152419780Y-145106896D01*
X152420500Y-145102352D01*
X152420500Y-144897648D01*
X152397956Y-144755312D01*
X152388477Y-144695465D01*
X152328249Y-144510104D01*
X152325220Y-144500781D01*
X152325218Y-144500778D01*
X152325218Y-144500776D01*
X152268983Y-144390410D01*
X152232287Y-144318390D01*
X152221594Y-144303672D01*
X152111971Y-144152786D01*
X151967213Y-144008028D01*
X151797669Y-143884849D01*
X151798884Y-143883176D01*
X151757831Y-143837792D01*
X151745500Y-143783885D01*
X151745500Y-143223500D01*
X151765185Y-143156461D01*
X151817989Y-143110706D01*
X151869500Y-143099500D01*
X152028844Y-143099500D01*
X152028845Y-143099499D01*
X152183497Y-143068737D01*
X152308784Y-143016842D01*
X152329172Y-143008397D01*
X152329172Y-143008396D01*
X152329179Y-143008394D01*
X152460289Y-142920789D01*
X152571789Y-142809289D01*
X152659394Y-142678179D01*
X152719737Y-142532497D01*
X152741858Y-142421282D01*
X152774240Y-142359375D01*
X152775735Y-142357853D01*
X153171729Y-141961860D01*
X153171733Y-141961858D01*
X153258858Y-141874733D01*
X153327311Y-141772286D01*
X153327312Y-141772285D01*
X153361623Y-141689451D01*
X153374463Y-141658452D01*
X153380447Y-141628368D01*
X153390510Y-141577781D01*
X153398500Y-141537607D01*
X153398500Y-139296153D01*
X158184500Y-139296153D01*
X158184500Y-139453846D01*
X158215261Y-139608489D01*
X158215264Y-139608501D01*
X158275602Y-139754172D01*
X158275609Y-139754184D01*
X158338602Y-139848459D01*
X158359480Y-139915136D01*
X158359500Y-139917350D01*
X158359500Y-142891670D01*
X158359445Y-142891948D01*
X158359500Y-142953555D01*
X158359500Y-143014624D01*
X158359522Y-143014842D01*
X158359553Y-143015158D01*
X158365933Y-143047080D01*
X158371563Y-143075258D01*
X158371573Y-143075363D01*
X158371584Y-143075362D01*
X158383536Y-143135450D01*
X158383546Y-143135482D01*
X158383697Y-143135981D01*
X158407115Y-143192375D01*
X158407136Y-143192483D01*
X158407156Y-143192475D01*
X158420008Y-143223500D01*
X158430689Y-143249286D01*
X158430692Y-143249291D01*
X158430884Y-143249649D01*
X158430884Y-143249652D01*
X158430950Y-143249774D01*
X158430951Y-143249776D01*
X158430952Y-143249777D01*
X158452865Y-143282510D01*
X158464659Y-143300126D01*
X158464693Y-143300237D01*
X158464721Y-143300219D01*
X158499141Y-143351732D01*
X158499489Y-143352156D01*
X158542383Y-143394974D01*
X158590058Y-143442649D01*
X158590966Y-143443471D01*
X158691132Y-143543459D01*
X158723296Y-143575566D01*
X158756835Y-143636860D01*
X158757309Y-143639133D01*
X158779261Y-143749491D01*
X158779264Y-143749501D01*
X158839602Y-143895172D01*
X158839609Y-143895185D01*
X158927210Y-144026288D01*
X158927213Y-144026292D01*
X159038707Y-144137786D01*
X159038711Y-144137789D01*
X159169814Y-144225390D01*
X159169827Y-144225397D01*
X159315498Y-144285735D01*
X159315503Y-144285737D01*
X159412073Y-144304946D01*
X159470153Y-144316499D01*
X159470156Y-144316500D01*
X159470158Y-144316500D01*
X159627844Y-144316500D01*
X159627845Y-144316499D01*
X159782497Y-144285737D01*
X159928179Y-144225394D01*
X160059289Y-144137789D01*
X160170789Y-144026289D01*
X160258394Y-143895179D01*
X160261487Y-143887713D01*
X160287049Y-143825998D01*
X160318737Y-143749497D01*
X160349500Y-143594842D01*
X160349500Y-143437158D01*
X160349500Y-143437155D01*
X160349499Y-143437153D01*
X160336880Y-143373713D01*
X160318737Y-143282503D01*
X160296345Y-143228443D01*
X160258397Y-143136827D01*
X160258390Y-143136814D01*
X160170789Y-143005711D01*
X160170786Y-143005707D01*
X160059292Y-142894213D01*
X160059288Y-142894210D01*
X159928185Y-142806609D01*
X159928172Y-142806602D01*
X159782501Y-142746264D01*
X159782491Y-142746261D01*
X159710308Y-142731903D01*
X159648397Y-142699518D01*
X159613823Y-142638802D01*
X159610500Y-142610286D01*
X159610500Y-139917350D01*
X159615828Y-139899204D01*
X159616166Y-139880297D01*
X159629665Y-139852080D01*
X159630185Y-139850311D01*
X159631398Y-139848459D01*
X159647818Y-139823885D01*
X159656479Y-139810921D01*
X159694394Y-139754179D01*
X159754737Y-139608497D01*
X159785500Y-139453842D01*
X159785500Y-139296158D01*
X159785500Y-139296155D01*
X159785499Y-139296153D01*
X159782178Y-139279459D01*
X159754737Y-139141503D01*
X159754735Y-139141498D01*
X159694397Y-138995828D01*
X159694396Y-138995827D01*
X159694394Y-138995821D01*
X159631397Y-138901539D01*
X159610520Y-138834863D01*
X159610500Y-138832650D01*
X159610500Y-132897648D01*
X160359500Y-132897648D01*
X160359500Y-133102352D01*
X160361109Y-133112512D01*
X160391522Y-133304534D01*
X160454781Y-133499223D01*
X160512336Y-133612179D01*
X160546887Y-133679989D01*
X160547715Y-133681613D01*
X160668028Y-133847213D01*
X160668034Y-133847219D01*
X160812781Y-133991966D01*
X160978390Y-134112287D01*
X160978394Y-134112289D01*
X160978753Y-134112509D01*
X160978860Y-134112627D01*
X160982332Y-134115150D01*
X160981802Y-134115879D01*
X160999217Y-134135128D01*
X161021308Y-134156162D01*
X161023492Y-134161959D01*
X161025629Y-134164321D01*
X161034448Y-134188919D01*
X161035072Y-134191485D01*
X161038085Y-134206632D01*
X161058537Y-134309452D01*
X161067581Y-134331286D01*
X161071241Y-134340122D01*
X161071242Y-134340126D01*
X161105685Y-134423281D01*
X161105687Y-134423284D01*
X161105688Y-134423286D01*
X161110783Y-134430910D01*
X161139608Y-134474049D01*
X161139609Y-134474051D01*
X161174141Y-134525733D01*
X161265586Y-134617178D01*
X161265608Y-134617198D01*
X164706181Y-138057771D01*
X164739666Y-138119094D01*
X164742500Y-138145452D01*
X164742500Y-142395650D01*
X164722815Y-142462689D01*
X164721626Y-142464503D01*
X164715244Y-142474056D01*
X164658609Y-142558815D01*
X164658602Y-142558828D01*
X164598264Y-142704498D01*
X164598261Y-142704510D01*
X164567500Y-142859153D01*
X164567500Y-143016846D01*
X164598261Y-143171489D01*
X164598264Y-143171501D01*
X164658602Y-143317172D01*
X164658609Y-143317185D01*
X164746210Y-143448288D01*
X164746213Y-143448292D01*
X164857707Y-143559786D01*
X164857711Y-143559789D01*
X164988814Y-143647390D01*
X164988827Y-143647397D01*
X165104878Y-143695466D01*
X165134503Y-143707737D01*
X165289153Y-143738499D01*
X165289156Y-143738500D01*
X165289158Y-143738500D01*
X165446844Y-143738500D01*
X165446845Y-143738499D01*
X165601497Y-143707737D01*
X165747179Y-143647394D01*
X165878289Y-143559789D01*
X165989789Y-143448289D01*
X166077394Y-143317179D01*
X166137737Y-143171497D01*
X166168500Y-143016842D01*
X166168500Y-142859158D01*
X166168500Y-142859155D01*
X166168499Y-142859153D01*
X166163831Y-142835685D01*
X166137737Y-142704503D01*
X166131956Y-142690546D01*
X166077397Y-142558828D01*
X166077396Y-142558827D01*
X166077394Y-142558821D01*
X166014397Y-142464539D01*
X165993520Y-142397863D01*
X165993500Y-142395650D01*
X165993500Y-137773392D01*
X165991155Y-137761607D01*
X165991154Y-137761602D01*
X165973630Y-137673500D01*
X165973630Y-137673498D01*
X165969464Y-137652551D01*
X165969461Y-137652544D01*
X165945504Y-137594707D01*
X165934366Y-137567816D01*
X165922312Y-137538715D01*
X165891275Y-137492266D01*
X165888628Y-137488305D01*
X165888625Y-137488299D01*
X165853856Y-137436264D01*
X165763637Y-137346045D01*
X165763606Y-137346016D01*
X162546068Y-134128478D01*
X162512583Y-134067155D01*
X162517567Y-133997463D01*
X162546064Y-133953120D01*
X162651966Y-133847219D01*
X162772287Y-133681610D01*
X162865220Y-133499219D01*
X162928477Y-133304534D01*
X162960500Y-133102352D01*
X162960500Y-132897648D01*
X162940007Y-132768261D01*
X162928477Y-132695465D01*
X162873443Y-132526090D01*
X162865220Y-132500781D01*
X162865218Y-132500778D01*
X162865218Y-132500776D01*
X162813063Y-132398417D01*
X162772287Y-132318390D01*
X162751581Y-132289890D01*
X162651971Y-132152786D01*
X162507213Y-132008028D01*
X162341613Y-131887715D01*
X162341612Y-131887714D01*
X162341610Y-131887713D01*
X162263420Y-131847873D01*
X162159223Y-131794781D01*
X161964534Y-131731522D01*
X161789995Y-131703878D01*
X161762352Y-131699500D01*
X161557648Y-131699500D01*
X161533329Y-131703351D01*
X161355465Y-131731522D01*
X161160776Y-131794781D01*
X160978386Y-131887715D01*
X160812786Y-132008028D01*
X160668028Y-132152786D01*
X160547715Y-132318386D01*
X160454781Y-132500776D01*
X160391522Y-132695465D01*
X160366401Y-132854075D01*
X160359500Y-132897648D01*
X159610500Y-132897648D01*
X159610500Y-130111534D01*
X159630185Y-130044495D01*
X159646832Y-130023839D01*
X162058683Y-127612891D01*
X162058733Y-127612858D01*
X162103000Y-127568590D01*
X162145783Y-127525824D01*
X162145788Y-127525815D01*
X162145813Y-127525791D01*
X162145838Y-127525761D01*
X162145854Y-127525736D01*
X162145858Y-127525733D01*
X162180399Y-127474038D01*
X162180477Y-127473922D01*
X162180480Y-127473915D01*
X162214256Y-127423389D01*
X162214258Y-127423382D01*
X162214283Y-127423346D01*
X162214288Y-127423336D01*
X162214305Y-127423294D01*
X162214311Y-127423286D01*
X162237788Y-127366606D01*
X162261429Y-127309564D01*
X162261430Y-127309554D01*
X162261441Y-127309530D01*
X162261458Y-127309473D01*
X162261461Y-127309455D01*
X162261463Y-127309452D01*
X162268239Y-127275385D01*
X162273082Y-127251038D01*
X162273086Y-127251017D01*
X162279577Y-127218414D01*
X162284435Y-127194013D01*
X162316829Y-127132112D01*
X162337776Y-127115299D01*
X162337668Y-127115150D01*
X162340773Y-127112894D01*
X162341279Y-127112488D01*
X162341587Y-127112298D01*
X162341610Y-127112287D01*
X162507219Y-126991966D01*
X162651966Y-126847219D01*
X162651968Y-126847215D01*
X162651971Y-126847213D01*
X162704732Y-126774590D01*
X162772287Y-126681610D01*
X162865220Y-126499219D01*
X162928477Y-126304534D01*
X162960500Y-126102352D01*
X162960500Y-125897648D01*
X162946030Y-125806287D01*
X162928477Y-125695465D01*
X162882465Y-125553856D01*
X162865220Y-125500781D01*
X162865218Y-125500778D01*
X162865218Y-125500776D01*
X162805652Y-125383873D01*
X162772287Y-125318390D01*
X162738793Y-125272289D01*
X162651971Y-125152786D01*
X162507213Y-125008028D01*
X162341613Y-124887715D01*
X162341612Y-124887714D01*
X162341610Y-124887713D01*
X162274972Y-124853759D01*
X162159223Y-124794781D01*
X161964534Y-124731522D01*
X161782467Y-124702686D01*
X161762352Y-124699500D01*
X161557648Y-124699500D01*
X161537533Y-124702686D01*
X161355465Y-124731522D01*
X161160776Y-124794781D01*
X160978386Y-124887715D01*
X160812786Y-125008028D01*
X160668028Y-125152786D01*
X160547715Y-125318386D01*
X160454781Y-125500776D01*
X160391522Y-125695465D01*
X160360237Y-125892993D01*
X160359500Y-125897648D01*
X160359500Y-126102352D01*
X160360070Y-126105953D01*
X160391522Y-126304534D01*
X160454781Y-126499223D01*
X160547715Y-126681613D01*
X160668028Y-126847213D01*
X160773846Y-126953031D01*
X160807331Y-127014354D01*
X160802347Y-127084046D01*
X160773830Y-127128410D01*
X158590273Y-129311152D01*
X158586316Y-129315108D01*
X158586267Y-129315142D01*
X158542040Y-129359368D01*
X158542037Y-129359369D01*
X158499207Y-129402184D01*
X158499145Y-129402261D01*
X158464535Y-129454058D01*
X158464524Y-129454074D01*
X158430739Y-129504616D01*
X158430693Y-129504701D01*
X158407219Y-129561374D01*
X158407211Y-129561393D01*
X158383570Y-129618438D01*
X158383536Y-129618547D01*
X158371917Y-129676964D01*
X158371913Y-129676987D01*
X158359509Y-129739282D01*
X158359500Y-129739372D01*
X158359500Y-129798227D01*
X158359487Y-129868465D01*
X158359500Y-129868728D01*
X158359500Y-138832650D01*
X158339815Y-138899689D01*
X158338602Y-138901541D01*
X158275609Y-138995815D01*
X158275602Y-138995828D01*
X158215264Y-139141498D01*
X158215261Y-139141510D01*
X158184500Y-139296153D01*
X153398500Y-139296153D01*
X153398500Y-129323477D01*
X153418185Y-129256438D01*
X153434824Y-129235791D01*
X162053512Y-120618071D01*
X162053569Y-120618021D01*
X162058730Y-120612859D01*
X162058733Y-120612858D01*
X162110258Y-120561332D01*
X162145835Y-120525760D01*
X162145846Y-120525749D01*
X162145854Y-120525736D01*
X162145858Y-120525733D01*
X162186473Y-120464949D01*
X162214295Y-120423317D01*
X162214297Y-120423310D01*
X162214305Y-120423299D01*
X162214309Y-120423287D01*
X162214311Y-120423286D01*
X162237028Y-120368443D01*
X162261453Y-120309485D01*
X162261453Y-120309482D01*
X162261459Y-120309469D01*
X162261461Y-120309454D01*
X162261463Y-120309452D01*
X162263244Y-120300498D01*
X162273387Y-120249507D01*
X162273388Y-120249501D01*
X162279277Y-120219901D01*
X162284423Y-120194035D01*
X162316810Y-120132128D01*
X162337775Y-120115298D01*
X162337668Y-120115150D01*
X162340747Y-120112912D01*
X162341269Y-120112494D01*
X162341584Y-120112300D01*
X162341610Y-120112287D01*
X162507219Y-119991966D01*
X162651966Y-119847219D01*
X162651968Y-119847215D01*
X162651971Y-119847213D01*
X162724352Y-119747587D01*
X162772287Y-119681610D01*
X162865220Y-119499219D01*
X162928477Y-119304534D01*
X162960500Y-119102352D01*
X162960500Y-118897648D01*
X162939294Y-118763760D01*
X162928477Y-118695465D01*
X162867297Y-118507174D01*
X162865220Y-118500781D01*
X162865218Y-118500778D01*
X162865218Y-118500776D01*
X162811897Y-118396129D01*
X162772287Y-118318390D01*
X162772285Y-118318387D01*
X162772284Y-118318385D01*
X162651971Y-118152786D01*
X162507213Y-118008028D01*
X162341613Y-117887715D01*
X162341612Y-117887714D01*
X162341610Y-117887713D01*
X162275967Y-117854266D01*
X162159223Y-117794781D01*
X161964534Y-117731522D01*
X161781293Y-117702500D01*
X161762352Y-117699500D01*
X161557648Y-117699500D01*
X161538707Y-117702500D01*
X161355465Y-117731522D01*
X161160776Y-117794781D01*
X160978386Y-117887715D01*
X160812786Y-118008028D01*
X160668028Y-118152786D01*
X160547715Y-118318386D01*
X160454781Y-118500776D01*
X160391522Y-118695465D01*
X160362684Y-118877547D01*
X160359500Y-118897648D01*
X160359500Y-119102352D01*
X160360668Y-119109727D01*
X160391522Y-119304534D01*
X160454781Y-119499223D01*
X160493017Y-119574264D01*
X160546798Y-119679815D01*
X160547715Y-119681613D01*
X160668028Y-119847213D01*
X160773905Y-119953090D01*
X160807390Y-120014413D01*
X160802406Y-120084105D01*
X160773900Y-120128457D01*
X152377913Y-128523498D01*
X152377914Y-128523499D01*
X152374281Y-128527132D01*
X152374267Y-128527142D01*
X152337175Y-128564233D01*
X152301781Y-128583557D01*
X152275857Y-128597713D01*
X152275854Y-128597712D01*
X152275852Y-128597714D01*
X152230175Y-128594444D01*
X152206165Y-128592727D01*
X152206163Y-128592726D01*
X152206161Y-128592726D01*
X152163857Y-128561055D01*
X152150232Y-128550855D01*
X152150231Y-128550853D01*
X152150229Y-128550852D01*
X152136361Y-128513663D01*
X152125816Y-128485391D01*
X152125500Y-128476546D01*
X152125500Y-127424499D01*
X152145185Y-127357460D01*
X152197989Y-127311705D01*
X152249500Y-127300499D01*
X152347871Y-127300499D01*
X152347872Y-127300499D01*
X152407483Y-127294091D01*
X152542331Y-127243796D01*
X152657546Y-127157546D01*
X152743796Y-127042331D01*
X152794091Y-126907483D01*
X152800500Y-126847873D01*
X152800499Y-125152128D01*
X152794091Y-125092517D01*
X152785352Y-125069087D01*
X152743797Y-124957671D01*
X152743793Y-124957664D01*
X152657547Y-124842455D01*
X152657544Y-124842452D01*
X152542335Y-124756206D01*
X152542328Y-124756202D01*
X152407482Y-124705908D01*
X152407483Y-124705908D01*
X152347883Y-124699501D01*
X152347881Y-124699500D01*
X152347873Y-124699500D01*
X152347865Y-124699500D01*
X152249500Y-124699500D01*
X152182461Y-124679815D01*
X152136706Y-124627011D01*
X152125500Y-124575500D01*
X152125500Y-120424499D01*
X152145185Y-120357460D01*
X152197989Y-120311705D01*
X152249500Y-120300499D01*
X152347871Y-120300499D01*
X152347872Y-120300499D01*
X152407483Y-120294091D01*
X152542331Y-120243796D01*
X152657546Y-120157546D01*
X152743796Y-120042331D01*
X152794091Y-119907483D01*
X152800500Y-119847873D01*
X152800499Y-118152128D01*
X152794091Y-118092517D01*
X152785896Y-118070546D01*
X152747184Y-117966754D01*
X152743796Y-117957669D01*
X152726509Y-117934577D01*
X152702093Y-117869117D01*
X152716944Y-117800844D01*
X152738099Y-117772584D01*
X157898708Y-112612874D01*
X157898733Y-112612858D01*
X157945586Y-112566004D01*
X157985073Y-112526523D01*
X157985806Y-112525808D01*
X157985852Y-112525737D01*
X157985858Y-112525733D01*
X158020521Y-112473856D01*
X158054286Y-112423334D01*
X158054288Y-112423326D01*
X158054296Y-112423316D01*
X158054304Y-112423294D01*
X158054311Y-112423286D01*
X158064167Y-112399489D01*
X158073465Y-112377045D01*
X158117306Y-112322642D01*
X158183601Y-112300578D01*
X158188025Y-112300499D01*
X158347871Y-112300499D01*
X158347872Y-112300499D01*
X158407483Y-112294091D01*
X158542331Y-112243796D01*
X158657546Y-112157546D01*
X158743796Y-112042331D01*
X158794091Y-111907483D01*
X158800500Y-111847873D01*
X158800499Y-110750000D01*
X161223391Y-110750000D01*
X162184314Y-110750000D01*
X162179920Y-110754394D01*
X162127259Y-110845606D01*
X162100000Y-110947339D01*
X162100000Y-111052661D01*
X162127259Y-111154394D01*
X162179920Y-111245606D01*
X162184314Y-111250000D01*
X161223391Y-111250000D01*
X161232009Y-111304413D01*
X161295244Y-111499029D01*
X161388140Y-111681349D01*
X161508417Y-111846894D01*
X161508417Y-111846895D01*
X161653104Y-111991582D01*
X161818650Y-112111859D01*
X162000968Y-112204754D01*
X162195578Y-112267988D01*
X162250000Y-112276607D01*
X162250000Y-111315686D01*
X162254394Y-111320080D01*
X162345606Y-111372741D01*
X162447339Y-111400000D01*
X162552661Y-111400000D01*
X162654394Y-111372741D01*
X162745606Y-111320080D01*
X162750000Y-111315686D01*
X162750000Y-112276606D01*
X162804421Y-112267988D01*
X162999031Y-112204754D01*
X163181349Y-112111859D01*
X163337329Y-111998533D01*
X163346895Y-111991582D01*
X163491582Y-111846895D01*
X163491582Y-111846894D01*
X163611859Y-111681349D01*
X163704755Y-111499029D01*
X163767990Y-111304413D01*
X163776609Y-111250000D01*
X162815686Y-111250000D01*
X162820080Y-111245606D01*
X162872741Y-111154394D01*
X162900000Y-111052661D01*
X162900000Y-110947339D01*
X162872741Y-110845606D01*
X162820080Y-110754394D01*
X162815686Y-110750000D01*
X163776609Y-110750000D01*
X163767990Y-110695586D01*
X163704755Y-110500970D01*
X163611859Y-110318650D01*
X163491582Y-110153105D01*
X163491582Y-110153104D01*
X163346895Y-110008417D01*
X163181349Y-109888140D01*
X162999029Y-109795244D01*
X162804413Y-109732009D01*
X162750000Y-109723390D01*
X162750000Y-110684314D01*
X162745606Y-110679920D01*
X162654394Y-110627259D01*
X162552661Y-110600000D01*
X162447339Y-110600000D01*
X162345606Y-110627259D01*
X162254394Y-110679920D01*
X162250000Y-110684314D01*
X162250000Y-109723390D01*
X162195586Y-109732009D01*
X162000970Y-109795244D01*
X161818650Y-109888140D01*
X161653105Y-110008417D01*
X161653104Y-110008417D01*
X161508417Y-110153104D01*
X161508417Y-110153105D01*
X161388140Y-110318650D01*
X161295244Y-110500970D01*
X161232009Y-110695586D01*
X161223391Y-110750000D01*
X158800499Y-110750000D01*
X158800499Y-110152128D01*
X158794091Y-110092517D01*
X158776217Y-110044595D01*
X158743797Y-109957671D01*
X158743793Y-109957664D01*
X158657547Y-109842455D01*
X158657544Y-109842452D01*
X158542335Y-109756206D01*
X158542328Y-109756202D01*
X158407482Y-109705908D01*
X158407483Y-109705908D01*
X158347883Y-109699501D01*
X158347881Y-109699500D01*
X158347873Y-109699500D01*
X158347864Y-109699500D01*
X156652129Y-109699500D01*
X156652123Y-109699501D01*
X156592516Y-109705908D01*
X156457671Y-109756202D01*
X156457664Y-109756206D01*
X156342455Y-109842452D01*
X156342452Y-109842455D01*
X156256206Y-109957664D01*
X156256202Y-109957671D01*
X156205908Y-110092517D01*
X156199501Y-110152116D01*
X156199501Y-110152123D01*
X156199500Y-110152135D01*
X156199500Y-111847870D01*
X156199501Y-111847876D01*
X156205908Y-111907483D01*
X156256202Y-112042328D01*
X156256206Y-112042335D01*
X156308597Y-112112319D01*
X156342454Y-112157546D01*
X156366458Y-112175515D01*
X156408328Y-112231448D01*
X156413312Y-112301140D01*
X156379827Y-112362463D01*
X156379820Y-112362470D01*
X151530257Y-117211189D01*
X151468931Y-117244669D01*
X151442583Y-117247500D01*
X151438389Y-117247500D01*
X151317555Y-117271535D01*
X151317545Y-117271538D01*
X151203716Y-117318687D01*
X151203707Y-117318692D01*
X151101267Y-117387141D01*
X151101263Y-117387144D01*
X151014144Y-117474263D01*
X151014141Y-117474267D01*
X150945692Y-117576707D01*
X150945686Y-117576719D01*
X150926534Y-117622955D01*
X150882692Y-117677357D01*
X150816398Y-117699421D01*
X150811975Y-117699500D01*
X150652130Y-117699500D01*
X150652123Y-117699501D01*
X150592516Y-117705908D01*
X150457671Y-117756202D01*
X150457664Y-117756206D01*
X150342455Y-117842452D01*
X150342452Y-117842455D01*
X150256206Y-117957664D01*
X150256202Y-117957671D01*
X150205908Y-118092517D01*
X150201827Y-118130479D01*
X150199501Y-118152123D01*
X150199500Y-118152135D01*
X150199500Y-119847870D01*
X150199501Y-119847876D01*
X150205908Y-119907483D01*
X150256202Y-120042328D01*
X150256206Y-120042335D01*
X150342452Y-120157544D01*
X150342455Y-120157547D01*
X150457664Y-120243793D01*
X150457671Y-120243797D01*
X150472981Y-120249507D01*
X150592517Y-120294091D01*
X150652127Y-120300500D01*
X150750500Y-120300499D01*
X150817538Y-120320183D01*
X150863294Y-120372986D01*
X150874500Y-120424499D01*
X150874500Y-124575500D01*
X150854815Y-124642539D01*
X150802011Y-124688294D01*
X150750501Y-124699500D01*
X150652130Y-124699500D01*
X150652123Y-124699501D01*
X150592516Y-124705908D01*
X150457671Y-124756202D01*
X150457664Y-124756206D01*
X150342455Y-124842452D01*
X150342452Y-124842455D01*
X150256206Y-124957664D01*
X150256202Y-124957671D01*
X150205908Y-125092517D01*
X150199501Y-125152116D01*
X150199501Y-125152123D01*
X150199500Y-125152135D01*
X150199500Y-126847870D01*
X150199501Y-126847876D01*
X150205909Y-126907484D01*
X150253588Y-127035321D01*
X150258572Y-127105012D01*
X150225086Y-127166335D01*
X150163763Y-127199819D01*
X150161601Y-127200270D01*
X150136504Y-127205262D01*
X150136498Y-127205264D01*
X149990827Y-127265602D01*
X149990814Y-127265609D01*
X149859711Y-127353210D01*
X149859707Y-127353213D01*
X149748213Y-127464707D01*
X149748210Y-127464711D01*
X149660609Y-127595814D01*
X149660602Y-127595827D01*
X149600264Y-127741498D01*
X149600261Y-127741508D01*
X149578141Y-127852713D01*
X149545756Y-127914624D01*
X149544205Y-127916202D01*
X146640700Y-130819709D01*
X145679269Y-131781140D01*
X145679267Y-131781142D01*
X145650686Y-131809723D01*
X145592142Y-131868266D01*
X145570604Y-131900501D01*
X145570603Y-131900502D01*
X145523690Y-131970709D01*
X145523685Y-131970718D01*
X145476540Y-132084538D01*
X145476535Y-132084554D01*
X145452534Y-132205221D01*
X145452500Y-132205393D01*
X145452500Y-134943500D01*
X145449949Y-134952185D01*
X145451238Y-134961147D01*
X145440259Y-134985187D01*
X145432815Y-135010539D01*
X145425974Y-135016466D01*
X145422213Y-135024703D01*
X145399978Y-135038992D01*
X145380011Y-135056294D01*
X145369496Y-135058581D01*
X145363435Y-135062477D01*
X145328500Y-135067500D01*
X145317500Y-135067500D01*
X145250461Y-135047815D01*
X145204706Y-134995011D01*
X145193500Y-134943500D01*
X145193500Y-125748452D01*
X145213185Y-125681413D01*
X145229814Y-125660774D01*
X145302797Y-125587791D01*
X145364118Y-125554308D01*
X145366128Y-125553889D01*
X145477497Y-125531737D01*
X145623179Y-125471394D01*
X145754289Y-125383789D01*
X145865789Y-125272289D01*
X145953394Y-125141179D01*
X146013737Y-124995497D01*
X146044500Y-124840842D01*
X146044500Y-124683158D01*
X146044500Y-124683155D01*
X146044499Y-124683153D01*
X146039794Y-124659501D01*
X146013737Y-124528503D01*
X146003937Y-124504844D01*
X145953397Y-124382827D01*
X145953390Y-124382814D01*
X145865789Y-124251711D01*
X145865786Y-124251707D01*
X145754292Y-124140213D01*
X145754288Y-124140210D01*
X145623185Y-124052609D01*
X145623172Y-124052602D01*
X145477501Y-123992264D01*
X145477489Y-123992261D01*
X145322845Y-123961500D01*
X145322842Y-123961500D01*
X145165158Y-123961500D01*
X145165155Y-123961500D01*
X145010510Y-123992261D01*
X145010498Y-123992264D01*
X144864827Y-124052602D01*
X144864814Y-124052609D01*
X144728646Y-124143595D01*
X144727500Y-124141880D01*
X144671834Y-124165512D01*
X144602969Y-124153709D01*
X144551416Y-124106548D01*
X144533500Y-124042343D01*
X144533500Y-119427350D01*
X144553185Y-119360311D01*
X144554398Y-119358459D01*
X144572373Y-119331557D01*
X144617394Y-119264179D01*
X144627611Y-119239514D01*
X144677735Y-119118501D01*
X144677737Y-119118497D01*
X144708500Y-118963842D01*
X144708500Y-118806158D01*
X144708500Y-118806155D01*
X144708499Y-118806153D01*
X144704852Y-118787817D01*
X144677737Y-118651503D01*
X144655746Y-118598412D01*
X144617397Y-118505827D01*
X144617390Y-118505814D01*
X144529789Y-118374711D01*
X144529786Y-118374707D01*
X144418292Y-118263213D01*
X144418288Y-118263210D01*
X144287185Y-118175609D01*
X144287172Y-118175602D01*
X144141501Y-118115264D01*
X144141491Y-118115261D01*
X144006308Y-118088371D01*
X143944397Y-118055986D01*
X143909823Y-117995270D01*
X143906500Y-117966754D01*
X143906500Y-109156452D01*
X143926185Y-109089413D01*
X143942819Y-109068771D01*
X144204036Y-108807555D01*
X144485858Y-108525733D01*
X144554312Y-108423285D01*
X144573465Y-108377046D01*
X144617307Y-108322642D01*
X144683601Y-108300578D01*
X144688026Y-108300499D01*
X144847871Y-108300499D01*
X144847872Y-108300499D01*
X144907483Y-108294091D01*
X145042331Y-108243796D01*
X145157546Y-108157546D01*
X145243796Y-108042331D01*
X145294091Y-107907483D01*
X145300500Y-107847873D01*
X145300499Y-106897648D01*
X152859500Y-106897648D01*
X152859500Y-107102351D01*
X152891522Y-107304534D01*
X152954781Y-107499223D01*
X153047715Y-107681613D01*
X153168028Y-107847213D01*
X153312786Y-107991971D01*
X153459251Y-108098382D01*
X153478390Y-108112287D01*
X153567212Y-108157544D01*
X153660776Y-108205218D01*
X153660778Y-108205218D01*
X153660781Y-108205220D01*
X153765137Y-108239127D01*
X153855465Y-108268477D01*
X153956557Y-108284488D01*
X154057648Y-108300500D01*
X154057649Y-108300500D01*
X154262351Y-108300500D01*
X154262352Y-108300500D01*
X154464534Y-108268477D01*
X154659219Y-108205220D01*
X154841610Y-108112287D01*
X154996160Y-108000001D01*
X155007213Y-107991971D01*
X155007215Y-107991968D01*
X155007219Y-107991966D01*
X155151966Y-107847219D01*
X155151968Y-107847215D01*
X155151971Y-107847213D01*
X155213209Y-107762924D01*
X155272287Y-107681610D01*
X155365220Y-107499219D01*
X155428477Y-107304534D01*
X155460500Y-107102352D01*
X155460500Y-106897648D01*
X155441989Y-106780778D01*
X155428477Y-106695465D01*
X155373327Y-106525733D01*
X155365220Y-106500781D01*
X155365218Y-106500778D01*
X155365218Y-106500776D01*
X155313711Y-106399690D01*
X155272287Y-106318390D01*
X155254633Y-106294091D01*
X155151971Y-106152786D01*
X155007213Y-106008028D01*
X154841613Y-105887715D01*
X154841612Y-105887714D01*
X154841610Y-105887713D01*
X154763414Y-105847870D01*
X154659223Y-105794781D01*
X154464534Y-105731522D01*
X154289995Y-105703878D01*
X154262352Y-105699500D01*
X154057648Y-105699500D01*
X154033329Y-105703351D01*
X153855465Y-105731522D01*
X153660776Y-105794781D01*
X153478386Y-105887715D01*
X153312786Y-106008028D01*
X153168028Y-106152786D01*
X153047715Y-106318386D01*
X152954781Y-106500776D01*
X152891522Y-106695465D01*
X152859500Y-106897648D01*
X145300499Y-106897648D01*
X145300499Y-106152128D01*
X145295271Y-106103493D01*
X145294091Y-106092516D01*
X145243797Y-105957671D01*
X145243793Y-105957664D01*
X145157547Y-105842455D01*
X145157544Y-105842452D01*
X145042335Y-105756206D01*
X145042328Y-105756202D01*
X144907482Y-105705908D01*
X144907483Y-105705908D01*
X144847883Y-105699501D01*
X144847881Y-105699500D01*
X144847873Y-105699500D01*
X144847864Y-105699500D01*
X143152129Y-105699500D01*
X143152123Y-105699501D01*
X143092516Y-105705908D01*
X142957671Y-105756202D01*
X142957664Y-105756206D01*
X142842455Y-105842452D01*
X142842452Y-105842455D01*
X142756206Y-105957664D01*
X142756202Y-105957671D01*
X142705908Y-106092517D01*
X142700318Y-106144517D01*
X142699501Y-106152123D01*
X142699500Y-106152135D01*
X142699500Y-107847870D01*
X142699501Y-107847876D01*
X142705908Y-107907483D01*
X142756202Y-108042328D01*
X142756206Y-108042335D01*
X142842452Y-108157544D01*
X142842455Y-108157547D01*
X142866525Y-108175566D01*
X142908396Y-108231499D01*
X142913380Y-108301191D01*
X142879896Y-108362513D01*
X142795139Y-108447270D01*
X142795138Y-108447272D01*
X142726692Y-108549705D01*
X142726684Y-108549719D01*
X142693347Y-108630207D01*
X142687823Y-108643543D01*
X142679537Y-108663545D01*
X142679537Y-108663548D01*
X142655500Y-108784389D01*
X142655500Y-118877547D01*
X142635815Y-118944586D01*
X142619181Y-118965228D01*
X135449796Y-126134612D01*
X135388473Y-126168097D01*
X135318781Y-126163113D01*
X135262848Y-126121241D01*
X135251630Y-126103226D01*
X135225397Y-126051742D01*
X135195051Y-125992184D01*
X135149276Y-125929179D01*
X135070109Y-125820213D01*
X134919786Y-125669890D01*
X134747820Y-125544951D01*
X134747115Y-125544591D01*
X134739054Y-125540485D01*
X134688259Y-125492512D01*
X134671463Y-125424692D01*
X134693999Y-125358556D01*
X134739054Y-125319515D01*
X134747816Y-125315051D01*
X134859271Y-125234075D01*
X134919786Y-125190109D01*
X134919788Y-125190106D01*
X134919792Y-125190104D01*
X135070104Y-125039792D01*
X135070106Y-125039788D01*
X135070109Y-125039786D01*
X135195048Y-124867820D01*
X135195047Y-124867820D01*
X135195051Y-124867816D01*
X135291557Y-124678412D01*
X135357246Y-124476243D01*
X135390500Y-124266287D01*
X135390500Y-124053713D01*
X135357246Y-123843757D01*
X135291557Y-123641588D01*
X135195051Y-123452184D01*
X135195049Y-123452181D01*
X135195048Y-123452179D01*
X135070109Y-123280213D01*
X134919786Y-123129890D01*
X134747820Y-123004951D01*
X134747115Y-123004591D01*
X134739054Y-123000485D01*
X134688259Y-122952512D01*
X134671463Y-122884692D01*
X134693999Y-122818556D01*
X134739054Y-122779515D01*
X134747816Y-122775051D01*
X134781608Y-122750500D01*
X134919786Y-122650109D01*
X134919788Y-122650106D01*
X134919792Y-122650104D01*
X135070104Y-122499792D01*
X135070106Y-122499788D01*
X135070109Y-122499786D01*
X135195048Y-122327820D01*
X135195050Y-122327817D01*
X135195051Y-122327816D01*
X135291557Y-122138412D01*
X135357246Y-121936243D01*
X135390500Y-121726287D01*
X135390500Y-121513713D01*
X135357246Y-121303757D01*
X135291557Y-121101588D01*
X135195051Y-120912184D01*
X135195049Y-120912181D01*
X135195048Y-120912179D01*
X135070109Y-120740213D01*
X134919786Y-120589890D01*
X134747814Y-120464947D01*
X134747812Y-120464946D01*
X134739050Y-120460481D01*
X134688256Y-120412505D01*
X134671463Y-120344683D01*
X134694003Y-120278549D01*
X134739056Y-120239514D01*
X134747816Y-120235051D01*
X134919792Y-120110104D01*
X135070104Y-119959792D01*
X135070106Y-119959788D01*
X135070109Y-119959786D01*
X135195048Y-119787820D01*
X135195047Y-119787820D01*
X135195051Y-119787816D01*
X135291557Y-119598412D01*
X135357246Y-119396243D01*
X135390500Y-119186287D01*
X135390500Y-118973713D01*
X135357246Y-118763757D01*
X135291557Y-118561588D01*
X135195051Y-118372184D01*
X135195049Y-118372181D01*
X135195048Y-118372179D01*
X135070109Y-118200213D01*
X134919786Y-118049890D01*
X134747817Y-117924949D01*
X134738504Y-117920204D01*
X134687707Y-117872230D01*
X134670912Y-117804409D01*
X134693449Y-117738274D01*
X134738507Y-117699232D01*
X134747558Y-117694620D01*
X134919459Y-117569727D01*
X134919464Y-117569723D01*
X135069723Y-117419464D01*
X135069727Y-117419459D01*
X135194620Y-117247557D01*
X135291095Y-117058217D01*
X135356757Y-116856129D01*
X135356757Y-116856126D01*
X135367231Y-116790000D01*
X134473012Y-116790000D01*
X134505925Y-116732993D01*
X134540000Y-116605826D01*
X134540000Y-116474174D01*
X134505925Y-116347007D01*
X134473012Y-116290000D01*
X135367231Y-116290000D01*
X135356757Y-116223873D01*
X135356757Y-116223870D01*
X135291095Y-116021782D01*
X135194620Y-115832442D01*
X135069727Y-115660540D01*
X135069723Y-115660535D01*
X134919464Y-115510276D01*
X134919459Y-115510272D01*
X134747555Y-115385377D01*
X134738500Y-115380763D01*
X134687706Y-115332788D01*
X134670912Y-115264966D01*
X134693451Y-115198832D01*
X134738508Y-115159793D01*
X134747816Y-115155051D01*
X134859271Y-115074075D01*
X134919786Y-115030109D01*
X134919788Y-115030106D01*
X134919792Y-115030104D01*
X135070104Y-114879792D01*
X135070106Y-114879788D01*
X135070109Y-114879786D01*
X135195048Y-114707820D01*
X135195047Y-114707820D01*
X135195051Y-114707816D01*
X135291557Y-114518412D01*
X135357246Y-114316243D01*
X135390500Y-114106287D01*
X135390500Y-113893713D01*
X135357246Y-113683757D01*
X135291557Y-113481588D01*
X135195051Y-113292184D01*
X135195049Y-113292181D01*
X135195048Y-113292179D01*
X135070109Y-113120213D01*
X134919786Y-112969890D01*
X134747820Y-112844951D01*
X134558414Y-112748444D01*
X134558413Y-112748443D01*
X134558412Y-112748443D01*
X134356243Y-112682754D01*
X134356241Y-112682753D01*
X134356240Y-112682753D01*
X134194957Y-112657208D01*
X134146287Y-112649500D01*
X133933713Y-112649500D01*
X133894202Y-112655757D01*
X133723759Y-112682753D01*
X133723755Y-112682754D01*
X133650817Y-112706453D01*
X133580976Y-112708448D01*
X133521143Y-112672367D01*
X133490316Y-112609666D01*
X133488500Y-112588522D01*
X133488500Y-108928391D01*
X133484366Y-108907613D01*
X133484366Y-108907608D01*
X133464464Y-108807555D01*
X133464463Y-108807548D01*
X133417311Y-108693714D01*
X133397155Y-108663548D01*
X133391540Y-108655145D01*
X133348859Y-108591268D01*
X133307296Y-108549705D01*
X133261733Y-108504142D01*
X133261732Y-108504141D01*
X131120104Y-106362513D01*
X131114714Y-106352643D01*
X131105953Y-106345588D01*
X131098267Y-106322522D01*
X131086619Y-106301190D01*
X131087421Y-106289971D01*
X131083866Y-106279301D01*
X131089868Y-106255747D01*
X131091603Y-106231498D01*
X131098791Y-106220735D01*
X131101121Y-106211596D01*
X131115861Y-106195180D01*
X131123258Y-106184107D01*
X131128135Y-106179562D01*
X131157546Y-106157546D01*
X131170869Y-106139748D01*
X131178970Y-106132201D01*
X131200698Y-106121314D01*
X131220159Y-106106746D01*
X131231380Y-106105943D01*
X131241438Y-106100904D01*
X131265607Y-106103493D01*
X131289851Y-106101759D01*
X131307207Y-106107951D01*
X131310910Y-106108348D01*
X131312970Y-106110007D01*
X131319792Y-106112441D01*
X131500968Y-106204755D01*
X131695578Y-106267988D01*
X131750000Y-106276607D01*
X131750000Y-105315686D01*
X131754394Y-105320080D01*
X131845606Y-105372741D01*
X131947339Y-105400000D01*
X132052661Y-105400000D01*
X132154394Y-105372741D01*
X132245606Y-105320080D01*
X132250000Y-105315686D01*
X132250000Y-106276606D01*
X132304421Y-106267988D01*
X132499031Y-106204754D01*
X132602302Y-106152135D01*
X136699500Y-106152135D01*
X136699500Y-107847870D01*
X136699501Y-107847876D01*
X136705908Y-107907483D01*
X136756202Y-108042328D01*
X136756206Y-108042335D01*
X136842452Y-108157544D01*
X136842455Y-108157547D01*
X136957664Y-108243793D01*
X136957671Y-108243797D01*
X137092517Y-108294091D01*
X137092516Y-108294091D01*
X137099444Y-108294835D01*
X137152127Y-108300500D01*
X138847872Y-108300499D01*
X138907483Y-108294091D01*
X139042331Y-108243796D01*
X139157546Y-108157546D01*
X139243796Y-108042331D01*
X139294091Y-107907483D01*
X139298140Y-107869815D01*
X139324876Y-107805268D01*
X139382268Y-107765419D01*
X139452093Y-107762924D01*
X139512183Y-107798576D01*
X139521747Y-107810187D01*
X139548417Y-107846894D01*
X139548417Y-107846895D01*
X139693104Y-107991582D01*
X139858650Y-108111859D01*
X140040968Y-108204754D01*
X140235578Y-108267988D01*
X140290000Y-108276607D01*
X140290000Y-107315686D01*
X140294394Y-107320080D01*
X140385606Y-107372741D01*
X140487339Y-107400000D01*
X140592661Y-107400000D01*
X140694394Y-107372741D01*
X140785606Y-107320080D01*
X140790000Y-107315686D01*
X140790000Y-108276606D01*
X140844421Y-108267988D01*
X141039031Y-108204754D01*
X141221349Y-108111859D01*
X141386894Y-107991582D01*
X141386895Y-107991582D01*
X141531582Y-107846895D01*
X141531582Y-107846894D01*
X141651859Y-107681349D01*
X141744755Y-107499029D01*
X141807990Y-107304413D01*
X141816609Y-107250000D01*
X140855686Y-107250000D01*
X140860080Y-107245606D01*
X140912741Y-107154394D01*
X140940000Y-107052661D01*
X140940000Y-106947339D01*
X140912741Y-106845606D01*
X140860080Y-106754394D01*
X140855686Y-106750000D01*
X141816609Y-106750000D01*
X141807990Y-106695586D01*
X141744755Y-106500970D01*
X141651859Y-106318650D01*
X141531582Y-106153105D01*
X141531582Y-106153104D01*
X141386895Y-106008417D01*
X141221349Y-105888140D01*
X141039029Y-105795244D01*
X140844413Y-105732009D01*
X140790000Y-105723390D01*
X140790000Y-106684314D01*
X140785606Y-106679920D01*
X140694394Y-106627259D01*
X140592661Y-106600000D01*
X140487339Y-106600000D01*
X140385606Y-106627259D01*
X140294394Y-106679920D01*
X140290000Y-106684314D01*
X140290000Y-105723390D01*
X140235586Y-105732009D01*
X140040970Y-105795244D01*
X139858650Y-105888140D01*
X139693105Y-106008417D01*
X139693104Y-106008417D01*
X139548414Y-106153107D01*
X139521746Y-106189813D01*
X139466415Y-106232478D01*
X139396802Y-106238456D01*
X139335007Y-106205849D01*
X139300651Y-106145010D01*
X139298139Y-106130177D01*
X139297186Y-106121314D01*
X139294091Y-106092517D01*
X139243796Y-105957669D01*
X139243795Y-105957668D01*
X139243793Y-105957664D01*
X139157547Y-105842455D01*
X139157544Y-105842452D01*
X139042335Y-105756206D01*
X139042328Y-105756202D01*
X138907482Y-105705908D01*
X138907483Y-105705908D01*
X138847883Y-105699501D01*
X138847881Y-105699500D01*
X138847873Y-105699500D01*
X138847864Y-105699500D01*
X137152129Y-105699500D01*
X137152123Y-105699501D01*
X137092516Y-105705908D01*
X136957671Y-105756202D01*
X136957664Y-105756206D01*
X136842455Y-105842452D01*
X136842452Y-105842455D01*
X136756206Y-105957664D01*
X136756202Y-105957671D01*
X136705908Y-106092517D01*
X136700318Y-106144517D01*
X136699501Y-106152123D01*
X136699500Y-106152135D01*
X132602302Y-106152135D01*
X132681349Y-106111859D01*
X132768572Y-106048488D01*
X132768573Y-106048487D01*
X132846889Y-105991587D01*
X132846895Y-105991582D01*
X132991582Y-105846895D01*
X132991582Y-105846894D01*
X133111859Y-105681349D01*
X133204755Y-105499029D01*
X133267990Y-105304413D01*
X133276609Y-105250000D01*
X132315686Y-105250000D01*
X132320080Y-105245606D01*
X132372741Y-105154394D01*
X132400000Y-105052661D01*
X132400000Y-104947339D01*
X132372741Y-104845606D01*
X132320080Y-104754394D01*
X132315686Y-104750000D01*
X133276609Y-104750000D01*
X133267990Y-104695586D01*
X133204755Y-104500970D01*
X133111859Y-104318650D01*
X132991582Y-104153105D01*
X132991582Y-104153104D01*
X132846895Y-104008417D01*
X132681349Y-103888140D01*
X132499029Y-103795244D01*
X132304413Y-103732009D01*
X132250000Y-103723390D01*
X132250000Y-104684314D01*
X132245606Y-104679920D01*
X132154394Y-104627259D01*
X132052661Y-104600000D01*
X131947339Y-104600000D01*
X131845606Y-104627259D01*
X131754394Y-104679920D01*
X131750000Y-104684314D01*
X131750000Y-103723390D01*
X131695586Y-103732009D01*
X131500967Y-103795245D01*
X131319791Y-103887558D01*
X131251122Y-103900454D01*
X131186382Y-103874177D01*
X131164234Y-103851388D01*
X131157546Y-103842454D01*
X131157542Y-103842451D01*
X131042335Y-103756206D01*
X131042328Y-103756202D01*
X130907482Y-103705908D01*
X130907483Y-103705908D01*
X130847883Y-103699501D01*
X130847881Y-103699500D01*
X130847873Y-103699500D01*
X130847864Y-103699500D01*
X129152129Y-103699500D01*
X129152123Y-103699501D01*
X129092516Y-103705908D01*
X128957671Y-103756202D01*
X128957664Y-103756206D01*
X128842455Y-103842452D01*
X128842452Y-103842455D01*
X128756206Y-103957664D01*
X128756202Y-103957671D01*
X128705908Y-104092517D01*
X128699501Y-104152116D01*
X128699500Y-104152135D01*
X128699500Y-105847870D01*
X128699501Y-105847876D01*
X128705908Y-105907483D01*
X128756202Y-106042328D01*
X128756206Y-106042335D01*
X128842452Y-106157544D01*
X128842455Y-106157547D01*
X128957664Y-106243793D01*
X128957671Y-106243797D01*
X128989711Y-106255747D01*
X129092517Y-106294091D01*
X129152127Y-106300500D01*
X129311974Y-106300499D01*
X129325317Y-106304417D01*
X129339198Y-106303524D01*
X129358180Y-106314066D01*
X129379013Y-106320183D01*
X129389371Y-106331388D01*
X129400280Y-106337447D01*
X129413744Y-106357755D01*
X129421229Y-106365852D01*
X129424160Y-106371314D01*
X129445688Y-106423286D01*
X129474757Y-106466789D01*
X129478081Y-106471765D01*
X129478084Y-106471769D01*
X129514140Y-106525731D01*
X129514141Y-106525732D01*
X129514142Y-106525733D01*
X129601267Y-106612858D01*
X129601268Y-106612858D01*
X129608335Y-106619925D01*
X129608334Y-106619925D01*
X129608338Y-106619928D01*
X132201181Y-109212771D01*
X132234666Y-109274094D01*
X132237500Y-109300452D01*
X132237500Y-112525500D01*
X132217815Y-112592539D01*
X132165011Y-112638294D01*
X132113500Y-112649500D01*
X130602129Y-112649500D01*
X130602123Y-112649501D01*
X130542516Y-112655908D01*
X130407671Y-112706202D01*
X130407664Y-112706206D01*
X130292455Y-112792452D01*
X130292452Y-112792455D01*
X130206206Y-112907664D01*
X130206202Y-112907671D01*
X130155908Y-113042517D01*
X130149501Y-113102116D01*
X130149500Y-113102135D01*
X130149500Y-114897870D01*
X130149501Y-114897876D01*
X130155908Y-114957483D01*
X130206202Y-115092328D01*
X130206206Y-115092335D01*
X130292452Y-115207544D01*
X130292455Y-115207547D01*
X130407664Y-115293793D01*
X130407671Y-115293797D01*
X130539082Y-115342810D01*
X130595016Y-115384681D01*
X130619433Y-115450145D01*
X130604582Y-115518418D01*
X130583431Y-115546673D01*
X130469889Y-115660215D01*
X130344951Y-115832179D01*
X130248444Y-116021585D01*
X130182753Y-116223760D01*
X130149500Y-116433713D01*
X130149500Y-116646286D01*
X130181428Y-116847876D01*
X130182754Y-116856243D01*
X130245799Y-117050276D01*
X130248444Y-117058414D01*
X130344951Y-117247820D01*
X130469890Y-117419786D01*
X130620213Y-117570109D01*
X130792182Y-117695050D01*
X130800946Y-117699516D01*
X130851742Y-117747491D01*
X130868536Y-117815312D01*
X130845998Y-117881447D01*
X130800946Y-117920484D01*
X130792182Y-117924949D01*
X130620213Y-118049890D01*
X130469890Y-118200213D01*
X130344951Y-118372179D01*
X130248444Y-118561585D01*
X130182753Y-118763760D01*
X130149500Y-118973713D01*
X130149500Y-119186286D01*
X130176769Y-119358459D01*
X130182754Y-119396243D01*
X130245799Y-119590276D01*
X130248444Y-119598414D01*
X130344951Y-119787820D01*
X130469890Y-119959786D01*
X130620213Y-120110109D01*
X130792179Y-120235048D01*
X130792181Y-120235049D01*
X130792184Y-120235051D01*
X130801493Y-120239794D01*
X130852290Y-120287766D01*
X130869087Y-120355587D01*
X130846552Y-120421722D01*
X130801502Y-120460762D01*
X130792443Y-120465378D01*
X130620540Y-120590272D01*
X130620535Y-120590276D01*
X130470276Y-120740535D01*
X130470272Y-120740540D01*
X130345379Y-120912442D01*
X130248904Y-121101782D01*
X130183242Y-121303870D01*
X130183242Y-121303873D01*
X130172769Y-121370000D01*
X131066988Y-121370000D01*
X131034075Y-121427007D01*
X131000000Y-121554174D01*
X131000000Y-121685826D01*
X131034075Y-121812993D01*
X131066988Y-121870000D01*
X130172769Y-121870000D01*
X130183242Y-121936126D01*
X130183242Y-121936129D01*
X130248904Y-122138217D01*
X130345379Y-122327557D01*
X130470272Y-122499459D01*
X130470276Y-122499464D01*
X130620535Y-122649723D01*
X130620540Y-122649727D01*
X130792444Y-122774622D01*
X130801495Y-122779234D01*
X130852292Y-122827208D01*
X130869087Y-122895029D01*
X130846550Y-122961164D01*
X130801499Y-123000202D01*
X130792182Y-123004949D01*
X130620213Y-123129890D01*
X130469890Y-123280213D01*
X130344951Y-123452179D01*
X130248444Y-123641585D01*
X130182753Y-123843760D01*
X130149500Y-124053713D01*
X130149500Y-124266286D01*
X130177372Y-124442267D01*
X130182754Y-124476243D01*
X130245799Y-124670276D01*
X130248444Y-124678414D01*
X130344951Y-124867820D01*
X130469890Y-125039786D01*
X130620213Y-125190109D01*
X130792182Y-125315050D01*
X130800946Y-125319516D01*
X130851742Y-125367491D01*
X130868536Y-125435312D01*
X130845998Y-125501447D01*
X130800946Y-125540484D01*
X130792182Y-125544949D01*
X130620213Y-125669890D01*
X130469890Y-125820213D01*
X130344951Y-125992179D01*
X130248444Y-126181585D01*
X130182753Y-126383760D01*
X130164466Y-126499219D01*
X130149500Y-126593713D01*
X130149500Y-126806287D01*
X130156087Y-126847873D01*
X130182454Y-127014354D01*
X130182754Y-127016243D01*
X130245799Y-127210276D01*
X130248444Y-127218414D01*
X130344951Y-127407820D01*
X130469890Y-127579786D01*
X130620213Y-127730109D01*
X130792182Y-127855050D01*
X130800946Y-127859516D01*
X130851742Y-127907491D01*
X130868536Y-127975312D01*
X130845998Y-128041447D01*
X130800946Y-128080484D01*
X130792182Y-128084949D01*
X130620213Y-128209890D01*
X130469890Y-128360213D01*
X130344951Y-128532179D01*
X130248444Y-128721585D01*
X130182753Y-128923760D01*
X130149500Y-129133713D01*
X130149500Y-129346286D01*
X130174592Y-129504714D01*
X130182754Y-129556243D01*
X130247726Y-129756206D01*
X130248444Y-129758414D01*
X130344951Y-129947820D01*
X130469890Y-130119786D01*
X130620213Y-130270109D01*
X130792182Y-130395050D01*
X130800946Y-130399516D01*
X130851742Y-130447491D01*
X130868536Y-130515312D01*
X130845998Y-130581447D01*
X130800946Y-130620484D01*
X130792182Y-130624949D01*
X130620213Y-130749890D01*
X130469890Y-130900213D01*
X130344951Y-131072179D01*
X130248444Y-131261585D01*
X130182753Y-131463760D01*
X130154112Y-131644595D01*
X130149500Y-131673713D01*
X130149500Y-131886287D01*
X130151908Y-131901489D01*
X130182753Y-132096240D01*
X130183891Y-132100978D01*
X130181662Y-132101513D01*
X130183376Y-132161899D01*
X130147284Y-132221725D01*
X130084577Y-132252541D01*
X130039267Y-132251971D01*
X130026843Y-132249500D01*
X130026842Y-132249500D01*
X129869158Y-132249500D01*
X129869155Y-132249500D01*
X129714510Y-132280261D01*
X129714498Y-132280264D01*
X129568827Y-132340602D01*
X129568814Y-132340609D01*
X129437711Y-132428210D01*
X129437707Y-132428213D01*
X129326213Y-132539707D01*
X129326210Y-132539711D01*
X129238609Y-132670814D01*
X129238602Y-132670827D01*
X129178264Y-132816498D01*
X129178261Y-132816510D01*
X129147500Y-132971153D01*
X129147500Y-133128846D01*
X129178261Y-133283489D01*
X129178264Y-133283501D01*
X129238602Y-133429172D01*
X129238609Y-133429184D01*
X129301602Y-133523459D01*
X129322480Y-133590136D01*
X129322500Y-133592350D01*
X129322500Y-137100606D01*
X129343308Y-137205220D01*
X129346537Y-137221451D01*
X129393688Y-137335286D01*
X129393689Y-137335288D01*
X129393690Y-137335289D01*
X129393690Y-137335290D01*
X129418242Y-137372034D01*
X129418247Y-137372040D01*
X129422505Y-137378412D01*
X129462142Y-137437733D01*
X129549267Y-137524858D01*
X129549270Y-137524860D01*
X129556803Y-137532393D01*
X130426452Y-138402042D01*
X130459937Y-138463365D01*
X130454953Y-138533057D01*
X130439090Y-138562607D01*
X130344950Y-138692181D01*
X130248444Y-138881585D01*
X130182753Y-139083760D01*
X130157830Y-139241117D01*
X130149500Y-139293713D01*
X130149500Y-139506287D01*
X130157130Y-139554458D01*
X130172508Y-139651557D01*
X130182754Y-139716243D01*
X130245799Y-139910276D01*
X130248444Y-139918414D01*
X130344951Y-140107820D01*
X130469890Y-140279786D01*
X130620213Y-140430109D01*
X130792182Y-140555050D01*
X130800946Y-140559516D01*
X130851742Y-140607491D01*
X130868536Y-140675312D01*
X130845998Y-140741447D01*
X130800946Y-140780484D01*
X130792182Y-140784949D01*
X130620213Y-140909890D01*
X130469890Y-141060213D01*
X130344951Y-141232179D01*
X130248444Y-141421585D01*
X130182753Y-141623760D01*
X130153405Y-141809058D01*
X130149500Y-141833713D01*
X130149500Y-142046287D01*
X130150777Y-142054350D01*
X130179687Y-142236884D01*
X130182754Y-142256243D01*
X130245799Y-142450276D01*
X130248444Y-142458414D01*
X130344951Y-142647820D01*
X130469890Y-142819786D01*
X130620213Y-142970109D01*
X130792182Y-143095050D01*
X130800946Y-143099516D01*
X130851742Y-143147491D01*
X130868536Y-143215312D01*
X130845998Y-143281447D01*
X130800946Y-143320484D01*
X130792182Y-143324949D01*
X130620213Y-143449890D01*
X130469890Y-143600213D01*
X130344951Y-143772179D01*
X130248444Y-143961585D01*
X130182753Y-144163760D01*
X130149500Y-144373713D01*
X130149500Y-144586286D01*
X130172508Y-144731557D01*
X130182754Y-144796243D01*
X130246350Y-144991971D01*
X130248444Y-144998414D01*
X130344948Y-145187815D01*
X130439089Y-145317390D01*
X130462568Y-145383197D01*
X130446742Y-145451251D01*
X130426451Y-145477956D01*
X129101269Y-146803140D01*
X129014144Y-146890264D01*
X129014138Y-146890272D01*
X128945690Y-146992708D01*
X128945689Y-146992710D01*
X128921916Y-147050105D01*
X128898539Y-147106540D01*
X128898535Y-147106555D01*
X128874500Y-147227389D01*
X128874500Y-152575500D01*
X128854815Y-152642539D01*
X128802011Y-152688294D01*
X128750501Y-152699500D01*
X128652130Y-152699500D01*
X128652123Y-152699501D01*
X128592516Y-152705908D01*
X128457671Y-152756202D01*
X128457664Y-152756206D01*
X128342455Y-152842452D01*
X128342452Y-152842455D01*
X128256206Y-152957664D01*
X128256202Y-152957671D01*
X128205908Y-153092517D01*
X128199501Y-153152116D01*
X128199500Y-153152135D01*
X120625500Y-153152135D01*
X120625500Y-149341393D01*
X120625499Y-149341389D01*
X120601463Y-149220548D01*
X120554311Y-149106714D01*
X120554310Y-149106713D01*
X120554307Y-149106707D01*
X120485858Y-149004267D01*
X120485855Y-149004263D01*
X120395637Y-148914045D01*
X120395606Y-148914016D01*
X119564793Y-148083203D01*
X119531308Y-148021880D01*
X119530887Y-148019864D01*
X119508737Y-147908503D01*
X119482240Y-147844534D01*
X119448397Y-147762827D01*
X119448390Y-147762814D01*
X119360789Y-147631711D01*
X119360786Y-147631707D01*
X119249292Y-147520213D01*
X119249288Y-147520210D01*
X119118185Y-147432609D01*
X119118172Y-147432602D01*
X118972501Y-147372264D01*
X118972489Y-147372261D01*
X118817845Y-147341500D01*
X118817842Y-147341500D01*
X118660158Y-147341500D01*
X118660155Y-147341500D01*
X118505510Y-147372261D01*
X118505498Y-147372264D01*
X118359827Y-147432602D01*
X118359814Y-147432609D01*
X118228711Y-147520210D01*
X118228707Y-147520213D01*
X118117213Y-147631707D01*
X118117210Y-147631711D01*
X118029609Y-147762814D01*
X118029602Y-147762827D01*
X117969264Y-147908498D01*
X117969261Y-147908510D01*
X117938500Y-148063153D01*
X117938500Y-148220846D01*
X117969261Y-148375489D01*
X117969264Y-148375501D01*
X118029602Y-148521172D01*
X118029609Y-148521185D01*
X118117210Y-148652288D01*
X118117213Y-148652292D01*
X118228707Y-148763786D01*
X118228711Y-148763789D01*
X118359814Y-148851390D01*
X118359827Y-148851397D01*
X118419812Y-148876243D01*
X118505503Y-148911737D01*
X118616716Y-148933858D01*
X118678623Y-148966241D01*
X118680203Y-148967793D01*
X119338181Y-149625771D01*
X119371666Y-149687094D01*
X119374500Y-149713452D01*
X119374500Y-153958252D01*
X119354815Y-154025291D01*
X119302011Y-154071046D01*
X119232853Y-154080990D01*
X119169297Y-154051965D01*
X119150183Y-154031140D01*
X119144132Y-154022812D01*
X118977186Y-153855866D01*
X118786171Y-153717085D01*
X118575802Y-153609897D01*
X118351247Y-153536934D01*
X118351248Y-153536934D01*
X118118052Y-153500000D01*
X117750000Y-153500000D01*
X117750000Y-154291759D01*
X117718767Y-154278822D01*
X117573869Y-154250000D01*
X117426131Y-154250000D01*
X117281233Y-154278822D01*
X117250000Y-154291759D01*
X117250000Y-153500000D01*
X116881948Y-153500000D01*
X116648752Y-153536934D01*
X116424197Y-153609897D01*
X116213825Y-153717087D01*
X116022819Y-153855860D01*
X116007264Y-153871415D01*
X115945940Y-153904898D01*
X115876248Y-153899912D01*
X115846700Y-153884049D01*
X115734025Y-153802187D01*
X115734024Y-153802186D01*
X115734022Y-153802185D01*
X115667908Y-153768498D01*
X115537606Y-153702104D01*
X115537603Y-153702103D01*
X115327952Y-153633985D01*
X115186504Y-153611582D01*
X115110222Y-153599500D01*
X114889778Y-153599500D01*
X114878622Y-153601267D01*
X114672047Y-153633985D01*
X114462396Y-153702103D01*
X114462393Y-153702104D01*
X114265974Y-153802187D01*
X114087641Y-153931752D01*
X114087636Y-153931756D01*
X113931758Y-154087635D01*
X113931752Y-154087641D01*
X113802185Y-154265976D01*
X113778197Y-154313055D01*
X113777524Y-154313767D01*
X113777329Y-154314727D01*
X113753590Y-154339107D01*
X113730222Y-154363851D01*
X113729045Y-154364318D01*
X113728588Y-154364788D01*
X113717760Y-154368798D01*
X113695687Y-154377562D01*
X113693785Y-154378002D01*
X113677815Y-154381179D01*
X113590548Y-154398537D01*
X113581570Y-154402256D01*
X113572093Y-154406181D01*
X113572086Y-154406183D01*
X113476717Y-154445686D01*
X113468635Y-154451087D01*
X113468632Y-154451089D01*
X113374268Y-154514140D01*
X113330705Y-154557703D01*
X113287142Y-154601267D01*
X113287139Y-154601270D01*
X112764188Y-155124222D01*
X112272229Y-155616181D01*
X112210906Y-155649666D01*
X112184548Y-155652500D01*
X111431235Y-155652500D01*
X111364196Y-155632815D01*
X111318441Y-155580011D01*
X111308497Y-155510853D01*
X111313304Y-155490182D01*
X111342890Y-155399123D01*
X111366015Y-155327951D01*
X111400500Y-155110222D01*
X111400500Y-154889778D01*
X111366015Y-154672049D01*
X111319996Y-154530414D01*
X111297896Y-154462396D01*
X111297895Y-154462393D01*
X111259626Y-154387288D01*
X111197815Y-154265978D01*
X111159926Y-154213828D01*
X111068247Y-154087641D01*
X111068242Y-154087635D01*
X110912363Y-153931756D01*
X110912358Y-153931752D01*
X110734025Y-153802187D01*
X110734024Y-153802186D01*
X110734022Y-153802185D01*
X110686943Y-153778196D01*
X110636149Y-153730223D01*
X110621623Y-153691905D01*
X110603595Y-153601267D01*
X110601463Y-153590548D01*
X110554311Y-153476714D01*
X110554308Y-153476709D01*
X110554307Y-153476707D01*
X110485858Y-153374267D01*
X110485855Y-153374263D01*
X110395637Y-153284045D01*
X110395606Y-153284016D01*
X109710866Y-152599276D01*
X109677381Y-152537953D01*
X109682365Y-152468261D01*
X109724237Y-152412328D01*
X109789701Y-152387911D01*
X109817938Y-152389121D01*
X109889778Y-152400500D01*
X109889780Y-152400500D01*
X110110221Y-152400500D01*
X110110222Y-152400500D01*
X110327951Y-152366015D01*
X110537606Y-152297895D01*
X110734022Y-152197815D01*
X110912365Y-152068242D01*
X111068242Y-151912365D01*
X111197815Y-151734022D01*
X111297895Y-151537606D01*
X111366015Y-151327951D01*
X111400500Y-151110222D01*
X111400500Y-150889778D01*
X111366015Y-150672049D01*
X111313812Y-150511383D01*
X111297896Y-150462396D01*
X111297895Y-150462393D01*
X111258223Y-150384534D01*
X111197815Y-150265978D01*
X111137057Y-150182351D01*
X111068247Y-150087641D01*
X111068243Y-150087636D01*
X110912363Y-149931756D01*
X110912358Y-149931752D01*
X110734023Y-149802185D01*
X110693204Y-149781386D01*
X110642408Y-149733411D01*
X110625500Y-149670902D01*
X110625500Y-128320055D01*
X116407469Y-128320055D01*
X116407500Y-128320684D01*
X116407500Y-141679353D01*
X116407469Y-141679989D01*
X116407497Y-141742167D01*
X116407500Y-141748397D01*
X116407500Y-141808606D01*
X116407526Y-141808741D01*
X116407527Y-141808884D01*
X116407560Y-141809054D01*
X116407561Y-141809058D01*
X116418393Y-141863388D01*
X116419616Y-141869520D01*
X116431537Y-141929452D01*
X116431590Y-141929582D01*
X116431618Y-141929718D01*
X116431682Y-141929873D01*
X116431683Y-141929876D01*
X116436345Y-141941116D01*
X116454735Y-141985459D01*
X116455028Y-141986164D01*
X116455038Y-141986218D01*
X116455049Y-141986214D01*
X116455049Y-141986215D01*
X116478689Y-142043286D01*
X116478690Y-142043287D01*
X116478817Y-142043526D01*
X116478820Y-142043532D01*
X116512916Y-142094510D01*
X116512917Y-142094511D01*
X116512947Y-142094557D01*
X116547144Y-142145736D01*
X116547311Y-142145940D01*
X116590119Y-142188710D01*
X116590159Y-142188750D01*
X116638292Y-142236884D01*
X116638758Y-142237306D01*
X117273695Y-142871680D01*
X117307207Y-142932987D01*
X117302254Y-143002681D01*
X117273735Y-143047080D01*
X117168027Y-143152788D01*
X117047715Y-143318386D01*
X116954781Y-143500776D01*
X116891522Y-143695465D01*
X116859500Y-143897648D01*
X116859500Y-144102351D01*
X116891522Y-144304534D01*
X116954781Y-144499223D01*
X116999143Y-144586286D01*
X117023988Y-144635048D01*
X117047715Y-144681613D01*
X117168028Y-144847213D01*
X117312786Y-144991971D01*
X117467749Y-145104556D01*
X117478390Y-145112287D01*
X117563644Y-145155726D01*
X117660776Y-145205218D01*
X117660778Y-145205218D01*
X117660781Y-145205220D01*
X117687742Y-145213980D01*
X117855465Y-145268477D01*
X117956557Y-145284488D01*
X118057648Y-145300500D01*
X118057649Y-145300500D01*
X118262351Y-145300500D01*
X118262352Y-145300500D01*
X118464534Y-145268477D01*
X118659219Y-145205220D01*
X118841610Y-145112287D01*
X118934590Y-145044732D01*
X119007213Y-144991971D01*
X119007215Y-144991968D01*
X119007219Y-144991966D01*
X119151966Y-144847219D01*
X119151968Y-144847215D01*
X119151971Y-144847213D01*
X119222599Y-144750000D01*
X119272287Y-144681610D01*
X119365220Y-144499219D01*
X119428477Y-144304534D01*
X119460500Y-144102352D01*
X119460500Y-143897648D01*
X119449152Y-143825998D01*
X119428477Y-143695465D01*
X119389788Y-143576394D01*
X119365220Y-143500781D01*
X119365218Y-143500778D01*
X119365218Y-143500776D01*
X119321091Y-143414174D01*
X119272287Y-143318390D01*
X119238955Y-143272512D01*
X119151971Y-143152786D01*
X119007213Y-143008028D01*
X118841611Y-142887713D01*
X118841265Y-142887501D01*
X118841161Y-142887386D01*
X118837669Y-142884849D01*
X118838202Y-142884115D01*
X118819120Y-142863020D01*
X118796215Y-142839304D01*
X118795284Y-142836668D01*
X118794394Y-142835685D01*
X118784458Y-142806026D01*
X118777762Y-142772442D01*
X118773394Y-142750534D01*
X118773399Y-142750475D01*
X118773383Y-142750479D01*
X118761463Y-142690548D01*
X118761461Y-142690544D01*
X118761384Y-142690287D01*
X118737915Y-142633698D01*
X118737915Y-142633697D01*
X118737893Y-142633647D01*
X118724042Y-142600208D01*
X118714311Y-142576714D01*
X118714233Y-142576598D01*
X118714180Y-142576469D01*
X118680430Y-142526007D01*
X118645858Y-142474267D01*
X118645857Y-142474266D01*
X118645685Y-142474056D01*
X118602840Y-142431249D01*
X118558733Y-142387142D01*
X118558614Y-142387063D01*
X118452904Y-142281447D01*
X117694858Y-141524071D01*
X117661345Y-141462763D01*
X117658500Y-141436351D01*
X117658500Y-141375150D01*
X117678185Y-141308111D01*
X117730989Y-141262356D01*
X117800147Y-141252412D01*
X117820820Y-141257220D01*
X117855458Y-141268475D01*
X117855461Y-141268475D01*
X117855466Y-141268477D01*
X118057648Y-141300500D01*
X118057649Y-141300500D01*
X118262351Y-141300500D01*
X118262352Y-141300500D01*
X118464534Y-141268477D01*
X118659219Y-141205220D01*
X118841610Y-141112287D01*
X118950907Y-141032879D01*
X119007213Y-140991971D01*
X119007215Y-140991968D01*
X119007219Y-140991966D01*
X119151966Y-140847219D01*
X119151968Y-140847215D01*
X119151971Y-140847213D01*
X119218089Y-140756208D01*
X119272287Y-140681610D01*
X119365220Y-140499219D01*
X119428477Y-140304534D01*
X119460500Y-140102352D01*
X119460500Y-139897648D01*
X119437775Y-139754172D01*
X119428477Y-139695465D01*
X119384304Y-139559516D01*
X119365220Y-139500781D01*
X119365218Y-139500778D01*
X119365218Y-139500776D01*
X119329014Y-139429723D01*
X119272287Y-139318390D01*
X119256135Y-139296158D01*
X119151971Y-139152786D01*
X119046068Y-139046883D01*
X119012583Y-138985560D01*
X119017567Y-138915868D01*
X119046068Y-138871521D01*
X120571573Y-137346016D01*
X122121729Y-135795860D01*
X122121733Y-135795858D01*
X122208858Y-135708733D01*
X122277311Y-135606286D01*
X122277312Y-135606285D01*
X122309265Y-135529142D01*
X122324463Y-135492452D01*
X122331676Y-135456183D01*
X122346405Y-135382141D01*
X122346405Y-135382136D01*
X122348500Y-135371607D01*
X122348500Y-135248393D01*
X122348500Y-123868350D01*
X122368185Y-123801311D01*
X122369398Y-123799459D01*
X122416969Y-123728264D01*
X122432394Y-123705179D01*
X122492737Y-123559497D01*
X122523500Y-123404842D01*
X122523500Y-123247158D01*
X122523500Y-123247155D01*
X122523499Y-123247153D01*
X122500175Y-123129896D01*
X122492737Y-123092503D01*
X122456472Y-123004951D01*
X122432397Y-122946827D01*
X122432390Y-122946814D01*
X122344789Y-122815711D01*
X122344786Y-122815707D01*
X122233292Y-122704213D01*
X122233288Y-122704210D01*
X122102185Y-122616609D01*
X122102172Y-122616602D01*
X121956501Y-122556264D01*
X121956489Y-122556261D01*
X121801845Y-122525500D01*
X121801842Y-122525500D01*
X121644158Y-122525500D01*
X121644155Y-122525500D01*
X121489510Y-122556261D01*
X121489498Y-122556264D01*
X121343827Y-122616602D01*
X121343814Y-122616609D01*
X121212711Y-122704210D01*
X121212707Y-122704213D01*
X121101213Y-122815707D01*
X121101210Y-122815711D01*
X121013609Y-122946814D01*
X121013602Y-122946827D01*
X120953264Y-123092498D01*
X120953261Y-123092510D01*
X120922500Y-123247153D01*
X120922500Y-123404846D01*
X120953261Y-123559489D01*
X120953264Y-123559501D01*
X121013602Y-123705172D01*
X121013609Y-123705184D01*
X121076602Y-123799459D01*
X121097480Y-123866136D01*
X121097500Y-123868350D01*
X121097500Y-134999547D01*
X121077815Y-135066586D01*
X121061181Y-135087228D01*
X119593761Y-136554647D01*
X119532438Y-136588132D01*
X119462746Y-136583148D01*
X119406813Y-136541276D01*
X119382396Y-136475812D01*
X119388148Y-136428653D01*
X119428477Y-136304534D01*
X119460500Y-136102352D01*
X119460500Y-135897648D01*
X119457167Y-135876604D01*
X119428477Y-135695465D01*
X119390111Y-135577389D01*
X119365220Y-135500781D01*
X119365218Y-135500778D01*
X119365218Y-135500776D01*
X119304770Y-135382142D01*
X119272287Y-135318390D01*
X119211836Y-135235185D01*
X119151971Y-135152786D01*
X119046265Y-135047080D01*
X119012780Y-134985757D01*
X119017764Y-134916065D01*
X119046302Y-134871680D01*
X119685614Y-134232936D01*
X119685733Y-134232858D01*
X119730091Y-134188500D01*
X119772680Y-134145949D01*
X119772685Y-134145941D01*
X119772846Y-134145744D01*
X119772858Y-134145733D01*
X119807430Y-134093992D01*
X119841180Y-134043531D01*
X119841183Y-134043521D01*
X119841308Y-134043291D01*
X119841308Y-134043289D01*
X119841311Y-134043286D01*
X119864915Y-133986299D01*
X119888382Y-133929718D01*
X119888383Y-133929711D01*
X119888461Y-133929457D01*
X119888461Y-133929456D01*
X119888463Y-133929452D01*
X119900383Y-133869520D01*
X119900383Y-133869519D01*
X119900394Y-133869521D01*
X119900394Y-133869464D01*
X119912473Y-133808884D01*
X119912473Y-133808741D01*
X119912500Y-133808606D01*
X119912500Y-133748397D01*
X119912528Y-133685671D01*
X119912527Y-133685668D01*
X119912530Y-133679989D01*
X119912500Y-133679353D01*
X119912500Y-124968350D01*
X119932185Y-124901311D01*
X119933398Y-124899459D01*
X119951184Y-124872840D01*
X119996394Y-124805179D01*
X120056737Y-124659497D01*
X120087500Y-124504842D01*
X120087500Y-124347158D01*
X120087500Y-124347155D01*
X120087499Y-124347153D01*
X120077805Y-124298417D01*
X120056737Y-124192503D01*
X120055587Y-124189727D01*
X119996397Y-124046828D01*
X119996396Y-124046827D01*
X119996394Y-124046821D01*
X119933397Y-123952539D01*
X119912520Y-123885863D01*
X119912500Y-123883650D01*
X119912500Y-118314470D01*
X119912528Y-118314329D01*
X119912500Y-118251602D01*
X119912500Y-118191394D01*
X119912498Y-118191386D01*
X119912473Y-118191134D01*
X119912473Y-118191116D01*
X119900394Y-118130534D01*
X119900399Y-118130475D01*
X119900383Y-118130479D01*
X119888463Y-118070548D01*
X119888461Y-118070544D01*
X119888384Y-118070287D01*
X119864915Y-118013698D01*
X119864915Y-118013697D01*
X119864893Y-118013647D01*
X119848352Y-117973713D01*
X119841311Y-117956714D01*
X119841233Y-117956598D01*
X119841180Y-117956469D01*
X119807430Y-117906007D01*
X119794734Y-117887007D01*
X119784861Y-117872230D01*
X119772858Y-117854267D01*
X119772857Y-117854266D01*
X119772685Y-117854056D01*
X119729840Y-117811249D01*
X119685733Y-117767142D01*
X119685614Y-117767063D01*
X119444070Y-117525733D01*
X119046305Y-117128320D01*
X119012792Y-117067012D01*
X119017746Y-116997318D01*
X119046266Y-116952919D01*
X119091703Y-116907482D01*
X119151966Y-116847219D01*
X119151968Y-116847215D01*
X119151971Y-116847213D01*
X119224422Y-116747491D01*
X119272287Y-116681610D01*
X119365220Y-116499219D01*
X119428477Y-116304534D01*
X119460500Y-116102352D01*
X119460500Y-115897648D01*
X119428477Y-115695466D01*
X119412497Y-115646286D01*
X119380131Y-115546673D01*
X119365220Y-115500781D01*
X119365218Y-115500778D01*
X119365218Y-115500776D01*
X119317189Y-115406515D01*
X119272287Y-115318390D01*
X119254419Y-115293796D01*
X119151971Y-115152786D01*
X119007213Y-115008028D01*
X118841613Y-114887715D01*
X118841612Y-114887714D01*
X118841610Y-114887713D01*
X118752961Y-114842544D01*
X118659223Y-114794781D01*
X118464534Y-114731522D01*
X118289995Y-114703878D01*
X118262352Y-114699500D01*
X118057648Y-114699500D01*
X118033329Y-114703351D01*
X117855465Y-114731522D01*
X117660776Y-114794781D01*
X117478386Y-114887715D01*
X117312786Y-115008028D01*
X117168028Y-115152786D01*
X117047715Y-115318386D01*
X116954781Y-115500776D01*
X116891522Y-115695465D01*
X116859500Y-115897648D01*
X116859500Y-116102351D01*
X116891522Y-116304534D01*
X116954781Y-116499223D01*
X117006876Y-116601463D01*
X117039759Y-116666000D01*
X117047715Y-116681613D01*
X117168028Y-116847213D01*
X117168034Y-116847219D01*
X117312781Y-116991966D01*
X117478390Y-117112287D01*
X117478395Y-117112290D01*
X117478721Y-117112489D01*
X117478820Y-117112598D01*
X117482332Y-117115150D01*
X117481796Y-117115887D01*
X117500865Y-117136963D01*
X117523785Y-117160696D01*
X117524711Y-117163319D01*
X117525598Y-117164299D01*
X117535542Y-117193974D01*
X117546616Y-117249519D01*
X117546615Y-117249525D01*
X117546624Y-117249564D01*
X117558537Y-117309452D01*
X117558540Y-117309465D01*
X117558613Y-117309707D01*
X117571376Y-117340481D01*
X117582251Y-117366702D01*
X117605689Y-117423286D01*
X117605765Y-117423400D01*
X117605820Y-117423532D01*
X117605842Y-117423565D01*
X117605843Y-117423567D01*
X117639725Y-117474224D01*
X117639719Y-117474227D01*
X117639754Y-117474267D01*
X117673631Y-117524969D01*
X117674146Y-117525739D01*
X117674311Y-117525940D01*
X117717119Y-117568710D01*
X117717159Y-117568750D01*
X117765292Y-117616884D01*
X117765758Y-117617306D01*
X118566318Y-118417155D01*
X118625142Y-118475926D01*
X118658654Y-118537234D01*
X118661500Y-118563646D01*
X118661500Y-119624849D01*
X118641815Y-119691888D01*
X118589011Y-119737643D01*
X118519853Y-119747587D01*
X118499182Y-119742780D01*
X118464537Y-119731523D01*
X118302810Y-119705908D01*
X118262352Y-119699500D01*
X118057648Y-119699500D01*
X118033329Y-119703351D01*
X117855465Y-119731522D01*
X117660776Y-119794781D01*
X117478386Y-119887715D01*
X117312786Y-120008028D01*
X117168028Y-120152786D01*
X117047715Y-120318386D01*
X116954781Y-120500776D01*
X116891522Y-120695465D01*
X116859500Y-120897648D01*
X116859500Y-121102351D01*
X116891522Y-121304534D01*
X116954781Y-121499223D01*
X117006876Y-121601463D01*
X117031662Y-121650109D01*
X117047715Y-121681613D01*
X117168028Y-121847213D01*
X117312786Y-121991971D01*
X117467749Y-122104556D01*
X117478390Y-122112287D01*
X117567210Y-122157543D01*
X117660776Y-122205218D01*
X117660778Y-122205218D01*
X117660781Y-122205220D01*
X117765137Y-122239127D01*
X117855465Y-122268477D01*
X117956557Y-122284488D01*
X118057648Y-122300500D01*
X118057649Y-122300500D01*
X118262351Y-122300500D01*
X118262352Y-122300500D01*
X118464534Y-122268477D01*
X118464539Y-122268475D01*
X118464541Y-122268475D01*
X118499180Y-122257220D01*
X118569021Y-122255223D01*
X118628854Y-122291303D01*
X118659683Y-122354003D01*
X118661500Y-122375150D01*
X118661500Y-123883650D01*
X118641815Y-123950689D01*
X118640626Y-123952503D01*
X118619802Y-123983668D01*
X118577609Y-124046815D01*
X118577602Y-124046828D01*
X118517264Y-124192498D01*
X118517261Y-124192510D01*
X118486500Y-124347153D01*
X118486500Y-124347158D01*
X118486500Y-124504842D01*
X118486501Y-124504846D01*
X118499061Y-124567993D01*
X118492832Y-124637584D01*
X118449969Y-124692761D01*
X118384079Y-124716005D01*
X118358046Y-124714656D01*
X118262352Y-124699500D01*
X118057648Y-124699500D01*
X118037533Y-124702686D01*
X117855465Y-124731522D01*
X117660776Y-124794781D01*
X117478386Y-124887715D01*
X117312786Y-125008028D01*
X117168028Y-125152786D01*
X117047715Y-125318386D01*
X116954781Y-125500776D01*
X116891522Y-125695465D01*
X116860237Y-125892993D01*
X116859500Y-125897648D01*
X116859500Y-126102352D01*
X116860070Y-126105953D01*
X116891522Y-126304534D01*
X116954781Y-126499223D01*
X117047715Y-126681613D01*
X117168028Y-126847213D01*
X117273733Y-126952918D01*
X117307218Y-127014241D01*
X117302234Y-127083933D01*
X117273694Y-127128319D01*
X116638628Y-127762822D01*
X116634382Y-127767063D01*
X116634267Y-127767142D01*
X116590156Y-127811251D01*
X116590156Y-127811252D01*
X116590119Y-127811289D01*
X116547308Y-127854062D01*
X116547151Y-127854253D01*
X116537719Y-127868369D01*
X116512916Y-127905489D01*
X116495784Y-127931103D01*
X116478818Y-127956470D01*
X116478695Y-127956699D01*
X116455251Y-128013297D01*
X116443580Y-128041440D01*
X116431613Y-128070295D01*
X116431539Y-128070534D01*
X116419626Y-128130426D01*
X116419616Y-128130479D01*
X116407525Y-128191125D01*
X116407500Y-128191370D01*
X116407500Y-128251658D01*
X116407469Y-128320055D01*
X110625500Y-128320055D01*
X110625500Y-124065389D01*
X110623706Y-124056375D01*
X110623705Y-124056371D01*
X110622956Y-124052606D01*
X110602846Y-123951501D01*
X110601463Y-123944548D01*
X110584549Y-123903714D01*
X110577155Y-123885863D01*
X110554314Y-123830718D01*
X110554312Y-123830715D01*
X110554312Y-123830714D01*
X110517418Y-123775500D01*
X110485858Y-123728267D01*
X110485856Y-123728264D01*
X110395637Y-123638045D01*
X110395606Y-123638016D01*
X109120103Y-122362513D01*
X109086618Y-122301190D01*
X109091602Y-122231498D01*
X109133471Y-122175567D01*
X109157546Y-122157546D01*
X109243796Y-122042331D01*
X109294091Y-121907483D01*
X109300500Y-121847873D01*
X109300499Y-120152128D01*
X109294091Y-120092517D01*
X109286099Y-120071090D01*
X109243797Y-119957671D01*
X109243793Y-119957664D01*
X109157547Y-119842455D01*
X109157544Y-119842452D01*
X109042335Y-119756206D01*
X109042328Y-119756202D01*
X108907482Y-119705908D01*
X108907483Y-119705908D01*
X108847883Y-119699501D01*
X108847881Y-119699500D01*
X108847873Y-119699500D01*
X108847865Y-119699500D01*
X107508816Y-119699500D01*
X107501201Y-119697264D01*
X107493367Y-119698534D01*
X107468152Y-119687559D01*
X107441777Y-119679815D01*
X107434948Y-119673108D01*
X107429303Y-119670651D01*
X107405716Y-119644395D01*
X107385838Y-119614646D01*
X107358858Y-119574267D01*
X107358856Y-119574264D01*
X107268637Y-119484045D01*
X107268606Y-119484016D01*
X104258602Y-116474012D01*
X104225117Y-116412689D01*
X104223810Y-116366933D01*
X104250500Y-116198422D01*
X104250500Y-116001577D01*
X104219709Y-115807173D01*
X104171959Y-115660215D01*
X104158884Y-115619975D01*
X104158882Y-115619972D01*
X104158882Y-115619970D01*
X104084595Y-115474174D01*
X104069524Y-115444595D01*
X103953828Y-115285354D01*
X103814646Y-115146172D01*
X103655405Y-115030476D01*
X103637961Y-115021588D01*
X103480029Y-114941117D01*
X103292826Y-114880290D01*
X103243466Y-114872473D01*
X103180331Y-114842544D01*
X103143400Y-114783232D01*
X103144398Y-114713370D01*
X103183008Y-114655137D01*
X103243466Y-114627527D01*
X103292826Y-114619709D01*
X103480025Y-114558884D01*
X103655405Y-114469524D01*
X103814646Y-114353828D01*
X103953828Y-114214646D01*
X103973368Y-114187751D01*
X104028695Y-114145086D01*
X104098309Y-114139106D01*
X104160104Y-114171711D01*
X104161366Y-114172956D01*
X106384016Y-116395606D01*
X106384045Y-116395637D01*
X106474263Y-116485855D01*
X106474267Y-116485858D01*
X106576707Y-116554307D01*
X106576716Y-116554312D01*
X106622953Y-116573464D01*
X106677356Y-116617305D01*
X106699421Y-116683599D01*
X106699500Y-116688024D01*
X106699500Y-116847869D01*
X106699501Y-116847876D01*
X106705908Y-116907483D01*
X106756202Y-117042328D01*
X106756206Y-117042335D01*
X106842452Y-117157544D01*
X106842455Y-117157547D01*
X106957664Y-117243793D01*
X106957671Y-117243797D01*
X107092517Y-117294091D01*
X107092516Y-117294091D01*
X107099444Y-117294835D01*
X107152127Y-117300500D01*
X108847872Y-117300499D01*
X108907483Y-117294091D01*
X109042331Y-117243796D01*
X109157546Y-117157546D01*
X109243796Y-117042331D01*
X109294091Y-116907483D01*
X109300500Y-116847873D01*
X109300499Y-115152128D01*
X109294091Y-115092517D01*
X109274503Y-115040000D01*
X109243797Y-114957671D01*
X109243793Y-114957664D01*
X109157547Y-114842455D01*
X109157544Y-114842452D01*
X109042335Y-114756206D01*
X109042328Y-114756202D01*
X108907482Y-114705908D01*
X108907483Y-114705908D01*
X108847883Y-114699501D01*
X108847881Y-114699500D01*
X108847873Y-114699500D01*
X108847864Y-114699500D01*
X107152129Y-114699500D01*
X107152123Y-114699501D01*
X107092516Y-114705908D01*
X106957671Y-114756202D01*
X106957664Y-114756206D01*
X106842455Y-114842452D01*
X106824433Y-114866527D01*
X106768499Y-114908397D01*
X106698807Y-114913381D01*
X106637486Y-114879896D01*
X104766150Y-113008560D01*
X104758860Y-113001270D01*
X104758858Y-113001267D01*
X104671733Y-112914142D01*
X104620509Y-112879915D01*
X104569286Y-112845688D01*
X104569283Y-112845686D01*
X104569280Y-112845685D01*
X104495603Y-112815168D01*
X104495601Y-112815167D01*
X104488792Y-112812347D01*
X104455452Y-112798537D01*
X104395029Y-112786518D01*
X104390306Y-112785578D01*
X104390304Y-112785578D01*
X104334610Y-112774500D01*
X104334607Y-112774500D01*
X104334606Y-112774500D01*
X104154433Y-112774500D01*
X104087394Y-112754815D01*
X104054115Y-112723386D01*
X103992291Y-112638294D01*
X103953828Y-112585354D01*
X103814646Y-112446172D01*
X103655405Y-112330476D01*
X103614143Y-112309452D01*
X103480029Y-112241117D01*
X103292826Y-112180290D01*
X103243466Y-112172473D01*
X103180331Y-112142544D01*
X103143400Y-112083232D01*
X103144398Y-112013370D01*
X103183008Y-111955137D01*
X103243466Y-111927527D01*
X103292826Y-111919709D01*
X103329130Y-111907913D01*
X103480025Y-111858884D01*
X103655405Y-111769524D01*
X103814646Y-111653828D01*
X103953828Y-111514646D01*
X104054115Y-111376614D01*
X104109446Y-111333949D01*
X104154433Y-111325500D01*
X105034607Y-111325500D01*
X105095029Y-111313481D01*
X105155452Y-111301463D01*
X105188792Y-111287652D01*
X105269286Y-111254312D01*
X105320509Y-111220084D01*
X105371733Y-111185858D01*
X105458858Y-111098733D01*
X105458859Y-111098731D01*
X105465925Y-111091665D01*
X105465928Y-111091661D01*
X106807589Y-109750000D01*
X113520898Y-109750000D01*
X114566988Y-109750000D01*
X114534075Y-109807007D01*
X114500000Y-109934174D01*
X114500000Y-110065826D01*
X114534075Y-110192993D01*
X114566988Y-110250000D01*
X113520898Y-110250000D01*
X113536934Y-110351247D01*
X113609897Y-110575802D01*
X113717085Y-110786171D01*
X113855866Y-110977186D01*
X114022813Y-111144133D01*
X114213828Y-111282914D01*
X114424195Y-111390102D01*
X114648744Y-111463063D01*
X114648750Y-111463065D01*
X114750000Y-111479101D01*
X114750000Y-110433012D01*
X114807007Y-110465925D01*
X114934174Y-110500000D01*
X115065826Y-110500000D01*
X115192993Y-110465925D01*
X115250000Y-110433012D01*
X115250000Y-111479100D01*
X115351249Y-111463065D01*
X115351255Y-111463063D01*
X115575804Y-111390102D01*
X115786171Y-111282914D01*
X115977186Y-111144133D01*
X116144133Y-110977186D01*
X116282914Y-110786171D01*
X116390102Y-110575802D01*
X116463065Y-110351247D01*
X116479102Y-110250000D01*
X115433012Y-110250000D01*
X115465925Y-110192993D01*
X115500000Y-110065826D01*
X115500000Y-109934174D01*
X115465925Y-109807007D01*
X115433012Y-109750000D01*
X116479102Y-109750000D01*
X116463065Y-109648752D01*
X116390102Y-109424197D01*
X116282914Y-109213828D01*
X116144133Y-109022813D01*
X115977186Y-108855866D01*
X115786171Y-108717085D01*
X115575802Y-108609897D01*
X115351247Y-108536934D01*
X115250000Y-108520897D01*
X115250000Y-109566988D01*
X115192993Y-109534075D01*
X115065826Y-109500000D01*
X114934174Y-109500000D01*
X114807007Y-109534075D01*
X114750000Y-109566988D01*
X114750000Y-108520897D01*
X114648752Y-108536934D01*
X114424197Y-108609897D01*
X114213828Y-108717085D01*
X114022813Y-108855866D01*
X113855866Y-109022813D01*
X113717085Y-109213828D01*
X113609897Y-109424197D01*
X113536934Y-109648752D01*
X113520898Y-109750000D01*
X106807589Y-109750000D01*
X110354316Y-106203272D01*
X110415637Y-106169789D01*
X110485329Y-106174773D01*
X110541262Y-106216645D01*
X110551247Y-106234931D01*
X110551953Y-106234546D01*
X110556206Y-106242335D01*
X110642452Y-106357544D01*
X110642455Y-106357547D01*
X110757664Y-106443793D01*
X110757671Y-106443797D01*
X110892517Y-106494091D01*
X110892516Y-106494091D01*
X110899444Y-106494835D01*
X110952127Y-106500500D01*
X113047872Y-106500499D01*
X113107483Y-106494091D01*
X113242331Y-106443796D01*
X113357546Y-106357546D01*
X113443796Y-106242331D01*
X113494091Y-106107483D01*
X113500500Y-106047873D01*
X113500499Y-104881902D01*
X116499500Y-104881902D01*
X116499500Y-105118097D01*
X116536446Y-105351368D01*
X116609433Y-105575996D01*
X116716657Y-105786433D01*
X116855483Y-105977510D01*
X117022490Y-106144517D01*
X117213567Y-106283343D01*
X117282343Y-106318386D01*
X117424003Y-106390566D01*
X117424005Y-106390566D01*
X117424008Y-106390568D01*
X117544412Y-106429689D01*
X117648631Y-106463553D01*
X117881903Y-106500500D01*
X117881908Y-106500500D01*
X118118097Y-106500500D01*
X118351368Y-106463553D01*
X118575992Y-106390568D01*
X118786433Y-106283343D01*
X118977510Y-106144517D01*
X119144517Y-105977510D01*
X119283343Y-105786433D01*
X119390568Y-105575992D01*
X119463553Y-105351368D01*
X119500500Y-105118097D01*
X119500500Y-104881902D01*
X119463553Y-104648631D01*
X119419854Y-104514140D01*
X119390568Y-104424008D01*
X119390566Y-104424005D01*
X119390566Y-104424003D01*
X119283342Y-104213566D01*
X119257910Y-104178562D01*
X119144517Y-104022490D01*
X118977510Y-103855483D01*
X118786433Y-103716657D01*
X118765337Y-103705908D01*
X118575996Y-103609433D01*
X118351368Y-103536446D01*
X118118097Y-103499500D01*
X118118092Y-103499500D01*
X117881908Y-103499500D01*
X117881903Y-103499500D01*
X117648631Y-103536446D01*
X117424003Y-103609433D01*
X117213566Y-103716657D01*
X117157119Y-103757669D01*
X117022490Y-103855483D01*
X117022488Y-103855485D01*
X117022487Y-103855485D01*
X116855485Y-104022487D01*
X116855485Y-104022488D01*
X116855483Y-104022490D01*
X116804605Y-104092517D01*
X116716657Y-104213566D01*
X116609433Y-104424003D01*
X116536446Y-104648631D01*
X116499500Y-104881902D01*
X113500499Y-104881902D01*
X113500499Y-103952128D01*
X113494091Y-103892517D01*
X113492458Y-103888140D01*
X113443797Y-103757671D01*
X113443793Y-103757664D01*
X113357547Y-103642455D01*
X113357544Y-103642452D01*
X113242335Y-103556206D01*
X113242328Y-103556202D01*
X113107482Y-103505908D01*
X113107483Y-103505908D01*
X113047883Y-103499501D01*
X113047881Y-103499500D01*
X113047873Y-103499500D01*
X113047864Y-103499500D01*
X110952129Y-103499500D01*
X110952123Y-103499501D01*
X110892516Y-103505908D01*
X110757671Y-103556202D01*
X110757664Y-103556206D01*
X110642455Y-103642452D01*
X110642452Y-103642455D01*
X110556206Y-103757664D01*
X110556202Y-103757671D01*
X110505908Y-103892517D01*
X110499501Y-103952116D01*
X110499501Y-103952123D01*
X110499500Y-103952135D01*
X110499500Y-104311974D01*
X110479815Y-104379013D01*
X110427011Y-104424768D01*
X110422955Y-104426534D01*
X110376719Y-104445686D01*
X110376707Y-104445692D01*
X110274268Y-104514140D01*
X110230705Y-104557703D01*
X110187142Y-104601267D01*
X110187139Y-104601270D01*
X107468330Y-107320080D01*
X104750229Y-110038181D01*
X104688906Y-110071666D01*
X104662548Y-110074500D01*
X104154433Y-110074500D01*
X104087394Y-110054815D01*
X104054115Y-110023386D01*
X104006368Y-109957669D01*
X103953828Y-109885354D01*
X103814646Y-109746172D01*
X103655405Y-109630476D01*
X103595398Y-109599901D01*
X103480029Y-109541117D01*
X103292827Y-109480291D01*
X103241866Y-109472219D01*
X103178731Y-109442289D01*
X103141801Y-109382977D01*
X103142799Y-109313114D01*
X103181410Y-109254882D01*
X103241869Y-109227272D01*
X103292710Y-109219220D01*
X103479835Y-109158418D01*
X103655143Y-109069095D01*
X103690125Y-109043678D01*
X103690126Y-109043678D01*
X103000001Y-108353553D01*
X103000000Y-108353553D01*
X102309873Y-109043677D01*
X102309873Y-109043678D01*
X102344858Y-109069096D01*
X102520164Y-109158418D01*
X102707288Y-109219219D01*
X102758131Y-109227272D01*
X102821266Y-109257201D01*
X102858198Y-109316512D01*
X102857201Y-109386375D01*
X102818591Y-109444608D01*
X102758134Y-109472219D01*
X102707171Y-109480291D01*
X102519970Y-109541117D01*
X102344594Y-109630476D01*
X102319440Y-109648752D01*
X102185354Y-109746172D01*
X102185352Y-109746174D01*
X102185351Y-109746174D01*
X102046174Y-109885351D01*
X102046174Y-109885352D01*
X102046172Y-109885354D01*
X102044148Y-109888140D01*
X101930476Y-110044594D01*
X101841117Y-110219970D01*
X101780290Y-110407173D01*
X101749500Y-110601577D01*
X101749500Y-110798422D01*
X101780290Y-110992826D01*
X101841117Y-111180029D01*
X101912477Y-111320080D01*
X101930476Y-111355405D01*
X102046172Y-111514646D01*
X102185354Y-111653828D01*
X102344595Y-111769524D01*
X102390295Y-111792809D01*
X102519970Y-111858882D01*
X102519972Y-111858882D01*
X102519975Y-111858884D01*
X102620317Y-111891487D01*
X102707173Y-111919709D01*
X102756533Y-111927527D01*
X102819668Y-111957456D01*
X102856599Y-112016768D01*
X102855601Y-112086631D01*
X102816991Y-112144863D01*
X102756533Y-112172473D01*
X102707173Y-112180290D01*
X102519970Y-112241117D01*
X102344594Y-112330476D01*
X102253741Y-112396485D01*
X102185354Y-112446172D01*
X102185352Y-112446174D01*
X102185351Y-112446174D01*
X102046174Y-112585351D01*
X102046174Y-112585352D01*
X102046172Y-112585354D01*
X102007709Y-112638294D01*
X101930476Y-112744594D01*
X101841117Y-112919970D01*
X101780290Y-113107173D01*
X101749500Y-113301577D01*
X101749500Y-113498422D01*
X101776189Y-113666932D01*
X101767234Y-113736226D01*
X101741397Y-113774011D01*
X101558037Y-113957372D01*
X101375270Y-114140139D01*
X101375267Y-114140142D01*
X101343698Y-114171711D01*
X101288140Y-114227268D01*
X101271912Y-114251556D01*
X101219689Y-114329712D01*
X101219685Y-114329719D01*
X101172540Y-114443538D01*
X101172535Y-114443554D01*
X101153783Y-114537827D01*
X101153772Y-114537889D01*
X101153452Y-114539500D01*
X101148500Y-114564394D01*
X101148500Y-114568801D01*
X101148500Y-150608611D01*
X101172535Y-150729444D01*
X101172540Y-150729461D01*
X101219685Y-150843281D01*
X101219687Y-150843284D01*
X101219688Y-150843286D01*
X101241667Y-150876179D01*
X101288142Y-150945733D01*
X101375267Y-151032858D01*
X101375270Y-151032860D01*
X101383088Y-151040678D01*
X103789838Y-153447428D01*
X103823323Y-153508751D01*
X103818339Y-153578443D01*
X103776467Y-153634376D01*
X103711003Y-153658793D01*
X103645862Y-153645594D01*
X103575802Y-153609897D01*
X103351247Y-153536934D01*
X103351248Y-153536934D01*
X103118052Y-153500000D01*
X102750000Y-153500000D01*
X102750000Y-154291759D01*
X102718767Y-154278822D01*
X102573869Y-154250000D01*
X102426131Y-154250000D01*
X102281233Y-154278822D01*
X102250000Y-154291759D01*
X102250000Y-153500000D01*
X101881948Y-153500000D01*
X101648752Y-153536934D01*
X101424197Y-153609897D01*
X101213828Y-153717085D01*
X101022813Y-153855866D01*
X100855866Y-154022813D01*
X100717085Y-154213828D01*
X100609897Y-154424197D01*
X100542431Y-154631835D01*
X100502993Y-154689511D01*
X100438635Y-154716709D01*
X100369788Y-154704794D01*
X100318313Y-154657550D01*
X100300500Y-154593517D01*
X100300500Y-107901617D01*
X101750000Y-107901617D01*
X101750000Y-108098382D01*
X101780778Y-108292705D01*
X101841581Y-108479835D01*
X101930905Y-108655145D01*
X101956319Y-108690125D01*
X101956320Y-108690125D01*
X102646446Y-108000000D01*
X102646446Y-107999999D01*
X103353553Y-107999999D01*
X103353553Y-108000001D01*
X104043678Y-108690126D01*
X104043678Y-108690125D01*
X104069095Y-108655143D01*
X104158418Y-108479835D01*
X104219221Y-108292705D01*
X104250000Y-108098382D01*
X104250000Y-107901617D01*
X104219221Y-107707294D01*
X104158418Y-107520164D01*
X104069096Y-107344858D01*
X104043678Y-107309873D01*
X104043677Y-107309873D01*
X103353553Y-107999999D01*
X102646446Y-107999999D01*
X101956320Y-107309872D01*
X101956320Y-107309873D01*
X101930902Y-107344859D01*
X101930899Y-107344863D01*
X101841582Y-107520161D01*
X101780778Y-107707294D01*
X101750000Y-107901617D01*
X100300500Y-107901617D01*
X100300500Y-106956320D01*
X102309872Y-106956320D01*
X103000000Y-107646446D01*
X103000001Y-107646446D01*
X103690125Y-106956320D01*
X103690125Y-106956319D01*
X103655145Y-106930905D01*
X103479835Y-106841581D01*
X103292705Y-106780778D01*
X103098382Y-106750000D01*
X102901618Y-106750000D01*
X102707294Y-106780778D01*
X102520161Y-106841582D01*
X102344863Y-106930899D01*
X102344859Y-106930902D01*
X102309873Y-106956320D01*
X102309872Y-106956320D01*
X100300500Y-106956320D01*
X100300500Y-105550318D01*
X100320185Y-105483279D01*
X100372989Y-105437524D01*
X100442147Y-105427580D01*
X100505703Y-105456605D01*
X100512181Y-105462637D01*
X100646367Y-105596823D01*
X100646372Y-105596827D01*
X100646373Y-105596828D01*
X100912240Y-105815019D01*
X101198213Y-106006100D01*
X101198222Y-106006105D01*
X101198224Y-106006106D01*
X101501530Y-106168227D01*
X101501532Y-106168227D01*
X101501538Y-106168231D01*
X101819295Y-106299850D01*
X102148422Y-106399690D01*
X102485750Y-106466789D01*
X102828031Y-106500500D01*
X102828034Y-106500500D01*
X103171966Y-106500500D01*
X103171969Y-106500500D01*
X103514250Y-106466789D01*
X103851578Y-106399690D01*
X104180705Y-106299850D01*
X104498462Y-106168231D01*
X104801787Y-106006100D01*
X105087760Y-105815019D01*
X105353627Y-105596828D01*
X105596828Y-105353627D01*
X105815019Y-105087760D01*
X106006100Y-104801787D01*
X106168231Y-104498462D01*
X106299850Y-104180705D01*
X106399690Y-103851578D01*
X106466789Y-103514250D01*
X106500500Y-103171969D01*
X106500500Y-102828031D01*
X106466789Y-102485750D01*
X106399690Y-102148422D01*
X106299850Y-101819295D01*
X106168231Y-101501538D01*
X106006100Y-101198213D01*
X105815019Y-100912240D01*
X105596828Y-100646373D01*
X105596827Y-100646372D01*
X105596823Y-100646367D01*
X105462637Y-100512181D01*
X105429152Y-100450858D01*
X105434136Y-100381166D01*
X105476008Y-100325233D01*
X105541472Y-100300816D01*
X105550318Y-100300500D01*
X184449682Y-100300500D01*
X184470927Y-100306738D01*
G37*
%TD.AperFunction*%
%TD*%
M02*
