M48
; DRILL file {KiCad 9.0.7} date 2026-03-10T00:22:13+0200
; FORMAT={-:-/ absolute / metric / decimal}
; #@! TF.CreationDate,2026-03-10T00:22:13+02:00
; #@! TF.GenerationSoftware,Kicad,Pcbnew,9.0.7
; #@! TF.FileFunction,MixedPlating,1,2
FMAT,2
METRIC
; #@! TA.AperFunction,Plated,PTH,ViaDrill
T1C0.300
; #@! TA.AperFunction,Plated,PTH,ComponentDrill
T2C0.800
; #@! TA.AperFunction,Plated,PTH,ComponentDrill
T3C1.000
; #@! TA.AperFunction,Plated,PTH,ComponentDrill
T4C1.500
; #@! TA.AperFunction,Plated,PTH,ComponentDrill
T5C3.200
%
G90
G05
T1
X103.969Y-142.97
X104.242Y-149.022
X104.678Y-119.049
X107.206Y-152.582
X107.509Y-149.656
X108.772Y-133.807
X110.47Y-151.881
X111.142Y-140.108
X113.276Y-131.088
X113.429Y-157.669
X116.017Y-145.94
X129.623Y-120.752
X133.007Y-135.71
X144.116Y-126.827
X148.527Y-119.207
X151.534Y-139.803
X151.813Y-158.956
X152.303Y-140.33
X157.368Y-131.088
X162.849Y-148.911
X164.202Y-151.298
X166.21Y-157.822
X167.009Y-147.275
X189.732Y-155.692
X191.327Y-161.643
X195.681Y-160.884
T2
X108.0Y-121.0
X108.0Y-126.0
X108.0Y-131.0
X108.0Y-136.0
X108.0Y-141.0
X108.0Y-146.0
X108.0Y-151.0
X118.16Y-121.0
X118.16Y-126.0
X118.16Y-131.0
X118.16Y-136.0
X118.16Y-141.0
X118.16Y-146.0
X118.16Y-151.0
X123.0Y-161.0
X128.0Y-161.0
X130.0Y-105.0
X132.0Y-105.0
X133.0Y-159.0
X133.0Y-161.54
X133.0Y-164.08
X133.0Y-166.62
X137.0Y-107.0
X139.54Y-107.0
X140.62Y-159.0
X140.62Y-161.54
X140.62Y-164.08
X140.62Y-166.62
X143.0Y-107.0
X145.0Y-114.0
X147.0Y-151.0
X147.0Y-153.54
X147.0Y-156.08
X147.0Y-158.62
X147.0Y-161.16
X147.0Y-163.7
X147.0Y-166.24
X147.0Y-168.78
X150.0Y-114.0
X153.16Y-107.0
X154.62Y-151.0
X154.62Y-153.54
X154.62Y-156.08
X154.62Y-158.62
X154.62Y-161.16
X154.62Y-163.7
X154.62Y-166.24
X154.62Y-168.78
X155.0Y-124.0
X155.0Y-131.0
X155.0Y-138.0
X155.0Y-145.0
X159.0Y-153.0
X164.0Y-153.0
X165.16Y-124.0
X165.16Y-131.0
X165.16Y-138.0
X165.16Y-145.0
T3
X105.0Y-166.0
X106.5Y-170.0
X110.0Y-162.0
X110.0Y-166.0
X112.0Y-105.0
X113.5Y-170.0
X115.0Y-110.0
X115.0Y-166.0
X118.0Y-105.0
X135.0Y-119.0
X135.0Y-121.54
X135.0Y-124.08
X135.0Y-126.62
X135.0Y-129.16
X135.0Y-131.7
X135.0Y-134.24
X135.0Y-136.78
X135.0Y-139.32
X135.0Y-141.86
X135.0Y-144.4
X135.0Y-146.94
X135.0Y-149.48
X135.0Y-152.02
X135.0Y-154.56
X137.54Y-119.0
X137.54Y-121.54
X137.54Y-124.08
X137.54Y-126.62
X137.54Y-129.16
X137.54Y-131.7
X137.54Y-134.24
X137.54Y-136.78
X137.54Y-139.32
X137.54Y-141.86
X137.54Y-144.4
X137.54Y-146.94
X137.54Y-149.48
X137.54Y-152.02
X137.54Y-154.56
X192.0Y-118.0
X192.0Y-120.54
X192.0Y-123.08
X192.0Y-125.62
X192.0Y-128.16
X192.0Y-130.7
X192.0Y-133.24
X192.0Y-135.78
X192.0Y-138.32
X192.0Y-140.86
X192.0Y-143.4
X192.0Y-145.94
X192.0Y-148.48
X192.0Y-151.02
X192.0Y-153.56
X192.0Y-156.1
X192.0Y-158.64
X194.54Y-118.0
X194.54Y-120.54
X194.54Y-123.08
X194.54Y-125.62
X194.54Y-128.16
X194.54Y-130.7
X194.54Y-133.24
X194.54Y-135.78
X194.54Y-138.32
X194.54Y-140.86
X194.54Y-143.4
X194.54Y-145.94
X194.54Y-148.48
X194.54Y-151.02
X194.54Y-153.56
X194.54Y-156.1
X194.54Y-158.64
T4
X102.5Y-166.0
X117.5Y-166.0
T5
X103.0Y-103.0
X103.0Y-177.0
X197.0Y-103.0
X197.0Y-177.0
M30
