%TF.GenerationSoftware,KiCad,Pcbnew,9.0.7*%
%TF.CreationDate,2026-03-10T00:11:23+02:00*%
%TF.ProjectId,64korppu-E,36346b6f-7270-4707-952d-452e6b696361,rev?*%
%TF.SameCoordinates,Original*%
%TF.FileFunction,Legend,Bot*%
%TF.FilePolarity,Positive*%
%FSLAX46Y46*%
G04 Gerber Fmt 4.6, Leading zero omitted, Abs format (unit mm)*
G04 Created by KiCad (PCBNEW 9.0.7) date 2026-03-10 00:11:23*
%MOMM*%
%LPD*%
G01*
G04 APERTURE LIST*
%ADD10C,0.150000*%
G04 APERTURE END LIST*
D10*
X106509523Y-122562295D02*
X106052380Y-122562295D01*
X106280952Y-123362295D02*
X106280952Y-122562295D01*
X105785713Y-123362295D02*
X105785713Y-122562295D01*
X105785713Y-122562295D02*
X105480951Y-122562295D01*
X105480951Y-122562295D02*
X105404761Y-122600390D01*
X105404761Y-122600390D02*
X105366666Y-122638485D01*
X105366666Y-122638485D02*
X105328570Y-122714676D01*
X105328570Y-122714676D02*
X105328570Y-122828961D01*
X105328570Y-122828961D02*
X105366666Y-122905152D01*
X105366666Y-122905152D02*
X105404761Y-122943247D01*
X105404761Y-122943247D02*
X105480951Y-122981342D01*
X105480951Y-122981342D02*
X105785713Y-122981342D01*
X105061904Y-122562295D02*
X104528570Y-122562295D01*
X104528570Y-122562295D02*
X104871428Y-123362295D01*
X106890476Y-137562295D02*
X106433333Y-137562295D01*
X106661905Y-138362295D02*
X106661905Y-137562295D01*
X106166666Y-138362295D02*
X106166666Y-137562295D01*
X106166666Y-137562295D02*
X105861904Y-137562295D01*
X105861904Y-137562295D02*
X105785714Y-137600390D01*
X105785714Y-137600390D02*
X105747619Y-137638485D01*
X105747619Y-137638485D02*
X105709523Y-137714676D01*
X105709523Y-137714676D02*
X105709523Y-137828961D01*
X105709523Y-137828961D02*
X105747619Y-137905152D01*
X105747619Y-137905152D02*
X105785714Y-137943247D01*
X105785714Y-137943247D02*
X105861904Y-137981342D01*
X105861904Y-137981342D02*
X106166666Y-137981342D01*
X104947619Y-138362295D02*
X105404762Y-138362295D01*
X105176190Y-138362295D02*
X105176190Y-137562295D01*
X105176190Y-137562295D02*
X105252381Y-137676580D01*
X105252381Y-137676580D02*
X105328571Y-137752771D01*
X105328571Y-137752771D02*
X105404762Y-137790866D01*
X104680952Y-137562295D02*
X104185714Y-137562295D01*
X104185714Y-137562295D02*
X104452380Y-137867057D01*
X104452380Y-137867057D02*
X104338095Y-137867057D01*
X104338095Y-137867057D02*
X104261904Y-137905152D01*
X104261904Y-137905152D02*
X104223809Y-137943247D01*
X104223809Y-137943247D02*
X104185714Y-138019438D01*
X104185714Y-138019438D02*
X104185714Y-138209914D01*
X104185714Y-138209914D02*
X104223809Y-138286104D01*
X104223809Y-138286104D02*
X104261904Y-138324200D01*
X104261904Y-138324200D02*
X104338095Y-138362295D01*
X104338095Y-138362295D02*
X104566666Y-138362295D01*
X104566666Y-138362295D02*
X104642857Y-138324200D01*
X104642857Y-138324200D02*
X104680952Y-138286104D01*
X106509523Y-112562295D02*
X106052380Y-112562295D01*
X106280952Y-113362295D02*
X106280952Y-112562295D01*
X105785713Y-113362295D02*
X105785713Y-112562295D01*
X105785713Y-112562295D02*
X105480951Y-112562295D01*
X105480951Y-112562295D02*
X105404761Y-112600390D01*
X105404761Y-112600390D02*
X105366666Y-112638485D01*
X105366666Y-112638485D02*
X105328570Y-112714676D01*
X105328570Y-112714676D02*
X105328570Y-112828961D01*
X105328570Y-112828961D02*
X105366666Y-112905152D01*
X105366666Y-112905152D02*
X105404761Y-112943247D01*
X105404761Y-112943247D02*
X105480951Y-112981342D01*
X105480951Y-112981342D02*
X105785713Y-112981342D01*
X105061904Y-112562295D02*
X104566666Y-112562295D01*
X104566666Y-112562295D02*
X104833332Y-112867057D01*
X104833332Y-112867057D02*
X104719047Y-112867057D01*
X104719047Y-112867057D02*
X104642856Y-112905152D01*
X104642856Y-112905152D02*
X104604761Y-112943247D01*
X104604761Y-112943247D02*
X104566666Y-113019438D01*
X104566666Y-113019438D02*
X104566666Y-113209914D01*
X104566666Y-113209914D02*
X104604761Y-113286104D01*
X104604761Y-113286104D02*
X104642856Y-113324200D01*
X104642856Y-113324200D02*
X104719047Y-113362295D01*
X104719047Y-113362295D02*
X104947618Y-113362295D01*
X104947618Y-113362295D02*
X105023809Y-113324200D01*
X105023809Y-113324200D02*
X105061904Y-113286104D01*
X106509523Y-117562295D02*
X106052380Y-117562295D01*
X106280952Y-118362295D02*
X106280952Y-117562295D01*
X105785713Y-118362295D02*
X105785713Y-117562295D01*
X105785713Y-117562295D02*
X105480951Y-117562295D01*
X105480951Y-117562295D02*
X105404761Y-117600390D01*
X105404761Y-117600390D02*
X105366666Y-117638485D01*
X105366666Y-117638485D02*
X105328570Y-117714676D01*
X105328570Y-117714676D02*
X105328570Y-117828961D01*
X105328570Y-117828961D02*
X105366666Y-117905152D01*
X105366666Y-117905152D02*
X105404761Y-117943247D01*
X105404761Y-117943247D02*
X105480951Y-117981342D01*
X105480951Y-117981342D02*
X105785713Y-117981342D01*
X104604761Y-117562295D02*
X104985713Y-117562295D01*
X104985713Y-117562295D02*
X105023809Y-117943247D01*
X105023809Y-117943247D02*
X104985713Y-117905152D01*
X104985713Y-117905152D02*
X104909523Y-117867057D01*
X104909523Y-117867057D02*
X104719047Y-117867057D01*
X104719047Y-117867057D02*
X104642856Y-117905152D01*
X104642856Y-117905152D02*
X104604761Y-117943247D01*
X104604761Y-117943247D02*
X104566666Y-118019438D01*
X104566666Y-118019438D02*
X104566666Y-118209914D01*
X104566666Y-118209914D02*
X104604761Y-118286104D01*
X104604761Y-118286104D02*
X104642856Y-118324200D01*
X104642856Y-118324200D02*
X104719047Y-118362295D01*
X104719047Y-118362295D02*
X104909523Y-118362295D01*
X104909523Y-118362295D02*
X104985713Y-118324200D01*
X104985713Y-118324200D02*
X105023809Y-118286104D01*
X106890476Y-130062295D02*
X106433333Y-130062295D01*
X106661905Y-130862295D02*
X106661905Y-130062295D01*
X106166666Y-130862295D02*
X106166666Y-130062295D01*
X106166666Y-130062295D02*
X105861904Y-130062295D01*
X105861904Y-130062295D02*
X105785714Y-130100390D01*
X105785714Y-130100390D02*
X105747619Y-130138485D01*
X105747619Y-130138485D02*
X105709523Y-130214676D01*
X105709523Y-130214676D02*
X105709523Y-130328961D01*
X105709523Y-130328961D02*
X105747619Y-130405152D01*
X105747619Y-130405152D02*
X105785714Y-130443247D01*
X105785714Y-130443247D02*
X105861904Y-130481342D01*
X105861904Y-130481342D02*
X106166666Y-130481342D01*
X104947619Y-130862295D02*
X105404762Y-130862295D01*
X105176190Y-130862295D02*
X105176190Y-130062295D01*
X105176190Y-130062295D02*
X105252381Y-130176580D01*
X105252381Y-130176580D02*
X105328571Y-130252771D01*
X105328571Y-130252771D02*
X105404762Y-130290866D01*
X104452380Y-130062295D02*
X104376190Y-130062295D01*
X104376190Y-130062295D02*
X104299999Y-130100390D01*
X104299999Y-130100390D02*
X104261904Y-130138485D01*
X104261904Y-130138485D02*
X104223809Y-130214676D01*
X104223809Y-130214676D02*
X104185714Y-130367057D01*
X104185714Y-130367057D02*
X104185714Y-130557533D01*
X104185714Y-130557533D02*
X104223809Y-130709914D01*
X104223809Y-130709914D02*
X104261904Y-130786104D01*
X104261904Y-130786104D02*
X104299999Y-130824200D01*
X104299999Y-130824200D02*
X104376190Y-130862295D01*
X104376190Y-130862295D02*
X104452380Y-130862295D01*
X104452380Y-130862295D02*
X104528571Y-130824200D01*
X104528571Y-130824200D02*
X104566666Y-130786104D01*
X104566666Y-130786104D02*
X104604761Y-130709914D01*
X104604761Y-130709914D02*
X104642857Y-130557533D01*
X104642857Y-130557533D02*
X104642857Y-130367057D01*
X104642857Y-130367057D02*
X104604761Y-130214676D01*
X104604761Y-130214676D02*
X104566666Y-130138485D01*
X104566666Y-130138485D02*
X104528571Y-130100390D01*
X104528571Y-130100390D02*
X104452380Y-130062295D01*
X106509523Y-120062295D02*
X106052380Y-120062295D01*
X106280952Y-120862295D02*
X106280952Y-120062295D01*
X105785713Y-120862295D02*
X105785713Y-120062295D01*
X105785713Y-120062295D02*
X105480951Y-120062295D01*
X105480951Y-120062295D02*
X105404761Y-120100390D01*
X105404761Y-120100390D02*
X105366666Y-120138485D01*
X105366666Y-120138485D02*
X105328570Y-120214676D01*
X105328570Y-120214676D02*
X105328570Y-120328961D01*
X105328570Y-120328961D02*
X105366666Y-120405152D01*
X105366666Y-120405152D02*
X105404761Y-120443247D01*
X105404761Y-120443247D02*
X105480951Y-120481342D01*
X105480951Y-120481342D02*
X105785713Y-120481342D01*
X104642856Y-120062295D02*
X104795237Y-120062295D01*
X104795237Y-120062295D02*
X104871428Y-120100390D01*
X104871428Y-120100390D02*
X104909523Y-120138485D01*
X104909523Y-120138485D02*
X104985713Y-120252771D01*
X104985713Y-120252771D02*
X105023809Y-120405152D01*
X105023809Y-120405152D02*
X105023809Y-120709914D01*
X105023809Y-120709914D02*
X104985713Y-120786104D01*
X104985713Y-120786104D02*
X104947618Y-120824200D01*
X104947618Y-120824200D02*
X104871428Y-120862295D01*
X104871428Y-120862295D02*
X104719047Y-120862295D01*
X104719047Y-120862295D02*
X104642856Y-120824200D01*
X104642856Y-120824200D02*
X104604761Y-120786104D01*
X104604761Y-120786104D02*
X104566666Y-120709914D01*
X104566666Y-120709914D02*
X104566666Y-120519438D01*
X104566666Y-120519438D02*
X104604761Y-120443247D01*
X104604761Y-120443247D02*
X104642856Y-120405152D01*
X104642856Y-120405152D02*
X104719047Y-120367057D01*
X104719047Y-120367057D02*
X104871428Y-120367057D01*
X104871428Y-120367057D02*
X104947618Y-120405152D01*
X104947618Y-120405152D02*
X104985713Y-120443247D01*
X104985713Y-120443247D02*
X105023809Y-120519438D01*
X106509523Y-115062295D02*
X106052380Y-115062295D01*
X106280952Y-115862295D02*
X106280952Y-115062295D01*
X105785713Y-115862295D02*
X105785713Y-115062295D01*
X105785713Y-115062295D02*
X105480951Y-115062295D01*
X105480951Y-115062295D02*
X105404761Y-115100390D01*
X105404761Y-115100390D02*
X105366666Y-115138485D01*
X105366666Y-115138485D02*
X105328570Y-115214676D01*
X105328570Y-115214676D02*
X105328570Y-115328961D01*
X105328570Y-115328961D02*
X105366666Y-115405152D01*
X105366666Y-115405152D02*
X105404761Y-115443247D01*
X105404761Y-115443247D02*
X105480951Y-115481342D01*
X105480951Y-115481342D02*
X105785713Y-115481342D01*
X104642856Y-115328961D02*
X104642856Y-115862295D01*
X104833332Y-115024200D02*
X105023809Y-115595628D01*
X105023809Y-115595628D02*
X104528570Y-115595628D01*
X106890476Y-135062295D02*
X106433333Y-135062295D01*
X106661905Y-135862295D02*
X106661905Y-135062295D01*
X106166666Y-135862295D02*
X106166666Y-135062295D01*
X106166666Y-135062295D02*
X105861904Y-135062295D01*
X105861904Y-135062295D02*
X105785714Y-135100390D01*
X105785714Y-135100390D02*
X105747619Y-135138485D01*
X105747619Y-135138485D02*
X105709523Y-135214676D01*
X105709523Y-135214676D02*
X105709523Y-135328961D01*
X105709523Y-135328961D02*
X105747619Y-135405152D01*
X105747619Y-135405152D02*
X105785714Y-135443247D01*
X105785714Y-135443247D02*
X105861904Y-135481342D01*
X105861904Y-135481342D02*
X106166666Y-135481342D01*
X104947619Y-135862295D02*
X105404762Y-135862295D01*
X105176190Y-135862295D02*
X105176190Y-135062295D01*
X105176190Y-135062295D02*
X105252381Y-135176580D01*
X105252381Y-135176580D02*
X105328571Y-135252771D01*
X105328571Y-135252771D02*
X105404762Y-135290866D01*
X104642857Y-135138485D02*
X104604761Y-135100390D01*
X104604761Y-135100390D02*
X104528571Y-135062295D01*
X104528571Y-135062295D02*
X104338095Y-135062295D01*
X104338095Y-135062295D02*
X104261904Y-135100390D01*
X104261904Y-135100390D02*
X104223809Y-135138485D01*
X104223809Y-135138485D02*
X104185714Y-135214676D01*
X104185714Y-135214676D02*
X104185714Y-135290866D01*
X104185714Y-135290866D02*
X104223809Y-135405152D01*
X104223809Y-135405152D02*
X104680952Y-135862295D01*
X104680952Y-135862295D02*
X104185714Y-135862295D01*
X106509523Y-127562295D02*
X106052380Y-127562295D01*
X106280952Y-128362295D02*
X106280952Y-127562295D01*
X105785713Y-128362295D02*
X105785713Y-127562295D01*
X105785713Y-127562295D02*
X105480951Y-127562295D01*
X105480951Y-127562295D02*
X105404761Y-127600390D01*
X105404761Y-127600390D02*
X105366666Y-127638485D01*
X105366666Y-127638485D02*
X105328570Y-127714676D01*
X105328570Y-127714676D02*
X105328570Y-127828961D01*
X105328570Y-127828961D02*
X105366666Y-127905152D01*
X105366666Y-127905152D02*
X105404761Y-127943247D01*
X105404761Y-127943247D02*
X105480951Y-127981342D01*
X105480951Y-127981342D02*
X105785713Y-127981342D01*
X104947618Y-128362295D02*
X104795237Y-128362295D01*
X104795237Y-128362295D02*
X104719047Y-128324200D01*
X104719047Y-128324200D02*
X104680951Y-128286104D01*
X104680951Y-128286104D02*
X104604761Y-128171819D01*
X104604761Y-128171819D02*
X104566666Y-128019438D01*
X104566666Y-128019438D02*
X104566666Y-127714676D01*
X104566666Y-127714676D02*
X104604761Y-127638485D01*
X104604761Y-127638485D02*
X104642856Y-127600390D01*
X104642856Y-127600390D02*
X104719047Y-127562295D01*
X104719047Y-127562295D02*
X104871428Y-127562295D01*
X104871428Y-127562295D02*
X104947618Y-127600390D01*
X104947618Y-127600390D02*
X104985713Y-127638485D01*
X104985713Y-127638485D02*
X105023809Y-127714676D01*
X105023809Y-127714676D02*
X105023809Y-127905152D01*
X105023809Y-127905152D02*
X104985713Y-127981342D01*
X104985713Y-127981342D02*
X104947618Y-128019438D01*
X104947618Y-128019438D02*
X104871428Y-128057533D01*
X104871428Y-128057533D02*
X104719047Y-128057533D01*
X104719047Y-128057533D02*
X104642856Y-128019438D01*
X104642856Y-128019438D02*
X104604761Y-127981342D01*
X104604761Y-127981342D02*
X104566666Y-127905152D01*
X106509523Y-125062295D02*
X106052380Y-125062295D01*
X106280952Y-125862295D02*
X106280952Y-125062295D01*
X105785713Y-125862295D02*
X105785713Y-125062295D01*
X105785713Y-125062295D02*
X105480951Y-125062295D01*
X105480951Y-125062295D02*
X105404761Y-125100390D01*
X105404761Y-125100390D02*
X105366666Y-125138485D01*
X105366666Y-125138485D02*
X105328570Y-125214676D01*
X105328570Y-125214676D02*
X105328570Y-125328961D01*
X105328570Y-125328961D02*
X105366666Y-125405152D01*
X105366666Y-125405152D02*
X105404761Y-125443247D01*
X105404761Y-125443247D02*
X105480951Y-125481342D01*
X105480951Y-125481342D02*
X105785713Y-125481342D01*
X104871428Y-125405152D02*
X104947618Y-125367057D01*
X104947618Y-125367057D02*
X104985713Y-125328961D01*
X104985713Y-125328961D02*
X105023809Y-125252771D01*
X105023809Y-125252771D02*
X105023809Y-125214676D01*
X105023809Y-125214676D02*
X104985713Y-125138485D01*
X104985713Y-125138485D02*
X104947618Y-125100390D01*
X104947618Y-125100390D02*
X104871428Y-125062295D01*
X104871428Y-125062295D02*
X104719047Y-125062295D01*
X104719047Y-125062295D02*
X104642856Y-125100390D01*
X104642856Y-125100390D02*
X104604761Y-125138485D01*
X104604761Y-125138485D02*
X104566666Y-125214676D01*
X104566666Y-125214676D02*
X104566666Y-125252771D01*
X104566666Y-125252771D02*
X104604761Y-125328961D01*
X104604761Y-125328961D02*
X104642856Y-125367057D01*
X104642856Y-125367057D02*
X104719047Y-125405152D01*
X104719047Y-125405152D02*
X104871428Y-125405152D01*
X104871428Y-125405152D02*
X104947618Y-125443247D01*
X104947618Y-125443247D02*
X104985713Y-125481342D01*
X104985713Y-125481342D02*
X105023809Y-125557533D01*
X105023809Y-125557533D02*
X105023809Y-125709914D01*
X105023809Y-125709914D02*
X104985713Y-125786104D01*
X104985713Y-125786104D02*
X104947618Y-125824200D01*
X104947618Y-125824200D02*
X104871428Y-125862295D01*
X104871428Y-125862295D02*
X104719047Y-125862295D01*
X104719047Y-125862295D02*
X104642856Y-125824200D01*
X104642856Y-125824200D02*
X104604761Y-125786104D01*
X104604761Y-125786104D02*
X104566666Y-125709914D01*
X104566666Y-125709914D02*
X104566666Y-125557533D01*
X104566666Y-125557533D02*
X104604761Y-125481342D01*
X104604761Y-125481342D02*
X104642856Y-125443247D01*
X104642856Y-125443247D02*
X104719047Y-125405152D01*
X106890476Y-140062295D02*
X106433333Y-140062295D01*
X106661905Y-140862295D02*
X106661905Y-140062295D01*
X106166666Y-140862295D02*
X106166666Y-140062295D01*
X106166666Y-140062295D02*
X105861904Y-140062295D01*
X105861904Y-140062295D02*
X105785714Y-140100390D01*
X105785714Y-140100390D02*
X105747619Y-140138485D01*
X105747619Y-140138485D02*
X105709523Y-140214676D01*
X105709523Y-140214676D02*
X105709523Y-140328961D01*
X105709523Y-140328961D02*
X105747619Y-140405152D01*
X105747619Y-140405152D02*
X105785714Y-140443247D01*
X105785714Y-140443247D02*
X105861904Y-140481342D01*
X105861904Y-140481342D02*
X106166666Y-140481342D01*
X104947619Y-140862295D02*
X105404762Y-140862295D01*
X105176190Y-140862295D02*
X105176190Y-140062295D01*
X105176190Y-140062295D02*
X105252381Y-140176580D01*
X105252381Y-140176580D02*
X105328571Y-140252771D01*
X105328571Y-140252771D02*
X105404762Y-140290866D01*
X104261904Y-140328961D02*
X104261904Y-140862295D01*
X104452380Y-140024200D02*
X104642857Y-140595628D01*
X104642857Y-140595628D02*
X104147618Y-140595628D01*
X106509523Y-107562295D02*
X106052380Y-107562295D01*
X106280952Y-108362295D02*
X106280952Y-107562295D01*
X105785713Y-108362295D02*
X105785713Y-107562295D01*
X105785713Y-107562295D02*
X105480951Y-107562295D01*
X105480951Y-107562295D02*
X105404761Y-107600390D01*
X105404761Y-107600390D02*
X105366666Y-107638485D01*
X105366666Y-107638485D02*
X105328570Y-107714676D01*
X105328570Y-107714676D02*
X105328570Y-107828961D01*
X105328570Y-107828961D02*
X105366666Y-107905152D01*
X105366666Y-107905152D02*
X105404761Y-107943247D01*
X105404761Y-107943247D02*
X105480951Y-107981342D01*
X105480951Y-107981342D02*
X105785713Y-107981342D01*
X104566666Y-108362295D02*
X105023809Y-108362295D01*
X104795237Y-108362295D02*
X104795237Y-107562295D01*
X104795237Y-107562295D02*
X104871428Y-107676580D01*
X104871428Y-107676580D02*
X104947618Y-107752771D01*
X104947618Y-107752771D02*
X105023809Y-107790866D01*
X106890476Y-132562295D02*
X106433333Y-132562295D01*
X106661905Y-133362295D02*
X106661905Y-132562295D01*
X106166666Y-133362295D02*
X106166666Y-132562295D01*
X106166666Y-132562295D02*
X105861904Y-132562295D01*
X105861904Y-132562295D02*
X105785714Y-132600390D01*
X105785714Y-132600390D02*
X105747619Y-132638485D01*
X105747619Y-132638485D02*
X105709523Y-132714676D01*
X105709523Y-132714676D02*
X105709523Y-132828961D01*
X105709523Y-132828961D02*
X105747619Y-132905152D01*
X105747619Y-132905152D02*
X105785714Y-132943247D01*
X105785714Y-132943247D02*
X105861904Y-132981342D01*
X105861904Y-132981342D02*
X106166666Y-132981342D01*
X104947619Y-133362295D02*
X105404762Y-133362295D01*
X105176190Y-133362295D02*
X105176190Y-132562295D01*
X105176190Y-132562295D02*
X105252381Y-132676580D01*
X105252381Y-132676580D02*
X105328571Y-132752771D01*
X105328571Y-132752771D02*
X105404762Y-132790866D01*
X104185714Y-133362295D02*
X104642857Y-133362295D01*
X104414285Y-133362295D02*
X104414285Y-132562295D01*
X104414285Y-132562295D02*
X104490476Y-132676580D01*
X104490476Y-132676580D02*
X104566666Y-132752771D01*
X104566666Y-132752771D02*
X104642857Y-132790866D01*
X106509523Y-110062295D02*
X106052380Y-110062295D01*
X106280952Y-110862295D02*
X106280952Y-110062295D01*
X105785713Y-110862295D02*
X105785713Y-110062295D01*
X105785713Y-110062295D02*
X105480951Y-110062295D01*
X105480951Y-110062295D02*
X105404761Y-110100390D01*
X105404761Y-110100390D02*
X105366666Y-110138485D01*
X105366666Y-110138485D02*
X105328570Y-110214676D01*
X105328570Y-110214676D02*
X105328570Y-110328961D01*
X105328570Y-110328961D02*
X105366666Y-110405152D01*
X105366666Y-110405152D02*
X105404761Y-110443247D01*
X105404761Y-110443247D02*
X105480951Y-110481342D01*
X105480951Y-110481342D02*
X105785713Y-110481342D01*
X105023809Y-110138485D02*
X104985713Y-110100390D01*
X104985713Y-110100390D02*
X104909523Y-110062295D01*
X104909523Y-110062295D02*
X104719047Y-110062295D01*
X104719047Y-110062295D02*
X104642856Y-110100390D01*
X104642856Y-110100390D02*
X104604761Y-110138485D01*
X104604761Y-110138485D02*
X104566666Y-110214676D01*
X104566666Y-110214676D02*
X104566666Y-110290866D01*
X104566666Y-110290866D02*
X104604761Y-110405152D01*
X104604761Y-110405152D02*
X105061904Y-110862295D01*
X105061904Y-110862295D02*
X104566666Y-110862295D01*
M02*
