%TF.GenerationSoftware,KiCad,Pcbnew,9.0.7*%
%TF.CreationDate,2026-03-10T21:39:12+02:00*%
%TF.ProjectId,64korppu-E,36346b6f-7270-4707-952d-452e6b696361,rev?*%
%TF.SameCoordinates,Original*%
%TF.FileFunction,Legend,Top*%
%TF.FilePolarity,Positive*%
%FSLAX46Y46*%
G04 Gerber Fmt 4.6, Leading zero omitted, Abs format (unit mm)*
G04 Created by KiCad (PCBNEW 9.0.7) date 2026-03-10 21:39:12*
%MOMM*%
%LPD*%
G01*
G04 APERTURE LIST*
%ADD10C,0.300000*%
%ADD11C,0.150000*%
G04 APERTURE END LIST*
D10*
X166411653Y-155413223D02*
X166340225Y-155484652D01*
X166340225Y-155484652D02*
X166125939Y-155556080D01*
X166125939Y-155556080D02*
X165983082Y-155556080D01*
X165983082Y-155556080D02*
X165768796Y-155484652D01*
X165768796Y-155484652D02*
X165625939Y-155341794D01*
X165625939Y-155341794D02*
X165554510Y-155198937D01*
X165554510Y-155198937D02*
X165483082Y-154913223D01*
X165483082Y-154913223D02*
X165483082Y-154698937D01*
X165483082Y-154698937D02*
X165554510Y-154413223D01*
X165554510Y-154413223D02*
X165625939Y-154270366D01*
X165625939Y-154270366D02*
X165768796Y-154127509D01*
X165768796Y-154127509D02*
X165983082Y-154056080D01*
X165983082Y-154056080D02*
X166125939Y-154056080D01*
X166125939Y-154056080D02*
X166340225Y-154127509D01*
X166340225Y-154127509D02*
X166411653Y-154198937D01*
X167697368Y-154056080D02*
X167411653Y-154056080D01*
X167411653Y-154056080D02*
X167268796Y-154127509D01*
X167268796Y-154127509D02*
X167197368Y-154198937D01*
X167197368Y-154198937D02*
X167054510Y-154413223D01*
X167054510Y-154413223D02*
X166983082Y-154698937D01*
X166983082Y-154698937D02*
X166983082Y-155270366D01*
X166983082Y-155270366D02*
X167054510Y-155413223D01*
X167054510Y-155413223D02*
X167125939Y-155484652D01*
X167125939Y-155484652D02*
X167268796Y-155556080D01*
X167268796Y-155556080D02*
X167554510Y-155556080D01*
X167554510Y-155556080D02*
X167697368Y-155484652D01*
X167697368Y-155484652D02*
X167768796Y-155413223D01*
X167768796Y-155413223D02*
X167840225Y-155270366D01*
X167840225Y-155270366D02*
X167840225Y-154913223D01*
X167840225Y-154913223D02*
X167768796Y-154770366D01*
X167768796Y-154770366D02*
X167697368Y-154698937D01*
X167697368Y-154698937D02*
X167554510Y-154627509D01*
X167554510Y-154627509D02*
X167268796Y-154627509D01*
X167268796Y-154627509D02*
X167125939Y-154698937D01*
X167125939Y-154698937D02*
X167054510Y-154770366D01*
X167054510Y-154770366D02*
X166983082Y-154913223D01*
X169125939Y-154556080D02*
X169125939Y-155556080D01*
X168768796Y-153984652D02*
X168411653Y-155056080D01*
X168411653Y-155056080D02*
X169340224Y-155056080D01*
X171054509Y-155556080D02*
X171054509Y-154056080D01*
X171054509Y-154770366D02*
X171911652Y-154770366D01*
X171911652Y-155556080D02*
X171911652Y-154056080D01*
X172625938Y-155556080D02*
X172625938Y-154056080D01*
X172625938Y-154056080D02*
X172983081Y-154056080D01*
X172983081Y-154056080D02*
X173197367Y-154127509D01*
X173197367Y-154127509D02*
X173340224Y-154270366D01*
X173340224Y-154270366D02*
X173411653Y-154413223D01*
X173411653Y-154413223D02*
X173483081Y-154698937D01*
X173483081Y-154698937D02*
X173483081Y-154913223D01*
X173483081Y-154913223D02*
X173411653Y-155198937D01*
X173411653Y-155198937D02*
X173340224Y-155341794D01*
X173340224Y-155341794D02*
X173197367Y-155484652D01*
X173197367Y-155484652D02*
X172983081Y-155556080D01*
X172983081Y-155556080D02*
X172625938Y-155556080D01*
X175768795Y-154770366D02*
X175268795Y-154770366D01*
X175268795Y-155556080D02*
X175268795Y-154056080D01*
X175268795Y-154056080D02*
X175983081Y-154056080D01*
X176768795Y-155556080D02*
X176625938Y-155484652D01*
X176625938Y-155484652D02*
X176554509Y-155341794D01*
X176554509Y-155341794D02*
X176554509Y-154056080D01*
X177554509Y-155556080D02*
X177411652Y-155484652D01*
X177411652Y-155484652D02*
X177340223Y-155413223D01*
X177340223Y-155413223D02*
X177268795Y-155270366D01*
X177268795Y-155270366D02*
X177268795Y-154841794D01*
X177268795Y-154841794D02*
X177340223Y-154698937D01*
X177340223Y-154698937D02*
X177411652Y-154627509D01*
X177411652Y-154627509D02*
X177554509Y-154556080D01*
X177554509Y-154556080D02*
X177768795Y-154556080D01*
X177768795Y-154556080D02*
X177911652Y-154627509D01*
X177911652Y-154627509D02*
X177983081Y-154698937D01*
X177983081Y-154698937D02*
X178054509Y-154841794D01*
X178054509Y-154841794D02*
X178054509Y-155270366D01*
X178054509Y-155270366D02*
X177983081Y-155413223D01*
X177983081Y-155413223D02*
X177911652Y-155484652D01*
X177911652Y-155484652D02*
X177768795Y-155556080D01*
X177768795Y-155556080D02*
X177554509Y-155556080D01*
X178697366Y-154556080D02*
X178697366Y-156056080D01*
X178697366Y-154627509D02*
X178840224Y-154556080D01*
X178840224Y-154556080D02*
X179125938Y-154556080D01*
X179125938Y-154556080D02*
X179268795Y-154627509D01*
X179268795Y-154627509D02*
X179340224Y-154698937D01*
X179340224Y-154698937D02*
X179411652Y-154841794D01*
X179411652Y-154841794D02*
X179411652Y-155270366D01*
X179411652Y-155270366D02*
X179340224Y-155413223D01*
X179340224Y-155413223D02*
X179268795Y-155484652D01*
X179268795Y-155484652D02*
X179125938Y-155556080D01*
X179125938Y-155556080D02*
X178840224Y-155556080D01*
X178840224Y-155556080D02*
X178697366Y-155484652D01*
X180054509Y-154556080D02*
X180054509Y-156056080D01*
X180054509Y-154627509D02*
X180197367Y-154556080D01*
X180197367Y-154556080D02*
X180483081Y-154556080D01*
X180483081Y-154556080D02*
X180625938Y-154627509D01*
X180625938Y-154627509D02*
X180697367Y-154698937D01*
X180697367Y-154698937D02*
X180768795Y-154841794D01*
X180768795Y-154841794D02*
X180768795Y-155270366D01*
X180768795Y-155270366D02*
X180697367Y-155413223D01*
X180697367Y-155413223D02*
X180625938Y-155484652D01*
X180625938Y-155484652D02*
X180483081Y-155556080D01*
X180483081Y-155556080D02*
X180197367Y-155556080D01*
X180197367Y-155556080D02*
X180054509Y-155484652D01*
X181268795Y-154556080D02*
X181625938Y-155556080D01*
X181983081Y-154556080D02*
X181625938Y-155556080D01*
X181625938Y-155556080D02*
X181483081Y-155913223D01*
X181483081Y-155913223D02*
X181411652Y-155984652D01*
X181411652Y-155984652D02*
X181268795Y-156056080D01*
X184554509Y-155413223D02*
X184483081Y-155484652D01*
X184483081Y-155484652D02*
X184268795Y-155556080D01*
X184268795Y-155556080D02*
X184125938Y-155556080D01*
X184125938Y-155556080D02*
X183911652Y-155484652D01*
X183911652Y-155484652D02*
X183768795Y-155341794D01*
X183768795Y-155341794D02*
X183697366Y-155198937D01*
X183697366Y-155198937D02*
X183625938Y-154913223D01*
X183625938Y-154913223D02*
X183625938Y-154698937D01*
X183625938Y-154698937D02*
X183697366Y-154413223D01*
X183697366Y-154413223D02*
X183768795Y-154270366D01*
X183768795Y-154270366D02*
X183911652Y-154127509D01*
X183911652Y-154127509D02*
X184125938Y-154056080D01*
X184125938Y-154056080D02*
X184268795Y-154056080D01*
X184268795Y-154056080D02*
X184483081Y-154127509D01*
X184483081Y-154127509D02*
X184554509Y-154198937D01*
X185411652Y-155556080D02*
X185268795Y-155484652D01*
X185268795Y-155484652D02*
X185197366Y-155413223D01*
X185197366Y-155413223D02*
X185125938Y-155270366D01*
X185125938Y-155270366D02*
X185125938Y-154841794D01*
X185125938Y-154841794D02*
X185197366Y-154698937D01*
X185197366Y-154698937D02*
X185268795Y-154627509D01*
X185268795Y-154627509D02*
X185411652Y-154556080D01*
X185411652Y-154556080D02*
X185625938Y-154556080D01*
X185625938Y-154556080D02*
X185768795Y-154627509D01*
X185768795Y-154627509D02*
X185840224Y-154698937D01*
X185840224Y-154698937D02*
X185911652Y-154841794D01*
X185911652Y-154841794D02*
X185911652Y-155270366D01*
X185911652Y-155270366D02*
X185840224Y-155413223D01*
X185840224Y-155413223D02*
X185768795Y-155484652D01*
X185768795Y-155484652D02*
X185625938Y-155556080D01*
X185625938Y-155556080D02*
X185411652Y-155556080D01*
X186554509Y-154556080D02*
X186554509Y-155556080D01*
X186554509Y-154698937D02*
X186625938Y-154627509D01*
X186625938Y-154627509D02*
X186768795Y-154556080D01*
X186768795Y-154556080D02*
X186983081Y-154556080D01*
X186983081Y-154556080D02*
X187125938Y-154627509D01*
X187125938Y-154627509D02*
X187197367Y-154770366D01*
X187197367Y-154770366D02*
X187197367Y-155556080D01*
X187697367Y-154556080D02*
X188268795Y-154556080D01*
X187911652Y-154056080D02*
X187911652Y-155341794D01*
X187911652Y-155341794D02*
X187983081Y-155484652D01*
X187983081Y-155484652D02*
X188125938Y-155556080D01*
X188125938Y-155556080D02*
X188268795Y-155556080D01*
X188768795Y-155556080D02*
X188768795Y-154556080D01*
X188768795Y-154841794D02*
X188840224Y-154698937D01*
X188840224Y-154698937D02*
X188911653Y-154627509D01*
X188911653Y-154627509D02*
X189054510Y-154556080D01*
X189054510Y-154556080D02*
X189197367Y-154556080D01*
X189911652Y-155556080D02*
X189768795Y-155484652D01*
X189768795Y-155484652D02*
X189697366Y-155413223D01*
X189697366Y-155413223D02*
X189625938Y-155270366D01*
X189625938Y-155270366D02*
X189625938Y-154841794D01*
X189625938Y-154841794D02*
X189697366Y-154698937D01*
X189697366Y-154698937D02*
X189768795Y-154627509D01*
X189768795Y-154627509D02*
X189911652Y-154556080D01*
X189911652Y-154556080D02*
X190125938Y-154556080D01*
X190125938Y-154556080D02*
X190268795Y-154627509D01*
X190268795Y-154627509D02*
X190340224Y-154698937D01*
X190340224Y-154698937D02*
X190411652Y-154841794D01*
X190411652Y-154841794D02*
X190411652Y-155270366D01*
X190411652Y-155270366D02*
X190340224Y-155413223D01*
X190340224Y-155413223D02*
X190268795Y-155484652D01*
X190268795Y-155484652D02*
X190125938Y-155556080D01*
X190125938Y-155556080D02*
X189911652Y-155556080D01*
X191268795Y-155556080D02*
X191125938Y-155484652D01*
X191125938Y-155484652D02*
X191054509Y-155341794D01*
X191054509Y-155341794D02*
X191054509Y-154056080D01*
X192054509Y-155556080D02*
X191911652Y-155484652D01*
X191911652Y-155484652D02*
X191840223Y-155341794D01*
X191840223Y-155341794D02*
X191840223Y-154056080D01*
X193197366Y-155484652D02*
X193054509Y-155556080D01*
X193054509Y-155556080D02*
X192768795Y-155556080D01*
X192768795Y-155556080D02*
X192625937Y-155484652D01*
X192625937Y-155484652D02*
X192554509Y-155341794D01*
X192554509Y-155341794D02*
X192554509Y-154770366D01*
X192554509Y-154770366D02*
X192625937Y-154627509D01*
X192625937Y-154627509D02*
X192768795Y-154556080D01*
X192768795Y-154556080D02*
X193054509Y-154556080D01*
X193054509Y-154556080D02*
X193197366Y-154627509D01*
X193197366Y-154627509D02*
X193268795Y-154770366D01*
X193268795Y-154770366D02*
X193268795Y-154913223D01*
X193268795Y-154913223D02*
X192554509Y-155056080D01*
X193911651Y-155556080D02*
X193911651Y-154556080D01*
X193911651Y-154841794D02*
X193983080Y-154698937D01*
X193983080Y-154698937D02*
X194054509Y-154627509D01*
X194054509Y-154627509D02*
X194197366Y-154556080D01*
X194197366Y-154556080D02*
X194340223Y-154556080D01*
X165554510Y-157970996D02*
X165554510Y-156470996D01*
X165697368Y-157399568D02*
X166125939Y-157970996D01*
X166125939Y-156970996D02*
X165554510Y-157542425D01*
X167411654Y-157970996D02*
X167411654Y-157185282D01*
X167411654Y-157185282D02*
X167340225Y-157042425D01*
X167340225Y-157042425D02*
X167197368Y-156970996D01*
X167197368Y-156970996D02*
X166911654Y-156970996D01*
X166911654Y-156970996D02*
X166768796Y-157042425D01*
X167411654Y-157899568D02*
X167268796Y-157970996D01*
X167268796Y-157970996D02*
X166911654Y-157970996D01*
X166911654Y-157970996D02*
X166768796Y-157899568D01*
X166768796Y-157899568D02*
X166697368Y-157756710D01*
X166697368Y-157756710D02*
X166697368Y-157613853D01*
X166697368Y-157613853D02*
X166768796Y-157470996D01*
X166768796Y-157470996D02*
X166911654Y-157399568D01*
X166911654Y-157399568D02*
X167268796Y-157399568D01*
X167268796Y-157399568D02*
X167411654Y-157328139D01*
X168125939Y-157970996D02*
X168125939Y-156970996D01*
X168125939Y-157256710D02*
X168197368Y-157113853D01*
X168197368Y-157113853D02*
X168268797Y-157042425D01*
X168268797Y-157042425D02*
X168411654Y-156970996D01*
X168411654Y-156970996D02*
X168554511Y-156970996D01*
X168983082Y-157899568D02*
X169125939Y-157970996D01*
X169125939Y-157970996D02*
X169411653Y-157970996D01*
X169411653Y-157970996D02*
X169554510Y-157899568D01*
X169554510Y-157899568D02*
X169625939Y-157756710D01*
X169625939Y-157756710D02*
X169625939Y-157685282D01*
X169625939Y-157685282D02*
X169554510Y-157542425D01*
X169554510Y-157542425D02*
X169411653Y-157470996D01*
X169411653Y-157470996D02*
X169197368Y-157470996D01*
X169197368Y-157470996D02*
X169054510Y-157399568D01*
X169054510Y-157399568D02*
X168983082Y-157256710D01*
X168983082Y-157256710D02*
X168983082Y-157185282D01*
X168983082Y-157185282D02*
X169054510Y-157042425D01*
X169054510Y-157042425D02*
X169197368Y-156970996D01*
X169197368Y-156970996D02*
X169411653Y-156970996D01*
X169411653Y-156970996D02*
X169554510Y-157042425D01*
X170268796Y-157970996D02*
X170268796Y-156470996D01*
X170411654Y-157399568D02*
X170840225Y-157970996D01*
X170840225Y-156970996D02*
X170268796Y-157542425D01*
X171483082Y-157970996D02*
X171483082Y-156970996D01*
X171483082Y-156470996D02*
X171411654Y-156542425D01*
X171411654Y-156542425D02*
X171483082Y-156613853D01*
X171483082Y-156613853D02*
X171554511Y-156542425D01*
X171554511Y-156542425D02*
X171483082Y-156470996D01*
X171483082Y-156470996D02*
X171483082Y-156613853D01*
X173340225Y-157970996D02*
X173340225Y-156470996D01*
X173340225Y-157042425D02*
X173483083Y-156970996D01*
X173483083Y-156970996D02*
X173768797Y-156970996D01*
X173768797Y-156970996D02*
X173911654Y-157042425D01*
X173911654Y-157042425D02*
X173983083Y-157113853D01*
X173983083Y-157113853D02*
X174054511Y-157256710D01*
X174054511Y-157256710D02*
X174054511Y-157685282D01*
X174054511Y-157685282D02*
X173983083Y-157828139D01*
X173983083Y-157828139D02*
X173911654Y-157899568D01*
X173911654Y-157899568D02*
X173768797Y-157970996D01*
X173768797Y-157970996D02*
X173483083Y-157970996D01*
X173483083Y-157970996D02*
X173340225Y-157899568D01*
X174554511Y-156970996D02*
X174911654Y-157970996D01*
X175268797Y-156970996D02*
X174911654Y-157970996D01*
X174911654Y-157970996D02*
X174768797Y-158328139D01*
X174768797Y-158328139D02*
X174697368Y-158399568D01*
X174697368Y-158399568D02*
X174554511Y-158470996D01*
X166197368Y-160385912D02*
X166197368Y-158885912D01*
X166197368Y-160314484D02*
X166054510Y-160385912D01*
X166054510Y-160385912D02*
X165768796Y-160385912D01*
X165768796Y-160385912D02*
X165625939Y-160314484D01*
X165625939Y-160314484D02*
X165554510Y-160243055D01*
X165554510Y-160243055D02*
X165483082Y-160100198D01*
X165483082Y-160100198D02*
X165483082Y-159671626D01*
X165483082Y-159671626D02*
X165554510Y-159528769D01*
X165554510Y-159528769D02*
X165625939Y-159457341D01*
X165625939Y-159457341D02*
X165768796Y-159385912D01*
X165768796Y-159385912D02*
X166054510Y-159385912D01*
X166054510Y-159385912D02*
X166197368Y-159457341D01*
X167483082Y-160314484D02*
X167340225Y-160385912D01*
X167340225Y-160385912D02*
X167054511Y-160385912D01*
X167054511Y-160385912D02*
X166911653Y-160314484D01*
X166911653Y-160314484D02*
X166840225Y-160171626D01*
X166840225Y-160171626D02*
X166840225Y-159600198D01*
X166840225Y-159600198D02*
X166911653Y-159457341D01*
X166911653Y-159457341D02*
X167054511Y-159385912D01*
X167054511Y-159385912D02*
X167340225Y-159385912D01*
X167340225Y-159385912D02*
X167483082Y-159457341D01*
X167483082Y-159457341D02*
X167554511Y-159600198D01*
X167554511Y-159600198D02*
X167554511Y-159743055D01*
X167554511Y-159743055D02*
X166840225Y-159885912D01*
X168125939Y-160314484D02*
X168268796Y-160385912D01*
X168268796Y-160385912D02*
X168554510Y-160385912D01*
X168554510Y-160385912D02*
X168697367Y-160314484D01*
X168697367Y-160314484D02*
X168768796Y-160171626D01*
X168768796Y-160171626D02*
X168768796Y-160100198D01*
X168768796Y-160100198D02*
X168697367Y-159957341D01*
X168697367Y-159957341D02*
X168554510Y-159885912D01*
X168554510Y-159885912D02*
X168340225Y-159885912D01*
X168340225Y-159885912D02*
X168197367Y-159814484D01*
X168197367Y-159814484D02*
X168125939Y-159671626D01*
X168125939Y-159671626D02*
X168125939Y-159600198D01*
X168125939Y-159600198D02*
X168197367Y-159457341D01*
X168197367Y-159457341D02*
X168340225Y-159385912D01*
X168340225Y-159385912D02*
X168554510Y-159385912D01*
X168554510Y-159385912D02*
X168697367Y-159457341D01*
X169411653Y-160385912D02*
X169411653Y-159385912D01*
X169411653Y-158885912D02*
X169340225Y-158957341D01*
X169340225Y-158957341D02*
X169411653Y-159028769D01*
X169411653Y-159028769D02*
X169483082Y-158957341D01*
X169483082Y-158957341D02*
X169411653Y-158885912D01*
X169411653Y-158885912D02*
X169411653Y-159028769D01*
X170768797Y-159385912D02*
X170768797Y-160600198D01*
X170768797Y-160600198D02*
X170697368Y-160743055D01*
X170697368Y-160743055D02*
X170625939Y-160814484D01*
X170625939Y-160814484D02*
X170483082Y-160885912D01*
X170483082Y-160885912D02*
X170268797Y-160885912D01*
X170268797Y-160885912D02*
X170125939Y-160814484D01*
X170768797Y-160314484D02*
X170625939Y-160385912D01*
X170625939Y-160385912D02*
X170340225Y-160385912D01*
X170340225Y-160385912D02*
X170197368Y-160314484D01*
X170197368Y-160314484D02*
X170125939Y-160243055D01*
X170125939Y-160243055D02*
X170054511Y-160100198D01*
X170054511Y-160100198D02*
X170054511Y-159671626D01*
X170054511Y-159671626D02*
X170125939Y-159528769D01*
X170125939Y-159528769D02*
X170197368Y-159457341D01*
X170197368Y-159457341D02*
X170340225Y-159385912D01*
X170340225Y-159385912D02*
X170625939Y-159385912D01*
X170625939Y-159385912D02*
X170768797Y-159457341D01*
X171483082Y-159385912D02*
X171483082Y-160385912D01*
X171483082Y-159528769D02*
X171554511Y-159457341D01*
X171554511Y-159457341D02*
X171697368Y-159385912D01*
X171697368Y-159385912D02*
X171911654Y-159385912D01*
X171911654Y-159385912D02*
X172054511Y-159457341D01*
X172054511Y-159457341D02*
X172125940Y-159600198D01*
X172125940Y-159600198D02*
X172125940Y-160385912D01*
X173911654Y-159028769D02*
X173983082Y-158957341D01*
X173983082Y-158957341D02*
X174125940Y-158885912D01*
X174125940Y-158885912D02*
X174483082Y-158885912D01*
X174483082Y-158885912D02*
X174625940Y-158957341D01*
X174625940Y-158957341D02*
X174697368Y-159028769D01*
X174697368Y-159028769D02*
X174768797Y-159171626D01*
X174768797Y-159171626D02*
X174768797Y-159314484D01*
X174768797Y-159314484D02*
X174697368Y-159528769D01*
X174697368Y-159528769D02*
X173840225Y-160385912D01*
X173840225Y-160385912D02*
X174768797Y-160385912D01*
X175697368Y-158885912D02*
X175840225Y-158885912D01*
X175840225Y-158885912D02*
X175983082Y-158957341D01*
X175983082Y-158957341D02*
X176054511Y-159028769D01*
X176054511Y-159028769D02*
X176125939Y-159171626D01*
X176125939Y-159171626D02*
X176197368Y-159457341D01*
X176197368Y-159457341D02*
X176197368Y-159814484D01*
X176197368Y-159814484D02*
X176125939Y-160100198D01*
X176125939Y-160100198D02*
X176054511Y-160243055D01*
X176054511Y-160243055D02*
X175983082Y-160314484D01*
X175983082Y-160314484D02*
X175840225Y-160385912D01*
X175840225Y-160385912D02*
X175697368Y-160385912D01*
X175697368Y-160385912D02*
X175554511Y-160314484D01*
X175554511Y-160314484D02*
X175483082Y-160243055D01*
X175483082Y-160243055D02*
X175411653Y-160100198D01*
X175411653Y-160100198D02*
X175340225Y-159814484D01*
X175340225Y-159814484D02*
X175340225Y-159457341D01*
X175340225Y-159457341D02*
X175411653Y-159171626D01*
X175411653Y-159171626D02*
X175483082Y-159028769D01*
X175483082Y-159028769D02*
X175554511Y-158957341D01*
X175554511Y-158957341D02*
X175697368Y-158885912D01*
X176768796Y-159028769D02*
X176840224Y-158957341D01*
X176840224Y-158957341D02*
X176983082Y-158885912D01*
X176983082Y-158885912D02*
X177340224Y-158885912D01*
X177340224Y-158885912D02*
X177483082Y-158957341D01*
X177483082Y-158957341D02*
X177554510Y-159028769D01*
X177554510Y-159028769D02*
X177625939Y-159171626D01*
X177625939Y-159171626D02*
X177625939Y-159314484D01*
X177625939Y-159314484D02*
X177554510Y-159528769D01*
X177554510Y-159528769D02*
X176697367Y-160385912D01*
X176697367Y-160385912D02*
X177625939Y-160385912D01*
X178911653Y-158885912D02*
X178625938Y-158885912D01*
X178625938Y-158885912D02*
X178483081Y-158957341D01*
X178483081Y-158957341D02*
X178411653Y-159028769D01*
X178411653Y-159028769D02*
X178268795Y-159243055D01*
X178268795Y-159243055D02*
X178197367Y-159528769D01*
X178197367Y-159528769D02*
X178197367Y-160100198D01*
X178197367Y-160100198D02*
X178268795Y-160243055D01*
X178268795Y-160243055D02*
X178340224Y-160314484D01*
X178340224Y-160314484D02*
X178483081Y-160385912D01*
X178483081Y-160385912D02*
X178768795Y-160385912D01*
X178768795Y-160385912D02*
X178911653Y-160314484D01*
X178911653Y-160314484D02*
X178983081Y-160243055D01*
X178983081Y-160243055D02*
X179054510Y-160100198D01*
X179054510Y-160100198D02*
X179054510Y-159743055D01*
X179054510Y-159743055D02*
X178983081Y-159600198D01*
X178983081Y-159600198D02*
X178911653Y-159528769D01*
X178911653Y-159528769D02*
X178768795Y-159457341D01*
X178768795Y-159457341D02*
X178483081Y-159457341D01*
X178483081Y-159457341D02*
X178340224Y-159528769D01*
X178340224Y-159528769D02*
X178268795Y-159600198D01*
X178268795Y-159600198D02*
X178197367Y-159743055D01*
X165554510Y-162800828D02*
X165554510Y-161800828D01*
X165554510Y-162086542D02*
X165625939Y-161943685D01*
X165625939Y-161943685D02*
X165697368Y-161872257D01*
X165697368Y-161872257D02*
X165840225Y-161800828D01*
X165840225Y-161800828D02*
X165983082Y-161800828D01*
X167054510Y-162729400D02*
X166911653Y-162800828D01*
X166911653Y-162800828D02*
X166625939Y-162800828D01*
X166625939Y-162800828D02*
X166483081Y-162729400D01*
X166483081Y-162729400D02*
X166411653Y-162586542D01*
X166411653Y-162586542D02*
X166411653Y-162015114D01*
X166411653Y-162015114D02*
X166483081Y-161872257D01*
X166483081Y-161872257D02*
X166625939Y-161800828D01*
X166625939Y-161800828D02*
X166911653Y-161800828D01*
X166911653Y-161800828D02*
X167054510Y-161872257D01*
X167054510Y-161872257D02*
X167125939Y-162015114D01*
X167125939Y-162015114D02*
X167125939Y-162157971D01*
X167125939Y-162157971D02*
X166411653Y-162300828D01*
X167625938Y-161800828D02*
X167983081Y-162800828D01*
X167983081Y-162800828D02*
X168340224Y-161800828D01*
X170340224Y-161300828D02*
X170483081Y-161300828D01*
X170483081Y-161300828D02*
X170625938Y-161372257D01*
X170625938Y-161372257D02*
X170697367Y-161443685D01*
X170697367Y-161443685D02*
X170768795Y-161586542D01*
X170768795Y-161586542D02*
X170840224Y-161872257D01*
X170840224Y-161872257D02*
X170840224Y-162229400D01*
X170840224Y-162229400D02*
X170768795Y-162515114D01*
X170768795Y-162515114D02*
X170697367Y-162657971D01*
X170697367Y-162657971D02*
X170625938Y-162729400D01*
X170625938Y-162729400D02*
X170483081Y-162800828D01*
X170483081Y-162800828D02*
X170340224Y-162800828D01*
X170340224Y-162800828D02*
X170197367Y-162729400D01*
X170197367Y-162729400D02*
X170125938Y-162657971D01*
X170125938Y-162657971D02*
X170054509Y-162515114D01*
X170054509Y-162515114D02*
X169983081Y-162229400D01*
X169983081Y-162229400D02*
X169983081Y-161872257D01*
X169983081Y-161872257D02*
X170054509Y-161586542D01*
X170054509Y-161586542D02*
X170125938Y-161443685D01*
X170125938Y-161443685D02*
X170197367Y-161372257D01*
X170197367Y-161372257D02*
X170340224Y-161300828D01*
X171768795Y-161300828D02*
X171911652Y-161300828D01*
X171911652Y-161300828D02*
X172054509Y-161372257D01*
X172054509Y-161372257D02*
X172125938Y-161443685D01*
X172125938Y-161443685D02*
X172197366Y-161586542D01*
X172197366Y-161586542D02*
X172268795Y-161872257D01*
X172268795Y-161872257D02*
X172268795Y-162229400D01*
X172268795Y-162229400D02*
X172197366Y-162515114D01*
X172197366Y-162515114D02*
X172125938Y-162657971D01*
X172125938Y-162657971D02*
X172054509Y-162729400D01*
X172054509Y-162729400D02*
X171911652Y-162800828D01*
X171911652Y-162800828D02*
X171768795Y-162800828D01*
X171768795Y-162800828D02*
X171625938Y-162729400D01*
X171625938Y-162729400D02*
X171554509Y-162657971D01*
X171554509Y-162657971D02*
X171483080Y-162515114D01*
X171483080Y-162515114D02*
X171411652Y-162229400D01*
X171411652Y-162229400D02*
X171411652Y-161872257D01*
X171411652Y-161872257D02*
X171483080Y-161586542D01*
X171483080Y-161586542D02*
X171554509Y-161443685D01*
X171554509Y-161443685D02*
X171625938Y-161372257D01*
X171625938Y-161372257D02*
X171768795Y-161300828D01*
X173697366Y-162800828D02*
X172840223Y-162800828D01*
X173268794Y-162800828D02*
X173268794Y-161300828D01*
X173268794Y-161300828D02*
X173125937Y-161515114D01*
X173125937Y-161515114D02*
X172983080Y-161657971D01*
X172983080Y-161657971D02*
X172840223Y-161729400D01*
D11*
X114666666Y-101454819D02*
X114666666Y-102169104D01*
X114666666Y-102169104D02*
X114619047Y-102311961D01*
X114619047Y-102311961D02*
X114523809Y-102407200D01*
X114523809Y-102407200D02*
X114380952Y-102454819D01*
X114380952Y-102454819D02*
X114285714Y-102454819D01*
X115047619Y-101454819D02*
X115666666Y-101454819D01*
X115666666Y-101454819D02*
X115333333Y-101835771D01*
X115333333Y-101835771D02*
X115476190Y-101835771D01*
X115476190Y-101835771D02*
X115571428Y-101883390D01*
X115571428Y-101883390D02*
X115619047Y-101931009D01*
X115619047Y-101931009D02*
X115666666Y-102026247D01*
X115666666Y-102026247D02*
X115666666Y-102264342D01*
X115666666Y-102264342D02*
X115619047Y-102359580D01*
X115619047Y-102359580D02*
X115571428Y-102407200D01*
X115571428Y-102407200D02*
X115476190Y-102454819D01*
X115476190Y-102454819D02*
X115190476Y-102454819D01*
X115190476Y-102454819D02*
X115095238Y-102407200D01*
X115095238Y-102407200D02*
X115047619Y-102359580D01*
X130833333Y-102359580D02*
X130785714Y-102407200D01*
X130785714Y-102407200D02*
X130642857Y-102454819D01*
X130642857Y-102454819D02*
X130547619Y-102454819D01*
X130547619Y-102454819D02*
X130404762Y-102407200D01*
X130404762Y-102407200D02*
X130309524Y-102311961D01*
X130309524Y-102311961D02*
X130261905Y-102216723D01*
X130261905Y-102216723D02*
X130214286Y-102026247D01*
X130214286Y-102026247D02*
X130214286Y-101883390D01*
X130214286Y-101883390D02*
X130261905Y-101692914D01*
X130261905Y-101692914D02*
X130309524Y-101597676D01*
X130309524Y-101597676D02*
X130404762Y-101502438D01*
X130404762Y-101502438D02*
X130547619Y-101454819D01*
X130547619Y-101454819D02*
X130642857Y-101454819D01*
X130642857Y-101454819D02*
X130785714Y-101502438D01*
X130785714Y-101502438D02*
X130833333Y-101550057D01*
X131690476Y-101788152D02*
X131690476Y-102454819D01*
X131452381Y-101407200D02*
X131214286Y-102121485D01*
X131214286Y-102121485D02*
X131833333Y-102121485D01*
X109666666Y-145454819D02*
X109666666Y-146169104D01*
X109666666Y-146169104D02*
X109619047Y-146311961D01*
X109619047Y-146311961D02*
X109523809Y-146407200D01*
X109523809Y-146407200D02*
X109380952Y-146454819D01*
X109380952Y-146454819D02*
X109285714Y-146454819D01*
X110666666Y-146454819D02*
X110095238Y-146454819D01*
X110380952Y-146454819D02*
X110380952Y-145454819D01*
X110380952Y-145454819D02*
X110285714Y-145597676D01*
X110285714Y-145597676D02*
X110190476Y-145692914D01*
X110190476Y-145692914D02*
X110095238Y-145740533D01*
X112833333Y-114454819D02*
X112500000Y-113978628D01*
X112261905Y-114454819D02*
X112261905Y-113454819D01*
X112261905Y-113454819D02*
X112642857Y-113454819D01*
X112642857Y-113454819D02*
X112738095Y-113502438D01*
X112738095Y-113502438D02*
X112785714Y-113550057D01*
X112785714Y-113550057D02*
X112833333Y-113645295D01*
X112833333Y-113645295D02*
X112833333Y-113788152D01*
X112833333Y-113788152D02*
X112785714Y-113883390D01*
X112785714Y-113883390D02*
X112738095Y-113931009D01*
X112738095Y-113931009D02*
X112642857Y-113978628D01*
X112642857Y-113978628D02*
X112261905Y-113978628D01*
X113785714Y-114454819D02*
X113214286Y-114454819D01*
X113500000Y-114454819D02*
X113500000Y-113454819D01*
X113500000Y-113454819D02*
X113404762Y-113597676D01*
X113404762Y-113597676D02*
X113309524Y-113692914D01*
X113309524Y-113692914D02*
X113214286Y-113740533D01*
X112833333Y-119454819D02*
X112500000Y-118978628D01*
X112261905Y-119454819D02*
X112261905Y-118454819D01*
X112261905Y-118454819D02*
X112642857Y-118454819D01*
X112642857Y-118454819D02*
X112738095Y-118502438D01*
X112738095Y-118502438D02*
X112785714Y-118550057D01*
X112785714Y-118550057D02*
X112833333Y-118645295D01*
X112833333Y-118645295D02*
X112833333Y-118788152D01*
X112833333Y-118788152D02*
X112785714Y-118883390D01*
X112785714Y-118883390D02*
X112738095Y-118931009D01*
X112738095Y-118931009D02*
X112642857Y-118978628D01*
X112642857Y-118978628D02*
X112261905Y-118978628D01*
X113214286Y-118550057D02*
X113261905Y-118502438D01*
X113261905Y-118502438D02*
X113357143Y-118454819D01*
X113357143Y-118454819D02*
X113595238Y-118454819D01*
X113595238Y-118454819D02*
X113690476Y-118502438D01*
X113690476Y-118502438D02*
X113738095Y-118550057D01*
X113738095Y-118550057D02*
X113785714Y-118645295D01*
X113785714Y-118645295D02*
X113785714Y-118740533D01*
X113785714Y-118740533D02*
X113738095Y-118883390D01*
X113738095Y-118883390D02*
X113166667Y-119454819D01*
X113166667Y-119454819D02*
X113785714Y-119454819D01*
X112833333Y-124454819D02*
X112500000Y-123978628D01*
X112261905Y-124454819D02*
X112261905Y-123454819D01*
X112261905Y-123454819D02*
X112642857Y-123454819D01*
X112642857Y-123454819D02*
X112738095Y-123502438D01*
X112738095Y-123502438D02*
X112785714Y-123550057D01*
X112785714Y-123550057D02*
X112833333Y-123645295D01*
X112833333Y-123645295D02*
X112833333Y-123788152D01*
X112833333Y-123788152D02*
X112785714Y-123883390D01*
X112785714Y-123883390D02*
X112738095Y-123931009D01*
X112738095Y-123931009D02*
X112642857Y-123978628D01*
X112642857Y-123978628D02*
X112261905Y-123978628D01*
X113166667Y-123454819D02*
X113785714Y-123454819D01*
X113785714Y-123454819D02*
X113452381Y-123835771D01*
X113452381Y-123835771D02*
X113595238Y-123835771D01*
X113595238Y-123835771D02*
X113690476Y-123883390D01*
X113690476Y-123883390D02*
X113738095Y-123931009D01*
X113738095Y-123931009D02*
X113785714Y-124026247D01*
X113785714Y-124026247D02*
X113785714Y-124264342D01*
X113785714Y-124264342D02*
X113738095Y-124359580D01*
X113738095Y-124359580D02*
X113690476Y-124407200D01*
X113690476Y-124407200D02*
X113595238Y-124454819D01*
X113595238Y-124454819D02*
X113309524Y-124454819D01*
X113309524Y-124454819D02*
X113214286Y-124407200D01*
X113214286Y-124407200D02*
X113166667Y-124359580D01*
X112833333Y-129454819D02*
X112500000Y-128978628D01*
X112261905Y-129454819D02*
X112261905Y-128454819D01*
X112261905Y-128454819D02*
X112642857Y-128454819D01*
X112642857Y-128454819D02*
X112738095Y-128502438D01*
X112738095Y-128502438D02*
X112785714Y-128550057D01*
X112785714Y-128550057D02*
X112833333Y-128645295D01*
X112833333Y-128645295D02*
X112833333Y-128788152D01*
X112833333Y-128788152D02*
X112785714Y-128883390D01*
X112785714Y-128883390D02*
X112738095Y-128931009D01*
X112738095Y-128931009D02*
X112642857Y-128978628D01*
X112642857Y-128978628D02*
X112261905Y-128978628D01*
X113690476Y-128788152D02*
X113690476Y-129454819D01*
X113452381Y-128407200D02*
X113214286Y-129121485D01*
X113214286Y-129121485D02*
X113833333Y-129121485D01*
X112833333Y-134454819D02*
X112500000Y-133978628D01*
X112261905Y-134454819D02*
X112261905Y-133454819D01*
X112261905Y-133454819D02*
X112642857Y-133454819D01*
X112642857Y-133454819D02*
X112738095Y-133502438D01*
X112738095Y-133502438D02*
X112785714Y-133550057D01*
X112785714Y-133550057D02*
X112833333Y-133645295D01*
X112833333Y-133645295D02*
X112833333Y-133788152D01*
X112833333Y-133788152D02*
X112785714Y-133883390D01*
X112785714Y-133883390D02*
X112738095Y-133931009D01*
X112738095Y-133931009D02*
X112642857Y-133978628D01*
X112642857Y-133978628D02*
X112261905Y-133978628D01*
X113738095Y-133454819D02*
X113261905Y-133454819D01*
X113261905Y-133454819D02*
X113214286Y-133931009D01*
X113214286Y-133931009D02*
X113261905Y-133883390D01*
X113261905Y-133883390D02*
X113357143Y-133835771D01*
X113357143Y-133835771D02*
X113595238Y-133835771D01*
X113595238Y-133835771D02*
X113690476Y-133883390D01*
X113690476Y-133883390D02*
X113738095Y-133931009D01*
X113738095Y-133931009D02*
X113785714Y-134026247D01*
X113785714Y-134026247D02*
X113785714Y-134264342D01*
X113785714Y-134264342D02*
X113738095Y-134359580D01*
X113738095Y-134359580D02*
X113690476Y-134407200D01*
X113690476Y-134407200D02*
X113595238Y-134454819D01*
X113595238Y-134454819D02*
X113357143Y-134454819D01*
X113357143Y-134454819D02*
X113261905Y-134407200D01*
X113261905Y-134407200D02*
X113214286Y-134359580D01*
X112833333Y-138454819D02*
X112500000Y-137978628D01*
X112261905Y-138454819D02*
X112261905Y-137454819D01*
X112261905Y-137454819D02*
X112642857Y-137454819D01*
X112642857Y-137454819D02*
X112738095Y-137502438D01*
X112738095Y-137502438D02*
X112785714Y-137550057D01*
X112785714Y-137550057D02*
X112833333Y-137645295D01*
X112833333Y-137645295D02*
X112833333Y-137788152D01*
X112833333Y-137788152D02*
X112785714Y-137883390D01*
X112785714Y-137883390D02*
X112738095Y-137931009D01*
X112738095Y-137931009D02*
X112642857Y-137978628D01*
X112642857Y-137978628D02*
X112261905Y-137978628D01*
X113690476Y-137454819D02*
X113500000Y-137454819D01*
X113500000Y-137454819D02*
X113404762Y-137502438D01*
X113404762Y-137502438D02*
X113357143Y-137550057D01*
X113357143Y-137550057D02*
X113261905Y-137692914D01*
X113261905Y-137692914D02*
X113214286Y-137883390D01*
X113214286Y-137883390D02*
X113214286Y-138264342D01*
X113214286Y-138264342D02*
X113261905Y-138359580D01*
X113261905Y-138359580D02*
X113309524Y-138407200D01*
X113309524Y-138407200D02*
X113404762Y-138454819D01*
X113404762Y-138454819D02*
X113595238Y-138454819D01*
X113595238Y-138454819D02*
X113690476Y-138407200D01*
X113690476Y-138407200D02*
X113738095Y-138359580D01*
X113738095Y-138359580D02*
X113785714Y-138264342D01*
X113785714Y-138264342D02*
X113785714Y-138026247D01*
X113785714Y-138026247D02*
X113738095Y-137931009D01*
X113738095Y-137931009D02*
X113690476Y-137883390D01*
X113690476Y-137883390D02*
X113595238Y-137835771D01*
X113595238Y-137835771D02*
X113404762Y-137835771D01*
X113404762Y-137835771D02*
X113309524Y-137883390D01*
X113309524Y-137883390D02*
X113261905Y-137931009D01*
X113261905Y-137931009D02*
X113214286Y-138026247D01*
X112833333Y-142454819D02*
X112500000Y-141978628D01*
X112261905Y-142454819D02*
X112261905Y-141454819D01*
X112261905Y-141454819D02*
X112642857Y-141454819D01*
X112642857Y-141454819D02*
X112738095Y-141502438D01*
X112738095Y-141502438D02*
X112785714Y-141550057D01*
X112785714Y-141550057D02*
X112833333Y-141645295D01*
X112833333Y-141645295D02*
X112833333Y-141788152D01*
X112833333Y-141788152D02*
X112785714Y-141883390D01*
X112785714Y-141883390D02*
X112738095Y-141931009D01*
X112738095Y-141931009D02*
X112642857Y-141978628D01*
X112642857Y-141978628D02*
X112261905Y-141978628D01*
X113166667Y-141454819D02*
X113833333Y-141454819D01*
X113833333Y-141454819D02*
X113404762Y-142454819D01*
X132008095Y-111454819D02*
X132008095Y-112264342D01*
X132008095Y-112264342D02*
X132055714Y-112359580D01*
X132055714Y-112359580D02*
X132103333Y-112407200D01*
X132103333Y-112407200D02*
X132198571Y-112454819D01*
X132198571Y-112454819D02*
X132389047Y-112454819D01*
X132389047Y-112454819D02*
X132484285Y-112407200D01*
X132484285Y-112407200D02*
X132531904Y-112359580D01*
X132531904Y-112359580D02*
X132579523Y-112264342D01*
X132579523Y-112264342D02*
X132579523Y-111454819D01*
X133579523Y-112454819D02*
X133008095Y-112454819D01*
X133293809Y-112454819D02*
X133293809Y-111454819D01*
X133293809Y-111454819D02*
X133198571Y-111597676D01*
X133198571Y-111597676D02*
X133103333Y-111692914D01*
X133103333Y-111692914D02*
X133008095Y-111740533D01*
X132548095Y-151454819D02*
X132548095Y-152264342D01*
X132548095Y-152264342D02*
X132595714Y-152359580D01*
X132595714Y-152359580D02*
X132643333Y-152407200D01*
X132643333Y-152407200D02*
X132738571Y-152454819D01*
X132738571Y-152454819D02*
X132929047Y-152454819D01*
X132929047Y-152454819D02*
X133024285Y-152407200D01*
X133024285Y-152407200D02*
X133071904Y-152359580D01*
X133071904Y-152359580D02*
X133119523Y-152264342D01*
X133119523Y-152264342D02*
X133119523Y-151454819D01*
X133548095Y-151550057D02*
X133595714Y-151502438D01*
X133595714Y-151502438D02*
X133690952Y-151454819D01*
X133690952Y-151454819D02*
X133929047Y-151454819D01*
X133929047Y-151454819D02*
X134024285Y-151502438D01*
X134024285Y-151502438D02*
X134071904Y-151550057D01*
X134071904Y-151550057D02*
X134119523Y-151645295D01*
X134119523Y-151645295D02*
X134119523Y-151740533D01*
X134119523Y-151740533D02*
X134071904Y-151883390D01*
X134071904Y-151883390D02*
X133500476Y-152454819D01*
X133500476Y-152454819D02*
X134119523Y-152454819D01*
X146548095Y-142454819D02*
X146548095Y-143264342D01*
X146548095Y-143264342D02*
X146595714Y-143359580D01*
X146595714Y-143359580D02*
X146643333Y-143407200D01*
X146643333Y-143407200D02*
X146738571Y-143454819D01*
X146738571Y-143454819D02*
X146929047Y-143454819D01*
X146929047Y-143454819D02*
X147024285Y-143407200D01*
X147024285Y-143407200D02*
X147071904Y-143359580D01*
X147071904Y-143359580D02*
X147119523Y-143264342D01*
X147119523Y-143264342D02*
X147119523Y-142454819D01*
X147500476Y-142454819D02*
X148119523Y-142454819D01*
X148119523Y-142454819D02*
X147786190Y-142835771D01*
X147786190Y-142835771D02*
X147929047Y-142835771D01*
X147929047Y-142835771D02*
X148024285Y-142883390D01*
X148024285Y-142883390D02*
X148071904Y-142931009D01*
X148071904Y-142931009D02*
X148119523Y-143026247D01*
X148119523Y-143026247D02*
X148119523Y-143264342D01*
X148119523Y-143264342D02*
X148071904Y-143359580D01*
X148071904Y-143359580D02*
X148024285Y-143407200D01*
X148024285Y-143407200D02*
X147929047Y-143454819D01*
X147929047Y-143454819D02*
X147643333Y-143454819D01*
X147643333Y-143454819D02*
X147548095Y-143407200D01*
X147548095Y-143407200D02*
X147500476Y-143359580D01*
X182936666Y-110454819D02*
X182936666Y-111169104D01*
X182936666Y-111169104D02*
X182889047Y-111311961D01*
X182889047Y-111311961D02*
X182793809Y-111407200D01*
X182793809Y-111407200D02*
X182650952Y-111454819D01*
X182650952Y-111454819D02*
X182555714Y-111454819D01*
X183365238Y-110550057D02*
X183412857Y-110502438D01*
X183412857Y-110502438D02*
X183508095Y-110454819D01*
X183508095Y-110454819D02*
X183746190Y-110454819D01*
X183746190Y-110454819D02*
X183841428Y-110502438D01*
X183841428Y-110502438D02*
X183889047Y-110550057D01*
X183889047Y-110550057D02*
X183936666Y-110645295D01*
X183936666Y-110645295D02*
X183936666Y-110740533D01*
X183936666Y-110740533D02*
X183889047Y-110883390D01*
X183889047Y-110883390D02*
X183317619Y-111454819D01*
X183317619Y-111454819D02*
X183936666Y-111454819D01*
X148833333Y-105454819D02*
X148500000Y-104978628D01*
X148261905Y-105454819D02*
X148261905Y-104454819D01*
X148261905Y-104454819D02*
X148642857Y-104454819D01*
X148642857Y-104454819D02*
X148738095Y-104502438D01*
X148738095Y-104502438D02*
X148785714Y-104550057D01*
X148785714Y-104550057D02*
X148833333Y-104645295D01*
X148833333Y-104645295D02*
X148833333Y-104788152D01*
X148833333Y-104788152D02*
X148785714Y-104883390D01*
X148785714Y-104883390D02*
X148738095Y-104931009D01*
X148738095Y-104931009D02*
X148642857Y-104978628D01*
X148642857Y-104978628D02*
X148261905Y-104978628D01*
X149404762Y-104883390D02*
X149309524Y-104835771D01*
X149309524Y-104835771D02*
X149261905Y-104788152D01*
X149261905Y-104788152D02*
X149214286Y-104692914D01*
X149214286Y-104692914D02*
X149214286Y-104645295D01*
X149214286Y-104645295D02*
X149261905Y-104550057D01*
X149261905Y-104550057D02*
X149309524Y-104502438D01*
X149309524Y-104502438D02*
X149404762Y-104454819D01*
X149404762Y-104454819D02*
X149595238Y-104454819D01*
X149595238Y-104454819D02*
X149690476Y-104502438D01*
X149690476Y-104502438D02*
X149738095Y-104550057D01*
X149738095Y-104550057D02*
X149785714Y-104645295D01*
X149785714Y-104645295D02*
X149785714Y-104692914D01*
X149785714Y-104692914D02*
X149738095Y-104788152D01*
X149738095Y-104788152D02*
X149690476Y-104835771D01*
X149690476Y-104835771D02*
X149595238Y-104883390D01*
X149595238Y-104883390D02*
X149404762Y-104883390D01*
X149404762Y-104883390D02*
X149309524Y-104931009D01*
X149309524Y-104931009D02*
X149261905Y-104978628D01*
X149261905Y-104978628D02*
X149214286Y-105073866D01*
X149214286Y-105073866D02*
X149214286Y-105264342D01*
X149214286Y-105264342D02*
X149261905Y-105359580D01*
X149261905Y-105359580D02*
X149309524Y-105407200D01*
X149309524Y-105407200D02*
X149404762Y-105454819D01*
X149404762Y-105454819D02*
X149595238Y-105454819D01*
X149595238Y-105454819D02*
X149690476Y-105407200D01*
X149690476Y-105407200D02*
X149738095Y-105359580D01*
X149738095Y-105359580D02*
X149785714Y-105264342D01*
X149785714Y-105264342D02*
X149785714Y-105073866D01*
X149785714Y-105073866D02*
X149738095Y-104978628D01*
X149738095Y-104978628D02*
X149690476Y-104931009D01*
X149690476Y-104931009D02*
X149595238Y-104883390D01*
X138531905Y-105454819D02*
X138531905Y-104454819D01*
X138531905Y-104454819D02*
X138770000Y-104454819D01*
X138770000Y-104454819D02*
X138912857Y-104502438D01*
X138912857Y-104502438D02*
X139008095Y-104597676D01*
X139008095Y-104597676D02*
X139055714Y-104692914D01*
X139055714Y-104692914D02*
X139103333Y-104883390D01*
X139103333Y-104883390D02*
X139103333Y-105026247D01*
X139103333Y-105026247D02*
X139055714Y-105216723D01*
X139055714Y-105216723D02*
X139008095Y-105311961D01*
X139008095Y-105311961D02*
X138912857Y-105407200D01*
X138912857Y-105407200D02*
X138770000Y-105454819D01*
X138770000Y-105454819D02*
X138531905Y-105454819D01*
X140055714Y-105454819D02*
X139484286Y-105454819D01*
X139770000Y-105454819D02*
X139770000Y-104454819D01*
X139770000Y-104454819D02*
X139674762Y-104597676D01*
X139674762Y-104597676D02*
X139579524Y-104692914D01*
X139579524Y-104692914D02*
X139484286Y-104740533D01*
X156333333Y-117454819D02*
X156000000Y-116978628D01*
X155761905Y-117454819D02*
X155761905Y-116454819D01*
X155761905Y-116454819D02*
X156142857Y-116454819D01*
X156142857Y-116454819D02*
X156238095Y-116502438D01*
X156238095Y-116502438D02*
X156285714Y-116550057D01*
X156285714Y-116550057D02*
X156333333Y-116645295D01*
X156333333Y-116645295D02*
X156333333Y-116788152D01*
X156333333Y-116788152D02*
X156285714Y-116883390D01*
X156285714Y-116883390D02*
X156238095Y-116931009D01*
X156238095Y-116931009D02*
X156142857Y-116978628D01*
X156142857Y-116978628D02*
X155761905Y-116978628D01*
X156809524Y-117454819D02*
X157000000Y-117454819D01*
X157000000Y-117454819D02*
X157095238Y-117407200D01*
X157095238Y-117407200D02*
X157142857Y-117359580D01*
X157142857Y-117359580D02*
X157238095Y-117216723D01*
X157238095Y-117216723D02*
X157285714Y-117026247D01*
X157285714Y-117026247D02*
X157285714Y-116645295D01*
X157285714Y-116645295D02*
X157238095Y-116550057D01*
X157238095Y-116550057D02*
X157190476Y-116502438D01*
X157190476Y-116502438D02*
X157095238Y-116454819D01*
X157095238Y-116454819D02*
X156904762Y-116454819D01*
X156904762Y-116454819D02*
X156809524Y-116502438D01*
X156809524Y-116502438D02*
X156761905Y-116550057D01*
X156761905Y-116550057D02*
X156714286Y-116645295D01*
X156714286Y-116645295D02*
X156714286Y-116883390D01*
X156714286Y-116883390D02*
X156761905Y-116978628D01*
X156761905Y-116978628D02*
X156809524Y-117026247D01*
X156809524Y-117026247D02*
X156904762Y-117073866D01*
X156904762Y-117073866D02*
X157095238Y-117073866D01*
X157095238Y-117073866D02*
X157190476Y-117026247D01*
X157190476Y-117026247D02*
X157238095Y-116978628D01*
X157238095Y-116978628D02*
X157285714Y-116883390D01*
X155857142Y-124454819D02*
X155523809Y-123978628D01*
X155285714Y-124454819D02*
X155285714Y-123454819D01*
X155285714Y-123454819D02*
X155666666Y-123454819D01*
X155666666Y-123454819D02*
X155761904Y-123502438D01*
X155761904Y-123502438D02*
X155809523Y-123550057D01*
X155809523Y-123550057D02*
X155857142Y-123645295D01*
X155857142Y-123645295D02*
X155857142Y-123788152D01*
X155857142Y-123788152D02*
X155809523Y-123883390D01*
X155809523Y-123883390D02*
X155761904Y-123931009D01*
X155761904Y-123931009D02*
X155666666Y-123978628D01*
X155666666Y-123978628D02*
X155285714Y-123978628D01*
X156809523Y-124454819D02*
X156238095Y-124454819D01*
X156523809Y-124454819D02*
X156523809Y-123454819D01*
X156523809Y-123454819D02*
X156428571Y-123597676D01*
X156428571Y-123597676D02*
X156333333Y-123692914D01*
X156333333Y-123692914D02*
X156238095Y-123740533D01*
X157428571Y-123454819D02*
X157523809Y-123454819D01*
X157523809Y-123454819D02*
X157619047Y-123502438D01*
X157619047Y-123502438D02*
X157666666Y-123550057D01*
X157666666Y-123550057D02*
X157714285Y-123645295D01*
X157714285Y-123645295D02*
X157761904Y-123835771D01*
X157761904Y-123835771D02*
X157761904Y-124073866D01*
X157761904Y-124073866D02*
X157714285Y-124264342D01*
X157714285Y-124264342D02*
X157666666Y-124359580D01*
X157666666Y-124359580D02*
X157619047Y-124407200D01*
X157619047Y-124407200D02*
X157523809Y-124454819D01*
X157523809Y-124454819D02*
X157428571Y-124454819D01*
X157428571Y-124454819D02*
X157333333Y-124407200D01*
X157333333Y-124407200D02*
X157285714Y-124359580D01*
X157285714Y-124359580D02*
X157238095Y-124264342D01*
X157238095Y-124264342D02*
X157190476Y-124073866D01*
X157190476Y-124073866D02*
X157190476Y-123835771D01*
X157190476Y-123835771D02*
X157238095Y-123645295D01*
X157238095Y-123645295D02*
X157285714Y-123550057D01*
X157285714Y-123550057D02*
X157333333Y-123502438D01*
X157333333Y-123502438D02*
X157428571Y-123454819D01*
X155857142Y-131454819D02*
X155523809Y-130978628D01*
X155285714Y-131454819D02*
X155285714Y-130454819D01*
X155285714Y-130454819D02*
X155666666Y-130454819D01*
X155666666Y-130454819D02*
X155761904Y-130502438D01*
X155761904Y-130502438D02*
X155809523Y-130550057D01*
X155809523Y-130550057D02*
X155857142Y-130645295D01*
X155857142Y-130645295D02*
X155857142Y-130788152D01*
X155857142Y-130788152D02*
X155809523Y-130883390D01*
X155809523Y-130883390D02*
X155761904Y-130931009D01*
X155761904Y-130931009D02*
X155666666Y-130978628D01*
X155666666Y-130978628D02*
X155285714Y-130978628D01*
X156809523Y-131454819D02*
X156238095Y-131454819D01*
X156523809Y-131454819D02*
X156523809Y-130454819D01*
X156523809Y-130454819D02*
X156428571Y-130597676D01*
X156428571Y-130597676D02*
X156333333Y-130692914D01*
X156333333Y-130692914D02*
X156238095Y-130740533D01*
X157761904Y-131454819D02*
X157190476Y-131454819D01*
X157476190Y-131454819D02*
X157476190Y-130454819D01*
X157476190Y-130454819D02*
X157380952Y-130597676D01*
X157380952Y-130597676D02*
X157285714Y-130692914D01*
X157285714Y-130692914D02*
X157190476Y-130740533D01*
X155857142Y-138454819D02*
X155523809Y-137978628D01*
X155285714Y-138454819D02*
X155285714Y-137454819D01*
X155285714Y-137454819D02*
X155666666Y-137454819D01*
X155666666Y-137454819D02*
X155761904Y-137502438D01*
X155761904Y-137502438D02*
X155809523Y-137550057D01*
X155809523Y-137550057D02*
X155857142Y-137645295D01*
X155857142Y-137645295D02*
X155857142Y-137788152D01*
X155857142Y-137788152D02*
X155809523Y-137883390D01*
X155809523Y-137883390D02*
X155761904Y-137931009D01*
X155761904Y-137931009D02*
X155666666Y-137978628D01*
X155666666Y-137978628D02*
X155285714Y-137978628D01*
X156809523Y-138454819D02*
X156238095Y-138454819D01*
X156523809Y-138454819D02*
X156523809Y-137454819D01*
X156523809Y-137454819D02*
X156428571Y-137597676D01*
X156428571Y-137597676D02*
X156333333Y-137692914D01*
X156333333Y-137692914D02*
X156238095Y-137740533D01*
X157190476Y-137550057D02*
X157238095Y-137502438D01*
X157238095Y-137502438D02*
X157333333Y-137454819D01*
X157333333Y-137454819D02*
X157571428Y-137454819D01*
X157571428Y-137454819D02*
X157666666Y-137502438D01*
X157666666Y-137502438D02*
X157714285Y-137550057D01*
X157714285Y-137550057D02*
X157761904Y-137645295D01*
X157761904Y-137645295D02*
X157761904Y-137740533D01*
X157761904Y-137740533D02*
X157714285Y-137883390D01*
X157714285Y-137883390D02*
X157142857Y-138454819D01*
X157142857Y-138454819D02*
X157761904Y-138454819D01*
X122333333Y-154359580D02*
X122285714Y-154407200D01*
X122285714Y-154407200D02*
X122142857Y-154454819D01*
X122142857Y-154454819D02*
X122047619Y-154454819D01*
X122047619Y-154454819D02*
X121904762Y-154407200D01*
X121904762Y-154407200D02*
X121809524Y-154311961D01*
X121809524Y-154311961D02*
X121761905Y-154216723D01*
X121761905Y-154216723D02*
X121714286Y-154026247D01*
X121714286Y-154026247D02*
X121714286Y-153883390D01*
X121714286Y-153883390D02*
X121761905Y-153692914D01*
X121761905Y-153692914D02*
X121809524Y-153597676D01*
X121809524Y-153597676D02*
X121904762Y-153502438D01*
X121904762Y-153502438D02*
X122047619Y-153454819D01*
X122047619Y-153454819D02*
X122142857Y-153454819D01*
X122142857Y-153454819D02*
X122285714Y-153502438D01*
X122285714Y-153502438D02*
X122333333Y-153550057D01*
X123285714Y-154454819D02*
X122714286Y-154454819D01*
X123000000Y-154454819D02*
X123000000Y-153454819D01*
X123000000Y-153454819D02*
X122904762Y-153597676D01*
X122904762Y-153597676D02*
X122809524Y-153692914D01*
X122809524Y-153692914D02*
X122714286Y-153740533D01*
X157833333Y-145359580D02*
X157785714Y-145407200D01*
X157785714Y-145407200D02*
X157642857Y-145454819D01*
X157642857Y-145454819D02*
X157547619Y-145454819D01*
X157547619Y-145454819D02*
X157404762Y-145407200D01*
X157404762Y-145407200D02*
X157309524Y-145311961D01*
X157309524Y-145311961D02*
X157261905Y-145216723D01*
X157261905Y-145216723D02*
X157214286Y-145026247D01*
X157214286Y-145026247D02*
X157214286Y-144883390D01*
X157214286Y-144883390D02*
X157261905Y-144692914D01*
X157261905Y-144692914D02*
X157309524Y-144597676D01*
X157309524Y-144597676D02*
X157404762Y-144502438D01*
X157404762Y-144502438D02*
X157547619Y-144454819D01*
X157547619Y-144454819D02*
X157642857Y-144454819D01*
X157642857Y-144454819D02*
X157785714Y-144502438D01*
X157785714Y-144502438D02*
X157833333Y-144550057D01*
X158214286Y-144550057D02*
X158261905Y-144502438D01*
X158261905Y-144502438D02*
X158357143Y-144454819D01*
X158357143Y-144454819D02*
X158595238Y-144454819D01*
X158595238Y-144454819D02*
X158690476Y-144502438D01*
X158690476Y-144502438D02*
X158738095Y-144550057D01*
X158738095Y-144550057D02*
X158785714Y-144645295D01*
X158785714Y-144645295D02*
X158785714Y-144740533D01*
X158785714Y-144740533D02*
X158738095Y-144883390D01*
X158738095Y-144883390D02*
X158166667Y-145454819D01*
X158166667Y-145454819D02*
X158785714Y-145454819D01*
X159833333Y-109359580D02*
X159785714Y-109407200D01*
X159785714Y-109407200D02*
X159642857Y-109454819D01*
X159642857Y-109454819D02*
X159547619Y-109454819D01*
X159547619Y-109454819D02*
X159404762Y-109407200D01*
X159404762Y-109407200D02*
X159309524Y-109311961D01*
X159309524Y-109311961D02*
X159261905Y-109216723D01*
X159261905Y-109216723D02*
X159214286Y-109026247D01*
X159214286Y-109026247D02*
X159214286Y-108883390D01*
X159214286Y-108883390D02*
X159261905Y-108692914D01*
X159261905Y-108692914D02*
X159309524Y-108597676D01*
X159309524Y-108597676D02*
X159404762Y-108502438D01*
X159404762Y-108502438D02*
X159547619Y-108454819D01*
X159547619Y-108454819D02*
X159642857Y-108454819D01*
X159642857Y-108454819D02*
X159785714Y-108502438D01*
X159785714Y-108502438D02*
X159833333Y-108550057D01*
X160166667Y-108454819D02*
X160785714Y-108454819D01*
X160785714Y-108454819D02*
X160452381Y-108835771D01*
X160452381Y-108835771D02*
X160595238Y-108835771D01*
X160595238Y-108835771D02*
X160690476Y-108883390D01*
X160690476Y-108883390D02*
X160738095Y-108931009D01*
X160738095Y-108931009D02*
X160785714Y-109026247D01*
X160785714Y-109026247D02*
X160785714Y-109264342D01*
X160785714Y-109264342D02*
X160738095Y-109359580D01*
X160738095Y-109359580D02*
X160690476Y-109407200D01*
X160690476Y-109407200D02*
X160595238Y-109454819D01*
X160595238Y-109454819D02*
X160309524Y-109454819D01*
X160309524Y-109454819D02*
X160214286Y-109407200D01*
X160214286Y-109407200D02*
X160166667Y-109359580D01*
M02*
