%TF.GenerationSoftware,KiCad,Pcbnew,9.0.7*%
%TF.CreationDate,2026-03-09T00:42:12+02:00*%
%TF.ProjectId,64korppu-E,36346b6f-7270-4707-952d-452e6b696361,rev?*%
%TF.SameCoordinates,Original*%
%TF.FileFunction,Legend,Top*%
%TF.FilePolarity,Positive*%
%FSLAX46Y46*%
G04 Gerber Fmt 4.6, Leading zero omitted, Abs format (unit mm)*
G04 Created by KiCad (PCBNEW 9.0.7) date 2026-03-09 00:42:12*
%MOMM*%
%LPD*%
G01*
G04 APERTURE LIST*
%ADD10C,0.150000*%
G04 APERTURE END LIST*
D10*
X113666666Y-101454819D02*
X113666666Y-102169104D01*
X113666666Y-102169104D02*
X113619047Y-102311961D01*
X113619047Y-102311961D02*
X113523809Y-102407200D01*
X113523809Y-102407200D02*
X113380952Y-102454819D01*
X113380952Y-102454819D02*
X113285714Y-102454819D01*
X114047619Y-101454819D02*
X114666666Y-101454819D01*
X114666666Y-101454819D02*
X114333333Y-101835771D01*
X114333333Y-101835771D02*
X114476190Y-101835771D01*
X114476190Y-101835771D02*
X114571428Y-101883390D01*
X114571428Y-101883390D02*
X114619047Y-101931009D01*
X114619047Y-101931009D02*
X114666666Y-102026247D01*
X114666666Y-102026247D02*
X114666666Y-102264342D01*
X114666666Y-102264342D02*
X114619047Y-102359580D01*
X114619047Y-102359580D02*
X114571428Y-102407200D01*
X114571428Y-102407200D02*
X114476190Y-102454819D01*
X114476190Y-102454819D02*
X114190476Y-102454819D01*
X114190476Y-102454819D02*
X114095238Y-102407200D01*
X114095238Y-102407200D02*
X114047619Y-102359580D01*
X125833333Y-101359580D02*
X125785714Y-101407200D01*
X125785714Y-101407200D02*
X125642857Y-101454819D01*
X125642857Y-101454819D02*
X125547619Y-101454819D01*
X125547619Y-101454819D02*
X125404762Y-101407200D01*
X125404762Y-101407200D02*
X125309524Y-101311961D01*
X125309524Y-101311961D02*
X125261905Y-101216723D01*
X125261905Y-101216723D02*
X125214286Y-101026247D01*
X125214286Y-101026247D02*
X125214286Y-100883390D01*
X125214286Y-100883390D02*
X125261905Y-100692914D01*
X125261905Y-100692914D02*
X125309524Y-100597676D01*
X125309524Y-100597676D02*
X125404762Y-100502438D01*
X125404762Y-100502438D02*
X125547619Y-100454819D01*
X125547619Y-100454819D02*
X125642857Y-100454819D01*
X125642857Y-100454819D02*
X125785714Y-100502438D01*
X125785714Y-100502438D02*
X125833333Y-100550057D01*
X126690476Y-100788152D02*
X126690476Y-101454819D01*
X126452381Y-100407200D02*
X126214286Y-101121485D01*
X126214286Y-101121485D02*
X126833333Y-101121485D01*
X113666666Y-141454819D02*
X113666666Y-142169104D01*
X113666666Y-142169104D02*
X113619047Y-142311961D01*
X113619047Y-142311961D02*
X113523809Y-142407200D01*
X113523809Y-142407200D02*
X113380952Y-142454819D01*
X113380952Y-142454819D02*
X113285714Y-142454819D01*
X114666666Y-142454819D02*
X114095238Y-142454819D01*
X114380952Y-142454819D02*
X114380952Y-141454819D01*
X114380952Y-141454819D02*
X114285714Y-141597676D01*
X114285714Y-141597676D02*
X114190476Y-141692914D01*
X114190476Y-141692914D02*
X114095238Y-141740533D01*
X112833333Y-114454819D02*
X112500000Y-113978628D01*
X112261905Y-114454819D02*
X112261905Y-113454819D01*
X112261905Y-113454819D02*
X112642857Y-113454819D01*
X112642857Y-113454819D02*
X112738095Y-113502438D01*
X112738095Y-113502438D02*
X112785714Y-113550057D01*
X112785714Y-113550057D02*
X112833333Y-113645295D01*
X112833333Y-113645295D02*
X112833333Y-113788152D01*
X112833333Y-113788152D02*
X112785714Y-113883390D01*
X112785714Y-113883390D02*
X112738095Y-113931009D01*
X112738095Y-113931009D02*
X112642857Y-113978628D01*
X112642857Y-113978628D02*
X112261905Y-113978628D01*
X113785714Y-114454819D02*
X113214286Y-114454819D01*
X113500000Y-114454819D02*
X113500000Y-113454819D01*
X113500000Y-113454819D02*
X113404762Y-113597676D01*
X113404762Y-113597676D02*
X113309524Y-113692914D01*
X113309524Y-113692914D02*
X113214286Y-113740533D01*
X112833333Y-118454819D02*
X112500000Y-117978628D01*
X112261905Y-118454819D02*
X112261905Y-117454819D01*
X112261905Y-117454819D02*
X112642857Y-117454819D01*
X112642857Y-117454819D02*
X112738095Y-117502438D01*
X112738095Y-117502438D02*
X112785714Y-117550057D01*
X112785714Y-117550057D02*
X112833333Y-117645295D01*
X112833333Y-117645295D02*
X112833333Y-117788152D01*
X112833333Y-117788152D02*
X112785714Y-117883390D01*
X112785714Y-117883390D02*
X112738095Y-117931009D01*
X112738095Y-117931009D02*
X112642857Y-117978628D01*
X112642857Y-117978628D02*
X112261905Y-117978628D01*
X113214286Y-117550057D02*
X113261905Y-117502438D01*
X113261905Y-117502438D02*
X113357143Y-117454819D01*
X113357143Y-117454819D02*
X113595238Y-117454819D01*
X113595238Y-117454819D02*
X113690476Y-117502438D01*
X113690476Y-117502438D02*
X113738095Y-117550057D01*
X113738095Y-117550057D02*
X113785714Y-117645295D01*
X113785714Y-117645295D02*
X113785714Y-117740533D01*
X113785714Y-117740533D02*
X113738095Y-117883390D01*
X113738095Y-117883390D02*
X113166667Y-118454819D01*
X113166667Y-118454819D02*
X113785714Y-118454819D01*
X112833333Y-122454819D02*
X112500000Y-121978628D01*
X112261905Y-122454819D02*
X112261905Y-121454819D01*
X112261905Y-121454819D02*
X112642857Y-121454819D01*
X112642857Y-121454819D02*
X112738095Y-121502438D01*
X112738095Y-121502438D02*
X112785714Y-121550057D01*
X112785714Y-121550057D02*
X112833333Y-121645295D01*
X112833333Y-121645295D02*
X112833333Y-121788152D01*
X112833333Y-121788152D02*
X112785714Y-121883390D01*
X112785714Y-121883390D02*
X112738095Y-121931009D01*
X112738095Y-121931009D02*
X112642857Y-121978628D01*
X112642857Y-121978628D02*
X112261905Y-121978628D01*
X113166667Y-121454819D02*
X113785714Y-121454819D01*
X113785714Y-121454819D02*
X113452381Y-121835771D01*
X113452381Y-121835771D02*
X113595238Y-121835771D01*
X113595238Y-121835771D02*
X113690476Y-121883390D01*
X113690476Y-121883390D02*
X113738095Y-121931009D01*
X113738095Y-121931009D02*
X113785714Y-122026247D01*
X113785714Y-122026247D02*
X113785714Y-122264342D01*
X113785714Y-122264342D02*
X113738095Y-122359580D01*
X113738095Y-122359580D02*
X113690476Y-122407200D01*
X113690476Y-122407200D02*
X113595238Y-122454819D01*
X113595238Y-122454819D02*
X113309524Y-122454819D01*
X113309524Y-122454819D02*
X113214286Y-122407200D01*
X113214286Y-122407200D02*
X113166667Y-122359580D01*
X112833333Y-126454819D02*
X112500000Y-125978628D01*
X112261905Y-126454819D02*
X112261905Y-125454819D01*
X112261905Y-125454819D02*
X112642857Y-125454819D01*
X112642857Y-125454819D02*
X112738095Y-125502438D01*
X112738095Y-125502438D02*
X112785714Y-125550057D01*
X112785714Y-125550057D02*
X112833333Y-125645295D01*
X112833333Y-125645295D02*
X112833333Y-125788152D01*
X112833333Y-125788152D02*
X112785714Y-125883390D01*
X112785714Y-125883390D02*
X112738095Y-125931009D01*
X112738095Y-125931009D02*
X112642857Y-125978628D01*
X112642857Y-125978628D02*
X112261905Y-125978628D01*
X113690476Y-125788152D02*
X113690476Y-126454819D01*
X113452381Y-125407200D02*
X113214286Y-126121485D01*
X113214286Y-126121485D02*
X113833333Y-126121485D01*
X112833333Y-130454819D02*
X112500000Y-129978628D01*
X112261905Y-130454819D02*
X112261905Y-129454819D01*
X112261905Y-129454819D02*
X112642857Y-129454819D01*
X112642857Y-129454819D02*
X112738095Y-129502438D01*
X112738095Y-129502438D02*
X112785714Y-129550057D01*
X112785714Y-129550057D02*
X112833333Y-129645295D01*
X112833333Y-129645295D02*
X112833333Y-129788152D01*
X112833333Y-129788152D02*
X112785714Y-129883390D01*
X112785714Y-129883390D02*
X112738095Y-129931009D01*
X112738095Y-129931009D02*
X112642857Y-129978628D01*
X112642857Y-129978628D02*
X112261905Y-129978628D01*
X113738095Y-129454819D02*
X113261905Y-129454819D01*
X113261905Y-129454819D02*
X113214286Y-129931009D01*
X113214286Y-129931009D02*
X113261905Y-129883390D01*
X113261905Y-129883390D02*
X113357143Y-129835771D01*
X113357143Y-129835771D02*
X113595238Y-129835771D01*
X113595238Y-129835771D02*
X113690476Y-129883390D01*
X113690476Y-129883390D02*
X113738095Y-129931009D01*
X113738095Y-129931009D02*
X113785714Y-130026247D01*
X113785714Y-130026247D02*
X113785714Y-130264342D01*
X113785714Y-130264342D02*
X113738095Y-130359580D01*
X113738095Y-130359580D02*
X113690476Y-130407200D01*
X113690476Y-130407200D02*
X113595238Y-130454819D01*
X113595238Y-130454819D02*
X113357143Y-130454819D01*
X113357143Y-130454819D02*
X113261905Y-130407200D01*
X113261905Y-130407200D02*
X113214286Y-130359580D01*
X112833333Y-134454819D02*
X112500000Y-133978628D01*
X112261905Y-134454819D02*
X112261905Y-133454819D01*
X112261905Y-133454819D02*
X112642857Y-133454819D01*
X112642857Y-133454819D02*
X112738095Y-133502438D01*
X112738095Y-133502438D02*
X112785714Y-133550057D01*
X112785714Y-133550057D02*
X112833333Y-133645295D01*
X112833333Y-133645295D02*
X112833333Y-133788152D01*
X112833333Y-133788152D02*
X112785714Y-133883390D01*
X112785714Y-133883390D02*
X112738095Y-133931009D01*
X112738095Y-133931009D02*
X112642857Y-133978628D01*
X112642857Y-133978628D02*
X112261905Y-133978628D01*
X113690476Y-133454819D02*
X113500000Y-133454819D01*
X113500000Y-133454819D02*
X113404762Y-133502438D01*
X113404762Y-133502438D02*
X113357143Y-133550057D01*
X113357143Y-133550057D02*
X113261905Y-133692914D01*
X113261905Y-133692914D02*
X113214286Y-133883390D01*
X113214286Y-133883390D02*
X113214286Y-134264342D01*
X113214286Y-134264342D02*
X113261905Y-134359580D01*
X113261905Y-134359580D02*
X113309524Y-134407200D01*
X113309524Y-134407200D02*
X113404762Y-134454819D01*
X113404762Y-134454819D02*
X113595238Y-134454819D01*
X113595238Y-134454819D02*
X113690476Y-134407200D01*
X113690476Y-134407200D02*
X113738095Y-134359580D01*
X113738095Y-134359580D02*
X113785714Y-134264342D01*
X113785714Y-134264342D02*
X113785714Y-134026247D01*
X113785714Y-134026247D02*
X113738095Y-133931009D01*
X113738095Y-133931009D02*
X113690476Y-133883390D01*
X113690476Y-133883390D02*
X113595238Y-133835771D01*
X113595238Y-133835771D02*
X113404762Y-133835771D01*
X113404762Y-133835771D02*
X113309524Y-133883390D01*
X113309524Y-133883390D02*
X113261905Y-133931009D01*
X113261905Y-133931009D02*
X113214286Y-134026247D01*
X112833333Y-138454819D02*
X112500000Y-137978628D01*
X112261905Y-138454819D02*
X112261905Y-137454819D01*
X112261905Y-137454819D02*
X112642857Y-137454819D01*
X112642857Y-137454819D02*
X112738095Y-137502438D01*
X112738095Y-137502438D02*
X112785714Y-137550057D01*
X112785714Y-137550057D02*
X112833333Y-137645295D01*
X112833333Y-137645295D02*
X112833333Y-137788152D01*
X112833333Y-137788152D02*
X112785714Y-137883390D01*
X112785714Y-137883390D02*
X112738095Y-137931009D01*
X112738095Y-137931009D02*
X112642857Y-137978628D01*
X112642857Y-137978628D02*
X112261905Y-137978628D01*
X113166667Y-137454819D02*
X113833333Y-137454819D01*
X113833333Y-137454819D02*
X113404762Y-138454819D01*
X135508095Y-108454819D02*
X135508095Y-109264342D01*
X135508095Y-109264342D02*
X135555714Y-109359580D01*
X135555714Y-109359580D02*
X135603333Y-109407200D01*
X135603333Y-109407200D02*
X135698571Y-109454819D01*
X135698571Y-109454819D02*
X135889047Y-109454819D01*
X135889047Y-109454819D02*
X135984285Y-109407200D01*
X135984285Y-109407200D02*
X136031904Y-109359580D01*
X136031904Y-109359580D02*
X136079523Y-109264342D01*
X136079523Y-109264342D02*
X136079523Y-108454819D01*
X137079523Y-109454819D02*
X136508095Y-109454819D01*
X136793809Y-109454819D02*
X136793809Y-108454819D01*
X136793809Y-108454819D02*
X136698571Y-108597676D01*
X136698571Y-108597676D02*
X136603333Y-108692914D01*
X136603333Y-108692914D02*
X136508095Y-108740533D01*
X128048095Y-147454819D02*
X128048095Y-148264342D01*
X128048095Y-148264342D02*
X128095714Y-148359580D01*
X128095714Y-148359580D02*
X128143333Y-148407200D01*
X128143333Y-148407200D02*
X128238571Y-148454819D01*
X128238571Y-148454819D02*
X128429047Y-148454819D01*
X128429047Y-148454819D02*
X128524285Y-148407200D01*
X128524285Y-148407200D02*
X128571904Y-148359580D01*
X128571904Y-148359580D02*
X128619523Y-148264342D01*
X128619523Y-148264342D02*
X128619523Y-147454819D01*
X129048095Y-147550057D02*
X129095714Y-147502438D01*
X129095714Y-147502438D02*
X129190952Y-147454819D01*
X129190952Y-147454819D02*
X129429047Y-147454819D01*
X129429047Y-147454819D02*
X129524285Y-147502438D01*
X129524285Y-147502438D02*
X129571904Y-147550057D01*
X129571904Y-147550057D02*
X129619523Y-147645295D01*
X129619523Y-147645295D02*
X129619523Y-147740533D01*
X129619523Y-147740533D02*
X129571904Y-147883390D01*
X129571904Y-147883390D02*
X129000476Y-148454819D01*
X129000476Y-148454819D02*
X129619523Y-148454819D01*
X151048095Y-129454819D02*
X151048095Y-130264342D01*
X151048095Y-130264342D02*
X151095714Y-130359580D01*
X151095714Y-130359580D02*
X151143333Y-130407200D01*
X151143333Y-130407200D02*
X151238571Y-130454819D01*
X151238571Y-130454819D02*
X151429047Y-130454819D01*
X151429047Y-130454819D02*
X151524285Y-130407200D01*
X151524285Y-130407200D02*
X151571904Y-130359580D01*
X151571904Y-130359580D02*
X151619523Y-130264342D01*
X151619523Y-130264342D02*
X151619523Y-129454819D01*
X152000476Y-129454819D02*
X152619523Y-129454819D01*
X152619523Y-129454819D02*
X152286190Y-129835771D01*
X152286190Y-129835771D02*
X152429047Y-129835771D01*
X152429047Y-129835771D02*
X152524285Y-129883390D01*
X152524285Y-129883390D02*
X152571904Y-129931009D01*
X152571904Y-129931009D02*
X152619523Y-130026247D01*
X152619523Y-130026247D02*
X152619523Y-130264342D01*
X152619523Y-130264342D02*
X152571904Y-130359580D01*
X152571904Y-130359580D02*
X152524285Y-130407200D01*
X152524285Y-130407200D02*
X152429047Y-130454819D01*
X152429047Y-130454819D02*
X152143333Y-130454819D01*
X152143333Y-130454819D02*
X152048095Y-130407200D01*
X152048095Y-130407200D02*
X152000476Y-130359580D01*
X159666666Y-129454819D02*
X159666666Y-130169104D01*
X159666666Y-130169104D02*
X159619047Y-130311961D01*
X159619047Y-130311961D02*
X159523809Y-130407200D01*
X159523809Y-130407200D02*
X159380952Y-130454819D01*
X159380952Y-130454819D02*
X159285714Y-130454819D01*
X160095238Y-129550057D02*
X160142857Y-129502438D01*
X160142857Y-129502438D02*
X160238095Y-129454819D01*
X160238095Y-129454819D02*
X160476190Y-129454819D01*
X160476190Y-129454819D02*
X160571428Y-129502438D01*
X160571428Y-129502438D02*
X160619047Y-129550057D01*
X160619047Y-129550057D02*
X160666666Y-129645295D01*
X160666666Y-129645295D02*
X160666666Y-129740533D01*
X160666666Y-129740533D02*
X160619047Y-129883390D01*
X160619047Y-129883390D02*
X160047619Y-130454819D01*
X160047619Y-130454819D02*
X160666666Y-130454819D01*
X141833333Y-107454819D02*
X141500000Y-106978628D01*
X141261905Y-107454819D02*
X141261905Y-106454819D01*
X141261905Y-106454819D02*
X141642857Y-106454819D01*
X141642857Y-106454819D02*
X141738095Y-106502438D01*
X141738095Y-106502438D02*
X141785714Y-106550057D01*
X141785714Y-106550057D02*
X141833333Y-106645295D01*
X141833333Y-106645295D02*
X141833333Y-106788152D01*
X141833333Y-106788152D02*
X141785714Y-106883390D01*
X141785714Y-106883390D02*
X141738095Y-106931009D01*
X141738095Y-106931009D02*
X141642857Y-106978628D01*
X141642857Y-106978628D02*
X141261905Y-106978628D01*
X142404762Y-106883390D02*
X142309524Y-106835771D01*
X142309524Y-106835771D02*
X142261905Y-106788152D01*
X142261905Y-106788152D02*
X142214286Y-106692914D01*
X142214286Y-106692914D02*
X142214286Y-106645295D01*
X142214286Y-106645295D02*
X142261905Y-106550057D01*
X142261905Y-106550057D02*
X142309524Y-106502438D01*
X142309524Y-106502438D02*
X142404762Y-106454819D01*
X142404762Y-106454819D02*
X142595238Y-106454819D01*
X142595238Y-106454819D02*
X142690476Y-106502438D01*
X142690476Y-106502438D02*
X142738095Y-106550057D01*
X142738095Y-106550057D02*
X142785714Y-106645295D01*
X142785714Y-106645295D02*
X142785714Y-106692914D01*
X142785714Y-106692914D02*
X142738095Y-106788152D01*
X142738095Y-106788152D02*
X142690476Y-106835771D01*
X142690476Y-106835771D02*
X142595238Y-106883390D01*
X142595238Y-106883390D02*
X142404762Y-106883390D01*
X142404762Y-106883390D02*
X142309524Y-106931009D01*
X142309524Y-106931009D02*
X142261905Y-106978628D01*
X142261905Y-106978628D02*
X142214286Y-107073866D01*
X142214286Y-107073866D02*
X142214286Y-107264342D01*
X142214286Y-107264342D02*
X142261905Y-107359580D01*
X142261905Y-107359580D02*
X142309524Y-107407200D01*
X142309524Y-107407200D02*
X142404762Y-107454819D01*
X142404762Y-107454819D02*
X142595238Y-107454819D01*
X142595238Y-107454819D02*
X142690476Y-107407200D01*
X142690476Y-107407200D02*
X142738095Y-107359580D01*
X142738095Y-107359580D02*
X142785714Y-107264342D01*
X142785714Y-107264342D02*
X142785714Y-107073866D01*
X142785714Y-107073866D02*
X142738095Y-106978628D01*
X142738095Y-106978628D02*
X142690476Y-106931009D01*
X142690476Y-106931009D02*
X142595238Y-106883390D01*
X132531905Y-102454819D02*
X132531905Y-101454819D01*
X132531905Y-101454819D02*
X132770000Y-101454819D01*
X132770000Y-101454819D02*
X132912857Y-101502438D01*
X132912857Y-101502438D02*
X133008095Y-101597676D01*
X133008095Y-101597676D02*
X133055714Y-101692914D01*
X133055714Y-101692914D02*
X133103333Y-101883390D01*
X133103333Y-101883390D02*
X133103333Y-102026247D01*
X133103333Y-102026247D02*
X133055714Y-102216723D01*
X133055714Y-102216723D02*
X133008095Y-102311961D01*
X133008095Y-102311961D02*
X132912857Y-102407200D01*
X132912857Y-102407200D02*
X132770000Y-102454819D01*
X132770000Y-102454819D02*
X132531905Y-102454819D01*
X134055714Y-102454819D02*
X133484286Y-102454819D01*
X133770000Y-102454819D02*
X133770000Y-101454819D01*
X133770000Y-101454819D02*
X133674762Y-101597676D01*
X133674762Y-101597676D02*
X133579524Y-101692914D01*
X133579524Y-101692914D02*
X133484286Y-101740533D01*
X152833333Y-106454819D02*
X152500000Y-105978628D01*
X152261905Y-106454819D02*
X152261905Y-105454819D01*
X152261905Y-105454819D02*
X152642857Y-105454819D01*
X152642857Y-105454819D02*
X152738095Y-105502438D01*
X152738095Y-105502438D02*
X152785714Y-105550057D01*
X152785714Y-105550057D02*
X152833333Y-105645295D01*
X152833333Y-105645295D02*
X152833333Y-105788152D01*
X152833333Y-105788152D02*
X152785714Y-105883390D01*
X152785714Y-105883390D02*
X152738095Y-105931009D01*
X152738095Y-105931009D02*
X152642857Y-105978628D01*
X152642857Y-105978628D02*
X152261905Y-105978628D01*
X153309524Y-106454819D02*
X153500000Y-106454819D01*
X153500000Y-106454819D02*
X153595238Y-106407200D01*
X153595238Y-106407200D02*
X153642857Y-106359580D01*
X153642857Y-106359580D02*
X153738095Y-106216723D01*
X153738095Y-106216723D02*
X153785714Y-106026247D01*
X153785714Y-106026247D02*
X153785714Y-105645295D01*
X153785714Y-105645295D02*
X153738095Y-105550057D01*
X153738095Y-105550057D02*
X153690476Y-105502438D01*
X153690476Y-105502438D02*
X153595238Y-105454819D01*
X153595238Y-105454819D02*
X153404762Y-105454819D01*
X153404762Y-105454819D02*
X153309524Y-105502438D01*
X153309524Y-105502438D02*
X153261905Y-105550057D01*
X153261905Y-105550057D02*
X153214286Y-105645295D01*
X153214286Y-105645295D02*
X153214286Y-105883390D01*
X153214286Y-105883390D02*
X153261905Y-105978628D01*
X153261905Y-105978628D02*
X153309524Y-106026247D01*
X153309524Y-106026247D02*
X153404762Y-106073866D01*
X153404762Y-106073866D02*
X153595238Y-106073866D01*
X153595238Y-106073866D02*
X153690476Y-106026247D01*
X153690476Y-106026247D02*
X153738095Y-105978628D01*
X153738095Y-105978628D02*
X153785714Y-105883390D01*
X152357142Y-111454819D02*
X152023809Y-110978628D01*
X151785714Y-111454819D02*
X151785714Y-110454819D01*
X151785714Y-110454819D02*
X152166666Y-110454819D01*
X152166666Y-110454819D02*
X152261904Y-110502438D01*
X152261904Y-110502438D02*
X152309523Y-110550057D01*
X152309523Y-110550057D02*
X152357142Y-110645295D01*
X152357142Y-110645295D02*
X152357142Y-110788152D01*
X152357142Y-110788152D02*
X152309523Y-110883390D01*
X152309523Y-110883390D02*
X152261904Y-110931009D01*
X152261904Y-110931009D02*
X152166666Y-110978628D01*
X152166666Y-110978628D02*
X151785714Y-110978628D01*
X153309523Y-111454819D02*
X152738095Y-111454819D01*
X153023809Y-111454819D02*
X153023809Y-110454819D01*
X153023809Y-110454819D02*
X152928571Y-110597676D01*
X152928571Y-110597676D02*
X152833333Y-110692914D01*
X152833333Y-110692914D02*
X152738095Y-110740533D01*
X153928571Y-110454819D02*
X154023809Y-110454819D01*
X154023809Y-110454819D02*
X154119047Y-110502438D01*
X154119047Y-110502438D02*
X154166666Y-110550057D01*
X154166666Y-110550057D02*
X154214285Y-110645295D01*
X154214285Y-110645295D02*
X154261904Y-110835771D01*
X154261904Y-110835771D02*
X154261904Y-111073866D01*
X154261904Y-111073866D02*
X154214285Y-111264342D01*
X154214285Y-111264342D02*
X154166666Y-111359580D01*
X154166666Y-111359580D02*
X154119047Y-111407200D01*
X154119047Y-111407200D02*
X154023809Y-111454819D01*
X154023809Y-111454819D02*
X153928571Y-111454819D01*
X153928571Y-111454819D02*
X153833333Y-111407200D01*
X153833333Y-111407200D02*
X153785714Y-111359580D01*
X153785714Y-111359580D02*
X153738095Y-111264342D01*
X153738095Y-111264342D02*
X153690476Y-111073866D01*
X153690476Y-111073866D02*
X153690476Y-110835771D01*
X153690476Y-110835771D02*
X153738095Y-110645295D01*
X153738095Y-110645295D02*
X153785714Y-110550057D01*
X153785714Y-110550057D02*
X153833333Y-110502438D01*
X153833333Y-110502438D02*
X153928571Y-110454819D01*
X152357142Y-116454819D02*
X152023809Y-115978628D01*
X151785714Y-116454819D02*
X151785714Y-115454819D01*
X151785714Y-115454819D02*
X152166666Y-115454819D01*
X152166666Y-115454819D02*
X152261904Y-115502438D01*
X152261904Y-115502438D02*
X152309523Y-115550057D01*
X152309523Y-115550057D02*
X152357142Y-115645295D01*
X152357142Y-115645295D02*
X152357142Y-115788152D01*
X152357142Y-115788152D02*
X152309523Y-115883390D01*
X152309523Y-115883390D02*
X152261904Y-115931009D01*
X152261904Y-115931009D02*
X152166666Y-115978628D01*
X152166666Y-115978628D02*
X151785714Y-115978628D01*
X153309523Y-116454819D02*
X152738095Y-116454819D01*
X153023809Y-116454819D02*
X153023809Y-115454819D01*
X153023809Y-115454819D02*
X152928571Y-115597676D01*
X152928571Y-115597676D02*
X152833333Y-115692914D01*
X152833333Y-115692914D02*
X152738095Y-115740533D01*
X154261904Y-116454819D02*
X153690476Y-116454819D01*
X153976190Y-116454819D02*
X153976190Y-115454819D01*
X153976190Y-115454819D02*
X153880952Y-115597676D01*
X153880952Y-115597676D02*
X153785714Y-115692914D01*
X153785714Y-115692914D02*
X153690476Y-115740533D01*
X152357142Y-121454819D02*
X152023809Y-120978628D01*
X151785714Y-121454819D02*
X151785714Y-120454819D01*
X151785714Y-120454819D02*
X152166666Y-120454819D01*
X152166666Y-120454819D02*
X152261904Y-120502438D01*
X152261904Y-120502438D02*
X152309523Y-120550057D01*
X152309523Y-120550057D02*
X152357142Y-120645295D01*
X152357142Y-120645295D02*
X152357142Y-120788152D01*
X152357142Y-120788152D02*
X152309523Y-120883390D01*
X152309523Y-120883390D02*
X152261904Y-120931009D01*
X152261904Y-120931009D02*
X152166666Y-120978628D01*
X152166666Y-120978628D02*
X151785714Y-120978628D01*
X153309523Y-121454819D02*
X152738095Y-121454819D01*
X153023809Y-121454819D02*
X153023809Y-120454819D01*
X153023809Y-120454819D02*
X152928571Y-120597676D01*
X152928571Y-120597676D02*
X152833333Y-120692914D01*
X152833333Y-120692914D02*
X152738095Y-120740533D01*
X153690476Y-120550057D02*
X153738095Y-120502438D01*
X153738095Y-120502438D02*
X153833333Y-120454819D01*
X153833333Y-120454819D02*
X154071428Y-120454819D01*
X154071428Y-120454819D02*
X154166666Y-120502438D01*
X154166666Y-120502438D02*
X154214285Y-120550057D01*
X154214285Y-120550057D02*
X154261904Y-120645295D01*
X154261904Y-120645295D02*
X154261904Y-120740533D01*
X154261904Y-120740533D02*
X154214285Y-120883390D01*
X154214285Y-120883390D02*
X153642857Y-121454819D01*
X153642857Y-121454819D02*
X154261904Y-121454819D01*
X140833333Y-154359580D02*
X140785714Y-154407200D01*
X140785714Y-154407200D02*
X140642857Y-154454819D01*
X140642857Y-154454819D02*
X140547619Y-154454819D01*
X140547619Y-154454819D02*
X140404762Y-154407200D01*
X140404762Y-154407200D02*
X140309524Y-154311961D01*
X140309524Y-154311961D02*
X140261905Y-154216723D01*
X140261905Y-154216723D02*
X140214286Y-154026247D01*
X140214286Y-154026247D02*
X140214286Y-153883390D01*
X140214286Y-153883390D02*
X140261905Y-153692914D01*
X140261905Y-153692914D02*
X140309524Y-153597676D01*
X140309524Y-153597676D02*
X140404762Y-153502438D01*
X140404762Y-153502438D02*
X140547619Y-153454819D01*
X140547619Y-153454819D02*
X140642857Y-153454819D01*
X140642857Y-153454819D02*
X140785714Y-153502438D01*
X140785714Y-153502438D02*
X140833333Y-153550057D01*
X141785714Y-154454819D02*
X141214286Y-154454819D01*
X141500000Y-154454819D02*
X141500000Y-153454819D01*
X141500000Y-153454819D02*
X141404762Y-153597676D01*
X141404762Y-153597676D02*
X141309524Y-153692914D01*
X141309524Y-153692914D02*
X141214286Y-153740533D01*
X138333333Y-155359580D02*
X138285714Y-155407200D01*
X138285714Y-155407200D02*
X138142857Y-155454819D01*
X138142857Y-155454819D02*
X138047619Y-155454819D01*
X138047619Y-155454819D02*
X137904762Y-155407200D01*
X137904762Y-155407200D02*
X137809524Y-155311961D01*
X137809524Y-155311961D02*
X137761905Y-155216723D01*
X137761905Y-155216723D02*
X137714286Y-155026247D01*
X137714286Y-155026247D02*
X137714286Y-154883390D01*
X137714286Y-154883390D02*
X137761905Y-154692914D01*
X137761905Y-154692914D02*
X137809524Y-154597676D01*
X137809524Y-154597676D02*
X137904762Y-154502438D01*
X137904762Y-154502438D02*
X138047619Y-154454819D01*
X138047619Y-154454819D02*
X138142857Y-154454819D01*
X138142857Y-154454819D02*
X138285714Y-154502438D01*
X138285714Y-154502438D02*
X138333333Y-154550057D01*
X138714286Y-154550057D02*
X138761905Y-154502438D01*
X138761905Y-154502438D02*
X138857143Y-154454819D01*
X138857143Y-154454819D02*
X139095238Y-154454819D01*
X139095238Y-154454819D02*
X139190476Y-154502438D01*
X139190476Y-154502438D02*
X139238095Y-154550057D01*
X139238095Y-154550057D02*
X139285714Y-154645295D01*
X139285714Y-154645295D02*
X139285714Y-154740533D01*
X139285714Y-154740533D02*
X139238095Y-154883390D01*
X139238095Y-154883390D02*
X138666667Y-155454819D01*
X138666667Y-155454819D02*
X139285714Y-155454819D01*
X150333333Y-154359580D02*
X150285714Y-154407200D01*
X150285714Y-154407200D02*
X150142857Y-154454819D01*
X150142857Y-154454819D02*
X150047619Y-154454819D01*
X150047619Y-154454819D02*
X149904762Y-154407200D01*
X149904762Y-154407200D02*
X149809524Y-154311961D01*
X149809524Y-154311961D02*
X149761905Y-154216723D01*
X149761905Y-154216723D02*
X149714286Y-154026247D01*
X149714286Y-154026247D02*
X149714286Y-153883390D01*
X149714286Y-153883390D02*
X149761905Y-153692914D01*
X149761905Y-153692914D02*
X149809524Y-153597676D01*
X149809524Y-153597676D02*
X149904762Y-153502438D01*
X149904762Y-153502438D02*
X150047619Y-153454819D01*
X150047619Y-153454819D02*
X150142857Y-153454819D01*
X150142857Y-153454819D02*
X150285714Y-153502438D01*
X150285714Y-153502438D02*
X150333333Y-153550057D01*
X150666667Y-153454819D02*
X151285714Y-153454819D01*
X151285714Y-153454819D02*
X150952381Y-153835771D01*
X150952381Y-153835771D02*
X151095238Y-153835771D01*
X151095238Y-153835771D02*
X151190476Y-153883390D01*
X151190476Y-153883390D02*
X151238095Y-153931009D01*
X151238095Y-153931009D02*
X151285714Y-154026247D01*
X151285714Y-154026247D02*
X151285714Y-154264342D01*
X151285714Y-154264342D02*
X151238095Y-154359580D01*
X151238095Y-154359580D02*
X151190476Y-154407200D01*
X151190476Y-154407200D02*
X151095238Y-154454819D01*
X151095238Y-154454819D02*
X150809524Y-154454819D01*
X150809524Y-154454819D02*
X150714286Y-154407200D01*
X150714286Y-154407200D02*
X150666667Y-154359580D01*
M02*
