%TF.GenerationSoftware,KiCad,Pcbnew,9.0.7*%
%TF.CreationDate,2026-03-08T23:45:14+02:00*%
%TF.ProjectId,64korppu-E,36346b6f-7270-4707-952d-452e6b696361,rev?*%
%TF.SameCoordinates,Original*%
%TF.FileFunction,Soldermask,Bot*%
%TF.FilePolarity,Negative*%
%FSLAX46Y46*%
G04 Gerber Fmt 4.6, Leading zero omitted, Abs format (unit mm)*
G04 Created by KiCad (PCBNEW 9.0.7) date 2026-03-08 23:45:14*
%MOMM*%
%LPD*%
G01*
G04 APERTURE LIST*
%ADD10R,2.000000X2.000000*%
%ADD11O,2.000000X2.000000*%
%ADD12R,1.600000X1.600000*%
%ADD13O,1.600000X1.600000*%
%ADD14R,1.800000X1.800000*%
%ADD15O,1.800000X1.800000*%
%ADD16O,3.000000X2.000000*%
%ADD17R,1.700000X1.700000*%
%ADD18O,1.700000X1.700000*%
%ADD19C,6.000000*%
G04 APERTURE END LIST*
D10*
%TO.C,J3*%
X112000000Y-103000000D03*
D11*
X118000000Y-103000000D03*
X115000000Y-108000000D03*
%TD*%
D12*
%TO.C,C4*%
X125000000Y-103000000D03*
D13*
X127000000Y-103000000D03*
%TD*%
D14*
%TO.C,J1*%
X108500000Y-154000000D03*
D15*
X115500000Y-154000000D03*
X107000000Y-150000000D03*
X112000000Y-146000000D03*
X117000000Y-150000000D03*
X112000000Y-150000000D03*
D16*
X104500000Y-150000000D03*
X119500000Y-150000000D03*
%TD*%
D12*
%TO.C,R1*%
X108000000Y-110000000D03*
D13*
X118160000Y-110000000D03*
%TD*%
D12*
%TO.C,R2*%
X108000000Y-115000000D03*
D13*
X118160000Y-115000000D03*
%TD*%
D12*
%TO.C,R3*%
X108000000Y-120000000D03*
D13*
X118160000Y-120000000D03*
%TD*%
D12*
%TO.C,R4*%
X108000000Y-125000000D03*
D13*
X118160000Y-125000000D03*
%TD*%
D12*
%TO.C,R5*%
X108000000Y-130000000D03*
D13*
X118160000Y-130000000D03*
%TD*%
D12*
%TO.C,R6*%
X108000000Y-135000000D03*
D13*
X118160000Y-135000000D03*
%TD*%
D12*
%TO.C,R7*%
X108000000Y-140000000D03*
D13*
X118160000Y-140000000D03*
%TD*%
D17*
%TO.C,U1*%
X135000000Y-112000000D03*
D18*
X137540000Y-112000000D03*
X135000000Y-114540000D03*
X137540000Y-114540000D03*
X135000000Y-117080000D03*
X137540000Y-117080000D03*
X135000000Y-119620000D03*
X137540000Y-119620000D03*
X135000000Y-122160000D03*
X137540000Y-122160000D03*
X135000000Y-124700000D03*
X137540000Y-124700000D03*
X135000000Y-127240000D03*
X137540000Y-127240000D03*
X135000000Y-129780000D03*
X137540000Y-129780000D03*
X135000000Y-132320000D03*
X137540000Y-132320000D03*
X135000000Y-134860000D03*
X137540000Y-134860000D03*
X135000000Y-137400000D03*
X137540000Y-137400000D03*
X135000000Y-139940000D03*
X137540000Y-139940000D03*
X135000000Y-142480000D03*
X137540000Y-142480000D03*
X135000000Y-145020000D03*
X137540000Y-145020000D03*
X135000000Y-147560000D03*
X137540000Y-147560000D03*
%TD*%
D12*
%TO.C,U2*%
X124000000Y-147000000D03*
D13*
X124000000Y-149540000D03*
X124000000Y-152080000D03*
X124000000Y-154620000D03*
X131620000Y-154620000D03*
X131620000Y-152080000D03*
X131620000Y-149540000D03*
X131620000Y-147000000D03*
%TD*%
D12*
%TO.C,U3*%
X148000000Y-137000000D03*
D13*
X148000000Y-139540000D03*
X148000000Y-142080000D03*
X148000000Y-144620000D03*
X148000000Y-147160000D03*
X148000000Y-149700000D03*
X148000000Y-152240000D03*
X148000000Y-154780000D03*
X155620000Y-154780000D03*
X155620000Y-152240000D03*
X155620000Y-149700000D03*
X155620000Y-147160000D03*
X155620000Y-144620000D03*
X155620000Y-142080000D03*
X155620000Y-139540000D03*
X155620000Y-137000000D03*
%TD*%
D17*
%TO.C,J2*%
X164000000Y-108000000D03*
D18*
X166540000Y-108000000D03*
X164000000Y-110540000D03*
X166540000Y-110540000D03*
X164000000Y-113080000D03*
X166540000Y-113080000D03*
X164000000Y-115620000D03*
X166540000Y-115620000D03*
X164000000Y-118160000D03*
X166540000Y-118160000D03*
X164000000Y-120700000D03*
X166540000Y-120700000D03*
X164000000Y-123240000D03*
X166540000Y-123240000D03*
X164000000Y-125780000D03*
X166540000Y-125780000D03*
X164000000Y-128320000D03*
X166540000Y-128320000D03*
X164000000Y-130860000D03*
X166540000Y-130860000D03*
X164000000Y-133400000D03*
X166540000Y-133400000D03*
X164000000Y-135940000D03*
X166540000Y-135940000D03*
X164000000Y-138480000D03*
X166540000Y-138480000D03*
X164000000Y-141020000D03*
X166540000Y-141020000D03*
X164000000Y-143560000D03*
X166540000Y-143560000D03*
X164000000Y-146100000D03*
X166540000Y-146100000D03*
X164000000Y-148640000D03*
X166540000Y-148640000D03*
%TD*%
D12*
%TO.C,R8*%
X120000000Y-157000000D03*
D13*
X130160000Y-157000000D03*
%TD*%
D12*
%TO.C,D1*%
X112000000Y-157000000D03*
D13*
X114540000Y-157000000D03*
%TD*%
D12*
%TO.C,R9*%
X148000000Y-115000000D03*
D13*
X158160000Y-115000000D03*
%TD*%
D12*
%TO.C,R10*%
X148000000Y-120000000D03*
D13*
X158160000Y-120000000D03*
%TD*%
D12*
%TO.C,R11*%
X148000000Y-125000000D03*
D13*
X158160000Y-125000000D03*
%TD*%
D12*
%TO.C,R12*%
X148000000Y-130000000D03*
D13*
X158160000Y-130000000D03*
%TD*%
D12*
%TO.C,C1*%
X135000000Y-150000000D03*
D13*
X140000000Y-150000000D03*
%TD*%
D12*
%TO.C,C2*%
X133000000Y-157000000D03*
D13*
X138000000Y-157000000D03*
%TD*%
D12*
%TO.C,C3*%
X148000000Y-157000000D03*
D13*
X153000000Y-157000000D03*
%TD*%
D19*
%TO.C,H1*%
X103000000Y-103000000D03*
%TD*%
%TO.C,H2*%
X167000000Y-103000000D03*
%TD*%
%TO.C,H3*%
X103000000Y-157000000D03*
%TD*%
%TO.C,H4*%
X167000000Y-157000000D03*
%TD*%
M02*
