%TF.GenerationSoftware,KiCad,Pcbnew,9.0.7*%
%TF.CreationDate,2026-03-08T23:40:57+02:00*%
%TF.ProjectId,64korppu-E,36346b6f-7270-4707-952d-452e6b696361,rev?*%
%TF.SameCoordinates,Original*%
%TF.FileFunction,Copper,L1,Top*%
%TF.FilePolarity,Positive*%
%FSLAX46Y46*%
G04 Gerber Fmt 4.6, Leading zero omitted, Abs format (unit mm)*
G04 Created by KiCad (PCBNEW 9.0.7) date 2026-03-08 23:40:57*
%MOMM*%
%LPD*%
G01*
G04 APERTURE LIST*
%TA.AperFunction,ComponentPad*%
%ADD10R,2.000000X2.000000*%
%TD*%
%TA.AperFunction,ComponentPad*%
%ADD11O,2.000000X2.000000*%
%TD*%
%TA.AperFunction,ComponentPad*%
%ADD12R,1.600000X1.600000*%
%TD*%
%TA.AperFunction,ComponentPad*%
%ADD13O,1.600000X1.600000*%
%TD*%
%TA.AperFunction,ComponentPad*%
%ADD14R,1.800000X1.800000*%
%TD*%
%TA.AperFunction,ComponentPad*%
%ADD15O,1.800000X1.800000*%
%TD*%
%TA.AperFunction,ComponentPad*%
%ADD16O,3.000000X2.000000*%
%TD*%
%TA.AperFunction,ComponentPad*%
%ADD17R,1.700000X1.700000*%
%TD*%
%TA.AperFunction,ComponentPad*%
%ADD18O,1.700000X1.700000*%
%TD*%
%TA.AperFunction,ComponentPad*%
%ADD19C,6.000000*%
%TD*%
%TA.AperFunction,ViaPad*%
%ADD20C,0.600000*%
%TD*%
%TA.AperFunction,Conductor*%
%ADD21C,0.250000*%
%TD*%
G04 APERTURE END LIST*
D10*
%TO.P,J3,1*%
%TO.N,+5V*%
X112000000Y-103000000D03*
D11*
%TO.P,J3,2*%
X118000000Y-103000000D03*
%TO.P,J3,3*%
%TO.N,GND*%
X115000000Y-108000000D03*
%TD*%
D12*
%TO.P,C4,1*%
%TO.N,+5V*%
X125000000Y-103000000D03*
D13*
%TO.P,C4,2*%
%TO.N,GND*%
X127000000Y-103000000D03*
%TD*%
D14*
%TO.P,J1,1*%
%TO.N,GND*%
X108500000Y-154000000D03*
D15*
%TO.P,J1,2*%
X115500000Y-154000000D03*
%TO.P,J1,3*%
%TO.N,IEC_ATN*%
X107000000Y-150000000D03*
%TO.P,J1,4*%
%TO.N,IEC_CLK*%
X112000000Y-146000000D03*
%TO.P,J1,5*%
%TO.N,IEC_DATA*%
X117000000Y-150000000D03*
%TO.P,J1,6*%
%TO.N,IEC_RESET*%
X112000000Y-150000000D03*
D16*
%TO.P,J1,SH*%
%TO.N,GND*%
X104500000Y-150000000D03*
X119500000Y-150000000D03*
%TD*%
D12*
%TO.P,R1,1*%
%TO.N,IEC_ATN*%
X108000000Y-110000000D03*
D13*
%TO.P,R1,2*%
%TO.N,NANO_D2*%
X118160000Y-110000000D03*
%TD*%
D12*
%TO.P,R2,1*%
%TO.N,IEC_CLK*%
X108000000Y-115000000D03*
D13*
%TO.P,R2,2*%
%TO.N,NANO_D3*%
X118160000Y-115000000D03*
%TD*%
D12*
%TO.P,R3,1*%
%TO.N,IEC_DATA*%
X108000000Y-120000000D03*
D13*
%TO.P,R3,2*%
%TO.N,NANO_D4*%
X118160000Y-120000000D03*
%TD*%
D12*
%TO.P,R4,1*%
%TO.N,IEC_RESET*%
X108000000Y-125000000D03*
D13*
%TO.P,R4,2*%
%TO.N,NANO_D5*%
X118160000Y-125000000D03*
%TD*%
D12*
%TO.P,R5,1*%
%TO.N,+5V*%
X108000000Y-130000000D03*
D13*
%TO.P,R5,2*%
%TO.N,NANO_D2*%
X118160000Y-130000000D03*
%TD*%
D12*
%TO.P,R6,1*%
%TO.N,+5V*%
X108000000Y-135000000D03*
D13*
%TO.P,R6,2*%
%TO.N,NANO_D3*%
X118160000Y-135000000D03*
%TD*%
D12*
%TO.P,R7,1*%
%TO.N,+5V*%
X108000000Y-140000000D03*
D13*
%TO.P,R7,2*%
%TO.N,NANO_D4*%
X118160000Y-140000000D03*
%TD*%
D17*
%TO.P,U1,1*%
%TO.N,N/C*%
X135000000Y-112000000D03*
D18*
%TO.P,U1,2*%
X137540000Y-112000000D03*
%TO.P,U1,3*%
X135000000Y-114540000D03*
%TO.P,U1,4*%
%TO.N,GND*%
X137540000Y-114540000D03*
%TO.P,U1,5*%
%TO.N,N/C*%
X135000000Y-117080000D03*
%TO.P,U1,6*%
X137540000Y-117080000D03*
%TO.P,U1,7*%
%TO.N,GND*%
X135000000Y-119620000D03*
%TO.P,U1,8*%
%TO.N,+5V*%
X137540000Y-119620000D03*
%TO.P,U1,9*%
%TO.N,NANO_D2*%
X135000000Y-122160000D03*
%TO.P,U1,10*%
%TO.N,N/C*%
X137540000Y-122160000D03*
%TO.P,U1,11*%
%TO.N,NANO_D3*%
X135000000Y-124700000D03*
%TO.P,U1,12*%
%TO.N,N/C*%
X137540000Y-124700000D03*
%TO.P,U1,13*%
%TO.N,NANO_D4*%
X135000000Y-127240000D03*
%TO.P,U1,14*%
%TO.N,LED_ANODE*%
X137540000Y-127240000D03*
%TO.P,U1,15*%
%TO.N,NANO_D5*%
X135000000Y-129780000D03*
%TO.P,U1,16*%
%TO.N,N/C*%
X137540000Y-129780000D03*
%TO.P,U1,17*%
%TO.N,LATCH_595*%
X135000000Y-132320000D03*
%TO.P,U1,18*%
%TO.N,N/C*%
X137540000Y-132320000D03*
%TO.P,U1,19*%
%TO.N,FLOPPY_WDATA*%
X135000000Y-134860000D03*
%TO.P,U1,20*%
%TO.N,FLOPPY_DSKCHG*%
X137540000Y-134860000D03*
%TO.P,U1,21*%
%TO.N,FLOPPY_RDATA*%
X135000000Y-137400000D03*
%TO.P,U1,22*%
%TO.N,FLOPPY_WPT*%
X137540000Y-137400000D03*
%TO.P,U1,23*%
%TO.N,N/C*%
X135000000Y-139940000D03*
%TO.P,U1,24*%
%TO.N,FLOPPY_TRK00*%
X137540000Y-139940000D03*
%TO.P,U1,25*%
%TO.N,SPI_CS_SRAM*%
X135000000Y-142480000D03*
%TO.P,U1,26*%
%TO.N,N/C*%
X137540000Y-142480000D03*
%TO.P,U1,27*%
%TO.N,SPI_MOSI*%
X135000000Y-145020000D03*
%TO.P,U1,28*%
%TO.N,N/C*%
X137540000Y-145020000D03*
%TO.P,U1,29*%
%TO.N,SPI_MISO*%
X135000000Y-147560000D03*
%TO.P,U1,30*%
%TO.N,SPI_SCK*%
X137540000Y-147560000D03*
%TD*%
D12*
%TO.P,U2,1*%
%TO.N,SPI_CS_SRAM*%
X124000000Y-147000000D03*
D13*
%TO.P,U2,2*%
%TO.N,SPI_MISO*%
X124000000Y-149540000D03*
%TO.P,U2,3*%
%TO.N,N/C*%
X124000000Y-152080000D03*
%TO.P,U2,4*%
%TO.N,GND*%
X124000000Y-154620000D03*
%TO.P,U2,5*%
%TO.N,SPI_MOSI*%
X131620000Y-154620000D03*
%TO.P,U2,6*%
%TO.N,SPI_SCK*%
X131620000Y-152080000D03*
%TO.P,U2,7*%
%TO.N,+5V*%
X131620000Y-149540000D03*
%TO.P,U2,8*%
X131620000Y-147000000D03*
%TD*%
D12*
%TO.P,U3,1*%
%TO.N,FLOPPY_DENSITY*%
X148000000Y-137000000D03*
D13*
%TO.P,U3,2*%
%TO.N,FLOPPY_MOTEA*%
X148000000Y-139540000D03*
%TO.P,U3,3*%
%TO.N,FLOPPY_DRVSEL*%
X148000000Y-142080000D03*
%TO.P,U3,4*%
%TO.N,FLOPPY_MOTOR*%
X148000000Y-144620000D03*
%TO.P,U3,5*%
%TO.N,FLOPPY_DIR*%
X148000000Y-147160000D03*
%TO.P,U3,6*%
%TO.N,FLOPPY_STEP*%
X148000000Y-149700000D03*
%TO.P,U3,7*%
%TO.N,FLOPPY_WGATE*%
X148000000Y-152240000D03*
%TO.P,U3,8*%
%TO.N,GND*%
X148000000Y-154780000D03*
%TO.P,U3,9*%
%TO.N,N/C*%
X155620000Y-154780000D03*
%TO.P,U3,10*%
%TO.N,+5V*%
X155620000Y-152240000D03*
%TO.P,U3,11*%
%TO.N,SPI_SCK*%
X155620000Y-149700000D03*
%TO.P,U3,12*%
%TO.N,LATCH_595*%
X155620000Y-147160000D03*
%TO.P,U3,13*%
%TO.N,GND*%
X155620000Y-144620000D03*
%TO.P,U3,14*%
%TO.N,SPI_MOSI*%
X155620000Y-142080000D03*
%TO.P,U3,15*%
%TO.N,FLOPPY_SIDE1*%
X155620000Y-139540000D03*
%TO.P,U3,16*%
%TO.N,+5V*%
X155620000Y-137000000D03*
%TD*%
D17*
%TO.P,J2,1*%
%TO.N,GND*%
X164000000Y-108000000D03*
D18*
%TO.P,J2,2*%
%TO.N,FLOPPY_DENSITY*%
X166540000Y-108000000D03*
%TO.P,J2,3*%
%TO.N,GND*%
X164000000Y-110540000D03*
%TO.P,J2,4*%
%TO.N,N/C*%
X166540000Y-110540000D03*
%TO.P,J2,5*%
%TO.N,GND*%
X164000000Y-113080000D03*
%TO.P,J2,6*%
%TO.N,N/C*%
X166540000Y-113080000D03*
%TO.P,J2,7*%
%TO.N,GND*%
X164000000Y-115620000D03*
%TO.P,J2,8*%
%TO.N,N/C*%
X166540000Y-115620000D03*
%TO.P,J2,9*%
%TO.N,GND*%
X164000000Y-118160000D03*
%TO.P,J2,10*%
%TO.N,FLOPPY_MOTEA*%
X166540000Y-118160000D03*
%TO.P,J2,11*%
%TO.N,GND*%
X164000000Y-120700000D03*
%TO.P,J2,12*%
%TO.N,FLOPPY_DRVSEL*%
X166540000Y-120700000D03*
%TO.P,J2,13*%
%TO.N,GND*%
X164000000Y-123240000D03*
%TO.P,J2,14*%
%TO.N,N/C*%
X166540000Y-123240000D03*
%TO.P,J2,15*%
%TO.N,GND*%
X164000000Y-125780000D03*
%TO.P,J2,16*%
%TO.N,FLOPPY_MOTOR*%
X166540000Y-125780000D03*
%TO.P,J2,17*%
%TO.N,GND*%
X164000000Y-128320000D03*
%TO.P,J2,18*%
%TO.N,FLOPPY_DIR*%
X166540000Y-128320000D03*
%TO.P,J2,19*%
%TO.N,GND*%
X164000000Y-130860000D03*
%TO.P,J2,20*%
%TO.N,FLOPPY_STEP*%
X166540000Y-130860000D03*
%TO.P,J2,21*%
%TO.N,GND*%
X164000000Y-133400000D03*
%TO.P,J2,22*%
%TO.N,FLOPPY_WDATA*%
X166540000Y-133400000D03*
%TO.P,J2,23*%
%TO.N,GND*%
X164000000Y-135940000D03*
%TO.P,J2,24*%
%TO.N,FLOPPY_WGATE*%
X166540000Y-135940000D03*
%TO.P,J2,25*%
%TO.N,GND*%
X164000000Y-138480000D03*
%TO.P,J2,26*%
%TO.N,FLOPPY_TRK00*%
X166540000Y-138480000D03*
%TO.P,J2,27*%
%TO.N,GND*%
X164000000Y-141020000D03*
%TO.P,J2,28*%
%TO.N,FLOPPY_WPT*%
X166540000Y-141020000D03*
%TO.P,J2,29*%
%TO.N,GND*%
X164000000Y-143560000D03*
%TO.P,J2,30*%
%TO.N,FLOPPY_RDATA*%
X166540000Y-143560000D03*
%TO.P,J2,31*%
%TO.N,GND*%
X164000000Y-146100000D03*
%TO.P,J2,32*%
%TO.N,FLOPPY_SIDE1*%
X166540000Y-146100000D03*
%TO.P,J2,33*%
%TO.N,GND*%
X164000000Y-148640000D03*
%TO.P,J2,34*%
%TO.N,FLOPPY_DSKCHG*%
X166540000Y-148640000D03*
%TD*%
D12*
%TO.P,R8,1*%
%TO.N,LED_ANODE*%
X120000000Y-157000000D03*
D13*
%TO.P,R8,2*%
%TO.N,LED_CATHODE*%
X130160000Y-157000000D03*
%TD*%
D12*
%TO.P,D1,1*%
%TO.N,LED_CATHODE*%
X112000000Y-157000000D03*
D13*
%TO.P,D1,2*%
%TO.N,GND*%
X114540000Y-157000000D03*
%TD*%
D12*
%TO.P,R9,1*%
%TO.N,+5V*%
X148000000Y-115000000D03*
D13*
%TO.P,R9,2*%
%TO.N,FLOPPY_TRK00*%
X158160000Y-115000000D03*
%TD*%
D12*
%TO.P,R10,1*%
%TO.N,+5V*%
X148000000Y-120000000D03*
D13*
%TO.P,R10,2*%
%TO.N,FLOPPY_WPT*%
X158160000Y-120000000D03*
%TD*%
D12*
%TO.P,R11,1*%
%TO.N,+5V*%
X148000000Y-125000000D03*
D13*
%TO.P,R11,2*%
%TO.N,FLOPPY_RDATA*%
X158160000Y-125000000D03*
%TD*%
D12*
%TO.P,R12,1*%
%TO.N,+5V*%
X148000000Y-130000000D03*
D13*
%TO.P,R12,2*%
%TO.N,FLOPPY_DSKCHG*%
X158160000Y-130000000D03*
%TD*%
D12*
%TO.P,C1,1*%
%TO.N,+5V*%
X135000000Y-150000000D03*
D13*
%TO.P,C1,2*%
%TO.N,GND*%
X140000000Y-150000000D03*
%TD*%
D12*
%TO.P,C2,1*%
%TO.N,+5V*%
X133000000Y-157000000D03*
D13*
%TO.P,C2,2*%
%TO.N,GND*%
X138000000Y-157000000D03*
%TD*%
D12*
%TO.P,C3,1*%
%TO.N,+5V*%
X148000000Y-157000000D03*
D13*
%TO.P,C3,2*%
%TO.N,GND*%
X153000000Y-157000000D03*
%TD*%
D19*
%TO.P,H1,1*%
%TO.N,N/C*%
X103000000Y-103000000D03*
%TD*%
%TO.P,H2,1*%
%TO.N,N/C*%
X167000000Y-103000000D03*
%TD*%
%TO.P,H3,1*%
%TO.N,N/C*%
X103000000Y-157000000D03*
%TD*%
%TO.P,H4,1*%
%TO.N,N/C*%
X167000000Y-157000000D03*
%TD*%
D20*
%TO.N,LATCH_595*%
X139620000Y-144867000D03*
%TO.N,NANO_D3*%
X115942000Y-121400000D03*
%TO.N,FLOPPY_TRK00*%
X157110000Y-138268000D03*
%TO.N,FLOPPY_DENSITY*%
X148162000Y-109933000D03*
%TO.N,FLOPPY_MOTEA*%
X154012000Y-122428000D03*
%TO.N,FLOPPY_DRVSEL*%
X154167000Y-124421000D03*
%TO.N,FLOPPY_MOTOR*%
X153349000Y-127008000D03*
%TO.N,FLOPPY_DIR*%
X151836000Y-129792000D03*
%TO.N,FLOPPY_STEP*%
X154228000Y-133082000D03*
%TO.N,FLOPPY_WGATE*%
X165712000Y-150495000D03*
%TD*%
D21*
%TO.N,+5V*%
X148000000Y-130000000D02*
X148000000Y-125000000D01*
X131620000Y-149540000D02*
X131620000Y-147000000D01*
%TO.N,NANO_D2*%
X133823000Y-122160000D02*
X125983000Y-130000000D01*
X135000000Y-122160000D02*
X133823000Y-122160000D01*
X125983000Y-130000000D02*
X118160000Y-130000000D01*
%TO.N,FLOPPY_TRK00*%
X137540000Y-139940000D02*
X138717000Y-139940000D01*
X157110000Y-138268000D02*
X140388000Y-138268000D01*
X140388000Y-138268000D02*
X138717000Y-139940000D01*
%TO.N,FLOPPY_SIDE1*%
X156747000Y-139540000D02*
X162130000Y-144923000D01*
X155620000Y-139540000D02*
X156747000Y-139540000D01*
X165363000Y-145732000D02*
X165363000Y-146100000D01*
X164554000Y-144923000D02*
X165363000Y-145732000D01*
X165363000Y-146100000D02*
X166540000Y-146100000D01*
X162130000Y-144923000D02*
X164554000Y-144923000D01*
%TD*%
M02*
