M48
; DRILL file {KiCad 9.0.7} date 2026-03-09T01:11:44+0200
; FORMAT={-:-/ absolute / metric / decimal}
; #@! TF.CreationDate,2026-03-09T01:11:44+02:00
; #@! TF.GenerationSoftware,Kicad,Pcbnew,9.0.7
; #@! TF.FileFunction,MixedPlating,1,4
FMAT,2
METRIC
; #@! TA.AperFunction,Plated,PTH,ViaDrill
T1C0.300
; #@! TA.AperFunction,Plated,PTH,ComponentDrill
T2C0.800
; #@! TA.AperFunction,Plated,PTH,ComponentDrill
T3C1.000
; #@! TA.AperFunction,Plated,PTH,ComponentDrill
T4C1.500
; #@! TA.AperFunction,Plated,PTH,ComponentDrill
T5C3.200
%
G90
G05
T1
X100.651Y-144.333
X101.13Y-109.933
X101.417Y-147.2
X102.36Y-124.25
X103.64Y-121.75
X103.935Y-133.86
X104.071Y-150.249
X104.659Y-130.09
X104.999Y-144.333
X105.087Y-130.912
X136.083Y-120.325
X144.149Y-127.705
X144.879Y-126.775
X145.852Y-132.252
X150.039Y-137.96
X150.169Y-135.199
X151.088Y-109.933
X158.142Y-145.972
X159.921Y-140.422
T2
X108.0Y-116.0
X108.0Y-120.0
X108.0Y-124.0
X108.0Y-128.0
X108.0Y-132.0
X108.0Y-136.0
X108.0Y-140.0
X118.16Y-116.0
X118.16Y-120.0
X118.16Y-124.0
X118.16Y-128.0
X118.16Y-132.0
X118.16Y-136.0
X118.16Y-140.0
X125.0Y-104.0
X125.0Y-150.0
X125.0Y-152.54
X125.0Y-155.08
X125.0Y-157.62
X127.0Y-104.0
X132.0Y-104.0
X132.62Y-150.0
X132.62Y-152.54
X132.62Y-155.08
X132.62Y-157.62
X134.54Y-104.0
X136.0Y-151.0
X136.0Y-157.0
X137.0Y-104.0
X141.0Y-151.0
X141.0Y-157.0
X147.16Y-104.0
X148.0Y-108.0
X148.0Y-113.0
X148.0Y-118.0
X148.0Y-123.0
X148.0Y-132.0
X148.0Y-134.54
X148.0Y-137.08
X148.0Y-139.62
X148.0Y-142.16
X148.0Y-144.7
X148.0Y-147.24
X148.0Y-149.78
X148.0Y-156.0
X153.0Y-156.0
X155.62Y-132.0
X155.62Y-134.54
X155.62Y-137.08
X155.62Y-139.62
X155.62Y-142.16
X155.62Y-144.7
X155.62Y-147.24
X155.62Y-149.78
X158.16Y-108.0
X158.16Y-113.0
X158.16Y-118.0
X158.16Y-123.0
T3
X109.0Y-151.0
X110.5Y-155.0
X111.0Y-105.0
X114.0Y-110.0
X114.0Y-147.0
X114.0Y-151.0
X117.0Y-105.0
X117.5Y-155.0
X119.0Y-151.0
X135.0Y-111.0
X135.0Y-113.54
X135.0Y-116.08
X135.0Y-118.62
X135.0Y-121.16
X135.0Y-123.7
X135.0Y-126.24
X135.0Y-128.78
X135.0Y-131.32
X135.0Y-133.86
X135.0Y-136.4
X135.0Y-138.94
X135.0Y-141.48
X135.0Y-144.02
X135.0Y-146.56
X137.54Y-111.0
X137.54Y-113.54
X137.54Y-116.08
X137.54Y-118.62
X137.54Y-121.16
X137.54Y-123.7
X137.54Y-126.24
X137.54Y-128.78
X137.54Y-131.32
X137.54Y-133.86
X137.54Y-136.4
X137.54Y-138.94
X137.54Y-141.48
X137.54Y-144.02
X137.54Y-146.56
X165.0Y-110.0
X165.0Y-112.54
X165.0Y-115.08
X165.0Y-117.62
X165.0Y-120.16
X165.0Y-122.7
X165.0Y-125.24
X165.0Y-127.78
X165.0Y-130.32
X165.0Y-132.86
X165.0Y-135.4
X165.0Y-137.94
X165.0Y-140.48
X165.0Y-143.02
X165.0Y-145.56
X165.0Y-148.1
X165.0Y-150.64
X167.54Y-110.0
X167.54Y-112.54
X167.54Y-115.08
X167.54Y-117.62
X167.54Y-120.16
X167.54Y-122.7
X167.54Y-125.24
X167.54Y-127.78
X167.54Y-130.32
X167.54Y-132.86
X167.54Y-135.4
X167.54Y-137.94
X167.54Y-140.48
X167.54Y-143.02
X167.54Y-145.56
X167.54Y-148.1
X167.54Y-150.64
T4
X106.5Y-151.0
X121.5Y-151.0
T5
X103.0Y-103.0
X103.0Y-157.0
X167.0Y-103.0
X167.0Y-157.0
M30
