%TF.GenerationSoftware,KiCad,Pcbnew,9.0.7*%
%TF.CreationDate,2026-03-09T00:42:12+02:00*%
%TF.ProjectId,64korppu-E,36346b6f-7270-4707-952d-452e6b696361,rev?*%
%TF.SameCoordinates,Original*%
%TF.FileFunction,Copper,L1,Top*%
%TF.FilePolarity,Positive*%
%FSLAX46Y46*%
G04 Gerber Fmt 4.6, Leading zero omitted, Abs format (unit mm)*
G04 Created by KiCad (PCBNEW 9.0.7) date 2026-03-09 00:42:12*
%MOMM*%
%LPD*%
G01*
G04 APERTURE LIST*
%TA.AperFunction,ComponentPad*%
%ADD10R,2.000000X2.000000*%
%TD*%
%TA.AperFunction,ComponentPad*%
%ADD11O,2.000000X2.000000*%
%TD*%
%TA.AperFunction,ComponentPad*%
%ADD12R,1.600000X1.600000*%
%TD*%
%TA.AperFunction,ComponentPad*%
%ADD13O,1.600000X1.600000*%
%TD*%
%TA.AperFunction,ComponentPad*%
%ADD14R,1.800000X1.800000*%
%TD*%
%TA.AperFunction,ComponentPad*%
%ADD15O,1.800000X1.800000*%
%TD*%
%TA.AperFunction,ComponentPad*%
%ADD16O,3.000000X2.000000*%
%TD*%
%TA.AperFunction,ComponentPad*%
%ADD17R,1.700000X1.700000*%
%TD*%
%TA.AperFunction,ComponentPad*%
%ADD18O,1.700000X1.700000*%
%TD*%
%TA.AperFunction,ComponentPad*%
%ADD19C,6.000000*%
%TD*%
%TA.AperFunction,ViaPad*%
%ADD20C,0.600000*%
%TD*%
%TA.AperFunction,Conductor*%
%ADD21C,0.250000*%
%TD*%
G04 APERTURE END LIST*
D10*
%TO.P,J3,1*%
%TO.N,+5V*%
X111000000Y-105000000D03*
D11*
%TO.P,J3,2*%
X117000000Y-105000000D03*
%TO.P,J3,3*%
%TO.N,GND*%
X114000000Y-110000000D03*
%TD*%
D12*
%TO.P,C4,1*%
%TO.N,+5V*%
X125000000Y-104000000D03*
D13*
%TO.P,C4,2*%
%TO.N,GND*%
X127000000Y-104000000D03*
%TD*%
D14*
%TO.P,J1,1*%
%TO.N,GND*%
X110500000Y-155000000D03*
D15*
%TO.P,J1,2*%
X117500000Y-155000000D03*
%TO.P,J1,3*%
%TO.N,IEC_ATN*%
X109000000Y-151000000D03*
%TO.P,J1,4*%
%TO.N,IEC_CLK*%
X114000000Y-147000000D03*
%TO.P,J1,5*%
%TO.N,IEC_DATA*%
X119000000Y-151000000D03*
%TO.P,J1,6*%
%TO.N,IEC_RESET*%
X114000000Y-151000000D03*
D16*
%TO.P,J1,SH*%
%TO.N,GND*%
X106500000Y-151000000D03*
X121500000Y-151000000D03*
%TD*%
D12*
%TO.P,R1,1*%
%TO.N,IEC_ATN*%
X108000000Y-116000000D03*
D13*
%TO.P,R1,2*%
%TO.N,NANO_D2*%
X118160000Y-116000000D03*
%TD*%
D12*
%TO.P,R2,1*%
%TO.N,IEC_CLK*%
X108000000Y-120000000D03*
D13*
%TO.P,R2,2*%
%TO.N,NANO_D3*%
X118160000Y-120000000D03*
%TD*%
D12*
%TO.P,R3,1*%
%TO.N,IEC_DATA*%
X108000000Y-124000000D03*
D13*
%TO.P,R3,2*%
%TO.N,NANO_D4*%
X118160000Y-124000000D03*
%TD*%
D12*
%TO.P,R4,1*%
%TO.N,IEC_RESET*%
X108000000Y-128000000D03*
D13*
%TO.P,R4,2*%
%TO.N,NANO_D5*%
X118160000Y-128000000D03*
%TD*%
D12*
%TO.P,R5,1*%
%TO.N,+5V*%
X108000000Y-132000000D03*
D13*
%TO.P,R5,2*%
%TO.N,NANO_D2*%
X118160000Y-132000000D03*
%TD*%
D12*
%TO.P,R6,1*%
%TO.N,+5V*%
X108000000Y-136000000D03*
D13*
%TO.P,R6,2*%
%TO.N,NANO_D3*%
X118160000Y-136000000D03*
%TD*%
D12*
%TO.P,R7,1*%
%TO.N,+5V*%
X108000000Y-140000000D03*
D13*
%TO.P,R7,2*%
%TO.N,NANO_D4*%
X118160000Y-140000000D03*
%TD*%
D17*
%TO.P,U1,1*%
%TO.N,N/C*%
X135000000Y-111000000D03*
D18*
%TO.P,U1,2*%
X137540000Y-111000000D03*
%TO.P,U1,3*%
X135000000Y-113540000D03*
%TO.P,U1,4*%
%TO.N,GND*%
X137540000Y-113540000D03*
%TO.P,U1,5*%
%TO.N,N/C*%
X135000000Y-116080000D03*
%TO.P,U1,6*%
X137540000Y-116080000D03*
%TO.P,U1,7*%
%TO.N,GND*%
X135000000Y-118620000D03*
%TO.P,U1,8*%
%TO.N,+5V*%
X137540000Y-118620000D03*
%TO.P,U1,9*%
%TO.N,NANO_D2*%
X135000000Y-121160000D03*
%TO.P,U1,10*%
%TO.N,N/C*%
X137540000Y-121160000D03*
%TO.P,U1,11*%
%TO.N,NANO_D3*%
X135000000Y-123700000D03*
%TO.P,U1,12*%
%TO.N,N/C*%
X137540000Y-123700000D03*
%TO.P,U1,13*%
%TO.N,NANO_D4*%
X135000000Y-126240000D03*
%TO.P,U1,14*%
%TO.N,LED_ANODE*%
X137540000Y-126240000D03*
%TO.P,U1,15*%
%TO.N,NANO_D5*%
X135000000Y-128780000D03*
%TO.P,U1,16*%
%TO.N,N/C*%
X137540000Y-128780000D03*
%TO.P,U1,17*%
%TO.N,LATCH_595*%
X135000000Y-131320000D03*
%TO.P,U1,18*%
%TO.N,N/C*%
X137540000Y-131320000D03*
%TO.P,U1,19*%
%TO.N,FLOPPY_WDATA*%
X135000000Y-133860000D03*
%TO.P,U1,20*%
%TO.N,FLOPPY_DSKCHG*%
X137540000Y-133860000D03*
%TO.P,U1,21*%
%TO.N,FLOPPY_RDATA*%
X135000000Y-136400000D03*
%TO.P,U1,22*%
%TO.N,FLOPPY_WPT*%
X137540000Y-136400000D03*
%TO.P,U1,23*%
%TO.N,N/C*%
X135000000Y-138940000D03*
%TO.P,U1,24*%
%TO.N,FLOPPY_TRK00*%
X137540000Y-138940000D03*
%TO.P,U1,25*%
%TO.N,SPI_CS_SRAM*%
X135000000Y-141480000D03*
%TO.P,U1,26*%
%TO.N,N/C*%
X137540000Y-141480000D03*
%TO.P,U1,27*%
%TO.N,SPI_MOSI*%
X135000000Y-144020000D03*
%TO.P,U1,28*%
%TO.N,N/C*%
X137540000Y-144020000D03*
%TO.P,U1,29*%
%TO.N,SPI_MISO*%
X135000000Y-146560000D03*
%TO.P,U1,30*%
%TO.N,SPI_SCK*%
X137540000Y-146560000D03*
%TD*%
D12*
%TO.P,U2,1*%
%TO.N,SPI_CS_SRAM*%
X125000000Y-150000000D03*
D13*
%TO.P,U2,2*%
%TO.N,SPI_MISO*%
X125000000Y-152540000D03*
%TO.P,U2,3*%
%TO.N,N/C*%
X125000000Y-155080000D03*
%TO.P,U2,4*%
%TO.N,GND*%
X125000000Y-157620000D03*
%TO.P,U2,5*%
%TO.N,SPI_MOSI*%
X132620000Y-157620000D03*
%TO.P,U2,6*%
%TO.N,SPI_SCK*%
X132620000Y-155080000D03*
%TO.P,U2,7*%
%TO.N,+5V*%
X132620000Y-152540000D03*
%TO.P,U2,8*%
X132620000Y-150000000D03*
%TD*%
D12*
%TO.P,U3,1*%
%TO.N,FLOPPY_DENSITY*%
X148000000Y-132000000D03*
D13*
%TO.P,U3,2*%
%TO.N,FLOPPY_MOTEA*%
X148000000Y-134540000D03*
%TO.P,U3,3*%
%TO.N,FLOPPY_DRVSEL*%
X148000000Y-137080000D03*
%TO.P,U3,4*%
%TO.N,FLOPPY_MOTOR*%
X148000000Y-139620000D03*
%TO.P,U3,5*%
%TO.N,FLOPPY_DIR*%
X148000000Y-142160000D03*
%TO.P,U3,6*%
%TO.N,FLOPPY_STEP*%
X148000000Y-144700000D03*
%TO.P,U3,7*%
%TO.N,FLOPPY_WGATE*%
X148000000Y-147240000D03*
%TO.P,U3,8*%
%TO.N,GND*%
X148000000Y-149780000D03*
%TO.P,U3,9*%
%TO.N,N/C*%
X155620000Y-149780000D03*
%TO.P,U3,10*%
%TO.N,+5V*%
X155620000Y-147240000D03*
%TO.P,U3,11*%
%TO.N,SPI_SCK*%
X155620000Y-144700000D03*
%TO.P,U3,12*%
%TO.N,LATCH_595*%
X155620000Y-142160000D03*
%TO.P,U3,13*%
%TO.N,GND*%
X155620000Y-139620000D03*
%TO.P,U3,14*%
%TO.N,SPI_MOSI*%
X155620000Y-137080000D03*
%TO.P,U3,15*%
%TO.N,FLOPPY_SIDE1*%
X155620000Y-134540000D03*
%TO.P,U3,16*%
%TO.N,+5V*%
X155620000Y-132000000D03*
%TD*%
D17*
%TO.P,J2,1*%
%TO.N,GND*%
X165000000Y-110000000D03*
D18*
%TO.P,J2,2*%
%TO.N,FLOPPY_DENSITY*%
X167540000Y-110000000D03*
%TO.P,J2,3*%
%TO.N,GND*%
X165000000Y-112540000D03*
%TO.P,J2,4*%
%TO.N,N/C*%
X167540000Y-112540000D03*
%TO.P,J2,5*%
%TO.N,GND*%
X165000000Y-115080000D03*
%TO.P,J2,6*%
%TO.N,N/C*%
X167540000Y-115080000D03*
%TO.P,J2,7*%
%TO.N,GND*%
X165000000Y-117620000D03*
%TO.P,J2,8*%
%TO.N,N/C*%
X167540000Y-117620000D03*
%TO.P,J2,9*%
%TO.N,GND*%
X165000000Y-120160000D03*
%TO.P,J2,10*%
%TO.N,FLOPPY_MOTEA*%
X167540000Y-120160000D03*
%TO.P,J2,11*%
%TO.N,GND*%
X165000000Y-122700000D03*
%TO.P,J2,12*%
%TO.N,FLOPPY_DRVSEL*%
X167540000Y-122700000D03*
%TO.P,J2,13*%
%TO.N,GND*%
X165000000Y-125240000D03*
%TO.P,J2,14*%
%TO.N,N/C*%
X167540000Y-125240000D03*
%TO.P,J2,15*%
%TO.N,GND*%
X165000000Y-127780000D03*
%TO.P,J2,16*%
%TO.N,FLOPPY_MOTOR*%
X167540000Y-127780000D03*
%TO.P,J2,17*%
%TO.N,GND*%
X165000000Y-130320000D03*
%TO.P,J2,18*%
%TO.N,FLOPPY_DIR*%
X167540000Y-130320000D03*
%TO.P,J2,19*%
%TO.N,GND*%
X165000000Y-132860000D03*
%TO.P,J2,20*%
%TO.N,FLOPPY_STEP*%
X167540000Y-132860000D03*
%TO.P,J2,21*%
%TO.N,GND*%
X165000000Y-135400000D03*
%TO.P,J2,22*%
%TO.N,FLOPPY_WDATA*%
X167540000Y-135400000D03*
%TO.P,J2,23*%
%TO.N,GND*%
X165000000Y-137940000D03*
%TO.P,J2,24*%
%TO.N,FLOPPY_WGATE*%
X167540000Y-137940000D03*
%TO.P,J2,25*%
%TO.N,GND*%
X165000000Y-140480000D03*
%TO.P,J2,26*%
%TO.N,FLOPPY_TRK00*%
X167540000Y-140480000D03*
%TO.P,J2,27*%
%TO.N,GND*%
X165000000Y-143020000D03*
%TO.P,J2,28*%
%TO.N,FLOPPY_WPT*%
X167540000Y-143020000D03*
%TO.P,J2,29*%
%TO.N,GND*%
X165000000Y-145560000D03*
%TO.P,J2,30*%
%TO.N,FLOPPY_RDATA*%
X167540000Y-145560000D03*
%TO.P,J2,31*%
%TO.N,GND*%
X165000000Y-148100000D03*
%TO.P,J2,32*%
%TO.N,FLOPPY_SIDE1*%
X167540000Y-148100000D03*
%TO.P,J2,33*%
%TO.N,GND*%
X165000000Y-150640000D03*
%TO.P,J2,34*%
%TO.N,FLOPPY_DSKCHG*%
X167540000Y-150640000D03*
%TD*%
D12*
%TO.P,R8,1*%
%TO.N,LED_ANODE*%
X137000000Y-104000000D03*
D13*
%TO.P,R8,2*%
%TO.N,LED_CATHODE*%
X147160000Y-104000000D03*
%TD*%
D12*
%TO.P,D1,1*%
%TO.N,LED_CATHODE*%
X132000000Y-104000000D03*
D13*
%TO.P,D1,2*%
%TO.N,GND*%
X134540000Y-104000000D03*
%TD*%
D12*
%TO.P,R9,1*%
%TO.N,+5V*%
X148000000Y-108000000D03*
D13*
%TO.P,R9,2*%
%TO.N,FLOPPY_TRK00*%
X158160000Y-108000000D03*
%TD*%
D12*
%TO.P,R10,1*%
%TO.N,+5V*%
X148000000Y-113000000D03*
D13*
%TO.P,R10,2*%
%TO.N,FLOPPY_WPT*%
X158160000Y-113000000D03*
%TD*%
D12*
%TO.P,R11,1*%
%TO.N,+5V*%
X148000000Y-118000000D03*
D13*
%TO.P,R11,2*%
%TO.N,FLOPPY_RDATA*%
X158160000Y-118000000D03*
%TD*%
D12*
%TO.P,R12,1*%
%TO.N,+5V*%
X148000000Y-123000000D03*
D13*
%TO.P,R12,2*%
%TO.N,FLOPPY_DSKCHG*%
X158160000Y-123000000D03*
%TD*%
D12*
%TO.P,C1,1*%
%TO.N,+5V*%
X136000000Y-151000000D03*
D13*
%TO.P,C1,2*%
%TO.N,GND*%
X141000000Y-151000000D03*
%TD*%
D12*
%TO.P,C2,1*%
%TO.N,+5V*%
X136000000Y-157000000D03*
D13*
%TO.P,C2,2*%
%TO.N,GND*%
X141000000Y-157000000D03*
%TD*%
D12*
%TO.P,C3,1*%
%TO.N,+5V*%
X148000000Y-156000000D03*
D13*
%TO.P,C3,2*%
%TO.N,GND*%
X153000000Y-156000000D03*
%TD*%
D19*
%TO.P,H1,1*%
%TO.N,N/C*%
X103000000Y-103000000D03*
%TD*%
%TO.P,H2,1*%
%TO.N,N/C*%
X167000000Y-103000000D03*
%TD*%
%TO.P,H3,1*%
%TO.N,N/C*%
X103000000Y-157000000D03*
%TD*%
%TO.P,H4,1*%
%TO.N,N/C*%
X167000000Y-157000000D03*
%TD*%
D20*
%TO.N,LATCH_595*%
X136176700Y-140230000D03*
%TO.N,FLOPPY_RDATA*%
X158854200Y-126053800D03*
%TO.N,FLOPPY_TRK00*%
X157128500Y-138406400D03*
%TO.N,FLOPPY_WPT*%
X161879000Y-129253000D03*
%TO.N,FLOPPY_DENSITY*%
X148162500Y-110083000D03*
%TO.N,FLOPPY_DRVSEL*%
X148162900Y-127134900D03*
%TO.N,FLOPPY_MOTOR*%
X151045500Y-135706600D03*
%TO.N,FLOPPY_SIDE1*%
X157251200Y-146067500D03*
%TD*%
D21*
%TO.N,LATCH_595*%
X154493300Y-142160000D02*
X153366600Y-141033300D01*
X146800000Y-140230000D02*
X136176700Y-140230000D01*
X155620000Y-142160000D02*
X154493300Y-142160000D01*
X147603300Y-141033300D02*
X146800000Y-140230000D01*
X153366600Y-141033300D02*
X147603300Y-141033300D01*
%TO.N,FLOPPY_WDATA*%
X166363300Y-135400000D02*
X166363300Y-135032200D01*
X135000000Y-133860000D02*
X136176700Y-133860000D01*
X166363300Y-135032200D02*
X165554400Y-134223300D01*
X156896800Y-134223300D02*
X156086800Y-133413300D01*
X136985600Y-132683300D02*
X136176700Y-133492200D01*
X138027500Y-132683300D02*
X136985600Y-132683300D01*
X167540000Y-135400000D02*
X166363300Y-135400000D01*
X156086800Y-133413300D02*
X138757500Y-133413300D01*
X165554400Y-134223300D02*
X156896800Y-134223300D01*
X138757500Y-133413300D02*
X138027500Y-132683300D01*
X136176700Y-133492200D02*
X136176700Y-133860000D01*
%TO.N,FLOPPY_TRK00*%
X139250300Y-138406400D02*
X138716700Y-138940000D01*
X165554400Y-139303300D02*
X158025400Y-139303300D01*
X166363300Y-140112200D02*
X165554400Y-139303300D01*
X158025400Y-139303300D02*
X157128500Y-138406400D01*
X137540000Y-138940000D02*
X138716700Y-138940000D01*
X166363300Y-140480000D02*
X166363300Y-140112200D01*
X157128500Y-138406400D02*
X139250300Y-138406400D01*
X167540000Y-140480000D02*
X166363300Y-140480000D01*
%TD*%
M02*
