%TF.GenerationSoftware,KiCad,Pcbnew,9.0.7*%
%TF.CreationDate,2026-03-08T23:45:14+02:00*%
%TF.ProjectId,64korppu-E,36346b6f-7270-4707-952d-452e6b696361,rev?*%
%TF.SameCoordinates,Original*%
%TF.FileFunction,Copper,L2,Inr*%
%TF.FilePolarity,Positive*%
%FSLAX46Y46*%
G04 Gerber Fmt 4.6, Leading zero omitted, Abs format (unit mm)*
G04 Created by KiCad (PCBNEW 9.0.7) date 2026-03-08 23:45:14*
%MOMM*%
%LPD*%
G01*
G04 APERTURE LIST*
%TA.AperFunction,ComponentPad*%
%ADD10R,2.000000X2.000000*%
%TD*%
%TA.AperFunction,ComponentPad*%
%ADD11O,2.000000X2.000000*%
%TD*%
%TA.AperFunction,ComponentPad*%
%ADD12R,1.600000X1.600000*%
%TD*%
%TA.AperFunction,ComponentPad*%
%ADD13O,1.600000X1.600000*%
%TD*%
%TA.AperFunction,ComponentPad*%
%ADD14R,1.800000X1.800000*%
%TD*%
%TA.AperFunction,ComponentPad*%
%ADD15O,1.800000X1.800000*%
%TD*%
%TA.AperFunction,ComponentPad*%
%ADD16O,3.000000X2.000000*%
%TD*%
%TA.AperFunction,ComponentPad*%
%ADD17R,1.700000X1.700000*%
%TD*%
%TA.AperFunction,ComponentPad*%
%ADD18O,1.700000X1.700000*%
%TD*%
%TA.AperFunction,ComponentPad*%
%ADD19C,6.000000*%
%TD*%
%TA.AperFunction,ViaPad*%
%ADD20C,0.600000*%
%TD*%
%TA.AperFunction,Conductor*%
%ADD21C,0.250000*%
%TD*%
G04 APERTURE END LIST*
D10*
%TO.N,+5V*%
%TO.C,J3*%
X112000000Y-103000000D03*
D11*
X118000000Y-103000000D03*
%TO.N,GND*%
X115000000Y-108000000D03*
%TD*%
D12*
%TO.N,+5V*%
%TO.C,C4*%
X125000000Y-103000000D03*
D13*
%TO.N,GND*%
X127000000Y-103000000D03*
%TD*%
D14*
%TO.N,GND*%
%TO.C,J1*%
X108500000Y-154000000D03*
D15*
X115500000Y-154000000D03*
%TO.N,IEC_ATN*%
X107000000Y-150000000D03*
%TO.N,IEC_CLK*%
X112000000Y-146000000D03*
%TO.N,IEC_DATA*%
X117000000Y-150000000D03*
%TO.N,IEC_RESET*%
X112000000Y-150000000D03*
D16*
%TO.N,GND*%
X104500000Y-150000000D03*
X119500000Y-150000000D03*
%TD*%
D12*
%TO.N,IEC_ATN*%
%TO.C,R1*%
X108000000Y-110000000D03*
D13*
%TO.N,NANO_D2*%
X118160000Y-110000000D03*
%TD*%
D12*
%TO.N,IEC_CLK*%
%TO.C,R2*%
X108000000Y-115000000D03*
D13*
%TO.N,NANO_D3*%
X118160000Y-115000000D03*
%TD*%
D12*
%TO.N,IEC_DATA*%
%TO.C,R3*%
X108000000Y-120000000D03*
D13*
%TO.N,NANO_D4*%
X118160000Y-120000000D03*
%TD*%
D12*
%TO.N,IEC_RESET*%
%TO.C,R4*%
X108000000Y-125000000D03*
D13*
%TO.N,NANO_D5*%
X118160000Y-125000000D03*
%TD*%
D12*
%TO.N,+5V*%
%TO.C,R5*%
X108000000Y-130000000D03*
D13*
%TO.N,NANO_D2*%
X118160000Y-130000000D03*
%TD*%
D12*
%TO.N,+5V*%
%TO.C,R6*%
X108000000Y-135000000D03*
D13*
%TO.N,NANO_D3*%
X118160000Y-135000000D03*
%TD*%
D12*
%TO.N,+5V*%
%TO.C,R7*%
X108000000Y-140000000D03*
D13*
%TO.N,NANO_D4*%
X118160000Y-140000000D03*
%TD*%
D17*
%TO.N,N/C*%
%TO.C,U1*%
X135000000Y-112000000D03*
D18*
X137540000Y-112000000D03*
X135000000Y-114540000D03*
%TO.N,GND*%
X137540000Y-114540000D03*
%TO.N,N/C*%
X135000000Y-117080000D03*
X137540000Y-117080000D03*
%TO.N,GND*%
X135000000Y-119620000D03*
%TO.N,+5V*%
X137540000Y-119620000D03*
%TO.N,NANO_D2*%
X135000000Y-122160000D03*
%TO.N,N/C*%
X137540000Y-122160000D03*
%TO.N,NANO_D3*%
X135000000Y-124700000D03*
%TO.N,N/C*%
X137540000Y-124700000D03*
%TO.N,NANO_D4*%
X135000000Y-127240000D03*
%TO.N,LED_ANODE*%
X137540000Y-127240000D03*
%TO.N,NANO_D5*%
X135000000Y-129780000D03*
%TO.N,N/C*%
X137540000Y-129780000D03*
%TO.N,LATCH_595*%
X135000000Y-132320000D03*
%TO.N,N/C*%
X137540000Y-132320000D03*
%TO.N,FLOPPY_WDATA*%
X135000000Y-134860000D03*
%TO.N,FLOPPY_DSKCHG*%
X137540000Y-134860000D03*
%TO.N,FLOPPY_RDATA*%
X135000000Y-137400000D03*
%TO.N,FLOPPY_WPT*%
X137540000Y-137400000D03*
%TO.N,N/C*%
X135000000Y-139940000D03*
%TO.N,FLOPPY_TRK00*%
X137540000Y-139940000D03*
%TO.N,SPI_CS_SRAM*%
X135000000Y-142480000D03*
%TO.N,N/C*%
X137540000Y-142480000D03*
%TO.N,SPI_MOSI*%
X135000000Y-145020000D03*
%TO.N,N/C*%
X137540000Y-145020000D03*
%TO.N,SPI_MISO*%
X135000000Y-147560000D03*
%TO.N,SPI_SCK*%
X137540000Y-147560000D03*
%TD*%
D12*
%TO.N,SPI_CS_SRAM*%
%TO.C,U2*%
X124000000Y-147000000D03*
D13*
%TO.N,SPI_MISO*%
X124000000Y-149540000D03*
%TO.N,N/C*%
X124000000Y-152080000D03*
%TO.N,GND*%
X124000000Y-154620000D03*
%TO.N,SPI_MOSI*%
X131620000Y-154620000D03*
%TO.N,SPI_SCK*%
X131620000Y-152080000D03*
%TO.N,+5V*%
X131620000Y-149540000D03*
X131620000Y-147000000D03*
%TD*%
D12*
%TO.N,FLOPPY_DENSITY*%
%TO.C,U3*%
X148000000Y-137000000D03*
D13*
%TO.N,FLOPPY_MOTEA*%
X148000000Y-139540000D03*
%TO.N,FLOPPY_DRVSEL*%
X148000000Y-142080000D03*
%TO.N,FLOPPY_MOTOR*%
X148000000Y-144620000D03*
%TO.N,FLOPPY_DIR*%
X148000000Y-147160000D03*
%TO.N,FLOPPY_STEP*%
X148000000Y-149700000D03*
%TO.N,FLOPPY_WGATE*%
X148000000Y-152240000D03*
%TO.N,GND*%
X148000000Y-154780000D03*
%TO.N,N/C*%
X155620000Y-154780000D03*
%TO.N,+5V*%
X155620000Y-152240000D03*
%TO.N,SPI_SCK*%
X155620000Y-149700000D03*
%TO.N,LATCH_595*%
X155620000Y-147160000D03*
%TO.N,GND*%
X155620000Y-144620000D03*
%TO.N,SPI_MOSI*%
X155620000Y-142080000D03*
%TO.N,FLOPPY_SIDE1*%
X155620000Y-139540000D03*
%TO.N,+5V*%
X155620000Y-137000000D03*
%TD*%
D17*
%TO.N,GND*%
%TO.C,J2*%
X164000000Y-108000000D03*
D18*
%TO.N,FLOPPY_DENSITY*%
X166540000Y-108000000D03*
%TO.N,GND*%
X164000000Y-110540000D03*
%TO.N,N/C*%
X166540000Y-110540000D03*
%TO.N,GND*%
X164000000Y-113080000D03*
%TO.N,N/C*%
X166540000Y-113080000D03*
%TO.N,GND*%
X164000000Y-115620000D03*
%TO.N,N/C*%
X166540000Y-115620000D03*
%TO.N,GND*%
X164000000Y-118160000D03*
%TO.N,FLOPPY_MOTEA*%
X166540000Y-118160000D03*
%TO.N,GND*%
X164000000Y-120700000D03*
%TO.N,FLOPPY_DRVSEL*%
X166540000Y-120700000D03*
%TO.N,GND*%
X164000000Y-123240000D03*
%TO.N,N/C*%
X166540000Y-123240000D03*
%TO.N,GND*%
X164000000Y-125780000D03*
%TO.N,FLOPPY_MOTOR*%
X166540000Y-125780000D03*
%TO.N,GND*%
X164000000Y-128320000D03*
%TO.N,FLOPPY_DIR*%
X166540000Y-128320000D03*
%TO.N,GND*%
X164000000Y-130860000D03*
%TO.N,FLOPPY_STEP*%
X166540000Y-130860000D03*
%TO.N,GND*%
X164000000Y-133400000D03*
%TO.N,FLOPPY_WDATA*%
X166540000Y-133400000D03*
%TO.N,GND*%
X164000000Y-135940000D03*
%TO.N,FLOPPY_WGATE*%
X166540000Y-135940000D03*
%TO.N,GND*%
X164000000Y-138480000D03*
%TO.N,FLOPPY_TRK00*%
X166540000Y-138480000D03*
%TO.N,GND*%
X164000000Y-141020000D03*
%TO.N,FLOPPY_WPT*%
X166540000Y-141020000D03*
%TO.N,GND*%
X164000000Y-143560000D03*
%TO.N,FLOPPY_RDATA*%
X166540000Y-143560000D03*
%TO.N,GND*%
X164000000Y-146100000D03*
%TO.N,FLOPPY_SIDE1*%
X166540000Y-146100000D03*
%TO.N,GND*%
X164000000Y-148640000D03*
%TO.N,FLOPPY_DSKCHG*%
X166540000Y-148640000D03*
%TD*%
D12*
%TO.N,LED_ANODE*%
%TO.C,R8*%
X120000000Y-157000000D03*
D13*
%TO.N,LED_CATHODE*%
X130160000Y-157000000D03*
%TD*%
D12*
%TO.N,LED_CATHODE*%
%TO.C,D1*%
X112000000Y-157000000D03*
D13*
%TO.N,GND*%
X114540000Y-157000000D03*
%TD*%
D12*
%TO.N,+5V*%
%TO.C,R9*%
X148000000Y-115000000D03*
D13*
%TO.N,FLOPPY_TRK00*%
X158160000Y-115000000D03*
%TD*%
D12*
%TO.N,+5V*%
%TO.C,R10*%
X148000000Y-120000000D03*
D13*
%TO.N,FLOPPY_WPT*%
X158160000Y-120000000D03*
%TD*%
D12*
%TO.N,+5V*%
%TO.C,R11*%
X148000000Y-125000000D03*
D13*
%TO.N,FLOPPY_RDATA*%
X158160000Y-125000000D03*
%TD*%
D12*
%TO.N,+5V*%
%TO.C,R12*%
X148000000Y-130000000D03*
D13*
%TO.N,FLOPPY_DSKCHG*%
X158160000Y-130000000D03*
%TD*%
D12*
%TO.N,+5V*%
%TO.C,C1*%
X135000000Y-150000000D03*
D13*
%TO.N,GND*%
X140000000Y-150000000D03*
%TD*%
D12*
%TO.N,+5V*%
%TO.C,C2*%
X133000000Y-157000000D03*
D13*
%TO.N,GND*%
X138000000Y-157000000D03*
%TD*%
D12*
%TO.N,+5V*%
%TO.C,C3*%
X148000000Y-157000000D03*
D13*
%TO.N,GND*%
X153000000Y-157000000D03*
%TD*%
D19*
%TO.N,N/C*%
%TO.C,H1*%
X103000000Y-103000000D03*
%TD*%
%TO.N,N/C*%
%TO.C,H2*%
X167000000Y-103000000D03*
%TD*%
%TO.N,N/C*%
%TO.C,H3*%
X103000000Y-157000000D03*
%TD*%
%TO.N,N/C*%
%TO.C,H4*%
X167000000Y-157000000D03*
%TD*%
D20*
%TO.N,LATCH_595*%
X139620000Y-144867000D03*
%TO.N,NANO_D3*%
X115942000Y-121400000D03*
%TO.N,FLOPPY_TRK00*%
X157110000Y-138268000D03*
%TO.N,FLOPPY_DENSITY*%
X148162000Y-109933000D03*
%TO.N,FLOPPY_MOTEA*%
X154012000Y-122428000D03*
%TO.N,FLOPPY_DRVSEL*%
X154167000Y-124421000D03*
%TO.N,FLOPPY_MOTOR*%
X153349000Y-127008000D03*
%TO.N,FLOPPY_DIR*%
X151836000Y-129792000D03*
%TO.N,FLOPPY_STEP*%
X154228000Y-133082000D03*
%TO.N,FLOPPY_WGATE*%
X165712000Y-150495000D03*
%TD*%
D21*
%TO.N,SPI_MOSI*%
X134632000Y-146197000D02*
X135000000Y-146197000D01*
X133823000Y-151572000D02*
X133823000Y-147006000D01*
X131620000Y-153493000D02*
X131902000Y-153493000D01*
X135000000Y-146197000D02*
X135000000Y-145020000D01*
X133823000Y-147006000D02*
X134632000Y-146197000D01*
X131620000Y-154620000D02*
X131620000Y-153493000D01*
X131902000Y-153493000D02*
X133823000Y-151572000D01*
%TO.N,LATCH_595*%
X136177000Y-135198000D02*
X137109000Y-136130000D01*
X139620000Y-137737000D02*
X139620000Y-144867000D01*
X136177000Y-134306000D02*
X136177000Y-135198000D01*
X135000000Y-133497000D02*
X135368000Y-133497000D01*
X138013000Y-136130000D02*
X139620000Y-137737000D01*
X135000000Y-132320000D02*
X135000000Y-133497000D01*
X135368000Y-133497000D02*
X136177000Y-134306000D01*
X137109000Y-136130000D02*
X138013000Y-136130000D01*
%TO.N,IEC_ATN*%
X108000000Y-111127000D02*
X106873000Y-112253000D01*
X106873000Y-148647000D02*
X107000000Y-148773000D01*
X106873000Y-112253000D02*
X106873000Y-148647000D01*
X108000000Y-110000000D02*
X108000000Y-111127000D01*
X107000000Y-148773000D02*
X107000000Y-150000000D01*
%TO.N,IEC_CLK*%
X112000000Y-120127000D02*
X108000000Y-116127000D01*
X112000000Y-146000000D02*
X112000000Y-120127000D01*
X108000000Y-116127000D02*
X108000000Y-115000000D01*
%TO.N,IEC_DATA*%
X109893000Y-123019000D02*
X109893000Y-145638000D01*
X114255000Y-150000000D02*
X117000000Y-150000000D01*
X109893000Y-145638000D02*
X114255000Y-150000000D01*
X108000000Y-121127000D02*
X109893000Y-123019000D01*
X108000000Y-120000000D02*
X108000000Y-121127000D01*
%TO.N,IEC_RESET*%
X108000000Y-126127000D02*
X109127000Y-127253000D01*
X109127000Y-127253000D02*
X109127000Y-145900000D01*
X109127000Y-145900000D02*
X112000000Y-148773000D01*
X108000000Y-125000000D02*
X108000000Y-126127000D01*
X112000000Y-148773000D02*
X112000000Y-150000000D01*
%TO.N,NANO_D2*%
X118160000Y-111127000D02*
X118160000Y-110000000D01*
X119287000Y-112253000D02*
X118160000Y-111127000D01*
X118160000Y-130000000D02*
X118160000Y-128873000D01*
X119287000Y-127747000D02*
X119287000Y-112253000D01*
X118160000Y-128873000D02*
X119287000Y-127747000D01*
%TO.N,NANO_D3*%
X117033000Y-121400000D02*
X115942000Y-121400000D01*
X117033000Y-132747000D02*
X117033000Y-121400000D01*
X117033000Y-117253000D02*
X118160000Y-116127000D01*
X118160000Y-133873000D02*
X117033000Y-132747000D01*
X118160000Y-135000000D02*
X118160000Y-133873000D01*
X118160000Y-115000000D02*
X118160000Y-116127000D01*
X117033000Y-121400000D02*
X117033000Y-117253000D01*
%TO.N,FLOPPY_RDATA*%
X163699000Y-142383000D02*
X166540000Y-142383000D01*
X166540000Y-142383000D02*
X166540000Y-143560000D01*
X158160000Y-126127000D02*
X159287000Y-127253000D01*
X159287000Y-137971000D02*
X163699000Y-142383000D01*
X159287000Y-127253000D02*
X159287000Y-137971000D01*
X158160000Y-125000000D02*
X158160000Y-126127000D01*
%TO.N,FLOPPY_TRK00*%
X158160000Y-115000000D02*
X158160000Y-116127000D01*
X157019000Y-117268000D02*
X157019000Y-138177000D01*
X157019000Y-138177000D02*
X157110000Y-138268000D01*
X158160000Y-116127000D02*
X157019000Y-117268000D01*
%TO.N,FLOPPY_WPT*%
X163512000Y-137303000D02*
X162823000Y-137992000D01*
X164411000Y-137303000D02*
X163512000Y-137303000D01*
X163512000Y-139657000D02*
X165216000Y-139657000D01*
X162431000Y-125398000D02*
X162431000Y-130968000D01*
X166540000Y-140030000D02*
X166540000Y-141020000D01*
X163593000Y-132130000D02*
X164483000Y-132130000D01*
X162431000Y-130968000D02*
X163593000Y-132130000D01*
X162823000Y-138968000D02*
X163512000Y-139657000D01*
X165207000Y-136508000D02*
X164411000Y-137303000D01*
X165854000Y-140295000D02*
X166275000Y-140295000D01*
X165216000Y-139657000D02*
X165854000Y-140295000D01*
X165207000Y-132854000D02*
X165207000Y-136508000D01*
X158160000Y-121127000D02*
X162431000Y-125398000D01*
X162823000Y-137992000D02*
X162823000Y-138968000D01*
X164483000Y-132130000D02*
X165207000Y-132854000D01*
X166275000Y-140295000D02*
X166540000Y-140030000D01*
X158160000Y-120000000D02*
X158160000Y-121127000D01*
%TO.N,FLOPPY_DSKCHG*%
X165363000Y-148272000D02*
X164554000Y-147463000D01*
X163629000Y-147463000D02*
X158160000Y-141994000D01*
X158160000Y-141994000D02*
X158160000Y-130000000D01*
X165363000Y-148640000D02*
X165363000Y-148272000D01*
X164554000Y-147463000D02*
X163629000Y-147463000D01*
X166540000Y-148640000D02*
X165363000Y-148640000D01*
%TO.N,FLOPPY_DENSITY*%
X146873000Y-134747000D02*
X148000000Y-135873000D01*
X146873000Y-111222000D02*
X146873000Y-134747000D01*
X148162000Y-109933000D02*
X146873000Y-111222000D01*
X148000000Y-135873000D02*
X148000000Y-137000000D01*
%TO.N,FLOPPY_MOTEA*%
X149127000Y-127314000D02*
X149127000Y-137991000D01*
X148704000Y-138413000D02*
X148000000Y-138413000D01*
X149127000Y-137991000D02*
X148704000Y-138413000D01*
X148000000Y-138413000D02*
X148000000Y-139540000D01*
X154012000Y-122428000D02*
X149127000Y-127314000D01*
%TO.N,FLOPPY_DRVSEL*%
X148000000Y-140953000D02*
X148000000Y-142080000D01*
X154167000Y-124421000D02*
X149804000Y-128784000D01*
X149804000Y-139431000D02*
X148282000Y-140953000D01*
X148282000Y-140953000D02*
X148000000Y-140953000D01*
X149804000Y-128784000D02*
X149804000Y-139431000D01*
%TO.N,FLOPPY_MOTOR*%
X151190000Y-140585000D02*
X151190000Y-129167000D01*
X148000000Y-144620000D02*
X148000000Y-143493000D01*
X151190000Y-129167000D02*
X153349000Y-127008000D01*
X148282000Y-143493000D02*
X151190000Y-140585000D01*
X148000000Y-143493000D02*
X148282000Y-143493000D01*
%TO.N,FLOPPY_DIR*%
X151836000Y-129792000D02*
X151836000Y-142479000D01*
X151836000Y-142479000D02*
X148282000Y-146033000D01*
X148000000Y-147160000D02*
X148000000Y-146033000D01*
X148282000Y-146033000D02*
X148000000Y-146033000D01*
%TO.N,FLOPPY_STEP*%
X148000000Y-149700000D02*
X148000000Y-148573000D01*
X148000000Y-148573000D02*
X148282000Y-148573000D01*
X148282000Y-148573000D02*
X154228000Y-142627000D01*
X154228000Y-142627000D02*
X154228000Y-133082000D01*
%TO.N,FLOPPY_WGATE*%
X167717000Y-149154000D02*
X167717000Y-137926000D01*
X167717000Y-137926000D02*
X166908000Y-137117000D01*
X165712000Y-150495000D02*
X166376000Y-150495000D01*
X166540000Y-135940000D02*
X166540000Y-137117000D01*
X166908000Y-137117000D02*
X166540000Y-137117000D01*
X166376000Y-150495000D02*
X167717000Y-149154000D01*
X166540000Y-135940000D02*
X166540000Y-137117000D01*
%TO.N,LED_ANODE*%
X123641000Y-150810000D02*
X120000000Y-154451000D01*
X126537000Y-148667000D02*
X124394000Y-150810000D01*
X136363000Y-127608000D02*
X135554000Y-128417000D01*
X134682000Y-128417000D02*
X126537000Y-136562000D01*
X135554000Y-128417000D02*
X134682000Y-128417000D01*
X137540000Y-127240000D02*
X136363000Y-127240000D01*
X120000000Y-154451000D02*
X120000000Y-157000000D01*
X124394000Y-150810000D02*
X123641000Y-150810000D01*
X136363000Y-127240000D02*
X136363000Y-127608000D01*
X126537000Y-136562000D02*
X126537000Y-148667000D01*
%TD*%
%TA.AperFunction,Conductor*%
%TO.N,GND*%
G36*
X164470927Y-100306738D02*
G01*
X164493016Y-100308318D01*
X164503799Y-100316390D01*
X164516721Y-100320185D01*
X164531220Y-100336918D01*
X164548949Y-100350190D01*
X164553656Y-100362810D01*
X164562476Y-100372989D01*
X164565627Y-100394906D01*
X164573366Y-100415654D01*
X164570503Y-100428814D01*
X164572420Y-100442147D01*
X164563220Y-100462290D01*
X164558514Y-100483927D01*
X164545245Y-100501652D01*
X164543395Y-100505703D01*
X164537363Y-100512181D01*
X164403176Y-100646367D01*
X164184985Y-100912234D01*
X164184975Y-100912248D01*
X163993904Y-101198206D01*
X163993893Y-101198224D01*
X163831772Y-101501530D01*
X163831770Y-101501535D01*
X163700150Y-101819293D01*
X163600308Y-102148427D01*
X163533210Y-102485750D01*
X163514087Y-102679920D01*
X163499500Y-102828031D01*
X163499500Y-103171969D01*
X163507185Y-103250000D01*
X163533210Y-103514249D01*
X163600308Y-103851572D01*
X163700150Y-104180706D01*
X163773399Y-104357544D01*
X163829958Y-104494091D01*
X163831770Y-104498464D01*
X163831772Y-104498469D01*
X163993893Y-104801775D01*
X163993904Y-104801793D01*
X164184975Y-105087751D01*
X164184985Y-105087765D01*
X164403176Y-105353632D01*
X164646367Y-105596823D01*
X164646372Y-105596827D01*
X164646373Y-105596828D01*
X164912240Y-105815019D01*
X165198213Y-106006100D01*
X165198222Y-106006105D01*
X165198224Y-106006106D01*
X165501530Y-106168227D01*
X165501532Y-106168227D01*
X165501538Y-106168231D01*
X165819295Y-106299850D01*
X166148422Y-106399690D01*
X166293021Y-106428452D01*
X166354931Y-106460837D01*
X166389505Y-106521552D01*
X166385766Y-106591322D01*
X166344900Y-106647994D01*
X166288228Y-106672542D01*
X166223759Y-106682753D01*
X166021585Y-106748444D01*
X165832179Y-106844951D01*
X165660215Y-106969889D01*
X165546285Y-107083819D01*
X165484962Y-107117303D01*
X165415270Y-107112319D01*
X165359337Y-107070447D01*
X165342422Y-107039470D01*
X165293354Y-106907913D01*
X165293350Y-106907906D01*
X165207190Y-106792812D01*
X165207187Y-106792809D01*
X165092093Y-106706649D01*
X165092086Y-106706645D01*
X164957379Y-106656403D01*
X164957372Y-106656401D01*
X164897844Y-106650000D01*
X164250000Y-106650000D01*
X164250000Y-107566988D01*
X164192993Y-107534075D01*
X164065826Y-107500000D01*
X163934174Y-107500000D01*
X163807007Y-107534075D01*
X163750000Y-107566988D01*
X163750000Y-106650000D01*
X163102155Y-106650000D01*
X163042627Y-106656401D01*
X163042620Y-106656403D01*
X162907913Y-106706645D01*
X162907906Y-106706649D01*
X162792812Y-106792809D01*
X162792809Y-106792812D01*
X162706649Y-106907906D01*
X162706645Y-106907913D01*
X162656403Y-107042620D01*
X162656401Y-107042627D01*
X162650000Y-107102155D01*
X162650000Y-107750000D01*
X163566988Y-107750000D01*
X163534075Y-107807007D01*
X163500000Y-107934174D01*
X163500000Y-108065826D01*
X163534075Y-108192993D01*
X163566988Y-108250000D01*
X162650000Y-108250000D01*
X162650000Y-108897844D01*
X162656401Y-108957372D01*
X162656403Y-108957379D01*
X162706645Y-109092086D01*
X162706649Y-109092093D01*
X162792809Y-109207187D01*
X162792812Y-109207190D01*
X162907906Y-109293350D01*
X162907913Y-109293354D01*
X163039986Y-109342614D01*
X163095920Y-109384485D01*
X163120337Y-109449949D01*
X163105486Y-109518222D01*
X163084335Y-109546477D01*
X162970271Y-109660541D01*
X162845379Y-109832442D01*
X162748904Y-110021782D01*
X162683242Y-110223870D01*
X162683242Y-110223873D01*
X162672769Y-110290000D01*
X163566988Y-110290000D01*
X163534075Y-110347007D01*
X163500000Y-110474174D01*
X163500000Y-110605826D01*
X163534075Y-110732993D01*
X163566988Y-110790000D01*
X162672769Y-110790000D01*
X162683242Y-110856126D01*
X162683242Y-110856129D01*
X162748904Y-111058217D01*
X162845379Y-111247557D01*
X162970272Y-111419459D01*
X162970276Y-111419464D01*
X163120535Y-111569723D01*
X163120540Y-111569727D01*
X163292444Y-111694622D01*
X163302048Y-111699516D01*
X163352844Y-111747491D01*
X163369638Y-111815312D01*
X163347100Y-111881447D01*
X163302048Y-111920484D01*
X163292444Y-111925377D01*
X163120540Y-112050272D01*
X163120535Y-112050276D01*
X162970276Y-112200535D01*
X162970272Y-112200540D01*
X162845379Y-112372442D01*
X162748904Y-112561782D01*
X162683242Y-112763870D01*
X162683242Y-112763873D01*
X162672769Y-112830000D01*
X163566988Y-112830000D01*
X163534075Y-112887007D01*
X163500000Y-113014174D01*
X163500000Y-113145826D01*
X163534075Y-113272993D01*
X163566988Y-113330000D01*
X162672769Y-113330000D01*
X162683242Y-113396126D01*
X162683242Y-113396129D01*
X162748904Y-113598217D01*
X162845379Y-113787557D01*
X162970272Y-113959459D01*
X162970276Y-113959464D01*
X163120535Y-114109723D01*
X163120540Y-114109727D01*
X163292444Y-114234622D01*
X163302048Y-114239516D01*
X163352844Y-114287491D01*
X163369638Y-114355312D01*
X163347100Y-114421447D01*
X163302048Y-114460484D01*
X163292444Y-114465377D01*
X163120540Y-114590272D01*
X163120535Y-114590276D01*
X162970276Y-114740535D01*
X162970272Y-114740540D01*
X162845379Y-114912442D01*
X162748904Y-115101782D01*
X162683242Y-115303870D01*
X162683242Y-115303873D01*
X162672769Y-115370000D01*
X163566988Y-115370000D01*
X163534075Y-115427007D01*
X163500000Y-115554174D01*
X163500000Y-115685826D01*
X163534075Y-115812993D01*
X163566988Y-115870000D01*
X162672769Y-115870000D01*
X162683242Y-115936126D01*
X162683242Y-115936129D01*
X162748904Y-116138217D01*
X162845379Y-116327557D01*
X162970272Y-116499459D01*
X162970276Y-116499464D01*
X163120535Y-116649723D01*
X163120540Y-116649727D01*
X163292444Y-116774622D01*
X163302048Y-116779516D01*
X163352844Y-116827491D01*
X163369638Y-116895312D01*
X163347100Y-116961447D01*
X163302048Y-117000484D01*
X163292444Y-117005377D01*
X163120540Y-117130272D01*
X163120535Y-117130276D01*
X162970276Y-117280535D01*
X162970272Y-117280540D01*
X162845379Y-117452442D01*
X162748904Y-117641782D01*
X162683242Y-117843870D01*
X162683242Y-117843873D01*
X162672769Y-117910000D01*
X163566988Y-117910000D01*
X163534075Y-117967007D01*
X163500000Y-118094174D01*
X163500000Y-118225826D01*
X163534075Y-118352993D01*
X163566988Y-118410000D01*
X162672769Y-118410000D01*
X162683242Y-118476126D01*
X162683242Y-118476129D01*
X162748904Y-118678217D01*
X162845379Y-118867557D01*
X162970272Y-119039459D01*
X162970276Y-119039464D01*
X163120535Y-119189723D01*
X163120540Y-119189727D01*
X163292444Y-119314622D01*
X163302048Y-119319516D01*
X163352844Y-119367491D01*
X163369638Y-119435312D01*
X163347100Y-119501447D01*
X163302048Y-119540484D01*
X163292444Y-119545377D01*
X163120540Y-119670272D01*
X163120535Y-119670276D01*
X162970276Y-119820535D01*
X162970272Y-119820540D01*
X162845379Y-119992442D01*
X162748904Y-120181782D01*
X162683242Y-120383870D01*
X162683242Y-120383873D01*
X162672769Y-120450000D01*
X163566988Y-120450000D01*
X163534075Y-120507007D01*
X163500000Y-120634174D01*
X163500000Y-120765826D01*
X163534075Y-120892993D01*
X163566988Y-120950000D01*
X162672769Y-120950000D01*
X162683242Y-121016126D01*
X162683242Y-121016129D01*
X162748904Y-121218217D01*
X162845379Y-121407557D01*
X162970272Y-121579459D01*
X162970276Y-121579464D01*
X163120535Y-121729723D01*
X163120540Y-121729727D01*
X163292444Y-121854622D01*
X163302048Y-121859516D01*
X163352844Y-121907491D01*
X163369638Y-121975312D01*
X163347100Y-122041447D01*
X163302048Y-122080484D01*
X163292444Y-122085377D01*
X163120540Y-122210272D01*
X163120535Y-122210276D01*
X162970276Y-122360535D01*
X162970272Y-122360540D01*
X162845379Y-122532442D01*
X162748904Y-122721782D01*
X162683242Y-122923870D01*
X162683242Y-122923873D01*
X162672769Y-122990000D01*
X163566988Y-122990000D01*
X163534075Y-123047007D01*
X163500000Y-123174174D01*
X163500000Y-123305826D01*
X163534075Y-123432993D01*
X163566988Y-123490000D01*
X162672769Y-123490000D01*
X162683242Y-123556126D01*
X162683242Y-123556129D01*
X162748904Y-123758217D01*
X162845379Y-123947557D01*
X162970272Y-124119459D01*
X162970276Y-124119464D01*
X163120535Y-124269723D01*
X163120540Y-124269727D01*
X163292444Y-124394622D01*
X163302048Y-124399516D01*
X163352844Y-124447491D01*
X163369638Y-124515312D01*
X163347100Y-124581447D01*
X163302048Y-124620484D01*
X163292444Y-124625377D01*
X163120540Y-124750272D01*
X163120535Y-124750276D01*
X162981882Y-124888930D01*
X162920559Y-124922415D01*
X162850867Y-124917431D01*
X162806520Y-124888930D01*
X159046068Y-121128478D01*
X159042219Y-121121429D01*
X159035711Y-121116722D01*
X159025714Y-121091203D01*
X159012583Y-121067155D01*
X159013155Y-121059144D01*
X159010226Y-121051665D01*
X159015612Y-121024795D01*
X159017567Y-120997463D01*
X159022731Y-120989279D01*
X159023959Y-120983159D01*
X159042486Y-120957982D01*
X159044645Y-120954562D01*
X159045306Y-120953878D01*
X159151966Y-120847219D01*
X159272287Y-120681610D01*
X159365220Y-120499219D01*
X159428477Y-120304534D01*
X159460500Y-120102352D01*
X159460500Y-119897648D01*
X159433359Y-119726287D01*
X159428477Y-119695465D01*
X159379710Y-119545377D01*
X159365220Y-119500781D01*
X159365218Y-119500778D01*
X159365218Y-119500776D01*
X159319758Y-119411557D01*
X159272287Y-119318390D01*
X159261656Y-119303757D01*
X159151971Y-119152786D01*
X159007213Y-119008028D01*
X158841613Y-118887715D01*
X158841612Y-118887714D01*
X158841610Y-118887713D01*
X158784284Y-118858504D01*
X158659223Y-118794781D01*
X158464534Y-118731522D01*
X158289995Y-118703878D01*
X158262352Y-118699500D01*
X158057648Y-118699500D01*
X158017184Y-118705909D01*
X157855464Y-118731523D01*
X157855461Y-118731523D01*
X157806818Y-118747329D01*
X157736977Y-118749324D01*
X157677144Y-118713244D01*
X157646316Y-118650543D01*
X157644500Y-118629398D01*
X157644500Y-117578452D01*
X157664185Y-117511413D01*
X157680819Y-117490771D01*
X158158246Y-117013345D01*
X158645858Y-116525733D01*
X158714312Y-116423285D01*
X158753856Y-116327816D01*
X158761463Y-116309452D01*
X158769613Y-116268477D01*
X158784419Y-116194043D01*
X158816805Y-116132133D01*
X158837775Y-116115297D01*
X158837669Y-116115151D01*
X158840716Y-116112936D01*
X158841257Y-116112503D01*
X158841599Y-116112292D01*
X158841610Y-116112287D01*
X158927493Y-116049890D01*
X159007213Y-115991971D01*
X159007215Y-115991968D01*
X159007219Y-115991966D01*
X159151966Y-115847219D01*
X159175353Y-115815029D01*
X159215295Y-115760054D01*
X159215297Y-115760051D01*
X159237493Y-115729500D01*
X159272287Y-115681610D01*
X159365220Y-115499219D01*
X159428477Y-115304534D01*
X159460500Y-115102352D01*
X159460500Y-114897648D01*
X159428477Y-114695466D01*
X159412497Y-114646286D01*
X159365218Y-114500776D01*
X159321003Y-114414000D01*
X159272287Y-114318390D01*
X159243346Y-114278556D01*
X159151971Y-114152786D01*
X159007213Y-114008028D01*
X158841613Y-113887715D01*
X158841612Y-113887714D01*
X158841610Y-113887713D01*
X158784653Y-113858691D01*
X158659223Y-113794781D01*
X158464534Y-113731522D01*
X158289995Y-113703878D01*
X158262352Y-113699500D01*
X158057648Y-113699500D01*
X158033329Y-113703351D01*
X157855465Y-113731522D01*
X157660776Y-113794781D01*
X157478386Y-113887715D01*
X157312786Y-114008028D01*
X157168028Y-114152786D01*
X157047715Y-114318386D01*
X156954781Y-114500776D01*
X156891522Y-114695465D01*
X156859500Y-114897648D01*
X156859500Y-115102351D01*
X156891522Y-115304534D01*
X156954781Y-115499223D01*
X156990900Y-115570109D01*
X157047712Y-115681609D01*
X157047715Y-115681613D01*
X157168028Y-115847213D01*
X157273930Y-115953115D01*
X157307415Y-116014438D01*
X157302431Y-116084130D01*
X157273930Y-116128477D01*
X156620269Y-116782140D01*
X156533144Y-116869264D01*
X156533138Y-116869272D01*
X156498914Y-116920489D01*
X156498915Y-116920490D01*
X156464688Y-116971713D01*
X156464688Y-116971714D01*
X156460652Y-116981459D01*
X156423861Y-117070282D01*
X156417537Y-117085549D01*
X156396484Y-117191394D01*
X156395273Y-117197480D01*
X156395273Y-117197481D01*
X156393500Y-117206394D01*
X156393500Y-135732183D01*
X156373815Y-135799222D01*
X156321011Y-135844977D01*
X156251853Y-135854921D01*
X156213205Y-135842668D01*
X156119223Y-135794781D01*
X155924534Y-135731522D01*
X155749995Y-135703878D01*
X155722352Y-135699500D01*
X155517648Y-135699500D01*
X155493329Y-135703351D01*
X155315465Y-135731522D01*
X155120773Y-135794782D01*
X155033794Y-135839101D01*
X154965125Y-135851997D01*
X154900385Y-135825720D01*
X154860128Y-135768614D01*
X154853500Y-135728616D01*
X154853500Y-133624350D01*
X154873185Y-133557311D01*
X154874398Y-133555459D01*
X154890633Y-133531162D01*
X154937394Y-133461179D01*
X154997737Y-133315497D01*
X155028500Y-133160842D01*
X155028500Y-133003158D01*
X155028500Y-133003155D01*
X155028499Y-133003153D01*
X155007980Y-132900000D01*
X154997737Y-132848503D01*
X154982808Y-132812461D01*
X154937397Y-132702827D01*
X154937390Y-132702814D01*
X154849789Y-132571711D01*
X154849786Y-132571707D01*
X154738292Y-132460213D01*
X154738288Y-132460210D01*
X154607185Y-132372609D01*
X154607172Y-132372602D01*
X154461501Y-132312264D01*
X154461489Y-132312261D01*
X154306845Y-132281500D01*
X154306842Y-132281500D01*
X154149158Y-132281500D01*
X154149155Y-132281500D01*
X153994510Y-132312261D01*
X153994498Y-132312264D01*
X153848827Y-132372602D01*
X153848814Y-132372609D01*
X153717711Y-132460210D01*
X153717707Y-132460213D01*
X153606213Y-132571707D01*
X153606210Y-132571711D01*
X153518609Y-132702814D01*
X153518602Y-132702827D01*
X153458264Y-132848498D01*
X153458261Y-132848510D01*
X153427500Y-133003153D01*
X153427500Y-133160846D01*
X153458261Y-133315489D01*
X153458264Y-133315501D01*
X153518602Y-133461172D01*
X153518609Y-133461184D01*
X153581602Y-133555459D01*
X153602480Y-133622136D01*
X153602500Y-133624350D01*
X153602500Y-142316547D01*
X153582815Y-142383586D01*
X153566181Y-142404228D01*
X149361144Y-146609264D01*
X149299821Y-146642749D01*
X149230129Y-146637765D01*
X149174196Y-146595893D01*
X149162978Y-146577877D01*
X149142457Y-146537603D01*
X149112287Y-146478390D01*
X149112284Y-146478386D01*
X149009964Y-146337553D01*
X148986484Y-146271747D01*
X149002310Y-146203693D01*
X149022597Y-146176991D01*
X152234729Y-142964860D01*
X152234733Y-142964858D01*
X152321858Y-142877733D01*
X152367483Y-142809451D01*
X152390312Y-142775286D01*
X152437463Y-142661451D01*
X152437464Y-142661444D01*
X152437465Y-142661444D01*
X152442862Y-142634312D01*
X152453820Y-142579220D01*
X152461500Y-142540606D01*
X152461500Y-130334350D01*
X152481185Y-130267311D01*
X152482398Y-130265459D01*
X152521761Y-130206548D01*
X152545394Y-130171179D01*
X152605737Y-130025497D01*
X152636500Y-129870842D01*
X152636500Y-129713158D01*
X152636500Y-129713155D01*
X152636499Y-129713153D01*
X152634953Y-129705379D01*
X152605737Y-129558503D01*
X152573019Y-129479514D01*
X152545397Y-129412827D01*
X152545390Y-129412814D01*
X152457789Y-129281711D01*
X152457786Y-129281707D01*
X152346291Y-129170212D01*
X152331948Y-129160628D01*
X152307120Y-129144039D01*
X152262317Y-129090429D01*
X152253609Y-129021104D01*
X152283763Y-128958076D01*
X152288312Y-128953276D01*
X153407797Y-127833791D01*
X153469118Y-127800308D01*
X153471128Y-127799889D01*
X153582497Y-127777737D01*
X153728179Y-127717394D01*
X153859289Y-127629789D01*
X153970789Y-127518289D01*
X154058394Y-127387179D01*
X154118737Y-127241497D01*
X154149500Y-127086842D01*
X154149500Y-126929158D01*
X154149500Y-126929155D01*
X154149499Y-126929153D01*
X154126046Y-126811249D01*
X154118737Y-126774503D01*
X154096818Y-126721585D01*
X154058397Y-126628827D01*
X154058390Y-126628814D01*
X153970789Y-126497711D01*
X153970786Y-126497707D01*
X153859292Y-126386213D01*
X153859288Y-126386210D01*
X153728185Y-126298609D01*
X153728172Y-126298602D01*
X153582501Y-126238264D01*
X153582491Y-126238261D01*
X153519620Y-126225755D01*
X153457709Y-126193369D01*
X153423135Y-126132653D01*
X153426876Y-126062884D01*
X153456129Y-126016459D01*
X154225797Y-125246791D01*
X154287118Y-125213308D01*
X154289128Y-125212889D01*
X154400497Y-125190737D01*
X154529102Y-125137467D01*
X154546172Y-125130397D01*
X154546172Y-125130396D01*
X154546179Y-125130394D01*
X154677289Y-125042789D01*
X154788789Y-124931289D01*
X154876394Y-124800179D01*
X154936737Y-124654497D01*
X154967500Y-124499842D01*
X154967500Y-124342158D01*
X154967500Y-124342155D01*
X154967499Y-124342153D01*
X154953092Y-124269727D01*
X154936737Y-124187503D01*
X154909202Y-124121027D01*
X154876397Y-124041827D01*
X154876390Y-124041814D01*
X154788789Y-123910711D01*
X154788786Y-123910707D01*
X154677292Y-123799213D01*
X154677288Y-123799210D01*
X154546185Y-123711609D01*
X154546172Y-123711602D01*
X154400501Y-123651264D01*
X154400489Y-123651261D01*
X154245845Y-123620500D01*
X154245842Y-123620500D01*
X154088158Y-123620500D01*
X154009784Y-123636089D01*
X153976030Y-123633067D01*
X153942273Y-123630657D01*
X153941345Y-123629963D01*
X153940193Y-123629860D01*
X153913451Y-123609086D01*
X153886335Y-123588792D01*
X153885930Y-123587707D01*
X153885016Y-123586997D01*
X153873750Y-123555063D01*
X153861911Y-123523330D01*
X153862157Y-123522198D01*
X153861772Y-123521107D01*
X153869563Y-123488135D01*
X153876756Y-123455055D01*
X153877668Y-123453835D01*
X153877840Y-123453110D01*
X153897901Y-123426802D01*
X154070887Y-123253781D01*
X154132203Y-123220292D01*
X154134236Y-123219867D01*
X154245497Y-123197737D01*
X154391179Y-123137394D01*
X154522289Y-123049789D01*
X154633789Y-122938289D01*
X154721394Y-122807179D01*
X154781737Y-122661497D01*
X154812500Y-122506842D01*
X154812500Y-122349158D01*
X154812500Y-122349155D01*
X154812499Y-122349153D01*
X154796016Y-122266287D01*
X154781737Y-122194503D01*
X154757996Y-122137187D01*
X154721397Y-122048827D01*
X154721390Y-122048814D01*
X154633789Y-121917711D01*
X154633786Y-121917707D01*
X154522292Y-121806213D01*
X154522288Y-121806210D01*
X154391185Y-121718609D01*
X154391172Y-121718602D01*
X154245501Y-121658264D01*
X154245489Y-121658261D01*
X154090845Y-121627500D01*
X154090842Y-121627500D01*
X153933158Y-121627500D01*
X153933155Y-121627500D01*
X153778510Y-121658261D01*
X153778498Y-121658264D01*
X153632827Y-121718602D01*
X153632814Y-121718609D01*
X153501711Y-121806210D01*
X153501707Y-121806213D01*
X153390213Y-121917707D01*
X153390210Y-121917711D01*
X153302609Y-122048814D01*
X153302602Y-122048827D01*
X153242264Y-122194498D01*
X153242261Y-122194508D01*
X153220121Y-122305812D01*
X153187736Y-122367723D01*
X153186194Y-122369292D01*
X149486189Y-126070054D01*
X149424869Y-126103546D01*
X149355177Y-126098568D01*
X149299239Y-126056703D01*
X149274816Y-125991241D01*
X149282318Y-125939047D01*
X149294091Y-125907483D01*
X149296370Y-125886286D01*
X149300500Y-125847873D01*
X149300499Y-124152128D01*
X149294091Y-124092517D01*
X149259937Y-124000946D01*
X149243797Y-123957671D01*
X149243793Y-123957664D01*
X149157547Y-123842455D01*
X149157544Y-123842452D01*
X149042335Y-123756206D01*
X149042328Y-123756202D01*
X148907482Y-123705908D01*
X148907483Y-123705908D01*
X148847883Y-123699501D01*
X148847881Y-123699500D01*
X148847873Y-123699500D01*
X148847865Y-123699500D01*
X147622500Y-123699500D01*
X147555461Y-123679815D01*
X147509706Y-123627011D01*
X147498500Y-123575500D01*
X147498500Y-121424499D01*
X147518185Y-121357460D01*
X147570989Y-121311705D01*
X147622500Y-121300499D01*
X148847871Y-121300499D01*
X148847872Y-121300499D01*
X148907483Y-121294091D01*
X149042331Y-121243796D01*
X149157546Y-121157546D01*
X149243796Y-121042331D01*
X149294091Y-120907483D01*
X149300500Y-120847873D01*
X149300499Y-119152128D01*
X149294091Y-119092517D01*
X149249250Y-118972293D01*
X149243797Y-118957671D01*
X149243793Y-118957664D01*
X149157547Y-118842455D01*
X149157544Y-118842452D01*
X149042335Y-118756206D01*
X149042328Y-118756202D01*
X148907482Y-118705908D01*
X148907483Y-118705908D01*
X148847883Y-118699501D01*
X148847881Y-118699500D01*
X148847873Y-118699500D01*
X148847865Y-118699500D01*
X147622500Y-118699500D01*
X147555461Y-118679815D01*
X147509706Y-118627011D01*
X147498500Y-118575500D01*
X147498500Y-116424499D01*
X147518185Y-116357460D01*
X147570989Y-116311705D01*
X147622500Y-116300499D01*
X148847871Y-116300499D01*
X148847872Y-116300499D01*
X148907483Y-116294091D01*
X149042331Y-116243796D01*
X149157546Y-116157546D01*
X149243796Y-116042331D01*
X149294091Y-115907483D01*
X149300500Y-115847873D01*
X149300499Y-114152128D01*
X149294091Y-114092517D01*
X149274503Y-114040000D01*
X149243797Y-113957671D01*
X149243793Y-113957664D01*
X149157547Y-113842455D01*
X149157544Y-113842452D01*
X149042335Y-113756206D01*
X149042328Y-113756202D01*
X148907482Y-113705908D01*
X148907483Y-113705908D01*
X148847883Y-113699501D01*
X148847881Y-113699500D01*
X148847873Y-113699500D01*
X148847865Y-113699500D01*
X147622500Y-113699500D01*
X147555461Y-113679815D01*
X147509706Y-113627011D01*
X147498500Y-113575500D01*
X147498500Y-111532451D01*
X147518185Y-111465412D01*
X147534815Y-111444774D01*
X148220797Y-110758791D01*
X148282118Y-110725308D01*
X148284128Y-110724889D01*
X148395497Y-110702737D01*
X148541179Y-110642394D01*
X148672289Y-110554789D01*
X148783789Y-110443289D01*
X148871394Y-110312179D01*
X148931737Y-110166497D01*
X148962500Y-110011842D01*
X148962500Y-109854158D01*
X148962500Y-109854155D01*
X148962499Y-109854153D01*
X148931738Y-109699510D01*
X148931738Y-109699508D01*
X148931737Y-109699503D01*
X148930065Y-109695466D01*
X148871397Y-109553827D01*
X148871390Y-109553814D01*
X148783789Y-109422711D01*
X148783786Y-109422707D01*
X148672292Y-109311213D01*
X148672288Y-109311210D01*
X148541185Y-109223609D01*
X148541172Y-109223602D01*
X148395501Y-109163264D01*
X148395489Y-109163261D01*
X148240845Y-109132500D01*
X148240842Y-109132500D01*
X148083158Y-109132500D01*
X148083155Y-109132500D01*
X147928510Y-109163261D01*
X147928498Y-109163264D01*
X147782827Y-109223602D01*
X147782814Y-109223609D01*
X147651711Y-109311210D01*
X147651707Y-109311213D01*
X147540213Y-109422707D01*
X147540210Y-109422711D01*
X147452609Y-109553814D01*
X147452602Y-109553827D01*
X147392264Y-109699498D01*
X147392261Y-109699508D01*
X147370141Y-109810714D01*
X147337756Y-109872625D01*
X147336205Y-109874203D01*
X146898237Y-110312172D01*
X146474270Y-110736139D01*
X146474267Y-110736142D01*
X146451616Y-110758793D01*
X146387141Y-110823267D01*
X146370699Y-110847873D01*
X146370700Y-110847874D01*
X146318686Y-110925717D01*
X146318685Y-110925718D01*
X146300387Y-110969896D01*
X146285347Y-111006207D01*
X146279823Y-111019543D01*
X146271537Y-111039545D01*
X146271535Y-111039553D01*
X146247500Y-111160389D01*
X146247500Y-111160394D01*
X146247500Y-134685529D01*
X146247472Y-134685671D01*
X146247500Y-134748397D01*
X146247500Y-134808618D01*
X146247526Y-134808882D01*
X146247527Y-134808884D01*
X146259616Y-134869520D01*
X146271537Y-134929452D01*
X146271590Y-134929582D01*
X146271618Y-134929718D01*
X146271682Y-134929873D01*
X146271683Y-134929876D01*
X146286784Y-134966286D01*
X146295251Y-134986702D01*
X146318689Y-135043286D01*
X146318765Y-135043400D01*
X146318820Y-135043532D01*
X146330196Y-135060540D01*
X146352917Y-135094511D01*
X146352947Y-135094557D01*
X146387144Y-135145736D01*
X146387311Y-135145940D01*
X146430119Y-135188710D01*
X146430159Y-135188750D01*
X146478292Y-135236884D01*
X146478758Y-135237306D01*
X146879513Y-135637705D01*
X146913025Y-135699012D01*
X146908072Y-135768706D01*
X146866226Y-135824658D01*
X146866184Y-135824689D01*
X146842454Y-135842453D01*
X146842452Y-135842455D01*
X146756206Y-135957664D01*
X146756202Y-135957671D01*
X146705908Y-136092517D01*
X146699501Y-136152116D01*
X146699500Y-136152135D01*
X146699500Y-137847870D01*
X146699501Y-137847876D01*
X146705908Y-137907483D01*
X146756202Y-138042328D01*
X146756206Y-138042335D01*
X146842452Y-138157544D01*
X146842455Y-138157547D01*
X146957664Y-138243793D01*
X146957671Y-138243797D01*
X146977225Y-138251090D01*
X147092517Y-138294091D01*
X147129441Y-138298060D01*
X147193989Y-138324796D01*
X147233838Y-138382188D01*
X147236333Y-138452013D01*
X147200681Y-138512102D01*
X147189071Y-138521666D01*
X147152784Y-138548030D01*
X147008028Y-138692786D01*
X146887715Y-138858386D01*
X146794781Y-139040776D01*
X146731522Y-139235465D01*
X146699500Y-139437648D01*
X146699500Y-139642351D01*
X146731522Y-139844534D01*
X146794781Y-140039223D01*
X146887715Y-140221613D01*
X147008028Y-140387213D01*
X147008034Y-140387219D01*
X147152781Y-140531966D01*
X147318390Y-140652287D01*
X147328886Y-140657634D01*
X147348563Y-140676218D01*
X147370516Y-140692049D01*
X147373585Y-140699850D01*
X147379681Y-140705607D01*
X147386187Y-140731878D01*
X147396098Y-140757067D01*
X147395444Y-140769257D01*
X147396477Y-140773427D01*
X147394208Y-140792311D01*
X147375581Y-140885953D01*
X147343196Y-140947864D01*
X147322225Y-140964704D01*
X147322331Y-140964849D01*
X147319337Y-140967023D01*
X147318777Y-140967474D01*
X147318398Y-140967705D01*
X147152786Y-141088028D01*
X147008028Y-141232786D01*
X146887715Y-141398386D01*
X146794781Y-141580776D01*
X146731522Y-141775465D01*
X146699500Y-141977648D01*
X146699500Y-142182351D01*
X146731522Y-142384534D01*
X146794781Y-142579223D01*
X146887715Y-142761613D01*
X147008028Y-142927213D01*
X147008034Y-142927219D01*
X147152781Y-143071966D01*
X147318390Y-143192287D01*
X147328886Y-143197634D01*
X147348563Y-143216218D01*
X147370516Y-143232049D01*
X147373585Y-143239850D01*
X147379681Y-143245607D01*
X147386187Y-143271878D01*
X147396098Y-143297067D01*
X147395444Y-143309257D01*
X147396477Y-143313427D01*
X147394208Y-143332311D01*
X147375581Y-143425953D01*
X147343196Y-143487864D01*
X147322225Y-143504704D01*
X147322331Y-143504849D01*
X147319337Y-143507023D01*
X147318777Y-143507474D01*
X147318398Y-143507705D01*
X147152786Y-143628028D01*
X147008028Y-143772786D01*
X146887715Y-143938386D01*
X146794781Y-144120776D01*
X146731522Y-144315465D01*
X146699500Y-144517648D01*
X146699500Y-144722351D01*
X146731522Y-144924534D01*
X146794781Y-145119223D01*
X146887715Y-145301613D01*
X147008028Y-145467213D01*
X147008034Y-145467219D01*
X147152781Y-145611966D01*
X147318390Y-145732287D01*
X147328886Y-145737634D01*
X147348563Y-145756218D01*
X147370516Y-145772049D01*
X147373585Y-145779850D01*
X147379681Y-145785607D01*
X147386187Y-145811878D01*
X147396098Y-145837067D01*
X147395444Y-145849257D01*
X147396477Y-145853427D01*
X147394208Y-145872311D01*
X147375581Y-145965953D01*
X147343196Y-146027864D01*
X147322225Y-146044704D01*
X147322331Y-146044849D01*
X147319337Y-146047023D01*
X147318777Y-146047474D01*
X147318398Y-146047705D01*
X147152786Y-146168028D01*
X147008028Y-146312786D01*
X146887715Y-146478386D01*
X146794781Y-146660776D01*
X146731522Y-146855465D01*
X146699500Y-147057648D01*
X146699500Y-147262351D01*
X146731522Y-147464534D01*
X146794781Y-147659223D01*
X146853851Y-147775153D01*
X146868908Y-147804704D01*
X146887715Y-147841613D01*
X147008028Y-148007213D01*
X147008034Y-148007219D01*
X147152781Y-148151966D01*
X147318390Y-148272287D01*
X147328886Y-148277634D01*
X147348563Y-148296218D01*
X147370516Y-148312049D01*
X147373585Y-148319850D01*
X147379681Y-148325607D01*
X147386187Y-148351878D01*
X147396098Y-148377067D01*
X147395444Y-148389257D01*
X147396477Y-148393427D01*
X147394208Y-148412311D01*
X147375581Y-148505953D01*
X147343196Y-148567864D01*
X147322225Y-148584704D01*
X147322331Y-148584849D01*
X147319337Y-148587023D01*
X147318777Y-148587474D01*
X147318398Y-148587705D01*
X147152786Y-148708028D01*
X147008028Y-148852786D01*
X146887715Y-149018386D01*
X146794781Y-149200776D01*
X146731522Y-149395465D01*
X146699500Y-149597648D01*
X146699500Y-149802351D01*
X146731522Y-150004534D01*
X146794781Y-150199223D01*
X146887715Y-150381613D01*
X147008028Y-150547213D01*
X147152786Y-150691971D01*
X147282444Y-150786171D01*
X147318390Y-150812287D01*
X147388251Y-150847883D01*
X147411080Y-150859515D01*
X147461876Y-150907490D01*
X147478671Y-150975311D01*
X147456134Y-151041446D01*
X147411080Y-151080485D01*
X147318386Y-151127715D01*
X147152786Y-151248028D01*
X147008028Y-151392786D01*
X146887715Y-151558386D01*
X146794781Y-151740776D01*
X146731522Y-151935465D01*
X146699500Y-152137648D01*
X146699500Y-152342351D01*
X146731522Y-152544534D01*
X146794781Y-152739223D01*
X146887715Y-152921613D01*
X147008028Y-153087213D01*
X147152786Y-153231971D01*
X147264903Y-153313427D01*
X147318390Y-153352287D01*
X147373761Y-153380500D01*
X147411629Y-153399795D01*
X147462425Y-153447770D01*
X147479220Y-153515591D01*
X147456682Y-153581726D01*
X147411629Y-153620765D01*
X147318650Y-153668140D01*
X147153105Y-153788417D01*
X147153104Y-153788417D01*
X147008417Y-153933104D01*
X147008417Y-153933105D01*
X146888140Y-154098650D01*
X146795244Y-154280970D01*
X146732009Y-154475586D01*
X146723391Y-154530000D01*
X147684314Y-154530000D01*
X147679920Y-154534394D01*
X147627259Y-154625606D01*
X147600000Y-154727339D01*
X147600000Y-154832661D01*
X147627259Y-154934394D01*
X147679920Y-155025606D01*
X147684314Y-155030000D01*
X146723391Y-155030000D01*
X146732009Y-155084413D01*
X146795244Y-155279029D01*
X146888140Y-155461349D01*
X146979539Y-155587148D01*
X147003019Y-155652955D01*
X146987194Y-155721009D01*
X146953532Y-155759300D01*
X146842455Y-155842452D01*
X146842452Y-155842455D01*
X146756206Y-155957664D01*
X146756202Y-155957671D01*
X146705908Y-156092517D01*
X146699898Y-156148422D01*
X146699501Y-156152123D01*
X146699500Y-156152135D01*
X146699500Y-157847870D01*
X146699501Y-157847876D01*
X146705908Y-157907483D01*
X146756202Y-158042328D01*
X146756206Y-158042335D01*
X146842452Y-158157544D01*
X146842455Y-158157547D01*
X146957664Y-158243793D01*
X146957671Y-158243797D01*
X147092517Y-158294091D01*
X147092516Y-158294091D01*
X147099444Y-158294835D01*
X147152127Y-158300500D01*
X148847872Y-158300499D01*
X148907483Y-158294091D01*
X149042331Y-158243796D01*
X149157546Y-158157546D01*
X149243796Y-158042331D01*
X149294091Y-157907483D01*
X149300500Y-157847873D01*
X149300499Y-156750000D01*
X151723391Y-156750000D01*
X152684314Y-156750000D01*
X152679920Y-156754394D01*
X152627259Y-156845606D01*
X152600000Y-156947339D01*
X152600000Y-157052661D01*
X152627259Y-157154394D01*
X152679920Y-157245606D01*
X152684314Y-157250000D01*
X151723391Y-157250000D01*
X151732009Y-157304413D01*
X151795244Y-157499029D01*
X151888140Y-157681349D01*
X152008417Y-157846894D01*
X152008417Y-157846895D01*
X152153104Y-157991582D01*
X152318650Y-158111859D01*
X152500968Y-158204754D01*
X152695578Y-158267988D01*
X152750000Y-158276607D01*
X152750000Y-157315686D01*
X152754394Y-157320080D01*
X152845606Y-157372741D01*
X152947339Y-157400000D01*
X153052661Y-157400000D01*
X153154394Y-157372741D01*
X153245606Y-157320080D01*
X153250000Y-157315686D01*
X153250000Y-158276606D01*
X153304421Y-158267988D01*
X153499031Y-158204754D01*
X153681349Y-158111859D01*
X153846894Y-157991582D01*
X153846895Y-157991582D01*
X153991582Y-157846895D01*
X153991582Y-157846894D01*
X154111859Y-157681349D01*
X154204755Y-157499029D01*
X154267990Y-157304413D01*
X154276609Y-157250000D01*
X153315686Y-157250000D01*
X153320080Y-157245606D01*
X153372741Y-157154394D01*
X153400000Y-157052661D01*
X153400000Y-156947339D01*
X153372741Y-156845606D01*
X153320080Y-156754394D01*
X153315686Y-156750000D01*
X154276609Y-156750000D01*
X154267990Y-156695586D01*
X154204755Y-156500970D01*
X154111859Y-156318650D01*
X153991582Y-156153105D01*
X153991582Y-156153104D01*
X153846895Y-156008417D01*
X153681349Y-155888140D01*
X153499029Y-155795244D01*
X153304413Y-155732009D01*
X153250000Y-155723390D01*
X153250000Y-156684314D01*
X153245606Y-156679920D01*
X153154394Y-156627259D01*
X153052661Y-156600000D01*
X152947339Y-156600000D01*
X152845606Y-156627259D01*
X152754394Y-156679920D01*
X152750000Y-156684314D01*
X152750000Y-155723390D01*
X152695586Y-155732009D01*
X152500970Y-155795244D01*
X152318650Y-155888140D01*
X152153105Y-156008417D01*
X152153104Y-156008417D01*
X152008417Y-156153104D01*
X152008417Y-156153105D01*
X151888140Y-156318650D01*
X151795244Y-156500970D01*
X151732009Y-156695586D01*
X151723391Y-156750000D01*
X149300499Y-156750000D01*
X149300499Y-156152128D01*
X149294091Y-156092517D01*
X149256969Y-155992989D01*
X149243797Y-155957671D01*
X149243793Y-155957664D01*
X149157547Y-155842456D01*
X149157548Y-155842456D01*
X149157546Y-155842454D01*
X149046465Y-155759299D01*
X149004596Y-155703367D01*
X148999612Y-155633675D01*
X149020460Y-155587148D01*
X149111859Y-155461349D01*
X149204755Y-155279029D01*
X149267990Y-155084413D01*
X149276609Y-155030000D01*
X148315686Y-155030000D01*
X148320080Y-155025606D01*
X148372741Y-154934394D01*
X148400000Y-154832661D01*
X148400000Y-154727339D01*
X148372741Y-154625606D01*
X148320080Y-154534394D01*
X148315686Y-154530000D01*
X149276609Y-154530000D01*
X149267990Y-154475586D01*
X149204755Y-154280970D01*
X149111859Y-154098650D01*
X148991582Y-153933105D01*
X148991582Y-153933104D01*
X148846895Y-153788417D01*
X148681349Y-153668140D01*
X148588370Y-153620765D01*
X148537574Y-153572790D01*
X148520779Y-153504969D01*
X148543316Y-153438835D01*
X148588370Y-153399795D01*
X148588920Y-153399515D01*
X148681610Y-153352287D01*
X148740836Y-153309257D01*
X148847213Y-153231971D01*
X148847215Y-153231968D01*
X148847219Y-153231966D01*
X148991966Y-153087219D01*
X148991968Y-153087215D01*
X148991971Y-153087213D01*
X149044732Y-153014590D01*
X149112287Y-152921610D01*
X149205220Y-152739219D01*
X149268477Y-152544534D01*
X149300500Y-152342352D01*
X149300500Y-152137648D01*
X149268477Y-151935466D01*
X149205220Y-151740781D01*
X149205218Y-151740778D01*
X149205218Y-151740776D01*
X149171503Y-151674607D01*
X149112287Y-151558390D01*
X149091126Y-151529264D01*
X148991971Y-151392786D01*
X148847213Y-151248028D01*
X148681614Y-151127715D01*
X148660170Y-151116789D01*
X148588917Y-151080483D01*
X148538123Y-151032511D01*
X148521328Y-150964690D01*
X148543865Y-150898555D01*
X148588917Y-150859516D01*
X148681610Y-150812287D01*
X148717556Y-150786171D01*
X148847213Y-150691971D01*
X148847215Y-150691968D01*
X148847219Y-150691966D01*
X148991966Y-150547219D01*
X148991968Y-150547215D01*
X148991971Y-150547213D01*
X149065186Y-150446439D01*
X149112287Y-150381610D01*
X149205220Y-150199219D01*
X149268477Y-150004534D01*
X149300500Y-149802352D01*
X149300500Y-149597648D01*
X149288169Y-149519792D01*
X149268477Y-149395465D01*
X149228833Y-149273454D01*
X149205220Y-149200781D01*
X149205218Y-149200778D01*
X149205218Y-149200776D01*
X149151926Y-149096186D01*
X149112287Y-149018390D01*
X149067050Y-148956126D01*
X149009964Y-148877553D01*
X148986484Y-148811747D01*
X149002310Y-148743693D01*
X149022597Y-148716991D01*
X154626729Y-143112860D01*
X154626733Y-143112858D01*
X154636995Y-143102595D01*
X154665614Y-143086970D01*
X154698307Y-143069118D01*
X154698311Y-143069118D01*
X154698318Y-143069115D01*
X154735633Y-143071786D01*
X154767999Y-143074100D01*
X154768006Y-143074103D01*
X154768009Y-143074104D01*
X154768015Y-143074108D01*
X154797554Y-143089965D01*
X154893814Y-143159901D01*
X154938390Y-143192287D01*
X155010424Y-143228990D01*
X155031629Y-143239795D01*
X155082425Y-143287770D01*
X155099220Y-143355591D01*
X155076682Y-143421726D01*
X155031629Y-143460765D01*
X154938650Y-143508140D01*
X154773105Y-143628417D01*
X154773104Y-143628417D01*
X154628417Y-143773104D01*
X154628417Y-143773105D01*
X154508140Y-143938650D01*
X154415244Y-144120970D01*
X154352009Y-144315586D01*
X154343391Y-144370000D01*
X155304314Y-144370000D01*
X155299920Y-144374394D01*
X155247259Y-144465606D01*
X155220000Y-144567339D01*
X155220000Y-144672661D01*
X155247259Y-144774394D01*
X155299920Y-144865606D01*
X155304314Y-144870000D01*
X154343391Y-144870000D01*
X154352009Y-144924413D01*
X154415244Y-145119029D01*
X154508140Y-145301349D01*
X154628417Y-145466894D01*
X154628416Y-145466894D01*
X154773104Y-145611582D01*
X154938652Y-145731861D01*
X155031628Y-145779234D01*
X155082425Y-145827208D01*
X155099220Y-145895029D01*
X155076683Y-145961164D01*
X155031630Y-146000203D01*
X154938388Y-146047713D01*
X154772786Y-146168028D01*
X154628028Y-146312786D01*
X154507715Y-146478386D01*
X154414781Y-146660776D01*
X154351522Y-146855465D01*
X154319500Y-147057648D01*
X154319500Y-147262351D01*
X154351522Y-147464534D01*
X154414781Y-147659223D01*
X154473851Y-147775153D01*
X154488908Y-147804704D01*
X154507715Y-147841613D01*
X154628028Y-148007213D01*
X154772786Y-148151971D01*
X154920179Y-148259056D01*
X154938390Y-148272287D01*
X155016427Y-148312049D01*
X155031080Y-148319515D01*
X155081876Y-148367490D01*
X155098671Y-148435311D01*
X155076134Y-148501446D01*
X155031080Y-148540485D01*
X154938386Y-148587715D01*
X154772786Y-148708028D01*
X154628028Y-148852786D01*
X154507715Y-149018386D01*
X154414781Y-149200776D01*
X154351522Y-149395465D01*
X154319500Y-149597648D01*
X154319500Y-149802351D01*
X154351522Y-150004534D01*
X154414781Y-150199223D01*
X154507715Y-150381613D01*
X154628028Y-150547213D01*
X154772786Y-150691971D01*
X154902444Y-150786171D01*
X154938390Y-150812287D01*
X155008251Y-150847883D01*
X155031080Y-150859515D01*
X155081876Y-150907490D01*
X155098671Y-150975311D01*
X155076134Y-151041446D01*
X155031080Y-151080485D01*
X154938386Y-151127715D01*
X154772786Y-151248028D01*
X154628028Y-151392786D01*
X154507715Y-151558386D01*
X154414781Y-151740776D01*
X154351522Y-151935465D01*
X154319500Y-152137648D01*
X154319500Y-152342351D01*
X154351522Y-152544534D01*
X154414781Y-152739223D01*
X154507715Y-152921613D01*
X154628028Y-153087213D01*
X154772786Y-153231971D01*
X154884903Y-153313427D01*
X154938390Y-153352287D01*
X155029840Y-153398883D01*
X155031080Y-153399515D01*
X155081876Y-153447490D01*
X155098671Y-153515311D01*
X155076134Y-153581446D01*
X155031080Y-153620485D01*
X154938386Y-153667715D01*
X154772786Y-153788028D01*
X154628028Y-153932786D01*
X154507715Y-154098386D01*
X154414781Y-154280776D01*
X154351522Y-154475465D01*
X154319500Y-154677648D01*
X154319500Y-154882351D01*
X154351522Y-155084534D01*
X154414781Y-155279223D01*
X154507715Y-155461613D01*
X154628028Y-155627213D01*
X154772786Y-155771971D01*
X154895109Y-155860842D01*
X154938390Y-155892287D01*
X155032395Y-155940185D01*
X155120776Y-155985218D01*
X155120778Y-155985218D01*
X155120781Y-155985220D01*
X155192174Y-156008417D01*
X155315465Y-156048477D01*
X155416557Y-156064488D01*
X155517648Y-156080500D01*
X155517649Y-156080500D01*
X155722351Y-156080500D01*
X155722352Y-156080500D01*
X155924534Y-156048477D01*
X156119219Y-155985220D01*
X156301610Y-155892287D01*
X156394590Y-155824732D01*
X156467213Y-155771971D01*
X156467215Y-155771968D01*
X156467219Y-155771966D01*
X156611966Y-155627219D01*
X156611968Y-155627215D01*
X156611971Y-155627213D01*
X156664732Y-155554590D01*
X156732287Y-155461610D01*
X156825220Y-155279219D01*
X156888477Y-155084534D01*
X156920500Y-154882352D01*
X156920500Y-154677648D01*
X156915546Y-154646373D01*
X156888477Y-154475465D01*
X156836490Y-154315466D01*
X156825220Y-154280781D01*
X156825218Y-154280778D01*
X156825218Y-154280776D01*
X156776404Y-154184975D01*
X156732287Y-154098390D01*
X156698777Y-154052267D01*
X156611971Y-153932786D01*
X156467213Y-153788028D01*
X156301614Y-153667715D01*
X156293720Y-153663693D01*
X156208917Y-153620483D01*
X156158123Y-153572511D01*
X156141328Y-153504690D01*
X156163865Y-153438555D01*
X156208917Y-153399516D01*
X156301610Y-153352287D01*
X156360836Y-153309257D01*
X156467213Y-153231971D01*
X156467215Y-153231968D01*
X156467219Y-153231966D01*
X156611966Y-153087219D01*
X156611968Y-153087215D01*
X156611971Y-153087213D01*
X156664732Y-153014590D01*
X156732287Y-152921610D01*
X156825220Y-152739219D01*
X156888477Y-152544534D01*
X156920500Y-152342352D01*
X156920500Y-152137648D01*
X156888477Y-151935466D01*
X156825220Y-151740781D01*
X156825218Y-151740778D01*
X156825218Y-151740776D01*
X156791503Y-151674607D01*
X156732287Y-151558390D01*
X156711126Y-151529264D01*
X156611971Y-151392786D01*
X156467213Y-151248028D01*
X156301614Y-151127715D01*
X156280170Y-151116789D01*
X156208917Y-151080483D01*
X156158123Y-151032511D01*
X156141328Y-150964690D01*
X156163865Y-150898555D01*
X156208917Y-150859516D01*
X156301610Y-150812287D01*
X156337556Y-150786171D01*
X156467213Y-150691971D01*
X156467215Y-150691968D01*
X156467219Y-150691966D01*
X156611966Y-150547219D01*
X156611968Y-150547215D01*
X156611971Y-150547213D01*
X156685186Y-150446439D01*
X156732287Y-150381610D01*
X156825220Y-150199219D01*
X156888477Y-150004534D01*
X156920500Y-149802352D01*
X156920500Y-149597648D01*
X156908169Y-149519792D01*
X156888477Y-149395465D01*
X156848833Y-149273454D01*
X156825220Y-149200781D01*
X156825218Y-149200778D01*
X156825218Y-149200776D01*
X156771926Y-149096186D01*
X156732287Y-149018390D01*
X156692253Y-148963287D01*
X156665035Y-148925824D01*
X156665032Y-148925821D01*
X156639007Y-148890000D01*
X156611966Y-148852781D01*
X156467219Y-148708034D01*
X156467213Y-148708028D01*
X156301614Y-148587715D01*
X156262654Y-148567864D01*
X156208917Y-148540483D01*
X156158123Y-148492511D01*
X156141328Y-148424690D01*
X156163865Y-148358555D01*
X156208917Y-148319516D01*
X156301610Y-148272287D01*
X156322770Y-148256913D01*
X156467213Y-148151971D01*
X156467215Y-148151968D01*
X156467219Y-148151966D01*
X156611966Y-148007219D01*
X156611968Y-148007215D01*
X156611971Y-148007213D01*
X156684428Y-147907483D01*
X156732287Y-147841610D01*
X156825220Y-147659219D01*
X156888477Y-147464534D01*
X156920500Y-147262352D01*
X156920500Y-147057648D01*
X156907749Y-146977142D01*
X156888477Y-146855465D01*
X156836490Y-146695466D01*
X156825220Y-146660781D01*
X156825218Y-146660778D01*
X156825218Y-146660776D01*
X156762459Y-146537606D01*
X156732287Y-146478390D01*
X156678931Y-146404951D01*
X156611971Y-146312786D01*
X156467213Y-146168028D01*
X156301611Y-146047713D01*
X156208369Y-146000203D01*
X156157574Y-145952229D01*
X156140779Y-145884407D01*
X156163317Y-145818273D01*
X156208371Y-145779234D01*
X156301347Y-145731861D01*
X156466894Y-145611582D01*
X156466895Y-145611582D01*
X156611584Y-145466894D01*
X156731859Y-145301349D01*
X156824755Y-145119029D01*
X156887990Y-144924413D01*
X156896609Y-144870000D01*
X155935686Y-144870000D01*
X155940080Y-144865606D01*
X155992741Y-144774394D01*
X156020000Y-144672661D01*
X156020000Y-144567339D01*
X155992741Y-144465606D01*
X155940080Y-144374394D01*
X155935686Y-144370000D01*
X156896609Y-144370000D01*
X156887990Y-144315586D01*
X156824755Y-144120970D01*
X156731859Y-143938650D01*
X156611582Y-143773105D01*
X156611582Y-143773104D01*
X156466895Y-143628417D01*
X156301349Y-143508140D01*
X156208370Y-143460765D01*
X156157574Y-143412790D01*
X156140779Y-143344969D01*
X156163316Y-143278835D01*
X156208370Y-143239795D01*
X156301610Y-143192287D01*
X156346186Y-143159901D01*
X156467213Y-143071971D01*
X156467215Y-143071968D01*
X156467219Y-143071966D01*
X156611966Y-142927219D01*
X156611968Y-142927215D01*
X156611971Y-142927213D01*
X156666291Y-142852446D01*
X156732287Y-142761610D01*
X156825220Y-142579219D01*
X156888477Y-142384534D01*
X156920500Y-142182352D01*
X156920500Y-141977648D01*
X156899235Y-141843388D01*
X156888477Y-141775465D01*
X156855894Y-141675187D01*
X156825220Y-141580781D01*
X156825218Y-141580778D01*
X156825218Y-141580776D01*
X156776888Y-141485925D01*
X156732287Y-141398390D01*
X156678931Y-141324951D01*
X156611971Y-141232786D01*
X156467213Y-141088028D01*
X156301614Y-140967715D01*
X156262654Y-140947864D01*
X156208917Y-140920483D01*
X156158123Y-140872511D01*
X156141328Y-140804690D01*
X156163865Y-140738555D01*
X156208917Y-140699516D01*
X156301610Y-140652287D01*
X156346186Y-140619901D01*
X156467213Y-140531971D01*
X156467215Y-140531968D01*
X156467219Y-140531966D01*
X156611966Y-140387219D01*
X156611968Y-140387215D01*
X156611971Y-140387213D01*
X156673746Y-140302185D01*
X156732287Y-140221610D01*
X156825220Y-140039219D01*
X156888477Y-139844534D01*
X156920500Y-139642352D01*
X156920500Y-139437648D01*
X156888477Y-139235466D01*
X156885997Y-139227836D01*
X156883999Y-139157998D01*
X156920075Y-139098163D01*
X156982774Y-139067331D01*
X157028118Y-139067896D01*
X157031153Y-139068499D01*
X157031156Y-139068500D01*
X157031158Y-139068500D01*
X157188844Y-139068500D01*
X157188845Y-139068499D01*
X157343497Y-139037737D01*
X157358555Y-139031500D01*
X157363048Y-139029639D01*
X157432517Y-139022170D01*
X157494996Y-139053445D01*
X157530648Y-139113534D01*
X157534500Y-139144200D01*
X157534500Y-142055610D01*
X157545580Y-142111316D01*
X157545581Y-142111323D01*
X157546518Y-142116029D01*
X157558537Y-142176452D01*
X157572226Y-142209500D01*
X157575053Y-142216326D01*
X157575056Y-142216335D01*
X157605685Y-142290281D01*
X157605688Y-142290286D01*
X157632700Y-142330711D01*
X157632701Y-142330714D01*
X157632702Y-142330714D01*
X157674141Y-142392733D01*
X157765586Y-142484178D01*
X157765608Y-142484198D01*
X162925548Y-147644138D01*
X162959033Y-147705461D01*
X162954049Y-147775153D01*
X162938186Y-147804704D01*
X162845376Y-147932446D01*
X162748904Y-148121782D01*
X162683242Y-148323870D01*
X162683242Y-148323873D01*
X162672769Y-148390000D01*
X163566988Y-148390000D01*
X163534075Y-148447007D01*
X163500000Y-148574174D01*
X163500000Y-148705826D01*
X163534075Y-148832993D01*
X163566988Y-148890000D01*
X162672769Y-148890000D01*
X162683242Y-148956126D01*
X162683242Y-148956129D01*
X162748904Y-149158217D01*
X162845379Y-149347557D01*
X162970272Y-149519459D01*
X162970276Y-149519464D01*
X163120535Y-149669723D01*
X163120540Y-149669727D01*
X163292442Y-149794620D01*
X163481782Y-149891095D01*
X163683871Y-149956757D01*
X163750000Y-149967231D01*
X163750000Y-149073012D01*
X163807007Y-149105925D01*
X163934174Y-149140000D01*
X164065826Y-149140000D01*
X164192993Y-149105925D01*
X164250000Y-149073012D01*
X164250000Y-149967230D01*
X164316126Y-149956757D01*
X164316129Y-149956757D01*
X164518217Y-149891095D01*
X164707557Y-149794620D01*
X164879459Y-149669727D01*
X164879464Y-149669723D01*
X165029723Y-149519464D01*
X165029727Y-149519459D01*
X165154615Y-149347564D01*
X165154622Y-149347553D01*
X165159230Y-149338510D01*
X165207201Y-149287711D01*
X165275021Y-149270911D01*
X165341157Y-149293445D01*
X165380200Y-149338497D01*
X165384950Y-149347818D01*
X165509890Y-149519786D01*
X165514767Y-149524663D01*
X165548252Y-149585986D01*
X165543268Y-149655678D01*
X165501396Y-149711611D01*
X165474538Y-149726905D01*
X165332827Y-149785602D01*
X165332814Y-149785609D01*
X165201711Y-149873210D01*
X165201707Y-149873213D01*
X165090213Y-149984707D01*
X165090210Y-149984711D01*
X165002609Y-150115814D01*
X165002602Y-150115827D01*
X164942264Y-150261498D01*
X164942261Y-150261510D01*
X164911500Y-150416153D01*
X164911500Y-150573846D01*
X164942261Y-150728489D01*
X164942264Y-150728501D01*
X165002602Y-150874172D01*
X165002609Y-150874185D01*
X165090210Y-151005288D01*
X165090213Y-151005292D01*
X165201707Y-151116786D01*
X165201711Y-151116789D01*
X165332814Y-151204390D01*
X165332827Y-151204397D01*
X165478498Y-151264735D01*
X165478503Y-151264737D01*
X165626075Y-151294091D01*
X165633153Y-151295499D01*
X165633156Y-151295500D01*
X165633158Y-151295500D01*
X165790844Y-151295500D01*
X165790845Y-151295499D01*
X165945497Y-151264737D01*
X166091179Y-151204394D01*
X166185459Y-151141398D01*
X166252136Y-151120520D01*
X166254350Y-151120500D01*
X166437608Y-151120500D01*
X166437608Y-151120499D01*
X166509072Y-151106285D01*
X166558452Y-151096463D01*
X166591792Y-151082652D01*
X166672286Y-151049312D01*
X166738169Y-151005289D01*
X166774733Y-150980858D01*
X166861858Y-150893733D01*
X166861858Y-150893731D01*
X166872066Y-150883524D01*
X166872067Y-150883521D01*
X168202857Y-149552734D01*
X168221614Y-149524663D01*
X168224870Y-149519791D01*
X168271310Y-149450288D01*
X168271310Y-149450287D01*
X168271311Y-149450286D01*
X168318463Y-149336452D01*
X168330994Y-149273453D01*
X168342500Y-149215607D01*
X168342500Y-149092394D01*
X168342500Y-137864394D01*
X168341128Y-137857498D01*
X168327475Y-137788858D01*
X168318463Y-137743548D01*
X168292807Y-137681610D01*
X168271312Y-137629715D01*
X168271311Y-137629713D01*
X168271310Y-137629711D01*
X168271309Y-137629709D01*
X168232927Y-137572268D01*
X168232925Y-137572266D01*
X168221086Y-137554548D01*
X168202858Y-137527267D01*
X168202856Y-137527264D01*
X168112637Y-137437045D01*
X168112606Y-137437016D01*
X167613547Y-136937957D01*
X167580062Y-136876634D01*
X167585046Y-136806942D01*
X167600910Y-136777391D01*
X167645987Y-136715347D01*
X167695051Y-136647816D01*
X167791557Y-136458412D01*
X167857246Y-136256243D01*
X167890500Y-136046287D01*
X167890500Y-135833713D01*
X167857246Y-135623757D01*
X167791557Y-135421588D01*
X167695051Y-135232184D01*
X167695049Y-135232181D01*
X167695048Y-135232179D01*
X167570109Y-135060213D01*
X167419786Y-134909890D01*
X167247820Y-134784951D01*
X167247115Y-134784591D01*
X167239054Y-134780485D01*
X167188259Y-134732512D01*
X167171463Y-134664692D01*
X167193999Y-134598556D01*
X167239054Y-134559515D01*
X167247816Y-134555051D01*
X167340454Y-134487746D01*
X167419786Y-134430109D01*
X167419788Y-134430106D01*
X167419792Y-134430104D01*
X167570104Y-134279792D01*
X167570106Y-134279788D01*
X167570109Y-134279786D01*
X167695048Y-134107820D01*
X167695047Y-134107820D01*
X167695051Y-134107816D01*
X167791557Y-133918412D01*
X167857246Y-133716243D01*
X167890500Y-133506287D01*
X167890500Y-133293713D01*
X167857246Y-133083757D01*
X167791557Y-132881588D01*
X167695051Y-132692184D01*
X167695049Y-132692181D01*
X167695048Y-132692179D01*
X167570109Y-132520213D01*
X167419786Y-132369890D01*
X167247820Y-132244951D01*
X167247115Y-132244591D01*
X167239054Y-132240485D01*
X167188259Y-132192512D01*
X167171463Y-132124692D01*
X167193999Y-132058556D01*
X167239054Y-132019515D01*
X167247816Y-132015051D01*
X167269789Y-131999086D01*
X167419786Y-131890109D01*
X167419788Y-131890106D01*
X167419792Y-131890104D01*
X167570104Y-131739792D01*
X167570106Y-131739788D01*
X167570109Y-131739786D01*
X167695048Y-131567820D01*
X167695050Y-131567817D01*
X167695051Y-131567816D01*
X167791557Y-131378412D01*
X167857246Y-131176243D01*
X167890500Y-130966287D01*
X167890500Y-130753713D01*
X167857246Y-130543757D01*
X167791557Y-130341588D01*
X167695051Y-130152184D01*
X167695049Y-130152181D01*
X167695048Y-130152179D01*
X167570109Y-129980213D01*
X167419786Y-129829890D01*
X167247820Y-129704951D01*
X167247115Y-129704591D01*
X167239054Y-129700485D01*
X167188259Y-129652512D01*
X167171463Y-129584692D01*
X167193999Y-129518556D01*
X167239054Y-129479515D01*
X167247816Y-129475051D01*
X167333469Y-129412821D01*
X167419786Y-129350109D01*
X167419788Y-129350106D01*
X167419792Y-129350104D01*
X167570104Y-129199792D01*
X167570106Y-129199788D01*
X167570109Y-129199786D01*
X167695048Y-129027820D01*
X167695050Y-129027817D01*
X167695051Y-129027816D01*
X167791557Y-128838412D01*
X167857246Y-128636243D01*
X167890500Y-128426287D01*
X167890500Y-128213713D01*
X167857246Y-128003757D01*
X167791557Y-127801588D01*
X167695051Y-127612184D01*
X167695049Y-127612181D01*
X167695048Y-127612179D01*
X167570109Y-127440213D01*
X167419786Y-127289890D01*
X167247820Y-127164951D01*
X167247115Y-127164591D01*
X167239054Y-127160485D01*
X167188259Y-127112512D01*
X167171463Y-127044692D01*
X167193999Y-126978556D01*
X167239054Y-126939515D01*
X167247816Y-126935051D01*
X167287792Y-126906007D01*
X167419786Y-126810109D01*
X167419788Y-126810106D01*
X167419792Y-126810104D01*
X167570104Y-126659792D01*
X167570106Y-126659788D01*
X167570109Y-126659786D01*
X167695048Y-126487820D01*
X167695050Y-126487817D01*
X167695051Y-126487816D01*
X167791557Y-126298412D01*
X167857246Y-126096243D01*
X167890500Y-125886287D01*
X167890500Y-125673713D01*
X167857246Y-125463757D01*
X167791557Y-125261588D01*
X167695051Y-125072184D01*
X167695049Y-125072181D01*
X167695048Y-125072179D01*
X167570109Y-124900213D01*
X167419786Y-124749890D01*
X167247820Y-124624951D01*
X167247115Y-124624591D01*
X167239054Y-124620485D01*
X167188259Y-124572512D01*
X167171463Y-124504692D01*
X167193999Y-124438556D01*
X167239054Y-124399515D01*
X167247816Y-124395051D01*
X167295200Y-124360625D01*
X167419786Y-124270109D01*
X167419788Y-124270106D01*
X167419792Y-124270104D01*
X167570104Y-124119792D01*
X167570106Y-124119788D01*
X167570109Y-124119786D01*
X167695048Y-123947820D01*
X167695050Y-123947817D01*
X167695051Y-123947816D01*
X167791557Y-123758412D01*
X167857246Y-123556243D01*
X167890500Y-123346287D01*
X167890500Y-123133713D01*
X167857246Y-122923757D01*
X167791557Y-122721588D01*
X167695051Y-122532184D01*
X167695049Y-122532181D01*
X167695048Y-122532179D01*
X167570109Y-122360213D01*
X167419786Y-122209890D01*
X167247820Y-122084951D01*
X167247115Y-122084591D01*
X167239054Y-122080485D01*
X167188259Y-122032512D01*
X167171463Y-121964692D01*
X167193999Y-121898556D01*
X167239054Y-121859515D01*
X167247816Y-121855051D01*
X167315039Y-121806211D01*
X167419786Y-121730109D01*
X167419788Y-121730106D01*
X167419792Y-121730104D01*
X167570104Y-121579792D01*
X167570106Y-121579788D01*
X167570109Y-121579786D01*
X167695048Y-121407820D01*
X167695050Y-121407817D01*
X167695051Y-121407816D01*
X167791557Y-121218412D01*
X167857246Y-121016243D01*
X167890500Y-120806287D01*
X167890500Y-120593713D01*
X167857246Y-120383757D01*
X167791557Y-120181588D01*
X167695051Y-119992184D01*
X167695049Y-119992181D01*
X167695048Y-119992179D01*
X167570109Y-119820213D01*
X167419786Y-119669890D01*
X167247820Y-119544951D01*
X167247115Y-119544591D01*
X167239054Y-119540485D01*
X167188259Y-119492512D01*
X167171463Y-119424692D01*
X167193999Y-119358556D01*
X167239054Y-119319515D01*
X167247816Y-119315051D01*
X167378780Y-119219901D01*
X167419786Y-119190109D01*
X167419788Y-119190106D01*
X167419792Y-119190104D01*
X167570104Y-119039792D01*
X167570106Y-119039788D01*
X167570109Y-119039786D01*
X167695048Y-118867820D01*
X167695050Y-118867817D01*
X167695051Y-118867816D01*
X167791557Y-118678412D01*
X167857246Y-118476243D01*
X167890500Y-118266287D01*
X167890500Y-118053713D01*
X167857246Y-117843757D01*
X167791557Y-117641588D01*
X167695051Y-117452184D01*
X167695049Y-117452181D01*
X167695048Y-117452179D01*
X167570109Y-117280213D01*
X167419786Y-117129890D01*
X167247820Y-117004951D01*
X167247115Y-117004591D01*
X167239054Y-117000485D01*
X167188259Y-116952512D01*
X167171463Y-116884692D01*
X167193999Y-116818556D01*
X167239054Y-116779515D01*
X167247816Y-116775051D01*
X167292739Y-116742413D01*
X167419786Y-116650109D01*
X167419788Y-116650106D01*
X167419792Y-116650104D01*
X167570104Y-116499792D01*
X167570106Y-116499788D01*
X167570109Y-116499786D01*
X167695048Y-116327820D01*
X167695047Y-116327820D01*
X167695051Y-116327816D01*
X167791557Y-116138412D01*
X167857246Y-115936243D01*
X167890500Y-115726287D01*
X167890500Y-115513713D01*
X167857246Y-115303757D01*
X167791557Y-115101588D01*
X167695051Y-114912184D01*
X167695049Y-114912181D01*
X167695048Y-114912179D01*
X167570109Y-114740213D01*
X167419786Y-114589890D01*
X167247820Y-114464951D01*
X167247115Y-114464591D01*
X167239054Y-114460485D01*
X167188259Y-114412512D01*
X167171463Y-114344692D01*
X167193999Y-114278556D01*
X167239054Y-114239515D01*
X167247816Y-114235051D01*
X167361052Y-114152781D01*
X167419786Y-114110109D01*
X167419788Y-114110106D01*
X167419792Y-114110104D01*
X167570104Y-113959792D01*
X167570106Y-113959788D01*
X167570109Y-113959786D01*
X167695048Y-113787820D01*
X167695050Y-113787817D01*
X167695051Y-113787816D01*
X167791557Y-113598412D01*
X167857246Y-113396243D01*
X167890500Y-113186287D01*
X167890500Y-112973713D01*
X167857246Y-112763757D01*
X167791557Y-112561588D01*
X167695051Y-112372184D01*
X167695049Y-112372181D01*
X167695048Y-112372179D01*
X167570109Y-112200213D01*
X167419786Y-112049890D01*
X167247820Y-111924951D01*
X167247115Y-111924591D01*
X167239054Y-111920485D01*
X167188259Y-111872512D01*
X167171463Y-111804692D01*
X167193999Y-111738556D01*
X167239054Y-111699515D01*
X167247816Y-111695051D01*
X167354535Y-111617516D01*
X167419786Y-111570109D01*
X167419788Y-111570106D01*
X167419792Y-111570104D01*
X167570104Y-111419792D01*
X167570106Y-111419788D01*
X167570109Y-111419786D01*
X167695048Y-111247820D01*
X167695050Y-111247817D01*
X167695051Y-111247816D01*
X167791557Y-111058412D01*
X167857246Y-110856243D01*
X167890500Y-110646287D01*
X167890500Y-110433713D01*
X167857246Y-110223757D01*
X167791557Y-110021588D01*
X167695051Y-109832184D01*
X167695049Y-109832181D01*
X167695048Y-109832179D01*
X167570109Y-109660213D01*
X167419786Y-109509890D01*
X167247820Y-109384951D01*
X167246905Y-109384485D01*
X167239054Y-109380485D01*
X167188259Y-109332512D01*
X167171463Y-109264692D01*
X167193999Y-109198556D01*
X167239054Y-109159515D01*
X167247816Y-109155051D01*
X167278855Y-109132500D01*
X167419786Y-109030109D01*
X167419788Y-109030106D01*
X167419792Y-109030104D01*
X167570104Y-108879792D01*
X167570106Y-108879788D01*
X167570109Y-108879786D01*
X167695048Y-108707820D01*
X167695047Y-108707820D01*
X167695051Y-108707816D01*
X167791557Y-108518412D01*
X167857246Y-108316243D01*
X167890500Y-108106287D01*
X167890500Y-107893713D01*
X167857246Y-107683757D01*
X167791557Y-107481588D01*
X167695051Y-107292184D01*
X167695049Y-107292181D01*
X167695048Y-107292179D01*
X167570109Y-107120213D01*
X167419786Y-106969890D01*
X167247820Y-106844951D01*
X167058414Y-106748444D01*
X167058413Y-106748443D01*
X167058412Y-106748443D01*
X167039907Y-106742430D01*
X166982232Y-106702994D01*
X166955034Y-106638635D01*
X166966949Y-106569789D01*
X167014193Y-106518313D01*
X167078226Y-106500500D01*
X167171966Y-106500500D01*
X167171969Y-106500500D01*
X167514250Y-106466789D01*
X167851578Y-106399690D01*
X168180705Y-106299850D01*
X168498462Y-106168231D01*
X168801787Y-106006100D01*
X169087760Y-105815019D01*
X169353627Y-105596828D01*
X169408983Y-105541472D01*
X169487819Y-105462637D01*
X169549142Y-105429152D01*
X169618834Y-105434136D01*
X169674767Y-105476008D01*
X169699184Y-105541472D01*
X169699500Y-105550318D01*
X169699500Y-154449682D01*
X169679815Y-154516721D01*
X169627011Y-154562476D01*
X169557853Y-154572420D01*
X169494297Y-154543395D01*
X169487819Y-154537363D01*
X169353632Y-154403176D01*
X169087765Y-154184985D01*
X169087764Y-154184984D01*
X169087760Y-154184981D01*
X168801787Y-153993900D01*
X168801782Y-153993897D01*
X168801775Y-153993893D01*
X168498469Y-153831772D01*
X168498464Y-153831770D01*
X168180706Y-153700150D01*
X167851572Y-153600308D01*
X167514248Y-153533210D01*
X167514249Y-153533210D01*
X167248353Y-153507023D01*
X167171969Y-153499500D01*
X166828031Y-153499500D01*
X166751647Y-153507023D01*
X166485750Y-153533210D01*
X166148427Y-153600308D01*
X165819293Y-153700150D01*
X165501535Y-153831770D01*
X165501530Y-153831772D01*
X165198224Y-153993893D01*
X165198206Y-153993904D01*
X164912248Y-154184975D01*
X164912234Y-154184985D01*
X164646367Y-154403176D01*
X164403176Y-154646367D01*
X164184985Y-154912234D01*
X164184975Y-154912248D01*
X163993904Y-155198206D01*
X163993893Y-155198224D01*
X163831772Y-155501530D01*
X163831770Y-155501535D01*
X163700150Y-155819293D01*
X163600308Y-156148427D01*
X163533210Y-156485750D01*
X163514087Y-156679920D01*
X163499500Y-156828031D01*
X163499500Y-157171969D01*
X163507185Y-157250000D01*
X163533210Y-157514249D01*
X163600308Y-157851572D01*
X163700150Y-158180706D01*
X163831770Y-158498464D01*
X163831772Y-158498469D01*
X163993893Y-158801775D01*
X163993904Y-158801793D01*
X164184975Y-159087751D01*
X164184985Y-159087765D01*
X164403176Y-159353632D01*
X164537363Y-159487819D01*
X164570848Y-159549142D01*
X164565864Y-159618834D01*
X164523992Y-159674767D01*
X164458528Y-159699184D01*
X164449682Y-159699500D01*
X105550318Y-159699500D01*
X105483279Y-159679815D01*
X105437524Y-159627011D01*
X105427580Y-159557853D01*
X105456605Y-159494297D01*
X105462637Y-159487819D01*
X105596823Y-159353632D01*
X105596828Y-159353627D01*
X105815019Y-159087760D01*
X106006100Y-158801787D01*
X106168231Y-158498462D01*
X106299850Y-158180705D01*
X106399690Y-157851578D01*
X106466789Y-157514250D01*
X106500500Y-157171969D01*
X106500500Y-156828031D01*
X106466789Y-156485750D01*
X106400429Y-156152135D01*
X110699500Y-156152135D01*
X110699500Y-157847870D01*
X110699501Y-157847876D01*
X110705908Y-157907483D01*
X110756202Y-158042328D01*
X110756206Y-158042335D01*
X110842452Y-158157544D01*
X110842455Y-158157547D01*
X110957664Y-158243793D01*
X110957671Y-158243797D01*
X111092517Y-158294091D01*
X111092516Y-158294091D01*
X111099444Y-158294835D01*
X111152127Y-158300500D01*
X112847872Y-158300499D01*
X112907483Y-158294091D01*
X113042331Y-158243796D01*
X113157546Y-158157546D01*
X113243796Y-158042331D01*
X113294091Y-157907483D01*
X113298140Y-157869815D01*
X113324876Y-157805268D01*
X113382268Y-157765419D01*
X113452093Y-157762924D01*
X113512183Y-157798576D01*
X113521747Y-157810187D01*
X113548417Y-157846894D01*
X113548417Y-157846895D01*
X113693104Y-157991582D01*
X113858650Y-158111859D01*
X114040968Y-158204754D01*
X114235578Y-158267988D01*
X114290000Y-158276607D01*
X114290000Y-157315686D01*
X114294394Y-157320080D01*
X114385606Y-157372741D01*
X114487339Y-157400000D01*
X114592661Y-157400000D01*
X114694394Y-157372741D01*
X114785606Y-157320080D01*
X114790000Y-157315686D01*
X114790000Y-158276606D01*
X114844421Y-158267988D01*
X115039031Y-158204754D01*
X115221349Y-158111859D01*
X115386894Y-157991582D01*
X115386895Y-157991582D01*
X115531582Y-157846895D01*
X115531582Y-157846894D01*
X115651859Y-157681349D01*
X115744755Y-157499029D01*
X115807990Y-157304413D01*
X115816609Y-157250000D01*
X114855686Y-157250000D01*
X114860080Y-157245606D01*
X114912741Y-157154394D01*
X114940000Y-157052661D01*
X114940000Y-156947339D01*
X114912741Y-156845606D01*
X114860080Y-156754394D01*
X114855686Y-156750000D01*
X115816609Y-156750000D01*
X115807990Y-156695586D01*
X115744755Y-156500970D01*
X115651857Y-156318647D01*
X115581417Y-156221694D01*
X115581415Y-156221692D01*
X115531583Y-156153105D01*
X115530613Y-156152135D01*
X118699500Y-156152135D01*
X118699500Y-157847870D01*
X118699501Y-157847876D01*
X118705908Y-157907483D01*
X118756202Y-158042328D01*
X118756206Y-158042335D01*
X118842452Y-158157544D01*
X118842455Y-158157547D01*
X118957664Y-158243793D01*
X118957671Y-158243797D01*
X119092517Y-158294091D01*
X119092516Y-158294091D01*
X119099444Y-158294835D01*
X119152127Y-158300500D01*
X120847872Y-158300499D01*
X120907483Y-158294091D01*
X121042331Y-158243796D01*
X121157546Y-158157546D01*
X121243796Y-158042331D01*
X121294091Y-157907483D01*
X121300500Y-157847873D01*
X121300499Y-156152128D01*
X121294091Y-156092517D01*
X121256969Y-155992989D01*
X121243797Y-155957671D01*
X121243793Y-155957664D01*
X121157547Y-155842455D01*
X121157544Y-155842452D01*
X121042335Y-155756206D01*
X121042328Y-155756202D01*
X120907482Y-155705908D01*
X120907483Y-155705908D01*
X120847883Y-155699501D01*
X120847881Y-155699500D01*
X120847873Y-155699500D01*
X120847865Y-155699500D01*
X120749500Y-155699500D01*
X120682461Y-155679815D01*
X120636706Y-155627011D01*
X120625500Y-155575500D01*
X120625500Y-154761451D01*
X120645185Y-154694412D01*
X120661814Y-154673775D01*
X122661134Y-152674454D01*
X122722455Y-152640971D01*
X122792147Y-152645955D01*
X122848080Y-152687827D01*
X122859298Y-152705842D01*
X122887715Y-152761614D01*
X123008028Y-152927213D01*
X123152786Y-153071971D01*
X123307749Y-153184556D01*
X123318390Y-153192287D01*
X123390424Y-153228990D01*
X123411629Y-153239795D01*
X123462425Y-153287770D01*
X123479220Y-153355591D01*
X123456682Y-153421726D01*
X123411629Y-153460765D01*
X123318650Y-153508140D01*
X123153105Y-153628417D01*
X123153104Y-153628417D01*
X123008417Y-153773104D01*
X123008417Y-153773105D01*
X122888140Y-153938650D01*
X122795244Y-154120970D01*
X122732009Y-154315586D01*
X122723391Y-154370000D01*
X123684314Y-154370000D01*
X123679920Y-154374394D01*
X123627259Y-154465606D01*
X123600000Y-154567339D01*
X123600000Y-154672661D01*
X123627259Y-154774394D01*
X123679920Y-154865606D01*
X123684314Y-154870000D01*
X122723391Y-154870000D01*
X122732009Y-154924413D01*
X122795244Y-155119029D01*
X122888140Y-155301349D01*
X123008417Y-155466894D01*
X123008417Y-155466895D01*
X123153104Y-155611582D01*
X123318650Y-155731859D01*
X123500968Y-155824754D01*
X123695578Y-155887988D01*
X123750000Y-155896607D01*
X123750000Y-154935686D01*
X123754394Y-154940080D01*
X123845606Y-154992741D01*
X123947339Y-155020000D01*
X124052661Y-155020000D01*
X124154394Y-154992741D01*
X124245606Y-154940080D01*
X124250000Y-154935686D01*
X124250000Y-155896606D01*
X124304421Y-155887988D01*
X124499031Y-155824754D01*
X124681349Y-155731859D01*
X124846894Y-155611582D01*
X124846895Y-155611582D01*
X124991582Y-155466895D01*
X124991582Y-155466894D01*
X125111859Y-155301349D01*
X125204755Y-155119029D01*
X125267990Y-154924413D01*
X125276609Y-154870000D01*
X124315686Y-154870000D01*
X124320080Y-154865606D01*
X124372741Y-154774394D01*
X124400000Y-154672661D01*
X124400000Y-154567339D01*
X124372741Y-154465606D01*
X124320080Y-154374394D01*
X124315686Y-154370000D01*
X125276609Y-154370000D01*
X125267990Y-154315586D01*
X125204755Y-154120970D01*
X125111859Y-153938650D01*
X124991582Y-153773105D01*
X124991582Y-153773104D01*
X124846895Y-153628417D01*
X124681349Y-153508140D01*
X124588370Y-153460765D01*
X124537574Y-153412790D01*
X124520779Y-153344969D01*
X124543316Y-153278835D01*
X124588370Y-153239795D01*
X124681610Y-153192287D01*
X124825208Y-153087958D01*
X124847213Y-153071971D01*
X124847215Y-153071968D01*
X124847219Y-153071966D01*
X124991966Y-152927219D01*
X124991968Y-152927215D01*
X124991971Y-152927213D01*
X125044732Y-152854590D01*
X125112287Y-152761610D01*
X125205220Y-152579219D01*
X125268477Y-152384534D01*
X125300500Y-152182352D01*
X125300500Y-151977648D01*
X125293819Y-151935465D01*
X125268477Y-151775465D01*
X125205218Y-151580776D01*
X125162978Y-151497877D01*
X125112287Y-151398390D01*
X125041165Y-151300498D01*
X124996919Y-151239598D01*
X124973439Y-151173792D01*
X124989265Y-151105738D01*
X125009552Y-151079036D01*
X127022858Y-149065733D01*
X127091312Y-148963285D01*
X127130247Y-148869286D01*
X127138463Y-148849452D01*
X127143066Y-148826312D01*
X127153112Y-148775808D01*
X127162501Y-148728608D01*
X127162501Y-148600283D01*
X127162500Y-148600257D01*
X127162500Y-136872452D01*
X127182185Y-136805413D01*
X127198819Y-136784771D01*
X130398898Y-133584692D01*
X133606407Y-130377182D01*
X133667728Y-130343699D01*
X133737420Y-130348683D01*
X133793353Y-130390555D01*
X133804571Y-130408570D01*
X133844951Y-130487819D01*
X133969890Y-130659786D01*
X134120213Y-130810109D01*
X134292182Y-130935050D01*
X134300946Y-130939516D01*
X134351742Y-130987491D01*
X134368536Y-131055312D01*
X134345998Y-131121447D01*
X134300946Y-131160484D01*
X134292182Y-131164949D01*
X134120213Y-131289890D01*
X133969890Y-131440213D01*
X133844951Y-131612179D01*
X133748444Y-131801585D01*
X133682753Y-132003760D01*
X133649500Y-132213713D01*
X133649500Y-132426286D01*
X133664987Y-132524071D01*
X133682754Y-132636243D01*
X133745056Y-132827989D01*
X133748444Y-132838414D01*
X133844951Y-133027820D01*
X133969890Y-133199786D01*
X134120213Y-133350109D01*
X134292179Y-133475048D01*
X134292181Y-133475049D01*
X134292184Y-133475051D01*
X134300941Y-133479512D01*
X134351738Y-133527483D01*
X134368536Y-133595303D01*
X134346002Y-133661440D01*
X134300953Y-133700480D01*
X134292181Y-133704950D01*
X134120213Y-133829890D01*
X133969890Y-133980213D01*
X133844951Y-134152179D01*
X133748444Y-134341585D01*
X133682753Y-134543760D01*
X133658725Y-134695466D01*
X133649500Y-134753713D01*
X133649500Y-134966287D01*
X133659534Y-135029644D01*
X133677937Y-135145834D01*
X133682754Y-135176243D01*
X133724438Y-135304534D01*
X133748444Y-135378414D01*
X133844951Y-135567820D01*
X133969890Y-135739786D01*
X134120213Y-135890109D01*
X134292182Y-136015050D01*
X134300946Y-136019516D01*
X134351742Y-136067491D01*
X134368536Y-136135312D01*
X134345998Y-136201447D01*
X134300946Y-136240484D01*
X134292182Y-136244949D01*
X134120213Y-136369890D01*
X133969890Y-136520213D01*
X133844951Y-136692179D01*
X133748444Y-136881585D01*
X133682753Y-137083760D01*
X133667731Y-137178606D01*
X133649500Y-137293713D01*
X133649500Y-137506287D01*
X133652823Y-137527267D01*
X133682067Y-137711910D01*
X133682754Y-137716243D01*
X133747822Y-137916502D01*
X133748444Y-137918414D01*
X133844951Y-138107820D01*
X133969890Y-138279786D01*
X134120213Y-138430109D01*
X134292182Y-138555050D01*
X134300946Y-138559516D01*
X134351742Y-138607491D01*
X134368536Y-138675312D01*
X134345998Y-138741447D01*
X134300946Y-138780484D01*
X134292182Y-138784949D01*
X134120213Y-138909890D01*
X133969890Y-139060213D01*
X133844951Y-139232179D01*
X133748444Y-139421585D01*
X133682753Y-139623760D01*
X133660848Y-139762067D01*
X133649500Y-139833713D01*
X133649500Y-140046287D01*
X133650996Y-140055733D01*
X133677268Y-140221610D01*
X133682754Y-140256243D01*
X133746595Y-140452725D01*
X133748444Y-140458414D01*
X133844951Y-140647820D01*
X133969890Y-140819786D01*
X134120213Y-140970109D01*
X134292182Y-141095050D01*
X134300946Y-141099516D01*
X134351742Y-141147491D01*
X134368536Y-141215312D01*
X134345998Y-141281447D01*
X134300946Y-141320484D01*
X134292182Y-141324949D01*
X134120213Y-141449890D01*
X133969890Y-141600213D01*
X133844951Y-141772179D01*
X133748444Y-141961585D01*
X133682753Y-142163760D01*
X133658554Y-142316547D01*
X133649500Y-142373713D01*
X133649500Y-142586287D01*
X133659534Y-142649644D01*
X133680455Y-142781733D01*
X133682754Y-142796243D01*
X133746595Y-142992725D01*
X133748444Y-142998414D01*
X133844951Y-143187820D01*
X133969890Y-143359786D01*
X134120213Y-143510109D01*
X134292182Y-143635050D01*
X134300946Y-143639516D01*
X134351742Y-143687491D01*
X134368536Y-143755312D01*
X134345998Y-143821447D01*
X134300946Y-143860484D01*
X134292182Y-143864949D01*
X134120213Y-143989890D01*
X133969890Y-144140213D01*
X133844951Y-144312179D01*
X133748444Y-144501585D01*
X133682753Y-144703760D01*
X133649500Y-144913713D01*
X133649500Y-145126286D01*
X133677268Y-145301610D01*
X133682754Y-145336243D01*
X133748296Y-145537961D01*
X133748444Y-145538414D01*
X133844951Y-145727820D01*
X133939089Y-145857391D01*
X133962569Y-145923198D01*
X133946743Y-145991251D01*
X133926452Y-146017957D01*
X133337144Y-146607264D01*
X133337138Y-146607272D01*
X133268690Y-146709708D01*
X133268689Y-146709710D01*
X133240760Y-146777136D01*
X133240760Y-146777139D01*
X133221972Y-146822500D01*
X133221537Y-146823549D01*
X133206861Y-146897334D01*
X133206554Y-146898874D01*
X133206540Y-146898939D01*
X133197500Y-146944389D01*
X133197500Y-151261547D01*
X133177815Y-151328586D01*
X133161181Y-151349228D01*
X132981144Y-151529264D01*
X132919821Y-151562749D01*
X132850129Y-151557765D01*
X132794196Y-151515893D01*
X132782978Y-151497877D01*
X132765240Y-151463065D01*
X132732287Y-151398390D01*
X132732286Y-151398388D01*
X132611971Y-151232786D01*
X132467213Y-151088028D01*
X132301614Y-150967715D01*
X132295006Y-150964348D01*
X132208917Y-150920483D01*
X132158123Y-150872511D01*
X132141328Y-150804690D01*
X132163865Y-150738555D01*
X132208917Y-150699516D01*
X132301610Y-150652287D01*
X132338478Y-150625501D01*
X132467213Y-150531971D01*
X132467215Y-150531968D01*
X132467219Y-150531966D01*
X132611966Y-150387219D01*
X132611968Y-150387215D01*
X132611971Y-150387213D01*
X132664732Y-150314590D01*
X132732287Y-150221610D01*
X132825220Y-150039219D01*
X132888477Y-149844534D01*
X132920500Y-149642352D01*
X132920500Y-149437648D01*
X132894494Y-149273453D01*
X132888477Y-149235465D01*
X132852863Y-149125858D01*
X132825220Y-149040781D01*
X132825218Y-149040778D01*
X132825218Y-149040776D01*
X132782870Y-148957664D01*
X132732287Y-148858390D01*
X132720709Y-148842454D01*
X132611971Y-148692786D01*
X132467213Y-148548028D01*
X132301614Y-148427715D01*
X132271382Y-148412311D01*
X132208917Y-148380483D01*
X132158123Y-148332511D01*
X132141328Y-148264690D01*
X132163865Y-148198555D01*
X132208917Y-148159516D01*
X132301610Y-148112287D01*
X132348235Y-148078412D01*
X132467213Y-147991971D01*
X132467215Y-147991968D01*
X132467219Y-147991966D01*
X132611966Y-147847219D01*
X132611968Y-147847215D01*
X132611971Y-147847213D01*
X132714958Y-147705461D01*
X132732287Y-147681610D01*
X132825220Y-147499219D01*
X132888477Y-147304534D01*
X132920500Y-147102352D01*
X132920500Y-146897648D01*
X132916968Y-146875347D01*
X132888477Y-146695465D01*
X132850270Y-146577877D01*
X132825220Y-146500781D01*
X132825218Y-146500778D01*
X132825218Y-146500776D01*
X132782146Y-146416243D01*
X132732287Y-146318390D01*
X132724556Y-146307749D01*
X132611971Y-146152786D01*
X132467213Y-146008028D01*
X132301613Y-145887715D01*
X132301612Y-145887714D01*
X132301610Y-145887713D01*
X132226136Y-145849257D01*
X132119223Y-145794781D01*
X131924534Y-145731522D01*
X131749995Y-145703878D01*
X131722352Y-145699500D01*
X131517648Y-145699500D01*
X131493329Y-145703351D01*
X131315465Y-145731522D01*
X131120776Y-145794781D01*
X130938386Y-145887715D01*
X130772786Y-146008028D01*
X130628028Y-146152786D01*
X130507715Y-146318386D01*
X130414781Y-146500776D01*
X130351522Y-146695465D01*
X130319500Y-146897648D01*
X130319500Y-147102351D01*
X130351522Y-147304534D01*
X130414781Y-147499223D01*
X130467489Y-147602667D01*
X130496306Y-147659223D01*
X130507715Y-147681613D01*
X130628028Y-147847213D01*
X130772786Y-147991971D01*
X130921074Y-148099706D01*
X130938390Y-148112287D01*
X131016274Y-148151971D01*
X131031080Y-148159515D01*
X131081876Y-148207490D01*
X131098671Y-148275311D01*
X131076134Y-148341446D01*
X131031080Y-148380485D01*
X130938386Y-148427715D01*
X130772786Y-148548028D01*
X130628028Y-148692786D01*
X130507715Y-148858386D01*
X130414781Y-149040776D01*
X130351522Y-149235465D01*
X130319500Y-149437648D01*
X130319500Y-149642351D01*
X130351522Y-149844534D01*
X130414781Y-150039223D01*
X130473465Y-150154394D01*
X130506264Y-150218767D01*
X130507715Y-150221613D01*
X130628028Y-150387213D01*
X130772786Y-150531971D01*
X130901522Y-150625501D01*
X130938390Y-150652287D01*
X131016274Y-150691971D01*
X131031080Y-150699515D01*
X131081876Y-150747490D01*
X131098671Y-150815311D01*
X131076134Y-150881446D01*
X131031080Y-150920485D01*
X130938386Y-150967715D01*
X130772786Y-151088028D01*
X130628028Y-151232786D01*
X130507715Y-151398386D01*
X130414781Y-151580776D01*
X130351522Y-151775465D01*
X130319500Y-151977648D01*
X130319500Y-152182351D01*
X130351522Y-152384534D01*
X130414781Y-152579223D01*
X130477629Y-152702567D01*
X130498133Y-152742809D01*
X130507715Y-152761613D01*
X130628028Y-152927213D01*
X130628034Y-152927219D01*
X130772781Y-153071966D01*
X130938390Y-153192287D01*
X130948886Y-153197634D01*
X130968563Y-153216218D01*
X130990516Y-153232049D01*
X130993585Y-153239850D01*
X130999681Y-153245607D01*
X131006187Y-153271878D01*
X131016098Y-153297067D01*
X131015444Y-153309257D01*
X131016477Y-153313427D01*
X131014208Y-153332311D01*
X130995581Y-153425953D01*
X130963196Y-153487864D01*
X130942225Y-153504704D01*
X130942331Y-153504849D01*
X130939337Y-153507023D01*
X130938777Y-153507474D01*
X130938398Y-153507705D01*
X130772786Y-153628028D01*
X130628028Y-153772786D01*
X130507715Y-153938386D01*
X130414781Y-154120776D01*
X130351522Y-154315465D01*
X130319500Y-154517648D01*
X130319500Y-154722351D01*
X130351522Y-154924534D01*
X130414781Y-155119223D01*
X130455035Y-155198224D01*
X130505584Y-155297432D01*
X130507715Y-155301613D01*
X130628028Y-155467213D01*
X130733024Y-155572209D01*
X130766509Y-155633532D01*
X130761525Y-155703224D01*
X130719653Y-155759157D01*
X130654189Y-155783574D01*
X130607025Y-155777821D01*
X130464536Y-155731523D01*
X130302816Y-155705909D01*
X130262352Y-155699500D01*
X130057648Y-155699500D01*
X130034136Y-155703224D01*
X129855465Y-155731522D01*
X129660776Y-155794781D01*
X129478386Y-155887715D01*
X129312786Y-156008028D01*
X129168028Y-156152786D01*
X129047715Y-156318386D01*
X128954781Y-156500776D01*
X128891522Y-156695465D01*
X128859500Y-156897648D01*
X128859500Y-157102351D01*
X128891522Y-157304534D01*
X128954781Y-157499223D01*
X129047715Y-157681613D01*
X129168028Y-157847213D01*
X129312786Y-157991971D01*
X129467749Y-158104556D01*
X129478390Y-158112287D01*
X129567212Y-158157544D01*
X129660776Y-158205218D01*
X129660778Y-158205218D01*
X129660781Y-158205220D01*
X129765137Y-158239127D01*
X129855465Y-158268477D01*
X129956557Y-158284488D01*
X130057648Y-158300500D01*
X130057649Y-158300500D01*
X130262351Y-158300500D01*
X130262352Y-158300500D01*
X130464534Y-158268477D01*
X130659219Y-158205220D01*
X130841610Y-158112287D01*
X130937901Y-158042328D01*
X131007213Y-157991971D01*
X131007215Y-157991968D01*
X131007219Y-157991966D01*
X131151966Y-157847219D01*
X131151968Y-157847215D01*
X131151971Y-157847213D01*
X131213209Y-157762924D01*
X131272287Y-157681610D01*
X131365220Y-157499219D01*
X131428477Y-157304534D01*
X131453027Y-157149528D01*
X131482956Y-157086395D01*
X131542267Y-157049463D01*
X131612130Y-157050461D01*
X131670363Y-157089070D01*
X131698477Y-157153034D01*
X131699500Y-157168927D01*
X131699500Y-157847870D01*
X131699501Y-157847876D01*
X131705908Y-157907483D01*
X131756202Y-158042328D01*
X131756206Y-158042335D01*
X131842452Y-158157544D01*
X131842455Y-158157547D01*
X131957664Y-158243793D01*
X131957671Y-158243797D01*
X132092517Y-158294091D01*
X132092516Y-158294091D01*
X132099444Y-158294835D01*
X132152127Y-158300500D01*
X133847872Y-158300499D01*
X133907483Y-158294091D01*
X134042331Y-158243796D01*
X134157546Y-158157546D01*
X134243796Y-158042331D01*
X134294091Y-157907483D01*
X134300500Y-157847873D01*
X134300499Y-156750000D01*
X136723391Y-156750000D01*
X137684314Y-156750000D01*
X137679920Y-156754394D01*
X137627259Y-156845606D01*
X137600000Y-156947339D01*
X137600000Y-157052661D01*
X137627259Y-157154394D01*
X137679920Y-157245606D01*
X137684314Y-157250000D01*
X136723391Y-157250000D01*
X136732009Y-157304413D01*
X136795244Y-157499029D01*
X136888140Y-157681349D01*
X137008417Y-157846894D01*
X137008417Y-157846895D01*
X137153104Y-157991582D01*
X137318650Y-158111859D01*
X137500968Y-158204754D01*
X137695578Y-158267988D01*
X137750000Y-158276607D01*
X137750000Y-157315686D01*
X137754394Y-157320080D01*
X137845606Y-157372741D01*
X137947339Y-157400000D01*
X138052661Y-157400000D01*
X138154394Y-157372741D01*
X138245606Y-157320080D01*
X138250000Y-157315686D01*
X138250000Y-158276606D01*
X138304421Y-158267988D01*
X138499031Y-158204754D01*
X138681349Y-158111859D01*
X138846894Y-157991582D01*
X138846895Y-157991582D01*
X138991582Y-157846895D01*
X138991582Y-157846894D01*
X139111859Y-157681349D01*
X139204755Y-157499029D01*
X139267990Y-157304413D01*
X139276609Y-157250000D01*
X138315686Y-157250000D01*
X138320080Y-157245606D01*
X138372741Y-157154394D01*
X138400000Y-157052661D01*
X138400000Y-156947339D01*
X138372741Y-156845606D01*
X138320080Y-156754394D01*
X138315686Y-156750000D01*
X139276609Y-156750000D01*
X139267990Y-156695586D01*
X139204755Y-156500970D01*
X139111857Y-156318647D01*
X139041417Y-156221694D01*
X139041415Y-156221692D01*
X138991583Y-156153105D01*
X138846895Y-156008417D01*
X138681349Y-155888140D01*
X138499029Y-155795244D01*
X138304413Y-155732009D01*
X138250000Y-155723390D01*
X138250000Y-156684314D01*
X138245606Y-156679920D01*
X138154394Y-156627259D01*
X138052661Y-156600000D01*
X137947339Y-156600000D01*
X137845606Y-156627259D01*
X137754394Y-156679920D01*
X137750000Y-156684314D01*
X137750000Y-155723390D01*
X137695586Y-155732009D01*
X137500970Y-155795244D01*
X137318650Y-155888140D01*
X137153105Y-156008417D01*
X137153104Y-156008417D01*
X137008417Y-156153104D01*
X137008417Y-156153105D01*
X136888140Y-156318650D01*
X136795244Y-156500970D01*
X136732009Y-156695586D01*
X136723391Y-156750000D01*
X134300499Y-156750000D01*
X134300499Y-156152128D01*
X134294091Y-156092517D01*
X134256969Y-155992989D01*
X134243797Y-155957671D01*
X134243793Y-155957664D01*
X134157547Y-155842455D01*
X134157544Y-155842452D01*
X134042335Y-155756206D01*
X134042328Y-155756202D01*
X133907482Y-155705908D01*
X133907483Y-155705908D01*
X133847883Y-155699501D01*
X133847881Y-155699500D01*
X133847873Y-155699500D01*
X133847865Y-155699500D01*
X132679047Y-155699500D01*
X132612008Y-155679815D01*
X132566253Y-155627011D01*
X132556309Y-155557853D01*
X132585334Y-155494297D01*
X132591366Y-155487819D01*
X132611966Y-155467219D01*
X132611968Y-155467215D01*
X132611971Y-155467213D01*
X132676893Y-155377854D01*
X132732287Y-155301610D01*
X132825220Y-155119219D01*
X132888477Y-154924534D01*
X132920500Y-154722352D01*
X132920500Y-154517648D01*
X132902369Y-154403176D01*
X132888477Y-154315465D01*
X132846078Y-154184975D01*
X132825220Y-154120781D01*
X132825218Y-154120778D01*
X132825218Y-154120776D01*
X132790310Y-154052267D01*
X132732287Y-153938390D01*
X132654823Y-153831769D01*
X132629964Y-153797553D01*
X132606484Y-153731747D01*
X132622310Y-153663693D01*
X132642597Y-153636991D01*
X134221729Y-152057860D01*
X134221733Y-152057858D01*
X134308858Y-151970733D01*
X134377311Y-151868286D01*
X134424463Y-151754452D01*
X134448500Y-151633606D01*
X134448500Y-151424499D01*
X134468185Y-151357460D01*
X134520989Y-151311705D01*
X134572500Y-151300499D01*
X135847871Y-151300499D01*
X135847872Y-151300499D01*
X135907483Y-151294091D01*
X136042331Y-151243796D01*
X136157546Y-151157546D01*
X136243796Y-151042331D01*
X136294091Y-150907483D01*
X136300500Y-150847873D01*
X136300499Y-149750000D01*
X138723391Y-149750000D01*
X139684314Y-149750000D01*
X139679920Y-149754394D01*
X139627259Y-149845606D01*
X139600000Y-149947339D01*
X139600000Y-150052661D01*
X139627259Y-150154394D01*
X139679920Y-150245606D01*
X139684314Y-150250000D01*
X138723391Y-150250000D01*
X138732009Y-150304413D01*
X138795244Y-150499029D01*
X138888140Y-150681349D01*
X139008417Y-150846894D01*
X139008417Y-150846895D01*
X139153104Y-150991582D01*
X139318650Y-151111859D01*
X139500968Y-151204754D01*
X139695578Y-151267988D01*
X139750000Y-151276607D01*
X139750000Y-150315686D01*
X139754394Y-150320080D01*
X139845606Y-150372741D01*
X139947339Y-150400000D01*
X140052661Y-150400000D01*
X140154394Y-150372741D01*
X140245606Y-150320080D01*
X140250000Y-150315686D01*
X140250000Y-151276606D01*
X140304421Y-151267988D01*
X140499031Y-151204754D01*
X140681349Y-151111859D01*
X140846894Y-150991582D01*
X140846895Y-150991582D01*
X140991582Y-150846895D01*
X140991582Y-150846894D01*
X141111859Y-150681349D01*
X141204755Y-150499029D01*
X141267990Y-150304413D01*
X141276609Y-150250000D01*
X140315686Y-150250000D01*
X140320080Y-150245606D01*
X140372741Y-150154394D01*
X140400000Y-150052661D01*
X140400000Y-149947339D01*
X140372741Y-149845606D01*
X140320080Y-149754394D01*
X140315686Y-149750000D01*
X141276609Y-149750000D01*
X141267990Y-149695586D01*
X141204755Y-149500970D01*
X141111859Y-149318650D01*
X140991582Y-149153105D01*
X140991582Y-149153104D01*
X140846895Y-149008417D01*
X140681349Y-148888140D01*
X140499029Y-148795244D01*
X140304413Y-148732009D01*
X140250000Y-148723390D01*
X140250000Y-149684314D01*
X140245606Y-149679920D01*
X140154394Y-149627259D01*
X140052661Y-149600000D01*
X139947339Y-149600000D01*
X139845606Y-149627259D01*
X139754394Y-149679920D01*
X139750000Y-149684314D01*
X139750000Y-148723390D01*
X139695586Y-148732009D01*
X139500970Y-148795244D01*
X139318650Y-148888140D01*
X139153105Y-149008417D01*
X139153104Y-149008417D01*
X139008417Y-149153104D01*
X139008417Y-149153105D01*
X138888140Y-149318650D01*
X138795244Y-149500970D01*
X138732009Y-149695586D01*
X138723391Y-149750000D01*
X136300499Y-149750000D01*
X136300499Y-149152128D01*
X136294091Y-149092517D01*
X136292272Y-149087641D01*
X136243797Y-148957671D01*
X136243793Y-148957664D01*
X136157547Y-148842455D01*
X136157544Y-148842452D01*
X136042335Y-148756206D01*
X136042328Y-148756202D01*
X135983751Y-148734355D01*
X135927818Y-148692484D01*
X135903400Y-148627020D01*
X135918251Y-148558747D01*
X135939397Y-148530498D01*
X136030104Y-148439792D01*
X136038879Y-148427715D01*
X136155048Y-148267820D01*
X136155047Y-148267820D01*
X136155051Y-148267816D01*
X136159514Y-148259054D01*
X136207488Y-148208259D01*
X136275308Y-148191463D01*
X136341444Y-148213999D01*
X136380486Y-148259056D01*
X136384951Y-148267820D01*
X136509890Y-148439786D01*
X136660213Y-148590109D01*
X136832179Y-148715048D01*
X136832181Y-148715049D01*
X136832184Y-148715051D01*
X137021588Y-148811557D01*
X137223757Y-148877246D01*
X137433713Y-148910500D01*
X137433714Y-148910500D01*
X137646286Y-148910500D01*
X137646287Y-148910500D01*
X137856243Y-148877246D01*
X138058412Y-148811557D01*
X138247816Y-148715051D01*
X138278877Y-148692484D01*
X138419786Y-148590109D01*
X138419788Y-148590106D01*
X138419792Y-148590104D01*
X138570104Y-148439792D01*
X138570106Y-148439788D01*
X138570109Y-148439786D01*
X138695048Y-148267820D01*
X138695047Y-148267820D01*
X138695051Y-148267816D01*
X138791557Y-148078412D01*
X138857246Y-147876243D01*
X138890500Y-147666287D01*
X138890500Y-147453713D01*
X138857246Y-147243757D01*
X138791557Y-147041588D01*
X138695051Y-146852184D01*
X138695049Y-146852181D01*
X138695048Y-146852179D01*
X138570109Y-146680213D01*
X138419786Y-146529890D01*
X138247820Y-146404951D01*
X138247115Y-146404591D01*
X138239054Y-146400485D01*
X138188259Y-146352512D01*
X138171463Y-146284692D01*
X138193999Y-146218556D01*
X138239054Y-146179515D01*
X138247816Y-146175051D01*
X138337046Y-146110222D01*
X138419786Y-146050109D01*
X138419788Y-146050106D01*
X138419792Y-146050104D01*
X138570104Y-145899792D01*
X138570106Y-145899788D01*
X138570109Y-145899786D01*
X138695048Y-145727820D01*
X138695047Y-145727820D01*
X138695051Y-145727816D01*
X138791557Y-145538412D01*
X138819220Y-145453273D01*
X138858658Y-145395598D01*
X138923016Y-145368400D01*
X138991863Y-145380315D01*
X139024832Y-145403911D01*
X139109707Y-145488786D01*
X139109711Y-145488789D01*
X139240814Y-145576390D01*
X139240827Y-145576397D01*
X139380076Y-145634075D01*
X139386503Y-145636737D01*
X139541153Y-145667499D01*
X139541156Y-145667500D01*
X139541158Y-145667500D01*
X139698844Y-145667500D01*
X139698845Y-145667499D01*
X139853497Y-145636737D01*
X139966166Y-145590067D01*
X139999172Y-145576397D01*
X139999172Y-145576396D01*
X139999179Y-145576394D01*
X140130289Y-145488789D01*
X140241789Y-145377289D01*
X140329394Y-145246179D01*
X140389737Y-145100497D01*
X140420500Y-144945842D01*
X140420500Y-144788158D01*
X140420500Y-144788155D01*
X140420499Y-144788153D01*
X140405958Y-144715050D01*
X140389737Y-144633503D01*
X140362331Y-144567339D01*
X140329397Y-144487828D01*
X140329396Y-144487827D01*
X140329394Y-144487821D01*
X140266397Y-144393539D01*
X140245520Y-144326863D01*
X140245500Y-144324650D01*
X140245500Y-137675393D01*
X140245499Y-137675389D01*
X140235576Y-137625500D01*
X140221463Y-137554548D01*
X140174311Y-137440714D01*
X140174310Y-137440713D01*
X140174307Y-137440707D01*
X140105858Y-137338267D01*
X140105855Y-137338263D01*
X140015637Y-137248045D01*
X140015606Y-137248016D01*
X138618597Y-135851007D01*
X138585112Y-135789684D01*
X138590096Y-135719992D01*
X138605960Y-135690441D01*
X138654326Y-135623870D01*
X138695051Y-135567816D01*
X138791557Y-135378412D01*
X138857246Y-135176243D01*
X138890500Y-134966287D01*
X138890500Y-134753713D01*
X138857246Y-134543757D01*
X138791557Y-134341588D01*
X138695051Y-134152184D01*
X138695049Y-134152181D01*
X138695048Y-134152179D01*
X138570109Y-133980213D01*
X138419786Y-133829890D01*
X138247820Y-133704951D01*
X138247115Y-133704591D01*
X138239054Y-133700485D01*
X138188259Y-133652512D01*
X138171463Y-133584692D01*
X138193999Y-133518556D01*
X138239054Y-133479515D01*
X138247816Y-133475051D01*
X138269789Y-133459086D01*
X138419786Y-133350109D01*
X138419788Y-133350106D01*
X138419792Y-133350104D01*
X138570104Y-133199792D01*
X138570106Y-133199788D01*
X138570109Y-133199786D01*
X138695048Y-133027820D01*
X138695047Y-133027820D01*
X138695051Y-133027816D01*
X138791557Y-132838412D01*
X138857246Y-132636243D01*
X138890500Y-132426287D01*
X138890500Y-132213713D01*
X138857246Y-132003757D01*
X138791557Y-131801588D01*
X138695051Y-131612184D01*
X138695049Y-131612181D01*
X138695048Y-131612179D01*
X138570109Y-131440213D01*
X138419786Y-131289890D01*
X138247818Y-131164950D01*
X138247450Y-131164762D01*
X138239054Y-131160485D01*
X138188259Y-131112512D01*
X138171463Y-131044692D01*
X138193999Y-130978556D01*
X138239054Y-130939515D01*
X138247816Y-130935051D01*
X138269789Y-130919086D01*
X138419786Y-130810109D01*
X138419788Y-130810106D01*
X138419792Y-130810104D01*
X138570104Y-130659792D01*
X138570106Y-130659788D01*
X138570109Y-130659786D01*
X138695048Y-130487820D01*
X138695049Y-130487819D01*
X138695051Y-130487816D01*
X138791557Y-130298412D01*
X138857246Y-130096243D01*
X138890500Y-129886287D01*
X138890500Y-129673713D01*
X138857246Y-129463757D01*
X138791557Y-129261588D01*
X138695051Y-129072184D01*
X138695049Y-129072181D01*
X138695048Y-129072179D01*
X138570109Y-128900213D01*
X138419786Y-128749890D01*
X138247820Y-128624951D01*
X138247115Y-128624591D01*
X138239054Y-128620485D01*
X138188259Y-128572512D01*
X138171463Y-128504692D01*
X138193999Y-128438556D01*
X138239054Y-128399515D01*
X138247816Y-128395051D01*
X138269789Y-128379086D01*
X138419786Y-128270109D01*
X138419788Y-128270106D01*
X138419792Y-128270104D01*
X138570104Y-128119792D01*
X138570106Y-128119788D01*
X138570109Y-128119786D01*
X138695048Y-127947820D01*
X138695047Y-127947820D01*
X138695051Y-127947816D01*
X138791557Y-127758412D01*
X138857246Y-127556243D01*
X138890500Y-127346287D01*
X138890500Y-127133713D01*
X138857246Y-126923757D01*
X138791557Y-126721588D01*
X138695051Y-126532184D01*
X138695049Y-126532181D01*
X138695048Y-126532179D01*
X138570109Y-126360213D01*
X138419786Y-126209890D01*
X138247820Y-126084951D01*
X138247115Y-126084591D01*
X138239054Y-126080485D01*
X138188259Y-126032512D01*
X138171463Y-125964692D01*
X138193999Y-125898556D01*
X138239054Y-125859515D01*
X138247816Y-125855051D01*
X138269789Y-125839086D01*
X138419786Y-125730109D01*
X138419788Y-125730106D01*
X138419792Y-125730104D01*
X138570104Y-125579792D01*
X138570106Y-125579788D01*
X138570109Y-125579786D01*
X138695048Y-125407820D01*
X138695047Y-125407820D01*
X138695051Y-125407816D01*
X138791557Y-125218412D01*
X138857246Y-125016243D01*
X138890500Y-124806287D01*
X138890500Y-124593713D01*
X138857246Y-124383757D01*
X138791557Y-124181588D01*
X138695051Y-123992184D01*
X138695049Y-123992181D01*
X138695048Y-123992179D01*
X138570109Y-123820213D01*
X138419786Y-123669890D01*
X138247820Y-123544951D01*
X138247115Y-123544591D01*
X138239054Y-123540485D01*
X138188259Y-123492512D01*
X138171463Y-123424692D01*
X138193999Y-123358556D01*
X138239054Y-123319515D01*
X138247816Y-123315051D01*
X138332145Y-123253783D01*
X138419786Y-123190109D01*
X138419788Y-123190106D01*
X138419792Y-123190104D01*
X138570104Y-123039792D01*
X138570106Y-123039788D01*
X138570109Y-123039786D01*
X138695048Y-122867820D01*
X138695047Y-122867820D01*
X138695051Y-122867816D01*
X138791557Y-122678412D01*
X138857246Y-122476243D01*
X138890500Y-122266287D01*
X138890500Y-122053713D01*
X138857246Y-121843757D01*
X138791557Y-121641588D01*
X138695051Y-121452184D01*
X138695049Y-121452181D01*
X138695048Y-121452179D01*
X138570109Y-121280213D01*
X138419786Y-121129890D01*
X138247820Y-121004951D01*
X138247115Y-121004591D01*
X138239054Y-121000485D01*
X138188259Y-120952512D01*
X138171463Y-120884692D01*
X138193999Y-120818556D01*
X138239054Y-120779515D01*
X138247816Y-120775051D01*
X138284659Y-120748283D01*
X138419786Y-120650109D01*
X138419788Y-120650106D01*
X138419792Y-120650104D01*
X138570104Y-120499792D01*
X138570106Y-120499788D01*
X138570109Y-120499786D01*
X138695048Y-120327820D01*
X138695050Y-120327817D01*
X138695051Y-120327816D01*
X138791557Y-120138412D01*
X138857246Y-119936243D01*
X138890500Y-119726287D01*
X138890500Y-119513713D01*
X138857246Y-119303757D01*
X138791557Y-119101588D01*
X138695051Y-118912184D01*
X138695049Y-118912181D01*
X138695048Y-118912179D01*
X138570109Y-118740213D01*
X138419786Y-118589890D01*
X138247820Y-118464951D01*
X138239600Y-118460763D01*
X138239054Y-118460485D01*
X138188259Y-118412512D01*
X138171463Y-118344692D01*
X138193999Y-118278556D01*
X138239054Y-118239515D01*
X138247816Y-118235051D01*
X138269789Y-118219086D01*
X138419786Y-118110109D01*
X138419788Y-118110106D01*
X138419792Y-118110104D01*
X138570104Y-117959792D01*
X138570106Y-117959788D01*
X138570109Y-117959786D01*
X138695048Y-117787820D01*
X138695047Y-117787820D01*
X138695051Y-117787816D01*
X138791557Y-117598412D01*
X138857246Y-117396243D01*
X138890500Y-117186287D01*
X138890500Y-116973713D01*
X138857246Y-116763757D01*
X138791557Y-116561588D01*
X138695051Y-116372184D01*
X138695049Y-116372181D01*
X138695048Y-116372179D01*
X138570109Y-116200213D01*
X138419786Y-116049890D01*
X138247817Y-115924949D01*
X138238504Y-115920204D01*
X138187707Y-115872230D01*
X138170912Y-115804409D01*
X138193449Y-115738274D01*
X138238507Y-115699232D01*
X138247558Y-115694620D01*
X138419459Y-115569727D01*
X138419464Y-115569723D01*
X138569723Y-115419464D01*
X138569727Y-115419459D01*
X138694620Y-115247557D01*
X138791095Y-115058217D01*
X138856757Y-114856129D01*
X138856757Y-114856126D01*
X138867231Y-114790000D01*
X137973012Y-114790000D01*
X138005925Y-114732993D01*
X138040000Y-114605826D01*
X138040000Y-114474174D01*
X138005925Y-114347007D01*
X137973012Y-114290000D01*
X138867231Y-114290000D01*
X138856757Y-114223873D01*
X138856757Y-114223870D01*
X138791095Y-114021782D01*
X138694620Y-113832442D01*
X138569727Y-113660540D01*
X138569723Y-113660535D01*
X138419464Y-113510276D01*
X138419459Y-113510272D01*
X138247555Y-113385377D01*
X138238500Y-113380763D01*
X138187706Y-113332788D01*
X138170912Y-113264966D01*
X138193451Y-113198832D01*
X138238508Y-113159793D01*
X138247816Y-113155051D01*
X138334147Y-113092328D01*
X138419786Y-113030109D01*
X138419788Y-113030106D01*
X138419792Y-113030104D01*
X138570104Y-112879792D01*
X138570106Y-112879788D01*
X138570109Y-112879786D01*
X138695048Y-112707820D01*
X138695047Y-112707820D01*
X138695051Y-112707816D01*
X138791557Y-112518412D01*
X138857246Y-112316243D01*
X138890500Y-112106287D01*
X138890500Y-111893713D01*
X138857246Y-111683757D01*
X138791557Y-111481588D01*
X138695051Y-111292184D01*
X138695049Y-111292181D01*
X138695048Y-111292179D01*
X138570109Y-111120213D01*
X138419786Y-110969890D01*
X138247820Y-110844951D01*
X138058414Y-110748444D01*
X138058413Y-110748443D01*
X138058412Y-110748443D01*
X137856243Y-110682754D01*
X137856241Y-110682753D01*
X137856240Y-110682753D01*
X137694957Y-110657208D01*
X137646287Y-110649500D01*
X137433713Y-110649500D01*
X137385042Y-110657208D01*
X137223760Y-110682753D01*
X137021585Y-110748444D01*
X136832179Y-110844951D01*
X136660215Y-110969889D01*
X136546673Y-111083431D01*
X136485350Y-111116915D01*
X136415658Y-111111931D01*
X136359725Y-111070059D01*
X136342810Y-111039082D01*
X136293797Y-110907671D01*
X136293793Y-110907664D01*
X136207547Y-110792455D01*
X136207544Y-110792452D01*
X136092335Y-110706206D01*
X136092328Y-110706202D01*
X135957482Y-110655908D01*
X135957483Y-110655908D01*
X135897883Y-110649501D01*
X135897881Y-110649500D01*
X135897873Y-110649500D01*
X135897864Y-110649500D01*
X134102129Y-110649500D01*
X134102123Y-110649501D01*
X134042516Y-110655908D01*
X133907671Y-110706202D01*
X133907664Y-110706206D01*
X133792455Y-110792452D01*
X133792452Y-110792455D01*
X133706206Y-110907664D01*
X133706202Y-110907671D01*
X133655908Y-111042517D01*
X133649501Y-111102116D01*
X133649500Y-111102135D01*
X133649500Y-112897870D01*
X133649501Y-112897876D01*
X133655908Y-112957483D01*
X133706202Y-113092328D01*
X133706206Y-113092335D01*
X133792452Y-113207544D01*
X133792455Y-113207547D01*
X133907664Y-113293793D01*
X133907671Y-113293797D01*
X134039082Y-113342810D01*
X134095016Y-113384681D01*
X134119433Y-113450145D01*
X134104582Y-113518418D01*
X134083431Y-113546673D01*
X133969889Y-113660215D01*
X133844951Y-113832179D01*
X133748444Y-114021585D01*
X133682753Y-114223760D01*
X133649500Y-114433713D01*
X133649500Y-114646286D01*
X133664427Y-114740535D01*
X133682754Y-114856243D01*
X133718594Y-114966548D01*
X133748444Y-115058414D01*
X133844951Y-115247820D01*
X133969890Y-115419786D01*
X134120213Y-115570109D01*
X134292182Y-115695050D01*
X134300946Y-115699516D01*
X134351742Y-115747491D01*
X134368536Y-115815312D01*
X134345998Y-115881447D01*
X134300946Y-115920484D01*
X134292182Y-115924949D01*
X134120213Y-116049890D01*
X133969890Y-116200213D01*
X133844951Y-116372179D01*
X133748444Y-116561585D01*
X133682753Y-116763760D01*
X133649500Y-116973713D01*
X133649500Y-117186286D01*
X133670786Y-117320684D01*
X133682754Y-117396243D01*
X133720175Y-117511413D01*
X133748444Y-117598414D01*
X133844951Y-117787820D01*
X133969890Y-117959786D01*
X134120213Y-118110109D01*
X134292179Y-118235048D01*
X134292181Y-118235049D01*
X134292184Y-118235051D01*
X134301493Y-118239794D01*
X134352290Y-118287766D01*
X134369087Y-118355587D01*
X134346552Y-118421722D01*
X134301502Y-118460762D01*
X134292443Y-118465378D01*
X134120540Y-118590272D01*
X134120535Y-118590276D01*
X133970276Y-118740535D01*
X133970272Y-118740540D01*
X133845379Y-118912442D01*
X133748904Y-119101782D01*
X133683242Y-119303870D01*
X133683242Y-119303873D01*
X133672769Y-119370000D01*
X134566988Y-119370000D01*
X134534075Y-119427007D01*
X134500000Y-119554174D01*
X134500000Y-119685826D01*
X134534075Y-119812993D01*
X134566988Y-119870000D01*
X133672769Y-119870000D01*
X133683242Y-119936126D01*
X133683242Y-119936129D01*
X133748904Y-120138217D01*
X133845379Y-120327557D01*
X133970272Y-120499459D01*
X133970276Y-120499464D01*
X134120535Y-120649723D01*
X134120540Y-120649727D01*
X134292444Y-120774622D01*
X134301495Y-120779234D01*
X134352292Y-120827208D01*
X134369087Y-120895029D01*
X134346550Y-120961164D01*
X134301499Y-121000202D01*
X134292182Y-121004949D01*
X134120213Y-121129890D01*
X133969890Y-121280213D01*
X133844951Y-121452179D01*
X133748444Y-121641585D01*
X133748443Y-121641587D01*
X133748443Y-121641588D01*
X133693927Y-121809372D01*
X133682755Y-121843755D01*
X133682753Y-121843759D01*
X133649500Y-122053713D01*
X133649500Y-122266286D01*
X133665814Y-122369292D01*
X133682754Y-122476243D01*
X133746255Y-122671679D01*
X133748444Y-122678414D01*
X133844951Y-122867820D01*
X133969890Y-123039786D01*
X134120213Y-123190109D01*
X134292182Y-123315050D01*
X134300946Y-123319516D01*
X134351742Y-123367491D01*
X134368536Y-123435312D01*
X134345998Y-123501447D01*
X134300946Y-123540484D01*
X134292182Y-123544949D01*
X134120213Y-123669890D01*
X133969890Y-123820213D01*
X133844951Y-123992179D01*
X133748444Y-124181585D01*
X133682753Y-124383760D01*
X133649500Y-124593713D01*
X133649500Y-124806286D01*
X133669298Y-124931289D01*
X133682754Y-125016243D01*
X133747512Y-125215548D01*
X133748444Y-125218414D01*
X133844951Y-125407820D01*
X133969890Y-125579786D01*
X134120213Y-125730109D01*
X134292182Y-125855050D01*
X134300946Y-125859516D01*
X134351742Y-125907491D01*
X134368536Y-125975312D01*
X134345998Y-126041447D01*
X134300946Y-126080484D01*
X134292182Y-126084949D01*
X134120213Y-126209890D01*
X133969890Y-126360213D01*
X133844951Y-126532179D01*
X133748444Y-126721585D01*
X133682753Y-126923760D01*
X133649500Y-127133713D01*
X133649500Y-127346286D01*
X133677658Y-127524072D01*
X133682754Y-127556243D01*
X133745083Y-127748072D01*
X133748444Y-127758414D01*
X133844948Y-127947815D01*
X133960129Y-128106350D01*
X133983608Y-128172157D01*
X133967782Y-128240211D01*
X133947491Y-128266916D01*
X128062230Y-134152179D01*
X126138269Y-136076140D01*
X126138267Y-136076142D01*
X126102852Y-136111557D01*
X126051144Y-136163264D01*
X126032205Y-136191609D01*
X126032204Y-136191609D01*
X125982690Y-136265709D01*
X125982685Y-136265718D01*
X125960126Y-136320184D01*
X125949347Y-136346207D01*
X125944686Y-136357460D01*
X125935537Y-136379545D01*
X125935535Y-136379553D01*
X125911500Y-136500389D01*
X125911500Y-148356546D01*
X125891815Y-148423585D01*
X125875181Y-148444227D01*
X125350680Y-148968727D01*
X125289357Y-149002212D01*
X125219665Y-148997228D01*
X125163732Y-148955356D01*
X125152514Y-148937340D01*
X125112286Y-148858388D01*
X124991971Y-148692786D01*
X124847219Y-148548034D01*
X124847211Y-148548028D01*
X124810929Y-148521668D01*
X124768264Y-148466339D01*
X124762285Y-148396726D01*
X124794890Y-148334931D01*
X124855728Y-148300573D01*
X124870562Y-148298060D01*
X124907483Y-148294091D01*
X124957835Y-148275311D01*
X125042331Y-148243796D01*
X125157546Y-148157546D01*
X125243796Y-148042331D01*
X125294091Y-147907483D01*
X125300500Y-147847873D01*
X125300499Y-146152128D01*
X125294091Y-146092517D01*
X125277380Y-146047713D01*
X125243797Y-145957671D01*
X125243793Y-145957664D01*
X125157547Y-145842455D01*
X125157544Y-145842452D01*
X125042335Y-145756206D01*
X125042328Y-145756202D01*
X124907482Y-145705908D01*
X124907483Y-145705908D01*
X124847883Y-145699501D01*
X124847881Y-145699500D01*
X124847873Y-145699500D01*
X124847864Y-145699500D01*
X123152129Y-145699500D01*
X123152123Y-145699501D01*
X123092516Y-145705908D01*
X122957671Y-145756202D01*
X122957664Y-145756206D01*
X122842455Y-145842452D01*
X122842452Y-145842455D01*
X122756206Y-145957664D01*
X122756202Y-145957671D01*
X122705908Y-146092517D01*
X122704005Y-146110222D01*
X122699501Y-146152123D01*
X122699500Y-146152135D01*
X122699500Y-147847870D01*
X122699501Y-147847876D01*
X122705908Y-147907483D01*
X122756202Y-148042328D01*
X122756206Y-148042335D01*
X122842452Y-148157544D01*
X122842455Y-148157547D01*
X122957664Y-148243793D01*
X122957671Y-148243797D01*
X122998583Y-148259056D01*
X123092517Y-148294091D01*
X123129441Y-148298060D01*
X123193989Y-148324796D01*
X123233838Y-148382188D01*
X123236333Y-148452013D01*
X123200681Y-148512102D01*
X123189071Y-148521666D01*
X123152784Y-148548030D01*
X123008028Y-148692786D01*
X122887715Y-148858386D01*
X122794781Y-149040776D01*
X122731522Y-149235465D01*
X122699500Y-149437648D01*
X122699500Y-149642351D01*
X122731522Y-149844534D01*
X122794781Y-150039223D01*
X122853465Y-150154394D01*
X122886264Y-150218767D01*
X122887715Y-150221613D01*
X123008028Y-150387213D01*
X123011191Y-150390915D01*
X123009763Y-150392134D01*
X123039416Y-150446439D01*
X123034432Y-150516131D01*
X123005931Y-150560478D01*
X119604141Y-153962267D01*
X119604133Y-153962275D01*
X119601269Y-153965140D01*
X119601267Y-153965142D01*
X119514142Y-154052267D01*
X119483324Y-154098390D01*
X119478809Y-154105146D01*
X119478801Y-154105156D01*
X119445691Y-154154708D01*
X119445689Y-154154711D01*
X119445688Y-154154714D01*
X119424460Y-154205965D01*
X119398538Y-154268545D01*
X119398535Y-154268555D01*
X119374500Y-154389389D01*
X119374500Y-155575500D01*
X119354815Y-155642539D01*
X119302011Y-155688294D01*
X119250501Y-155699500D01*
X119152130Y-155699500D01*
X119152123Y-155699501D01*
X119092516Y-155705908D01*
X118957671Y-155756202D01*
X118957664Y-155756206D01*
X118842455Y-155842452D01*
X118842452Y-155842455D01*
X118756206Y-155957664D01*
X118756202Y-155957671D01*
X118705908Y-156092517D01*
X118699898Y-156148422D01*
X118699501Y-156152123D01*
X118699500Y-156152135D01*
X115530613Y-156152135D01*
X115386895Y-156008417D01*
X115221349Y-155888140D01*
X115039029Y-155795244D01*
X114844413Y-155732009D01*
X114790000Y-155723390D01*
X114790000Y-156684314D01*
X114785606Y-156679920D01*
X114694394Y-156627259D01*
X114592661Y-156600000D01*
X114487339Y-156600000D01*
X114385606Y-156627259D01*
X114294394Y-156679920D01*
X114290000Y-156684314D01*
X114290000Y-155723390D01*
X114235586Y-155732009D01*
X114040970Y-155795244D01*
X113858650Y-155888140D01*
X113693105Y-156008417D01*
X113693104Y-156008417D01*
X113548414Y-156153107D01*
X113521746Y-156189813D01*
X113466415Y-156232478D01*
X113396802Y-156238456D01*
X113335007Y-156205849D01*
X113300651Y-156145010D01*
X113298139Y-156130177D01*
X113294091Y-156092517D01*
X113243797Y-155957671D01*
X113243793Y-155957664D01*
X113157547Y-155842455D01*
X113157544Y-155842452D01*
X113042335Y-155756206D01*
X113042328Y-155756202D01*
X112907482Y-155705908D01*
X112907483Y-155705908D01*
X112847883Y-155699501D01*
X112847881Y-155699500D01*
X112847873Y-155699500D01*
X112847864Y-155699500D01*
X111152129Y-155699500D01*
X111152123Y-155699501D01*
X111092516Y-155705908D01*
X110957671Y-155756202D01*
X110957664Y-155756206D01*
X110842455Y-155842452D01*
X110842452Y-155842455D01*
X110756206Y-155957664D01*
X110756202Y-155957671D01*
X110705908Y-156092517D01*
X110699898Y-156148422D01*
X110699501Y-156152123D01*
X110699500Y-156152135D01*
X106400429Y-156152135D01*
X106399690Y-156148422D01*
X106299850Y-155819295D01*
X106168231Y-155501538D01*
X106149713Y-155466894D01*
X106006106Y-155198224D01*
X106006105Y-155198222D01*
X106006100Y-155198213D01*
X105815019Y-154912240D01*
X105596828Y-154646373D01*
X105596827Y-154646372D01*
X105596823Y-154646367D01*
X105353632Y-154403176D01*
X105221209Y-154294499D01*
X105221204Y-154294495D01*
X105087760Y-154184981D01*
X104801787Y-153993900D01*
X104801782Y-153993897D01*
X104801775Y-153993893D01*
X104498469Y-153831772D01*
X104498464Y-153831770D01*
X104180706Y-153700150D01*
X103851572Y-153600308D01*
X103514248Y-153533210D01*
X103514249Y-153533210D01*
X103248353Y-153507023D01*
X103171969Y-153499500D01*
X102828031Y-153499500D01*
X102751647Y-153507023D01*
X102485750Y-153533210D01*
X102148427Y-153600308D01*
X101819293Y-153700150D01*
X101501535Y-153831770D01*
X101501530Y-153831772D01*
X101198224Y-153993893D01*
X101198206Y-153993904D01*
X100912248Y-154184975D01*
X100912234Y-154184985D01*
X100646367Y-154403176D01*
X100512181Y-154537363D01*
X100450858Y-154570848D01*
X100381166Y-154565864D01*
X100325233Y-154523992D01*
X100300816Y-154458528D01*
X100300500Y-154449682D01*
X100300500Y-153052155D01*
X107100000Y-153052155D01*
X107100000Y-153750000D01*
X108066988Y-153750000D01*
X108034075Y-153807007D01*
X108000000Y-153934174D01*
X108000000Y-154065826D01*
X108034075Y-154192993D01*
X108066988Y-154250000D01*
X107100000Y-154250000D01*
X107100000Y-154947844D01*
X107106401Y-155007372D01*
X107106403Y-155007379D01*
X107156645Y-155142086D01*
X107156649Y-155142093D01*
X107242809Y-155257187D01*
X107242812Y-155257190D01*
X107357906Y-155343350D01*
X107357913Y-155343354D01*
X107492620Y-155393596D01*
X107492627Y-155393598D01*
X107552155Y-155399999D01*
X107552172Y-155400000D01*
X108250000Y-155400000D01*
X108250000Y-154433012D01*
X108307007Y-154465925D01*
X108434174Y-154500000D01*
X108565826Y-154500000D01*
X108692993Y-154465925D01*
X108750000Y-154433012D01*
X108750000Y-155400000D01*
X109447828Y-155400000D01*
X109447844Y-155399999D01*
X109507372Y-155393598D01*
X109507379Y-155393596D01*
X109642086Y-155343354D01*
X109642093Y-155343350D01*
X109757187Y-155257190D01*
X109757190Y-155257187D01*
X109843350Y-155142093D01*
X109843354Y-155142086D01*
X109893596Y-155007379D01*
X109893598Y-155007372D01*
X109899999Y-154947844D01*
X109900000Y-154947827D01*
X109900000Y-154250000D01*
X108933012Y-154250000D01*
X108965925Y-154192993D01*
X109000000Y-154065826D01*
X109000000Y-153934174D01*
X108965925Y-153807007D01*
X108933012Y-153750000D01*
X109900000Y-153750000D01*
X114122145Y-153750000D01*
X115066988Y-153750000D01*
X115034075Y-153807007D01*
X115000000Y-153934174D01*
X115000000Y-154065826D01*
X115034075Y-154192993D01*
X115066988Y-154250000D01*
X114122145Y-154250000D01*
X114134473Y-154327835D01*
X114134473Y-154327838D01*
X114202567Y-154537410D01*
X114302613Y-154733760D01*
X114432142Y-154912041D01*
X114587958Y-155067857D01*
X114766239Y-155197386D01*
X114962589Y-155297432D01*
X115172163Y-155365526D01*
X115249999Y-155377854D01*
X115250000Y-155377854D01*
X115250000Y-154433012D01*
X115307007Y-154465925D01*
X115434174Y-154500000D01*
X115565826Y-154500000D01*
X115692993Y-154465925D01*
X115750000Y-154433012D01*
X115750000Y-155377854D01*
X115827834Y-155365526D01*
X115827837Y-155365526D01*
X116037410Y-155297432D01*
X116233760Y-155197386D01*
X116412041Y-155067857D01*
X116567857Y-154912041D01*
X116697386Y-154733760D01*
X116797432Y-154537410D01*
X116865526Y-154327838D01*
X116865526Y-154327835D01*
X116877855Y-154250000D01*
X115933012Y-154250000D01*
X115965925Y-154192993D01*
X116000000Y-154065826D01*
X116000000Y-153934174D01*
X115965925Y-153807007D01*
X115933012Y-153750000D01*
X116877855Y-153750000D01*
X116865526Y-153672164D01*
X116865526Y-153672161D01*
X116797432Y-153462589D01*
X116697386Y-153266239D01*
X116567857Y-153087958D01*
X116412041Y-152932142D01*
X116233760Y-152802613D01*
X116037410Y-152702567D01*
X115827836Y-152634473D01*
X115750000Y-152622144D01*
X115750000Y-153566988D01*
X115692993Y-153534075D01*
X115565826Y-153500000D01*
X115434174Y-153500000D01*
X115307007Y-153534075D01*
X115250000Y-153566988D01*
X115250000Y-152622144D01*
X115172164Y-152634473D01*
X115172161Y-152634473D01*
X114962589Y-152702567D01*
X114766239Y-152802613D01*
X114587958Y-152932142D01*
X114432142Y-153087958D01*
X114302613Y-153266239D01*
X114202567Y-153462589D01*
X114134473Y-153672161D01*
X114134473Y-153672164D01*
X114122145Y-153750000D01*
X109900000Y-153750000D01*
X109900000Y-153052172D01*
X109899999Y-153052155D01*
X109893598Y-152992627D01*
X109893596Y-152992620D01*
X109843354Y-152857913D01*
X109843350Y-152857906D01*
X109757190Y-152742812D01*
X109757187Y-152742809D01*
X109642093Y-152656649D01*
X109642086Y-152656645D01*
X109507379Y-152606403D01*
X109507372Y-152606401D01*
X109447844Y-152600000D01*
X108750000Y-152600000D01*
X108750000Y-153566988D01*
X108692993Y-153534075D01*
X108565826Y-153500000D01*
X108434174Y-153500000D01*
X108307007Y-153534075D01*
X108250000Y-153566988D01*
X108250000Y-152600000D01*
X107552155Y-152600000D01*
X107492627Y-152606401D01*
X107492620Y-152606403D01*
X107357913Y-152656645D01*
X107357906Y-152656649D01*
X107242812Y-152742809D01*
X107242809Y-152742812D01*
X107156649Y-152857906D01*
X107156645Y-152857913D01*
X107106403Y-152992620D01*
X107106401Y-152992627D01*
X107100000Y-153052155D01*
X100300500Y-153052155D01*
X100300500Y-149750000D01*
X102520898Y-149750000D01*
X103791759Y-149750000D01*
X103778822Y-149781233D01*
X103750000Y-149926131D01*
X103750000Y-150073869D01*
X103778822Y-150218767D01*
X103791759Y-150250000D01*
X102520898Y-150250000D01*
X102536934Y-150351247D01*
X102609897Y-150575802D01*
X102717085Y-150786171D01*
X102855866Y-150977186D01*
X103022813Y-151144133D01*
X103213828Y-151282914D01*
X103424197Y-151390102D01*
X103648752Y-151463065D01*
X103648751Y-151463065D01*
X103881948Y-151500000D01*
X104250000Y-151500000D01*
X104250000Y-150708240D01*
X104281233Y-150721178D01*
X104426131Y-150750000D01*
X104573869Y-150750000D01*
X104718767Y-150721178D01*
X104750000Y-150708240D01*
X104750000Y-151500000D01*
X105118052Y-151500000D01*
X105351247Y-151463065D01*
X105575802Y-151390102D01*
X105786171Y-151282914D01*
X105977185Y-151144133D01*
X105992730Y-151128589D01*
X106054053Y-151095102D01*
X106123744Y-151100085D01*
X106153299Y-151115950D01*
X106232913Y-151173792D01*
X106265978Y-151197815D01*
X106391058Y-151261547D01*
X106462393Y-151297895D01*
X106462396Y-151297896D01*
X106504897Y-151311705D01*
X106672049Y-151366015D01*
X106889778Y-151400500D01*
X106889779Y-151400500D01*
X107110221Y-151400500D01*
X107110222Y-151400500D01*
X107327951Y-151366015D01*
X107537606Y-151297895D01*
X107734022Y-151197815D01*
X107912365Y-151068242D01*
X108068242Y-150912365D01*
X108197815Y-150734022D01*
X108297895Y-150537606D01*
X108366015Y-150327951D01*
X108400500Y-150110222D01*
X108400500Y-149889778D01*
X108366015Y-149672049D01*
X108318127Y-149524663D01*
X108297896Y-149462396D01*
X108297895Y-149462393D01*
X108253110Y-149374500D01*
X108197815Y-149265978D01*
X108119523Y-149158217D01*
X108068247Y-149087641D01*
X108068243Y-149087636D01*
X107912363Y-148931756D01*
X107912358Y-148931752D01*
X107734023Y-148802185D01*
X107687139Y-148778296D01*
X107685157Y-148776424D01*
X107682502Y-148775808D01*
X107659897Y-148752567D01*
X107636344Y-148730321D01*
X107635107Y-148727078D01*
X107633788Y-148725722D01*
X107621916Y-148692491D01*
X107613233Y-148649724D01*
X107606442Y-148615585D01*
X107601456Y-148590511D01*
X107601222Y-148589750D01*
X107601096Y-148589339D01*
X107600753Y-148588210D01*
X107577500Y-148532695D01*
X107577500Y-148532694D01*
X107577388Y-148532429D01*
X107554311Y-148476714D01*
X107553618Y-148475676D01*
X107553136Y-148474526D01*
X107519670Y-148424868D01*
X107498529Y-148358275D01*
X107498500Y-148355571D01*
X107498500Y-141424499D01*
X107518185Y-141357460D01*
X107570989Y-141311705D01*
X107622500Y-141300499D01*
X108377500Y-141300499D01*
X108444539Y-141320184D01*
X108490294Y-141372988D01*
X108501500Y-141424499D01*
X108501500Y-145961606D01*
X108519103Y-146050104D01*
X108525538Y-146082455D01*
X108525539Y-146082459D01*
X108531520Y-146096898D01*
X108531529Y-146096919D01*
X108532599Y-146099500D01*
X108572688Y-146196286D01*
X108585495Y-146215452D01*
X108590702Y-146223245D01*
X108590705Y-146223251D01*
X108641140Y-146298731D01*
X108641141Y-146298732D01*
X108641142Y-146298733D01*
X108728267Y-146385858D01*
X108728268Y-146385858D01*
X108735335Y-146392925D01*
X108735334Y-146392925D01*
X108735338Y-146392928D01*
X111093388Y-148750979D01*
X111126873Y-148812302D01*
X111121889Y-148881994D01*
X111090144Y-148927377D01*
X111091080Y-148928313D01*
X110931756Y-149087636D01*
X110931752Y-149087641D01*
X110802187Y-149265974D01*
X110702104Y-149462393D01*
X110702103Y-149462396D01*
X110633985Y-149672047D01*
X110599500Y-149889778D01*
X110599500Y-150110221D01*
X110633985Y-150327952D01*
X110702103Y-150537603D01*
X110702104Y-150537606D01*
X110766833Y-150664641D01*
X110781387Y-150693205D01*
X110802187Y-150734025D01*
X110931752Y-150912358D01*
X110931756Y-150912363D01*
X111087636Y-151068243D01*
X111087641Y-151068247D01*
X111232913Y-151173792D01*
X111265978Y-151197815D01*
X111391058Y-151261547D01*
X111462393Y-151297895D01*
X111462396Y-151297896D01*
X111504897Y-151311705D01*
X111672049Y-151366015D01*
X111889778Y-151400500D01*
X111889779Y-151400500D01*
X112110221Y-151400500D01*
X112110222Y-151400500D01*
X112327951Y-151366015D01*
X112537606Y-151297895D01*
X112734022Y-151197815D01*
X112912365Y-151068242D01*
X113068242Y-150912365D01*
X113197815Y-150734022D01*
X113297895Y-150537606D01*
X113366015Y-150327951D01*
X113373386Y-150281411D01*
X113403313Y-150218280D01*
X113462623Y-150181348D01*
X113532486Y-150182344D01*
X113583539Y-150213130D01*
X113856263Y-150485855D01*
X113856267Y-150485858D01*
X113958710Y-150554309D01*
X113958711Y-150554309D01*
X113958715Y-150554312D01*
X114025397Y-150581932D01*
X114072548Y-150601463D01*
X114092597Y-150605451D01*
X114157624Y-150618385D01*
X114193392Y-150625501D01*
X114193394Y-150625501D01*
X114322721Y-150625501D01*
X114322741Y-150625500D01*
X115670903Y-150625500D01*
X115737942Y-150645185D01*
X115781388Y-150693205D01*
X115802187Y-150734026D01*
X115931752Y-150912358D01*
X115931756Y-150912363D01*
X116087636Y-151068243D01*
X116087641Y-151068247D01*
X116232913Y-151173792D01*
X116265978Y-151197815D01*
X116391058Y-151261547D01*
X116462393Y-151297895D01*
X116462396Y-151297896D01*
X116504897Y-151311705D01*
X116672049Y-151366015D01*
X116889778Y-151400500D01*
X116889779Y-151400500D01*
X117110221Y-151400500D01*
X117110222Y-151400500D01*
X117327951Y-151366015D01*
X117537606Y-151297895D01*
X117734022Y-151197815D01*
X117846704Y-151115947D01*
X117912505Y-151092469D01*
X117980559Y-151108294D01*
X118007266Y-151128586D01*
X118022813Y-151144133D01*
X118213828Y-151282914D01*
X118424197Y-151390102D01*
X118648752Y-151463065D01*
X118648751Y-151463065D01*
X118881948Y-151500000D01*
X119250000Y-151500000D01*
X119250000Y-150708240D01*
X119281233Y-150721178D01*
X119426131Y-150750000D01*
X119573869Y-150750000D01*
X119718767Y-150721178D01*
X119750000Y-150708240D01*
X119750000Y-151500000D01*
X120118052Y-151500000D01*
X120351247Y-151463065D01*
X120575802Y-151390102D01*
X120786171Y-151282914D01*
X120977186Y-151144133D01*
X121144133Y-150977186D01*
X121282914Y-150786171D01*
X121390102Y-150575802D01*
X121463065Y-150351247D01*
X121479102Y-150250000D01*
X120208241Y-150250000D01*
X120221178Y-150218767D01*
X120250000Y-150073869D01*
X120250000Y-149926131D01*
X120221178Y-149781233D01*
X120208241Y-149750000D01*
X121479102Y-149750000D01*
X121463065Y-149648752D01*
X121390102Y-149424197D01*
X121282914Y-149213828D01*
X121144133Y-149022813D01*
X120977186Y-148855866D01*
X120786171Y-148717085D01*
X120575802Y-148609897D01*
X120351247Y-148536934D01*
X120351248Y-148536934D01*
X120118052Y-148500000D01*
X119750000Y-148500000D01*
X119750000Y-149291759D01*
X119718767Y-149278822D01*
X119573869Y-149250000D01*
X119426131Y-149250000D01*
X119281233Y-149278822D01*
X119250000Y-149291759D01*
X119250000Y-148500000D01*
X118881948Y-148500000D01*
X118648752Y-148536934D01*
X118424197Y-148609897D01*
X118213825Y-148717087D01*
X118022819Y-148855860D01*
X118007264Y-148871415D01*
X117945940Y-148904898D01*
X117876248Y-148899912D01*
X117846700Y-148884049D01*
X117734025Y-148802187D01*
X117734024Y-148802186D01*
X117734022Y-148802185D01*
X117643784Y-148756206D01*
X117537606Y-148702104D01*
X117537603Y-148702103D01*
X117327952Y-148633985D01*
X117219086Y-148616742D01*
X117110222Y-148599500D01*
X116889778Y-148599500D01*
X116824134Y-148609897D01*
X116672047Y-148633985D01*
X116462396Y-148702103D01*
X116462393Y-148702104D01*
X116265974Y-148802187D01*
X116087641Y-148931752D01*
X116087636Y-148931756D01*
X115931756Y-149087636D01*
X115931752Y-149087641D01*
X115802187Y-149265973D01*
X115781388Y-149306795D01*
X115733414Y-149357591D01*
X115670903Y-149374500D01*
X114565453Y-149374500D01*
X114498414Y-149354815D01*
X114477772Y-149338181D01*
X112591963Y-147452372D01*
X112558478Y-147391049D01*
X112563462Y-147321357D01*
X112605334Y-147265424D01*
X112623346Y-147254207D01*
X112734022Y-147197815D01*
X112912365Y-147068242D01*
X113068242Y-146912365D01*
X113197815Y-146734022D01*
X113297895Y-146537606D01*
X113366015Y-146327951D01*
X113400500Y-146110222D01*
X113400500Y-145889778D01*
X113366015Y-145672049D01*
X113297895Y-145462394D01*
X113297895Y-145462393D01*
X113218331Y-145306243D01*
X113197815Y-145265978D01*
X113133824Y-145177901D01*
X113068247Y-145087641D01*
X113068243Y-145087636D01*
X112912363Y-144931756D01*
X112912358Y-144931752D01*
X112734023Y-144802185D01*
X112693204Y-144781386D01*
X112642408Y-144733411D01*
X112625500Y-144670902D01*
X112625500Y-139897648D01*
X116859500Y-139897648D01*
X116859500Y-140102351D01*
X116891522Y-140304534D01*
X116954781Y-140499223D01*
X117047715Y-140681613D01*
X117168028Y-140847213D01*
X117312786Y-140991971D01*
X117441969Y-141085826D01*
X117478390Y-141112287D01*
X117547482Y-141147491D01*
X117660776Y-141205218D01*
X117660778Y-141205218D01*
X117660781Y-141205220D01*
X117765137Y-141239127D01*
X117855465Y-141268477D01*
X117937354Y-141281447D01*
X118057648Y-141300500D01*
X118057649Y-141300500D01*
X118262351Y-141300500D01*
X118262352Y-141300500D01*
X118464534Y-141268477D01*
X118659219Y-141205220D01*
X118841610Y-141112287D01*
X118955712Y-141029388D01*
X119007213Y-140991971D01*
X119007215Y-140991968D01*
X119007219Y-140991966D01*
X119151966Y-140847219D01*
X119151968Y-140847215D01*
X119151971Y-140847213D01*
X119256196Y-140703757D01*
X119272287Y-140681610D01*
X119365220Y-140499219D01*
X119428477Y-140304534D01*
X119460500Y-140102352D01*
X119460500Y-139897648D01*
X119438473Y-139758576D01*
X119428477Y-139695465D01*
X119365218Y-139500776D01*
X119324869Y-139421588D01*
X119272287Y-139318390D01*
X119248753Y-139285998D01*
X119151968Y-139152783D01*
X119007213Y-139008028D01*
X118841613Y-138887715D01*
X118841612Y-138887714D01*
X118841610Y-138887713D01*
X118778257Y-138855433D01*
X118659223Y-138794781D01*
X118464534Y-138731522D01*
X118289995Y-138703878D01*
X118262352Y-138699500D01*
X118057648Y-138699500D01*
X118033329Y-138703351D01*
X117855465Y-138731522D01*
X117660776Y-138794781D01*
X117478386Y-138887715D01*
X117312786Y-139008028D01*
X117168032Y-139152782D01*
X117168032Y-139152783D01*
X117047715Y-139318386D01*
X116954781Y-139500776D01*
X116891522Y-139695465D01*
X116859500Y-139897648D01*
X112625500Y-139897648D01*
X112625500Y-121321153D01*
X115141500Y-121321153D01*
X115141500Y-121478846D01*
X115172261Y-121633489D01*
X115172264Y-121633501D01*
X115232602Y-121779172D01*
X115232609Y-121779185D01*
X115320210Y-121910288D01*
X115320213Y-121910292D01*
X115431707Y-122021786D01*
X115431711Y-122021789D01*
X115562814Y-122109390D01*
X115562827Y-122109397D01*
X115705425Y-122168462D01*
X115708503Y-122169737D01*
X115863153Y-122200499D01*
X115863156Y-122200500D01*
X115863158Y-122200500D01*
X116020844Y-122200500D01*
X116020845Y-122200499D01*
X116175497Y-122169737D01*
X116236048Y-122144655D01*
X116305516Y-122137187D01*
X116367996Y-122168462D01*
X116403648Y-122228551D01*
X116407500Y-122259217D01*
X116407500Y-132685529D01*
X116407472Y-132685671D01*
X116407500Y-132748397D01*
X116407500Y-132808618D01*
X116407526Y-132808882D01*
X116407527Y-132808884D01*
X116419616Y-132869520D01*
X116431537Y-132929452D01*
X116431590Y-132929582D01*
X116431618Y-132929718D01*
X116431682Y-132929873D01*
X116431683Y-132929876D01*
X116455223Y-132986635D01*
X116455251Y-132986702D01*
X116478689Y-133043286D01*
X116478765Y-133043400D01*
X116478820Y-133043532D01*
X116512916Y-133094510D01*
X116512917Y-133094511D01*
X116512947Y-133094557D01*
X116547144Y-133145736D01*
X116547311Y-133145940D01*
X116590119Y-133188710D01*
X116590159Y-133188750D01*
X116638292Y-133236884D01*
X116638758Y-133237306D01*
X117273695Y-133871680D01*
X117307207Y-133932987D01*
X117302254Y-134002681D01*
X117273735Y-134047080D01*
X117168027Y-134152788D01*
X117047715Y-134318386D01*
X116954781Y-134500776D01*
X116891522Y-134695465D01*
X116859500Y-134897648D01*
X116859500Y-135102351D01*
X116891522Y-135304534D01*
X116954781Y-135499223D01*
X117047715Y-135681613D01*
X117168028Y-135847213D01*
X117312786Y-135991971D01*
X117451179Y-136092517D01*
X117478390Y-136112287D01*
X117578438Y-136163264D01*
X117660776Y-136205218D01*
X117660778Y-136205218D01*
X117660781Y-136205220D01*
X117765137Y-136239127D01*
X117855465Y-136268477D01*
X117956557Y-136284488D01*
X118057648Y-136300500D01*
X118057649Y-136300500D01*
X118262351Y-136300500D01*
X118262352Y-136300500D01*
X118464534Y-136268477D01*
X118659219Y-136205220D01*
X118841610Y-136112287D01*
X118956752Y-136028632D01*
X119007213Y-135991971D01*
X119007215Y-135991968D01*
X119007219Y-135991966D01*
X119151966Y-135847219D01*
X119151968Y-135847215D01*
X119151971Y-135847213D01*
X119218092Y-135756204D01*
X119272287Y-135681610D01*
X119365220Y-135499219D01*
X119428477Y-135304534D01*
X119460500Y-135102352D01*
X119460500Y-134897648D01*
X119428477Y-134695466D01*
X119425294Y-134685671D01*
X119384304Y-134559516D01*
X119365220Y-134500781D01*
X119365218Y-134500778D01*
X119365218Y-134500776D01*
X119329014Y-134429723D01*
X119272287Y-134318390D01*
X119244002Y-134279459D01*
X119151971Y-134152786D01*
X119007213Y-134008028D01*
X118841611Y-133887713D01*
X118841265Y-133887501D01*
X118841161Y-133887386D01*
X118837669Y-133884849D01*
X118838202Y-133884115D01*
X118819120Y-133863020D01*
X118796215Y-133839304D01*
X118795284Y-133836668D01*
X118794394Y-133835685D01*
X118784458Y-133806026D01*
X118784433Y-133805899D01*
X118773394Y-133750534D01*
X118773399Y-133750475D01*
X118773383Y-133750479D01*
X118761463Y-133690548D01*
X118761461Y-133690544D01*
X118761384Y-133690287D01*
X118737915Y-133633698D01*
X118737915Y-133633697D01*
X118737893Y-133633647D01*
X118718462Y-133586735D01*
X118714311Y-133576714D01*
X118714233Y-133576598D01*
X118714180Y-133576469D01*
X118680430Y-133526007D01*
X118675451Y-133518556D01*
X118661046Y-133496998D01*
X118645858Y-133474267D01*
X118645857Y-133474266D01*
X118645685Y-133474056D01*
X118602840Y-133431249D01*
X118558733Y-133387142D01*
X118558614Y-133387063D01*
X118408302Y-133236884D01*
X117694858Y-132524071D01*
X117661345Y-132462763D01*
X117658500Y-132436351D01*
X117658500Y-131375150D01*
X117678185Y-131308111D01*
X117730989Y-131262356D01*
X117800147Y-131252412D01*
X117820820Y-131257220D01*
X117855458Y-131268475D01*
X117855461Y-131268475D01*
X117855466Y-131268477D01*
X118057648Y-131300500D01*
X118057649Y-131300500D01*
X118262351Y-131300500D01*
X118262352Y-131300500D01*
X118464534Y-131268477D01*
X118659219Y-131205220D01*
X118841610Y-131112287D01*
X118955416Y-131029603D01*
X119007213Y-130991971D01*
X119007215Y-130991968D01*
X119007219Y-130991966D01*
X119151966Y-130847219D01*
X119151968Y-130847215D01*
X119151971Y-130847213D01*
X119204732Y-130774590D01*
X119272287Y-130681610D01*
X119365220Y-130499219D01*
X119428477Y-130304534D01*
X119460500Y-130102352D01*
X119460500Y-129897648D01*
X119431279Y-129713155D01*
X119428477Y-129695465D01*
X119392484Y-129584692D01*
X119365220Y-129500781D01*
X119365218Y-129500778D01*
X119365218Y-129500776D01*
X119320402Y-129412821D01*
X119272287Y-129318390D01*
X119264556Y-129307749D01*
X119151971Y-129152786D01*
X119046265Y-129047080D01*
X119012780Y-128985757D01*
X119017764Y-128916065D01*
X119046302Y-128871680D01*
X119685614Y-128232936D01*
X119685733Y-128232858D01*
X119729840Y-128188750D01*
X119772680Y-128145949D01*
X119772683Y-128145943D01*
X119772849Y-128145741D01*
X119772858Y-128145733D01*
X119807520Y-128093858D01*
X119807520Y-128093857D01*
X119807524Y-128093859D01*
X119807541Y-128093825D01*
X119841180Y-128043531D01*
X119841185Y-128043517D01*
X119841304Y-128043295D01*
X119841311Y-128043286D01*
X119864915Y-127986299D01*
X119888382Y-127929718D01*
X119888383Y-127929711D01*
X119888461Y-127929457D01*
X119888461Y-127929456D01*
X119888463Y-127929452D01*
X119900383Y-127869520D01*
X119900383Y-127869519D01*
X119900394Y-127869521D01*
X119900394Y-127869464D01*
X119912473Y-127808884D01*
X119912473Y-127808741D01*
X119912500Y-127808606D01*
X119912500Y-127748397D01*
X119912528Y-127685671D01*
X119912527Y-127685668D01*
X119912530Y-127679989D01*
X119912500Y-127679353D01*
X119912500Y-112314470D01*
X119912528Y-112314329D01*
X119912500Y-112251602D01*
X119912500Y-112191394D01*
X119912498Y-112191386D01*
X119912473Y-112191134D01*
X119912473Y-112191116D01*
X119900394Y-112130534D01*
X119900399Y-112130475D01*
X119900383Y-112130479D01*
X119888463Y-112070548D01*
X119888461Y-112070544D01*
X119888384Y-112070287D01*
X119864915Y-112013698D01*
X119864915Y-112013697D01*
X119864893Y-112013647D01*
X119842360Y-111959247D01*
X119841311Y-111956714D01*
X119841233Y-111956598D01*
X119841180Y-111956469D01*
X119807430Y-111906007D01*
X119799215Y-111893713D01*
X119772857Y-111854266D01*
X119772685Y-111854056D01*
X119729840Y-111811249D01*
X119685733Y-111767142D01*
X119685614Y-111767063D01*
X119399883Y-111481585D01*
X119046305Y-111128320D01*
X119012792Y-111067012D01*
X119017746Y-110997318D01*
X119046266Y-110952919D01*
X119091703Y-110907482D01*
X119151966Y-110847219D01*
X119151968Y-110847215D01*
X119151971Y-110847213D01*
X119216211Y-110758793D01*
X119272287Y-110681610D01*
X119365220Y-110499219D01*
X119428477Y-110304534D01*
X119460500Y-110102352D01*
X119460500Y-109897648D01*
X119429117Y-109699508D01*
X119428477Y-109695465D01*
X119382451Y-109553814D01*
X119365220Y-109500781D01*
X119365218Y-109500778D01*
X119365218Y-109500776D01*
X119308826Y-109390102D01*
X119272287Y-109318390D01*
X119264556Y-109307749D01*
X119151971Y-109152786D01*
X119007213Y-109008028D01*
X118841613Y-108887715D01*
X118841612Y-108887714D01*
X118841610Y-108887713D01*
X118784653Y-108858691D01*
X118659223Y-108794781D01*
X118464534Y-108731522D01*
X118289995Y-108703878D01*
X118262352Y-108699500D01*
X118057648Y-108699500D01*
X118033329Y-108703351D01*
X117855465Y-108731522D01*
X117660776Y-108794781D01*
X117478386Y-108887715D01*
X117312786Y-109008028D01*
X117168028Y-109152786D01*
X117047715Y-109318386D01*
X116954781Y-109500776D01*
X116891522Y-109695465D01*
X116859500Y-109897648D01*
X116859500Y-110102351D01*
X116891522Y-110304534D01*
X116954781Y-110499223D01*
X116983094Y-110554789D01*
X117029714Y-110646286D01*
X117047715Y-110681613D01*
X117168028Y-110847213D01*
X117168034Y-110847219D01*
X117312781Y-110991966D01*
X117478390Y-111112287D01*
X117478395Y-111112290D01*
X117478721Y-111112489D01*
X117478820Y-111112598D01*
X117482332Y-111115150D01*
X117481796Y-111115887D01*
X117500865Y-111136963D01*
X117523785Y-111160696D01*
X117524711Y-111163319D01*
X117525598Y-111164299D01*
X117535541Y-111193972D01*
X117546277Y-111247820D01*
X117546616Y-111249519D01*
X117546615Y-111249525D01*
X117546624Y-111249564D01*
X117558537Y-111309452D01*
X117558540Y-111309465D01*
X117558613Y-111309707D01*
X117580423Y-111362294D01*
X117582251Y-111366702D01*
X117605689Y-111423286D01*
X117605765Y-111423400D01*
X117605820Y-111423532D01*
X117639916Y-111474510D01*
X117639917Y-111474511D01*
X117639947Y-111474557D01*
X117674144Y-111525736D01*
X117674311Y-111525940D01*
X117717119Y-111568710D01*
X117717159Y-111568750D01*
X117765292Y-111616884D01*
X117765758Y-111617306D01*
X118521307Y-112372184D01*
X118625142Y-112475926D01*
X118658654Y-112537234D01*
X118661500Y-112563646D01*
X118661500Y-113624849D01*
X118641815Y-113691888D01*
X118589011Y-113737643D01*
X118519853Y-113747587D01*
X118499182Y-113742780D01*
X118464537Y-113731523D01*
X118302810Y-113705908D01*
X118262352Y-113699500D01*
X118057648Y-113699500D01*
X118033329Y-113703351D01*
X117855465Y-113731522D01*
X117660776Y-113794781D01*
X117478386Y-113887715D01*
X117312786Y-114008028D01*
X117168028Y-114152786D01*
X117047715Y-114318386D01*
X116954781Y-114500776D01*
X116891522Y-114695465D01*
X116859500Y-114897648D01*
X116859500Y-115102351D01*
X116891522Y-115304534D01*
X116954781Y-115499223D01*
X116990900Y-115570109D01*
X117047712Y-115681609D01*
X117047715Y-115681613D01*
X117168028Y-115847213D01*
X117273733Y-115952918D01*
X117307218Y-116014241D01*
X117302234Y-116083933D01*
X117273694Y-116128319D01*
X116638628Y-116762822D01*
X116634382Y-116767063D01*
X116634267Y-116767142D01*
X116590328Y-116811079D01*
X116590323Y-116811085D01*
X116590119Y-116811289D01*
X116547308Y-116854062D01*
X116547151Y-116854253D01*
X116547142Y-116854267D01*
X116512916Y-116905489D01*
X116502884Y-116920489D01*
X116478818Y-116956470D01*
X116478695Y-116956699D01*
X116455251Y-117013297D01*
X116455231Y-117013345D01*
X116431613Y-117070295D01*
X116431539Y-117070534D01*
X116419626Y-117130426D01*
X116419616Y-117130479D01*
X116407525Y-117191125D01*
X116407500Y-117191370D01*
X116407500Y-117251658D01*
X116407469Y-117320055D01*
X116407500Y-117320684D01*
X116407500Y-120540782D01*
X116387815Y-120607821D01*
X116335011Y-120653576D01*
X116265853Y-120663520D01*
X116236048Y-120655344D01*
X116175497Y-120630263D01*
X116175492Y-120630262D01*
X116175489Y-120630261D01*
X116020845Y-120599500D01*
X116020842Y-120599500D01*
X115863158Y-120599500D01*
X115863155Y-120599500D01*
X115708510Y-120630261D01*
X115708498Y-120630264D01*
X115562827Y-120690602D01*
X115562814Y-120690609D01*
X115431711Y-120778210D01*
X115431707Y-120778213D01*
X115320213Y-120889707D01*
X115320210Y-120889711D01*
X115232609Y-121020814D01*
X115232602Y-121020827D01*
X115172264Y-121166498D01*
X115172261Y-121166510D01*
X115141500Y-121321153D01*
X112625500Y-121321153D01*
X112625500Y-120065393D01*
X112625499Y-120065389D01*
X112621751Y-120046548D01*
X112601463Y-119944548D01*
X112554311Y-119830714D01*
X112554310Y-119830713D01*
X112554307Y-119830707D01*
X112485858Y-119728267D01*
X112485855Y-119728263D01*
X112395637Y-119638045D01*
X112395606Y-119638016D01*
X109120103Y-116362513D01*
X109086618Y-116301190D01*
X109091602Y-116231498D01*
X109133471Y-116175567D01*
X109157546Y-116157546D01*
X109243796Y-116042331D01*
X109294091Y-115907483D01*
X109300500Y-115847873D01*
X109300499Y-114152128D01*
X109294091Y-114092517D01*
X109274503Y-114040000D01*
X109243797Y-113957671D01*
X109243793Y-113957664D01*
X109157547Y-113842455D01*
X109157544Y-113842452D01*
X109042335Y-113756206D01*
X109042328Y-113756202D01*
X108907482Y-113705908D01*
X108907483Y-113705908D01*
X108847883Y-113699501D01*
X108847881Y-113699500D01*
X108847873Y-113699500D01*
X108847865Y-113699500D01*
X107622500Y-113699500D01*
X107555461Y-113679815D01*
X107509706Y-113627011D01*
X107498500Y-113575500D01*
X107498500Y-112563647D01*
X107518185Y-112496608D01*
X107534858Y-112475927D01*
X107638698Y-112372179D01*
X108398614Y-111612936D01*
X108398733Y-111612858D01*
X108442840Y-111568750D01*
X108485680Y-111525949D01*
X108485683Y-111525943D01*
X108485851Y-111525739D01*
X108485858Y-111525733D01*
X108520430Y-111473992D01*
X108554180Y-111423531D01*
X108554182Y-111423525D01*
X108554184Y-111423523D01*
X108554306Y-111423294D01*
X108554306Y-111423292D01*
X108554311Y-111423286D01*
X108573464Y-111377044D01*
X108617306Y-111322642D01*
X108683600Y-111300578D01*
X108688025Y-111300499D01*
X108847871Y-111300499D01*
X108847872Y-111300499D01*
X108907483Y-111294091D01*
X109042331Y-111243796D01*
X109157546Y-111157546D01*
X109243796Y-111042331D01*
X109294091Y-110907483D01*
X109300500Y-110847873D01*
X109300499Y-109152128D01*
X109294091Y-109092517D01*
X109293930Y-109092086D01*
X109243797Y-108957671D01*
X109243793Y-108957664D01*
X109157547Y-108842455D01*
X109157544Y-108842452D01*
X109042335Y-108756206D01*
X109042328Y-108756202D01*
X108907482Y-108705908D01*
X108907483Y-108705908D01*
X108847883Y-108699501D01*
X108847881Y-108699500D01*
X108847873Y-108699500D01*
X108847864Y-108699500D01*
X107152129Y-108699500D01*
X107152123Y-108699501D01*
X107092516Y-108705908D01*
X106957671Y-108756202D01*
X106957664Y-108756206D01*
X106842455Y-108842452D01*
X106842452Y-108842455D01*
X106756206Y-108957664D01*
X106756202Y-108957671D01*
X106705908Y-109092517D01*
X106701610Y-109132500D01*
X106699501Y-109152123D01*
X106699500Y-109152135D01*
X106699500Y-110847870D01*
X106699501Y-110847874D01*
X106705908Y-110907483D01*
X106756202Y-111042328D01*
X106756206Y-111042335D01*
X106842452Y-111157544D01*
X106842453Y-111157545D01*
X106842454Y-111157546D01*
X106846258Y-111160394D01*
X106866180Y-111175307D01*
X106908052Y-111231240D01*
X106913036Y-111300932D01*
X106879551Y-111362255D01*
X106879512Y-111362294D01*
X106478628Y-111762822D01*
X106474382Y-111767063D01*
X106474267Y-111767142D01*
X106430200Y-111811207D01*
X106430198Y-111811210D01*
X106430119Y-111811289D01*
X106387308Y-111854062D01*
X106387151Y-111854253D01*
X106387142Y-111854267D01*
X106352916Y-111905489D01*
X106339613Y-111925379D01*
X106318818Y-111956470D01*
X106318697Y-111956696D01*
X106318690Y-111956711D01*
X106318689Y-111956714D01*
X106317640Y-111959247D01*
X106295251Y-112013297D01*
X106295231Y-112013345D01*
X106271613Y-112070295D01*
X106271539Y-112070534D01*
X106259626Y-112130426D01*
X106259616Y-112130479D01*
X106247525Y-112191125D01*
X106247500Y-112191370D01*
X106247500Y-112251658D01*
X106247469Y-112320055D01*
X106247500Y-112320684D01*
X106247500Y-148586639D01*
X106247261Y-148587866D01*
X106247500Y-148648333D01*
X106247500Y-148708671D01*
X106247611Y-148709751D01*
X106247746Y-148711072D01*
X106250348Y-148723886D01*
X106244395Y-148793502D01*
X106201751Y-148848848D01*
X106201712Y-148848876D01*
X106153299Y-148884050D01*
X106087493Y-148907530D01*
X106019439Y-148891704D01*
X105992733Y-148871413D01*
X105977186Y-148855866D01*
X105786171Y-148717085D01*
X105575802Y-148609897D01*
X105351247Y-148536934D01*
X105351248Y-148536934D01*
X105118052Y-148500000D01*
X104750000Y-148500000D01*
X104750000Y-149291759D01*
X104718767Y-149278822D01*
X104573869Y-149250000D01*
X104426131Y-149250000D01*
X104281233Y-149278822D01*
X104250000Y-149291759D01*
X104250000Y-148500000D01*
X103881948Y-148500000D01*
X103648752Y-148536934D01*
X103424197Y-148609897D01*
X103213828Y-148717085D01*
X103022813Y-148855866D01*
X102855866Y-149022813D01*
X102717085Y-149213828D01*
X102609897Y-149424197D01*
X102536934Y-149648752D01*
X102520898Y-149750000D01*
X100300500Y-149750000D01*
X100300500Y-107750000D01*
X113520898Y-107750000D01*
X114566988Y-107750000D01*
X114534075Y-107807007D01*
X114500000Y-107934174D01*
X114500000Y-108065826D01*
X114534075Y-108192993D01*
X114566988Y-108250000D01*
X113520898Y-108250000D01*
X113536934Y-108351247D01*
X113609897Y-108575802D01*
X113717085Y-108786171D01*
X113855866Y-108977186D01*
X114022813Y-109144133D01*
X114213828Y-109282914D01*
X114424195Y-109390102D01*
X114648744Y-109463063D01*
X114648750Y-109463065D01*
X114750000Y-109479101D01*
X114750000Y-108433012D01*
X114807007Y-108465925D01*
X114934174Y-108500000D01*
X115065826Y-108500000D01*
X115192993Y-108465925D01*
X115250000Y-108433012D01*
X115250000Y-109479100D01*
X115351249Y-109463065D01*
X115351255Y-109463063D01*
X115575804Y-109390102D01*
X115786171Y-109282914D01*
X115977186Y-109144133D01*
X116144133Y-108977186D01*
X116282914Y-108786171D01*
X116390102Y-108575802D01*
X116463065Y-108351247D01*
X116479102Y-108250000D01*
X115433012Y-108250000D01*
X115465925Y-108192993D01*
X115500000Y-108065826D01*
X115500000Y-107934174D01*
X115465925Y-107807007D01*
X115433012Y-107750000D01*
X116479102Y-107750000D01*
X116463065Y-107648752D01*
X116390102Y-107424197D01*
X116282914Y-107213828D01*
X116252333Y-107171737D01*
X116252332Y-107171735D01*
X116144138Y-107022819D01*
X116144133Y-107022813D01*
X115977186Y-106855866D01*
X115786171Y-106717085D01*
X115575802Y-106609897D01*
X115351247Y-106536934D01*
X115250000Y-106520897D01*
X115250000Y-107566988D01*
X115192993Y-107534075D01*
X115065826Y-107500000D01*
X114934174Y-107500000D01*
X114807007Y-107534075D01*
X114750000Y-107566988D01*
X114750000Y-106520897D01*
X114648752Y-106536934D01*
X114424197Y-106609897D01*
X114213828Y-106717085D01*
X114022813Y-106855866D01*
X113855866Y-107022813D01*
X113717085Y-107213828D01*
X113609897Y-107424197D01*
X113536934Y-107648752D01*
X113520898Y-107750000D01*
X100300500Y-107750000D01*
X100300500Y-105550318D01*
X100320185Y-105483279D01*
X100372989Y-105437524D01*
X100442147Y-105427580D01*
X100505703Y-105456605D01*
X100512181Y-105462637D01*
X100646367Y-105596823D01*
X100646372Y-105596827D01*
X100646373Y-105596828D01*
X100912240Y-105815019D01*
X101198213Y-106006100D01*
X101198222Y-106006105D01*
X101198224Y-106006106D01*
X101501530Y-106168227D01*
X101501532Y-106168227D01*
X101501538Y-106168231D01*
X101819295Y-106299850D01*
X102148422Y-106399690D01*
X102485750Y-106466789D01*
X102828031Y-106500500D01*
X102828034Y-106500500D01*
X103171966Y-106500500D01*
X103171969Y-106500500D01*
X103514250Y-106466789D01*
X103851578Y-106399690D01*
X104180705Y-106299850D01*
X104498462Y-106168231D01*
X104801787Y-106006100D01*
X105087760Y-105815019D01*
X105353627Y-105596828D01*
X105596828Y-105353627D01*
X105815019Y-105087760D01*
X106006100Y-104801787D01*
X106168231Y-104498462D01*
X106299850Y-104180705D01*
X106399690Y-103851578D01*
X106466789Y-103514250D01*
X106500500Y-103171969D01*
X106500500Y-102828031D01*
X106466789Y-102485750D01*
X106399690Y-102148422D01*
X106340147Y-101952135D01*
X110499500Y-101952135D01*
X110499500Y-104047870D01*
X110499501Y-104047876D01*
X110505908Y-104107483D01*
X110556202Y-104242328D01*
X110556206Y-104242335D01*
X110642452Y-104357544D01*
X110642455Y-104357547D01*
X110757664Y-104443793D01*
X110757671Y-104443797D01*
X110892517Y-104494091D01*
X110892516Y-104494091D01*
X110899444Y-104494835D01*
X110952127Y-104500500D01*
X113047872Y-104500499D01*
X113107483Y-104494091D01*
X113242331Y-104443796D01*
X113357546Y-104357546D01*
X113443796Y-104242331D01*
X113494091Y-104107483D01*
X113500500Y-104047873D01*
X113500499Y-102881902D01*
X116499500Y-102881902D01*
X116499500Y-103118097D01*
X116536446Y-103351368D01*
X116609433Y-103575996D01*
X116663114Y-103681349D01*
X116716657Y-103786433D01*
X116855483Y-103977510D01*
X117022490Y-104144517D01*
X117213567Y-104283343D01*
X117247236Y-104300498D01*
X117424003Y-104390566D01*
X117424005Y-104390566D01*
X117424008Y-104390568D01*
X117544412Y-104429689D01*
X117648631Y-104463553D01*
X117881903Y-104500500D01*
X117881908Y-104500500D01*
X118118097Y-104500500D01*
X118351368Y-104463553D01*
X118575992Y-104390568D01*
X118786433Y-104283343D01*
X118977510Y-104144517D01*
X119144517Y-103977510D01*
X119283343Y-103786433D01*
X119390568Y-103575992D01*
X119463553Y-103351368D01*
X119500500Y-103118097D01*
X119500500Y-102881902D01*
X119463553Y-102648631D01*
X119429689Y-102544412D01*
X119390568Y-102424008D01*
X119390566Y-102424005D01*
X119390566Y-102424003D01*
X119283342Y-102213566D01*
X119238710Y-102152135D01*
X123699500Y-102152135D01*
X123699500Y-103847870D01*
X123699501Y-103847876D01*
X123705908Y-103907483D01*
X123756202Y-104042328D01*
X123756206Y-104042335D01*
X123842452Y-104157544D01*
X123842455Y-104157547D01*
X123957664Y-104243793D01*
X123957671Y-104243797D01*
X124092517Y-104294091D01*
X124092516Y-104294091D01*
X124099444Y-104294835D01*
X124152127Y-104300500D01*
X125847872Y-104300499D01*
X125907483Y-104294091D01*
X126042331Y-104243796D01*
X126157546Y-104157546D01*
X126164230Y-104148616D01*
X126220159Y-104106746D01*
X126289851Y-104101759D01*
X126319792Y-104112441D01*
X126500968Y-104204755D01*
X126695578Y-104267988D01*
X126750000Y-104276607D01*
X126750000Y-103315686D01*
X126754394Y-103320080D01*
X126845606Y-103372741D01*
X126947339Y-103400000D01*
X127052661Y-103400000D01*
X127154394Y-103372741D01*
X127245606Y-103320080D01*
X127250000Y-103315686D01*
X127250000Y-104276606D01*
X127304421Y-104267988D01*
X127499031Y-104204754D01*
X127681349Y-104111859D01*
X127846894Y-103991582D01*
X127846895Y-103991582D01*
X127991582Y-103846895D01*
X127991582Y-103846894D01*
X128111859Y-103681349D01*
X128204755Y-103499029D01*
X128267990Y-103304413D01*
X128276609Y-103250000D01*
X127315686Y-103250000D01*
X127320080Y-103245606D01*
X127372741Y-103154394D01*
X127400000Y-103052661D01*
X127400000Y-102947339D01*
X127372741Y-102845606D01*
X127320080Y-102754394D01*
X127315686Y-102750000D01*
X128276609Y-102750000D01*
X128267990Y-102695586D01*
X128204755Y-102500970D01*
X128111859Y-102318650D01*
X127991582Y-102153105D01*
X127991582Y-102153104D01*
X127846895Y-102008417D01*
X127681349Y-101888140D01*
X127499029Y-101795244D01*
X127304413Y-101732009D01*
X127250000Y-101723390D01*
X127250000Y-102684314D01*
X127245606Y-102679920D01*
X127154394Y-102627259D01*
X127052661Y-102600000D01*
X126947339Y-102600000D01*
X126845606Y-102627259D01*
X126754394Y-102679920D01*
X126750000Y-102684314D01*
X126750000Y-101723390D01*
X126695586Y-101732009D01*
X126500967Y-101795245D01*
X126319791Y-101887558D01*
X126251122Y-101900454D01*
X126186382Y-101874177D01*
X126164234Y-101851388D01*
X126157546Y-101842454D01*
X126126607Y-101819293D01*
X126042335Y-101756206D01*
X126042328Y-101756202D01*
X125907482Y-101705908D01*
X125907483Y-101705908D01*
X125847883Y-101699501D01*
X125847881Y-101699500D01*
X125847873Y-101699500D01*
X125847864Y-101699500D01*
X124152129Y-101699500D01*
X124152123Y-101699501D01*
X124092516Y-101705908D01*
X123957671Y-101756202D01*
X123957664Y-101756206D01*
X123842455Y-101842452D01*
X123842452Y-101842455D01*
X123756206Y-101957664D01*
X123756202Y-101957671D01*
X123705908Y-102092517D01*
X123699501Y-102152116D01*
X123699500Y-102152135D01*
X119238710Y-102152135D01*
X119144517Y-102022490D01*
X118977510Y-101855483D01*
X118786433Y-101716657D01*
X118765337Y-101705908D01*
X118575996Y-101609433D01*
X118351368Y-101536446D01*
X118118097Y-101499500D01*
X118118092Y-101499500D01*
X117881908Y-101499500D01*
X117881903Y-101499500D01*
X117648631Y-101536446D01*
X117424003Y-101609433D01*
X117213566Y-101716657D01*
X117157119Y-101757669D01*
X117022490Y-101855483D01*
X117022488Y-101855485D01*
X117022487Y-101855485D01*
X116855485Y-102022487D01*
X116855485Y-102022488D01*
X116855483Y-102022490D01*
X116804605Y-102092517D01*
X116716657Y-102213566D01*
X116609433Y-102424003D01*
X116536446Y-102648631D01*
X116499500Y-102881902D01*
X113500499Y-102881902D01*
X113500499Y-101952128D01*
X113494091Y-101892517D01*
X113492458Y-101888140D01*
X113443797Y-101757671D01*
X113443793Y-101757664D01*
X113357547Y-101642455D01*
X113357544Y-101642452D01*
X113242335Y-101556206D01*
X113242328Y-101556202D01*
X113107482Y-101505908D01*
X113107483Y-101505908D01*
X113047883Y-101499501D01*
X113047881Y-101499500D01*
X113047873Y-101499500D01*
X113047864Y-101499500D01*
X110952129Y-101499500D01*
X110952123Y-101499501D01*
X110892516Y-101505908D01*
X110757671Y-101556202D01*
X110757664Y-101556206D01*
X110642455Y-101642452D01*
X110642452Y-101642455D01*
X110556206Y-101757664D01*
X110556202Y-101757671D01*
X110505908Y-101892517D01*
X110499501Y-101952116D01*
X110499501Y-101952123D01*
X110499500Y-101952135D01*
X106340147Y-101952135D01*
X106299850Y-101819295D01*
X106168231Y-101501538D01*
X106006100Y-101198213D01*
X105815019Y-100912240D01*
X105596828Y-100646373D01*
X105596827Y-100646372D01*
X105596823Y-100646367D01*
X105462637Y-100512181D01*
X105429152Y-100450858D01*
X105434136Y-100381166D01*
X105476008Y-100325233D01*
X105541472Y-100300816D01*
X105550318Y-100300500D01*
X164449682Y-100300500D01*
X164470927Y-100306738D01*
G37*
%TD.AperFunction*%
%TA.AperFunction,Conductor*%
G36*
X164193039Y-148108185D02*
G01*
X164238794Y-148160989D01*
X164248628Y-148206196D01*
X164192993Y-148174075D01*
X164065826Y-148140000D01*
X163934174Y-148140000D01*
X163807007Y-148174075D01*
X163751948Y-148205862D01*
X163769685Y-148145461D01*
X163822489Y-148099706D01*
X163874000Y-148088500D01*
X164126000Y-148088500D01*
X164193039Y-148108185D01*
G37*
%TD.AperFunction*%
%TA.AperFunction,Conductor*%
G36*
X164250000Y-146713500D02*
G01*
X164247449Y-146722185D01*
X164248738Y-146731147D01*
X164237759Y-146755187D01*
X164230315Y-146780539D01*
X164223474Y-146786466D01*
X164219713Y-146794703D01*
X164197478Y-146808992D01*
X164177511Y-146826294D01*
X164166996Y-146828581D01*
X164160935Y-146832477D01*
X164126000Y-146837500D01*
X163939452Y-146837500D01*
X163872413Y-146817815D01*
X163851771Y-146801181D01*
X163786319Y-146735729D01*
X163752834Y-146674406D01*
X163750000Y-146648048D01*
X163750000Y-146533012D01*
X163807007Y-146565925D01*
X163934174Y-146600000D01*
X164065826Y-146600000D01*
X164192993Y-146565925D01*
X164250000Y-146533012D01*
X164250000Y-146713500D01*
G37*
%TD.AperFunction*%
%TA.AperFunction,Conductor*%
G36*
X164250000Y-145666988D02*
G01*
X164192993Y-145634075D01*
X164065826Y-145600000D01*
X163934174Y-145600000D01*
X163807007Y-145634075D01*
X163750000Y-145666988D01*
X163750000Y-143993012D01*
X163807007Y-144025925D01*
X163934174Y-144060000D01*
X164065826Y-144060000D01*
X164192993Y-144025925D01*
X164250000Y-143993012D01*
X164250000Y-145666988D01*
G37*
%TD.AperFunction*%
%TA.AperFunction,Conductor*%
G36*
X158990703Y-138559739D02*
G01*
X158997181Y-138565771D01*
X162955004Y-142523594D01*
X162988489Y-142584917D01*
X162983505Y-142654609D01*
X162967642Y-142684160D01*
X162845376Y-142852446D01*
X162748904Y-143041782D01*
X162683242Y-143243870D01*
X162683242Y-143243873D01*
X162672769Y-143310000D01*
X163566988Y-143310000D01*
X163534075Y-143367007D01*
X163500000Y-143494174D01*
X163500000Y-143625826D01*
X163534075Y-143752993D01*
X163566988Y-143810000D01*
X162672769Y-143810000D01*
X162683242Y-143876126D01*
X162683242Y-143876129D01*
X162748904Y-144078217D01*
X162845379Y-144267557D01*
X162970272Y-144439459D01*
X162970276Y-144439464D01*
X163120535Y-144589723D01*
X163120540Y-144589727D01*
X163292444Y-144714622D01*
X163302048Y-144719516D01*
X163352844Y-144767491D01*
X163369638Y-144835312D01*
X163347100Y-144901447D01*
X163302048Y-144940484D01*
X163292444Y-144945377D01*
X163120540Y-145070272D01*
X163120535Y-145070276D01*
X162970276Y-145220535D01*
X162970272Y-145220540D01*
X162845377Y-145392444D01*
X162787052Y-145506912D01*
X162739078Y-145557707D01*
X162671256Y-145574502D01*
X162605122Y-145551964D01*
X162588887Y-145538297D01*
X158821819Y-141771229D01*
X158788334Y-141709906D01*
X158785500Y-141683548D01*
X158785500Y-138653452D01*
X158805185Y-138586413D01*
X158857989Y-138540658D01*
X158927147Y-138530714D01*
X158990703Y-138559739D01*
G37*
%TD.AperFunction*%
%TA.AperFunction,Conductor*%
G36*
X164193039Y-143028185D02*
G01*
X164238794Y-143080989D01*
X164248628Y-143126196D01*
X164192993Y-143094075D01*
X164065826Y-143060000D01*
X163934174Y-143060000D01*
X163807007Y-143094075D01*
X163751948Y-143125862D01*
X163769685Y-143065461D01*
X163822489Y-143019706D01*
X163874000Y-143008500D01*
X164126000Y-143008500D01*
X164193039Y-143028185D01*
G37*
%TD.AperFunction*%
%TA.AperFunction,Conductor*%
G36*
X164250000Y-141633500D02*
G01*
X164247449Y-141642185D01*
X164248738Y-141651147D01*
X164237759Y-141675187D01*
X164230315Y-141700539D01*
X164223474Y-141706466D01*
X164219713Y-141714703D01*
X164197478Y-141728992D01*
X164177511Y-141746294D01*
X164166996Y-141748581D01*
X164160935Y-141752477D01*
X164126000Y-141757500D01*
X164009452Y-141757500D01*
X163942413Y-141737815D01*
X163921771Y-141721181D01*
X163786319Y-141585729D01*
X163752834Y-141524406D01*
X163750000Y-141498048D01*
X163750000Y-141453012D01*
X163807007Y-141485925D01*
X163934174Y-141520000D01*
X164065826Y-141520000D01*
X164192993Y-141485925D01*
X164250000Y-141453012D01*
X164250000Y-141633500D01*
G37*
%TD.AperFunction*%
%TA.AperFunction,Conductor*%
G36*
X164193039Y-140302185D02*
G01*
X164238794Y-140354989D01*
X164250000Y-140406500D01*
X164250000Y-140586988D01*
X164192993Y-140554075D01*
X164065826Y-140520000D01*
X163934174Y-140520000D01*
X163807007Y-140554075D01*
X163750000Y-140586988D01*
X163750000Y-140406500D01*
X163769685Y-140339461D01*
X163822489Y-140293706D01*
X163874000Y-140282500D01*
X164126000Y-140282500D01*
X164193039Y-140302185D01*
G37*
%TD.AperFunction*%
%TA.AperFunction,Conductor*%
G36*
X157849703Y-121701739D02*
G01*
X157856181Y-121707771D01*
X161769181Y-125620771D01*
X161802666Y-125682094D01*
X161805500Y-125708452D01*
X161805500Y-131029606D01*
X161829537Y-131150452D01*
X161835542Y-131164949D01*
X161876688Y-131264286D01*
X161900886Y-131300500D01*
X161905514Y-131307426D01*
X161945141Y-131366732D01*
X161945144Y-131366736D01*
X162036586Y-131458178D01*
X162036608Y-131458198D01*
X162949534Y-132371124D01*
X162983019Y-132432447D01*
X162978035Y-132502139D01*
X162962172Y-132531690D01*
X162845376Y-132692446D01*
X162748904Y-132881782D01*
X162683242Y-133083870D01*
X162683242Y-133083873D01*
X162672769Y-133150000D01*
X163566988Y-133150000D01*
X163534075Y-133207007D01*
X163500000Y-133334174D01*
X163500000Y-133465826D01*
X163534075Y-133592993D01*
X163566988Y-133650000D01*
X162672769Y-133650000D01*
X162683242Y-133716126D01*
X162683242Y-133716129D01*
X162748904Y-133918217D01*
X162845379Y-134107557D01*
X162970272Y-134279459D01*
X162970276Y-134279464D01*
X163120535Y-134429723D01*
X163120540Y-134429727D01*
X163292444Y-134554622D01*
X163302048Y-134559516D01*
X163352844Y-134607491D01*
X163369638Y-134675312D01*
X163347100Y-134741447D01*
X163302048Y-134780484D01*
X163292444Y-134785377D01*
X163120540Y-134910272D01*
X163120535Y-134910276D01*
X162970276Y-135060535D01*
X162970272Y-135060540D01*
X162845379Y-135232442D01*
X162748904Y-135421782D01*
X162683242Y-135623870D01*
X162683242Y-135623873D01*
X162672769Y-135690000D01*
X163566988Y-135690000D01*
X163534075Y-135747007D01*
X163500000Y-135874174D01*
X163500000Y-136005826D01*
X163534075Y-136132993D01*
X163566988Y-136190000D01*
X162672769Y-136190000D01*
X162683242Y-136256126D01*
X162683242Y-136256129D01*
X162748904Y-136458217D01*
X162845379Y-136647557D01*
X162967220Y-136815259D01*
X162990700Y-136881066D01*
X162974874Y-136949119D01*
X162954583Y-136975825D01*
X162682393Y-137248016D01*
X162424270Y-137506139D01*
X162424267Y-137506142D01*
X162399580Y-137530829D01*
X162337142Y-137593266D01*
X162318272Y-137621507D01*
X162318266Y-137621516D01*
X162315605Y-137625500D01*
X162268688Y-137695714D01*
X162249309Y-137742500D01*
X162246481Y-137749326D01*
X162246480Y-137749329D01*
X162221538Y-137809545D01*
X162221535Y-137809554D01*
X162215038Y-137842217D01*
X162215039Y-137842218D01*
X162199677Y-137919451D01*
X162197500Y-137930394D01*
X162197500Y-138906393D01*
X162197500Y-139029607D01*
X162199723Y-139040781D01*
X162221537Y-139150452D01*
X162222502Y-139152781D01*
X162226683Y-139162875D01*
X162226684Y-139162879D01*
X162268685Y-139264281D01*
X162268687Y-139264284D01*
X162294033Y-139302216D01*
X162294034Y-139302218D01*
X162337141Y-139366732D01*
X162337144Y-139366736D01*
X162428586Y-139458178D01*
X162428608Y-139458198D01*
X162954584Y-139984174D01*
X162988069Y-140045497D01*
X162983085Y-140115189D01*
X162967221Y-140144740D01*
X162845377Y-140312444D01*
X162810680Y-140380540D01*
X162762705Y-140431336D01*
X162694884Y-140448130D01*
X162628749Y-140425592D01*
X162612515Y-140411925D01*
X159948819Y-137748229D01*
X159915334Y-137686906D01*
X159912500Y-137660548D01*
X159912500Y-127314470D01*
X159912528Y-127314329D01*
X159912500Y-127251602D01*
X159912500Y-127191394D01*
X159912498Y-127191386D01*
X159912473Y-127191134D01*
X159912473Y-127191116D01*
X159900394Y-127130534D01*
X159900399Y-127130475D01*
X159900383Y-127130479D01*
X159888463Y-127070548D01*
X159888461Y-127070544D01*
X159888384Y-127070287D01*
X159864915Y-127013698D01*
X159864915Y-127013697D01*
X159864893Y-127013647D01*
X159842360Y-126959247D01*
X159841311Y-126956714D01*
X159841233Y-126956598D01*
X159841180Y-126956469D01*
X159807430Y-126906007D01*
X159772858Y-126854267D01*
X159772857Y-126854266D01*
X159772685Y-126854056D01*
X159729840Y-126811249D01*
X159685733Y-126767142D01*
X159685614Y-126767063D01*
X159510141Y-126591745D01*
X159046305Y-126128320D01*
X159012792Y-126067012D01*
X159017746Y-125997318D01*
X159046266Y-125952919D01*
X159091702Y-125907483D01*
X159151966Y-125847219D01*
X159151968Y-125847215D01*
X159151971Y-125847213D01*
X159204732Y-125774590D01*
X159272287Y-125681610D01*
X159365220Y-125499219D01*
X159428477Y-125304534D01*
X159460500Y-125102352D01*
X159460500Y-124897648D01*
X159446030Y-124806287D01*
X159428477Y-124695465D01*
X159368215Y-124510000D01*
X159365220Y-124500781D01*
X159365218Y-124500778D01*
X159365218Y-124500776D01*
X159313622Y-124399514D01*
X159272287Y-124318390D01*
X159237209Y-124270109D01*
X159151971Y-124152786D01*
X159007213Y-124008028D01*
X158841613Y-123887715D01*
X158841612Y-123887714D01*
X158841610Y-123887713D01*
X158784653Y-123858691D01*
X158659223Y-123794781D01*
X158464534Y-123731522D01*
X158289995Y-123703878D01*
X158262352Y-123699500D01*
X158057648Y-123699500D01*
X158017184Y-123705909D01*
X157855464Y-123731523D01*
X157855461Y-123731523D01*
X157806818Y-123747329D01*
X157736977Y-123749324D01*
X157677144Y-123713244D01*
X157646316Y-123650543D01*
X157644500Y-123629398D01*
X157644500Y-121795452D01*
X157664185Y-121728413D01*
X157716989Y-121682658D01*
X157786147Y-121672714D01*
X157849703Y-121701739D01*
G37*
%TD.AperFunction*%
%TA.AperFunction,Conductor*%
G36*
X163807007Y-138945925D02*
G01*
X163934174Y-138980000D01*
X164065826Y-138980000D01*
X164192993Y-138945925D01*
X164248051Y-138914137D01*
X164230315Y-138974539D01*
X164177511Y-139020294D01*
X164126000Y-139031500D01*
X163874000Y-139031500D01*
X163806961Y-139011815D01*
X163761206Y-138959011D01*
X163751371Y-138913803D01*
X163807007Y-138945925D01*
G37*
%TD.AperFunction*%
%TA.AperFunction,Conductor*%
G36*
X164193039Y-137948185D02*
G01*
X164238794Y-138000989D01*
X164248628Y-138046196D01*
X164192993Y-138014075D01*
X164065826Y-137980000D01*
X163934174Y-137980000D01*
X163807007Y-138014075D01*
X163751948Y-138045862D01*
X163769685Y-137985461D01*
X163822489Y-137939706D01*
X163874000Y-137928500D01*
X164126000Y-137928500D01*
X164193039Y-137948185D01*
G37*
%TD.AperFunction*%
%TA.AperFunction,Conductor*%
G36*
X164250000Y-136528352D02*
G01*
X164241345Y-136557826D01*
X164234796Y-136587846D01*
X164231071Y-136592814D01*
X164230315Y-136595391D01*
X164213627Y-136616087D01*
X164188448Y-136641235D01*
X164127104Y-136674682D01*
X164100821Y-136677500D01*
X163874000Y-136677500D01*
X163806961Y-136657815D01*
X163761206Y-136605011D01*
X163750000Y-136553500D01*
X163750000Y-136373012D01*
X163807007Y-136405925D01*
X163934174Y-136440000D01*
X164065826Y-136440000D01*
X164192993Y-136405925D01*
X164250000Y-136373012D01*
X164250000Y-136528352D01*
G37*
%TD.AperFunction*%
%TA.AperFunction,Conductor*%
G36*
X164250000Y-135506988D02*
G01*
X164192993Y-135474075D01*
X164065826Y-135440000D01*
X163934174Y-135440000D01*
X163807007Y-135474075D01*
X163750000Y-135506988D01*
X163750000Y-133833012D01*
X163807007Y-133865925D01*
X163934174Y-133900000D01*
X164065826Y-133900000D01*
X164192993Y-133865925D01*
X164250000Y-133833012D01*
X164250000Y-135506988D01*
G37*
%TD.AperFunction*%
%TA.AperFunction,Conductor*%
G36*
X164193039Y-132775185D02*
G01*
X164238794Y-132827989D01*
X164250000Y-132879500D01*
X164250000Y-132966988D01*
X164192993Y-132934075D01*
X164065826Y-132900000D01*
X163934174Y-132900000D01*
X163807007Y-132934075D01*
X163750000Y-132966988D01*
X163750000Y-132879500D01*
X163769685Y-132812461D01*
X163822489Y-132766706D01*
X163874000Y-132755500D01*
X164126000Y-132755500D01*
X164193039Y-132775185D01*
G37*
%TD.AperFunction*%
%TA.AperFunction,Conductor*%
G36*
X164250000Y-131380500D02*
G01*
X164247449Y-131389185D01*
X164248738Y-131398147D01*
X164237759Y-131422187D01*
X164230315Y-131447539D01*
X164223474Y-131453466D01*
X164219713Y-131461703D01*
X164197478Y-131475992D01*
X164177511Y-131493294D01*
X164166996Y-131495581D01*
X164160935Y-131499477D01*
X164126000Y-131504500D01*
X163903452Y-131504500D01*
X163836413Y-131484815D01*
X163815771Y-131468181D01*
X163786319Y-131438729D01*
X163752834Y-131377406D01*
X163750000Y-131351048D01*
X163750000Y-131293012D01*
X163807007Y-131325925D01*
X163934174Y-131360000D01*
X164065826Y-131360000D01*
X164192993Y-131325925D01*
X164250000Y-131293012D01*
X164250000Y-131380500D01*
G37*
%TD.AperFunction*%
%TA.AperFunction,Conductor*%
G36*
X164250000Y-130426988D02*
G01*
X164192993Y-130394075D01*
X164065826Y-130360000D01*
X163934174Y-130360000D01*
X163807007Y-130394075D01*
X163750000Y-130426988D01*
X163750000Y-128753012D01*
X163807007Y-128785925D01*
X163934174Y-128820000D01*
X164065826Y-128820000D01*
X164192993Y-128785925D01*
X164250000Y-128753012D01*
X164250000Y-130426988D01*
G37*
%TD.AperFunction*%
%TA.AperFunction,Conductor*%
G36*
X164250000Y-127886988D02*
G01*
X164192993Y-127854075D01*
X164065826Y-127820000D01*
X163934174Y-127820000D01*
X163807007Y-127854075D01*
X163750000Y-127886988D01*
X163750000Y-126213012D01*
X163807007Y-126245925D01*
X163934174Y-126280000D01*
X164065826Y-126280000D01*
X164192993Y-126245925D01*
X164250000Y-126213012D01*
X164250000Y-127886988D01*
G37*
%TD.AperFunction*%
%TA.AperFunction,Conductor*%
G36*
X164250000Y-125346988D02*
G01*
X164192993Y-125314075D01*
X164065826Y-125280000D01*
X163934174Y-125280000D01*
X163807007Y-125314075D01*
X163750000Y-125346988D01*
X163750000Y-123673012D01*
X163807007Y-123705925D01*
X163934174Y-123740000D01*
X164065826Y-123740000D01*
X164192993Y-123705925D01*
X164250000Y-123673012D01*
X164250000Y-125346988D01*
G37*
%TD.AperFunction*%
%TA.AperFunction,Conductor*%
G36*
X164250000Y-122806988D02*
G01*
X164192993Y-122774075D01*
X164065826Y-122740000D01*
X163934174Y-122740000D01*
X163807007Y-122774075D01*
X163750000Y-122806988D01*
X163750000Y-121133012D01*
X163807007Y-121165925D01*
X163934174Y-121200000D01*
X164065826Y-121200000D01*
X164192993Y-121165925D01*
X164250000Y-121133012D01*
X164250000Y-122806988D01*
G37*
%TD.AperFunction*%
%TA.AperFunction,Conductor*%
G36*
X164250000Y-120266988D02*
G01*
X164192993Y-120234075D01*
X164065826Y-120200000D01*
X163934174Y-120200000D01*
X163807007Y-120234075D01*
X163750000Y-120266988D01*
X163750000Y-118593012D01*
X163807007Y-118625925D01*
X163934174Y-118660000D01*
X164065826Y-118660000D01*
X164192993Y-118625925D01*
X164250000Y-118593012D01*
X164250000Y-120266988D01*
G37*
%TD.AperFunction*%
%TA.AperFunction,Conductor*%
G36*
X164250000Y-117726988D02*
G01*
X164192993Y-117694075D01*
X164065826Y-117660000D01*
X163934174Y-117660000D01*
X163807007Y-117694075D01*
X163750000Y-117726988D01*
X163750000Y-116053012D01*
X163807007Y-116085925D01*
X163934174Y-116120000D01*
X164065826Y-116120000D01*
X164192993Y-116085925D01*
X164250000Y-116053012D01*
X164250000Y-117726988D01*
G37*
%TD.AperFunction*%
%TA.AperFunction,Conductor*%
G36*
X164250000Y-115186988D02*
G01*
X164192993Y-115154075D01*
X164065826Y-115120000D01*
X163934174Y-115120000D01*
X163807007Y-115154075D01*
X163750000Y-115186988D01*
X163750000Y-113513012D01*
X163807007Y-113545925D01*
X163934174Y-113580000D01*
X164065826Y-113580000D01*
X164192993Y-113545925D01*
X164250000Y-113513012D01*
X164250000Y-115186988D01*
G37*
%TD.AperFunction*%
%TA.AperFunction,Conductor*%
G36*
X164250000Y-112646988D02*
G01*
X164192993Y-112614075D01*
X164065826Y-112580000D01*
X163934174Y-112580000D01*
X163807007Y-112614075D01*
X163750000Y-112646988D01*
X163750000Y-110973012D01*
X163807007Y-111005925D01*
X163934174Y-111040000D01*
X164065826Y-111040000D01*
X164192993Y-111005925D01*
X164250000Y-110973012D01*
X164250000Y-112646988D01*
G37*
%TD.AperFunction*%
%TA.AperFunction,Conductor*%
G36*
X164250000Y-110106988D02*
G01*
X164192993Y-110074075D01*
X164065826Y-110040000D01*
X163934174Y-110040000D01*
X163807007Y-110074075D01*
X163750000Y-110106988D01*
X163750000Y-108433012D01*
X163807007Y-108465925D01*
X163934174Y-108500000D01*
X164065826Y-108500000D01*
X164192993Y-108465925D01*
X164250000Y-108433012D01*
X164250000Y-110106988D01*
G37*
%TD.AperFunction*%
%TD*%
M02*
