%TF.GenerationSoftware,KiCad,Pcbnew,9.0.7*%
%TF.CreationDate,2026-03-09T01:11:43+02:00*%
%TF.ProjectId,64korppu-E,36346b6f-7270-4707-952d-452e6b696361,rev?*%
%TF.SameCoordinates,Original*%
%TF.FileFunction,Copper,L2,Inr*%
%TF.FilePolarity,Positive*%
%FSLAX46Y46*%
G04 Gerber Fmt 4.6, Leading zero omitted, Abs format (unit mm)*
G04 Created by KiCad (PCBNEW 9.0.7) date 2026-03-09 01:11:43*
%MOMM*%
%LPD*%
G01*
G04 APERTURE LIST*
%TA.AperFunction,ComponentPad*%
%ADD10R,2.000000X2.000000*%
%TD*%
%TA.AperFunction,ComponentPad*%
%ADD11O,2.000000X2.000000*%
%TD*%
%TA.AperFunction,ComponentPad*%
%ADD12R,1.600000X1.600000*%
%TD*%
%TA.AperFunction,ComponentPad*%
%ADD13O,1.600000X1.600000*%
%TD*%
%TA.AperFunction,ComponentPad*%
%ADD14R,1.800000X1.800000*%
%TD*%
%TA.AperFunction,ComponentPad*%
%ADD15O,1.800000X1.800000*%
%TD*%
%TA.AperFunction,ComponentPad*%
%ADD16O,3.000000X2.000000*%
%TD*%
%TA.AperFunction,ComponentPad*%
%ADD17R,1.700000X1.700000*%
%TD*%
%TA.AperFunction,ComponentPad*%
%ADD18O,1.700000X1.700000*%
%TD*%
%TA.AperFunction,ComponentPad*%
%ADD19C,6.000000*%
%TD*%
%TA.AperFunction,ViaPad*%
%ADD20C,0.600000*%
%TD*%
%TA.AperFunction,Conductor*%
%ADD21C,0.250000*%
%TD*%
G04 APERTURE END LIST*
D10*
%TO.N,+5V*%
%TO.C,J3*%
X111000000Y-105000000D03*
D11*
X117000000Y-105000000D03*
%TO.N,GND*%
X114000000Y-110000000D03*
%TD*%
D12*
%TO.N,+5V*%
%TO.C,C4*%
X125000000Y-104000000D03*
D13*
%TO.N,GND*%
X127000000Y-104000000D03*
%TD*%
D14*
%TO.N,GND*%
%TO.C,J1*%
X110500000Y-155000000D03*
D15*
X117500000Y-155000000D03*
%TO.N,IEC_ATN*%
X109000000Y-151000000D03*
%TO.N,IEC_CLK*%
X114000000Y-147000000D03*
%TO.N,IEC_DATA*%
X119000000Y-151000000D03*
%TO.N,IEC_RESET*%
X114000000Y-151000000D03*
D16*
%TO.N,GND*%
X106500000Y-151000000D03*
X121500000Y-151000000D03*
%TD*%
D12*
%TO.N,IEC_ATN*%
%TO.C,R1*%
X108000000Y-116000000D03*
D13*
%TO.N,NANO_D2*%
X118160000Y-116000000D03*
%TD*%
D12*
%TO.N,IEC_CLK*%
%TO.C,R2*%
X108000000Y-120000000D03*
D13*
%TO.N,NANO_D3*%
X118160000Y-120000000D03*
%TD*%
D12*
%TO.N,IEC_DATA*%
%TO.C,R3*%
X108000000Y-124000000D03*
D13*
%TO.N,NANO_D4*%
X118160000Y-124000000D03*
%TD*%
D12*
%TO.N,IEC_RESET*%
%TO.C,R4*%
X108000000Y-128000000D03*
D13*
%TO.N,NANO_D5*%
X118160000Y-128000000D03*
%TD*%
D12*
%TO.N,+5V*%
%TO.C,R5*%
X108000000Y-132000000D03*
D13*
%TO.N,NANO_D2*%
X118160000Y-132000000D03*
%TD*%
D12*
%TO.N,+5V*%
%TO.C,R6*%
X108000000Y-136000000D03*
D13*
%TO.N,NANO_D3*%
X118160000Y-136000000D03*
%TD*%
D12*
%TO.N,+5V*%
%TO.C,R7*%
X108000000Y-140000000D03*
D13*
%TO.N,NANO_D4*%
X118160000Y-140000000D03*
%TD*%
D17*
%TO.N,N/C*%
%TO.C,U1*%
X135000000Y-111000000D03*
D18*
X137540000Y-111000000D03*
X135000000Y-113540000D03*
%TO.N,GND*%
X137540000Y-113540000D03*
%TO.N,N/C*%
X135000000Y-116080000D03*
X137540000Y-116080000D03*
%TO.N,GND*%
X135000000Y-118620000D03*
%TO.N,+5V*%
X137540000Y-118620000D03*
%TO.N,NANO_D2*%
X135000000Y-121160000D03*
%TO.N,N/C*%
X137540000Y-121160000D03*
%TO.N,NANO_D3*%
X135000000Y-123700000D03*
%TO.N,N/C*%
X137540000Y-123700000D03*
%TO.N,NANO_D4*%
X135000000Y-126240000D03*
%TO.N,LED_ANODE*%
X137540000Y-126240000D03*
%TO.N,NANO_D5*%
X135000000Y-128780000D03*
%TO.N,N/C*%
X137540000Y-128780000D03*
%TO.N,LATCH_595*%
X135000000Y-131320000D03*
%TO.N,N/C*%
X137540000Y-131320000D03*
%TO.N,FLOPPY_WDATA*%
X135000000Y-133860000D03*
%TO.N,FLOPPY_DSKCHG*%
X137540000Y-133860000D03*
%TO.N,FLOPPY_RDATA*%
X135000000Y-136400000D03*
%TO.N,FLOPPY_WPT*%
X137540000Y-136400000D03*
%TO.N,N/C*%
X135000000Y-138940000D03*
%TO.N,FLOPPY_TRK00*%
X137540000Y-138940000D03*
%TO.N,SPI_CS_SRAM*%
X135000000Y-141480000D03*
%TO.N,N/C*%
X137540000Y-141480000D03*
%TO.N,SPI_MOSI*%
X135000000Y-144020000D03*
%TO.N,N/C*%
X137540000Y-144020000D03*
%TO.N,SPI_MISO*%
X135000000Y-146560000D03*
%TO.N,SPI_SCK*%
X137540000Y-146560000D03*
%TD*%
D12*
%TO.N,SPI_CS_SRAM*%
%TO.C,U2*%
X125000000Y-150000000D03*
D13*
%TO.N,SPI_MISO*%
X125000000Y-152540000D03*
%TO.N,N/C*%
X125000000Y-155080000D03*
%TO.N,GND*%
X125000000Y-157620000D03*
%TO.N,SPI_MOSI*%
X132620000Y-157620000D03*
%TO.N,SPI_SCK*%
X132620000Y-155080000D03*
%TO.N,+5V*%
X132620000Y-152540000D03*
X132620000Y-150000000D03*
%TD*%
D12*
%TO.N,FLOPPY_DENSITY*%
%TO.C,U3*%
X148000000Y-132000000D03*
D13*
%TO.N,FLOPPY_MOTEA*%
X148000000Y-134540000D03*
%TO.N,FLOPPY_DRVSEL*%
X148000000Y-137080000D03*
%TO.N,FLOPPY_MOTOR*%
X148000000Y-139620000D03*
%TO.N,FLOPPY_DIR*%
X148000000Y-142160000D03*
%TO.N,FLOPPY_STEP*%
X148000000Y-144700000D03*
%TO.N,FLOPPY_WGATE*%
X148000000Y-147240000D03*
%TO.N,GND*%
X148000000Y-149780000D03*
%TO.N,N/C*%
X155620000Y-149780000D03*
%TO.N,+5V*%
X155620000Y-147240000D03*
%TO.N,SPI_SCK*%
X155620000Y-144700000D03*
%TO.N,LATCH_595*%
X155620000Y-142160000D03*
%TO.N,GND*%
X155620000Y-139620000D03*
%TO.N,SPI_MOSI*%
X155620000Y-137080000D03*
%TO.N,FLOPPY_SIDE1*%
X155620000Y-134540000D03*
%TO.N,+5V*%
X155620000Y-132000000D03*
%TD*%
D17*
%TO.N,GND*%
%TO.C,J2*%
X165000000Y-110000000D03*
D18*
%TO.N,FLOPPY_DENSITY*%
X167540000Y-110000000D03*
%TO.N,GND*%
X165000000Y-112540000D03*
%TO.N,N/C*%
X167540000Y-112540000D03*
%TO.N,GND*%
X165000000Y-115080000D03*
%TO.N,N/C*%
X167540000Y-115080000D03*
%TO.N,GND*%
X165000000Y-117620000D03*
%TO.N,N/C*%
X167540000Y-117620000D03*
%TO.N,GND*%
X165000000Y-120160000D03*
%TO.N,FLOPPY_MOTEA*%
X167540000Y-120160000D03*
%TO.N,GND*%
X165000000Y-122700000D03*
%TO.N,FLOPPY_DRVSEL*%
X167540000Y-122700000D03*
%TO.N,GND*%
X165000000Y-125240000D03*
%TO.N,N/C*%
X167540000Y-125240000D03*
%TO.N,GND*%
X165000000Y-127780000D03*
%TO.N,FLOPPY_MOTOR*%
X167540000Y-127780000D03*
%TO.N,GND*%
X165000000Y-130320000D03*
%TO.N,FLOPPY_DIR*%
X167540000Y-130320000D03*
%TO.N,GND*%
X165000000Y-132860000D03*
%TO.N,FLOPPY_STEP*%
X167540000Y-132860000D03*
%TO.N,GND*%
X165000000Y-135400000D03*
%TO.N,FLOPPY_WDATA*%
X167540000Y-135400000D03*
%TO.N,GND*%
X165000000Y-137940000D03*
%TO.N,FLOPPY_WGATE*%
X167540000Y-137940000D03*
%TO.N,GND*%
X165000000Y-140480000D03*
%TO.N,FLOPPY_TRK00*%
X167540000Y-140480000D03*
%TO.N,GND*%
X165000000Y-143020000D03*
%TO.N,FLOPPY_WPT*%
X167540000Y-143020000D03*
%TO.N,GND*%
X165000000Y-145560000D03*
%TO.N,FLOPPY_RDATA*%
X167540000Y-145560000D03*
%TO.N,GND*%
X165000000Y-148100000D03*
%TO.N,FLOPPY_SIDE1*%
X167540000Y-148100000D03*
%TO.N,GND*%
X165000000Y-150640000D03*
%TO.N,FLOPPY_DSKCHG*%
X167540000Y-150640000D03*
%TD*%
D12*
%TO.N,LED_ANODE*%
%TO.C,R8*%
X137000000Y-104000000D03*
D13*
%TO.N,LED_CATHODE*%
X147160000Y-104000000D03*
%TD*%
D12*
%TO.N,LED_CATHODE*%
%TO.C,D1*%
X132000000Y-104000000D03*
D13*
%TO.N,GND*%
X134540000Y-104000000D03*
%TD*%
D12*
%TO.N,+5V*%
%TO.C,R9*%
X148000000Y-108000000D03*
D13*
%TO.N,FLOPPY_TRK00*%
X158160000Y-108000000D03*
%TD*%
D12*
%TO.N,+5V*%
%TO.C,R10*%
X148000000Y-113000000D03*
D13*
%TO.N,FLOPPY_WPT*%
X158160000Y-113000000D03*
%TD*%
D12*
%TO.N,+5V*%
%TO.C,R11*%
X148000000Y-118000000D03*
D13*
%TO.N,FLOPPY_RDATA*%
X158160000Y-118000000D03*
%TD*%
D12*
%TO.N,+5V*%
%TO.C,R12*%
X148000000Y-123000000D03*
D13*
%TO.N,FLOPPY_DSKCHG*%
X158160000Y-123000000D03*
%TD*%
D12*
%TO.N,+5V*%
%TO.C,C1*%
X136000000Y-151000000D03*
D13*
%TO.N,GND*%
X141000000Y-151000000D03*
%TD*%
D12*
%TO.N,+5V*%
%TO.C,C2*%
X136000000Y-157000000D03*
D13*
%TO.N,GND*%
X141000000Y-157000000D03*
%TD*%
D12*
%TO.N,+5V*%
%TO.C,C3*%
X148000000Y-156000000D03*
D13*
%TO.N,GND*%
X153000000Y-156000000D03*
%TD*%
D19*
%TO.N,N/C*%
%TO.C,H1*%
X103000000Y-103000000D03*
%TD*%
%TO.N,N/C*%
%TO.C,H2*%
X167000000Y-103000000D03*
%TD*%
%TO.N,N/C*%
%TO.C,H3*%
X103000000Y-157000000D03*
%TD*%
%TO.N,N/C*%
%TO.C,H4*%
X167000000Y-157000000D03*
%TD*%
D20*
%TO.N,+5V*%
X101130000Y-109932700D03*
%TO.N,SPI_MOSI*%
X104999400Y-144333100D03*
%TO.N,SPI_MISO*%
X104071400Y-150249100D03*
%TO.N,SPI_SCK*%
X100651300Y-144333100D03*
%TO.N,SPI_CS_SRAM*%
X101417500Y-147199800D03*
%TO.N,LATCH_595*%
X145852100Y-132252500D03*
%TO.N,FLOPPY_WDATA*%
X104658900Y-130089900D03*
%TO.N,FLOPPY_RDATA*%
X136083300Y-120324800D03*
X103935300Y-133860100D03*
%TO.N,FLOPPY_TRK00*%
X150039100Y-137959800D03*
%TO.N,FLOPPY_WPT*%
X159921100Y-140422400D03*
%TO.N,FLOPPY_DENSITY*%
X151087500Y-109932700D03*
%TO.N,FLOPPY_MOTOR*%
X144879200Y-126774600D03*
X103640200Y-121750000D03*
%TO.N,FLOPPY_STEP*%
X102359900Y-124250000D03*
X144149500Y-127705400D03*
%TO.N,FLOPPY_SIDE1*%
X150168700Y-135198700D03*
X105087500Y-130912200D03*
X158141900Y-145971800D03*
%TD*%
D21*
%TO.N,SPI_MOSI*%
X132338300Y-156493300D02*
X131484500Y-155639500D01*
X131484500Y-155639500D02*
X131484500Y-148344500D01*
X135000000Y-144020000D02*
X135000000Y-145196700D01*
X134632300Y-145196700D02*
X135000000Y-145196700D01*
X132620000Y-157620000D02*
X132620000Y-156493300D01*
X131484500Y-148344500D02*
X134632300Y-145196700D01*
X132620000Y-156493300D02*
X132338300Y-156493300D01*
%TO.N,SPI_SCK*%
X132901800Y-153953300D02*
X132620000Y-153953300D01*
X137172300Y-147736700D02*
X133746700Y-151162300D01*
X137540000Y-146560000D02*
X137540000Y-147736700D01*
X137540000Y-147736700D02*
X137172300Y-147736700D01*
X132620000Y-155080000D02*
X132620000Y-153953300D01*
X133746700Y-153108400D02*
X132901800Y-153953300D01*
X133746700Y-151162300D02*
X133746700Y-153108400D01*
%TO.N,SPI_CS_SRAM*%
X135000000Y-141480000D02*
X133823300Y-141480000D01*
X133823300Y-142303400D02*
X126126700Y-150000000D01*
X125000000Y-150000000D02*
X126126700Y-150000000D01*
X133823300Y-141480000D02*
X133823300Y-142303400D01*
%TO.N,LATCH_595*%
X155620000Y-142160000D02*
X155620000Y-141033300D01*
X149249400Y-135226000D02*
X155056700Y-141033300D01*
X149249400Y-134190500D02*
X149249400Y-135226000D01*
X148328800Y-133269900D02*
X149249400Y-134190500D01*
X155056700Y-141033300D02*
X155620000Y-141033300D01*
X145852100Y-132252500D02*
X146869500Y-133269900D01*
X146869500Y-133269900D02*
X148328800Y-133269900D01*
%TO.N,IEC_ATN*%
X106873300Y-147646600D02*
X106873300Y-118253400D01*
X109000000Y-151000000D02*
X109000000Y-149773300D01*
X108000000Y-116000000D02*
X108000000Y-117126700D01*
X106873300Y-118253400D02*
X108000000Y-117126700D01*
X109000000Y-149773300D02*
X106873300Y-147646600D01*
%TO.N,IEC_DATA*%
X113545900Y-136986200D02*
X113545900Y-130672600D01*
X119000000Y-151000000D02*
X119000000Y-142440300D01*
X108000000Y-124000000D02*
X108000000Y-125126700D01*
X119000000Y-142440300D02*
X113545900Y-136986200D01*
X113545900Y-130672600D02*
X108000000Y-125126700D01*
%TO.N,IEC_RESET*%
X114000000Y-151000000D02*
X114000000Y-149773300D01*
X108000000Y-128000000D02*
X108000000Y-129126700D01*
X108000000Y-129126700D02*
X112773300Y-133900000D01*
X112773300Y-148546600D02*
X114000000Y-149773300D01*
X112773300Y-133900000D02*
X112773300Y-148546600D01*
%TO.N,NANO_D2*%
X117033300Y-118253400D02*
X118160000Y-117126700D01*
X118160000Y-116000000D02*
X118160000Y-117126700D01*
X118160000Y-132000000D02*
X118160000Y-130873300D01*
X117033300Y-129746600D02*
X117033300Y-118253400D01*
X118160000Y-130873300D02*
X117033300Y-129746600D01*
%TO.N,NANO_D4*%
X118160000Y-138873300D02*
X119286700Y-137746600D01*
X118160000Y-140000000D02*
X118160000Y-138873300D01*
X119286700Y-137746600D02*
X119286700Y-126253400D01*
X119286700Y-126253400D02*
X118160000Y-125126700D01*
X118160000Y-124000000D02*
X118160000Y-125126700D01*
%TO.N,FLOPPY_RDATA*%
X135000000Y-135223300D02*
X135367800Y-135223300D01*
X135367800Y-135223300D02*
X136176700Y-134414400D01*
X159286700Y-140675400D02*
X159286700Y-120253400D01*
X167540000Y-144383300D02*
X167172200Y-144383300D01*
X159286700Y-120253400D02*
X158160000Y-119126700D01*
X136176700Y-120418200D02*
X136083300Y-120324800D01*
X158160000Y-118000000D02*
X158160000Y-119126700D01*
X167172200Y-144383300D02*
X166363300Y-143574400D01*
X136176700Y-134414400D02*
X136176700Y-120418200D01*
X166363300Y-142719100D02*
X165487500Y-141843300D01*
X135000000Y-136400000D02*
X135000000Y-135223300D01*
X167540000Y-145560000D02*
X167540000Y-144383300D01*
X160454600Y-141843300D02*
X159286700Y-140675400D01*
X166363300Y-143574400D02*
X166363300Y-142719100D01*
X165487500Y-141843300D02*
X160454600Y-141843300D01*
%TO.N,FLOPPY_TRK00*%
X163431300Y-114398000D02*
X163431300Y-122808400D01*
X166363300Y-138494400D02*
X167172200Y-139303300D01*
X167540000Y-140480000D02*
X167540000Y-139303300D01*
X163431300Y-122808400D02*
X164592900Y-123970000D01*
X167172200Y-139303300D02*
X167540000Y-139303300D01*
X165482900Y-123970000D02*
X166363300Y-124850400D01*
X164592900Y-123970000D02*
X165482900Y-123970000D01*
X166363300Y-124850400D02*
X166363300Y-138494400D01*
X158160000Y-108000000D02*
X158160000Y-109126700D01*
X158160000Y-109126700D02*
X163431300Y-114398000D01*
%TO.N,FLOPPY_WPT*%
X159921100Y-115887800D02*
X158160000Y-114126700D01*
X159921100Y-140422400D02*
X159921100Y-115887800D01*
X158160000Y-113000000D02*
X158160000Y-114126700D01*
%TO.N,FLOPPY_DSKCHG*%
X166363300Y-150272200D02*
X166363300Y-150640000D01*
X165554400Y-149463300D02*
X166363300Y-150272200D01*
X158160000Y-142950900D02*
X164672400Y-149463300D01*
X167540000Y-150640000D02*
X166363300Y-150640000D01*
X158160000Y-123000000D02*
X158160000Y-142950900D01*
X164672400Y-149463300D02*
X165554400Y-149463300D01*
%TO.N,FLOPPY_DENSITY*%
X148000000Y-132000000D02*
X148000000Y-130873300D01*
X151087500Y-109932700D02*
X151087500Y-127785800D01*
X151087500Y-127785800D02*
X148000000Y-130873300D01*
%TO.N,FLOPPY_MOTOR*%
X148000000Y-138493300D02*
X147718300Y-138493300D01*
X148000000Y-139620000D02*
X148000000Y-138493300D01*
X144879200Y-135654200D02*
X144879200Y-126774600D01*
X147718300Y-138493300D02*
X144879200Y-135654200D01*
%TO.N,FLOPPY_STEP*%
X148000000Y-143573300D02*
X147718300Y-143573300D01*
X148000000Y-144700000D02*
X148000000Y-143573300D01*
X144149500Y-140004500D02*
X144149500Y-127705400D01*
X147718300Y-143573300D02*
X144149500Y-140004500D01*
%TO.N,FLOPPY_SIDE1*%
X156746700Y-144576600D02*
X158141900Y-145971800D01*
X155620000Y-134540000D02*
X155620000Y-135666700D01*
X155620000Y-135666700D02*
X155901800Y-135666700D01*
X155901800Y-135666700D02*
X156746700Y-136511600D01*
X156746700Y-136511600D02*
X156746700Y-144576600D01*
%TO.N,LED_ANODE*%
X138716700Y-124254400D02*
X137907800Y-125063300D01*
X137000000Y-104000000D02*
X137000000Y-105126700D01*
X137540000Y-126240000D02*
X137540000Y-125063300D01*
X138716700Y-106843400D02*
X138716700Y-124254400D01*
X137907800Y-125063300D02*
X137540000Y-125063300D01*
X137000000Y-105126700D02*
X138716700Y-106843400D01*
%TD*%
%TA.AperFunction,Conductor*%
%TO.N,GND*%
G36*
X165193039Y-150108485D02*
G01*
X165238794Y-150161289D01*
X165248554Y-150206153D01*
X165192993Y-150174075D01*
X165065826Y-150140000D01*
X164934174Y-150140000D01*
X164807007Y-150174075D01*
X164752054Y-150205801D01*
X164769685Y-150145761D01*
X164822489Y-150100006D01*
X164874000Y-150088800D01*
X165126000Y-150088800D01*
X165193039Y-150108485D01*
G37*
%TD.AperFunction*%
%TA.AperFunction,Conductor*%
G36*
X165250000Y-148713800D02*
G01*
X165247449Y-148722485D01*
X165248738Y-148731447D01*
X165237759Y-148755487D01*
X165230315Y-148780839D01*
X165223474Y-148786766D01*
X165219713Y-148795003D01*
X165197478Y-148809292D01*
X165177511Y-148826594D01*
X165166996Y-148828881D01*
X165160935Y-148832777D01*
X165126000Y-148837800D01*
X164982853Y-148837800D01*
X164915814Y-148818115D01*
X164895172Y-148801481D01*
X164786319Y-148692628D01*
X164752834Y-148631305D01*
X164750000Y-148604947D01*
X164750000Y-148533012D01*
X164807007Y-148565925D01*
X164934174Y-148600000D01*
X165065826Y-148600000D01*
X165192993Y-148565925D01*
X165250000Y-148533012D01*
X165250000Y-148713800D01*
G37*
%TD.AperFunction*%
%TA.AperFunction,Conductor*%
G36*
X165250000Y-147666988D02*
G01*
X165192993Y-147634075D01*
X165065826Y-147600000D01*
X164934174Y-147600000D01*
X164807007Y-147634075D01*
X164750000Y-147666988D01*
X164750000Y-145993012D01*
X164807007Y-146025925D01*
X164934174Y-146060000D01*
X165065826Y-146060000D01*
X165192993Y-146025925D01*
X165250000Y-145993012D01*
X165250000Y-147666988D01*
G37*
%TD.AperFunction*%
%TA.AperFunction,Conductor*%
G36*
X158990703Y-141264439D02*
G01*
X158997181Y-141270471D01*
X159968739Y-142242029D01*
X159968742Y-142242033D01*
X160055867Y-142329158D01*
X160086217Y-142349437D01*
X160158314Y-142397612D01*
X160158319Y-142397614D01*
X160232085Y-142428168D01*
X160232086Y-142428168D01*
X160238807Y-142430952D01*
X160272148Y-142444763D01*
X160330080Y-142456286D01*
X160392991Y-142468799D01*
X160392992Y-142468800D01*
X160392993Y-142468800D01*
X160392994Y-142468800D01*
X163588950Y-142468800D01*
X163655989Y-142488485D01*
X163701744Y-142541289D01*
X163711688Y-142610447D01*
X163706881Y-142631117D01*
X163683243Y-142703866D01*
X163683242Y-142703873D01*
X163672769Y-142770000D01*
X164566988Y-142770000D01*
X164534075Y-142827007D01*
X164500000Y-142954174D01*
X164500000Y-143085826D01*
X164534075Y-143212993D01*
X164566988Y-143270000D01*
X163672769Y-143270000D01*
X163683242Y-143336126D01*
X163683242Y-143336129D01*
X163748904Y-143538217D01*
X163845379Y-143727557D01*
X163970272Y-143899459D01*
X163970276Y-143899464D01*
X164120535Y-144049723D01*
X164120540Y-144049727D01*
X164292444Y-144174622D01*
X164302048Y-144179516D01*
X164352844Y-144227491D01*
X164369638Y-144295312D01*
X164347100Y-144361447D01*
X164302048Y-144400484D01*
X164292444Y-144405377D01*
X164120540Y-144530272D01*
X164120535Y-144530276D01*
X163970276Y-144680535D01*
X163970272Y-144680540D01*
X163845379Y-144852442D01*
X163748904Y-145041782D01*
X163683242Y-145243870D01*
X163683242Y-145243873D01*
X163672769Y-145310000D01*
X164566988Y-145310000D01*
X164534075Y-145367007D01*
X164500000Y-145494174D01*
X164500000Y-145625826D01*
X164534075Y-145752993D01*
X164566988Y-145810000D01*
X163672769Y-145810000D01*
X163683242Y-145876126D01*
X163683242Y-145876129D01*
X163748904Y-146078217D01*
X163845379Y-146267557D01*
X163970272Y-146439459D01*
X163970276Y-146439464D01*
X164120535Y-146589723D01*
X164120540Y-146589727D01*
X164292444Y-146714622D01*
X164302048Y-146719516D01*
X164352844Y-146767491D01*
X164369638Y-146835312D01*
X164347100Y-146901447D01*
X164302048Y-146940484D01*
X164292444Y-146945377D01*
X164120540Y-147070272D01*
X164120535Y-147070276D01*
X163970276Y-147220535D01*
X163970272Y-147220540D01*
X163845378Y-147392442D01*
X163801600Y-147478360D01*
X163753625Y-147529155D01*
X163685804Y-147545949D01*
X163619669Y-147523411D01*
X163603435Y-147509744D01*
X158821819Y-142728128D01*
X158788334Y-142666805D01*
X158785500Y-142640447D01*
X158785500Y-141358152D01*
X158805185Y-141291113D01*
X158857989Y-141245358D01*
X158927147Y-141235414D01*
X158990703Y-141264439D01*
G37*
%TD.AperFunction*%
%TA.AperFunction,Conductor*%
G36*
X165250000Y-145126988D02*
G01*
X165192993Y-145094075D01*
X165065826Y-145060000D01*
X164934174Y-145060000D01*
X164807007Y-145094075D01*
X164750000Y-145126988D01*
X164750000Y-143453012D01*
X164807007Y-143485925D01*
X164934174Y-143520000D01*
X165065826Y-143520000D01*
X165192993Y-143485925D01*
X165250000Y-143453012D01*
X165250000Y-145126988D01*
G37*
%TD.AperFunction*%
%TA.AperFunction,Conductor*%
G36*
X165193039Y-142488485D02*
G01*
X165238794Y-142541289D01*
X165248554Y-142586153D01*
X165192993Y-142554075D01*
X165065826Y-142520000D01*
X164934174Y-142520000D01*
X164807007Y-142554075D01*
X164752054Y-142585801D01*
X164769685Y-142525761D01*
X164822489Y-142480006D01*
X164874000Y-142468800D01*
X165126000Y-142468800D01*
X165193039Y-142488485D01*
G37*
%TD.AperFunction*%
%TA.AperFunction,Conductor*%
G36*
X165250000Y-141093800D02*
G01*
X165230315Y-141160839D01*
X165177511Y-141206594D01*
X165126000Y-141217800D01*
X164874000Y-141217800D01*
X164806961Y-141198115D01*
X164761206Y-141145311D01*
X164750000Y-141093800D01*
X164750000Y-140913012D01*
X164807007Y-140945925D01*
X164934174Y-140980000D01*
X165065826Y-140980000D01*
X165192993Y-140945925D01*
X165250000Y-140913012D01*
X165250000Y-141093800D01*
G37*
%TD.AperFunction*%
%TA.AperFunction,Conductor*%
G36*
X165250000Y-140046988D02*
G01*
X165192993Y-140014075D01*
X165065826Y-139980000D01*
X164934174Y-139980000D01*
X164807007Y-140014075D01*
X164750000Y-140046988D01*
X164750000Y-138373012D01*
X164807007Y-138405925D01*
X164934174Y-138440000D01*
X165065826Y-138440000D01*
X165192993Y-138405925D01*
X165250000Y-138373012D01*
X165250000Y-140046988D01*
G37*
%TD.AperFunction*%
%TA.AperFunction,Conductor*%
G36*
X165250000Y-137506988D02*
G01*
X165192993Y-137474075D01*
X165065826Y-137440000D01*
X164934174Y-137440000D01*
X164807007Y-137474075D01*
X164750000Y-137506988D01*
X164750000Y-135833012D01*
X164807007Y-135865925D01*
X164934174Y-135900000D01*
X165065826Y-135900000D01*
X165192993Y-135865925D01*
X165250000Y-135833012D01*
X165250000Y-137506988D01*
G37*
%TD.AperFunction*%
%TA.AperFunction,Conductor*%
G36*
X165250000Y-134966988D02*
G01*
X165192993Y-134934075D01*
X165065826Y-134900000D01*
X164934174Y-134900000D01*
X164807007Y-134934075D01*
X164750000Y-134966988D01*
X164750000Y-133293012D01*
X164807007Y-133325925D01*
X164934174Y-133360000D01*
X165065826Y-133360000D01*
X165192993Y-133325925D01*
X165250000Y-133293012D01*
X165250000Y-134966988D01*
G37*
%TD.AperFunction*%
%TA.AperFunction,Conductor*%
G36*
X165250000Y-132426988D02*
G01*
X165192993Y-132394075D01*
X165065826Y-132360000D01*
X164934174Y-132360000D01*
X164807007Y-132394075D01*
X164750000Y-132426988D01*
X164750000Y-130753012D01*
X164807007Y-130785925D01*
X164934174Y-130820000D01*
X165065826Y-130820000D01*
X165192993Y-130785925D01*
X165250000Y-130753012D01*
X165250000Y-132426988D01*
G37*
%TD.AperFunction*%
%TA.AperFunction,Conductor*%
G36*
X165250000Y-129886988D02*
G01*
X165192993Y-129854075D01*
X165065826Y-129820000D01*
X164934174Y-129820000D01*
X164807007Y-129854075D01*
X164750000Y-129886988D01*
X164750000Y-128213012D01*
X164807007Y-128245925D01*
X164934174Y-128280000D01*
X165065826Y-128280000D01*
X165192993Y-128245925D01*
X165250000Y-128213012D01*
X165250000Y-129886988D01*
G37*
%TD.AperFunction*%
%TA.AperFunction,Conductor*%
G36*
X165250000Y-127346988D02*
G01*
X165192993Y-127314075D01*
X165065826Y-127280000D01*
X164934174Y-127280000D01*
X164807007Y-127314075D01*
X164750000Y-127346988D01*
X164750000Y-125673012D01*
X164807007Y-125705925D01*
X164934174Y-125740000D01*
X165065826Y-125740000D01*
X165192993Y-125705925D01*
X165250000Y-125673012D01*
X165250000Y-127346988D01*
G37*
%TD.AperFunction*%
%TA.AperFunction,Conductor*%
G36*
X165193039Y-124615185D02*
G01*
X165238794Y-124667989D01*
X165250000Y-124719500D01*
X165250000Y-124806988D01*
X165192993Y-124774075D01*
X165065826Y-124740000D01*
X164934174Y-124740000D01*
X164807007Y-124774075D01*
X164750000Y-124806988D01*
X164750000Y-124719500D01*
X164769685Y-124652461D01*
X164822489Y-124606706D01*
X164874000Y-124595500D01*
X165126000Y-124595500D01*
X165193039Y-124615185D01*
G37*
%TD.AperFunction*%
%TA.AperFunction,Conductor*%
G36*
X165250000Y-123220500D02*
G01*
X165247449Y-123229185D01*
X165248738Y-123238147D01*
X165237759Y-123262187D01*
X165230315Y-123287539D01*
X165223474Y-123293466D01*
X165219713Y-123301703D01*
X165197478Y-123315992D01*
X165177511Y-123333294D01*
X165166996Y-123335581D01*
X165160935Y-123339477D01*
X165126000Y-123344500D01*
X164903353Y-123344500D01*
X164836314Y-123324815D01*
X164815672Y-123308181D01*
X164786319Y-123278828D01*
X164752834Y-123217505D01*
X164750000Y-123191147D01*
X164750000Y-123133012D01*
X164807007Y-123165925D01*
X164934174Y-123200000D01*
X165065826Y-123200000D01*
X165192993Y-123165925D01*
X165250000Y-123133012D01*
X165250000Y-123220500D01*
G37*
%TD.AperFunction*%
%TA.AperFunction,Conductor*%
G36*
X165250000Y-122266988D02*
G01*
X165192993Y-122234075D01*
X165065826Y-122200000D01*
X164934174Y-122200000D01*
X164807007Y-122234075D01*
X164750000Y-122266988D01*
X164750000Y-120593012D01*
X164807007Y-120625925D01*
X164934174Y-120660000D01*
X165065826Y-120660000D01*
X165192993Y-120625925D01*
X165250000Y-120593012D01*
X165250000Y-122266988D01*
G37*
%TD.AperFunction*%
%TA.AperFunction,Conductor*%
G36*
X165250000Y-119726988D02*
G01*
X165192993Y-119694075D01*
X165065826Y-119660000D01*
X164934174Y-119660000D01*
X164807007Y-119694075D01*
X164750000Y-119726988D01*
X164750000Y-118053012D01*
X164807007Y-118085925D01*
X164934174Y-118120000D01*
X165065826Y-118120000D01*
X165192993Y-118085925D01*
X165250000Y-118053012D01*
X165250000Y-119726988D01*
G37*
%TD.AperFunction*%
%TA.AperFunction,Conductor*%
G36*
X165250000Y-117186988D02*
G01*
X165192993Y-117154075D01*
X165065826Y-117120000D01*
X164934174Y-117120000D01*
X164807007Y-117154075D01*
X164750000Y-117186988D01*
X164750000Y-115513012D01*
X164807007Y-115545925D01*
X164934174Y-115580000D01*
X165065826Y-115580000D01*
X165192993Y-115545925D01*
X165250000Y-115513012D01*
X165250000Y-117186988D01*
G37*
%TD.AperFunction*%
%TA.AperFunction,Conductor*%
G36*
X165250000Y-114646988D02*
G01*
X165192993Y-114614075D01*
X165065826Y-114580000D01*
X164934174Y-114580000D01*
X164807007Y-114614075D01*
X164750000Y-114646988D01*
X164750000Y-112973012D01*
X164807007Y-113005925D01*
X164934174Y-113040000D01*
X165065826Y-113040000D01*
X165192993Y-113005925D01*
X165250000Y-112973012D01*
X165250000Y-114646988D01*
G37*
%TD.AperFunction*%
%TA.AperFunction,Conductor*%
G36*
X165250000Y-112106988D02*
G01*
X165192993Y-112074075D01*
X165065826Y-112040000D01*
X164934174Y-112040000D01*
X164807007Y-112074075D01*
X164750000Y-112106988D01*
X164750000Y-110433012D01*
X164807007Y-110465925D01*
X164934174Y-110500000D01*
X165065826Y-110500000D01*
X165192993Y-110465925D01*
X165250000Y-110433012D01*
X165250000Y-112106988D01*
G37*
%TD.AperFunction*%
%TA.AperFunction,Conductor*%
G36*
X164516721Y-100320185D02*
G01*
X164562476Y-100372989D01*
X164572420Y-100442147D01*
X164543395Y-100505703D01*
X164537363Y-100512181D01*
X164403176Y-100646367D01*
X164184985Y-100912234D01*
X164184975Y-100912248D01*
X163993904Y-101198206D01*
X163993893Y-101198224D01*
X163831772Y-101501530D01*
X163831770Y-101501535D01*
X163700150Y-101819293D01*
X163600308Y-102148427D01*
X163533210Y-102485750D01*
X163512159Y-102699500D01*
X163499500Y-102828031D01*
X163499500Y-103171969D01*
X163506048Y-103238456D01*
X163533210Y-103514249D01*
X163600308Y-103851572D01*
X163700150Y-104180706D01*
X163831770Y-104498464D01*
X163831772Y-104498469D01*
X163993893Y-104801775D01*
X163993904Y-104801793D01*
X164184975Y-105087751D01*
X164184985Y-105087765D01*
X164403176Y-105353632D01*
X164646367Y-105596823D01*
X164646372Y-105596827D01*
X164646373Y-105596828D01*
X164912240Y-105815019D01*
X165198213Y-106006100D01*
X165198222Y-106006105D01*
X165198224Y-106006106D01*
X165501530Y-106168227D01*
X165501532Y-106168227D01*
X165501538Y-106168231D01*
X165819295Y-106299850D01*
X166148422Y-106399690D01*
X166485750Y-106466789D01*
X166828031Y-106500500D01*
X166828034Y-106500500D01*
X167171966Y-106500500D01*
X167171969Y-106500500D01*
X167514250Y-106466789D01*
X167851578Y-106399690D01*
X168180705Y-106299850D01*
X168498462Y-106168231D01*
X168801787Y-106006100D01*
X169087760Y-105815019D01*
X169353627Y-105596828D01*
X169408983Y-105541472D01*
X169487819Y-105462637D01*
X169549142Y-105429152D01*
X169618834Y-105434136D01*
X169674767Y-105476008D01*
X169699184Y-105541472D01*
X169699500Y-105550318D01*
X169699500Y-154449682D01*
X169679815Y-154516721D01*
X169627011Y-154562476D01*
X169557853Y-154572420D01*
X169494297Y-154543395D01*
X169487819Y-154537363D01*
X169353632Y-154403176D01*
X169087765Y-154184985D01*
X169087764Y-154184984D01*
X169087760Y-154184981D01*
X168801787Y-153993900D01*
X168801782Y-153993897D01*
X168801775Y-153993893D01*
X168498469Y-153831772D01*
X168498464Y-153831770D01*
X168180706Y-153700150D01*
X167851572Y-153600308D01*
X167514248Y-153533210D01*
X167514249Y-153533210D01*
X167249470Y-153507133D01*
X167171969Y-153499500D01*
X166828031Y-153499500D01*
X166750530Y-153507133D01*
X166485750Y-153533210D01*
X166148427Y-153600308D01*
X165819293Y-153700150D01*
X165501535Y-153831770D01*
X165501530Y-153831772D01*
X165198224Y-153993893D01*
X165198206Y-153993904D01*
X164912248Y-154184975D01*
X164912234Y-154184985D01*
X164646367Y-154403176D01*
X164403176Y-154646367D01*
X164184985Y-154912234D01*
X164184975Y-154912248D01*
X163993904Y-155198206D01*
X163993893Y-155198224D01*
X163831772Y-155501530D01*
X163831770Y-155501535D01*
X163700150Y-155819293D01*
X163600308Y-156148427D01*
X163533210Y-156485750D01*
X163512544Y-156695586D01*
X163499500Y-156828031D01*
X163499500Y-157171969D01*
X163506915Y-157247259D01*
X163533210Y-157514249D01*
X163600308Y-157851572D01*
X163700150Y-158180706D01*
X163831770Y-158498464D01*
X163831772Y-158498469D01*
X163993893Y-158801775D01*
X163993904Y-158801793D01*
X164184975Y-159087751D01*
X164184985Y-159087765D01*
X164403176Y-159353632D01*
X164537363Y-159487819D01*
X164570848Y-159549142D01*
X164565864Y-159618834D01*
X164523992Y-159674767D01*
X164458528Y-159699184D01*
X164449682Y-159699500D01*
X105550318Y-159699500D01*
X105483279Y-159679815D01*
X105437524Y-159627011D01*
X105427580Y-159557853D01*
X105456605Y-159494297D01*
X105462637Y-159487819D01*
X105596823Y-159353632D01*
X105596828Y-159353627D01*
X105815019Y-159087760D01*
X106006100Y-158801787D01*
X106168231Y-158498462D01*
X106299850Y-158180705D01*
X106399690Y-157851578D01*
X106466789Y-157514250D01*
X106500500Y-157171969D01*
X106500500Y-156828031D01*
X106466789Y-156485750D01*
X106399690Y-156148422D01*
X106299850Y-155819295D01*
X106168231Y-155501538D01*
X106167927Y-155500970D01*
X106037571Y-155257091D01*
X106006106Y-155198224D01*
X106006105Y-155198222D01*
X106006100Y-155198213D01*
X105815019Y-154912240D01*
X105596828Y-154646373D01*
X105596827Y-154646372D01*
X105596823Y-154646367D01*
X105353632Y-154403176D01*
X105087765Y-154184985D01*
X105087742Y-154184968D01*
X105038380Y-154151986D01*
X105038330Y-154151953D01*
X104942668Y-154088034D01*
X104888971Y-154052155D01*
X109100000Y-154052155D01*
X109100000Y-154750000D01*
X110066988Y-154750000D01*
X110034075Y-154807007D01*
X110000000Y-154934174D01*
X110000000Y-155065826D01*
X110034075Y-155192993D01*
X110066988Y-155250000D01*
X109100000Y-155250000D01*
X109100000Y-155947844D01*
X109106401Y-156007372D01*
X109106403Y-156007379D01*
X109156645Y-156142086D01*
X109156649Y-156142093D01*
X109242809Y-156257187D01*
X109242812Y-156257190D01*
X109357906Y-156343350D01*
X109357913Y-156343354D01*
X109492620Y-156393596D01*
X109492627Y-156393598D01*
X109552155Y-156399999D01*
X109552172Y-156400000D01*
X110250000Y-156400000D01*
X110250000Y-155433012D01*
X110307007Y-155465925D01*
X110434174Y-155500000D01*
X110565826Y-155500000D01*
X110692993Y-155465925D01*
X110750000Y-155433012D01*
X110750000Y-156400000D01*
X111447828Y-156400000D01*
X111447844Y-156399999D01*
X111507372Y-156393598D01*
X111507379Y-156393596D01*
X111642086Y-156343354D01*
X111642093Y-156343350D01*
X111757187Y-156257190D01*
X111757190Y-156257187D01*
X111843350Y-156142093D01*
X111843354Y-156142086D01*
X111893596Y-156007379D01*
X111893598Y-156007372D01*
X111899999Y-155947844D01*
X111900000Y-155947827D01*
X111900000Y-155250000D01*
X110933012Y-155250000D01*
X110965925Y-155192993D01*
X111000000Y-155065826D01*
X111000000Y-154934174D01*
X110965925Y-154807007D01*
X110933012Y-154750000D01*
X111900000Y-154750000D01*
X116122145Y-154750000D01*
X117066988Y-154750000D01*
X117034075Y-154807007D01*
X117000000Y-154934174D01*
X117000000Y-155065826D01*
X117034075Y-155192993D01*
X117066988Y-155250000D01*
X116122145Y-155250000D01*
X116134473Y-155327835D01*
X116134473Y-155327838D01*
X116202567Y-155537410D01*
X116302613Y-155733760D01*
X116432142Y-155912041D01*
X116587958Y-156067857D01*
X116766239Y-156197386D01*
X116962589Y-156297432D01*
X117172163Y-156365526D01*
X117249999Y-156377854D01*
X117250000Y-156377854D01*
X117250000Y-155433012D01*
X117307007Y-155465925D01*
X117434174Y-155500000D01*
X117565826Y-155500000D01*
X117692993Y-155465925D01*
X117750000Y-155433012D01*
X117750000Y-156377854D01*
X117827834Y-156365526D01*
X117827837Y-156365526D01*
X118037410Y-156297432D01*
X118233760Y-156197386D01*
X118412041Y-156067857D01*
X118567857Y-155912041D01*
X118697386Y-155733760D01*
X118797432Y-155537410D01*
X118865526Y-155327838D01*
X118865526Y-155327835D01*
X118877855Y-155250000D01*
X117933012Y-155250000D01*
X117965925Y-155192993D01*
X118000000Y-155065826D01*
X118000000Y-154934174D01*
X117965925Y-154807007D01*
X117933012Y-154750000D01*
X118877855Y-154750000D01*
X118865526Y-154672164D01*
X118865526Y-154672161D01*
X118797432Y-154462589D01*
X118697386Y-154266239D01*
X118567857Y-154087958D01*
X118412041Y-153932142D01*
X118233760Y-153802613D01*
X118037410Y-153702567D01*
X117827836Y-153634473D01*
X117750000Y-153622144D01*
X117750000Y-154566988D01*
X117692993Y-154534075D01*
X117565826Y-154500000D01*
X117434174Y-154500000D01*
X117307007Y-154534075D01*
X117250000Y-154566988D01*
X117250000Y-153622144D01*
X117172164Y-153634473D01*
X117172161Y-153634473D01*
X116962589Y-153702567D01*
X116766239Y-153802613D01*
X116587958Y-153932142D01*
X116432142Y-154087958D01*
X116302613Y-154266239D01*
X116202567Y-154462589D01*
X116134473Y-154672161D01*
X116134473Y-154672164D01*
X116122145Y-154750000D01*
X111900000Y-154750000D01*
X111900000Y-154052172D01*
X111899999Y-154052155D01*
X111893598Y-153992627D01*
X111893596Y-153992620D01*
X111843354Y-153857913D01*
X111843350Y-153857906D01*
X111757190Y-153742812D01*
X111757187Y-153742809D01*
X111642093Y-153656649D01*
X111642086Y-153656645D01*
X111507379Y-153606403D01*
X111507372Y-153606401D01*
X111447844Y-153600000D01*
X110750000Y-153600000D01*
X110750000Y-154566988D01*
X110692993Y-154534075D01*
X110565826Y-154500000D01*
X110434174Y-154500000D01*
X110307007Y-154534075D01*
X110250000Y-154566988D01*
X110250000Y-153600000D01*
X109552155Y-153600000D01*
X109492627Y-153606401D01*
X109492620Y-153606403D01*
X109357913Y-153656645D01*
X109357906Y-153656649D01*
X109242812Y-153742809D01*
X109242809Y-153742812D01*
X109156649Y-153857906D01*
X109156645Y-153857913D01*
X109106403Y-153992620D01*
X109106401Y-153992627D01*
X109100000Y-154052155D01*
X104888971Y-154052155D01*
X104801787Y-153993900D01*
X104801782Y-153993897D01*
X104801775Y-153993893D01*
X104498469Y-153831772D01*
X104498464Y-153831770D01*
X104180706Y-153700150D01*
X103851572Y-153600308D01*
X103514248Y-153533210D01*
X103514249Y-153533210D01*
X103249470Y-153507133D01*
X103171969Y-153499500D01*
X102828031Y-153499500D01*
X102750530Y-153507133D01*
X102485750Y-153533210D01*
X102148427Y-153600308D01*
X101819293Y-153700150D01*
X101501535Y-153831770D01*
X101501530Y-153831772D01*
X101198224Y-153993893D01*
X101198206Y-153993904D01*
X100912248Y-154184975D01*
X100912234Y-154184985D01*
X100646367Y-154403176D01*
X100512181Y-154537363D01*
X100450858Y-154570848D01*
X100381166Y-154565864D01*
X100325233Y-154523992D01*
X100300816Y-154458528D01*
X100300500Y-154449682D01*
X100300500Y-150170253D01*
X103270900Y-150170253D01*
X103270900Y-150327946D01*
X103301661Y-150482589D01*
X103301664Y-150482601D01*
X103362002Y-150628272D01*
X103362009Y-150628285D01*
X103449610Y-150759388D01*
X103449613Y-150759392D01*
X103561107Y-150870886D01*
X103561111Y-150870889D01*
X103692214Y-150958490D01*
X103692227Y-150958497D01*
X103837898Y-151018835D01*
X103837903Y-151018837D01*
X103956015Y-151042331D01*
X103992553Y-151049599D01*
X103992556Y-151049600D01*
X103992558Y-151049600D01*
X104150244Y-151049600D01*
X104150245Y-151049599D01*
X104304897Y-151018837D01*
X104450579Y-150958494D01*
X104581689Y-150870889D01*
X104666260Y-150786317D01*
X104727581Y-150752834D01*
X104753940Y-150750000D01*
X105791759Y-150750000D01*
X105778822Y-150781233D01*
X105750000Y-150926131D01*
X105750000Y-151073869D01*
X105778822Y-151218767D01*
X105791759Y-151250000D01*
X104520898Y-151250000D01*
X104536934Y-151351247D01*
X104609897Y-151575802D01*
X104717085Y-151786171D01*
X104855866Y-151977186D01*
X105022813Y-152144133D01*
X105213828Y-152282914D01*
X105424197Y-152390102D01*
X105648752Y-152463065D01*
X105648751Y-152463065D01*
X105881948Y-152500000D01*
X106250000Y-152500000D01*
X106250000Y-151708240D01*
X106281233Y-151721178D01*
X106426131Y-151750000D01*
X106573869Y-151750000D01*
X106718767Y-151721178D01*
X106750000Y-151708240D01*
X106750000Y-152500000D01*
X107118052Y-152500000D01*
X107351247Y-152463065D01*
X107575802Y-152390102D01*
X107786171Y-152282914D01*
X107977185Y-152144133D01*
X107992730Y-152128589D01*
X108054053Y-152095102D01*
X108123744Y-152100085D01*
X108153299Y-152115950D01*
X108250655Y-152186682D01*
X108265978Y-152197815D01*
X108356220Y-152243796D01*
X108462393Y-152297895D01*
X108462396Y-152297896D01*
X108567221Y-152331955D01*
X108672049Y-152366015D01*
X108889778Y-152400500D01*
X108889779Y-152400500D01*
X109110221Y-152400500D01*
X109110222Y-152400500D01*
X109327951Y-152366015D01*
X109537606Y-152297895D01*
X109734022Y-152197815D01*
X109912365Y-152068242D01*
X110068242Y-151912365D01*
X110197815Y-151734022D01*
X110297895Y-151537606D01*
X110366015Y-151327951D01*
X110400500Y-151110222D01*
X110400500Y-150889778D01*
X110366015Y-150672049D01*
X110320280Y-150531290D01*
X110297896Y-150462396D01*
X110297895Y-150462393D01*
X110261008Y-150390000D01*
X110197815Y-150265978D01*
X110128267Y-150170253D01*
X110068247Y-150087641D01*
X110068243Y-150087636D01*
X109912363Y-149931756D01*
X109912358Y-149931752D01*
X109734023Y-149802185D01*
X109686878Y-149778163D01*
X109686650Y-149777948D01*
X109686343Y-149777889D01*
X109661198Y-149753909D01*
X109636083Y-149730188D01*
X109635931Y-149729812D01*
X109635780Y-149729668D01*
X109634466Y-149726178D01*
X109622666Y-149696901D01*
X109622061Y-149694406D01*
X109601463Y-149590849D01*
X109594257Y-149573453D01*
X109580279Y-149539706D01*
X109580277Y-149539702D01*
X109554313Y-149477016D01*
X109554312Y-149477015D01*
X109554312Y-149477014D01*
X109514375Y-149417246D01*
X109485858Y-149374567D01*
X109485855Y-149374563D01*
X109395637Y-149284345D01*
X109395606Y-149284316D01*
X107535119Y-147423829D01*
X107501634Y-147362506D01*
X107498800Y-147336148D01*
X107498800Y-141424499D01*
X107518485Y-141357460D01*
X107571289Y-141311705D01*
X107622800Y-141300499D01*
X108847871Y-141300499D01*
X108847872Y-141300499D01*
X108907483Y-141294091D01*
X109042331Y-141243796D01*
X109157546Y-141157546D01*
X109243796Y-141042331D01*
X109294091Y-140907483D01*
X109300500Y-140847873D01*
X109300499Y-139152128D01*
X109294091Y-139092517D01*
X109276848Y-139046287D01*
X109243797Y-138957671D01*
X109243793Y-138957664D01*
X109157547Y-138842455D01*
X109157544Y-138842452D01*
X109042335Y-138756206D01*
X109042328Y-138756202D01*
X108907482Y-138705908D01*
X108907483Y-138705908D01*
X108847883Y-138699501D01*
X108847881Y-138699500D01*
X108847873Y-138699500D01*
X108847865Y-138699500D01*
X107622800Y-138699500D01*
X107555761Y-138679815D01*
X107510006Y-138627011D01*
X107498800Y-138575500D01*
X107498800Y-137424499D01*
X107518485Y-137357460D01*
X107571289Y-137311705D01*
X107622800Y-137300499D01*
X108847871Y-137300499D01*
X108847872Y-137300499D01*
X108907483Y-137294091D01*
X109042331Y-137243796D01*
X109157546Y-137157546D01*
X109243796Y-137042331D01*
X109294091Y-136907483D01*
X109300500Y-136847873D01*
X109300499Y-135152128D01*
X109294091Y-135092517D01*
X109284755Y-135067487D01*
X109243797Y-134957671D01*
X109243793Y-134957664D01*
X109157547Y-134842455D01*
X109157544Y-134842452D01*
X109042335Y-134756206D01*
X109042328Y-134756202D01*
X108907482Y-134705908D01*
X108907483Y-134705908D01*
X108847883Y-134699501D01*
X108847881Y-134699500D01*
X108847873Y-134699500D01*
X108847865Y-134699500D01*
X107622800Y-134699500D01*
X107555761Y-134679815D01*
X107510006Y-134627011D01*
X107498800Y-134575500D01*
X107498800Y-133424499D01*
X107518485Y-133357460D01*
X107571289Y-133311705D01*
X107622800Y-133300499D01*
X108847871Y-133300499D01*
X108847872Y-133300499D01*
X108907483Y-133294091D01*
X109042331Y-133243796D01*
X109157546Y-133157546D01*
X109243796Y-133042331D01*
X109294091Y-132907483D01*
X109300500Y-132847873D01*
X109300499Y-131611150D01*
X109320184Y-131544112D01*
X109372987Y-131498357D01*
X109442146Y-131488413D01*
X109505702Y-131517438D01*
X109512180Y-131523470D01*
X112111481Y-134122771D01*
X112144966Y-134184094D01*
X112147800Y-134210452D01*
X112147800Y-148608211D01*
X112171835Y-148729044D01*
X112171840Y-148729061D01*
X112218985Y-148842880D01*
X112218986Y-148842882D01*
X112218988Y-148842886D01*
X112231651Y-148861837D01*
X112244640Y-148881277D01*
X112244642Y-148881279D01*
X112248941Y-148887713D01*
X112287442Y-148945333D01*
X112374567Y-149032458D01*
X112374570Y-149032460D01*
X112382051Y-149039941D01*
X113093227Y-149751117D01*
X113126712Y-149812440D01*
X113121728Y-149882132D01*
X113090104Y-149927337D01*
X113091080Y-149928313D01*
X112931756Y-150087636D01*
X112931752Y-150087641D01*
X112802187Y-150265974D01*
X112702104Y-150462393D01*
X112702103Y-150462396D01*
X112633985Y-150672047D01*
X112606138Y-150847867D01*
X112599500Y-150889778D01*
X112599500Y-151110222D01*
X112606496Y-151154394D01*
X112633985Y-151327952D01*
X112702103Y-151537603D01*
X112702104Y-151537606D01*
X112766833Y-151664641D01*
X112781171Y-151692781D01*
X112802187Y-151734025D01*
X112931752Y-151912358D01*
X112931756Y-151912363D01*
X113087636Y-152068243D01*
X113087641Y-152068247D01*
X113243192Y-152181260D01*
X113265978Y-152197815D01*
X113356220Y-152243796D01*
X113462393Y-152297895D01*
X113462396Y-152297896D01*
X113567221Y-152331955D01*
X113672049Y-152366015D01*
X113889778Y-152400500D01*
X113889779Y-152400500D01*
X114110221Y-152400500D01*
X114110222Y-152400500D01*
X114327951Y-152366015D01*
X114537606Y-152297895D01*
X114734022Y-152197815D01*
X114912365Y-152068242D01*
X115068242Y-151912365D01*
X115197815Y-151734022D01*
X115297895Y-151537606D01*
X115366015Y-151327951D01*
X115400500Y-151110222D01*
X115400500Y-150889778D01*
X115366015Y-150672049D01*
X115320280Y-150531290D01*
X115297896Y-150462396D01*
X115297895Y-150462393D01*
X115261008Y-150390000D01*
X115197815Y-150265978D01*
X115128267Y-150170253D01*
X115068247Y-150087641D01*
X115068243Y-150087636D01*
X114912363Y-149931756D01*
X114912358Y-149931752D01*
X114734023Y-149802185D01*
X114686878Y-149778163D01*
X114686650Y-149777948D01*
X114686343Y-149777889D01*
X114661196Y-149753906D01*
X114636083Y-149730188D01*
X114635931Y-149729812D01*
X114635781Y-149729669D01*
X114634474Y-149726196D01*
X114622667Y-149696902D01*
X114622057Y-149694389D01*
X114601463Y-149590849D01*
X114594257Y-149573453D01*
X114587795Y-149557853D01*
X114557598Y-149484949D01*
X114557596Y-149484944D01*
X114554313Y-149477017D01*
X114554311Y-149477013D01*
X114514375Y-149417246D01*
X114514375Y-149417245D01*
X114514373Y-149417244D01*
X114485858Y-149374567D01*
X114485857Y-149374565D01*
X114395637Y-149284345D01*
X114395606Y-149284316D01*
X113710510Y-148599220D01*
X113677025Y-148537897D01*
X113682009Y-148468205D01*
X113723881Y-148412272D01*
X113789345Y-148387855D01*
X113817585Y-148389065D01*
X113889778Y-148400500D01*
X113889779Y-148400500D01*
X114110221Y-148400500D01*
X114110222Y-148400500D01*
X114327951Y-148366015D01*
X114537606Y-148297895D01*
X114734022Y-148197815D01*
X114912365Y-148068242D01*
X115068242Y-147912365D01*
X115197815Y-147734022D01*
X115297895Y-147537606D01*
X115366015Y-147327951D01*
X115400500Y-147110222D01*
X115400500Y-146889778D01*
X115366015Y-146672049D01*
X115329084Y-146558386D01*
X115297896Y-146462396D01*
X115297895Y-146462393D01*
X115262425Y-146392781D01*
X115197815Y-146265978D01*
X115153722Y-146205289D01*
X115068247Y-146087641D01*
X115068243Y-146087636D01*
X114912363Y-145931756D01*
X114912358Y-145931752D01*
X114734025Y-145802187D01*
X114734024Y-145802186D01*
X114734022Y-145802185D01*
X114671096Y-145770122D01*
X114537606Y-145702104D01*
X114537603Y-145702103D01*
X114327952Y-145633985D01*
X114219086Y-145616742D01*
X114110222Y-145599500D01*
X113889778Y-145599500D01*
X113846232Y-145606397D01*
X113672045Y-145633985D01*
X113561117Y-145670027D01*
X113491276Y-145672022D01*
X113431443Y-145635941D01*
X113400616Y-145573239D01*
X113398800Y-145552096D01*
X113398800Y-138023052D01*
X113418485Y-137956013D01*
X113471289Y-137910258D01*
X113540447Y-137900314D01*
X113604003Y-137929339D01*
X113610481Y-137935371D01*
X118338181Y-142663071D01*
X118371666Y-142724394D01*
X118374500Y-142750752D01*
X118374500Y-149670902D01*
X118354815Y-149737941D01*
X118306796Y-149781386D01*
X118265976Y-149802185D01*
X118087641Y-149931752D01*
X118087636Y-149931756D01*
X117931756Y-150087636D01*
X117931752Y-150087641D01*
X117802187Y-150265974D01*
X117702104Y-150462393D01*
X117702103Y-150462396D01*
X117633985Y-150672047D01*
X117606138Y-150847867D01*
X117599500Y-150889778D01*
X117599500Y-151110222D01*
X117606496Y-151154394D01*
X117633985Y-151327952D01*
X117702103Y-151537603D01*
X117702104Y-151537606D01*
X117766833Y-151664641D01*
X117781171Y-151692781D01*
X117802187Y-151734025D01*
X117931752Y-151912358D01*
X117931756Y-151912363D01*
X118087636Y-152068243D01*
X118087641Y-152068247D01*
X118243192Y-152181260D01*
X118265978Y-152197815D01*
X118356220Y-152243796D01*
X118462393Y-152297895D01*
X118462396Y-152297896D01*
X118567221Y-152331955D01*
X118672049Y-152366015D01*
X118889778Y-152400500D01*
X118889779Y-152400500D01*
X119110221Y-152400500D01*
X119110222Y-152400500D01*
X119327951Y-152366015D01*
X119537606Y-152297895D01*
X119734022Y-152197815D01*
X119846704Y-152115947D01*
X119912505Y-152092469D01*
X119980559Y-152108294D01*
X120007266Y-152128586D01*
X120022813Y-152144133D01*
X120213828Y-152282914D01*
X120424197Y-152390102D01*
X120648752Y-152463065D01*
X120648751Y-152463065D01*
X120881948Y-152500000D01*
X121250000Y-152500000D01*
X121250000Y-151708240D01*
X121281233Y-151721178D01*
X121426131Y-151750000D01*
X121573869Y-151750000D01*
X121718767Y-151721178D01*
X121750000Y-151708240D01*
X121750000Y-152500000D01*
X122118052Y-152500000D01*
X122351247Y-152463065D01*
X122575802Y-152390102D01*
X122786171Y-152282914D01*
X122977186Y-152144133D01*
X123144133Y-151977186D01*
X123282914Y-151786171D01*
X123390102Y-151575802D01*
X123463065Y-151351247D01*
X123479102Y-151250000D01*
X122208241Y-151250000D01*
X122221178Y-151218767D01*
X122250000Y-151073869D01*
X122250000Y-150926131D01*
X122221178Y-150781233D01*
X122208241Y-150750000D01*
X123451500Y-150750000D01*
X123451500Y-150613158D01*
X123390102Y-150424197D01*
X123282914Y-150213828D01*
X123144133Y-150022813D01*
X122977186Y-149855866D01*
X122786171Y-149717085D01*
X122575802Y-149609897D01*
X122351247Y-149536934D01*
X122351248Y-149536934D01*
X122118052Y-149500000D01*
X121750000Y-149500000D01*
X121750000Y-150291759D01*
X121718767Y-150278822D01*
X121573869Y-150250000D01*
X121426131Y-150250000D01*
X121281233Y-150278822D01*
X121250000Y-150291759D01*
X121250000Y-149500000D01*
X120881948Y-149500000D01*
X120648752Y-149536934D01*
X120424197Y-149609897D01*
X120213825Y-149717087D01*
X120022819Y-149855860D01*
X120007264Y-149871415D01*
X119979573Y-149886534D01*
X119952789Y-149903203D01*
X119949141Y-149903150D01*
X119945940Y-149904898D01*
X119914465Y-149902646D01*
X119882927Y-149902188D01*
X119878737Y-149900090D01*
X119876248Y-149899912D01*
X119851038Y-149887062D01*
X119848828Y-149885596D01*
X119734022Y-149802185D01*
X119686877Y-149778163D01*
X119680953Y-149774233D01*
X119662850Y-149752717D01*
X119642408Y-149733411D01*
X119640419Y-149726059D01*
X119635970Y-149720771D01*
X119633217Y-149699433D01*
X119625500Y-149670902D01*
X119625500Y-149152135D01*
X123699500Y-149152135D01*
X123699500Y-150847867D01*
X123699501Y-150847876D01*
X123705908Y-150907483D01*
X123756202Y-151042328D01*
X123756206Y-151042335D01*
X123842452Y-151157544D01*
X123842455Y-151157547D01*
X123957664Y-151243793D01*
X123957671Y-151243797D01*
X124002618Y-151260561D01*
X124092517Y-151294091D01*
X124129441Y-151298060D01*
X124193989Y-151324796D01*
X124233838Y-151382188D01*
X124236333Y-151452013D01*
X124200681Y-151512102D01*
X124189071Y-151521666D01*
X124152784Y-151548030D01*
X124008028Y-151692786D01*
X123887715Y-151858386D01*
X123794781Y-152040776D01*
X123731522Y-152235465D01*
X123699500Y-152437648D01*
X123699500Y-152642351D01*
X123731522Y-152844534D01*
X123794781Y-153039223D01*
X123887715Y-153221613D01*
X124008028Y-153387213D01*
X124152786Y-153531971D01*
X124276901Y-153622144D01*
X124318390Y-153652287D01*
X124409840Y-153698883D01*
X124411080Y-153699515D01*
X124461876Y-153747490D01*
X124478671Y-153815311D01*
X124456134Y-153881446D01*
X124411080Y-153920485D01*
X124318386Y-153967715D01*
X124152786Y-154088028D01*
X124008028Y-154232786D01*
X123887715Y-154398386D01*
X123794781Y-154580776D01*
X123731522Y-154775465D01*
X123699500Y-154977648D01*
X123699500Y-155182351D01*
X123731522Y-155384534D01*
X123794781Y-155579223D01*
X123846090Y-155679920D01*
X123884957Y-155756202D01*
X123887715Y-155761613D01*
X124008028Y-155927213D01*
X124152786Y-156071971D01*
X124264460Y-156153105D01*
X124318390Y-156192287D01*
X124390424Y-156228990D01*
X124411629Y-156239795D01*
X124462425Y-156287770D01*
X124479220Y-156355591D01*
X124456682Y-156421726D01*
X124411629Y-156460765D01*
X124318650Y-156508140D01*
X124153105Y-156628417D01*
X124153104Y-156628417D01*
X124008417Y-156773104D01*
X124008417Y-156773105D01*
X123888140Y-156938650D01*
X123795244Y-157120970D01*
X123732009Y-157315586D01*
X123723391Y-157370000D01*
X124684314Y-157370000D01*
X124679920Y-157374394D01*
X124627259Y-157465606D01*
X124600000Y-157567339D01*
X124600000Y-157672661D01*
X124627259Y-157774394D01*
X124679920Y-157865606D01*
X124684314Y-157870000D01*
X123723391Y-157870000D01*
X123732009Y-157924413D01*
X123795244Y-158119029D01*
X123888140Y-158301349D01*
X124008417Y-158466894D01*
X124008417Y-158466895D01*
X124153104Y-158611582D01*
X124318650Y-158731859D01*
X124500968Y-158824754D01*
X124695578Y-158887988D01*
X124750000Y-158896607D01*
X124750000Y-157935686D01*
X124754394Y-157940080D01*
X124845606Y-157992741D01*
X124947339Y-158020000D01*
X125052661Y-158020000D01*
X125154394Y-157992741D01*
X125245606Y-157940080D01*
X125250000Y-157935686D01*
X125250000Y-158896606D01*
X125304421Y-158887988D01*
X125499031Y-158824754D01*
X125681349Y-158731859D01*
X125846894Y-158611582D01*
X125846895Y-158611582D01*
X125991582Y-158466895D01*
X125991582Y-158466894D01*
X126111859Y-158301349D01*
X126204755Y-158119029D01*
X126267990Y-157924413D01*
X126276609Y-157870000D01*
X125315686Y-157870000D01*
X125320080Y-157865606D01*
X125372741Y-157774394D01*
X125400000Y-157672661D01*
X125400000Y-157567339D01*
X125372741Y-157465606D01*
X125320080Y-157374394D01*
X125315686Y-157370000D01*
X126276609Y-157370000D01*
X126267990Y-157315586D01*
X126204755Y-157120970D01*
X126111859Y-156938650D01*
X125991582Y-156773105D01*
X125991582Y-156773104D01*
X125846895Y-156628417D01*
X125681349Y-156508140D01*
X125588370Y-156460765D01*
X125537574Y-156412790D01*
X125520779Y-156344969D01*
X125543316Y-156278835D01*
X125588370Y-156239795D01*
X125681610Y-156192287D01*
X125736886Y-156152127D01*
X125847213Y-156071971D01*
X125847215Y-156071968D01*
X125847219Y-156071966D01*
X125991966Y-155927219D01*
X125991968Y-155927215D01*
X125991971Y-155927213D01*
X126068446Y-155821952D01*
X126112287Y-155761610D01*
X126205220Y-155579219D01*
X126268477Y-155384534D01*
X126300500Y-155182352D01*
X126300500Y-154977648D01*
X126293614Y-154934174D01*
X126268477Y-154775465D01*
X126205218Y-154580776D01*
X126144998Y-154462589D01*
X126112287Y-154398390D01*
X126104556Y-154387749D01*
X125991971Y-154232786D01*
X125847213Y-154088028D01*
X125681614Y-153967715D01*
X125675006Y-153964348D01*
X125588917Y-153920483D01*
X125538123Y-153872511D01*
X125521328Y-153804690D01*
X125543865Y-153738555D01*
X125588917Y-153699516D01*
X125681610Y-153652287D01*
X125723099Y-153622144D01*
X125847213Y-153531971D01*
X125847215Y-153531968D01*
X125847219Y-153531966D01*
X125991966Y-153387219D01*
X125991968Y-153387215D01*
X125991971Y-153387213D01*
X126044732Y-153314590D01*
X126112287Y-153221610D01*
X126205220Y-153039219D01*
X126268477Y-152844534D01*
X126300500Y-152642352D01*
X126300500Y-152437648D01*
X126278365Y-152297895D01*
X126268477Y-152235465D01*
X126238801Y-152144133D01*
X126205220Y-152040781D01*
X126205218Y-152040778D01*
X126205218Y-152040776D01*
X126162657Y-151957246D01*
X126112287Y-151858390D01*
X126065956Y-151794620D01*
X125991971Y-151692786D01*
X125847219Y-151548034D01*
X125810930Y-151521669D01*
X125768264Y-151466339D01*
X125762285Y-151396726D01*
X125794890Y-151334931D01*
X125855728Y-151300573D01*
X125870562Y-151298060D01*
X125907483Y-151294091D01*
X125976158Y-151268477D01*
X126042331Y-151243796D01*
X126157546Y-151157546D01*
X126243796Y-151042331D01*
X126294091Y-150907483D01*
X126300500Y-150847873D01*
X126300499Y-150687899D01*
X126304299Y-150674958D01*
X126303341Y-150661506D01*
X126313949Y-150642092D01*
X126320183Y-150620861D01*
X126331105Y-150610694D01*
X126336844Y-150600193D01*
X126356481Y-150587076D01*
X126365105Y-150579050D01*
X126370917Y-150575878D01*
X126422986Y-150554312D01*
X126474209Y-150520084D01*
X126525433Y-150485858D01*
X126612558Y-150398733D01*
X126612559Y-150398731D01*
X126619625Y-150391665D01*
X126619628Y-150391661D01*
X133498134Y-143513154D01*
X133559455Y-143479671D01*
X133629147Y-143484655D01*
X133685080Y-143526527D01*
X133709497Y-143591991D01*
X133703744Y-143639154D01*
X133682754Y-143703755D01*
X133682753Y-143703759D01*
X133649500Y-143913713D01*
X133649500Y-144126286D01*
X133680449Y-144321694D01*
X133682754Y-144336243D01*
X133745799Y-144530276D01*
X133748444Y-144538414D01*
X133844948Y-144727815D01*
X133939089Y-144857390D01*
X133962568Y-144923197D01*
X133946742Y-144991251D01*
X133926451Y-145017956D01*
X131085769Y-147858640D01*
X130998644Y-147945764D01*
X130998638Y-147945772D01*
X130930190Y-148048208D01*
X130930188Y-148048213D01*
X130914032Y-148087218D01*
X130883038Y-148162044D01*
X130883035Y-148162056D01*
X130859000Y-148282889D01*
X130859000Y-155701110D01*
X130883035Y-155821946D01*
X130883039Y-155821958D01*
X130889813Y-155838313D01*
X130889817Y-155838321D01*
X130891529Y-155842454D01*
X130930188Y-155935786D01*
X130960066Y-155980500D01*
X130964348Y-155986909D01*
X130964351Y-155986914D01*
X130998638Y-156038228D01*
X130998639Y-156038229D01*
X130998642Y-156038233D01*
X131085767Y-156125358D01*
X131085769Y-156125359D01*
X131092835Y-156132425D01*
X131092834Y-156132425D01*
X131092838Y-156132428D01*
X131597398Y-156636988D01*
X131630883Y-156698311D01*
X131625899Y-156768003D01*
X131610035Y-156797554D01*
X131507715Y-156938386D01*
X131414781Y-157120776D01*
X131351522Y-157315465D01*
X131319500Y-157517648D01*
X131319500Y-157722351D01*
X131351522Y-157924534D01*
X131414781Y-158119223D01*
X131446109Y-158180706D01*
X131507147Y-158300500D01*
X131507715Y-158301613D01*
X131628028Y-158467213D01*
X131772786Y-158611971D01*
X131927749Y-158724556D01*
X131938390Y-158732287D01*
X132054607Y-158791503D01*
X132120776Y-158825218D01*
X132120778Y-158825218D01*
X132120781Y-158825220D01*
X132225137Y-158859127D01*
X132315465Y-158888477D01*
X132416557Y-158904488D01*
X132517648Y-158920500D01*
X132517649Y-158920500D01*
X132722351Y-158920500D01*
X132722352Y-158920500D01*
X132924534Y-158888477D01*
X133119219Y-158825220D01*
X133301610Y-158732287D01*
X133394590Y-158664732D01*
X133467213Y-158611971D01*
X133467215Y-158611968D01*
X133467219Y-158611966D01*
X133611966Y-158467219D01*
X133611968Y-158467215D01*
X133611971Y-158467213D01*
X133664732Y-158394590D01*
X133732287Y-158301610D01*
X133825220Y-158119219D01*
X133888477Y-157924534D01*
X133920500Y-157722352D01*
X133920500Y-157517648D01*
X133901866Y-157400000D01*
X133888477Y-157315465D01*
X133837166Y-157157547D01*
X133825220Y-157120781D01*
X133825218Y-157120778D01*
X133825218Y-157120776D01*
X133785246Y-157042328D01*
X133732287Y-156938390D01*
X133709831Y-156907482D01*
X133611971Y-156772786D01*
X133467213Y-156628028D01*
X133301616Y-156507716D01*
X133301176Y-156507447D01*
X133301043Y-156507300D01*
X133297669Y-156504849D01*
X133298184Y-156504139D01*
X133279015Y-156482951D01*
X133256092Y-156459195D01*
X133255177Y-156456602D01*
X133254301Y-156455634D01*
X133244350Y-156425911D01*
X133232339Y-156365526D01*
X133225737Y-156332336D01*
X133231964Y-156262747D01*
X133274827Y-156207569D01*
X133291059Y-156197662D01*
X133301610Y-156192287D01*
X133356875Y-156152135D01*
X134699500Y-156152135D01*
X134699500Y-157847870D01*
X134699501Y-157847876D01*
X134705908Y-157907483D01*
X134756202Y-158042328D01*
X134756206Y-158042335D01*
X134842452Y-158157544D01*
X134842455Y-158157547D01*
X134957664Y-158243793D01*
X134957671Y-158243797D01*
X135092517Y-158294091D01*
X135092516Y-158294091D01*
X135099444Y-158294835D01*
X135152127Y-158300500D01*
X136847872Y-158300499D01*
X136907483Y-158294091D01*
X137042331Y-158243796D01*
X137157546Y-158157546D01*
X137243796Y-158042331D01*
X137294091Y-157907483D01*
X137300500Y-157847873D01*
X137300499Y-156750000D01*
X139723391Y-156750000D01*
X140684314Y-156750000D01*
X140679920Y-156754394D01*
X140627259Y-156845606D01*
X140600000Y-156947339D01*
X140600000Y-157052661D01*
X140627259Y-157154394D01*
X140679920Y-157245606D01*
X140684314Y-157250000D01*
X139723391Y-157250000D01*
X139732009Y-157304413D01*
X139795244Y-157499029D01*
X139888140Y-157681349D01*
X140008417Y-157846894D01*
X140008417Y-157846895D01*
X140153104Y-157991582D01*
X140318650Y-158111859D01*
X140500968Y-158204754D01*
X140695578Y-158267988D01*
X140750000Y-158276607D01*
X140750000Y-157315686D01*
X140754394Y-157320080D01*
X140845606Y-157372741D01*
X140947339Y-157400000D01*
X141052661Y-157400000D01*
X141154394Y-157372741D01*
X141245606Y-157320080D01*
X141250000Y-157315686D01*
X141250000Y-158276606D01*
X141304421Y-158267988D01*
X141499031Y-158204754D01*
X141681349Y-158111859D01*
X141846894Y-157991582D01*
X141846895Y-157991582D01*
X141991582Y-157846895D01*
X141991582Y-157846894D01*
X142111859Y-157681349D01*
X142204755Y-157499029D01*
X142267990Y-157304413D01*
X142276609Y-157250000D01*
X141315686Y-157250000D01*
X141320080Y-157245606D01*
X141372741Y-157154394D01*
X141400000Y-157052661D01*
X141400000Y-156947339D01*
X141372741Y-156845606D01*
X141320080Y-156754394D01*
X141315686Y-156750000D01*
X142276609Y-156750000D01*
X142267990Y-156695586D01*
X142204755Y-156500970D01*
X142111859Y-156318650D01*
X141991582Y-156153105D01*
X141991582Y-156153104D01*
X141846895Y-156008417D01*
X141681349Y-155888140D01*
X141499029Y-155795244D01*
X141304413Y-155732009D01*
X141250000Y-155723390D01*
X141250000Y-156684314D01*
X141245606Y-156679920D01*
X141154394Y-156627259D01*
X141052661Y-156600000D01*
X140947339Y-156600000D01*
X140845606Y-156627259D01*
X140754394Y-156679920D01*
X140750000Y-156684314D01*
X140750000Y-155723390D01*
X140695586Y-155732009D01*
X140500970Y-155795244D01*
X140318650Y-155888140D01*
X140153105Y-156008417D01*
X140153104Y-156008417D01*
X140008417Y-156153104D01*
X140008417Y-156153105D01*
X139888140Y-156318650D01*
X139795244Y-156500970D01*
X139732009Y-156695586D01*
X139723391Y-156750000D01*
X137300499Y-156750000D01*
X137300499Y-156152128D01*
X137294091Y-156092517D01*
X137286426Y-156071967D01*
X137243797Y-155957671D01*
X137243793Y-155957664D01*
X137157546Y-155842454D01*
X137157544Y-155842452D01*
X137042335Y-155756206D01*
X137042328Y-155756202D01*
X136907482Y-155705908D01*
X136907483Y-155705908D01*
X136847883Y-155699501D01*
X136847881Y-155699500D01*
X136847873Y-155699500D01*
X136847864Y-155699500D01*
X135152129Y-155699500D01*
X135152123Y-155699501D01*
X135092516Y-155705908D01*
X134957671Y-155756202D01*
X134957664Y-155756206D01*
X134842455Y-155842452D01*
X134842454Y-155842454D01*
X134756206Y-155957664D01*
X134756202Y-155957671D01*
X134705908Y-156092517D01*
X134699898Y-156148422D01*
X134699501Y-156152123D01*
X134699500Y-156152135D01*
X133356875Y-156152135D01*
X133438933Y-156092517D01*
X133467213Y-156071971D01*
X133467215Y-156071968D01*
X133467219Y-156071966D01*
X133611966Y-155927219D01*
X133611968Y-155927215D01*
X133611971Y-155927213D01*
X133688446Y-155821952D01*
X133732287Y-155761610D01*
X133825220Y-155579219D01*
X133888477Y-155384534D01*
X133920500Y-155182352D01*
X133920500Y-155152135D01*
X146699500Y-155152135D01*
X146699500Y-156847870D01*
X146699501Y-156847876D01*
X146705908Y-156907483D01*
X146756202Y-157042328D01*
X146756206Y-157042335D01*
X146842452Y-157157544D01*
X146842455Y-157157547D01*
X146957664Y-157243793D01*
X146957671Y-157243797D01*
X147092517Y-157294091D01*
X147092516Y-157294091D01*
X147099444Y-157294835D01*
X147152127Y-157300500D01*
X148847872Y-157300499D01*
X148907483Y-157294091D01*
X149042331Y-157243796D01*
X149157546Y-157157546D01*
X149243796Y-157042331D01*
X149294091Y-156907483D01*
X149300500Y-156847873D01*
X149300499Y-155750000D01*
X151723391Y-155750000D01*
X152684314Y-155750000D01*
X152679920Y-155754394D01*
X152627259Y-155845606D01*
X152600000Y-155947339D01*
X152600000Y-156052661D01*
X152627259Y-156154394D01*
X152679920Y-156245606D01*
X152684314Y-156250000D01*
X151723391Y-156250000D01*
X151732009Y-156304413D01*
X151795244Y-156499029D01*
X151888140Y-156681349D01*
X152008417Y-156846894D01*
X152008417Y-156846895D01*
X152153104Y-156991582D01*
X152318650Y-157111859D01*
X152500968Y-157204754D01*
X152695578Y-157267988D01*
X152750000Y-157276607D01*
X152750000Y-156315686D01*
X152754394Y-156320080D01*
X152845606Y-156372741D01*
X152947339Y-156400000D01*
X153052661Y-156400000D01*
X153154394Y-156372741D01*
X153245606Y-156320080D01*
X153250000Y-156315686D01*
X153250000Y-157276606D01*
X153304421Y-157267988D01*
X153499031Y-157204754D01*
X153681349Y-157111859D01*
X153846894Y-156991582D01*
X153846895Y-156991582D01*
X153991582Y-156846895D01*
X153991582Y-156846894D01*
X154111859Y-156681349D01*
X154204755Y-156499029D01*
X154267990Y-156304413D01*
X154276609Y-156250000D01*
X153315686Y-156250000D01*
X153320080Y-156245606D01*
X153372741Y-156154394D01*
X153400000Y-156052661D01*
X153400000Y-155947339D01*
X153372741Y-155845606D01*
X153320080Y-155754394D01*
X153315686Y-155750000D01*
X154276609Y-155750000D01*
X154267990Y-155695586D01*
X154204755Y-155500970D01*
X154111859Y-155318650D01*
X153991582Y-155153105D01*
X153991582Y-155153104D01*
X153846895Y-155008417D01*
X153681349Y-154888140D01*
X153499029Y-154795244D01*
X153304413Y-154732009D01*
X153250000Y-154723390D01*
X153250000Y-155684314D01*
X153245606Y-155679920D01*
X153154394Y-155627259D01*
X153052661Y-155600000D01*
X152947339Y-155600000D01*
X152845606Y-155627259D01*
X152754394Y-155679920D01*
X152750000Y-155684314D01*
X152750000Y-154723390D01*
X152695586Y-154732009D01*
X152500970Y-154795244D01*
X152318650Y-154888140D01*
X152153105Y-155008417D01*
X152153104Y-155008417D01*
X152008417Y-155153104D01*
X152008417Y-155153105D01*
X151888140Y-155318650D01*
X151795244Y-155500970D01*
X151732009Y-155695586D01*
X151723391Y-155750000D01*
X149300499Y-155750000D01*
X149300499Y-155152128D01*
X149294091Y-155092517D01*
X149243796Y-154957669D01*
X149243795Y-154957668D01*
X149243793Y-154957664D01*
X149157547Y-154842455D01*
X149157544Y-154842452D01*
X149042335Y-154756206D01*
X149042328Y-154756202D01*
X148907482Y-154705908D01*
X148907483Y-154705908D01*
X148847883Y-154699501D01*
X148847881Y-154699500D01*
X148847873Y-154699500D01*
X148847864Y-154699500D01*
X147152129Y-154699500D01*
X147152123Y-154699501D01*
X147092516Y-154705908D01*
X146957671Y-154756202D01*
X146957664Y-154756206D01*
X146842455Y-154842452D01*
X146842452Y-154842455D01*
X146756206Y-154957664D01*
X146756202Y-154957671D01*
X146705908Y-155092517D01*
X146699501Y-155152116D01*
X146699501Y-155152123D01*
X146699500Y-155152135D01*
X133920500Y-155152135D01*
X133920500Y-154977648D01*
X133913614Y-154934174D01*
X133888477Y-154775465D01*
X133825218Y-154580776D01*
X133764998Y-154462589D01*
X133732287Y-154398390D01*
X133681773Y-154328864D01*
X133630006Y-154257611D01*
X133606526Y-154191805D01*
X133622352Y-154123751D01*
X133642639Y-154097049D01*
X134145429Y-153594260D01*
X134145433Y-153594258D01*
X134232558Y-153507133D01*
X134277081Y-153440500D01*
X134301012Y-153404686D01*
X134348163Y-153290851D01*
X134372200Y-153170007D01*
X134372200Y-153046793D01*
X134372200Y-151472751D01*
X134380844Y-151443310D01*
X134387368Y-151413324D01*
X134391122Y-151408308D01*
X134391885Y-151405712D01*
X134408515Y-151385074D01*
X134487820Y-151305769D01*
X134549142Y-151272285D01*
X134618834Y-151277269D01*
X134674767Y-151319141D01*
X134699184Y-151384605D01*
X134699500Y-151393451D01*
X134699500Y-151847870D01*
X134699501Y-151847876D01*
X134705908Y-151907483D01*
X134756202Y-152042328D01*
X134756206Y-152042335D01*
X134842452Y-152157544D01*
X134842455Y-152157547D01*
X134957664Y-152243793D01*
X134957671Y-152243797D01*
X135092517Y-152294091D01*
X135092516Y-152294091D01*
X135099444Y-152294835D01*
X135152127Y-152300500D01*
X136847872Y-152300499D01*
X136907483Y-152294091D01*
X137042331Y-152243796D01*
X137157546Y-152157546D01*
X137243796Y-152042331D01*
X137294091Y-151907483D01*
X137300500Y-151847873D01*
X137300499Y-150750000D01*
X139723391Y-150750000D01*
X140684314Y-150750000D01*
X140679920Y-150754394D01*
X140627259Y-150845606D01*
X140600000Y-150947339D01*
X140600000Y-151052661D01*
X140627259Y-151154394D01*
X140679920Y-151245606D01*
X140684314Y-151250000D01*
X139723391Y-151250000D01*
X139732009Y-151304413D01*
X139795244Y-151499029D01*
X139888140Y-151681349D01*
X140008417Y-151846894D01*
X140008417Y-151846895D01*
X140153104Y-151991582D01*
X140318650Y-152111859D01*
X140500968Y-152204754D01*
X140695578Y-152267988D01*
X140750000Y-152276607D01*
X140750000Y-151315686D01*
X140754394Y-151320080D01*
X140845606Y-151372741D01*
X140947339Y-151400000D01*
X141052661Y-151400000D01*
X141154394Y-151372741D01*
X141245606Y-151320080D01*
X141250000Y-151315686D01*
X141250000Y-152276606D01*
X141304421Y-152267988D01*
X141499031Y-152204754D01*
X141681349Y-152111859D01*
X141846894Y-151991582D01*
X141846895Y-151991582D01*
X141991582Y-151846895D01*
X141991582Y-151846894D01*
X142111859Y-151681349D01*
X142204755Y-151499029D01*
X142267990Y-151304413D01*
X142276609Y-151250000D01*
X141315686Y-151250000D01*
X141320080Y-151245606D01*
X141372741Y-151154394D01*
X141400000Y-151052661D01*
X141400000Y-150947339D01*
X141372741Y-150845606D01*
X141320080Y-150754394D01*
X141315686Y-150750000D01*
X142276609Y-150750000D01*
X142267990Y-150695586D01*
X142204755Y-150500970D01*
X142111859Y-150318650D01*
X141991582Y-150153105D01*
X141991582Y-150153104D01*
X141846895Y-150008417D01*
X141681349Y-149888140D01*
X141499029Y-149795244D01*
X141304413Y-149732009D01*
X141250000Y-149723390D01*
X141250000Y-150684314D01*
X141245606Y-150679920D01*
X141154394Y-150627259D01*
X141052661Y-150600000D01*
X140947339Y-150600000D01*
X140845606Y-150627259D01*
X140754394Y-150679920D01*
X140750000Y-150684314D01*
X140750000Y-149723390D01*
X140695586Y-149732009D01*
X140500970Y-149795244D01*
X140318650Y-149888140D01*
X140153105Y-150008417D01*
X140153104Y-150008417D01*
X140008417Y-150153104D01*
X140008417Y-150153105D01*
X139888140Y-150318650D01*
X139795244Y-150500970D01*
X139732009Y-150695586D01*
X139723391Y-150750000D01*
X137300499Y-150750000D01*
X137300499Y-150152128D01*
X137294091Y-150092517D01*
X137292272Y-150087641D01*
X137243797Y-149957671D01*
X137243793Y-149957664D01*
X137157547Y-149842455D01*
X137157544Y-149842452D01*
X137042335Y-149756206D01*
X137042328Y-149756202D01*
X136907482Y-149705908D01*
X136907483Y-149705908D01*
X136847883Y-149699501D01*
X136847881Y-149699500D01*
X136847873Y-149699500D01*
X136847865Y-149699500D01*
X136393451Y-149699500D01*
X136326412Y-149679815D01*
X136280657Y-149627011D01*
X136270713Y-149557853D01*
X136299738Y-149494297D01*
X136305770Y-149487819D01*
X136785556Y-149008034D01*
X137395071Y-148398519D01*
X137456394Y-148365034D01*
X137482752Y-148362200D01*
X137601607Y-148362200D01*
X137601608Y-148362199D01*
X137722452Y-148338163D01*
X137836286Y-148291011D01*
X137938733Y-148222558D01*
X138025858Y-148135433D01*
X138094311Y-148032986D01*
X138141463Y-147919152D01*
X138162911Y-147811320D01*
X138195295Y-147749412D01*
X138228233Y-147725028D01*
X138247816Y-147715051D01*
X138247815Y-147715051D01*
X138247818Y-147715050D01*
X138419786Y-147590109D01*
X138419788Y-147590106D01*
X138419792Y-147590104D01*
X138570104Y-147439792D01*
X138570106Y-147439788D01*
X138570109Y-147439786D01*
X138687184Y-147278644D01*
X138695051Y-147267816D01*
X138791557Y-147078412D01*
X138857246Y-146876243D01*
X138890500Y-146666287D01*
X138890500Y-146453713D01*
X138857246Y-146243757D01*
X138791557Y-146041588D01*
X138695051Y-145852184D01*
X138695049Y-145852181D01*
X138695048Y-145852179D01*
X138570109Y-145680213D01*
X138419786Y-145529890D01*
X138247820Y-145404951D01*
X138247115Y-145404591D01*
X138239054Y-145400485D01*
X138188259Y-145352512D01*
X138171463Y-145284692D01*
X138193999Y-145218556D01*
X138239054Y-145179515D01*
X138247816Y-145175051D01*
X138304870Y-145133599D01*
X138419786Y-145050109D01*
X138419788Y-145050106D01*
X138419792Y-145050104D01*
X138570104Y-144899792D01*
X138570106Y-144899788D01*
X138570109Y-144899786D01*
X138695048Y-144727820D01*
X138695047Y-144727820D01*
X138695051Y-144727816D01*
X138791557Y-144538412D01*
X138857246Y-144336243D01*
X138890500Y-144126287D01*
X138890500Y-143913713D01*
X138857246Y-143703757D01*
X138791557Y-143501588D01*
X138695051Y-143312184D01*
X138695049Y-143312181D01*
X138695048Y-143312179D01*
X138570109Y-143140213D01*
X138419786Y-142989890D01*
X138247820Y-142864951D01*
X138247115Y-142864591D01*
X138239054Y-142860485D01*
X138188259Y-142812512D01*
X138171463Y-142744692D01*
X138193999Y-142678556D01*
X138239054Y-142639515D01*
X138247816Y-142635051D01*
X138359271Y-142554075D01*
X138419786Y-142510109D01*
X138419788Y-142510106D01*
X138419792Y-142510104D01*
X138570104Y-142359792D01*
X138570106Y-142359788D01*
X138570109Y-142359786D01*
X138695048Y-142187820D01*
X138695047Y-142187820D01*
X138695051Y-142187816D01*
X138791557Y-141998412D01*
X138857246Y-141796243D01*
X138890500Y-141586287D01*
X138890500Y-141373713D01*
X138857246Y-141163757D01*
X138791557Y-140961588D01*
X138695051Y-140772184D01*
X138695049Y-140772181D01*
X138695048Y-140772179D01*
X138570109Y-140600213D01*
X138419786Y-140449890D01*
X138247820Y-140324951D01*
X138247115Y-140324591D01*
X138239054Y-140320485D01*
X138188259Y-140272512D01*
X138171463Y-140204692D01*
X138193999Y-140138556D01*
X138239054Y-140099515D01*
X138247816Y-140095051D01*
X138319145Y-140043228D01*
X138419786Y-139970109D01*
X138419788Y-139970106D01*
X138419792Y-139970104D01*
X138570104Y-139819792D01*
X138570106Y-139819788D01*
X138570109Y-139819786D01*
X138695048Y-139647820D01*
X138695047Y-139647820D01*
X138695051Y-139647816D01*
X138791557Y-139458412D01*
X138857246Y-139256243D01*
X138890500Y-139046287D01*
X138890500Y-138833713D01*
X138857246Y-138623757D01*
X138791557Y-138421588D01*
X138695051Y-138232184D01*
X138695049Y-138232181D01*
X138695048Y-138232179D01*
X138570109Y-138060213D01*
X138419786Y-137909890D01*
X138247820Y-137784951D01*
X138247115Y-137784591D01*
X138239054Y-137780485D01*
X138188259Y-137732512D01*
X138171463Y-137664692D01*
X138193999Y-137598556D01*
X138239054Y-137559515D01*
X138247816Y-137555051D01*
X138319203Y-137503186D01*
X138419786Y-137430109D01*
X138419788Y-137430106D01*
X138419792Y-137430104D01*
X138570104Y-137279792D01*
X138570106Y-137279788D01*
X138570109Y-137279786D01*
X138695048Y-137107820D01*
X138695047Y-137107820D01*
X138695051Y-137107816D01*
X138791557Y-136918412D01*
X138857246Y-136716243D01*
X138890500Y-136506287D01*
X138890500Y-136293713D01*
X138857246Y-136083757D01*
X138791557Y-135881588D01*
X138695051Y-135692184D01*
X138695049Y-135692181D01*
X138695048Y-135692179D01*
X138570109Y-135520213D01*
X138419786Y-135369890D01*
X138247820Y-135244951D01*
X138247115Y-135244591D01*
X138239054Y-135240485D01*
X138188259Y-135192512D01*
X138171463Y-135124692D01*
X138193999Y-135058556D01*
X138239054Y-135019515D01*
X138247816Y-135015051D01*
X138316417Y-134965210D01*
X138419786Y-134890109D01*
X138419788Y-134890106D01*
X138419792Y-134890104D01*
X138570104Y-134739792D01*
X138570106Y-134739788D01*
X138570109Y-134739786D01*
X138695048Y-134567820D01*
X138695047Y-134567820D01*
X138695051Y-134567816D01*
X138791557Y-134378412D01*
X138857246Y-134176243D01*
X138890500Y-133966287D01*
X138890500Y-133753713D01*
X138857246Y-133543757D01*
X138791557Y-133341588D01*
X138695051Y-133152184D01*
X138695049Y-133152181D01*
X138695048Y-133152179D01*
X138570109Y-132980213D01*
X138419786Y-132829890D01*
X138247820Y-132704951D01*
X138247115Y-132704591D01*
X138239054Y-132700485D01*
X138188259Y-132652512D01*
X138171463Y-132584692D01*
X138193999Y-132518556D01*
X138239054Y-132479515D01*
X138247816Y-132475051D01*
X138359271Y-132394075D01*
X138419786Y-132350109D01*
X138419788Y-132350106D01*
X138419792Y-132350104D01*
X138570104Y-132199792D01*
X138570106Y-132199788D01*
X138570109Y-132199786D01*
X138695048Y-132027820D01*
X138695047Y-132027820D01*
X138695051Y-132027816D01*
X138791557Y-131838412D01*
X138857246Y-131636243D01*
X138890500Y-131426287D01*
X138890500Y-131213713D01*
X138857246Y-131003757D01*
X138791557Y-130801588D01*
X138695051Y-130612184D01*
X138695049Y-130612181D01*
X138695048Y-130612179D01*
X138570109Y-130440213D01*
X138419786Y-130289890D01*
X138247820Y-130164951D01*
X138247115Y-130164591D01*
X138239054Y-130160485D01*
X138188259Y-130112512D01*
X138171463Y-130044692D01*
X138193999Y-129978556D01*
X138239054Y-129939515D01*
X138247816Y-129935051D01*
X138356057Y-129856410D01*
X138419786Y-129810109D01*
X138419788Y-129810106D01*
X138419792Y-129810104D01*
X138570104Y-129659792D01*
X138570106Y-129659788D01*
X138570109Y-129659786D01*
X138695048Y-129487820D01*
X138695047Y-129487820D01*
X138695051Y-129487816D01*
X138791557Y-129298412D01*
X138857246Y-129096243D01*
X138890500Y-128886287D01*
X138890500Y-128673713D01*
X138857246Y-128463757D01*
X138791557Y-128261588D01*
X138695051Y-128072184D01*
X138695049Y-128072181D01*
X138695048Y-128072179D01*
X138570109Y-127900213D01*
X138419790Y-127749894D01*
X138419785Y-127749890D01*
X138380544Y-127721380D01*
X138380508Y-127721354D01*
X138250024Y-127626553D01*
X143349000Y-127626553D01*
X143349000Y-127784246D01*
X143379761Y-127938889D01*
X143379764Y-127938901D01*
X143440102Y-128084572D01*
X143440109Y-128084584D01*
X143503102Y-128178859D01*
X143523980Y-128245536D01*
X143524000Y-128247750D01*
X143524000Y-139942893D01*
X143524000Y-140066107D01*
X143524000Y-140066109D01*
X143523999Y-140066109D01*
X143531494Y-140103785D01*
X143531498Y-140103803D01*
X143531907Y-140105858D01*
X143548037Y-140186952D01*
X143550971Y-140194035D01*
X143595188Y-140300786D01*
X143607669Y-140319464D01*
X143607670Y-140319465D01*
X143607671Y-140319467D01*
X143663640Y-140403231D01*
X143663641Y-140403232D01*
X143663642Y-140403233D01*
X143750767Y-140490358D01*
X143750768Y-140490358D01*
X143757835Y-140497425D01*
X143757834Y-140497425D01*
X143757838Y-140497428D01*
X146977398Y-143716988D01*
X147010883Y-143778311D01*
X147005899Y-143848003D01*
X146990035Y-143877554D01*
X146887715Y-144018386D01*
X146794781Y-144200776D01*
X146731522Y-144395465D01*
X146699500Y-144597648D01*
X146699500Y-144802351D01*
X146731522Y-145004534D01*
X146794781Y-145199223D01*
X146841035Y-145290000D01*
X146880272Y-145367007D01*
X146887715Y-145381613D01*
X147008028Y-145547213D01*
X147152786Y-145691971D01*
X147304486Y-145802185D01*
X147318390Y-145812287D01*
X147396688Y-145852182D01*
X147411080Y-145859515D01*
X147461876Y-145907490D01*
X147478671Y-145975311D01*
X147456134Y-146041446D01*
X147411080Y-146080485D01*
X147318386Y-146127715D01*
X147152786Y-146248028D01*
X147008028Y-146392786D01*
X146887715Y-146558386D01*
X146794781Y-146740776D01*
X146731522Y-146935465D01*
X146699500Y-147137648D01*
X146699500Y-147342351D01*
X146731522Y-147544534D01*
X146794781Y-147739223D01*
X146840554Y-147829055D01*
X146883002Y-147912365D01*
X146887715Y-147921613D01*
X147008028Y-148087213D01*
X147152786Y-148231971D01*
X147298947Y-148338161D01*
X147318390Y-148352287D01*
X147388196Y-148387855D01*
X147411629Y-148399795D01*
X147462425Y-148447770D01*
X147479220Y-148515591D01*
X147456682Y-148581726D01*
X147411629Y-148620765D01*
X147318650Y-148668140D01*
X147153105Y-148788417D01*
X147153104Y-148788417D01*
X147008417Y-148933104D01*
X147008417Y-148933105D01*
X146888140Y-149098650D01*
X146795244Y-149280970D01*
X146732009Y-149475586D01*
X146723391Y-149530000D01*
X147684314Y-149530000D01*
X147679920Y-149534394D01*
X147627259Y-149625606D01*
X147600000Y-149727339D01*
X147600000Y-149832661D01*
X147627259Y-149934394D01*
X147679920Y-150025606D01*
X147684314Y-150030000D01*
X146723391Y-150030000D01*
X146732009Y-150084413D01*
X146795244Y-150279029D01*
X146888140Y-150461349D01*
X147008417Y-150626894D01*
X147008417Y-150626895D01*
X147153104Y-150771582D01*
X147318650Y-150891859D01*
X147500968Y-150984754D01*
X147695578Y-151047988D01*
X147750000Y-151056607D01*
X147750000Y-150095686D01*
X147754394Y-150100080D01*
X147845606Y-150152741D01*
X147947339Y-150180000D01*
X148052661Y-150180000D01*
X148154394Y-150152741D01*
X148245606Y-150100080D01*
X148250000Y-150095686D01*
X148250000Y-151056606D01*
X148304421Y-151047988D01*
X148499031Y-150984754D01*
X148681349Y-150891859D01*
X148846894Y-150771582D01*
X148846895Y-150771582D01*
X148991582Y-150626895D01*
X148991582Y-150626894D01*
X149111859Y-150461349D01*
X149204755Y-150279029D01*
X149267990Y-150084413D01*
X149276609Y-150030000D01*
X148315686Y-150030000D01*
X148320080Y-150025606D01*
X148372741Y-149934394D01*
X148400000Y-149832661D01*
X148400000Y-149727339D01*
X148372741Y-149625606D01*
X148320080Y-149534394D01*
X148315686Y-149530000D01*
X149276609Y-149530000D01*
X149267990Y-149475586D01*
X149204755Y-149280970D01*
X149111859Y-149098650D01*
X148991582Y-148933105D01*
X148991582Y-148933104D01*
X148846895Y-148788417D01*
X148681349Y-148668140D01*
X148588370Y-148620765D01*
X148537574Y-148572790D01*
X148520779Y-148504969D01*
X148543316Y-148438835D01*
X148588370Y-148399795D01*
X148588920Y-148399515D01*
X148681610Y-148352287D01*
X148702770Y-148336913D01*
X148847213Y-148231971D01*
X148847215Y-148231968D01*
X148847219Y-148231966D01*
X148991966Y-148087219D01*
X148991968Y-148087215D01*
X148991971Y-148087213D01*
X149055116Y-148000300D01*
X149112287Y-147921610D01*
X149205220Y-147739219D01*
X149268477Y-147544534D01*
X149300500Y-147342352D01*
X149300500Y-147137648D01*
X149289768Y-147069890D01*
X149268477Y-146935465D01*
X149232484Y-146824692D01*
X149205220Y-146740781D01*
X149205218Y-146740778D01*
X149205218Y-146740776D01*
X149167263Y-146666286D01*
X149112287Y-146558390D01*
X149104556Y-146547749D01*
X148991971Y-146392786D01*
X148847213Y-146248028D01*
X148681614Y-146127715D01*
X148675006Y-146124348D01*
X148588917Y-146080483D01*
X148538123Y-146032511D01*
X148521328Y-145964690D01*
X148543865Y-145898555D01*
X148588917Y-145859516D01*
X148681610Y-145812287D01*
X148763222Y-145752993D01*
X148847213Y-145691971D01*
X148847215Y-145691968D01*
X148847219Y-145691966D01*
X148991966Y-145547219D01*
X148991968Y-145547215D01*
X148991971Y-145547213D01*
X149054239Y-145461507D01*
X149112287Y-145381610D01*
X149205220Y-145199219D01*
X149268477Y-145004534D01*
X149300500Y-144802352D01*
X149300500Y-144597648D01*
X149289768Y-144529890D01*
X149268477Y-144395465D01*
X149232481Y-144284683D01*
X149205220Y-144200781D01*
X149205218Y-144200778D01*
X149205218Y-144200776D01*
X149167263Y-144126286D01*
X149112287Y-144018390D01*
X149079406Y-143973133D01*
X148991971Y-143852786D01*
X148847213Y-143708028D01*
X148681616Y-143587716D01*
X148681176Y-143587447D01*
X148681043Y-143587300D01*
X148677669Y-143584849D01*
X148678184Y-143584139D01*
X148659015Y-143562951D01*
X148636092Y-143539195D01*
X148635177Y-143536602D01*
X148634301Y-143535634D01*
X148624350Y-143505911D01*
X148610595Y-143436759D01*
X148605737Y-143412336D01*
X148611964Y-143342747D01*
X148654827Y-143287569D01*
X148671059Y-143277662D01*
X148681610Y-143272287D01*
X148765131Y-143211606D01*
X148847213Y-143151971D01*
X148847215Y-143151968D01*
X148847219Y-143151966D01*
X148991966Y-143007219D01*
X148991968Y-143007215D01*
X148991971Y-143007213D01*
X149044732Y-142934590D01*
X149112287Y-142841610D01*
X149205220Y-142659219D01*
X149268477Y-142464534D01*
X149300500Y-142262352D01*
X149300500Y-142057648D01*
X149290554Y-141994853D01*
X149268477Y-141855465D01*
X149230825Y-141739584D01*
X149205220Y-141660781D01*
X149205218Y-141660778D01*
X149205218Y-141660776D01*
X149162979Y-141577878D01*
X149112287Y-141478390D01*
X149087716Y-141444570D01*
X148991971Y-141312786D01*
X148847213Y-141168028D01*
X148681614Y-141047715D01*
X148661574Y-141037504D01*
X148588917Y-141000483D01*
X148538123Y-140952511D01*
X148521328Y-140884690D01*
X148543865Y-140818555D01*
X148588917Y-140779516D01*
X148681610Y-140732287D01*
X148702770Y-140716913D01*
X148847213Y-140611971D01*
X148847215Y-140611968D01*
X148847219Y-140611966D01*
X148991966Y-140467219D01*
X148991968Y-140467215D01*
X148991971Y-140467213D01*
X149044732Y-140394590D01*
X149112287Y-140301610D01*
X149205220Y-140119219D01*
X149268477Y-139924534D01*
X149300500Y-139722352D01*
X149300500Y-139517648D01*
X149282807Y-139405940D01*
X149268477Y-139315465D01*
X149232481Y-139204683D01*
X149205220Y-139120781D01*
X149205218Y-139120778D01*
X149205218Y-139120776D01*
X149141209Y-138995153D01*
X149112287Y-138938390D01*
X149079406Y-138893133D01*
X148991971Y-138772786D01*
X148847213Y-138628028D01*
X148681616Y-138507716D01*
X148681176Y-138507447D01*
X148681043Y-138507300D01*
X148677669Y-138504849D01*
X148678184Y-138504139D01*
X148659015Y-138482951D01*
X148636092Y-138459195D01*
X148635177Y-138456602D01*
X148634301Y-138455634D01*
X148624350Y-138425911D01*
X148615317Y-138380500D01*
X148605737Y-138332336D01*
X148611964Y-138262747D01*
X148654827Y-138207569D01*
X148671059Y-138197662D01*
X148681610Y-138192287D01*
X148763222Y-138132993D01*
X148847213Y-138071971D01*
X148847215Y-138071968D01*
X148847219Y-138071966D01*
X148991966Y-137927219D01*
X149004556Y-137909890D01*
X149014281Y-137896505D01*
X149069610Y-137853839D01*
X149139223Y-137847858D01*
X149201019Y-137880463D01*
X149235377Y-137941302D01*
X149238600Y-137969389D01*
X149238600Y-138038646D01*
X149269361Y-138193289D01*
X149269364Y-138193301D01*
X149329702Y-138338972D01*
X149329709Y-138338985D01*
X149417310Y-138470088D01*
X149417313Y-138470092D01*
X149528807Y-138581586D01*
X149528811Y-138581589D01*
X149659914Y-138669190D01*
X149659927Y-138669197D01*
X149783066Y-138720202D01*
X149805603Y-138729537D01*
X149939656Y-138756202D01*
X149960253Y-138760299D01*
X149960256Y-138760300D01*
X149960258Y-138760300D01*
X150117944Y-138760300D01*
X150117945Y-138760299D01*
X150272597Y-138729537D01*
X150418279Y-138669194D01*
X150549389Y-138581589D01*
X150660889Y-138470089D01*
X150748494Y-138338979D01*
X150808837Y-138193297D01*
X150839600Y-138038642D01*
X150839600Y-138000152D01*
X150859285Y-137933113D01*
X150912089Y-137887358D01*
X150981247Y-137877414D01*
X151044803Y-137906439D01*
X151051279Y-137912469D01*
X152769966Y-139631157D01*
X154480964Y-141342155D01*
X154514449Y-141403478D01*
X154509465Y-141473170D01*
X154503768Y-141486131D01*
X154414782Y-141660776D01*
X154414781Y-141660778D01*
X154414780Y-141660781D01*
X154400815Y-141703759D01*
X154351522Y-141855465D01*
X154319500Y-142057648D01*
X154319500Y-142262351D01*
X154351522Y-142464534D01*
X154414781Y-142659223D01*
X154461035Y-142750000D01*
X154500272Y-142827007D01*
X154507715Y-142841613D01*
X154628028Y-143007213D01*
X154772786Y-143151971D01*
X154903841Y-143247186D01*
X154938390Y-143272287D01*
X155016688Y-143312182D01*
X155031080Y-143319515D01*
X155081876Y-143367490D01*
X155098671Y-143435311D01*
X155076134Y-143501446D01*
X155031080Y-143540485D01*
X154938386Y-143587715D01*
X154772786Y-143708028D01*
X154628028Y-143852786D01*
X154507715Y-144018386D01*
X154414781Y-144200776D01*
X154351522Y-144395465D01*
X154319500Y-144597648D01*
X154319500Y-144802351D01*
X154351522Y-145004534D01*
X154414781Y-145199223D01*
X154461035Y-145290000D01*
X154500272Y-145367007D01*
X154507715Y-145381613D01*
X154628028Y-145547213D01*
X154772786Y-145691971D01*
X154924486Y-145802185D01*
X154938390Y-145812287D01*
X155016688Y-145852182D01*
X155031080Y-145859515D01*
X155081876Y-145907490D01*
X155098671Y-145975311D01*
X155076134Y-146041446D01*
X155031080Y-146080485D01*
X154938386Y-146127715D01*
X154772786Y-146248028D01*
X154628028Y-146392786D01*
X154507715Y-146558386D01*
X154414781Y-146740776D01*
X154351522Y-146935465D01*
X154319500Y-147137648D01*
X154319500Y-147342351D01*
X154351522Y-147544534D01*
X154414781Y-147739223D01*
X154460554Y-147829055D01*
X154503002Y-147912365D01*
X154507715Y-147921613D01*
X154628028Y-148087213D01*
X154772786Y-148231971D01*
X154918947Y-148338161D01*
X154938390Y-148352287D01*
X155008196Y-148387855D01*
X155031080Y-148399515D01*
X155081876Y-148447490D01*
X155098671Y-148515311D01*
X155076134Y-148581446D01*
X155031080Y-148620485D01*
X154938386Y-148667715D01*
X154772786Y-148788028D01*
X154628028Y-148932786D01*
X154507715Y-149098386D01*
X154414781Y-149280776D01*
X154351522Y-149475465D01*
X154322536Y-149658481D01*
X154319500Y-149677648D01*
X154319500Y-149882352D01*
X154322336Y-149900256D01*
X154351522Y-150084534D01*
X154414781Y-150279223D01*
X154478691Y-150404653D01*
X154500272Y-150447007D01*
X154507715Y-150461613D01*
X154628028Y-150627213D01*
X154772786Y-150771971D01*
X154908934Y-150870886D01*
X154938390Y-150892287D01*
X155054607Y-150951503D01*
X155120776Y-150985218D01*
X155120778Y-150985218D01*
X155120781Y-150985220D01*
X155224237Y-151018835D01*
X155315465Y-151048477D01*
X155416557Y-151064488D01*
X155517648Y-151080500D01*
X155517649Y-151080500D01*
X155722351Y-151080500D01*
X155722352Y-151080500D01*
X155924534Y-151048477D01*
X156119219Y-150985220D01*
X156301610Y-150892287D01*
X156447464Y-150786319D01*
X156467213Y-150771971D01*
X156467215Y-150771968D01*
X156467219Y-150771966D01*
X156611966Y-150627219D01*
X156611968Y-150627215D01*
X156611971Y-150627213D01*
X156664936Y-150554312D01*
X156732287Y-150461610D01*
X156825220Y-150279219D01*
X156888477Y-150084534D01*
X156920500Y-149882352D01*
X156920500Y-149677648D01*
X156906095Y-149586701D01*
X156888477Y-149475465D01*
X156852484Y-149364692D01*
X156825220Y-149280781D01*
X156825218Y-149280778D01*
X156825218Y-149280776D01*
X156760003Y-149152786D01*
X156732287Y-149098390D01*
X156707715Y-149064569D01*
X156611971Y-148932786D01*
X156467213Y-148788028D01*
X156301614Y-148667715D01*
X156230155Y-148631305D01*
X156208917Y-148620483D01*
X156158123Y-148572511D01*
X156141328Y-148504690D01*
X156163865Y-148438555D01*
X156208917Y-148399516D01*
X156301610Y-148352287D01*
X156322770Y-148336913D01*
X156467213Y-148231971D01*
X156467215Y-148231968D01*
X156467219Y-148231966D01*
X156611966Y-148087219D01*
X156611968Y-148087215D01*
X156611971Y-148087213D01*
X156675116Y-148000300D01*
X156732287Y-147921610D01*
X156825220Y-147739219D01*
X156888477Y-147544534D01*
X156920500Y-147342352D01*
X156920500Y-147137648D01*
X156909768Y-147069890D01*
X156888477Y-146935465D01*
X156852484Y-146824692D01*
X156825220Y-146740781D01*
X156825218Y-146740778D01*
X156825218Y-146740776D01*
X156787263Y-146666286D01*
X156732287Y-146558390D01*
X156724556Y-146547749D01*
X156611971Y-146392786D01*
X156467213Y-146248028D01*
X156301614Y-146127715D01*
X156295006Y-146124348D01*
X156208917Y-146080483D01*
X156158123Y-146032511D01*
X156141328Y-145964690D01*
X156163865Y-145898555D01*
X156208917Y-145859516D01*
X156301610Y-145812287D01*
X156383222Y-145752993D01*
X156467213Y-145691971D01*
X156467215Y-145691968D01*
X156467219Y-145691966D01*
X156611966Y-145547219D01*
X156619526Y-145536813D01*
X156674855Y-145494147D01*
X156744468Y-145488166D01*
X156806264Y-145520771D01*
X156807526Y-145522016D01*
X157316105Y-146030595D01*
X157349590Y-146091918D01*
X157350041Y-146094085D01*
X157372161Y-146205289D01*
X157372164Y-146205301D01*
X157432502Y-146350972D01*
X157432509Y-146350985D01*
X157520110Y-146482088D01*
X157520113Y-146482092D01*
X157631607Y-146593586D01*
X157631611Y-146593589D01*
X157762714Y-146681190D01*
X157762727Y-146681197D01*
X157855234Y-146719514D01*
X157908403Y-146741537D01*
X158038882Y-146767491D01*
X158063053Y-146772299D01*
X158063056Y-146772300D01*
X158063058Y-146772300D01*
X158220744Y-146772300D01*
X158220745Y-146772299D01*
X158375397Y-146741537D01*
X158501000Y-146689511D01*
X158521072Y-146681197D01*
X158521072Y-146681196D01*
X158521079Y-146681194D01*
X158652189Y-146593589D01*
X158763689Y-146482089D01*
X158851294Y-146350979D01*
X158911637Y-146205297D01*
X158942400Y-146050642D01*
X158942400Y-145892958D01*
X158942400Y-145892955D01*
X158942399Y-145892953D01*
X158926353Y-145812284D01*
X158911637Y-145738303D01*
X158910065Y-145734508D01*
X158851297Y-145592627D01*
X158851290Y-145592614D01*
X158763689Y-145461511D01*
X158763686Y-145461507D01*
X158652192Y-145350013D01*
X158652188Y-145350010D01*
X158521085Y-145262409D01*
X158521072Y-145262402D01*
X158375401Y-145202064D01*
X158375389Y-145202061D01*
X158264185Y-145179941D01*
X158202274Y-145147556D01*
X158200695Y-145146005D01*
X157408519Y-144353829D01*
X157375034Y-144292506D01*
X157372200Y-144266148D01*
X157372200Y-143305396D01*
X157381953Y-143272179D01*
X157391638Y-143238741D01*
X157391818Y-143238583D01*
X157391885Y-143238357D01*
X157417917Y-143215799D01*
X157444273Y-143192792D01*
X157444510Y-143192757D01*
X157444689Y-143192602D01*
X157478993Y-143187669D01*
X157513395Y-143182594D01*
X157513611Y-143182691D01*
X157513847Y-143182658D01*
X157545387Y-143197061D01*
X157577057Y-143211384D01*
X157577235Y-143211606D01*
X157577403Y-143211683D01*
X157600268Y-143237973D01*
X157604714Y-143244836D01*
X157605688Y-143247186D01*
X157623212Y-143273411D01*
X157623724Y-143274177D01*
X157674140Y-143349631D01*
X157674141Y-143349632D01*
X157674142Y-143349633D01*
X157761267Y-143436758D01*
X157761268Y-143436758D01*
X157768335Y-143443825D01*
X157768334Y-143443825D01*
X157768338Y-143443828D01*
X163943684Y-149619175D01*
X163977169Y-149680498D01*
X163972185Y-149750190D01*
X163956322Y-149779741D01*
X163845376Y-149932446D01*
X163748904Y-150121782D01*
X163683242Y-150323870D01*
X163683242Y-150323873D01*
X163672769Y-150390000D01*
X164566988Y-150390000D01*
X164534075Y-150447007D01*
X164500000Y-150574174D01*
X164500000Y-150705826D01*
X164534075Y-150832993D01*
X164566988Y-150890000D01*
X163672769Y-150890000D01*
X163683242Y-150956126D01*
X163683242Y-150956129D01*
X163748904Y-151158217D01*
X163845379Y-151347557D01*
X163970272Y-151519459D01*
X163970276Y-151519464D01*
X164120535Y-151669723D01*
X164120540Y-151669727D01*
X164292442Y-151794620D01*
X164481782Y-151891095D01*
X164683871Y-151956757D01*
X164750000Y-151967231D01*
X164750000Y-151073012D01*
X164807007Y-151105925D01*
X164934174Y-151140000D01*
X165065826Y-151140000D01*
X165192993Y-151105925D01*
X165250000Y-151073012D01*
X165250000Y-151967230D01*
X165316126Y-151956757D01*
X165316129Y-151956757D01*
X165518217Y-151891095D01*
X165707557Y-151794620D01*
X165879459Y-151669727D01*
X165879464Y-151669723D01*
X166029723Y-151519464D01*
X166029727Y-151519459D01*
X166154620Y-151347558D01*
X166159232Y-151338507D01*
X166207205Y-151287709D01*
X166275025Y-151270912D01*
X166341161Y-151293447D01*
X166380204Y-151338504D01*
X166384949Y-151347817D01*
X166509890Y-151519786D01*
X166660213Y-151670109D01*
X166832179Y-151795048D01*
X166832181Y-151795049D01*
X166832184Y-151795051D01*
X167021588Y-151891557D01*
X167223757Y-151957246D01*
X167433713Y-151990500D01*
X167433714Y-151990500D01*
X167646286Y-151990500D01*
X167646287Y-151990500D01*
X167856243Y-151957246D01*
X168058412Y-151891557D01*
X168247816Y-151795051D01*
X168331816Y-151734022D01*
X168419786Y-151670109D01*
X168419788Y-151670106D01*
X168419792Y-151670104D01*
X168570104Y-151519792D01*
X168570106Y-151519788D01*
X168570109Y-151519786D01*
X168695048Y-151347820D01*
X168695050Y-151347817D01*
X168695051Y-151347816D01*
X168791557Y-151158412D01*
X168857246Y-150956243D01*
X168890500Y-150746287D01*
X168890500Y-150533713D01*
X168857246Y-150323757D01*
X168791557Y-150121588D01*
X168695051Y-149932184D01*
X168695049Y-149932181D01*
X168695048Y-149932179D01*
X168570109Y-149760213D01*
X168419786Y-149609890D01*
X168247820Y-149484951D01*
X168247115Y-149484591D01*
X168239054Y-149480485D01*
X168188259Y-149432512D01*
X168171463Y-149364692D01*
X168193999Y-149298556D01*
X168239054Y-149259515D01*
X168247816Y-149255051D01*
X168389480Y-149152127D01*
X168419786Y-149130109D01*
X168419788Y-149130106D01*
X168419792Y-149130104D01*
X168570104Y-148979792D01*
X168570106Y-148979788D01*
X168570109Y-148979786D01*
X168695048Y-148807820D01*
X168695050Y-148807817D01*
X168695051Y-148807816D01*
X168791557Y-148618412D01*
X168857246Y-148416243D01*
X168890500Y-148206287D01*
X168890500Y-147993713D01*
X168857246Y-147783757D01*
X168791557Y-147581588D01*
X168695051Y-147392184D01*
X168695049Y-147392181D01*
X168695048Y-147392179D01*
X168570109Y-147220213D01*
X168419786Y-147069890D01*
X168247820Y-146944951D01*
X168247115Y-146944591D01*
X168239054Y-146940485D01*
X168188259Y-146892512D01*
X168171463Y-146824692D01*
X168193999Y-146758556D01*
X168239054Y-146719515D01*
X168247816Y-146715051D01*
X168282975Y-146689507D01*
X168419786Y-146590109D01*
X168419788Y-146590106D01*
X168419792Y-146590104D01*
X168570104Y-146439792D01*
X168570106Y-146439788D01*
X168570109Y-146439786D01*
X168695048Y-146267820D01*
X168695050Y-146267817D01*
X168695051Y-146267816D01*
X168791557Y-146078412D01*
X168857246Y-145876243D01*
X168890500Y-145666287D01*
X168890500Y-145453713D01*
X168857246Y-145243757D01*
X168791557Y-145041588D01*
X168695051Y-144852184D01*
X168695049Y-144852181D01*
X168695048Y-144852179D01*
X168570109Y-144680213D01*
X168419786Y-144529890D01*
X168247815Y-144404948D01*
X168247812Y-144404946D01*
X168239050Y-144400481D01*
X168188256Y-144352505D01*
X168171463Y-144284683D01*
X168194003Y-144218549D01*
X168239056Y-144179514D01*
X168247816Y-144175051D01*
X168419792Y-144050104D01*
X168570104Y-143899792D01*
X168570106Y-143899788D01*
X168570109Y-143899786D01*
X168695048Y-143727820D01*
X168695047Y-143727820D01*
X168695051Y-143727816D01*
X168791557Y-143538412D01*
X168857246Y-143336243D01*
X168890500Y-143126287D01*
X168890500Y-142913713D01*
X168857246Y-142703757D01*
X168791557Y-142501588D01*
X168695051Y-142312184D01*
X168695049Y-142312181D01*
X168695048Y-142312179D01*
X168570109Y-142140213D01*
X168419786Y-141989890D01*
X168247820Y-141864951D01*
X168247115Y-141864591D01*
X168239054Y-141860485D01*
X168188259Y-141812512D01*
X168171463Y-141744692D01*
X168193999Y-141678556D01*
X168239054Y-141639515D01*
X168247816Y-141635051D01*
X168283309Y-141609264D01*
X168419786Y-141510109D01*
X168419788Y-141510106D01*
X168419792Y-141510104D01*
X168570104Y-141359792D01*
X168570106Y-141359788D01*
X168570109Y-141359786D01*
X168695048Y-141187820D01*
X168695050Y-141187817D01*
X168695051Y-141187816D01*
X168791557Y-140998412D01*
X168857246Y-140796243D01*
X168890500Y-140586287D01*
X168890500Y-140373713D01*
X168857246Y-140163757D01*
X168791557Y-139961588D01*
X168695051Y-139772184D01*
X168695049Y-139772181D01*
X168695048Y-139772179D01*
X168570109Y-139600213D01*
X168419786Y-139449890D01*
X168247815Y-139324948D01*
X168247812Y-139324946D01*
X168239050Y-139320481D01*
X168188256Y-139272505D01*
X168171463Y-139204683D01*
X168194003Y-139138549D01*
X168239056Y-139099514D01*
X168247816Y-139095051D01*
X168419792Y-138970104D01*
X168570104Y-138819792D01*
X168570106Y-138819788D01*
X168570109Y-138819786D01*
X168695048Y-138647820D01*
X168695047Y-138647820D01*
X168695051Y-138647816D01*
X168791557Y-138458412D01*
X168857246Y-138256243D01*
X168890500Y-138046287D01*
X168890500Y-137833713D01*
X168857246Y-137623757D01*
X168791557Y-137421588D01*
X168695051Y-137232184D01*
X168695049Y-137232181D01*
X168695048Y-137232179D01*
X168570109Y-137060213D01*
X168419786Y-136909890D01*
X168247820Y-136784951D01*
X168247115Y-136784591D01*
X168239054Y-136780485D01*
X168188259Y-136732512D01*
X168171463Y-136664692D01*
X168193999Y-136598556D01*
X168239054Y-136559515D01*
X168247816Y-136555051D01*
X168283309Y-136529264D01*
X168419786Y-136430109D01*
X168419788Y-136430106D01*
X168419792Y-136430104D01*
X168570104Y-136279792D01*
X168570106Y-136279788D01*
X168570109Y-136279786D01*
X168695048Y-136107820D01*
X168695047Y-136107820D01*
X168695051Y-136107816D01*
X168791557Y-135918412D01*
X168857246Y-135716243D01*
X168890500Y-135506287D01*
X168890500Y-135293713D01*
X168857246Y-135083757D01*
X168791557Y-134881588D01*
X168695051Y-134692184D01*
X168695049Y-134692181D01*
X168695048Y-134692179D01*
X168570109Y-134520213D01*
X168419786Y-134369890D01*
X168247820Y-134244951D01*
X168247115Y-134244591D01*
X168239054Y-134240485D01*
X168188259Y-134192512D01*
X168171463Y-134124692D01*
X168193999Y-134058556D01*
X168239054Y-134019515D01*
X168247816Y-134015051D01*
X168269789Y-133999086D01*
X168419786Y-133890109D01*
X168419788Y-133890106D01*
X168419792Y-133890104D01*
X168570104Y-133739792D01*
X168570106Y-133739788D01*
X168570109Y-133739786D01*
X168695048Y-133567820D01*
X168695047Y-133567820D01*
X168695051Y-133567816D01*
X168791557Y-133378412D01*
X168857246Y-133176243D01*
X168890500Y-132966287D01*
X168890500Y-132753713D01*
X168857246Y-132543757D01*
X168791557Y-132341588D01*
X168695051Y-132152184D01*
X168695049Y-132152181D01*
X168695048Y-132152179D01*
X168570109Y-131980213D01*
X168419786Y-131829890D01*
X168247820Y-131704951D01*
X168247115Y-131704591D01*
X168239054Y-131700485D01*
X168188259Y-131652512D01*
X168171463Y-131584692D01*
X168193999Y-131518556D01*
X168239054Y-131479515D01*
X168247816Y-131475051D01*
X168314157Y-131426852D01*
X168419786Y-131350109D01*
X168419788Y-131350106D01*
X168419792Y-131350104D01*
X168570104Y-131199792D01*
X168570106Y-131199788D01*
X168570109Y-131199786D01*
X168695048Y-131027820D01*
X168695047Y-131027820D01*
X168695051Y-131027816D01*
X168791557Y-130838412D01*
X168857246Y-130636243D01*
X168890500Y-130426287D01*
X168890500Y-130213713D01*
X168857246Y-130003757D01*
X168791557Y-129801588D01*
X168695051Y-129612184D01*
X168695049Y-129612181D01*
X168695048Y-129612179D01*
X168570109Y-129440213D01*
X168419786Y-129289890D01*
X168247820Y-129164951D01*
X168247115Y-129164591D01*
X168239054Y-129160485D01*
X168188259Y-129112512D01*
X168171463Y-129044692D01*
X168193999Y-128978556D01*
X168239054Y-128939515D01*
X168247816Y-128935051D01*
X168285762Y-128907482D01*
X168419786Y-128810109D01*
X168419788Y-128810106D01*
X168419792Y-128810104D01*
X168570104Y-128659792D01*
X168570106Y-128659788D01*
X168570109Y-128659786D01*
X168695048Y-128487820D01*
X168695047Y-128487820D01*
X168695051Y-128487816D01*
X168791557Y-128298412D01*
X168857246Y-128096243D01*
X168890500Y-127886287D01*
X168890500Y-127673713D01*
X168857246Y-127463757D01*
X168791557Y-127261588D01*
X168695051Y-127072184D01*
X168695049Y-127072181D01*
X168695048Y-127072179D01*
X168570109Y-126900213D01*
X168419786Y-126749890D01*
X168247820Y-126624951D01*
X168247115Y-126624591D01*
X168239054Y-126620485D01*
X168188259Y-126572512D01*
X168171463Y-126504692D01*
X168193999Y-126438556D01*
X168239054Y-126399515D01*
X168247816Y-126395051D01*
X168269789Y-126379086D01*
X168419786Y-126270109D01*
X168419788Y-126270106D01*
X168419792Y-126270104D01*
X168570104Y-126119792D01*
X168570106Y-126119788D01*
X168570109Y-126119786D01*
X168695048Y-125947820D01*
X168695047Y-125947820D01*
X168695051Y-125947816D01*
X168791557Y-125758412D01*
X168857246Y-125556243D01*
X168890500Y-125346287D01*
X168890500Y-125133713D01*
X168857246Y-124923757D01*
X168791557Y-124721588D01*
X168695051Y-124532184D01*
X168695049Y-124532181D01*
X168695048Y-124532179D01*
X168570109Y-124360213D01*
X168419786Y-124209890D01*
X168247820Y-124084951D01*
X168247115Y-124084591D01*
X168239054Y-124080485D01*
X168188259Y-124032512D01*
X168171463Y-123964692D01*
X168193999Y-123898556D01*
X168239054Y-123859515D01*
X168247816Y-123855051D01*
X168269789Y-123839086D01*
X168419786Y-123730109D01*
X168419788Y-123730106D01*
X168419792Y-123730104D01*
X168570104Y-123579792D01*
X168570106Y-123579788D01*
X168570109Y-123579786D01*
X168695048Y-123407820D01*
X168695050Y-123407817D01*
X168695051Y-123407816D01*
X168791557Y-123218412D01*
X168857246Y-123016243D01*
X168890500Y-122806287D01*
X168890500Y-122593713D01*
X168857246Y-122383757D01*
X168791557Y-122181588D01*
X168695051Y-121992184D01*
X168695049Y-121992181D01*
X168695048Y-121992179D01*
X168570109Y-121820213D01*
X168419786Y-121669890D01*
X168247820Y-121544951D01*
X168247115Y-121544591D01*
X168239054Y-121540485D01*
X168188259Y-121492512D01*
X168171463Y-121424692D01*
X168193999Y-121358556D01*
X168239054Y-121319515D01*
X168247816Y-121315051D01*
X168311920Y-121268477D01*
X168419786Y-121190109D01*
X168419788Y-121190106D01*
X168419792Y-121190104D01*
X168570104Y-121039792D01*
X168570106Y-121039788D01*
X168570109Y-121039786D01*
X168695048Y-120867820D01*
X168695050Y-120867817D01*
X168695051Y-120867816D01*
X168791557Y-120678412D01*
X168857246Y-120476243D01*
X168890500Y-120266287D01*
X168890500Y-120053713D01*
X168857246Y-119843757D01*
X168791557Y-119641588D01*
X168695051Y-119452184D01*
X168695049Y-119452181D01*
X168695048Y-119452179D01*
X168570109Y-119280213D01*
X168419786Y-119129890D01*
X168247820Y-119004951D01*
X168247115Y-119004591D01*
X168239054Y-119000485D01*
X168188259Y-118952512D01*
X168171463Y-118884692D01*
X168193999Y-118818556D01*
X168239054Y-118779515D01*
X168247816Y-118775051D01*
X168307729Y-118731522D01*
X168419786Y-118650109D01*
X168419788Y-118650106D01*
X168419792Y-118650104D01*
X168570104Y-118499792D01*
X168570106Y-118499788D01*
X168570109Y-118499786D01*
X168695048Y-118327820D01*
X168695050Y-118327817D01*
X168695051Y-118327816D01*
X168791557Y-118138412D01*
X168857246Y-117936243D01*
X168890500Y-117726287D01*
X168890500Y-117513713D01*
X168857246Y-117303757D01*
X168791557Y-117101588D01*
X168695051Y-116912184D01*
X168695049Y-116912181D01*
X168695048Y-116912179D01*
X168570109Y-116740213D01*
X168419786Y-116589890D01*
X168247820Y-116464951D01*
X168247115Y-116464591D01*
X168239054Y-116460485D01*
X168188259Y-116412512D01*
X168171463Y-116344692D01*
X168193999Y-116278556D01*
X168239054Y-116239515D01*
X168247816Y-116235051D01*
X168298466Y-116198252D01*
X168419786Y-116110109D01*
X168419788Y-116110106D01*
X168419792Y-116110104D01*
X168570104Y-115959792D01*
X168570106Y-115959788D01*
X168570109Y-115959786D01*
X168695048Y-115787820D01*
X168695050Y-115787817D01*
X168695051Y-115787816D01*
X168791557Y-115598412D01*
X168857246Y-115396243D01*
X168890500Y-115186287D01*
X168890500Y-114973713D01*
X168857246Y-114763757D01*
X168791557Y-114561588D01*
X168695051Y-114372184D01*
X168695049Y-114372181D01*
X168695048Y-114372179D01*
X168570109Y-114200213D01*
X168419786Y-114049890D01*
X168247820Y-113924951D01*
X168247115Y-113924591D01*
X168239054Y-113920485D01*
X168188259Y-113872512D01*
X168171463Y-113804692D01*
X168193999Y-113738556D01*
X168239054Y-113699515D01*
X168247816Y-113695051D01*
X168269789Y-113679086D01*
X168419786Y-113570109D01*
X168419788Y-113570106D01*
X168419792Y-113570104D01*
X168570104Y-113419792D01*
X168570106Y-113419788D01*
X168570109Y-113419786D01*
X168695048Y-113247820D01*
X168695050Y-113247817D01*
X168695051Y-113247816D01*
X168791557Y-113058412D01*
X168857246Y-112856243D01*
X168890500Y-112646287D01*
X168890500Y-112433713D01*
X168857246Y-112223757D01*
X168791557Y-112021588D01*
X168695051Y-111832184D01*
X168695049Y-111832181D01*
X168695048Y-111832179D01*
X168570109Y-111660213D01*
X168419786Y-111509890D01*
X168247820Y-111384951D01*
X168246905Y-111384485D01*
X168239054Y-111380485D01*
X168188259Y-111332512D01*
X168171463Y-111264692D01*
X168193999Y-111198556D01*
X168239054Y-111159515D01*
X168247816Y-111155051D01*
X168334471Y-111092093D01*
X168419786Y-111030109D01*
X168419788Y-111030106D01*
X168419792Y-111030104D01*
X168570104Y-110879792D01*
X168570106Y-110879788D01*
X168570109Y-110879786D01*
X168695048Y-110707820D01*
X168695047Y-110707820D01*
X168695051Y-110707816D01*
X168791557Y-110518412D01*
X168857246Y-110316243D01*
X168890500Y-110106287D01*
X168890500Y-109893713D01*
X168857246Y-109683757D01*
X168791557Y-109481588D01*
X168695051Y-109292184D01*
X168695049Y-109292181D01*
X168695048Y-109292179D01*
X168570109Y-109120213D01*
X168419786Y-108969890D01*
X168247820Y-108844951D01*
X168058414Y-108748444D01*
X168058413Y-108748443D01*
X168058412Y-108748443D01*
X167856243Y-108682754D01*
X167856241Y-108682753D01*
X167856240Y-108682753D01*
X167694957Y-108657208D01*
X167646287Y-108649500D01*
X167433713Y-108649500D01*
X167385042Y-108657208D01*
X167223760Y-108682753D01*
X167021585Y-108748444D01*
X166832179Y-108844951D01*
X166660215Y-108969889D01*
X166546285Y-109083819D01*
X166484962Y-109117303D01*
X166415270Y-109112319D01*
X166359337Y-109070447D01*
X166342422Y-109039470D01*
X166293354Y-108907913D01*
X166293350Y-108907906D01*
X166207190Y-108792812D01*
X166207187Y-108792809D01*
X166092093Y-108706649D01*
X166092086Y-108706645D01*
X165957379Y-108656403D01*
X165957372Y-108656401D01*
X165897844Y-108650000D01*
X165250000Y-108650000D01*
X165250000Y-109566988D01*
X165192993Y-109534075D01*
X165065826Y-109500000D01*
X164934174Y-109500000D01*
X164807007Y-109534075D01*
X164750000Y-109566988D01*
X164750000Y-108650000D01*
X164102155Y-108650000D01*
X164042627Y-108656401D01*
X164042620Y-108656403D01*
X163907913Y-108706645D01*
X163907906Y-108706649D01*
X163792812Y-108792809D01*
X163792809Y-108792812D01*
X163706649Y-108907906D01*
X163706645Y-108907913D01*
X163656403Y-109042620D01*
X163656401Y-109042627D01*
X163650000Y-109102155D01*
X163650000Y-109750000D01*
X164566988Y-109750000D01*
X164534075Y-109807007D01*
X164500000Y-109934174D01*
X164500000Y-110065826D01*
X164534075Y-110192993D01*
X164566988Y-110250000D01*
X163650000Y-110250000D01*
X163650000Y-110897844D01*
X163656401Y-110957372D01*
X163656403Y-110957379D01*
X163706645Y-111092086D01*
X163706649Y-111092093D01*
X163792809Y-111207187D01*
X163792812Y-111207190D01*
X163907906Y-111293350D01*
X163907913Y-111293354D01*
X164039986Y-111342614D01*
X164095920Y-111384485D01*
X164120337Y-111449949D01*
X164105486Y-111518222D01*
X164084335Y-111546477D01*
X163970271Y-111660541D01*
X163845379Y-111832442D01*
X163748904Y-112021782D01*
X163683242Y-112223870D01*
X163683242Y-112223873D01*
X163672769Y-112290000D01*
X164566988Y-112290000D01*
X164534075Y-112347007D01*
X164500000Y-112474174D01*
X164500000Y-112605826D01*
X164534075Y-112732993D01*
X164566988Y-112790000D01*
X163672769Y-112790000D01*
X163683242Y-112856126D01*
X163683242Y-112856129D01*
X163748904Y-113058217D01*
X163845379Y-113247557D01*
X163970272Y-113419459D01*
X163970276Y-113419464D01*
X164120535Y-113569723D01*
X164120540Y-113569727D01*
X164292444Y-113694622D01*
X164302048Y-113699516D01*
X164352844Y-113747491D01*
X164369638Y-113815312D01*
X164347100Y-113881447D01*
X164302048Y-113920484D01*
X164292444Y-113925377D01*
X164120537Y-114050274D01*
X164118859Y-114051708D01*
X164118090Y-114052052D01*
X164116592Y-114053141D01*
X164116363Y-114052826D01*
X164055097Y-114080278D01*
X163986011Y-114069840D01*
X163946586Y-114040840D01*
X163940364Y-114033997D01*
X163917158Y-113999267D01*
X163830033Y-113912142D01*
X163830029Y-113912139D01*
X159046218Y-109128328D01*
X159012733Y-109067005D01*
X159017717Y-108997313D01*
X159046214Y-108952970D01*
X159151966Y-108847219D01*
X159272287Y-108681610D01*
X159365220Y-108499219D01*
X159428477Y-108304534D01*
X159460500Y-108102352D01*
X159460500Y-107897648D01*
X159428477Y-107695466D01*
X159365220Y-107500781D01*
X159365218Y-107500778D01*
X159365218Y-107500776D01*
X159331503Y-107434607D01*
X159272287Y-107318390D01*
X159264556Y-107307749D01*
X159151971Y-107152786D01*
X159007213Y-107008028D01*
X158841613Y-106887715D01*
X158841612Y-106887714D01*
X158841610Y-106887713D01*
X158784653Y-106858691D01*
X158659223Y-106794781D01*
X158464534Y-106731522D01*
X158289995Y-106703878D01*
X158262352Y-106699500D01*
X158057648Y-106699500D01*
X158033329Y-106703351D01*
X157855465Y-106731522D01*
X157660776Y-106794781D01*
X157478386Y-106887715D01*
X157312786Y-107008028D01*
X157168028Y-107152786D01*
X157047715Y-107318386D01*
X156954781Y-107500776D01*
X156891522Y-107695465D01*
X156859500Y-107897648D01*
X156859500Y-108102351D01*
X156891522Y-108304534D01*
X156954781Y-108499223D01*
X157011173Y-108609897D01*
X157034869Y-108656403D01*
X157047715Y-108681613D01*
X157168028Y-108847213D01*
X157168034Y-108847219D01*
X157312781Y-108991966D01*
X157478390Y-109112287D01*
X157478395Y-109112289D01*
X157478400Y-109112293D01*
X157478827Y-109112555D01*
X157478955Y-109112696D01*
X157482332Y-109115150D01*
X157481816Y-109115859D01*
X157500982Y-109137045D01*
X157523907Y-109160804D01*
X157524822Y-109163398D01*
X157525700Y-109164369D01*
X157535649Y-109194088D01*
X157550446Y-109268477D01*
X157555161Y-109292179D01*
X157558536Y-109309149D01*
X157605449Y-109422411D01*
X157605688Y-109422986D01*
X157621629Y-109446842D01*
X157674141Y-109525433D01*
X157765586Y-109616878D01*
X157765608Y-109616898D01*
X162769481Y-114620771D01*
X162802966Y-114682094D01*
X162805800Y-114708452D01*
X162805800Y-122870006D01*
X162829837Y-122990852D01*
X162830389Y-122992184D01*
X162876988Y-123104686D01*
X162908688Y-123152127D01*
X162913155Y-123158813D01*
X162913157Y-123158816D01*
X162945440Y-123207131D01*
X162945441Y-123207132D01*
X162945442Y-123207133D01*
X163032567Y-123294258D01*
X163032568Y-123294258D01*
X163039635Y-123301325D01*
X163039634Y-123301325D01*
X163039638Y-123301328D01*
X163949491Y-124211182D01*
X163982976Y-124272505D01*
X163977992Y-124342197D01*
X163962129Y-124371747D01*
X163845378Y-124532443D01*
X163748904Y-124721782D01*
X163683242Y-124923870D01*
X163683242Y-124923873D01*
X163672769Y-124990000D01*
X164566988Y-124990000D01*
X164534075Y-125047007D01*
X164500000Y-125174174D01*
X164500000Y-125305826D01*
X164534075Y-125432993D01*
X164566988Y-125490000D01*
X163672769Y-125490000D01*
X163683242Y-125556126D01*
X163683242Y-125556129D01*
X163748904Y-125758217D01*
X163845379Y-125947557D01*
X163970272Y-126119459D01*
X163970276Y-126119464D01*
X164120535Y-126269723D01*
X164120540Y-126269727D01*
X164292444Y-126394622D01*
X164302048Y-126399516D01*
X164352844Y-126447491D01*
X164369638Y-126515312D01*
X164347100Y-126581447D01*
X164302048Y-126620484D01*
X164292444Y-126625377D01*
X164120540Y-126750272D01*
X164120535Y-126750276D01*
X163970276Y-126900535D01*
X163970272Y-126900540D01*
X163845379Y-127072442D01*
X163748904Y-127261782D01*
X163683242Y-127463870D01*
X163683242Y-127463873D01*
X163672769Y-127530000D01*
X164566988Y-127530000D01*
X164534075Y-127587007D01*
X164500000Y-127714174D01*
X164500000Y-127845826D01*
X164534075Y-127972993D01*
X164566988Y-128030000D01*
X163672769Y-128030000D01*
X163683242Y-128096126D01*
X163683242Y-128096129D01*
X163748904Y-128298217D01*
X163845379Y-128487557D01*
X163970272Y-128659459D01*
X163970276Y-128659464D01*
X164120535Y-128809723D01*
X164120540Y-128809727D01*
X164292444Y-128934622D01*
X164302048Y-128939516D01*
X164352844Y-128987491D01*
X164369638Y-129055312D01*
X164347100Y-129121447D01*
X164302048Y-129160484D01*
X164292444Y-129165377D01*
X164120540Y-129290272D01*
X164120535Y-129290276D01*
X163970276Y-129440535D01*
X163970272Y-129440540D01*
X163845379Y-129612442D01*
X163748904Y-129801782D01*
X163683242Y-130003870D01*
X163683242Y-130003873D01*
X163672769Y-130070000D01*
X164566988Y-130070000D01*
X164534075Y-130127007D01*
X164500000Y-130254174D01*
X164500000Y-130385826D01*
X164534075Y-130512993D01*
X164566988Y-130570000D01*
X163672769Y-130570000D01*
X163683242Y-130636126D01*
X163683242Y-130636129D01*
X163748904Y-130838217D01*
X163845379Y-131027557D01*
X163970272Y-131199459D01*
X163970276Y-131199464D01*
X164120535Y-131349723D01*
X164120540Y-131349727D01*
X164292444Y-131474622D01*
X164302048Y-131479516D01*
X164352844Y-131527491D01*
X164369638Y-131595312D01*
X164347100Y-131661447D01*
X164302048Y-131700484D01*
X164292444Y-131705377D01*
X164120540Y-131830272D01*
X164120535Y-131830276D01*
X163970276Y-131980535D01*
X163970272Y-131980540D01*
X163845379Y-132152442D01*
X163748904Y-132341782D01*
X163683242Y-132543870D01*
X163683242Y-132543873D01*
X163672769Y-132610000D01*
X164566988Y-132610000D01*
X164534075Y-132667007D01*
X164500000Y-132794174D01*
X164500000Y-132925826D01*
X164534075Y-133052993D01*
X164566988Y-133110000D01*
X163672769Y-133110000D01*
X163683242Y-133176126D01*
X163683242Y-133176129D01*
X163748904Y-133378217D01*
X163845379Y-133567557D01*
X163970272Y-133739459D01*
X163970276Y-133739464D01*
X164120535Y-133889723D01*
X164120540Y-133889727D01*
X164292444Y-134014622D01*
X164302048Y-134019516D01*
X164352844Y-134067491D01*
X164369638Y-134135312D01*
X164347100Y-134201447D01*
X164302048Y-134240484D01*
X164292444Y-134245377D01*
X164120540Y-134370272D01*
X164120535Y-134370276D01*
X163970276Y-134520535D01*
X163970272Y-134520540D01*
X163845379Y-134692442D01*
X163748904Y-134881782D01*
X163683242Y-135083870D01*
X163683242Y-135083873D01*
X163672769Y-135150000D01*
X164566988Y-135150000D01*
X164534075Y-135207007D01*
X164500000Y-135334174D01*
X164500000Y-135465826D01*
X164534075Y-135592993D01*
X164566988Y-135650000D01*
X163672769Y-135650000D01*
X163683242Y-135716126D01*
X163683242Y-135716129D01*
X163748904Y-135918217D01*
X163845379Y-136107557D01*
X163970272Y-136279459D01*
X163970276Y-136279464D01*
X164120535Y-136429723D01*
X164120540Y-136429727D01*
X164292444Y-136554622D01*
X164302048Y-136559516D01*
X164352844Y-136607491D01*
X164369638Y-136675312D01*
X164347100Y-136741447D01*
X164302048Y-136780484D01*
X164292444Y-136785377D01*
X164120540Y-136910272D01*
X164120535Y-136910276D01*
X163970276Y-137060535D01*
X163970272Y-137060540D01*
X163845379Y-137232442D01*
X163748904Y-137421782D01*
X163683242Y-137623870D01*
X163683242Y-137623873D01*
X163672769Y-137690000D01*
X164566988Y-137690000D01*
X164534075Y-137747007D01*
X164500000Y-137874174D01*
X164500000Y-138005826D01*
X164534075Y-138132993D01*
X164566988Y-138190000D01*
X163672769Y-138190000D01*
X163683242Y-138256126D01*
X163683242Y-138256129D01*
X163748904Y-138458217D01*
X163845379Y-138647557D01*
X163970272Y-138819459D01*
X163970276Y-138819464D01*
X164120535Y-138969723D01*
X164120540Y-138969727D01*
X164292444Y-139094622D01*
X164302048Y-139099516D01*
X164352844Y-139147491D01*
X164369638Y-139215312D01*
X164347100Y-139281447D01*
X164302048Y-139320484D01*
X164292444Y-139325377D01*
X164120540Y-139450272D01*
X164120535Y-139450276D01*
X163970276Y-139600535D01*
X163970272Y-139600540D01*
X163845379Y-139772442D01*
X163748904Y-139961782D01*
X163683242Y-140163870D01*
X163683242Y-140163873D01*
X163672769Y-140230000D01*
X164566988Y-140230000D01*
X164534075Y-140287007D01*
X164500000Y-140414174D01*
X164500000Y-140545826D01*
X164534075Y-140672993D01*
X164566988Y-140730000D01*
X163672769Y-140730000D01*
X163683242Y-140796126D01*
X163683242Y-140796129D01*
X163748905Y-140998219D01*
X163768922Y-141037504D01*
X163781819Y-141106173D01*
X163755543Y-141170914D01*
X163698437Y-141211171D01*
X163658438Y-141217800D01*
X160765052Y-141217800D01*
X160735611Y-141209155D01*
X160705625Y-141202632D01*
X160700609Y-141198877D01*
X160698013Y-141198115D01*
X160677371Y-141181481D01*
X160569061Y-141073171D01*
X160535576Y-141011848D01*
X160540560Y-140942156D01*
X160553640Y-140916599D01*
X160630490Y-140801585D01*
X160630490Y-140801584D01*
X160630494Y-140801579D01*
X160632752Y-140796129D01*
X160680186Y-140681610D01*
X160690837Y-140655897D01*
X160721600Y-140501242D01*
X160721600Y-140343558D01*
X160721600Y-140343555D01*
X160721599Y-140343553D01*
X160716807Y-140319464D01*
X160690837Y-140188903D01*
X160645687Y-140079901D01*
X160630497Y-140043228D01*
X160630496Y-140043227D01*
X160630494Y-140043221D01*
X160567497Y-139948939D01*
X160546620Y-139882263D01*
X160546600Y-139880050D01*
X160546600Y-115955541D01*
X160546601Y-115955520D01*
X160546601Y-115826191D01*
X160527011Y-115727709D01*
X160522563Y-115705349D01*
X160518469Y-115695466D01*
X160479451Y-115601267D01*
X160475412Y-115591515D01*
X160455415Y-115561588D01*
X160406958Y-115489067D01*
X160406955Y-115489063D01*
X159046219Y-114128328D01*
X159012734Y-114067005D01*
X159017718Y-113997313D01*
X159046219Y-113952966D01*
X159092255Y-113906930D01*
X159151966Y-113847219D01*
X159151968Y-113847215D01*
X159151971Y-113847213D01*
X159224422Y-113747491D01*
X159272287Y-113681610D01*
X159365220Y-113499219D01*
X159428477Y-113304534D01*
X159460500Y-113102352D01*
X159460500Y-112897648D01*
X159428477Y-112695466D01*
X159412497Y-112646286D01*
X159380131Y-112546673D01*
X159365220Y-112500781D01*
X159365218Y-112500778D01*
X159365218Y-112500776D01*
X159331047Y-112433713D01*
X159272287Y-112318390D01*
X159254419Y-112293796D01*
X159151971Y-112152786D01*
X159007213Y-112008028D01*
X158841613Y-111887715D01*
X158841612Y-111887714D01*
X158841610Y-111887713D01*
X158784653Y-111858691D01*
X158659223Y-111794781D01*
X158464534Y-111731522D01*
X158289995Y-111703878D01*
X158262352Y-111699500D01*
X158057648Y-111699500D01*
X158033329Y-111703351D01*
X157855465Y-111731522D01*
X157660776Y-111794781D01*
X157478386Y-111887715D01*
X157312786Y-112008028D01*
X157168028Y-112152786D01*
X157047715Y-112318386D01*
X156954781Y-112500776D01*
X156891522Y-112695465D01*
X156859500Y-112897648D01*
X156859500Y-113102351D01*
X156891522Y-113304534D01*
X156954781Y-113499223D01*
X156990900Y-113570109D01*
X157029714Y-113646286D01*
X157047715Y-113681613D01*
X157168028Y-113847213D01*
X157168034Y-113847219D01*
X157312781Y-113991966D01*
X157478390Y-114112287D01*
X157478392Y-114112288D01*
X157478395Y-114112290D01*
X157478810Y-114112544D01*
X157478934Y-114112681D01*
X157482332Y-114115150D01*
X157481813Y-114115863D01*
X157500962Y-114137023D01*
X157523907Y-114160801D01*
X157524819Y-114163386D01*
X157525691Y-114164350D01*
X157535649Y-114194085D01*
X157539918Y-114215545D01*
X157539918Y-114215548D01*
X157558535Y-114309145D01*
X157558539Y-114309160D01*
X157568654Y-114333579D01*
X157568664Y-114333602D01*
X157569821Y-114336393D01*
X157605688Y-114422986D01*
X157618539Y-114442218D01*
X157623620Y-114449823D01*
X157623623Y-114449828D01*
X157674140Y-114525431D01*
X157674141Y-114525432D01*
X157674142Y-114525433D01*
X157761267Y-114612558D01*
X157761268Y-114612558D01*
X157768335Y-114619625D01*
X157768334Y-114619625D01*
X157768338Y-114619628D01*
X159259281Y-116110571D01*
X159292766Y-116171894D01*
X159295600Y-116198252D01*
X159295600Y-116997053D01*
X159275915Y-117064092D01*
X159223111Y-117109847D01*
X159153953Y-117119791D01*
X159090397Y-117090766D01*
X159083919Y-117084734D01*
X159007213Y-117008028D01*
X158841613Y-116887715D01*
X158841612Y-116887714D01*
X158841610Y-116887713D01*
X158784653Y-116858691D01*
X158659223Y-116794781D01*
X158464534Y-116731522D01*
X158289995Y-116703878D01*
X158262352Y-116699500D01*
X158057648Y-116699500D01*
X158033329Y-116703351D01*
X157855465Y-116731522D01*
X157660776Y-116794781D01*
X157478386Y-116887715D01*
X157312786Y-117008028D01*
X157168028Y-117152786D01*
X157047715Y-117318386D01*
X156954781Y-117500776D01*
X156891522Y-117695465D01*
X156859500Y-117897646D01*
X156859500Y-118102351D01*
X156891522Y-118304534D01*
X156954781Y-118499223D01*
X156987712Y-118563852D01*
X157046798Y-118679815D01*
X157047715Y-118681613D01*
X157168028Y-118847213D01*
X157168034Y-118847219D01*
X157312781Y-118991966D01*
X157478390Y-119112287D01*
X157478395Y-119112289D01*
X157478400Y-119112293D01*
X157478827Y-119112555D01*
X157478955Y-119112696D01*
X157482332Y-119115150D01*
X157481816Y-119115859D01*
X157500982Y-119137045D01*
X157523907Y-119160804D01*
X157524822Y-119163398D01*
X157525700Y-119164369D01*
X157535649Y-119194088D01*
X157550446Y-119268477D01*
X157558537Y-119309151D01*
X157605688Y-119422986D01*
X157639915Y-119474209D01*
X157674142Y-119525433D01*
X157761267Y-119612558D01*
X157761269Y-119612559D01*
X157771232Y-119622522D01*
X158624881Y-120476171D01*
X158658366Y-120537494D01*
X158661200Y-120563852D01*
X158661200Y-121624751D01*
X158641515Y-121691790D01*
X158588711Y-121737545D01*
X158519553Y-121747489D01*
X158498884Y-121742683D01*
X158464535Y-121731523D01*
X158302816Y-121705909D01*
X158262352Y-121699500D01*
X158057648Y-121699500D01*
X158033329Y-121703351D01*
X157855465Y-121731522D01*
X157660776Y-121794781D01*
X157478386Y-121887715D01*
X157312786Y-122008028D01*
X157168028Y-122152786D01*
X157047715Y-122318386D01*
X156954781Y-122500776D01*
X156891522Y-122695465D01*
X156859500Y-122897648D01*
X156859500Y-123102351D01*
X156891522Y-123304534D01*
X156954781Y-123499223D01*
X157047715Y-123681613D01*
X157168028Y-123847213D01*
X157168034Y-123847219D01*
X157312781Y-123991966D01*
X157478390Y-124112287D01*
X157478394Y-124112289D01*
X157482332Y-124115150D01*
X157481111Y-124116829D01*
X157522155Y-124162177D01*
X157534500Y-124216114D01*
X157534500Y-136157103D01*
X157524817Y-136190077D01*
X157515444Y-136223154D01*
X157514986Y-136223558D01*
X157514815Y-136224142D01*
X157488872Y-136246620D01*
X157463074Y-136269406D01*
X157462470Y-136269498D01*
X157462011Y-136269897D01*
X157428006Y-136274786D01*
X157394013Y-136280002D01*
X157393456Y-136279754D01*
X157392853Y-136279841D01*
X157361583Y-136265560D01*
X157330186Y-136251579D01*
X157329730Y-136251013D01*
X157329297Y-136250816D01*
X157306822Y-136225125D01*
X157302085Y-136217905D01*
X157301012Y-136215314D01*
X157266784Y-136164090D01*
X157232558Y-136112867D01*
X157232556Y-136112864D01*
X157142337Y-136022645D01*
X157142306Y-136022616D01*
X156642643Y-135522953D01*
X156609158Y-135461630D01*
X156614142Y-135391938D01*
X156630000Y-135362396D01*
X156732287Y-135221610D01*
X156825220Y-135039219D01*
X156888477Y-134844534D01*
X156920500Y-134642352D01*
X156920500Y-134437648D01*
X156916355Y-134411480D01*
X156888477Y-134235465D01*
X156851860Y-134122771D01*
X156825220Y-134040781D01*
X156825218Y-134040778D01*
X156825218Y-134040776D01*
X156773330Y-133938942D01*
X156732287Y-133858390D01*
X156724556Y-133847749D01*
X156611971Y-133692786D01*
X156467213Y-133548028D01*
X156301614Y-133427715D01*
X156295006Y-133424348D01*
X156208917Y-133380483D01*
X156158123Y-133332511D01*
X156141328Y-133264690D01*
X156163865Y-133198555D01*
X156208917Y-133159516D01*
X156301610Y-133112287D01*
X156331789Y-133090361D01*
X156467213Y-132991971D01*
X156467215Y-132991968D01*
X156467219Y-132991966D01*
X156611966Y-132847219D01*
X156611968Y-132847215D01*
X156611971Y-132847213D01*
X156664732Y-132774590D01*
X156732287Y-132681610D01*
X156825220Y-132499219D01*
X156888477Y-132304534D01*
X156920500Y-132102352D01*
X156920500Y-131897648D01*
X156899459Y-131764801D01*
X156888477Y-131695465D01*
X156852484Y-131584692D01*
X156825220Y-131500781D01*
X156825218Y-131500778D01*
X156825218Y-131500776D01*
X156785328Y-131422488D01*
X156732287Y-131318390D01*
X156712663Y-131291379D01*
X156611971Y-131152786D01*
X156467213Y-131008028D01*
X156301613Y-130887715D01*
X156301612Y-130887714D01*
X156301610Y-130887713D01*
X156244653Y-130858691D01*
X156119223Y-130794781D01*
X155924534Y-130731522D01*
X155749995Y-130703878D01*
X155722352Y-130699500D01*
X155517648Y-130699500D01*
X155493329Y-130703351D01*
X155315465Y-130731522D01*
X155120776Y-130794781D01*
X154938386Y-130887715D01*
X154772786Y-131008028D01*
X154628028Y-131152786D01*
X154507715Y-131318386D01*
X154414781Y-131500776D01*
X154351522Y-131695465D01*
X154319500Y-131897648D01*
X154319500Y-132102351D01*
X154351522Y-132304534D01*
X154414781Y-132499223D01*
X154461035Y-132590000D01*
X154500272Y-132667007D01*
X154507715Y-132681613D01*
X154628028Y-132847213D01*
X154772786Y-132991971D01*
X154908211Y-133090361D01*
X154938390Y-133112287D01*
X155016692Y-133152184D01*
X155031080Y-133159515D01*
X155081876Y-133207490D01*
X155098671Y-133275311D01*
X155076134Y-133341446D01*
X155031080Y-133380485D01*
X154938386Y-133427715D01*
X154772786Y-133548028D01*
X154628028Y-133692786D01*
X154507715Y-133858386D01*
X154414781Y-134040776D01*
X154351522Y-134235465D01*
X154319500Y-134437648D01*
X154319500Y-134642351D01*
X154351522Y-134844534D01*
X154414781Y-135039223D01*
X154472643Y-135152781D01*
X154500272Y-135207007D01*
X154507715Y-135221613D01*
X154628028Y-135387213D01*
X154628034Y-135387219D01*
X154772781Y-135531966D01*
X154938390Y-135652287D01*
X154938392Y-135652288D01*
X154938395Y-135652290D01*
X154938810Y-135652544D01*
X154938934Y-135652681D01*
X154942332Y-135655150D01*
X154941813Y-135655863D01*
X154960962Y-135677023D01*
X154983908Y-135700803D01*
X154984819Y-135703386D01*
X154985691Y-135704350D01*
X154995649Y-135734087D01*
X155014262Y-135827661D01*
X155008035Y-135897252D01*
X154965172Y-135952430D01*
X154948944Y-135962335D01*
X154938386Y-135967714D01*
X154772786Y-136088028D01*
X154628028Y-136232786D01*
X154507715Y-136398386D01*
X154414781Y-136580776D01*
X154351522Y-136775465D01*
X154328882Y-136918412D01*
X154319500Y-136977648D01*
X154319500Y-137182352D01*
X154322962Y-137204210D01*
X154351522Y-137384534D01*
X154414781Y-137579223D01*
X154461035Y-137670000D01*
X154500272Y-137747007D01*
X154507715Y-137761613D01*
X154628028Y-137927213D01*
X154772786Y-138071971D01*
X154873764Y-138145334D01*
X154938390Y-138192287D01*
X155010424Y-138228990D01*
X155031629Y-138239795D01*
X155082425Y-138287770D01*
X155099220Y-138355591D01*
X155076682Y-138421726D01*
X155031629Y-138460765D01*
X154938650Y-138508140D01*
X154773105Y-138628417D01*
X154773104Y-138628417D01*
X154628417Y-138773104D01*
X154628417Y-138773105D01*
X154508140Y-138938650D01*
X154415244Y-139120968D01*
X154383042Y-139220077D01*
X154343604Y-139277752D01*
X154279245Y-139304950D01*
X154210399Y-139293035D01*
X154177430Y-139269439D01*
X150791415Y-135883424D01*
X150757930Y-135822101D01*
X150762914Y-135752409D01*
X150787395Y-135714322D01*
X150786628Y-135713693D01*
X150790491Y-135708986D01*
X150878090Y-135577885D01*
X150878090Y-135577884D01*
X150878094Y-135577879D01*
X150938437Y-135432197D01*
X150969200Y-135277542D01*
X150969200Y-135119858D01*
X150969200Y-135119855D01*
X150969199Y-135119853D01*
X150963856Y-135092993D01*
X150938437Y-134965203D01*
X150935314Y-134957664D01*
X150878097Y-134819527D01*
X150878090Y-134819514D01*
X150790489Y-134688411D01*
X150790486Y-134688407D01*
X150678992Y-134576913D01*
X150678988Y-134576910D01*
X150547885Y-134489309D01*
X150547872Y-134489302D01*
X150402201Y-134428964D01*
X150402189Y-134428961D01*
X150247545Y-134398200D01*
X150247542Y-134398200D01*
X150089858Y-134398200D01*
X150089853Y-134398200D01*
X150023091Y-134411480D01*
X150005116Y-134409871D01*
X149987402Y-134413329D01*
X149971038Y-134406822D01*
X149953499Y-134405253D01*
X149939245Y-134394180D01*
X149922477Y-134387513D01*
X149912229Y-134373193D01*
X149898322Y-134362390D01*
X149892317Y-134345370D01*
X149881815Y-134330694D01*
X149876897Y-134301657D01*
X149875078Y-134296500D01*
X149875055Y-134296053D01*
X149874900Y-134292952D01*
X149874900Y-134128894D01*
X149865722Y-134082754D01*
X149850863Y-134008049D01*
X149844390Y-133992422D01*
X149841616Y-133985724D01*
X149841601Y-133985689D01*
X149833565Y-133966287D01*
X149822240Y-133938946D01*
X149803714Y-133894218D01*
X149803712Y-133894215D01*
X149803712Y-133894214D01*
X149749403Y-133812937D01*
X149735258Y-133791767D01*
X149648133Y-133704642D01*
X149648129Y-133704639D01*
X149209330Y-133265840D01*
X149175845Y-133204517D01*
X149180829Y-133134825D01*
X149197745Y-133103848D01*
X149243793Y-133042335D01*
X149243792Y-133042335D01*
X149243796Y-133042331D01*
X149294091Y-132907483D01*
X149300500Y-132847873D01*
X149300499Y-131152128D01*
X149294091Y-131092517D01*
X149260586Y-131002686D01*
X149243797Y-130957671D01*
X149243793Y-130957664D01*
X149157547Y-130842455D01*
X149157546Y-130842454D01*
X149145391Y-130833355D01*
X149133644Y-130824561D01*
X149091773Y-130768629D01*
X149086789Y-130698937D01*
X149120272Y-130637616D01*
X151573357Y-128184534D01*
X151616432Y-128120069D01*
X151641811Y-128082086D01*
X151688963Y-127968252D01*
X151713000Y-127847406D01*
X151713000Y-110475050D01*
X151732685Y-110408011D01*
X151733898Y-110406159D01*
X151770589Y-110351247D01*
X151796894Y-110311879D01*
X151857237Y-110166197D01*
X151888000Y-110011542D01*
X151888000Y-109853858D01*
X151888000Y-109853855D01*
X151887999Y-109853853D01*
X151875786Y-109792454D01*
X151857237Y-109699203D01*
X151839304Y-109655908D01*
X151796897Y-109553527D01*
X151796890Y-109553514D01*
X151709289Y-109422411D01*
X151709286Y-109422407D01*
X151597792Y-109310913D01*
X151597788Y-109310910D01*
X151466685Y-109223309D01*
X151466672Y-109223302D01*
X151321001Y-109162964D01*
X151320989Y-109162961D01*
X151166345Y-109132200D01*
X151166342Y-109132200D01*
X151008658Y-109132200D01*
X151008655Y-109132200D01*
X150854010Y-109162961D01*
X150853998Y-109162964D01*
X150708327Y-109223302D01*
X150708314Y-109223309D01*
X150577211Y-109310910D01*
X150577207Y-109310913D01*
X150465713Y-109422407D01*
X150465710Y-109422411D01*
X150378109Y-109553514D01*
X150378102Y-109553527D01*
X150317764Y-109699198D01*
X150317761Y-109699210D01*
X150287000Y-109853853D01*
X150287000Y-110011546D01*
X150317761Y-110166189D01*
X150317764Y-110166201D01*
X150378102Y-110311872D01*
X150378109Y-110311884D01*
X150441102Y-110406159D01*
X150461980Y-110472836D01*
X150462000Y-110475050D01*
X150462000Y-127475347D01*
X150442315Y-127542386D01*
X150425681Y-127563028D01*
X147514144Y-130474564D01*
X147514138Y-130474572D01*
X147445690Y-130577008D01*
X147445688Y-130577013D01*
X147426660Y-130622952D01*
X147382820Y-130677356D01*
X147316526Y-130699421D01*
X147312100Y-130699500D01*
X147152130Y-130699500D01*
X147152123Y-130699501D01*
X147092516Y-130705908D01*
X146957671Y-130756202D01*
X146957664Y-130756206D01*
X146842455Y-130842452D01*
X146842452Y-130842455D01*
X146756206Y-130957664D01*
X146756202Y-130957671D01*
X146705908Y-131092517D01*
X146700192Y-131145689D01*
X146699501Y-131152123D01*
X146699500Y-131152135D01*
X146699500Y-131671088D01*
X146679815Y-131738127D01*
X146627011Y-131783882D01*
X146557853Y-131793826D01*
X146494297Y-131764801D01*
X146478198Y-131746553D01*
X146477753Y-131746919D01*
X146473886Y-131742207D01*
X146362392Y-131630713D01*
X146362388Y-131630710D01*
X146231285Y-131543109D01*
X146231272Y-131543102D01*
X146085601Y-131482764D01*
X146085589Y-131482761D01*
X145930945Y-131452000D01*
X145930942Y-131452000D01*
X145773258Y-131452000D01*
X145773255Y-131452000D01*
X145652891Y-131475942D01*
X145583300Y-131469715D01*
X145528122Y-131426852D01*
X145504878Y-131360962D01*
X145504700Y-131354325D01*
X145504700Y-127316950D01*
X145524385Y-127249911D01*
X145525598Y-127248059D01*
X145526009Y-127247443D01*
X145588594Y-127153779D01*
X145648937Y-127008097D01*
X145679700Y-126853442D01*
X145679700Y-126695758D01*
X145679700Y-126695755D01*
X145679699Y-126695753D01*
X145665700Y-126625377D01*
X145648937Y-126541103D01*
X145646458Y-126535117D01*
X145588597Y-126395427D01*
X145588590Y-126395414D01*
X145500989Y-126264311D01*
X145500986Y-126264307D01*
X145389492Y-126152813D01*
X145389488Y-126152810D01*
X145258385Y-126065209D01*
X145258372Y-126065202D01*
X145112701Y-126004864D01*
X145112689Y-126004861D01*
X144958045Y-125974100D01*
X144958042Y-125974100D01*
X144800358Y-125974100D01*
X144800355Y-125974100D01*
X144645710Y-126004861D01*
X144645698Y-126004864D01*
X144500027Y-126065202D01*
X144500014Y-126065209D01*
X144368911Y-126152810D01*
X144368907Y-126152813D01*
X144257413Y-126264307D01*
X144257410Y-126264311D01*
X144169809Y-126395414D01*
X144169802Y-126395427D01*
X144109464Y-126541098D01*
X144109461Y-126541110D01*
X144078700Y-126695753D01*
X144078700Y-126801536D01*
X144059015Y-126868575D01*
X144006211Y-126914330D01*
X143978892Y-126923153D01*
X143916008Y-126935661D01*
X143915998Y-126935664D01*
X143770327Y-126996002D01*
X143770314Y-126996009D01*
X143639211Y-127083610D01*
X143639207Y-127083613D01*
X143527713Y-127195107D01*
X143527710Y-127195111D01*
X143440109Y-127326214D01*
X143440102Y-127326227D01*
X143379764Y-127471898D01*
X143379761Y-127471910D01*
X143349000Y-127626553D01*
X138250024Y-127626553D01*
X138247816Y-127624949D01*
X138231243Y-127616504D01*
X138224073Y-127611468D01*
X138207542Y-127590723D01*
X138188259Y-127572512D01*
X138186107Y-127563825D01*
X138180530Y-127556826D01*
X138177838Y-127530435D01*
X138171463Y-127504692D01*
X138174349Y-127496221D01*
X138173441Y-127487317D01*
X138185444Y-127463662D01*
X138193999Y-127438556D01*
X138201467Y-127432084D01*
X138205057Y-127425010D01*
X138219188Y-127416729D01*
X138239054Y-127399515D01*
X138247816Y-127395051D01*
X138359271Y-127314075D01*
X138419786Y-127270109D01*
X138419788Y-127270106D01*
X138419792Y-127270104D01*
X138570104Y-127119792D01*
X138570106Y-127119788D01*
X138570109Y-127119786D01*
X138695048Y-126947820D01*
X138695047Y-126947820D01*
X138695051Y-126947816D01*
X138791557Y-126758412D01*
X138857246Y-126556243D01*
X138890500Y-126346287D01*
X138890500Y-126133713D01*
X138857246Y-125923757D01*
X138791557Y-125721588D01*
X138695051Y-125532184D01*
X138664403Y-125490000D01*
X138600952Y-125402666D01*
X138577472Y-125336860D01*
X138593298Y-125268806D01*
X138613585Y-125242104D01*
X139202557Y-124653134D01*
X139218563Y-124629181D01*
X139218566Y-124629177D01*
X139257128Y-124571463D01*
X139271011Y-124550686D01*
X139318163Y-124436852D01*
X139323938Y-124407820D01*
X139333408Y-124360211D01*
X139333408Y-124360208D01*
X139342200Y-124316007D01*
X139342200Y-124192794D01*
X139342200Y-122152135D01*
X146699500Y-122152135D01*
X146699500Y-123847870D01*
X146699501Y-123847876D01*
X146705908Y-123907483D01*
X146756202Y-124042328D01*
X146756206Y-124042335D01*
X146842452Y-124157544D01*
X146842455Y-124157547D01*
X146957664Y-124243793D01*
X146957671Y-124243797D01*
X147092517Y-124294091D01*
X147092516Y-124294091D01*
X147099444Y-124294835D01*
X147152127Y-124300500D01*
X148847872Y-124300499D01*
X148907483Y-124294091D01*
X149042331Y-124243796D01*
X149157546Y-124157546D01*
X149243796Y-124042331D01*
X149294091Y-123907483D01*
X149300500Y-123847873D01*
X149300499Y-122152128D01*
X149294091Y-122092517D01*
X149285352Y-122069087D01*
X149243797Y-121957671D01*
X149243793Y-121957664D01*
X149157547Y-121842455D01*
X149157544Y-121842452D01*
X149042335Y-121756206D01*
X149042328Y-121756202D01*
X148907482Y-121705908D01*
X148907483Y-121705908D01*
X148847883Y-121699501D01*
X148847881Y-121699500D01*
X148847873Y-121699500D01*
X148847864Y-121699500D01*
X147152129Y-121699500D01*
X147152123Y-121699501D01*
X147092516Y-121705908D01*
X146957671Y-121756202D01*
X146957664Y-121756206D01*
X146842455Y-121842452D01*
X146842452Y-121842455D01*
X146756206Y-121957664D01*
X146756202Y-121957671D01*
X146705908Y-122092517D01*
X146699501Y-122152116D01*
X146699501Y-122152123D01*
X146699500Y-122152135D01*
X139342200Y-122152135D01*
X139342200Y-117152135D01*
X146699500Y-117152135D01*
X146699500Y-118847870D01*
X146699501Y-118847876D01*
X146705908Y-118907483D01*
X146756202Y-119042328D01*
X146756206Y-119042335D01*
X146842452Y-119157544D01*
X146842455Y-119157547D01*
X146957664Y-119243793D01*
X146957671Y-119243797D01*
X147092517Y-119294091D01*
X147092516Y-119294091D01*
X147099444Y-119294835D01*
X147152127Y-119300500D01*
X148847872Y-119300499D01*
X148907483Y-119294091D01*
X149042331Y-119243796D01*
X149157546Y-119157546D01*
X149243796Y-119042331D01*
X149294091Y-118907483D01*
X149300500Y-118847873D01*
X149300499Y-117152128D01*
X149294091Y-117092517D01*
X149283489Y-117064092D01*
X149243797Y-116957671D01*
X149243793Y-116957664D01*
X149157547Y-116842455D01*
X149157544Y-116842452D01*
X149042335Y-116756206D01*
X149042328Y-116756202D01*
X148907482Y-116705908D01*
X148907483Y-116705908D01*
X148847883Y-116699501D01*
X148847881Y-116699500D01*
X148847873Y-116699500D01*
X148847864Y-116699500D01*
X147152129Y-116699500D01*
X147152123Y-116699501D01*
X147092516Y-116705908D01*
X146957671Y-116756202D01*
X146957664Y-116756206D01*
X146842455Y-116842452D01*
X146842452Y-116842455D01*
X146756206Y-116957664D01*
X146756202Y-116957671D01*
X146705908Y-117092517D01*
X146699501Y-117152116D01*
X146699501Y-117152123D01*
X146699500Y-117152135D01*
X139342200Y-117152135D01*
X139342200Y-112152135D01*
X146699500Y-112152135D01*
X146699500Y-113847870D01*
X146699501Y-113847876D01*
X146705908Y-113907483D01*
X146756202Y-114042328D01*
X146756206Y-114042335D01*
X146842452Y-114157544D01*
X146842455Y-114157547D01*
X146957664Y-114243793D01*
X146957671Y-114243797D01*
X147092517Y-114294091D01*
X147092516Y-114294091D01*
X147099444Y-114294835D01*
X147152127Y-114300500D01*
X148847872Y-114300499D01*
X148907483Y-114294091D01*
X149042331Y-114243796D01*
X149157546Y-114157546D01*
X149243796Y-114042331D01*
X149294091Y-113907483D01*
X149300500Y-113847873D01*
X149300499Y-112152128D01*
X149294091Y-112092517D01*
X149274503Y-112040000D01*
X149243797Y-111957671D01*
X149243793Y-111957664D01*
X149157547Y-111842455D01*
X149157544Y-111842452D01*
X149042335Y-111756206D01*
X149042328Y-111756202D01*
X148907482Y-111705908D01*
X148907483Y-111705908D01*
X148847883Y-111699501D01*
X148847881Y-111699500D01*
X148847873Y-111699500D01*
X148847864Y-111699500D01*
X147152129Y-111699500D01*
X147152123Y-111699501D01*
X147092516Y-111705908D01*
X146957671Y-111756202D01*
X146957664Y-111756206D01*
X146842455Y-111842452D01*
X146842452Y-111842455D01*
X146756206Y-111957664D01*
X146756202Y-111957671D01*
X146705908Y-112092517D01*
X146700814Y-112139901D01*
X146699501Y-112152123D01*
X146699500Y-112152135D01*
X139342200Y-112152135D01*
X139342200Y-107152135D01*
X146699500Y-107152135D01*
X146699500Y-108847870D01*
X146699501Y-108847876D01*
X146705908Y-108907483D01*
X146756202Y-109042328D01*
X146756206Y-109042335D01*
X146842452Y-109157544D01*
X146842455Y-109157547D01*
X146957664Y-109243793D01*
X146957671Y-109243797D01*
X147092517Y-109294091D01*
X147092516Y-109294091D01*
X147099444Y-109294835D01*
X147152127Y-109300500D01*
X148847872Y-109300499D01*
X148907483Y-109294091D01*
X149042331Y-109243796D01*
X149157546Y-109157546D01*
X149243796Y-109042331D01*
X149294091Y-108907483D01*
X149300500Y-108847873D01*
X149300499Y-107152128D01*
X149294091Y-107092517D01*
X149243796Y-106957669D01*
X149243795Y-106957668D01*
X149243793Y-106957664D01*
X149157547Y-106842455D01*
X149157544Y-106842452D01*
X149042335Y-106756206D01*
X149042328Y-106756202D01*
X148907482Y-106705908D01*
X148907483Y-106705908D01*
X148847883Y-106699501D01*
X148847881Y-106699500D01*
X148847873Y-106699500D01*
X148847864Y-106699500D01*
X147152129Y-106699500D01*
X147152123Y-106699501D01*
X147092516Y-106705908D01*
X146957671Y-106756202D01*
X146957664Y-106756206D01*
X146842455Y-106842452D01*
X146842452Y-106842455D01*
X146756206Y-106957664D01*
X146756202Y-106957671D01*
X146705908Y-107092517D01*
X146702148Y-107127494D01*
X146699501Y-107152123D01*
X146699500Y-107152135D01*
X139342200Y-107152135D01*
X139342200Y-106781794D01*
X139318163Y-106660948D01*
X139271011Y-106547114D01*
X139271010Y-106547113D01*
X139271007Y-106547107D01*
X139202559Y-106444668D01*
X139201684Y-106443793D01*
X139115433Y-106357542D01*
X139115432Y-106357541D01*
X138120274Y-105362384D01*
X138086790Y-105301062D01*
X138091774Y-105231371D01*
X138133645Y-105175438D01*
X138157546Y-105157546D01*
X138243796Y-105042331D01*
X138294091Y-104907483D01*
X138300500Y-104847873D01*
X138300499Y-103897648D01*
X145859500Y-103897648D01*
X145859500Y-104102351D01*
X145891522Y-104304534D01*
X145954781Y-104499223D01*
X146018691Y-104624653D01*
X146030909Y-104648631D01*
X146047715Y-104681613D01*
X146168028Y-104847213D01*
X146312786Y-104991971D01*
X146444619Y-105087751D01*
X146478390Y-105112287D01*
X146567208Y-105157542D01*
X146660776Y-105205218D01*
X146660778Y-105205218D01*
X146660781Y-105205220D01*
X146765137Y-105239127D01*
X146855465Y-105268477D01*
X146956557Y-105284488D01*
X147057648Y-105300500D01*
X147057649Y-105300500D01*
X147262351Y-105300500D01*
X147262352Y-105300500D01*
X147464534Y-105268477D01*
X147659219Y-105205220D01*
X147841610Y-105112287D01*
X147937901Y-105042328D01*
X148007213Y-104991971D01*
X148007215Y-104991968D01*
X148007219Y-104991966D01*
X148151966Y-104847219D01*
X148151968Y-104847215D01*
X148151971Y-104847213D01*
X148213209Y-104762924D01*
X148272287Y-104681610D01*
X148365220Y-104499219D01*
X148428477Y-104304534D01*
X148460500Y-104102352D01*
X148460500Y-103897648D01*
X148452257Y-103845606D01*
X148428477Y-103695465D01*
X148383227Y-103556202D01*
X148365220Y-103500781D01*
X148365218Y-103500778D01*
X148365218Y-103500776D01*
X148331503Y-103434607D01*
X148272287Y-103318390D01*
X148264556Y-103307749D01*
X148151971Y-103152786D01*
X148007213Y-103008028D01*
X147841613Y-102887715D01*
X147841612Y-102887714D01*
X147841610Y-102887713D01*
X147784653Y-102858691D01*
X147659223Y-102794781D01*
X147464534Y-102731522D01*
X147289995Y-102703878D01*
X147262352Y-102699500D01*
X147057648Y-102699500D01*
X147033329Y-102703351D01*
X146855465Y-102731522D01*
X146660776Y-102794781D01*
X146478386Y-102887715D01*
X146312786Y-103008028D01*
X146168028Y-103152786D01*
X146047715Y-103318386D01*
X145954781Y-103500776D01*
X145891522Y-103695465D01*
X145859500Y-103897648D01*
X138300499Y-103897648D01*
X138300499Y-103152128D01*
X138294091Y-103092517D01*
X138243796Y-102957669D01*
X138243795Y-102957668D01*
X138243793Y-102957664D01*
X138157547Y-102842455D01*
X138157544Y-102842452D01*
X138042335Y-102756206D01*
X138042328Y-102756202D01*
X137907482Y-102705908D01*
X137907483Y-102705908D01*
X137847883Y-102699501D01*
X137847881Y-102699500D01*
X137847873Y-102699500D01*
X137847864Y-102699500D01*
X136152129Y-102699500D01*
X136152123Y-102699501D01*
X136092516Y-102705908D01*
X135957671Y-102756202D01*
X135957664Y-102756206D01*
X135842455Y-102842452D01*
X135842452Y-102842455D01*
X135756206Y-102957664D01*
X135756202Y-102957671D01*
X135709521Y-103082832D01*
X135667650Y-103138766D01*
X135602186Y-103163183D01*
X135533913Y-103148332D01*
X135505658Y-103127180D01*
X135386895Y-103008417D01*
X135221349Y-102888140D01*
X135039029Y-102795244D01*
X134844413Y-102732009D01*
X134790000Y-102723390D01*
X134790000Y-103684314D01*
X134785606Y-103679920D01*
X134694394Y-103627259D01*
X134592661Y-103600000D01*
X134487339Y-103600000D01*
X134385606Y-103627259D01*
X134294394Y-103679920D01*
X134290000Y-103684314D01*
X134290000Y-102723390D01*
X134235586Y-102732009D01*
X134040970Y-102795244D01*
X133858650Y-102888140D01*
X133693105Y-103008417D01*
X133693104Y-103008417D01*
X133548414Y-103153107D01*
X133521746Y-103189813D01*
X133466415Y-103232478D01*
X133396802Y-103238456D01*
X133335007Y-103205849D01*
X133300651Y-103145010D01*
X133298139Y-103130177D01*
X133294091Y-103092517D01*
X133243797Y-102957671D01*
X133243793Y-102957664D01*
X133157547Y-102842455D01*
X133157544Y-102842452D01*
X133042335Y-102756206D01*
X133042328Y-102756202D01*
X132907482Y-102705908D01*
X132907483Y-102705908D01*
X132847883Y-102699501D01*
X132847881Y-102699500D01*
X132847873Y-102699500D01*
X132847864Y-102699500D01*
X131152129Y-102699500D01*
X131152123Y-102699501D01*
X131092516Y-102705908D01*
X130957671Y-102756202D01*
X130957664Y-102756206D01*
X130842455Y-102842452D01*
X130842452Y-102842455D01*
X130756206Y-102957664D01*
X130756202Y-102957671D01*
X130705908Y-103092517D01*
X130700265Y-103145010D01*
X130699501Y-103152123D01*
X130699500Y-103152135D01*
X130699500Y-104847870D01*
X130699501Y-104847876D01*
X130705908Y-104907483D01*
X130756202Y-105042328D01*
X130756206Y-105042335D01*
X130842452Y-105157544D01*
X130842455Y-105157547D01*
X130957664Y-105243793D01*
X130957671Y-105243797D01*
X131092517Y-105294091D01*
X131092516Y-105294091D01*
X131099444Y-105294835D01*
X131152127Y-105300500D01*
X132847872Y-105300499D01*
X132907483Y-105294091D01*
X133042331Y-105243796D01*
X133157546Y-105157546D01*
X133243796Y-105042331D01*
X133294091Y-104907483D01*
X133298140Y-104869815D01*
X133324876Y-104805268D01*
X133382268Y-104765419D01*
X133452093Y-104762924D01*
X133512183Y-104798576D01*
X133521747Y-104810187D01*
X133548417Y-104846894D01*
X133548417Y-104846895D01*
X133693104Y-104991582D01*
X133858650Y-105111859D01*
X134040968Y-105204754D01*
X134235578Y-105267988D01*
X134290000Y-105276607D01*
X134290000Y-104315686D01*
X134294394Y-104320080D01*
X134385606Y-104372741D01*
X134487339Y-104400000D01*
X134592661Y-104400000D01*
X134694394Y-104372741D01*
X134785606Y-104320080D01*
X134790000Y-104315686D01*
X134790000Y-105276606D01*
X134844421Y-105267988D01*
X135039031Y-105204754D01*
X135221349Y-105111859D01*
X135386891Y-104991585D01*
X135505657Y-104872819D01*
X135566980Y-104839334D01*
X135636672Y-104844318D01*
X135692606Y-104886189D01*
X135709521Y-104917167D01*
X135756202Y-105042328D01*
X135756206Y-105042335D01*
X135842452Y-105157544D01*
X135842455Y-105157547D01*
X135957664Y-105243793D01*
X135957671Y-105243797D01*
X135987271Y-105254837D01*
X136092517Y-105294091D01*
X136152127Y-105300500D01*
X136312098Y-105300499D01*
X136325052Y-105304302D01*
X136338520Y-105303347D01*
X136357920Y-105313953D01*
X136379137Y-105320183D01*
X136389308Y-105331114D01*
X136399826Y-105336864D01*
X136412955Y-105356526D01*
X136420962Y-105365130D01*
X136424129Y-105370938D01*
X136445688Y-105422986D01*
X136479718Y-105473914D01*
X136482818Y-105478554D01*
X136482820Y-105478557D01*
X136514138Y-105525428D01*
X136514139Y-105525429D01*
X136514142Y-105525433D01*
X136601267Y-105612558D01*
X136601269Y-105612559D01*
X136608335Y-105619625D01*
X136608334Y-105619625D01*
X136608338Y-105619628D01*
X138054881Y-107066171D01*
X138088366Y-107127494D01*
X138091200Y-107153852D01*
X138091200Y-109588424D01*
X138071515Y-109655463D01*
X138018711Y-109701218D01*
X137949553Y-109711162D01*
X137928884Y-109706356D01*
X137887755Y-109692993D01*
X137856243Y-109682754D01*
X137856239Y-109682753D01*
X137856238Y-109682753D01*
X137737028Y-109663872D01*
X137646287Y-109649500D01*
X137433713Y-109649500D01*
X137385042Y-109657208D01*
X137223760Y-109682753D01*
X137021585Y-109748444D01*
X136832179Y-109844951D01*
X136660215Y-109969889D01*
X136546673Y-110083431D01*
X136485350Y-110116915D01*
X136415658Y-110111931D01*
X136359725Y-110070059D01*
X136342810Y-110039082D01*
X136293797Y-109907671D01*
X136293793Y-109907664D01*
X136207547Y-109792455D01*
X136207544Y-109792452D01*
X136092335Y-109706206D01*
X136092328Y-109706202D01*
X135957482Y-109655908D01*
X135957483Y-109655908D01*
X135897883Y-109649501D01*
X135897881Y-109649500D01*
X135897873Y-109649500D01*
X135897864Y-109649500D01*
X134102129Y-109649500D01*
X134102123Y-109649501D01*
X134042516Y-109655908D01*
X133907671Y-109706202D01*
X133907664Y-109706206D01*
X133792455Y-109792452D01*
X133792452Y-109792455D01*
X133706206Y-109907664D01*
X133706202Y-109907671D01*
X133655908Y-110042517D01*
X133649501Y-110102116D01*
X133649500Y-110102135D01*
X133649500Y-111897870D01*
X133649501Y-111897876D01*
X133655908Y-111957483D01*
X133706202Y-112092328D01*
X133706206Y-112092335D01*
X133792452Y-112207544D01*
X133792455Y-112207547D01*
X133907664Y-112293793D01*
X133907671Y-112293797D01*
X134039082Y-112342810D01*
X134095016Y-112384681D01*
X134119433Y-112450145D01*
X134104582Y-112518418D01*
X134083431Y-112546673D01*
X133969889Y-112660215D01*
X133844951Y-112832179D01*
X133748444Y-113021585D01*
X133682753Y-113223760D01*
X133649500Y-113433713D01*
X133649500Y-113646286D01*
X133681428Y-113847876D01*
X133682754Y-113856243D01*
X133746730Y-114053141D01*
X133748444Y-114058414D01*
X133844951Y-114247820D01*
X133969890Y-114419786D01*
X134120213Y-114570109D01*
X134292182Y-114695050D01*
X134300946Y-114699516D01*
X134351742Y-114747491D01*
X134368536Y-114815312D01*
X134345998Y-114881447D01*
X134300946Y-114920484D01*
X134292182Y-114924949D01*
X134120213Y-115049890D01*
X133969890Y-115200213D01*
X133844951Y-115372179D01*
X133748444Y-115561585D01*
X133682753Y-115763760D01*
X133649500Y-115973713D01*
X133649500Y-116186286D01*
X133672508Y-116331557D01*
X133682754Y-116396243D01*
X133745799Y-116590276D01*
X133748444Y-116598414D01*
X133844951Y-116787820D01*
X133969890Y-116959786D01*
X134120213Y-117110109D01*
X134292179Y-117235048D01*
X134292181Y-117235049D01*
X134292184Y-117235051D01*
X134301493Y-117239794D01*
X134352290Y-117287766D01*
X134369087Y-117355587D01*
X134346552Y-117421722D01*
X134301502Y-117460762D01*
X134292443Y-117465378D01*
X134120540Y-117590272D01*
X134120535Y-117590276D01*
X133970276Y-117740535D01*
X133970272Y-117740540D01*
X133845379Y-117912442D01*
X133748904Y-118101782D01*
X133683242Y-118303870D01*
X133683242Y-118303873D01*
X133672769Y-118370000D01*
X134566988Y-118370000D01*
X134534075Y-118427007D01*
X134500000Y-118554174D01*
X134500000Y-118685826D01*
X134534075Y-118812993D01*
X134566988Y-118870000D01*
X133672769Y-118870000D01*
X133683242Y-118936126D01*
X133683242Y-118936129D01*
X133748904Y-119138217D01*
X133845379Y-119327557D01*
X133970272Y-119499459D01*
X133970276Y-119499464D01*
X134120535Y-119649723D01*
X134120540Y-119649727D01*
X134292444Y-119774622D01*
X134301495Y-119779234D01*
X134352292Y-119827208D01*
X134369087Y-119895029D01*
X134346550Y-119961164D01*
X134301499Y-120000202D01*
X134292182Y-120004949D01*
X134120213Y-120129890D01*
X133969890Y-120280213D01*
X133844951Y-120452179D01*
X133748444Y-120641585D01*
X133682753Y-120843760D01*
X133649500Y-121053713D01*
X133649500Y-121266286D01*
X133672508Y-121411557D01*
X133682754Y-121476243D01*
X133746084Y-121671153D01*
X133748444Y-121678414D01*
X133844951Y-121867820D01*
X133969890Y-122039786D01*
X134120213Y-122190109D01*
X134292182Y-122315050D01*
X134300946Y-122319516D01*
X134351742Y-122367491D01*
X134368536Y-122435312D01*
X134345998Y-122501447D01*
X134300946Y-122540484D01*
X134292182Y-122544949D01*
X134120213Y-122669890D01*
X133969890Y-122820213D01*
X133844951Y-122992179D01*
X133748444Y-123181585D01*
X133682753Y-123383760D01*
X133666854Y-123484142D01*
X133649500Y-123593713D01*
X133649500Y-123806287D01*
X133656087Y-123847873D01*
X133682046Y-124011778D01*
X133682754Y-124016243D01*
X133747696Y-124216114D01*
X133748444Y-124218414D01*
X133844951Y-124407820D01*
X133969890Y-124579786D01*
X134120213Y-124730109D01*
X134292182Y-124855050D01*
X134300946Y-124859516D01*
X134351742Y-124907491D01*
X134368536Y-124975312D01*
X134345998Y-125041447D01*
X134300946Y-125080484D01*
X134292182Y-125084949D01*
X134120213Y-125209890D01*
X133969890Y-125360213D01*
X133844951Y-125532179D01*
X133748444Y-125721585D01*
X133682753Y-125923760D01*
X133649500Y-126133713D01*
X133649500Y-126346286D01*
X133674336Y-126503098D01*
X133682754Y-126556243D01*
X133745799Y-126750276D01*
X133748444Y-126758414D01*
X133844951Y-126947820D01*
X133969890Y-127119786D01*
X134120213Y-127270109D01*
X134292182Y-127395050D01*
X134300946Y-127399516D01*
X134351742Y-127447491D01*
X134368536Y-127515312D01*
X134345998Y-127581447D01*
X134300946Y-127620484D01*
X134292182Y-127624949D01*
X134120213Y-127749890D01*
X133969890Y-127900213D01*
X133844951Y-128072179D01*
X133748444Y-128261585D01*
X133682753Y-128463760D01*
X133649500Y-128673713D01*
X133649500Y-128886286D01*
X133674214Y-129042328D01*
X133682754Y-129096243D01*
X133746165Y-129291402D01*
X133748444Y-129298414D01*
X133844951Y-129487820D01*
X133969890Y-129659786D01*
X134120213Y-129810109D01*
X134292182Y-129935050D01*
X134300946Y-129939516D01*
X134351742Y-129987491D01*
X134368536Y-130055312D01*
X134345998Y-130121447D01*
X134300946Y-130160484D01*
X134292182Y-130164949D01*
X134120213Y-130289890D01*
X133969890Y-130440213D01*
X133844951Y-130612179D01*
X133748444Y-130801585D01*
X133748443Y-130801587D01*
X133748443Y-130801588D01*
X133725672Y-130871671D01*
X133682753Y-131003760D01*
X133651758Y-131199459D01*
X133649500Y-131213713D01*
X133649500Y-131426287D01*
X133653573Y-131452000D01*
X133681877Y-131630711D01*
X133682754Y-131636243D01*
X133745799Y-131830276D01*
X133748444Y-131838414D01*
X133844951Y-132027820D01*
X133969890Y-132199786D01*
X134120213Y-132350109D01*
X134292182Y-132475050D01*
X134300946Y-132479516D01*
X134351742Y-132527491D01*
X134368536Y-132595312D01*
X134345998Y-132661447D01*
X134300946Y-132700484D01*
X134292182Y-132704949D01*
X134120213Y-132829890D01*
X133969890Y-132980213D01*
X133844951Y-133152179D01*
X133748444Y-133341585D01*
X133682753Y-133543760D01*
X133649500Y-133753713D01*
X133649500Y-133966282D01*
X133649499Y-133966284D01*
X133682753Y-134176239D01*
X133682754Y-134176243D01*
X133746747Y-134373193D01*
X133748444Y-134378414D01*
X133844951Y-134567820D01*
X133969890Y-134739786D01*
X133969896Y-134739792D01*
X134120208Y-134890104D01*
X134292184Y-135015051D01*
X134300945Y-135019514D01*
X134351740Y-135067487D01*
X134368536Y-135135307D01*
X134346000Y-135201443D01*
X134300953Y-135240480D01*
X134292181Y-135244950D01*
X134120213Y-135369890D01*
X133969890Y-135520213D01*
X133844951Y-135692179D01*
X133748444Y-135881585D01*
X133682753Y-136083760D01*
X133660519Y-136224142D01*
X133649500Y-136293713D01*
X133649500Y-136506287D01*
X133657156Y-136554622D01*
X133677268Y-136681610D01*
X133682754Y-136716243D01*
X133745799Y-136910276D01*
X133748444Y-136918414D01*
X133844951Y-137107820D01*
X133969890Y-137279786D01*
X134120213Y-137430109D01*
X134292182Y-137555050D01*
X134300946Y-137559516D01*
X134351742Y-137607491D01*
X134368536Y-137675312D01*
X134345998Y-137741447D01*
X134300946Y-137780484D01*
X134292182Y-137784949D01*
X134120213Y-137909890D01*
X133969890Y-138060213D01*
X133844951Y-138232179D01*
X133748444Y-138421585D01*
X133682753Y-138623760D01*
X133649500Y-138833713D01*
X133649500Y-139046286D01*
X133680449Y-139241694D01*
X133682754Y-139256243D01*
X133745799Y-139450276D01*
X133748444Y-139458414D01*
X133844951Y-139647820D01*
X133969890Y-139819786D01*
X134120213Y-139970109D01*
X134292182Y-140095050D01*
X134300946Y-140099516D01*
X134351742Y-140147491D01*
X134368536Y-140215312D01*
X134345998Y-140281447D01*
X134300946Y-140320484D01*
X134292182Y-140324949D01*
X134120213Y-140449890D01*
X133969890Y-140600213D01*
X133844950Y-140772180D01*
X133834970Y-140791768D01*
X133786994Y-140842563D01*
X133748677Y-140857088D01*
X133640855Y-140878535D01*
X133640845Y-140878538D01*
X133527016Y-140925687D01*
X133527007Y-140925692D01*
X133424567Y-140994141D01*
X133424563Y-140994144D01*
X133337444Y-141081263D01*
X133337441Y-141081267D01*
X133268992Y-141183707D01*
X133268987Y-141183716D01*
X133221838Y-141297545D01*
X133221835Y-141297555D01*
X133197800Y-141418389D01*
X133197800Y-141992947D01*
X133178115Y-142059986D01*
X133161481Y-142080628D01*
X126362385Y-148879724D01*
X126301062Y-148913209D01*
X126231370Y-148908225D01*
X126175438Y-148866354D01*
X126157547Y-148842455D01*
X126157544Y-148842452D01*
X126042335Y-148756206D01*
X126042328Y-148756202D01*
X125907482Y-148705908D01*
X125907483Y-148705908D01*
X125847883Y-148699501D01*
X125847881Y-148699500D01*
X125847873Y-148699500D01*
X125847864Y-148699500D01*
X124152129Y-148699500D01*
X124152123Y-148699501D01*
X124092516Y-148705908D01*
X123957671Y-148756202D01*
X123957664Y-148756206D01*
X123842455Y-148842452D01*
X123842452Y-148842455D01*
X123756206Y-148957664D01*
X123756202Y-148957671D01*
X123705908Y-149092517D01*
X123699501Y-149152116D01*
X123699500Y-149152135D01*
X119625500Y-149152135D01*
X119625500Y-142378694D01*
X119623241Y-142367339D01*
X119622777Y-142365006D01*
X119601463Y-142257849D01*
X119594812Y-142241793D01*
X119568826Y-142179056D01*
X119554314Y-142144020D01*
X119554307Y-142144007D01*
X119485858Y-142041567D01*
X119485855Y-142041563D01*
X119395637Y-141951345D01*
X119395606Y-141951316D01*
X118773470Y-141329180D01*
X118739985Y-141267857D01*
X118744969Y-141198165D01*
X118786841Y-141142232D01*
X118804856Y-141131014D01*
X118841610Y-141112287D01*
X118895449Y-141073171D01*
X119007213Y-140991971D01*
X119007215Y-140991968D01*
X119007219Y-140991966D01*
X119151966Y-140847219D01*
X119151968Y-140847215D01*
X119151971Y-140847213D01*
X119237130Y-140730000D01*
X119272287Y-140681610D01*
X119365220Y-140499219D01*
X119428477Y-140304534D01*
X119460500Y-140102352D01*
X119460500Y-139897648D01*
X119447089Y-139812977D01*
X119428477Y-139695465D01*
X119385403Y-139562897D01*
X119365220Y-139500781D01*
X119365218Y-139500778D01*
X119365218Y-139500776D01*
X119331503Y-139434607D01*
X119272287Y-139318390D01*
X119258868Y-139299920D01*
X119151971Y-139152786D01*
X119046218Y-139047033D01*
X119012733Y-138985710D01*
X119017717Y-138916018D01*
X119046215Y-138871674D01*
X119772557Y-138145334D01*
X119841011Y-138042886D01*
X119888163Y-137929052D01*
X119912200Y-137808207D01*
X119912200Y-137684994D01*
X119912200Y-126191794D01*
X119888163Y-126070948D01*
X119841011Y-125957114D01*
X119841010Y-125957113D01*
X119841007Y-125957107D01*
X119772559Y-125854668D01*
X119772558Y-125854667D01*
X119685433Y-125767542D01*
X119685432Y-125767541D01*
X119046219Y-125128328D01*
X119012734Y-125067005D01*
X119017718Y-124997313D01*
X119046219Y-124952966D01*
X119092558Y-124906627D01*
X119151966Y-124847219D01*
X119151968Y-124847215D01*
X119151971Y-124847213D01*
X119215124Y-124760289D01*
X119272287Y-124681610D01*
X119365220Y-124499219D01*
X119428477Y-124304534D01*
X119460500Y-124102352D01*
X119460500Y-123897648D01*
X119446030Y-123806287D01*
X119428477Y-123695465D01*
X119378160Y-123540606D01*
X119365220Y-123500781D01*
X119365218Y-123500778D01*
X119365218Y-123500776D01*
X119317721Y-123407559D01*
X119272287Y-123318390D01*
X119243544Y-123278828D01*
X119151971Y-123152786D01*
X119007213Y-123008028D01*
X118841613Y-122887715D01*
X118841612Y-122887714D01*
X118841610Y-122887713D01*
X118784653Y-122858691D01*
X118659223Y-122794781D01*
X118464534Y-122731522D01*
X118289995Y-122703878D01*
X118262352Y-122699500D01*
X118057648Y-122699500D01*
X117990254Y-122710174D01*
X117855464Y-122731523D01*
X117821116Y-122742683D01*
X117751275Y-122744677D01*
X117691443Y-122708595D01*
X117660616Y-122645894D01*
X117658800Y-122624751D01*
X117658800Y-121375248D01*
X117678485Y-121308209D01*
X117731289Y-121262454D01*
X117800447Y-121252510D01*
X117821119Y-121257317D01*
X117855465Y-121268477D01*
X117956557Y-121284488D01*
X118057648Y-121300500D01*
X118057649Y-121300500D01*
X118262351Y-121300500D01*
X118262352Y-121300500D01*
X118464534Y-121268477D01*
X118659219Y-121205220D01*
X118841610Y-121112287D01*
X118941850Y-121039459D01*
X119007213Y-120991971D01*
X119007215Y-120991968D01*
X119007219Y-120991966D01*
X119151966Y-120847219D01*
X119151968Y-120847215D01*
X119151971Y-120847213D01*
X119204732Y-120774590D01*
X119272287Y-120681610D01*
X119365220Y-120499219D01*
X119428477Y-120304534D01*
X119460500Y-120102352D01*
X119460500Y-119897648D01*
X119428477Y-119695466D01*
X119416953Y-119660000D01*
X119373230Y-119525433D01*
X119365220Y-119500781D01*
X119365218Y-119500778D01*
X119365218Y-119500776D01*
X119325581Y-119422986D01*
X119272287Y-119318390D01*
X119244550Y-119280213D01*
X119151971Y-119152786D01*
X119007213Y-119008028D01*
X118841613Y-118887715D01*
X118841612Y-118887714D01*
X118841610Y-118887713D01*
X118784653Y-118858691D01*
X118659223Y-118794781D01*
X118464534Y-118731522D01*
X118289995Y-118703878D01*
X118262352Y-118699500D01*
X118057648Y-118699500D01*
X117990254Y-118710174D01*
X117855464Y-118731523D01*
X117821116Y-118742683D01*
X117792993Y-118743485D01*
X117765153Y-118747489D01*
X117758541Y-118744469D01*
X117751275Y-118744677D01*
X117727186Y-118730150D01*
X117701597Y-118718464D01*
X117697666Y-118712348D01*
X117691443Y-118708595D01*
X117679032Y-118683353D01*
X117663823Y-118659686D01*
X117662345Y-118649412D01*
X117660616Y-118645894D01*
X117658800Y-118624751D01*
X117658800Y-118563852D01*
X117678485Y-118496813D01*
X117695119Y-118476171D01*
X118645854Y-117525437D01*
X118645857Y-117525434D01*
X118653689Y-117513713D01*
X118714311Y-117422986D01*
X118761463Y-117309152D01*
X118784350Y-117194084D01*
X118816734Y-117132177D01*
X118837769Y-117115289D01*
X118837668Y-117115150D01*
X118840574Y-117113038D01*
X118841199Y-117112537D01*
X118841587Y-117112298D01*
X118841610Y-117112287D01*
X119007219Y-116991966D01*
X119151966Y-116847219D01*
X119151968Y-116847215D01*
X119151971Y-116847213D01*
X119229476Y-116740535D01*
X119272287Y-116681610D01*
X119365220Y-116499219D01*
X119428477Y-116304534D01*
X119460500Y-116102352D01*
X119460500Y-115897648D01*
X119428477Y-115695466D01*
X119428476Y-115695462D01*
X119428476Y-115695461D01*
X119365218Y-115500776D01*
X119307249Y-115387007D01*
X119272287Y-115318390D01*
X119264556Y-115307749D01*
X119151971Y-115152786D01*
X119007213Y-115008028D01*
X118841613Y-114887715D01*
X118841612Y-114887714D01*
X118841610Y-114887713D01*
X118758074Y-114845149D01*
X118659223Y-114794781D01*
X118464534Y-114731522D01*
X118289995Y-114703878D01*
X118262352Y-114699500D01*
X118057648Y-114699500D01*
X118033329Y-114703351D01*
X117855465Y-114731522D01*
X117660776Y-114794781D01*
X117478386Y-114887715D01*
X117312786Y-115008028D01*
X117168028Y-115152786D01*
X117047715Y-115318386D01*
X116954781Y-115500776D01*
X116891524Y-115695461D01*
X116891523Y-115695464D01*
X116880706Y-115763760D01*
X116859500Y-115897648D01*
X116859500Y-116102352D01*
X116860668Y-116109727D01*
X116891522Y-116304534D01*
X116954781Y-116499223D01*
X117047715Y-116681613D01*
X117168028Y-116847213D01*
X117273780Y-116952965D01*
X117307265Y-117014288D01*
X117302281Y-117083980D01*
X117273780Y-117128327D01*
X116716283Y-117685826D01*
X116634569Y-117767540D01*
X116634567Y-117767542D01*
X116591004Y-117811104D01*
X116547442Y-117854666D01*
X116533034Y-117876229D01*
X116518723Y-117897648D01*
X116478990Y-117957110D01*
X116478985Y-117957119D01*
X116468590Y-117982217D01*
X116431838Y-118070944D01*
X116431835Y-118070956D01*
X116407800Y-118191789D01*
X116407800Y-129808208D01*
X116417386Y-129856397D01*
X116417386Y-129856401D01*
X116417387Y-129856401D01*
X116417387Y-129856403D01*
X116426089Y-129900156D01*
X116431837Y-129929051D01*
X116478988Y-130042886D01*
X116513215Y-130094109D01*
X116547442Y-130145333D01*
X116634567Y-130232458D01*
X116634569Y-130232459D01*
X117273782Y-130871672D01*
X117307266Y-130932994D01*
X117302282Y-131002686D01*
X117273782Y-131047033D01*
X117168027Y-131152788D01*
X117047715Y-131318386D01*
X116954781Y-131500776D01*
X116891522Y-131695465D01*
X116859500Y-131897648D01*
X116859500Y-132102351D01*
X116891522Y-132304534D01*
X116954781Y-132499223D01*
X117001035Y-132590000D01*
X117040272Y-132667007D01*
X117047715Y-132681613D01*
X117168028Y-132847213D01*
X117312786Y-132991971D01*
X117448211Y-133090361D01*
X117478390Y-133112287D01*
X117567212Y-133157544D01*
X117660776Y-133205218D01*
X117660778Y-133205218D01*
X117660781Y-133205220D01*
X117762622Y-133238310D01*
X117855465Y-133268477D01*
X117874697Y-133271523D01*
X118057648Y-133300500D01*
X118057649Y-133300500D01*
X118262351Y-133300500D01*
X118262352Y-133300500D01*
X118464534Y-133268477D01*
X118498881Y-133257317D01*
X118568722Y-133255322D01*
X118628555Y-133291402D01*
X118659384Y-133354102D01*
X118661200Y-133375248D01*
X118661200Y-134624751D01*
X118641515Y-134691790D01*
X118588711Y-134737545D01*
X118519553Y-134747489D01*
X118498884Y-134742683D01*
X118464535Y-134731523D01*
X118302816Y-134705909D01*
X118262352Y-134699500D01*
X118057648Y-134699500D01*
X118033329Y-134703351D01*
X117855465Y-134731522D01*
X117660776Y-134794781D01*
X117478386Y-134887715D01*
X117312786Y-135008028D01*
X117168028Y-135152786D01*
X117047715Y-135318386D01*
X116954781Y-135500776D01*
X116891522Y-135695465D01*
X116863481Y-135872511D01*
X116859500Y-135897648D01*
X116859500Y-136102352D01*
X116863878Y-136129995D01*
X116891522Y-136304534D01*
X116954781Y-136499223D01*
X116988536Y-136565469D01*
X117044726Y-136675748D01*
X117047715Y-136681613D01*
X117168028Y-136847213D01*
X117312786Y-136991971D01*
X117432070Y-137078634D01*
X117478390Y-137112287D01*
X117567212Y-137157544D01*
X117660776Y-137205218D01*
X117660778Y-137205218D01*
X117660781Y-137205220D01*
X117736600Y-137229855D01*
X117855465Y-137268477D01*
X117956557Y-137284488D01*
X118057648Y-137300500D01*
X118057649Y-137300500D01*
X118262351Y-137300500D01*
X118262352Y-137300500D01*
X118464534Y-137268477D01*
X118498881Y-137257317D01*
X118527002Y-137256513D01*
X118554847Y-137252510D01*
X118561458Y-137255529D01*
X118568722Y-137255322D01*
X118592808Y-137269846D01*
X118618403Y-137281535D01*
X118622332Y-137287649D01*
X118628555Y-137291402D01*
X118640967Y-137316645D01*
X118656177Y-137340313D01*
X118657653Y-137350582D01*
X118659384Y-137354102D01*
X118661200Y-137375248D01*
X118661200Y-137436147D01*
X118641515Y-137503186D01*
X118624881Y-137523828D01*
X117761269Y-138387440D01*
X117761267Y-138387442D01*
X117727124Y-138421585D01*
X117674142Y-138474566D01*
X117655260Y-138502825D01*
X117655255Y-138502832D01*
X117651995Y-138507713D01*
X117605688Y-138577014D01*
X117576217Y-138648165D01*
X117573810Y-138653974D01*
X117573806Y-138653983D01*
X117558537Y-138690847D01*
X117558535Y-138690853D01*
X117546971Y-138748985D01*
X117546972Y-138748986D01*
X117538680Y-138790680D01*
X117538678Y-138790693D01*
X117535648Y-138805920D01*
X117503258Y-138867829D01*
X117482231Y-138884711D01*
X117482331Y-138884849D01*
X117479482Y-138886918D01*
X117478833Y-138887440D01*
X117478396Y-138887707D01*
X117312786Y-139008028D01*
X117168028Y-139152786D01*
X117047715Y-139318385D01*
X117028986Y-139355144D01*
X116981011Y-139405940D01*
X116913190Y-139422735D01*
X116847055Y-139400198D01*
X116830820Y-139386530D01*
X114207719Y-136763429D01*
X114174234Y-136702106D01*
X114171400Y-136675748D01*
X114171400Y-130610996D01*
X114171400Y-130610994D01*
X114170023Y-130604073D01*
X114150231Y-130504569D01*
X114147363Y-130490148D01*
X114120911Y-130426287D01*
X114110814Y-130401911D01*
X114100214Y-130376319D01*
X114100212Y-130376314D01*
X114062249Y-130319500D01*
X114031758Y-130273867D01*
X114031756Y-130273864D01*
X113941537Y-130183645D01*
X113941506Y-130183616D01*
X109120275Y-125362385D01*
X109086790Y-125301062D01*
X109091774Y-125231370D01*
X109133645Y-125175438D01*
X109157546Y-125157546D01*
X109243796Y-125042331D01*
X109294091Y-124907483D01*
X109300500Y-124847873D01*
X109300499Y-123152128D01*
X109294091Y-123092517D01*
X109256669Y-122992184D01*
X109243797Y-122957671D01*
X109243793Y-122957664D01*
X109157547Y-122842455D01*
X109157544Y-122842452D01*
X109042335Y-122756206D01*
X109042328Y-122756202D01*
X108907482Y-122705908D01*
X108907483Y-122705908D01*
X108847883Y-122699501D01*
X108847881Y-122699500D01*
X108847873Y-122699500D01*
X108847865Y-122699500D01*
X107622800Y-122699500D01*
X107555761Y-122679815D01*
X107510006Y-122627011D01*
X107498800Y-122575500D01*
X107498800Y-121424499D01*
X107518485Y-121357460D01*
X107571289Y-121311705D01*
X107622800Y-121300499D01*
X108847871Y-121300499D01*
X108847872Y-121300499D01*
X108907483Y-121294091D01*
X109042331Y-121243796D01*
X109157546Y-121157546D01*
X109243796Y-121042331D01*
X109294091Y-120907483D01*
X109300500Y-120847873D01*
X109300499Y-119152128D01*
X109294091Y-119092517D01*
X109291632Y-119085925D01*
X109243797Y-118957671D01*
X109243793Y-118957664D01*
X109157547Y-118842455D01*
X109157544Y-118842452D01*
X109042335Y-118756206D01*
X109042328Y-118756202D01*
X108907482Y-118705908D01*
X108907483Y-118705908D01*
X108847883Y-118699501D01*
X108847881Y-118699500D01*
X108847873Y-118699500D01*
X108847865Y-118699500D01*
X107622800Y-118699500D01*
X107614114Y-118696949D01*
X107605153Y-118698238D01*
X107581112Y-118687259D01*
X107555761Y-118679815D01*
X107549833Y-118672974D01*
X107541597Y-118669213D01*
X107527307Y-118646978D01*
X107510006Y-118627011D01*
X107507718Y-118616496D01*
X107503823Y-118610435D01*
X107498800Y-118575500D01*
X107498800Y-118563852D01*
X107518485Y-118496813D01*
X107535119Y-118476171D01*
X108485854Y-117525437D01*
X108485857Y-117525434D01*
X108493689Y-117513713D01*
X108554311Y-117422986D01*
X108573340Y-117377047D01*
X108617181Y-117322643D01*
X108683475Y-117300578D01*
X108687901Y-117300499D01*
X108847871Y-117300499D01*
X108847872Y-117300499D01*
X108907483Y-117294091D01*
X109042331Y-117243796D01*
X109157546Y-117157546D01*
X109243796Y-117042331D01*
X109294091Y-116907483D01*
X109300500Y-116847873D01*
X109300499Y-115152128D01*
X109294091Y-115092517D01*
X109278194Y-115049896D01*
X109243797Y-114957671D01*
X109243793Y-114957664D01*
X109157547Y-114842455D01*
X109157544Y-114842452D01*
X109042335Y-114756206D01*
X109042328Y-114756202D01*
X108907482Y-114705908D01*
X108907483Y-114705908D01*
X108847883Y-114699501D01*
X108847881Y-114699500D01*
X108847873Y-114699500D01*
X108847864Y-114699500D01*
X107152129Y-114699500D01*
X107152123Y-114699501D01*
X107092516Y-114705908D01*
X106957671Y-114756202D01*
X106957664Y-114756206D01*
X106842455Y-114842452D01*
X106842452Y-114842455D01*
X106756206Y-114957664D01*
X106756202Y-114957671D01*
X106705908Y-115092517D01*
X106700177Y-115145826D01*
X106699501Y-115152123D01*
X106699500Y-115152135D01*
X106699500Y-116847870D01*
X106699501Y-116847876D01*
X106705908Y-116907483D01*
X106756202Y-117042328D01*
X106756206Y-117042335D01*
X106842452Y-117157544D01*
X106842454Y-117157546D01*
X106866355Y-117175439D01*
X106908225Y-117231373D01*
X106913208Y-117301065D01*
X106879723Y-117362385D01*
X106652219Y-117589890D01*
X106474569Y-117767540D01*
X106474567Y-117767542D01*
X106431004Y-117811104D01*
X106387442Y-117854666D01*
X106373034Y-117876229D01*
X106358723Y-117897648D01*
X106318990Y-117957110D01*
X106318985Y-117957119D01*
X106308590Y-117982217D01*
X106271838Y-118070944D01*
X106271835Y-118070956D01*
X106247800Y-118191789D01*
X106247800Y-147708207D01*
X106249946Y-147718995D01*
X106249946Y-147718999D01*
X106267681Y-147808162D01*
X106267682Y-147808165D01*
X106268357Y-147811557D01*
X106271838Y-147829055D01*
X106318985Y-147942880D01*
X106318986Y-147942882D01*
X106318988Y-147942886D01*
X106351998Y-147992288D01*
X106387442Y-148045333D01*
X106474567Y-148132458D01*
X106474570Y-148132460D01*
X106481914Y-148139804D01*
X107789226Y-149447116D01*
X107822711Y-149508439D01*
X107817727Y-149578131D01*
X107775855Y-149634064D01*
X107710391Y-149658481D01*
X107645251Y-149645282D01*
X107575805Y-149609898D01*
X107351247Y-149536934D01*
X107351248Y-149536934D01*
X107118052Y-149500000D01*
X106750000Y-149500000D01*
X106750000Y-150291759D01*
X106718767Y-150278822D01*
X106573869Y-150250000D01*
X106426131Y-150250000D01*
X106281233Y-150278822D01*
X106250000Y-150291759D01*
X106250000Y-149500000D01*
X105881948Y-149500000D01*
X105648752Y-149536934D01*
X105424197Y-149609897D01*
X105213828Y-149717085D01*
X105022813Y-149855866D01*
X105022812Y-149855867D01*
X104978422Y-149900256D01*
X104917099Y-149933740D01*
X104847407Y-149928754D01*
X104791474Y-149886881D01*
X104781381Y-149871019D01*
X104780792Y-149869917D01*
X104693189Y-149738811D01*
X104693186Y-149738807D01*
X104581692Y-149627313D01*
X104581688Y-149627310D01*
X104450581Y-149539707D01*
X104450572Y-149539702D01*
X104304901Y-149479364D01*
X104304889Y-149479361D01*
X104150245Y-149448600D01*
X104150242Y-149448600D01*
X103992558Y-149448600D01*
X103992555Y-149448600D01*
X103837910Y-149479361D01*
X103837898Y-149479364D01*
X103692227Y-149539702D01*
X103692219Y-149539707D01*
X103561111Y-149627310D01*
X103561107Y-149627313D01*
X103449613Y-149738807D01*
X103449610Y-149738811D01*
X103362009Y-149869914D01*
X103362002Y-149869927D01*
X103301664Y-150015598D01*
X103301661Y-150015610D01*
X103270900Y-150170253D01*
X100300500Y-150170253D01*
X100300500Y-147120953D01*
X100617000Y-147120953D01*
X100617000Y-147278646D01*
X100647761Y-147433289D01*
X100647764Y-147433301D01*
X100708102Y-147578972D01*
X100708109Y-147578985D01*
X100795710Y-147710088D01*
X100795713Y-147710092D01*
X100907207Y-147821586D01*
X100907211Y-147821589D01*
X101038314Y-147909190D01*
X101038327Y-147909197D01*
X101183998Y-147969535D01*
X101184003Y-147969537D01*
X101322018Y-147996990D01*
X101338653Y-148000299D01*
X101338656Y-148000300D01*
X101338658Y-148000300D01*
X101496344Y-148000300D01*
X101496345Y-148000299D01*
X101650997Y-147969537D01*
X101772638Y-147919152D01*
X101796672Y-147909197D01*
X101796672Y-147909196D01*
X101796679Y-147909194D01*
X101927789Y-147821589D01*
X102039289Y-147710089D01*
X102126894Y-147578979D01*
X102187237Y-147433297D01*
X102218000Y-147278642D01*
X102218000Y-147120958D01*
X102218000Y-147120955D01*
X102217999Y-147120953D01*
X102187238Y-146966310D01*
X102187237Y-146966303D01*
X102155540Y-146889778D01*
X102126897Y-146820627D01*
X102126890Y-146820614D01*
X102039289Y-146689511D01*
X102039286Y-146689507D01*
X101927792Y-146578013D01*
X101927788Y-146578010D01*
X101796685Y-146490409D01*
X101796672Y-146490402D01*
X101651001Y-146430064D01*
X101650989Y-146430061D01*
X101496345Y-146399300D01*
X101496342Y-146399300D01*
X101338658Y-146399300D01*
X101338655Y-146399300D01*
X101184010Y-146430061D01*
X101183998Y-146430064D01*
X101038327Y-146490402D01*
X101038314Y-146490409D01*
X100907211Y-146578010D01*
X100907207Y-146578013D01*
X100795713Y-146689507D01*
X100795710Y-146689511D01*
X100708109Y-146820614D01*
X100708102Y-146820627D01*
X100647764Y-146966298D01*
X100647761Y-146966310D01*
X100617000Y-147120953D01*
X100300500Y-147120953D01*
X100300500Y-145230598D01*
X100320185Y-145163559D01*
X100372989Y-145117804D01*
X100442147Y-145107860D01*
X100448683Y-145108979D01*
X100484779Y-145116159D01*
X100572455Y-145133600D01*
X100572458Y-145133600D01*
X100730144Y-145133600D01*
X100730145Y-145133599D01*
X100884797Y-145102837D01*
X101030479Y-145042494D01*
X101161589Y-144954889D01*
X101273089Y-144843389D01*
X101360694Y-144712279D01*
X101421037Y-144566597D01*
X101451800Y-144411942D01*
X101451800Y-144254258D01*
X101451800Y-144254255D01*
X101451799Y-144254253D01*
X104198900Y-144254253D01*
X104198900Y-144411946D01*
X104229661Y-144566589D01*
X104229664Y-144566601D01*
X104290002Y-144712272D01*
X104290009Y-144712285D01*
X104377610Y-144843388D01*
X104377613Y-144843392D01*
X104489107Y-144954886D01*
X104489111Y-144954889D01*
X104620214Y-145042490D01*
X104620227Y-145042497D01*
X104744749Y-145094075D01*
X104765903Y-145102837D01*
X104920553Y-145133599D01*
X104920556Y-145133600D01*
X104920558Y-145133600D01*
X105078244Y-145133600D01*
X105078245Y-145133599D01*
X105232897Y-145102837D01*
X105378579Y-145042494D01*
X105509689Y-144954889D01*
X105621189Y-144843389D01*
X105708794Y-144712279D01*
X105769137Y-144566597D01*
X105799900Y-144411942D01*
X105799900Y-144254258D01*
X105799900Y-144254255D01*
X105799899Y-144254253D01*
X105769137Y-144099603D01*
X105716752Y-143973133D01*
X105708797Y-143953927D01*
X105708790Y-143953914D01*
X105621189Y-143822811D01*
X105621186Y-143822807D01*
X105509692Y-143711313D01*
X105509688Y-143711310D01*
X105378585Y-143623709D01*
X105378572Y-143623702D01*
X105232901Y-143563364D01*
X105232889Y-143563361D01*
X105078245Y-143532600D01*
X105078242Y-143532600D01*
X104920558Y-143532600D01*
X104920555Y-143532600D01*
X104765910Y-143563361D01*
X104765898Y-143563364D01*
X104620227Y-143623702D01*
X104620214Y-143623709D01*
X104489111Y-143711310D01*
X104489107Y-143711313D01*
X104377613Y-143822807D01*
X104377610Y-143822811D01*
X104290009Y-143953914D01*
X104290002Y-143953927D01*
X104229664Y-144099598D01*
X104229661Y-144099610D01*
X104198900Y-144254253D01*
X101451799Y-144254253D01*
X101421037Y-144099603D01*
X101368652Y-143973133D01*
X101360697Y-143953927D01*
X101360690Y-143953914D01*
X101273089Y-143822811D01*
X101273086Y-143822807D01*
X101161592Y-143711313D01*
X101161588Y-143711310D01*
X101030485Y-143623709D01*
X101030472Y-143623702D01*
X100884801Y-143563364D01*
X100884789Y-143563361D01*
X100730145Y-143532600D01*
X100730142Y-143532600D01*
X100572458Y-143532600D01*
X100572453Y-143532600D01*
X100448691Y-143557218D01*
X100379100Y-143550991D01*
X100323922Y-143508128D01*
X100300678Y-143442238D01*
X100300500Y-143435601D01*
X100300500Y-133781253D01*
X103134800Y-133781253D01*
X103134800Y-133938946D01*
X103165561Y-134093589D01*
X103165564Y-134093601D01*
X103225902Y-134239272D01*
X103225909Y-134239285D01*
X103313510Y-134370388D01*
X103313513Y-134370392D01*
X103425007Y-134481886D01*
X103425011Y-134481889D01*
X103556114Y-134569490D01*
X103556127Y-134569497D01*
X103689524Y-134624751D01*
X103701803Y-134629837D01*
X103856453Y-134660599D01*
X103856456Y-134660600D01*
X103856458Y-134660600D01*
X104014144Y-134660600D01*
X104014145Y-134660599D01*
X104168797Y-134629837D01*
X104314479Y-134569494D01*
X104445589Y-134481889D01*
X104557089Y-134370389D01*
X104644694Y-134239279D01*
X104646276Y-134235461D01*
X104689958Y-134130000D01*
X104705037Y-134093597D01*
X104735800Y-133938942D01*
X104735800Y-133781258D01*
X104735800Y-133781255D01*
X104735799Y-133781253D01*
X104727551Y-133739786D01*
X104705037Y-133626603D01*
X104705035Y-133626598D01*
X104644697Y-133480927D01*
X104644690Y-133480914D01*
X104557089Y-133349811D01*
X104557086Y-133349807D01*
X104445592Y-133238313D01*
X104445588Y-133238310D01*
X104314485Y-133150709D01*
X104314472Y-133150702D01*
X104168801Y-133090364D01*
X104168789Y-133090361D01*
X104014145Y-133059600D01*
X104014142Y-133059600D01*
X103856458Y-133059600D01*
X103856455Y-133059600D01*
X103701810Y-133090361D01*
X103701798Y-133090364D01*
X103556127Y-133150702D01*
X103556114Y-133150709D01*
X103425011Y-133238310D01*
X103425007Y-133238313D01*
X103313513Y-133349807D01*
X103313510Y-133349811D01*
X103225909Y-133480914D01*
X103225902Y-133480927D01*
X103165564Y-133626598D01*
X103165561Y-133626610D01*
X103134800Y-133781253D01*
X100300500Y-133781253D01*
X100300500Y-130011053D01*
X103858400Y-130011053D01*
X103858400Y-130168746D01*
X103889161Y-130323389D01*
X103889164Y-130323401D01*
X103949502Y-130469072D01*
X103949509Y-130469085D01*
X104037110Y-130600188D01*
X104037113Y-130600192D01*
X104148610Y-130711689D01*
X104231891Y-130767335D01*
X104276696Y-130820947D01*
X104287000Y-130870437D01*
X104287000Y-130991046D01*
X104317761Y-131145689D01*
X104317764Y-131145701D01*
X104378102Y-131291372D01*
X104378109Y-131291385D01*
X104465710Y-131422488D01*
X104465713Y-131422492D01*
X104577207Y-131533986D01*
X104577211Y-131533989D01*
X104708314Y-131621590D01*
X104708327Y-131621597D01*
X104782964Y-131652512D01*
X104854003Y-131681937D01*
X105008653Y-131712699D01*
X105008656Y-131712700D01*
X105008658Y-131712700D01*
X105166344Y-131712700D01*
X105166345Y-131712699D01*
X105320997Y-131681937D01*
X105444664Y-131630713D01*
X105466672Y-131621597D01*
X105466672Y-131621596D01*
X105466679Y-131621594D01*
X105597789Y-131533989D01*
X105709289Y-131422489D01*
X105796894Y-131291379D01*
X105857237Y-131145697D01*
X105888000Y-130991042D01*
X105888000Y-130833358D01*
X105888000Y-130833355D01*
X105887999Y-130833353D01*
X105882294Y-130804672D01*
X105857237Y-130678703D01*
X105839648Y-130636239D01*
X105796897Y-130533027D01*
X105796890Y-130533014D01*
X105709289Y-130401911D01*
X105709286Y-130401907D01*
X105597789Y-130290410D01*
X105514509Y-130234765D01*
X105469704Y-130181153D01*
X105459400Y-130131663D01*
X105459400Y-130011055D01*
X105459399Y-130011053D01*
X105444281Y-129935050D01*
X105428637Y-129856403D01*
X105427673Y-129854075D01*
X105368297Y-129710727D01*
X105368290Y-129710714D01*
X105280689Y-129579611D01*
X105280686Y-129579607D01*
X105169192Y-129468113D01*
X105169188Y-129468110D01*
X105038085Y-129380509D01*
X105038072Y-129380502D01*
X104892401Y-129320164D01*
X104892389Y-129320161D01*
X104737745Y-129289400D01*
X104737742Y-129289400D01*
X104580058Y-129289400D01*
X104580055Y-129289400D01*
X104425410Y-129320161D01*
X104425398Y-129320164D01*
X104279727Y-129380502D01*
X104279714Y-129380509D01*
X104148611Y-129468110D01*
X104148607Y-129468113D01*
X104037113Y-129579607D01*
X104037110Y-129579611D01*
X103949509Y-129710714D01*
X103949502Y-129710727D01*
X103889165Y-129856397D01*
X103889161Y-129856410D01*
X103858400Y-130011053D01*
X100300500Y-130011053D01*
X100300500Y-124171153D01*
X101559400Y-124171153D01*
X101559400Y-124328846D01*
X101590161Y-124483489D01*
X101590164Y-124483501D01*
X101650502Y-124629172D01*
X101650507Y-124629181D01*
X101738110Y-124760288D01*
X101738113Y-124760292D01*
X101849607Y-124871786D01*
X101849611Y-124871789D01*
X101980714Y-124959390D01*
X101980727Y-124959397D01*
X102059357Y-124991966D01*
X102126403Y-125019737D01*
X102263498Y-125047007D01*
X102281053Y-125050499D01*
X102281056Y-125050500D01*
X102281058Y-125050500D01*
X102438744Y-125050500D01*
X102438745Y-125050499D01*
X102593397Y-125019737D01*
X102739079Y-124959394D01*
X102870189Y-124871789D01*
X102981689Y-124760289D01*
X103053291Y-124653129D01*
X103069293Y-124629181D01*
X103069297Y-124629172D01*
X103089753Y-124579786D01*
X103129637Y-124483497D01*
X103160400Y-124328842D01*
X103160400Y-124171158D01*
X103160400Y-124171155D01*
X103160399Y-124171153D01*
X103148690Y-124112287D01*
X103129637Y-124016503D01*
X103110375Y-123970000D01*
X103069297Y-123870827D01*
X103069290Y-123870814D01*
X102981689Y-123739711D01*
X102981686Y-123739707D01*
X102870192Y-123628213D01*
X102870188Y-123628210D01*
X102739085Y-123540609D01*
X102739072Y-123540602D01*
X102593401Y-123480264D01*
X102593389Y-123480261D01*
X102438745Y-123449500D01*
X102438742Y-123449500D01*
X102281058Y-123449500D01*
X102281055Y-123449500D01*
X102126410Y-123480261D01*
X102126398Y-123480264D01*
X101980727Y-123540602D01*
X101980714Y-123540609D01*
X101849611Y-123628210D01*
X101849607Y-123628213D01*
X101738113Y-123739707D01*
X101738110Y-123739711D01*
X101650509Y-123870814D01*
X101650502Y-123870827D01*
X101590164Y-124016498D01*
X101590161Y-124016510D01*
X101559400Y-124171153D01*
X100300500Y-124171153D01*
X100300500Y-121671153D01*
X102839700Y-121671153D01*
X102839700Y-121828846D01*
X102870461Y-121983489D01*
X102870464Y-121983501D01*
X102930802Y-122129172D01*
X102930809Y-122129185D01*
X103018410Y-122260288D01*
X103018413Y-122260292D01*
X103129907Y-122371786D01*
X103129911Y-122371789D01*
X103261014Y-122459390D01*
X103261027Y-122459397D01*
X103406698Y-122519735D01*
X103406703Y-122519737D01*
X103561353Y-122550499D01*
X103561356Y-122550500D01*
X103561358Y-122550500D01*
X103719044Y-122550500D01*
X103719045Y-122550499D01*
X103873697Y-122519737D01*
X104019379Y-122459394D01*
X104150489Y-122371789D01*
X104261989Y-122260289D01*
X104349594Y-122129179D01*
X104409937Y-121983497D01*
X104440700Y-121828842D01*
X104440700Y-121671158D01*
X104440700Y-121671155D01*
X104440699Y-121671153D01*
X104415681Y-121545379D01*
X104409937Y-121516503D01*
X104371828Y-121424499D01*
X104349597Y-121370827D01*
X104349590Y-121370814D01*
X104261989Y-121239711D01*
X104261986Y-121239707D01*
X104150492Y-121128213D01*
X104150488Y-121128210D01*
X104019385Y-121040609D01*
X104019372Y-121040602D01*
X103873701Y-120980264D01*
X103873689Y-120980261D01*
X103719045Y-120949500D01*
X103719042Y-120949500D01*
X103561358Y-120949500D01*
X103561355Y-120949500D01*
X103406710Y-120980261D01*
X103406698Y-120980264D01*
X103261027Y-121040602D01*
X103261014Y-121040609D01*
X103129911Y-121128210D01*
X103129907Y-121128213D01*
X103018413Y-121239707D01*
X103018410Y-121239711D01*
X102930809Y-121370814D01*
X102930802Y-121370827D01*
X102870464Y-121516498D01*
X102870461Y-121516510D01*
X102839700Y-121671153D01*
X100300500Y-121671153D01*
X100300500Y-110534641D01*
X100320185Y-110467602D01*
X100372989Y-110421847D01*
X100442147Y-110411903D01*
X100505703Y-110440928D01*
X100512181Y-110446960D01*
X100619707Y-110554486D01*
X100619711Y-110554489D01*
X100750814Y-110642090D01*
X100750827Y-110642097D01*
X100896498Y-110702435D01*
X100896503Y-110702437D01*
X101051153Y-110733199D01*
X101051156Y-110733200D01*
X101051158Y-110733200D01*
X101208844Y-110733200D01*
X101208845Y-110733199D01*
X101363497Y-110702437D01*
X101509179Y-110642094D01*
X101640289Y-110554489D01*
X101751789Y-110442989D01*
X101839394Y-110311879D01*
X101899737Y-110166197D01*
X101930500Y-110011542D01*
X101930500Y-109853858D01*
X101930500Y-109853855D01*
X101922026Y-109811255D01*
X101922026Y-109811254D01*
X101909842Y-109750000D01*
X112520898Y-109750000D01*
X113566988Y-109750000D01*
X113534075Y-109807007D01*
X113500000Y-109934174D01*
X113500000Y-110065826D01*
X113534075Y-110192993D01*
X113566988Y-110250000D01*
X112520898Y-110250000D01*
X112536934Y-110351247D01*
X112609897Y-110575802D01*
X112717085Y-110786171D01*
X112855866Y-110977186D01*
X113022813Y-111144133D01*
X113213828Y-111282914D01*
X113424195Y-111390102D01*
X113648744Y-111463063D01*
X113648750Y-111463065D01*
X113750000Y-111479101D01*
X113750000Y-110433012D01*
X113807007Y-110465925D01*
X113934174Y-110500000D01*
X114065826Y-110500000D01*
X114192993Y-110465925D01*
X114250000Y-110433012D01*
X114250000Y-111479100D01*
X114351249Y-111463065D01*
X114351255Y-111463063D01*
X114575804Y-111390102D01*
X114786171Y-111282914D01*
X114977186Y-111144133D01*
X115144133Y-110977186D01*
X115282914Y-110786171D01*
X115390102Y-110575802D01*
X115463065Y-110351247D01*
X115479102Y-110250000D01*
X114433012Y-110250000D01*
X114465925Y-110192993D01*
X114500000Y-110065826D01*
X114500000Y-109934174D01*
X114465925Y-109807007D01*
X114433012Y-109750000D01*
X115479102Y-109750000D01*
X115463065Y-109648752D01*
X115390102Y-109424197D01*
X115282914Y-109213828D01*
X115144133Y-109022813D01*
X114977186Y-108855866D01*
X114786171Y-108717085D01*
X114575802Y-108609897D01*
X114351247Y-108536934D01*
X114250000Y-108520897D01*
X114250000Y-109566988D01*
X114192993Y-109534075D01*
X114065826Y-109500000D01*
X113934174Y-109500000D01*
X113807007Y-109534075D01*
X113750000Y-109566988D01*
X113750000Y-108520897D01*
X113648752Y-108536934D01*
X113424197Y-108609897D01*
X113213828Y-108717085D01*
X113022813Y-108855866D01*
X112855866Y-109022813D01*
X112717085Y-109213828D01*
X112609897Y-109424197D01*
X112536934Y-109648752D01*
X112520898Y-109750000D01*
X101909842Y-109750000D01*
X101902116Y-109711162D01*
X101899737Y-109699203D01*
X101881804Y-109655908D01*
X101839397Y-109553527D01*
X101839390Y-109553514D01*
X101751789Y-109422411D01*
X101751786Y-109422407D01*
X101640292Y-109310913D01*
X101640288Y-109310910D01*
X101509185Y-109223309D01*
X101509172Y-109223302D01*
X101363501Y-109162964D01*
X101363489Y-109162961D01*
X101208845Y-109132200D01*
X101208842Y-109132200D01*
X101051158Y-109132200D01*
X101051155Y-109132200D01*
X100896510Y-109162961D01*
X100896498Y-109162964D01*
X100750827Y-109223302D01*
X100750814Y-109223309D01*
X100619711Y-109310910D01*
X100619707Y-109310913D01*
X100512181Y-109418440D01*
X100450858Y-109451925D01*
X100381166Y-109446941D01*
X100325233Y-109405069D01*
X100300816Y-109339605D01*
X100300500Y-109330759D01*
X100300500Y-105550318D01*
X100320185Y-105483279D01*
X100372989Y-105437524D01*
X100442147Y-105427580D01*
X100505703Y-105456605D01*
X100512181Y-105462637D01*
X100646367Y-105596823D01*
X100646372Y-105596827D01*
X100646373Y-105596828D01*
X100912240Y-105815019D01*
X101198213Y-106006100D01*
X101198222Y-106006105D01*
X101198224Y-106006106D01*
X101501530Y-106168227D01*
X101501532Y-106168227D01*
X101501538Y-106168231D01*
X101819295Y-106299850D01*
X102148422Y-106399690D01*
X102485750Y-106466789D01*
X102828031Y-106500500D01*
X102828034Y-106500500D01*
X103171966Y-106500500D01*
X103171969Y-106500500D01*
X103514250Y-106466789D01*
X103851578Y-106399690D01*
X104180705Y-106299850D01*
X104498462Y-106168231D01*
X104801787Y-106006100D01*
X105087760Y-105815019D01*
X105353627Y-105596828D01*
X105596828Y-105353627D01*
X105815019Y-105087760D01*
X106006100Y-104801787D01*
X106168231Y-104498462D01*
X106299850Y-104180705D01*
X106369186Y-103952135D01*
X109499500Y-103952135D01*
X109499500Y-106047870D01*
X109499501Y-106047876D01*
X109505908Y-106107483D01*
X109556202Y-106242328D01*
X109556206Y-106242335D01*
X109642451Y-106357543D01*
X109642455Y-106357547D01*
X109757664Y-106443793D01*
X109757671Y-106443797D01*
X109892517Y-106494091D01*
X109892516Y-106494091D01*
X109899444Y-106494835D01*
X109952127Y-106500500D01*
X112047872Y-106500499D01*
X112107483Y-106494091D01*
X112242331Y-106443796D01*
X112357546Y-106357546D01*
X112357547Y-106357544D01*
X112357549Y-106357543D01*
X112443793Y-106242335D01*
X112443792Y-106242335D01*
X112443796Y-106242331D01*
X112494091Y-106107483D01*
X112500500Y-106047873D01*
X112500499Y-104881902D01*
X115499500Y-104881902D01*
X115499500Y-105118097D01*
X115536446Y-105351368D01*
X115609433Y-105575996D01*
X115716657Y-105786433D01*
X115855483Y-105977510D01*
X116022490Y-106144517D01*
X116213567Y-106283343D01*
X116245964Y-106299850D01*
X116424003Y-106390566D01*
X116424005Y-106390566D01*
X116424008Y-106390568D01*
X116544412Y-106429689D01*
X116648631Y-106463553D01*
X116881903Y-106500500D01*
X116881908Y-106500500D01*
X117118097Y-106500500D01*
X117351368Y-106463553D01*
X117575992Y-106390568D01*
X117786433Y-106283343D01*
X117977510Y-106144517D01*
X118144517Y-105977510D01*
X118283343Y-105786433D01*
X118390568Y-105575992D01*
X118463553Y-105351368D01*
X118469479Y-105313953D01*
X118500500Y-105118097D01*
X118500500Y-104881902D01*
X118463553Y-104648631D01*
X118415007Y-104499223D01*
X118390568Y-104424008D01*
X118390566Y-104424005D01*
X118390566Y-104424003D01*
X118329631Y-104304413D01*
X118283343Y-104213567D01*
X118144517Y-104022490D01*
X117977510Y-103855483D01*
X117786433Y-103716657D01*
X117745079Y-103695586D01*
X117575996Y-103609433D01*
X117351368Y-103536446D01*
X117118097Y-103499500D01*
X117118092Y-103499500D01*
X116881908Y-103499500D01*
X116881903Y-103499500D01*
X116648631Y-103536446D01*
X116424003Y-103609433D01*
X116213566Y-103716657D01*
X116157119Y-103757669D01*
X116022490Y-103855483D01*
X116022488Y-103855485D01*
X116022487Y-103855485D01*
X115855485Y-104022487D01*
X115855485Y-104022488D01*
X115855483Y-104022490D01*
X115797460Y-104102351D01*
X115716657Y-104213566D01*
X115609433Y-104424003D01*
X115536446Y-104648631D01*
X115499500Y-104881902D01*
X112500499Y-104881902D01*
X112500499Y-103952128D01*
X112494091Y-103892517D01*
X112480278Y-103855483D01*
X112443797Y-103757671D01*
X112443793Y-103757664D01*
X112357547Y-103642455D01*
X112357544Y-103642452D01*
X112242335Y-103556206D01*
X112242328Y-103556202D01*
X112107482Y-103505908D01*
X112107483Y-103505908D01*
X112047883Y-103499501D01*
X112047881Y-103499500D01*
X112047873Y-103499500D01*
X112047864Y-103499500D01*
X109952129Y-103499500D01*
X109952123Y-103499501D01*
X109892516Y-103505908D01*
X109757671Y-103556202D01*
X109757664Y-103556206D01*
X109642455Y-103642452D01*
X109642452Y-103642455D01*
X109556206Y-103757664D01*
X109556202Y-103757671D01*
X109505908Y-103892517D01*
X109500015Y-103947339D01*
X109499501Y-103952123D01*
X109499500Y-103952135D01*
X106369186Y-103952135D01*
X106399690Y-103851578D01*
X106466789Y-103514250D01*
X106500500Y-103171969D01*
X106500500Y-103152135D01*
X123699500Y-103152135D01*
X123699500Y-104847870D01*
X123699501Y-104847876D01*
X123705908Y-104907483D01*
X123756202Y-105042328D01*
X123756206Y-105042335D01*
X123842452Y-105157544D01*
X123842455Y-105157547D01*
X123957664Y-105243793D01*
X123957671Y-105243797D01*
X124092517Y-105294091D01*
X124092516Y-105294091D01*
X124099444Y-105294835D01*
X124152127Y-105300500D01*
X125847872Y-105300499D01*
X125907483Y-105294091D01*
X126042331Y-105243796D01*
X126157546Y-105157546D01*
X126164230Y-105148616D01*
X126220159Y-105106746D01*
X126289851Y-105101759D01*
X126319792Y-105112441D01*
X126500968Y-105204755D01*
X126695578Y-105267988D01*
X126750000Y-105276607D01*
X126750000Y-104315686D01*
X126754394Y-104320080D01*
X126845606Y-104372741D01*
X126947339Y-104400000D01*
X127052661Y-104400000D01*
X127154394Y-104372741D01*
X127245606Y-104320080D01*
X127250000Y-104315686D01*
X127250000Y-105276606D01*
X127304421Y-105267988D01*
X127499031Y-105204754D01*
X127681349Y-105111859D01*
X127846894Y-104991582D01*
X127846895Y-104991582D01*
X127991582Y-104846895D01*
X127991582Y-104846894D01*
X128111859Y-104681349D01*
X128204755Y-104499029D01*
X128267990Y-104304413D01*
X128276609Y-104250000D01*
X127315686Y-104250000D01*
X127320080Y-104245606D01*
X127372741Y-104154394D01*
X127400000Y-104052661D01*
X127400000Y-103947339D01*
X127372741Y-103845606D01*
X127320080Y-103754394D01*
X127315686Y-103750000D01*
X128276609Y-103750000D01*
X128267990Y-103695586D01*
X128204755Y-103500970D01*
X128111857Y-103318647D01*
X128041417Y-103221694D01*
X128041415Y-103221692D01*
X127991583Y-103153105D01*
X127846895Y-103008417D01*
X127681349Y-102888140D01*
X127499029Y-102795244D01*
X127304413Y-102732009D01*
X127250000Y-102723390D01*
X127250000Y-103684314D01*
X127245606Y-103679920D01*
X127154394Y-103627259D01*
X127052661Y-103600000D01*
X126947339Y-103600000D01*
X126845606Y-103627259D01*
X126754394Y-103679920D01*
X126750000Y-103684314D01*
X126750000Y-102723390D01*
X126695586Y-102732009D01*
X126500967Y-102795245D01*
X126319791Y-102887558D01*
X126251122Y-102900454D01*
X126186382Y-102874177D01*
X126164234Y-102851388D01*
X126157546Y-102842454D01*
X126157542Y-102842451D01*
X126042335Y-102756206D01*
X126042328Y-102756202D01*
X125907482Y-102705908D01*
X125907483Y-102705908D01*
X125847883Y-102699501D01*
X125847881Y-102699500D01*
X125847873Y-102699500D01*
X125847864Y-102699500D01*
X124152129Y-102699500D01*
X124152123Y-102699501D01*
X124092516Y-102705908D01*
X123957671Y-102756202D01*
X123957664Y-102756206D01*
X123842455Y-102842452D01*
X123842452Y-102842455D01*
X123756206Y-102957664D01*
X123756202Y-102957671D01*
X123705908Y-103092517D01*
X123700265Y-103145010D01*
X123699501Y-103152123D01*
X123699500Y-103152135D01*
X106500500Y-103152135D01*
X106500500Y-102828031D01*
X106466789Y-102485750D01*
X106399690Y-102148422D01*
X106299850Y-101819295D01*
X106168231Y-101501538D01*
X106006100Y-101198213D01*
X105815019Y-100912240D01*
X105596828Y-100646373D01*
X105596827Y-100646372D01*
X105596823Y-100646367D01*
X105462637Y-100512181D01*
X105429152Y-100450858D01*
X105434136Y-100381166D01*
X105476008Y-100325233D01*
X105541472Y-100300816D01*
X105550318Y-100300500D01*
X164449682Y-100300500D01*
X164516721Y-100320185D01*
G37*
%TD.AperFunction*%
%TD*%
M02*
