M48
; DRILL file {KiCad 9.0.7} date 2026-03-08T23:40:57+0200
; FORMAT={-:-/ absolute / metric / decimal}
; #@! TF.CreationDate,2026-03-08T23:40:57+02:00
; #@! TF.GenerationSoftware,Kicad,Pcbnew,9.0.7
; #@! TF.FileFunction,MixedPlating,1,4
FMAT,2
METRIC
; #@! TA.AperFunction,Plated,PTH,ViaDrill
T1C0.300
; #@! TA.AperFunction,Plated,PTH,ComponentDrill
T2C0.800
; #@! TA.AperFunction,Plated,PTH,ComponentDrill
T3C1.000
; #@! TA.AperFunction,Plated,PTH,ComponentDrill
T4C1.500
; #@! TA.AperFunction,Plated,PTH,ComponentDrill
T5C3.200
%
G90
G05
T1
X115.942Y-121.4
X139.62Y-144.867
X148.162Y-109.933
X151.836Y-129.792
X153.349Y-127.008
X154.012Y-122.428
X154.167Y-124.421
X154.228Y-133.082
X157.11Y-138.268
X165.712Y-150.495
T2
X108.0Y-110.0
X108.0Y-115.0
X108.0Y-120.0
X108.0Y-125.0
X108.0Y-130.0
X108.0Y-135.0
X108.0Y-140.0
X112.0Y-157.0
X114.54Y-157.0
X118.16Y-110.0
X118.16Y-115.0
X118.16Y-120.0
X118.16Y-125.0
X118.16Y-130.0
X118.16Y-135.0
X118.16Y-140.0
X120.0Y-157.0
X124.0Y-147.0
X124.0Y-149.54
X124.0Y-152.08
X124.0Y-154.62
X125.0Y-103.0
X127.0Y-103.0
X130.16Y-157.0
X131.62Y-147.0
X131.62Y-149.54
X131.62Y-152.08
X131.62Y-154.62
X133.0Y-157.0
X135.0Y-150.0
X138.0Y-157.0
X140.0Y-150.0
X148.0Y-115.0
X148.0Y-120.0
X148.0Y-125.0
X148.0Y-130.0
X148.0Y-137.0
X148.0Y-139.54
X148.0Y-142.08
X148.0Y-144.62
X148.0Y-147.16
X148.0Y-149.7
X148.0Y-152.24
X148.0Y-154.78
X148.0Y-157.0
X153.0Y-157.0
X155.62Y-137.0
X155.62Y-139.54
X155.62Y-142.08
X155.62Y-144.62
X155.62Y-147.16
X155.62Y-149.7
X155.62Y-152.24
X155.62Y-154.78
X158.16Y-115.0
X158.16Y-120.0
X158.16Y-125.0
X158.16Y-130.0
T3
X107.0Y-150.0
X108.5Y-154.0
X112.0Y-103.0
X112.0Y-146.0
X112.0Y-150.0
X115.0Y-108.0
X115.5Y-154.0
X117.0Y-150.0
X118.0Y-103.0
X135.0Y-112.0
X135.0Y-114.54
X135.0Y-117.08
X135.0Y-119.62
X135.0Y-122.16
X135.0Y-124.7
X135.0Y-127.24
X135.0Y-129.78
X135.0Y-132.32
X135.0Y-134.86
X135.0Y-137.4
X135.0Y-139.94
X135.0Y-142.48
X135.0Y-145.02
X135.0Y-147.56
X137.54Y-112.0
X137.54Y-114.54
X137.54Y-117.08
X137.54Y-119.62
X137.54Y-122.16
X137.54Y-124.7
X137.54Y-127.24
X137.54Y-129.78
X137.54Y-132.32
X137.54Y-134.86
X137.54Y-137.4
X137.54Y-139.94
X137.54Y-142.48
X137.54Y-145.02
X137.54Y-147.56
X164.0Y-108.0
X164.0Y-110.54
X164.0Y-113.08
X164.0Y-115.62
X164.0Y-118.16
X164.0Y-120.7
X164.0Y-123.24
X164.0Y-125.78
X164.0Y-128.32
X164.0Y-130.86
X164.0Y-133.4
X164.0Y-135.94
X164.0Y-138.48
X164.0Y-141.02
X164.0Y-143.56
X164.0Y-146.1
X164.0Y-148.64
X166.54Y-108.0
X166.54Y-110.54
X166.54Y-113.08
X166.54Y-115.62
X166.54Y-118.16
X166.54Y-120.7
X166.54Y-123.24
X166.54Y-125.78
X166.54Y-128.32
X166.54Y-130.86
X166.54Y-133.4
X166.54Y-135.94
X166.54Y-138.48
X166.54Y-141.02
X166.54Y-143.56
X166.54Y-146.1
X166.54Y-148.64
T4
X104.5Y-150.0
X119.5Y-150.0
T5
X103.0Y-103.0
X103.0Y-157.0
X167.0Y-103.0
X167.0Y-157.0
M30
