%TF.GenerationSoftware,KiCad,Pcbnew,9.0.7*%
%TF.CreationDate,2026-03-09T00:42:12+02:00*%
%TF.ProjectId,64korppu-E,36346b6f-7270-4707-952d-452e6b696361,rev?*%
%TF.SameCoordinates,Original*%
%TF.FileFunction,Copper,L2,Inr*%
%TF.FilePolarity,Positive*%
%FSLAX46Y46*%
G04 Gerber Fmt 4.6, Leading zero omitted, Abs format (unit mm)*
G04 Created by KiCad (PCBNEW 9.0.7) date 2026-03-09 00:42:12*
%MOMM*%
%LPD*%
G01*
G04 APERTURE LIST*
%TA.AperFunction,ComponentPad*%
%ADD10R,2.000000X2.000000*%
%TD*%
%TA.AperFunction,ComponentPad*%
%ADD11O,2.000000X2.000000*%
%TD*%
%TA.AperFunction,ComponentPad*%
%ADD12R,1.600000X1.600000*%
%TD*%
%TA.AperFunction,ComponentPad*%
%ADD13O,1.600000X1.600000*%
%TD*%
%TA.AperFunction,ComponentPad*%
%ADD14R,1.800000X1.800000*%
%TD*%
%TA.AperFunction,ComponentPad*%
%ADD15O,1.800000X1.800000*%
%TD*%
%TA.AperFunction,ComponentPad*%
%ADD16O,3.000000X2.000000*%
%TD*%
%TA.AperFunction,ComponentPad*%
%ADD17R,1.700000X1.700000*%
%TD*%
%TA.AperFunction,ComponentPad*%
%ADD18O,1.700000X1.700000*%
%TD*%
%TA.AperFunction,ComponentPad*%
%ADD19C,6.000000*%
%TD*%
%TA.AperFunction,ViaPad*%
%ADD20C,0.600000*%
%TD*%
%TA.AperFunction,Conductor*%
%ADD21C,0.250000*%
%TD*%
G04 APERTURE END LIST*
D10*
%TO.N,+5V*%
%TO.C,J3*%
X111000000Y-105000000D03*
D11*
X117000000Y-105000000D03*
%TO.N,GND*%
X114000000Y-110000000D03*
%TD*%
D12*
%TO.N,+5V*%
%TO.C,C4*%
X125000000Y-104000000D03*
D13*
%TO.N,GND*%
X127000000Y-104000000D03*
%TD*%
D14*
%TO.N,GND*%
%TO.C,J1*%
X110500000Y-155000000D03*
D15*
X117500000Y-155000000D03*
%TO.N,IEC_ATN*%
X109000000Y-151000000D03*
%TO.N,IEC_CLK*%
X114000000Y-147000000D03*
%TO.N,IEC_DATA*%
X119000000Y-151000000D03*
%TO.N,IEC_RESET*%
X114000000Y-151000000D03*
D16*
%TO.N,GND*%
X106500000Y-151000000D03*
X121500000Y-151000000D03*
%TD*%
D12*
%TO.N,IEC_ATN*%
%TO.C,R1*%
X108000000Y-116000000D03*
D13*
%TO.N,NANO_D2*%
X118160000Y-116000000D03*
%TD*%
D12*
%TO.N,IEC_CLK*%
%TO.C,R2*%
X108000000Y-120000000D03*
D13*
%TO.N,NANO_D3*%
X118160000Y-120000000D03*
%TD*%
D12*
%TO.N,IEC_DATA*%
%TO.C,R3*%
X108000000Y-124000000D03*
D13*
%TO.N,NANO_D4*%
X118160000Y-124000000D03*
%TD*%
D12*
%TO.N,IEC_RESET*%
%TO.C,R4*%
X108000000Y-128000000D03*
D13*
%TO.N,NANO_D5*%
X118160000Y-128000000D03*
%TD*%
D12*
%TO.N,+5V*%
%TO.C,R5*%
X108000000Y-132000000D03*
D13*
%TO.N,NANO_D2*%
X118160000Y-132000000D03*
%TD*%
D12*
%TO.N,+5V*%
%TO.C,R6*%
X108000000Y-136000000D03*
D13*
%TO.N,NANO_D3*%
X118160000Y-136000000D03*
%TD*%
D12*
%TO.N,+5V*%
%TO.C,R7*%
X108000000Y-140000000D03*
D13*
%TO.N,NANO_D4*%
X118160000Y-140000000D03*
%TD*%
D17*
%TO.N,N/C*%
%TO.C,U1*%
X135000000Y-111000000D03*
D18*
X137540000Y-111000000D03*
X135000000Y-113540000D03*
%TO.N,GND*%
X137540000Y-113540000D03*
%TO.N,N/C*%
X135000000Y-116080000D03*
X137540000Y-116080000D03*
%TO.N,GND*%
X135000000Y-118620000D03*
%TO.N,+5V*%
X137540000Y-118620000D03*
%TO.N,NANO_D2*%
X135000000Y-121160000D03*
%TO.N,N/C*%
X137540000Y-121160000D03*
%TO.N,NANO_D3*%
X135000000Y-123700000D03*
%TO.N,N/C*%
X137540000Y-123700000D03*
%TO.N,NANO_D4*%
X135000000Y-126240000D03*
%TO.N,LED_ANODE*%
X137540000Y-126240000D03*
%TO.N,NANO_D5*%
X135000000Y-128780000D03*
%TO.N,N/C*%
X137540000Y-128780000D03*
%TO.N,LATCH_595*%
X135000000Y-131320000D03*
%TO.N,N/C*%
X137540000Y-131320000D03*
%TO.N,FLOPPY_WDATA*%
X135000000Y-133860000D03*
%TO.N,FLOPPY_DSKCHG*%
X137540000Y-133860000D03*
%TO.N,FLOPPY_RDATA*%
X135000000Y-136400000D03*
%TO.N,FLOPPY_WPT*%
X137540000Y-136400000D03*
%TO.N,N/C*%
X135000000Y-138940000D03*
%TO.N,FLOPPY_TRK00*%
X137540000Y-138940000D03*
%TO.N,SPI_CS_SRAM*%
X135000000Y-141480000D03*
%TO.N,N/C*%
X137540000Y-141480000D03*
%TO.N,SPI_MOSI*%
X135000000Y-144020000D03*
%TO.N,N/C*%
X137540000Y-144020000D03*
%TO.N,SPI_MISO*%
X135000000Y-146560000D03*
%TO.N,SPI_SCK*%
X137540000Y-146560000D03*
%TD*%
D12*
%TO.N,SPI_CS_SRAM*%
%TO.C,U2*%
X125000000Y-150000000D03*
D13*
%TO.N,SPI_MISO*%
X125000000Y-152540000D03*
%TO.N,N/C*%
X125000000Y-155080000D03*
%TO.N,GND*%
X125000000Y-157620000D03*
%TO.N,SPI_MOSI*%
X132620000Y-157620000D03*
%TO.N,SPI_SCK*%
X132620000Y-155080000D03*
%TO.N,+5V*%
X132620000Y-152540000D03*
X132620000Y-150000000D03*
%TD*%
D12*
%TO.N,FLOPPY_DENSITY*%
%TO.C,U3*%
X148000000Y-132000000D03*
D13*
%TO.N,FLOPPY_MOTEA*%
X148000000Y-134540000D03*
%TO.N,FLOPPY_DRVSEL*%
X148000000Y-137080000D03*
%TO.N,FLOPPY_MOTOR*%
X148000000Y-139620000D03*
%TO.N,FLOPPY_DIR*%
X148000000Y-142160000D03*
%TO.N,FLOPPY_STEP*%
X148000000Y-144700000D03*
%TO.N,FLOPPY_WGATE*%
X148000000Y-147240000D03*
%TO.N,GND*%
X148000000Y-149780000D03*
%TO.N,N/C*%
X155620000Y-149780000D03*
%TO.N,+5V*%
X155620000Y-147240000D03*
%TO.N,SPI_SCK*%
X155620000Y-144700000D03*
%TO.N,LATCH_595*%
X155620000Y-142160000D03*
%TO.N,GND*%
X155620000Y-139620000D03*
%TO.N,SPI_MOSI*%
X155620000Y-137080000D03*
%TO.N,FLOPPY_SIDE1*%
X155620000Y-134540000D03*
%TO.N,+5V*%
X155620000Y-132000000D03*
%TD*%
D17*
%TO.N,GND*%
%TO.C,J2*%
X165000000Y-110000000D03*
D18*
%TO.N,FLOPPY_DENSITY*%
X167540000Y-110000000D03*
%TO.N,GND*%
X165000000Y-112540000D03*
%TO.N,N/C*%
X167540000Y-112540000D03*
%TO.N,GND*%
X165000000Y-115080000D03*
%TO.N,N/C*%
X167540000Y-115080000D03*
%TO.N,GND*%
X165000000Y-117620000D03*
%TO.N,N/C*%
X167540000Y-117620000D03*
%TO.N,GND*%
X165000000Y-120160000D03*
%TO.N,FLOPPY_MOTEA*%
X167540000Y-120160000D03*
%TO.N,GND*%
X165000000Y-122700000D03*
%TO.N,FLOPPY_DRVSEL*%
X167540000Y-122700000D03*
%TO.N,GND*%
X165000000Y-125240000D03*
%TO.N,N/C*%
X167540000Y-125240000D03*
%TO.N,GND*%
X165000000Y-127780000D03*
%TO.N,FLOPPY_MOTOR*%
X167540000Y-127780000D03*
%TO.N,GND*%
X165000000Y-130320000D03*
%TO.N,FLOPPY_DIR*%
X167540000Y-130320000D03*
%TO.N,GND*%
X165000000Y-132860000D03*
%TO.N,FLOPPY_STEP*%
X167540000Y-132860000D03*
%TO.N,GND*%
X165000000Y-135400000D03*
%TO.N,FLOPPY_WDATA*%
X167540000Y-135400000D03*
%TO.N,GND*%
X165000000Y-137940000D03*
%TO.N,FLOPPY_WGATE*%
X167540000Y-137940000D03*
%TO.N,GND*%
X165000000Y-140480000D03*
%TO.N,FLOPPY_TRK00*%
X167540000Y-140480000D03*
%TO.N,GND*%
X165000000Y-143020000D03*
%TO.N,FLOPPY_WPT*%
X167540000Y-143020000D03*
%TO.N,GND*%
X165000000Y-145560000D03*
%TO.N,FLOPPY_RDATA*%
X167540000Y-145560000D03*
%TO.N,GND*%
X165000000Y-148100000D03*
%TO.N,FLOPPY_SIDE1*%
X167540000Y-148100000D03*
%TO.N,GND*%
X165000000Y-150640000D03*
%TO.N,FLOPPY_DSKCHG*%
X167540000Y-150640000D03*
%TD*%
D12*
%TO.N,LED_ANODE*%
%TO.C,R8*%
X137000000Y-104000000D03*
D13*
%TO.N,LED_CATHODE*%
X147160000Y-104000000D03*
%TD*%
D12*
%TO.N,LED_CATHODE*%
%TO.C,D1*%
X132000000Y-104000000D03*
D13*
%TO.N,GND*%
X134540000Y-104000000D03*
%TD*%
D12*
%TO.N,+5V*%
%TO.C,R9*%
X148000000Y-108000000D03*
D13*
%TO.N,FLOPPY_TRK00*%
X158160000Y-108000000D03*
%TD*%
D12*
%TO.N,+5V*%
%TO.C,R10*%
X148000000Y-113000000D03*
D13*
%TO.N,FLOPPY_WPT*%
X158160000Y-113000000D03*
%TD*%
D12*
%TO.N,+5V*%
%TO.C,R11*%
X148000000Y-118000000D03*
D13*
%TO.N,FLOPPY_RDATA*%
X158160000Y-118000000D03*
%TD*%
D12*
%TO.N,+5V*%
%TO.C,R12*%
X148000000Y-123000000D03*
D13*
%TO.N,FLOPPY_DSKCHG*%
X158160000Y-123000000D03*
%TD*%
D12*
%TO.N,+5V*%
%TO.C,C1*%
X136000000Y-151000000D03*
D13*
%TO.N,GND*%
X141000000Y-151000000D03*
%TD*%
D12*
%TO.N,+5V*%
%TO.C,C2*%
X136000000Y-157000000D03*
D13*
%TO.N,GND*%
X141000000Y-157000000D03*
%TD*%
D12*
%TO.N,+5V*%
%TO.C,C3*%
X148000000Y-156000000D03*
D13*
%TO.N,GND*%
X153000000Y-156000000D03*
%TD*%
D19*
%TO.N,N/C*%
%TO.C,H1*%
X103000000Y-103000000D03*
%TD*%
%TO.N,N/C*%
%TO.C,H2*%
X167000000Y-103000000D03*
%TD*%
%TO.N,N/C*%
%TO.C,H3*%
X103000000Y-157000000D03*
%TD*%
%TO.N,N/C*%
%TO.C,H4*%
X167000000Y-157000000D03*
%TD*%
D20*
%TO.N,LATCH_595*%
X136176700Y-140230000D03*
%TO.N,FLOPPY_RDATA*%
X158854200Y-126053800D03*
%TO.N,FLOPPY_TRK00*%
X157128500Y-138406400D03*
%TO.N,FLOPPY_WPT*%
X161879000Y-129253000D03*
%TO.N,FLOPPY_DENSITY*%
X148162500Y-110083000D03*
%TO.N,FLOPPY_DRVSEL*%
X148162900Y-127134900D03*
%TO.N,FLOPPY_MOTOR*%
X151045500Y-135706600D03*
%TO.N,FLOPPY_SIDE1*%
X157251200Y-146067500D03*
%TD*%
D21*
%TO.N,SPI_MOSI*%
X135000000Y-144020000D02*
X135000000Y-145196700D01*
X135000000Y-145196700D02*
X134632200Y-145196700D01*
X132901800Y-156493300D02*
X132620000Y-156493300D01*
X134632200Y-145196700D02*
X133746700Y-146082200D01*
X133746700Y-155648400D02*
X132901800Y-156493300D01*
X132620000Y-157620000D02*
X132620000Y-156493300D01*
X133746700Y-146082200D02*
X133746700Y-155648400D01*
%TO.N,IEC_ATN*%
X109000000Y-151000000D02*
X109000000Y-149773300D01*
X106873300Y-118253400D02*
X108000000Y-117126700D01*
X106873300Y-147646600D02*
X106873300Y-118253400D01*
X109000000Y-149773300D02*
X106873300Y-147646600D01*
X108000000Y-116000000D02*
X108000000Y-117126700D01*
%TO.N,IEC_DATA*%
X108000000Y-124000000D02*
X108000000Y-125126700D01*
X108000000Y-125126700D02*
X115225200Y-132351900D01*
X115225200Y-132351900D02*
X115225200Y-141125200D01*
X115225200Y-141125200D02*
X119000000Y-144900000D01*
X119000000Y-144900000D02*
X119000000Y-151000000D01*
%TO.N,IEC_RESET*%
X112773300Y-133900000D02*
X112773300Y-148546600D01*
X114000000Y-151000000D02*
X114000000Y-149773300D01*
X112773300Y-148546600D02*
X114000000Y-149773300D01*
X108000000Y-129126700D02*
X112773300Y-133900000D01*
X108000000Y-128000000D02*
X108000000Y-129126700D01*
%TO.N,NANO_D3*%
X117033300Y-122253400D02*
X118160000Y-121126700D01*
X117033300Y-133746600D02*
X117033300Y-122253400D01*
X118160000Y-134873300D02*
X117033300Y-133746600D01*
X118160000Y-120000000D02*
X118160000Y-121126700D01*
X118160000Y-136000000D02*
X118160000Y-134873300D01*
%TO.N,NANO_D4*%
X119286700Y-126253400D02*
X119286700Y-137746600D01*
X119286700Y-137746600D02*
X118160000Y-138873300D01*
X118160000Y-124000000D02*
X118160000Y-125126700D01*
X118160000Y-125126700D02*
X119286700Y-126253400D01*
X118160000Y-140000000D02*
X118160000Y-138873300D01*
%TO.N,FLOPPY_RDATA*%
X166363300Y-143574400D02*
X167172200Y-144383300D01*
X164596100Y-134181500D02*
X165528400Y-134181500D01*
X158160000Y-118000000D02*
X158160000Y-119126700D01*
X159286700Y-120253400D02*
X159286700Y-126053800D01*
X159286700Y-128872100D02*
X164596100Y-134181500D01*
X167172200Y-144383300D02*
X167540000Y-144383300D01*
X159286700Y-126053800D02*
X158854200Y-126053800D01*
X159286700Y-126053800D02*
X159286700Y-128872100D01*
X167540000Y-145560000D02*
X167540000Y-144383300D01*
X165528400Y-134181500D02*
X166363300Y-135016400D01*
X166363300Y-135016400D02*
X166363300Y-143574400D01*
X158160000Y-119126700D02*
X159286700Y-120253400D01*
%TO.N,FLOPPY_TRK00*%
X157032700Y-138310600D02*
X157128500Y-138406400D01*
X158160000Y-109126700D02*
X157032700Y-110254000D01*
X157032700Y-110254000D02*
X157032700Y-138310600D01*
X158160000Y-108000000D02*
X158160000Y-109126700D01*
%TO.N,FLOPPY_WPT*%
X165430800Y-131590000D02*
X164216000Y-131590000D01*
X166270000Y-133270400D02*
X166270000Y-132429200D01*
X161879000Y-129253000D02*
X161879000Y-117845700D01*
X158160000Y-113000000D02*
X158160000Y-114126700D01*
X166270000Y-132429200D02*
X165430800Y-131590000D01*
X168727100Y-134870000D02*
X167946300Y-134089200D01*
X167907700Y-141843300D02*
X168727100Y-141023900D01*
X161879000Y-117845700D02*
X158160000Y-114126700D01*
X168727100Y-141023900D02*
X168727100Y-134870000D01*
X167540000Y-141843300D02*
X167907700Y-141843300D01*
X164216000Y-131590000D02*
X161879000Y-129253000D01*
X167088800Y-134089200D02*
X166270000Y-133270400D01*
X167540000Y-143020000D02*
X167540000Y-141843300D01*
X167946300Y-134089200D02*
X167088800Y-134089200D01*
%TO.N,FLOPPY_DSKCHG*%
X164579100Y-146830000D02*
X165430800Y-146830000D01*
X166363300Y-148654400D02*
X167172200Y-149463300D01*
X166363300Y-147762500D02*
X166363300Y-148654400D01*
X158160000Y-140410900D02*
X164579100Y-146830000D01*
X165430800Y-146830000D02*
X166363300Y-147762500D01*
X167540000Y-150640000D02*
X167540000Y-149463300D01*
X167172200Y-149463300D02*
X167540000Y-149463300D01*
X158160000Y-123000000D02*
X158160000Y-140410900D01*
%TO.N,FLOPPY_DENSITY*%
X146873300Y-129746600D02*
X148000000Y-130873300D01*
X148162500Y-110083000D02*
X146873300Y-111372200D01*
X146873300Y-111372200D02*
X146873300Y-129746600D01*
X148000000Y-132000000D02*
X148000000Y-130873300D01*
%TO.N,FLOPPY_DRVSEL*%
X148281800Y-135953300D02*
X149126700Y-135108400D01*
X148000000Y-137080000D02*
X148000000Y-135953300D01*
X148000000Y-135953300D02*
X148281800Y-135953300D01*
X149126700Y-135108400D02*
X149126700Y-128098700D01*
X149126700Y-128098700D02*
X148162900Y-127134900D01*
%TO.N,FLOPPY_MOTOR*%
X148000000Y-139620000D02*
X148000000Y-138493300D01*
X148000000Y-138493300D02*
X148258800Y-138493300D01*
X148258800Y-138493300D02*
X151045500Y-135706600D01*
%TO.N,FLOPPY_SIDE1*%
X154476100Y-136528900D02*
X154476100Y-142642400D01*
X154476100Y-142642400D02*
X155263700Y-143430000D01*
X155620000Y-134540000D02*
X155620000Y-135666700D01*
X156004400Y-143430000D02*
X157251200Y-144676800D01*
X155263700Y-143430000D02*
X156004400Y-143430000D01*
X155620000Y-135666700D02*
X155338300Y-135666700D01*
X157251200Y-144676800D02*
X157251200Y-146067500D01*
X155338300Y-135666700D02*
X154476100Y-136528900D01*
%TO.N,LED_ANODE*%
X137172200Y-125063300D02*
X137540000Y-125063300D01*
X136363300Y-124254400D02*
X137172200Y-125063300D01*
X137000000Y-105126700D02*
X136363300Y-105763400D01*
X137540000Y-126240000D02*
X137540000Y-125063300D01*
X137000000Y-104000000D02*
X137000000Y-105126700D01*
X136363300Y-105763400D02*
X136363300Y-124254400D01*
%TD*%
%TA.AperFunction,Conductor*%
%TO.N,GND*%
G36*
X165250000Y-150206988D02*
G01*
X165192993Y-150174075D01*
X165065826Y-150140000D01*
X164934174Y-150140000D01*
X164807007Y-150174075D01*
X164750000Y-150206988D01*
X164750000Y-148533012D01*
X164807007Y-148565925D01*
X164934174Y-148600000D01*
X165065826Y-148600000D01*
X165192993Y-148565925D01*
X165250000Y-148533012D01*
X165250000Y-150206988D01*
G37*
%TD.AperFunction*%
%TA.AperFunction,Conductor*%
G36*
X165187387Y-147475185D02*
G01*
X165208029Y-147491819D01*
X165213681Y-147497471D01*
X165225579Y-147519261D01*
X165233142Y-147527989D01*
X165234141Y-147534941D01*
X165247166Y-147558794D01*
X165250000Y-147585152D01*
X165250000Y-147666988D01*
X165192993Y-147634075D01*
X165065826Y-147600000D01*
X164934174Y-147600000D01*
X164807007Y-147634075D01*
X164750000Y-147666988D01*
X164750000Y-147579500D01*
X164752550Y-147570814D01*
X164751262Y-147561853D01*
X164762240Y-147537812D01*
X164769685Y-147512461D01*
X164776525Y-147506533D01*
X164780287Y-147498297D01*
X164802521Y-147484007D01*
X164822489Y-147466706D01*
X164833003Y-147464418D01*
X164839065Y-147460523D01*
X164874000Y-147455500D01*
X165120348Y-147455500D01*
X165187387Y-147475185D01*
G37*
%TD.AperFunction*%
%TA.AperFunction,Conductor*%
G36*
X165250000Y-146080500D02*
G01*
X165247449Y-146089185D01*
X165248738Y-146098147D01*
X165237759Y-146122187D01*
X165230315Y-146147539D01*
X165223474Y-146153466D01*
X165219713Y-146161703D01*
X165197478Y-146175992D01*
X165177511Y-146193294D01*
X165166996Y-146195581D01*
X165160935Y-146199477D01*
X165126000Y-146204500D01*
X164889552Y-146204500D01*
X164822513Y-146184815D01*
X164801871Y-146168181D01*
X164786319Y-146152629D01*
X164752834Y-146091306D01*
X164750000Y-146064948D01*
X164750000Y-145993012D01*
X164807007Y-146025925D01*
X164934174Y-146060000D01*
X165065826Y-146060000D01*
X165192993Y-146025925D01*
X165250000Y-145993012D01*
X165250000Y-146080500D01*
G37*
%TD.AperFunction*%
%TA.AperFunction,Conductor*%
G36*
X165250000Y-145126988D02*
G01*
X165192993Y-145094075D01*
X165065826Y-145060000D01*
X164934174Y-145060000D01*
X164807007Y-145094075D01*
X164750000Y-145126988D01*
X164750000Y-143453012D01*
X164807007Y-143485925D01*
X164934174Y-143520000D01*
X165065826Y-143520000D01*
X165192993Y-143485925D01*
X165250000Y-143453012D01*
X165250000Y-145126988D01*
G37*
%TD.AperFunction*%
%TA.AperFunction,Conductor*%
G36*
X158990703Y-129461139D02*
G01*
X158997181Y-129467171D01*
X163929167Y-134399158D01*
X163962652Y-134460481D01*
X163957668Y-134530173D01*
X163941804Y-134559724D01*
X163845379Y-134692442D01*
X163748904Y-134881782D01*
X163683242Y-135083870D01*
X163683242Y-135083873D01*
X163672769Y-135150000D01*
X164566988Y-135150000D01*
X164534075Y-135207007D01*
X164500000Y-135334174D01*
X164500000Y-135465826D01*
X164534075Y-135592993D01*
X164566988Y-135650000D01*
X163672769Y-135650000D01*
X163683242Y-135716126D01*
X163683242Y-135716129D01*
X163748904Y-135918217D01*
X163845379Y-136107557D01*
X163970272Y-136279459D01*
X163970276Y-136279464D01*
X164120535Y-136429723D01*
X164120540Y-136429727D01*
X164292444Y-136554622D01*
X164302048Y-136559516D01*
X164352844Y-136607491D01*
X164369638Y-136675312D01*
X164347100Y-136741447D01*
X164302048Y-136780484D01*
X164292444Y-136785377D01*
X164120540Y-136910272D01*
X164120535Y-136910276D01*
X163970276Y-137060535D01*
X163970272Y-137060540D01*
X163845379Y-137232442D01*
X163748904Y-137421782D01*
X163683242Y-137623870D01*
X163683242Y-137623873D01*
X163672769Y-137690000D01*
X164566988Y-137690000D01*
X164534075Y-137747007D01*
X164500000Y-137874174D01*
X164500000Y-138005826D01*
X164534075Y-138132993D01*
X164566988Y-138190000D01*
X163672769Y-138190000D01*
X163683242Y-138256126D01*
X163683242Y-138256129D01*
X163748904Y-138458217D01*
X163845379Y-138647557D01*
X163970272Y-138819459D01*
X163970276Y-138819464D01*
X164120535Y-138969723D01*
X164120540Y-138969727D01*
X164292444Y-139094622D01*
X164302048Y-139099516D01*
X164352844Y-139147491D01*
X164369638Y-139215312D01*
X164347100Y-139281447D01*
X164302048Y-139320484D01*
X164292444Y-139325377D01*
X164120540Y-139450272D01*
X164120535Y-139450276D01*
X163970276Y-139600535D01*
X163970272Y-139600540D01*
X163845379Y-139772442D01*
X163748904Y-139961782D01*
X163683242Y-140163870D01*
X163683242Y-140163873D01*
X163672769Y-140230000D01*
X164566988Y-140230000D01*
X164534075Y-140287007D01*
X164500000Y-140414174D01*
X164500000Y-140545826D01*
X164534075Y-140672993D01*
X164566988Y-140730000D01*
X163672769Y-140730000D01*
X163683242Y-140796126D01*
X163683242Y-140796129D01*
X163748904Y-140998217D01*
X163845379Y-141187557D01*
X163970272Y-141359459D01*
X163970276Y-141359464D01*
X164120535Y-141509723D01*
X164120540Y-141509727D01*
X164292444Y-141634622D01*
X164302048Y-141639516D01*
X164352844Y-141687491D01*
X164369638Y-141755312D01*
X164347100Y-141821447D01*
X164302048Y-141860484D01*
X164292444Y-141865377D01*
X164120540Y-141990272D01*
X164120535Y-141990276D01*
X163970276Y-142140535D01*
X163970272Y-142140540D01*
X163845379Y-142312442D01*
X163748904Y-142501782D01*
X163683242Y-142703870D01*
X163683242Y-142703873D01*
X163672769Y-142770000D01*
X164566988Y-142770000D01*
X164534075Y-142827007D01*
X164500000Y-142954174D01*
X164500000Y-143085826D01*
X164534075Y-143212993D01*
X164566988Y-143270000D01*
X163672769Y-143270000D01*
X163683242Y-143336126D01*
X163683242Y-143336129D01*
X163748904Y-143538217D01*
X163845379Y-143727557D01*
X163970272Y-143899459D01*
X163970276Y-143899464D01*
X164120535Y-144049723D01*
X164120540Y-144049727D01*
X164292444Y-144174622D01*
X164302048Y-144179516D01*
X164352844Y-144227491D01*
X164369638Y-144295312D01*
X164347100Y-144361447D01*
X164302048Y-144400484D01*
X164292444Y-144405377D01*
X164120540Y-144530272D01*
X164120535Y-144530276D01*
X163970276Y-144680535D01*
X163970272Y-144680540D01*
X163845377Y-144852444D01*
X163801600Y-144938360D01*
X163753625Y-144989156D01*
X163685804Y-145005950D01*
X163619669Y-144983412D01*
X163603435Y-144969745D01*
X158821819Y-140188129D01*
X158788334Y-140126806D01*
X158785500Y-140100448D01*
X158785500Y-129554852D01*
X158805185Y-129487813D01*
X158857989Y-129442058D01*
X158927147Y-129432114D01*
X158990703Y-129461139D01*
G37*
%TD.AperFunction*%
%TA.AperFunction,Conductor*%
G36*
X165250000Y-142586988D02*
G01*
X165192993Y-142554075D01*
X165065826Y-142520000D01*
X164934174Y-142520000D01*
X164807007Y-142554075D01*
X164750000Y-142586988D01*
X164750000Y-140913012D01*
X164807007Y-140945925D01*
X164934174Y-140980000D01*
X165065826Y-140980000D01*
X165192993Y-140945925D01*
X165250000Y-140913012D01*
X165250000Y-142586988D01*
G37*
%TD.AperFunction*%
%TA.AperFunction,Conductor*%
G36*
X165250000Y-140046988D02*
G01*
X165192993Y-140014075D01*
X165065826Y-139980000D01*
X164934174Y-139980000D01*
X164807007Y-140014075D01*
X164750000Y-140046988D01*
X164750000Y-138373012D01*
X164807007Y-138405925D01*
X164934174Y-138440000D01*
X165065826Y-138440000D01*
X165192993Y-138405925D01*
X165250000Y-138373012D01*
X165250000Y-140046988D01*
G37*
%TD.AperFunction*%
%TA.AperFunction,Conductor*%
G36*
X165250000Y-137506988D02*
G01*
X165192993Y-137474075D01*
X165065826Y-137440000D01*
X164934174Y-137440000D01*
X164807007Y-137474075D01*
X164750000Y-137506988D01*
X164750000Y-135833012D01*
X164807007Y-135865925D01*
X164934174Y-135900000D01*
X165065826Y-135900000D01*
X165192993Y-135865925D01*
X165250000Y-135833012D01*
X165250000Y-137506988D01*
G37*
%TD.AperFunction*%
%TA.AperFunction,Conductor*%
G36*
X165193039Y-134826685D02*
G01*
X165238794Y-134879489D01*
X165250000Y-134931000D01*
X165250000Y-134966988D01*
X165192993Y-134934075D01*
X165065826Y-134900000D01*
X164934174Y-134900000D01*
X164807007Y-134934075D01*
X164750000Y-134966988D01*
X164750000Y-134931000D01*
X164769685Y-134863961D01*
X164822489Y-134818206D01*
X164874000Y-134807000D01*
X165126000Y-134807000D01*
X165193039Y-134826685D01*
G37*
%TD.AperFunction*%
%TA.AperFunction,Conductor*%
G36*
X165250000Y-133432000D02*
G01*
X165230315Y-133499039D01*
X165177511Y-133544794D01*
X165126000Y-133556000D01*
X164906553Y-133556000D01*
X164877112Y-133547355D01*
X164847126Y-133540832D01*
X164842110Y-133537077D01*
X164839514Y-133536315D01*
X164818872Y-133519681D01*
X164786319Y-133487128D01*
X164752834Y-133425805D01*
X164750000Y-133399447D01*
X164750000Y-133293012D01*
X164807007Y-133325925D01*
X164934174Y-133360000D01*
X165065826Y-133360000D01*
X165192993Y-133325925D01*
X165250000Y-133293012D01*
X165250000Y-133432000D01*
G37*
%TD.AperFunction*%
%TA.AperFunction,Conductor*%
G36*
X165187387Y-132235185D02*
G01*
X165208029Y-132251819D01*
X165213681Y-132257471D01*
X165247166Y-132318794D01*
X165250000Y-132345152D01*
X165250000Y-132426988D01*
X165192993Y-132394075D01*
X165065826Y-132360000D01*
X164934174Y-132360000D01*
X164807007Y-132394075D01*
X164750000Y-132426988D01*
X164750000Y-132339500D01*
X164769685Y-132272461D01*
X164822489Y-132226706D01*
X164874000Y-132215500D01*
X165120348Y-132215500D01*
X165187387Y-132235185D01*
G37*
%TD.AperFunction*%
%TA.AperFunction,Conductor*%
G36*
X165250000Y-130840500D02*
G01*
X165230315Y-130907539D01*
X165177511Y-130953294D01*
X165126000Y-130964500D01*
X164874000Y-130964500D01*
X164806961Y-130944815D01*
X164761206Y-130892011D01*
X164750000Y-130840500D01*
X164750000Y-130753012D01*
X164807007Y-130785925D01*
X164934174Y-130820000D01*
X165065826Y-130820000D01*
X165192993Y-130785925D01*
X165250000Y-130753012D01*
X165250000Y-130840500D01*
G37*
%TD.AperFunction*%
%TA.AperFunction,Conductor*%
G36*
X165250000Y-129886988D02*
G01*
X165192993Y-129854075D01*
X165065826Y-129820000D01*
X164934174Y-129820000D01*
X164807007Y-129854075D01*
X164750000Y-129886988D01*
X164750000Y-128213012D01*
X164807007Y-128245925D01*
X164934174Y-128280000D01*
X165065826Y-128280000D01*
X165192993Y-128245925D01*
X165250000Y-128213012D01*
X165250000Y-129886988D01*
G37*
%TD.AperFunction*%
%TA.AperFunction,Conductor*%
G36*
X165250000Y-127346988D02*
G01*
X165192993Y-127314075D01*
X165065826Y-127280000D01*
X164934174Y-127280000D01*
X164807007Y-127314075D01*
X164750000Y-127346988D01*
X164750000Y-125673012D01*
X164807007Y-125705925D01*
X164934174Y-125740000D01*
X165065826Y-125740000D01*
X165192993Y-125705925D01*
X165250000Y-125673012D01*
X165250000Y-127346988D01*
G37*
%TD.AperFunction*%
%TA.AperFunction,Conductor*%
G36*
X165250000Y-124806988D02*
G01*
X165192993Y-124774075D01*
X165065826Y-124740000D01*
X164934174Y-124740000D01*
X164807007Y-124774075D01*
X164750000Y-124806988D01*
X164750000Y-123133012D01*
X164807007Y-123165925D01*
X164934174Y-123200000D01*
X165065826Y-123200000D01*
X165192993Y-123165925D01*
X165250000Y-123133012D01*
X165250000Y-124806988D01*
G37*
%TD.AperFunction*%
%TA.AperFunction,Conductor*%
G36*
X165250000Y-122266988D02*
G01*
X165192993Y-122234075D01*
X165065826Y-122200000D01*
X164934174Y-122200000D01*
X164807007Y-122234075D01*
X164750000Y-122266988D01*
X164750000Y-120593012D01*
X164807007Y-120625925D01*
X164934174Y-120660000D01*
X165065826Y-120660000D01*
X165192993Y-120625925D01*
X165250000Y-120593012D01*
X165250000Y-122266988D01*
G37*
%TD.AperFunction*%
%TA.AperFunction,Conductor*%
G36*
X165250000Y-119726988D02*
G01*
X165192993Y-119694075D01*
X165065826Y-119660000D01*
X164934174Y-119660000D01*
X164807007Y-119694075D01*
X164750000Y-119726988D01*
X164750000Y-118053012D01*
X164807007Y-118085925D01*
X164934174Y-118120000D01*
X165065826Y-118120000D01*
X165192993Y-118085925D01*
X165250000Y-118053012D01*
X165250000Y-119726988D01*
G37*
%TD.AperFunction*%
%TA.AperFunction,Conductor*%
G36*
X165250000Y-117186988D02*
G01*
X165192993Y-117154075D01*
X165065826Y-117120000D01*
X164934174Y-117120000D01*
X164807007Y-117154075D01*
X164750000Y-117186988D01*
X164750000Y-115513012D01*
X164807007Y-115545925D01*
X164934174Y-115580000D01*
X165065826Y-115580000D01*
X165192993Y-115545925D01*
X165250000Y-115513012D01*
X165250000Y-117186988D01*
G37*
%TD.AperFunction*%
%TA.AperFunction,Conductor*%
G36*
X165250000Y-114646988D02*
G01*
X165192993Y-114614075D01*
X165065826Y-114580000D01*
X164934174Y-114580000D01*
X164807007Y-114614075D01*
X164750000Y-114646988D01*
X164750000Y-112973012D01*
X164807007Y-113005925D01*
X164934174Y-113040000D01*
X165065826Y-113040000D01*
X165192993Y-113005925D01*
X165250000Y-112973012D01*
X165250000Y-114646988D01*
G37*
%TD.AperFunction*%
%TA.AperFunction,Conductor*%
G36*
X165250000Y-112106988D02*
G01*
X165192993Y-112074075D01*
X165065826Y-112040000D01*
X164934174Y-112040000D01*
X164807007Y-112074075D01*
X164750000Y-112106988D01*
X164750000Y-110433012D01*
X164807007Y-110465925D01*
X164934174Y-110500000D01*
X165065826Y-110500000D01*
X165192993Y-110465925D01*
X165250000Y-110433012D01*
X165250000Y-112106988D01*
G37*
%TD.AperFunction*%
%TA.AperFunction,Conductor*%
G36*
X164470927Y-100306738D02*
G01*
X164493016Y-100308318D01*
X164503799Y-100316390D01*
X164516721Y-100320185D01*
X164531220Y-100336918D01*
X164548949Y-100350190D01*
X164553656Y-100362810D01*
X164562476Y-100372989D01*
X164565627Y-100394906D01*
X164573366Y-100415654D01*
X164570503Y-100428814D01*
X164572420Y-100442147D01*
X164563220Y-100462290D01*
X164558514Y-100483927D01*
X164545245Y-100501652D01*
X164543395Y-100505703D01*
X164537363Y-100512181D01*
X164403176Y-100646367D01*
X164184985Y-100912234D01*
X164184975Y-100912248D01*
X163993904Y-101198206D01*
X163993893Y-101198224D01*
X163831772Y-101501530D01*
X163831770Y-101501535D01*
X163700150Y-101819293D01*
X163600308Y-102148427D01*
X163533210Y-102485750D01*
X163512159Y-102699500D01*
X163499500Y-102828031D01*
X163499500Y-103171969D01*
X163506048Y-103238456D01*
X163533210Y-103514249D01*
X163600308Y-103851572D01*
X163700150Y-104180706D01*
X163831770Y-104498464D01*
X163831772Y-104498469D01*
X163993893Y-104801775D01*
X163993904Y-104801793D01*
X164184975Y-105087751D01*
X164184985Y-105087765D01*
X164403176Y-105353632D01*
X164646367Y-105596823D01*
X164646372Y-105596827D01*
X164646373Y-105596828D01*
X164912240Y-105815019D01*
X165198213Y-106006100D01*
X165198222Y-106006105D01*
X165198224Y-106006106D01*
X165501530Y-106168227D01*
X165501532Y-106168227D01*
X165501538Y-106168231D01*
X165819295Y-106299850D01*
X166148422Y-106399690D01*
X166485750Y-106466789D01*
X166828031Y-106500500D01*
X166828034Y-106500500D01*
X167171966Y-106500500D01*
X167171969Y-106500500D01*
X167514250Y-106466789D01*
X167851578Y-106399690D01*
X168180705Y-106299850D01*
X168498462Y-106168231D01*
X168801787Y-106006100D01*
X169087760Y-105815019D01*
X169353627Y-105596828D01*
X169408983Y-105541472D01*
X169487819Y-105462637D01*
X169549142Y-105429152D01*
X169618834Y-105434136D01*
X169674767Y-105476008D01*
X169699184Y-105541472D01*
X169699500Y-105550318D01*
X169699500Y-154449682D01*
X169679815Y-154516721D01*
X169627011Y-154562476D01*
X169557853Y-154572420D01*
X169494297Y-154543395D01*
X169487819Y-154537363D01*
X169353632Y-154403176D01*
X169087765Y-154184985D01*
X169087764Y-154184984D01*
X169087760Y-154184981D01*
X168801787Y-153993900D01*
X168801782Y-153993897D01*
X168801775Y-153993893D01*
X168498469Y-153831772D01*
X168498464Y-153831770D01*
X168180706Y-153700150D01*
X167851572Y-153600308D01*
X167514248Y-153533210D01*
X167514249Y-153533210D01*
X167256456Y-153507821D01*
X167171969Y-153499500D01*
X166828031Y-153499500D01*
X166749966Y-153507188D01*
X166485750Y-153533210D01*
X166148427Y-153600308D01*
X165819293Y-153700150D01*
X165501535Y-153831770D01*
X165501530Y-153831772D01*
X165198224Y-153993893D01*
X165198206Y-153993904D01*
X164912248Y-154184975D01*
X164912234Y-154184985D01*
X164646367Y-154403176D01*
X164403176Y-154646367D01*
X164184985Y-154912234D01*
X164184975Y-154912248D01*
X163993904Y-155198206D01*
X163993893Y-155198224D01*
X163831772Y-155501530D01*
X163831770Y-155501535D01*
X163700150Y-155819293D01*
X163600308Y-156148427D01*
X163533210Y-156485750D01*
X163512544Y-156695586D01*
X163499500Y-156828031D01*
X163499500Y-157171969D01*
X163506915Y-157247259D01*
X163533210Y-157514249D01*
X163600308Y-157851572D01*
X163700150Y-158180706D01*
X163831770Y-158498464D01*
X163831772Y-158498469D01*
X163993893Y-158801775D01*
X163993904Y-158801793D01*
X164184975Y-159087751D01*
X164184985Y-159087765D01*
X164403176Y-159353632D01*
X164537363Y-159487819D01*
X164570848Y-159549142D01*
X164565864Y-159618834D01*
X164523992Y-159674767D01*
X164458528Y-159699184D01*
X164449682Y-159699500D01*
X105550318Y-159699500D01*
X105483279Y-159679815D01*
X105437524Y-159627011D01*
X105427580Y-159557853D01*
X105456605Y-159494297D01*
X105462637Y-159487819D01*
X105596823Y-159353632D01*
X105596828Y-159353627D01*
X105815019Y-159087760D01*
X106006100Y-158801787D01*
X106168231Y-158498462D01*
X106299850Y-158180705D01*
X106399690Y-157851578D01*
X106466789Y-157514250D01*
X106500500Y-157171969D01*
X106500500Y-156828031D01*
X106466789Y-156485750D01*
X106399690Y-156148422D01*
X106299850Y-155819295D01*
X106168231Y-155501538D01*
X106167927Y-155500970D01*
X106037571Y-155257091D01*
X106006106Y-155198224D01*
X106006105Y-155198222D01*
X106006100Y-155198213D01*
X105815019Y-154912240D01*
X105596828Y-154646373D01*
X105596827Y-154646372D01*
X105596823Y-154646367D01*
X105353632Y-154403176D01*
X105087765Y-154184985D01*
X105087742Y-154184968D01*
X105038380Y-154151986D01*
X105038330Y-154151953D01*
X104942668Y-154088034D01*
X104888971Y-154052155D01*
X109100000Y-154052155D01*
X109100000Y-154750000D01*
X110066988Y-154750000D01*
X110034075Y-154807007D01*
X110000000Y-154934174D01*
X110000000Y-155065826D01*
X110034075Y-155192993D01*
X110066988Y-155250000D01*
X109100000Y-155250000D01*
X109100000Y-155947844D01*
X109106401Y-156007372D01*
X109106403Y-156007379D01*
X109156645Y-156142086D01*
X109156649Y-156142093D01*
X109242809Y-156257187D01*
X109242812Y-156257190D01*
X109357906Y-156343350D01*
X109357913Y-156343354D01*
X109492620Y-156393596D01*
X109492627Y-156393598D01*
X109552155Y-156399999D01*
X109552172Y-156400000D01*
X110250000Y-156400000D01*
X110250000Y-155433012D01*
X110307007Y-155465925D01*
X110434174Y-155500000D01*
X110565826Y-155500000D01*
X110692993Y-155465925D01*
X110750000Y-155433012D01*
X110750000Y-156400000D01*
X111447828Y-156400000D01*
X111447844Y-156399999D01*
X111507372Y-156393598D01*
X111507379Y-156393596D01*
X111642086Y-156343354D01*
X111642093Y-156343350D01*
X111757187Y-156257190D01*
X111757190Y-156257187D01*
X111843350Y-156142093D01*
X111843354Y-156142086D01*
X111893596Y-156007379D01*
X111893598Y-156007372D01*
X111899999Y-155947844D01*
X111900000Y-155947827D01*
X111900000Y-155250000D01*
X110933012Y-155250000D01*
X110965925Y-155192993D01*
X111000000Y-155065826D01*
X111000000Y-154934174D01*
X110965925Y-154807007D01*
X110933012Y-154750000D01*
X111900000Y-154750000D01*
X116122145Y-154750000D01*
X117066988Y-154750000D01*
X117034075Y-154807007D01*
X117000000Y-154934174D01*
X117000000Y-155065826D01*
X117034075Y-155192993D01*
X117066988Y-155250000D01*
X116122145Y-155250000D01*
X116134473Y-155327835D01*
X116134473Y-155327838D01*
X116202567Y-155537410D01*
X116302613Y-155733760D01*
X116432142Y-155912041D01*
X116587958Y-156067857D01*
X116766239Y-156197386D01*
X116962589Y-156297432D01*
X117172163Y-156365526D01*
X117249999Y-156377854D01*
X117250000Y-156377854D01*
X117250000Y-155433012D01*
X117307007Y-155465925D01*
X117434174Y-155500000D01*
X117565826Y-155500000D01*
X117692993Y-155465925D01*
X117750000Y-155433012D01*
X117750000Y-156377854D01*
X117827834Y-156365526D01*
X117827837Y-156365526D01*
X118037410Y-156297432D01*
X118233760Y-156197386D01*
X118412041Y-156067857D01*
X118567857Y-155912041D01*
X118697386Y-155733760D01*
X118797432Y-155537410D01*
X118865526Y-155327838D01*
X118865526Y-155327835D01*
X118877855Y-155250000D01*
X117933012Y-155250000D01*
X117965925Y-155192993D01*
X118000000Y-155065826D01*
X118000000Y-154934174D01*
X117965925Y-154807007D01*
X117933012Y-154750000D01*
X118877855Y-154750000D01*
X118865526Y-154672164D01*
X118865526Y-154672161D01*
X118797432Y-154462589D01*
X118697386Y-154266239D01*
X118567857Y-154087958D01*
X118412041Y-153932142D01*
X118233760Y-153802613D01*
X118037410Y-153702567D01*
X117827836Y-153634473D01*
X117750000Y-153622144D01*
X117750000Y-154566988D01*
X117692993Y-154534075D01*
X117565826Y-154500000D01*
X117434174Y-154500000D01*
X117307007Y-154534075D01*
X117250000Y-154566988D01*
X117250000Y-153622144D01*
X117172164Y-153634473D01*
X117172161Y-153634473D01*
X116962589Y-153702567D01*
X116766239Y-153802613D01*
X116587958Y-153932142D01*
X116432142Y-154087958D01*
X116302613Y-154266239D01*
X116202567Y-154462589D01*
X116134473Y-154672161D01*
X116134473Y-154672164D01*
X116122145Y-154750000D01*
X111900000Y-154750000D01*
X111900000Y-154052172D01*
X111899999Y-154052155D01*
X111893598Y-153992627D01*
X111893596Y-153992620D01*
X111843354Y-153857913D01*
X111843350Y-153857906D01*
X111757190Y-153742812D01*
X111757187Y-153742809D01*
X111642093Y-153656649D01*
X111642086Y-153656645D01*
X111507379Y-153606403D01*
X111507372Y-153606401D01*
X111447844Y-153600000D01*
X110750000Y-153600000D01*
X110750000Y-154566988D01*
X110692993Y-154534075D01*
X110565826Y-154500000D01*
X110434174Y-154500000D01*
X110307007Y-154534075D01*
X110250000Y-154566988D01*
X110250000Y-153600000D01*
X109552155Y-153600000D01*
X109492627Y-153606401D01*
X109492620Y-153606403D01*
X109357913Y-153656645D01*
X109357906Y-153656649D01*
X109242812Y-153742809D01*
X109242809Y-153742812D01*
X109156649Y-153857906D01*
X109156645Y-153857913D01*
X109106403Y-153992620D01*
X109106401Y-153992627D01*
X109100000Y-154052155D01*
X104888971Y-154052155D01*
X104801787Y-153993900D01*
X104801782Y-153993897D01*
X104801775Y-153993893D01*
X104498469Y-153831772D01*
X104498464Y-153831770D01*
X104180706Y-153700150D01*
X103851572Y-153600308D01*
X103514248Y-153533210D01*
X103514249Y-153533210D01*
X103256456Y-153507821D01*
X103171969Y-153499500D01*
X102828031Y-153499500D01*
X102749966Y-153507188D01*
X102485750Y-153533210D01*
X102148427Y-153600308D01*
X101819293Y-153700150D01*
X101501535Y-153831770D01*
X101501530Y-153831772D01*
X101198224Y-153993893D01*
X101198206Y-153993904D01*
X100912248Y-154184975D01*
X100912234Y-154184985D01*
X100646367Y-154403176D01*
X100512181Y-154537363D01*
X100450858Y-154570848D01*
X100381166Y-154565864D01*
X100325233Y-154523992D01*
X100300816Y-154458528D01*
X100300500Y-154449682D01*
X100300500Y-150750000D01*
X104520898Y-150750000D01*
X105791759Y-150750000D01*
X105778822Y-150781233D01*
X105750000Y-150926131D01*
X105750000Y-151073869D01*
X105778822Y-151218767D01*
X105791759Y-151250000D01*
X104520898Y-151250000D01*
X104536934Y-151351247D01*
X104609897Y-151575802D01*
X104717085Y-151786171D01*
X104855866Y-151977186D01*
X105022813Y-152144133D01*
X105213828Y-152282914D01*
X105424197Y-152390102D01*
X105648752Y-152463065D01*
X105648751Y-152463065D01*
X105881948Y-152500000D01*
X106250000Y-152500000D01*
X106250000Y-151708240D01*
X106281233Y-151721178D01*
X106426131Y-151750000D01*
X106573869Y-151750000D01*
X106718767Y-151721178D01*
X106750000Y-151708240D01*
X106750000Y-152500000D01*
X107118052Y-152500000D01*
X107351247Y-152463065D01*
X107575802Y-152390102D01*
X107786171Y-152282914D01*
X107977185Y-152144133D01*
X107992730Y-152128589D01*
X108054053Y-152095102D01*
X108123744Y-152100085D01*
X108153299Y-152115950D01*
X108250655Y-152186682D01*
X108265978Y-152197815D01*
X108356220Y-152243796D01*
X108462393Y-152297895D01*
X108462396Y-152297896D01*
X108567221Y-152331955D01*
X108672049Y-152366015D01*
X108889778Y-152400500D01*
X108889779Y-152400500D01*
X109110221Y-152400500D01*
X109110222Y-152400500D01*
X109327951Y-152366015D01*
X109537606Y-152297895D01*
X109734022Y-152197815D01*
X109912365Y-152068242D01*
X110068242Y-151912365D01*
X110197815Y-151734022D01*
X110297895Y-151537606D01*
X110366015Y-151327951D01*
X110400500Y-151110222D01*
X110400500Y-150889778D01*
X110366015Y-150672049D01*
X110321068Y-150533713D01*
X110297896Y-150462396D01*
X110297895Y-150462393D01*
X110261008Y-150390000D01*
X110197815Y-150265978D01*
X110131044Y-150174075D01*
X110068247Y-150087641D01*
X110068243Y-150087636D01*
X109912363Y-149931756D01*
X109912358Y-149931752D01*
X109734023Y-149802185D01*
X109686878Y-149778163D01*
X109686650Y-149777948D01*
X109686343Y-149777889D01*
X109661198Y-149753909D01*
X109636083Y-149730188D01*
X109635931Y-149729812D01*
X109635780Y-149729668D01*
X109634466Y-149726178D01*
X109622666Y-149696901D01*
X109622061Y-149694406D01*
X109601463Y-149590849D01*
X109594257Y-149573453D01*
X109574149Y-149524906D01*
X109554312Y-149477014D01*
X109514375Y-149417246D01*
X109485858Y-149374567D01*
X109485855Y-149374563D01*
X109395637Y-149284345D01*
X109395606Y-149284316D01*
X107535119Y-147423829D01*
X107501634Y-147362506D01*
X107498800Y-147336148D01*
X107498800Y-141424499D01*
X107518485Y-141357460D01*
X107571289Y-141311705D01*
X107622800Y-141300499D01*
X108847871Y-141300499D01*
X108847872Y-141300499D01*
X108907483Y-141294091D01*
X109042331Y-141243796D01*
X109157546Y-141157546D01*
X109243796Y-141042331D01*
X109294091Y-140907483D01*
X109300500Y-140847873D01*
X109300499Y-139152128D01*
X109294091Y-139092517D01*
X109276848Y-139046287D01*
X109243797Y-138957671D01*
X109243793Y-138957664D01*
X109157547Y-138842455D01*
X109157544Y-138842452D01*
X109042335Y-138756206D01*
X109042328Y-138756202D01*
X108907482Y-138705908D01*
X108907483Y-138705908D01*
X108847883Y-138699501D01*
X108847881Y-138699500D01*
X108847873Y-138699500D01*
X108847865Y-138699500D01*
X107622800Y-138699500D01*
X107555761Y-138679815D01*
X107510006Y-138627011D01*
X107498800Y-138575500D01*
X107498800Y-137424499D01*
X107518485Y-137357460D01*
X107571289Y-137311705D01*
X107622800Y-137300499D01*
X108847871Y-137300499D01*
X108847872Y-137300499D01*
X108907483Y-137294091D01*
X109042331Y-137243796D01*
X109157546Y-137157546D01*
X109243796Y-137042331D01*
X109294091Y-136907483D01*
X109300500Y-136847873D01*
X109300499Y-135152128D01*
X109294091Y-135092517D01*
X109291216Y-135084810D01*
X109243797Y-134957671D01*
X109243793Y-134957664D01*
X109157547Y-134842455D01*
X109157544Y-134842452D01*
X109042335Y-134756206D01*
X109042328Y-134756202D01*
X108907482Y-134705908D01*
X108907483Y-134705908D01*
X108847883Y-134699501D01*
X108847881Y-134699500D01*
X108847873Y-134699500D01*
X108847865Y-134699500D01*
X107622800Y-134699500D01*
X107555761Y-134679815D01*
X107510006Y-134627011D01*
X107498800Y-134575500D01*
X107498800Y-133424499D01*
X107518485Y-133357460D01*
X107571289Y-133311705D01*
X107622800Y-133300499D01*
X108847871Y-133300499D01*
X108847872Y-133300499D01*
X108907483Y-133294091D01*
X109042331Y-133243796D01*
X109157546Y-133157546D01*
X109243796Y-133042331D01*
X109294091Y-132907483D01*
X109300500Y-132847873D01*
X109300499Y-131611150D01*
X109320184Y-131544112D01*
X109372987Y-131498357D01*
X109442146Y-131488413D01*
X109505702Y-131517438D01*
X109512180Y-131523470D01*
X112111481Y-134122771D01*
X112144966Y-134184094D01*
X112147800Y-134210452D01*
X112147800Y-148608211D01*
X112171835Y-148729044D01*
X112171840Y-148729061D01*
X112218985Y-148842880D01*
X112218986Y-148842882D01*
X112218988Y-148842886D01*
X112231651Y-148861837D01*
X112244640Y-148881277D01*
X112244642Y-148881279D01*
X112248941Y-148887713D01*
X112287442Y-148945333D01*
X112374567Y-149032458D01*
X112374570Y-149032460D01*
X112382051Y-149039941D01*
X113093227Y-149751117D01*
X113126712Y-149812440D01*
X113121728Y-149882132D01*
X113090104Y-149927337D01*
X113091080Y-149928313D01*
X112931756Y-150087636D01*
X112931752Y-150087641D01*
X112802187Y-150265974D01*
X112702104Y-150462393D01*
X112702103Y-150462396D01*
X112633985Y-150672047D01*
X112599500Y-150889778D01*
X112599500Y-151110222D01*
X112606496Y-151154394D01*
X112633985Y-151327952D01*
X112702103Y-151537603D01*
X112702104Y-151537606D01*
X112766833Y-151664641D01*
X112781171Y-151692781D01*
X112802187Y-151734025D01*
X112931752Y-151912358D01*
X112931756Y-151912363D01*
X113087636Y-152068243D01*
X113087641Y-152068247D01*
X113243192Y-152181260D01*
X113265978Y-152197815D01*
X113356220Y-152243796D01*
X113462393Y-152297895D01*
X113462396Y-152297896D01*
X113567221Y-152331955D01*
X113672049Y-152366015D01*
X113889778Y-152400500D01*
X113889779Y-152400500D01*
X114110221Y-152400500D01*
X114110222Y-152400500D01*
X114327951Y-152366015D01*
X114537606Y-152297895D01*
X114734022Y-152197815D01*
X114912365Y-152068242D01*
X115068242Y-151912365D01*
X115197815Y-151734022D01*
X115297895Y-151537606D01*
X115366015Y-151327951D01*
X115400500Y-151110222D01*
X115400500Y-150889778D01*
X115366015Y-150672049D01*
X115321068Y-150533713D01*
X115297896Y-150462396D01*
X115297895Y-150462393D01*
X115261008Y-150390000D01*
X115197815Y-150265978D01*
X115131044Y-150174075D01*
X115068247Y-150087641D01*
X115068243Y-150087636D01*
X114912363Y-149931756D01*
X114912358Y-149931752D01*
X114734023Y-149802185D01*
X114686878Y-149778163D01*
X114686650Y-149777948D01*
X114686343Y-149777889D01*
X114661196Y-149753906D01*
X114636083Y-149730188D01*
X114635931Y-149729812D01*
X114635781Y-149729669D01*
X114634474Y-149726196D01*
X114622667Y-149696902D01*
X114622057Y-149694389D01*
X114601463Y-149590849D01*
X114594257Y-149573453D01*
X114578078Y-149534394D01*
X114557598Y-149484949D01*
X114557596Y-149484944D01*
X114554313Y-149477017D01*
X114554311Y-149477013D01*
X114514375Y-149417246D01*
X114514375Y-149417245D01*
X114514373Y-149417244D01*
X114485858Y-149374567D01*
X114485857Y-149374565D01*
X114395637Y-149284345D01*
X114395606Y-149284316D01*
X113710510Y-148599220D01*
X113677025Y-148537897D01*
X113682009Y-148468205D01*
X113723881Y-148412272D01*
X113789345Y-148387855D01*
X113817585Y-148389065D01*
X113889778Y-148400500D01*
X113889779Y-148400500D01*
X114110221Y-148400500D01*
X114110222Y-148400500D01*
X114327951Y-148366015D01*
X114537606Y-148297895D01*
X114734022Y-148197815D01*
X114912365Y-148068242D01*
X115068242Y-147912365D01*
X115197815Y-147734022D01*
X115297895Y-147537606D01*
X115366015Y-147327951D01*
X115400500Y-147110222D01*
X115400500Y-146889778D01*
X115366015Y-146672049D01*
X115297895Y-146462394D01*
X115297895Y-146462393D01*
X115215658Y-146300997D01*
X115197815Y-146265978D01*
X115170613Y-146228537D01*
X115068247Y-146087641D01*
X115068243Y-146087636D01*
X114912363Y-145931756D01*
X114912358Y-145931752D01*
X114734025Y-145802187D01*
X114734024Y-145802186D01*
X114734022Y-145802185D01*
X114671096Y-145770122D01*
X114537606Y-145702104D01*
X114537603Y-145702103D01*
X114327952Y-145633985D01*
X114219086Y-145616742D01*
X114110222Y-145599500D01*
X113889778Y-145599500D01*
X113846232Y-145606397D01*
X113672045Y-145633985D01*
X113561117Y-145670027D01*
X113491276Y-145672022D01*
X113431443Y-145635941D01*
X113400616Y-145573239D01*
X113398800Y-145552096D01*
X113398800Y-133967741D01*
X113398801Y-133967720D01*
X113398801Y-133838391D01*
X113374764Y-133717554D01*
X113374763Y-133717553D01*
X113374763Y-133717549D01*
X113365689Y-133695643D01*
X113342434Y-133639500D01*
X113327612Y-133603715D01*
X113259158Y-133501267D01*
X113259155Y-133501263D01*
X109120275Y-129362385D01*
X109086790Y-129301062D01*
X109091774Y-129231370D01*
X109133645Y-129175438D01*
X109157546Y-129157546D01*
X109243796Y-129042331D01*
X109294091Y-128907483D01*
X109300500Y-128847873D01*
X109300499Y-127611150D01*
X109320184Y-127544112D01*
X109372987Y-127498357D01*
X109442146Y-127488413D01*
X109505702Y-127517438D01*
X109512180Y-127523470D01*
X114563381Y-132574671D01*
X114596866Y-132635994D01*
X114599700Y-132662352D01*
X114599700Y-141186807D01*
X114603156Y-141204184D01*
X114603160Y-141204203D01*
X114603588Y-141206352D01*
X114623737Y-141307652D01*
X114628929Y-141320186D01*
X114670888Y-141421486D01*
X114684630Y-141442051D01*
X114684631Y-141442052D01*
X114684632Y-141442054D01*
X114739340Y-141523931D01*
X114739341Y-141523932D01*
X114739342Y-141523933D01*
X114826467Y-141611058D01*
X114826468Y-141611058D01*
X114833535Y-141618125D01*
X114833534Y-141618125D01*
X114833538Y-141618128D01*
X118338181Y-145122771D01*
X118371666Y-145184094D01*
X118374500Y-145210452D01*
X118374500Y-149670902D01*
X118354815Y-149737941D01*
X118306796Y-149781386D01*
X118265976Y-149802185D01*
X118087641Y-149931752D01*
X118087636Y-149931756D01*
X117931756Y-150087636D01*
X117931752Y-150087641D01*
X117802187Y-150265974D01*
X117702104Y-150462393D01*
X117702103Y-150462396D01*
X117633985Y-150672047D01*
X117599500Y-150889778D01*
X117599500Y-151110222D01*
X117606496Y-151154394D01*
X117633985Y-151327952D01*
X117702103Y-151537603D01*
X117702104Y-151537606D01*
X117766833Y-151664641D01*
X117781171Y-151692781D01*
X117802187Y-151734025D01*
X117931752Y-151912358D01*
X117931756Y-151912363D01*
X118087636Y-152068243D01*
X118087641Y-152068247D01*
X118243192Y-152181260D01*
X118265978Y-152197815D01*
X118356220Y-152243796D01*
X118462393Y-152297895D01*
X118462396Y-152297896D01*
X118567221Y-152331955D01*
X118672049Y-152366015D01*
X118889778Y-152400500D01*
X118889779Y-152400500D01*
X119110221Y-152400500D01*
X119110222Y-152400500D01*
X119327951Y-152366015D01*
X119537606Y-152297895D01*
X119734022Y-152197815D01*
X119846704Y-152115947D01*
X119912505Y-152092469D01*
X119980559Y-152108294D01*
X120007266Y-152128586D01*
X120022813Y-152144133D01*
X120213828Y-152282914D01*
X120424197Y-152390102D01*
X120648752Y-152463065D01*
X120648751Y-152463065D01*
X120881948Y-152500000D01*
X121250000Y-152500000D01*
X121250000Y-151708240D01*
X121281233Y-151721178D01*
X121426131Y-151750000D01*
X121573869Y-151750000D01*
X121718767Y-151721178D01*
X121750000Y-151708240D01*
X121750000Y-152500000D01*
X122118052Y-152500000D01*
X122351247Y-152463065D01*
X122575802Y-152390102D01*
X122786171Y-152282914D01*
X122977186Y-152144133D01*
X123144133Y-151977186D01*
X123282914Y-151786171D01*
X123390102Y-151575802D01*
X123463065Y-151351247D01*
X123479102Y-151250000D01*
X122208241Y-151250000D01*
X122221178Y-151218767D01*
X122250000Y-151073869D01*
X122250000Y-150926131D01*
X122221178Y-150781233D01*
X122208241Y-150750000D01*
X123451500Y-150750000D01*
X123451500Y-150613158D01*
X123390102Y-150424197D01*
X123282914Y-150213828D01*
X123144133Y-150022813D01*
X122977186Y-149855866D01*
X122786171Y-149717085D01*
X122575802Y-149609897D01*
X122351247Y-149536934D01*
X122351248Y-149536934D01*
X122118052Y-149500000D01*
X121750000Y-149500000D01*
X121750000Y-150291759D01*
X121718767Y-150278822D01*
X121573869Y-150250000D01*
X121426131Y-150250000D01*
X121281233Y-150278822D01*
X121250000Y-150291759D01*
X121250000Y-149500000D01*
X120881948Y-149500000D01*
X120648752Y-149536934D01*
X120424197Y-149609897D01*
X120213825Y-149717087D01*
X120022819Y-149855860D01*
X120007264Y-149871415D01*
X119979573Y-149886534D01*
X119952789Y-149903203D01*
X119949141Y-149903150D01*
X119945940Y-149904898D01*
X119914465Y-149902646D01*
X119882927Y-149902188D01*
X119878737Y-149900090D01*
X119876248Y-149899912D01*
X119851038Y-149887062D01*
X119848828Y-149885596D01*
X119734022Y-149802185D01*
X119686877Y-149778163D01*
X119680953Y-149774233D01*
X119662850Y-149752717D01*
X119642408Y-149733411D01*
X119640419Y-149726059D01*
X119635970Y-149720771D01*
X119633217Y-149699433D01*
X119625500Y-149670902D01*
X119625500Y-149152135D01*
X123699500Y-149152135D01*
X123699500Y-150847867D01*
X123699501Y-150847876D01*
X123705908Y-150907483D01*
X123756202Y-151042328D01*
X123756206Y-151042335D01*
X123842452Y-151157544D01*
X123842455Y-151157547D01*
X123957664Y-151243793D01*
X123957671Y-151243797D01*
X124002618Y-151260561D01*
X124092517Y-151294091D01*
X124129441Y-151298060D01*
X124193989Y-151324796D01*
X124233838Y-151382188D01*
X124236333Y-151452013D01*
X124200681Y-151512102D01*
X124189071Y-151521666D01*
X124152784Y-151548030D01*
X124008028Y-151692786D01*
X123887715Y-151858386D01*
X123794781Y-152040776D01*
X123731522Y-152235465D01*
X123699500Y-152437648D01*
X123699500Y-152642351D01*
X123731522Y-152844534D01*
X123794781Y-153039223D01*
X123887715Y-153221613D01*
X124008028Y-153387213D01*
X124152786Y-153531971D01*
X124276901Y-153622144D01*
X124318390Y-153652287D01*
X124409840Y-153698883D01*
X124411080Y-153699515D01*
X124461876Y-153747490D01*
X124478671Y-153815311D01*
X124456134Y-153881446D01*
X124411080Y-153920485D01*
X124318386Y-153967715D01*
X124152786Y-154088028D01*
X124008028Y-154232786D01*
X123887715Y-154398386D01*
X123794781Y-154580776D01*
X123731522Y-154775465D01*
X123699500Y-154977648D01*
X123699500Y-155182351D01*
X123731522Y-155384534D01*
X123794781Y-155579223D01*
X123846090Y-155679920D01*
X123884957Y-155756202D01*
X123887715Y-155761613D01*
X124008028Y-155927213D01*
X124152786Y-156071971D01*
X124264460Y-156153105D01*
X124318390Y-156192287D01*
X124390424Y-156228990D01*
X124411629Y-156239795D01*
X124462425Y-156287770D01*
X124479220Y-156355591D01*
X124456682Y-156421726D01*
X124411629Y-156460765D01*
X124318650Y-156508140D01*
X124153105Y-156628417D01*
X124153104Y-156628417D01*
X124008417Y-156773104D01*
X124008417Y-156773105D01*
X123888140Y-156938650D01*
X123795244Y-157120970D01*
X123732009Y-157315586D01*
X123723391Y-157370000D01*
X124684314Y-157370000D01*
X124679920Y-157374394D01*
X124627259Y-157465606D01*
X124600000Y-157567339D01*
X124600000Y-157672661D01*
X124627259Y-157774394D01*
X124679920Y-157865606D01*
X124684314Y-157870000D01*
X123723391Y-157870000D01*
X123732009Y-157924413D01*
X123795244Y-158119029D01*
X123888140Y-158301349D01*
X124008417Y-158466894D01*
X124008417Y-158466895D01*
X124153104Y-158611582D01*
X124318650Y-158731859D01*
X124500968Y-158824754D01*
X124695578Y-158887988D01*
X124750000Y-158896607D01*
X124750000Y-157935686D01*
X124754394Y-157940080D01*
X124845606Y-157992741D01*
X124947339Y-158020000D01*
X125052661Y-158020000D01*
X125154394Y-157992741D01*
X125245606Y-157940080D01*
X125250000Y-157935686D01*
X125250000Y-158896606D01*
X125304421Y-158887988D01*
X125499031Y-158824754D01*
X125681349Y-158731859D01*
X125846894Y-158611582D01*
X125846895Y-158611582D01*
X125991582Y-158466895D01*
X125991582Y-158466894D01*
X126111859Y-158301349D01*
X126204755Y-158119029D01*
X126267990Y-157924413D01*
X126276609Y-157870000D01*
X125315686Y-157870000D01*
X125320080Y-157865606D01*
X125372741Y-157774394D01*
X125400000Y-157672661D01*
X125400000Y-157567339D01*
X125372741Y-157465606D01*
X125320080Y-157374394D01*
X125315686Y-157370000D01*
X126276609Y-157370000D01*
X126267990Y-157315586D01*
X126204755Y-157120970D01*
X126111859Y-156938650D01*
X125991582Y-156773105D01*
X125991582Y-156773104D01*
X125846895Y-156628417D01*
X125681349Y-156508140D01*
X125588370Y-156460765D01*
X125537574Y-156412790D01*
X125520779Y-156344969D01*
X125543316Y-156278835D01*
X125588370Y-156239795D01*
X125681610Y-156192287D01*
X125736886Y-156152127D01*
X125847213Y-156071971D01*
X125847215Y-156071968D01*
X125847219Y-156071966D01*
X125991966Y-155927219D01*
X125991968Y-155927215D01*
X125991971Y-155927213D01*
X126053552Y-155842452D01*
X126112287Y-155761610D01*
X126205220Y-155579219D01*
X126268477Y-155384534D01*
X126300500Y-155182352D01*
X126300500Y-154977648D01*
X126293614Y-154934174D01*
X126268477Y-154775465D01*
X126205218Y-154580776D01*
X126144998Y-154462589D01*
X126112287Y-154398390D01*
X126104556Y-154387749D01*
X125991971Y-154232786D01*
X125847213Y-154088028D01*
X125681614Y-153967715D01*
X125675006Y-153964348D01*
X125588917Y-153920483D01*
X125538123Y-153872511D01*
X125521328Y-153804690D01*
X125543865Y-153738555D01*
X125588917Y-153699516D01*
X125681610Y-153652287D01*
X125723099Y-153622144D01*
X125847213Y-153531971D01*
X125847215Y-153531968D01*
X125847219Y-153531966D01*
X125991966Y-153387219D01*
X125991968Y-153387215D01*
X125991971Y-153387213D01*
X126044732Y-153314590D01*
X126112287Y-153221610D01*
X126205220Y-153039219D01*
X126268477Y-152844534D01*
X126300500Y-152642352D01*
X126300500Y-152437648D01*
X126278365Y-152297895D01*
X126268477Y-152235465D01*
X126238801Y-152144133D01*
X126205220Y-152040781D01*
X126205218Y-152040778D01*
X126205218Y-152040776D01*
X126162657Y-151957246D01*
X126112287Y-151858390D01*
X126065956Y-151794620D01*
X125991971Y-151692786D01*
X125847219Y-151548034D01*
X125810930Y-151521669D01*
X125768264Y-151466339D01*
X125762285Y-151396726D01*
X125794890Y-151334931D01*
X125855728Y-151300573D01*
X125870562Y-151298060D01*
X125907483Y-151294091D01*
X126042328Y-151243797D01*
X126042327Y-151243797D01*
X126042331Y-151243796D01*
X126157546Y-151157546D01*
X126243796Y-151042331D01*
X126294091Y-150907483D01*
X126300500Y-150847873D01*
X126300499Y-149152128D01*
X126294091Y-149092517D01*
X126274481Y-149039941D01*
X126243797Y-148957671D01*
X126243793Y-148957664D01*
X126157547Y-148842455D01*
X126157544Y-148842452D01*
X126042335Y-148756206D01*
X126042328Y-148756202D01*
X125907482Y-148705908D01*
X125907483Y-148705908D01*
X125847883Y-148699501D01*
X125847881Y-148699500D01*
X125847873Y-148699500D01*
X125847864Y-148699500D01*
X124152129Y-148699500D01*
X124152123Y-148699501D01*
X124092516Y-148705908D01*
X123957671Y-148756202D01*
X123957664Y-148756206D01*
X123842455Y-148842452D01*
X123842452Y-148842455D01*
X123756206Y-148957664D01*
X123756202Y-148957671D01*
X123705908Y-149092517D01*
X123699501Y-149152116D01*
X123699501Y-149152123D01*
X123699500Y-149152135D01*
X119625500Y-149152135D01*
X119625500Y-144838393D01*
X119625499Y-144838389D01*
X119603505Y-144727816D01*
X119601463Y-144717548D01*
X119554311Y-144603714D01*
X119554310Y-144603713D01*
X119554307Y-144603707D01*
X119485859Y-144501268D01*
X119466241Y-144481650D01*
X119398733Y-144414142D01*
X119398732Y-144414141D01*
X115887019Y-140902428D01*
X115853534Y-140841105D01*
X115850700Y-140814747D01*
X115850700Y-132290296D01*
X115850700Y-132290294D01*
X115849060Y-132282051D01*
X115831042Y-132191463D01*
X115826663Y-132169448D01*
X115798871Y-132102352D01*
X115779512Y-132055615D01*
X115729126Y-131980208D01*
X115711058Y-131953167D01*
X115711056Y-131953164D01*
X115620837Y-131862945D01*
X115620806Y-131862916D01*
X109120275Y-125362385D01*
X109086790Y-125301062D01*
X109091774Y-125231370D01*
X109133645Y-125175438D01*
X109157546Y-125157546D01*
X109243796Y-125042331D01*
X109294091Y-124907483D01*
X109300500Y-124847873D01*
X109300499Y-123152128D01*
X109294091Y-123092517D01*
X109256669Y-122992184D01*
X109243797Y-122957671D01*
X109243793Y-122957664D01*
X109157547Y-122842455D01*
X109157544Y-122842452D01*
X109042335Y-122756206D01*
X109042328Y-122756202D01*
X108907482Y-122705908D01*
X108907483Y-122705908D01*
X108847883Y-122699501D01*
X108847881Y-122699500D01*
X108847873Y-122699500D01*
X108847865Y-122699500D01*
X107622800Y-122699500D01*
X107555761Y-122679815D01*
X107510006Y-122627011D01*
X107498800Y-122575500D01*
X107498800Y-122191794D01*
X116407800Y-122191794D01*
X116407800Y-122196424D01*
X116407800Y-133808211D01*
X116431835Y-133929044D01*
X116431840Y-133929061D01*
X116478985Y-134042881D01*
X116478988Y-134042886D01*
X116505426Y-134082452D01*
X116547442Y-134145333D01*
X116634567Y-134232458D01*
X116634569Y-134232459D01*
X117273782Y-134871672D01*
X117307266Y-134932994D01*
X117302282Y-135002686D01*
X117273782Y-135047033D01*
X117168027Y-135152788D01*
X117047715Y-135318386D01*
X116954781Y-135500776D01*
X116891522Y-135695465D01*
X116862044Y-135881585D01*
X116859500Y-135897648D01*
X116859500Y-136102352D01*
X116862889Y-136123751D01*
X116891522Y-136304534D01*
X116954781Y-136499223D01*
X116996335Y-136580776D01*
X117041797Y-136670000D01*
X117047715Y-136681613D01*
X117168028Y-136847213D01*
X117312786Y-136991971D01*
X117460179Y-137099056D01*
X117478390Y-137112287D01*
X117567212Y-137157544D01*
X117660776Y-137205218D01*
X117660778Y-137205218D01*
X117660781Y-137205220D01*
X117744562Y-137232442D01*
X117855465Y-137268477D01*
X117956557Y-137284488D01*
X118057648Y-137300500D01*
X118057649Y-137300500D01*
X118262351Y-137300500D01*
X118262352Y-137300500D01*
X118464534Y-137268477D01*
X118498881Y-137257317D01*
X118527002Y-137256513D01*
X118554847Y-137252510D01*
X118561458Y-137255529D01*
X118568722Y-137255322D01*
X118592808Y-137269846D01*
X118618403Y-137281535D01*
X118622332Y-137287649D01*
X118628555Y-137291402D01*
X118640967Y-137316645D01*
X118656177Y-137340313D01*
X118657653Y-137350582D01*
X118659384Y-137354102D01*
X118661200Y-137375248D01*
X118661200Y-137436147D01*
X118641515Y-137503186D01*
X118624881Y-137523828D01*
X117761269Y-138387440D01*
X117761267Y-138387442D01*
X117727124Y-138421585D01*
X117674141Y-138474567D01*
X117661789Y-138493052D01*
X117661790Y-138493053D01*
X117605689Y-138577012D01*
X117605685Y-138577019D01*
X117579357Y-138640582D01*
X117579355Y-138640588D01*
X117576217Y-138648165D01*
X117558537Y-138690848D01*
X117546518Y-138751271D01*
X117537531Y-138796458D01*
X117536757Y-138800345D01*
X117536753Y-138800363D01*
X117535647Y-138805925D01*
X117503255Y-138867832D01*
X117482231Y-138884711D01*
X117482331Y-138884849D01*
X117479482Y-138886918D01*
X117478833Y-138887440D01*
X117478396Y-138887707D01*
X117312786Y-139008028D01*
X117168028Y-139152786D01*
X117047715Y-139318386D01*
X116954781Y-139500776D01*
X116891522Y-139695465D01*
X116859500Y-139897648D01*
X116859500Y-140102351D01*
X116891522Y-140304534D01*
X116954781Y-140499223D01*
X117012230Y-140611971D01*
X117043322Y-140672993D01*
X117047715Y-140681613D01*
X117168028Y-140847213D01*
X117312786Y-140991971D01*
X117467749Y-141104556D01*
X117478390Y-141112287D01*
X117594607Y-141171503D01*
X117660776Y-141205218D01*
X117660778Y-141205218D01*
X117660781Y-141205220D01*
X117765137Y-141239127D01*
X117855465Y-141268477D01*
X117956557Y-141284488D01*
X118057648Y-141300500D01*
X118057649Y-141300500D01*
X118262351Y-141300500D01*
X118262352Y-141300500D01*
X118464534Y-141268477D01*
X118659219Y-141205220D01*
X118841610Y-141112287D01*
X118995882Y-141000203D01*
X119007213Y-140991971D01*
X119007215Y-140991968D01*
X119007219Y-140991966D01*
X119151966Y-140847219D01*
X119151968Y-140847215D01*
X119151971Y-140847213D01*
X119235470Y-140732284D01*
X119272287Y-140681610D01*
X119365220Y-140499219D01*
X119428477Y-140304534D01*
X119460500Y-140102352D01*
X119460500Y-139897648D01*
X119436481Y-139746000D01*
X119428477Y-139695465D01*
X119365218Y-139500776D01*
X119304293Y-139381206D01*
X119272287Y-139318390D01*
X119219075Y-139245149D01*
X119151971Y-139152786D01*
X119046218Y-139047033D01*
X119012733Y-138985710D01*
X119017717Y-138916018D01*
X119046215Y-138871674D01*
X119772557Y-138145334D01*
X119804003Y-138098273D01*
X119841011Y-138042886D01*
X119888163Y-137929052D01*
X119912200Y-137808206D01*
X119912200Y-126191794D01*
X119888163Y-126070948D01*
X119841011Y-125957114D01*
X119841010Y-125957113D01*
X119841007Y-125957107D01*
X119772559Y-125854668D01*
X119772558Y-125854667D01*
X119685433Y-125767542D01*
X119685432Y-125767541D01*
X119046219Y-125128328D01*
X119012734Y-125067005D01*
X119017718Y-124997313D01*
X119046219Y-124952966D01*
X119092558Y-124906627D01*
X119151966Y-124847219D01*
X119151968Y-124847215D01*
X119151971Y-124847213D01*
X119219476Y-124754299D01*
X119272287Y-124681610D01*
X119365220Y-124499219D01*
X119428477Y-124304534D01*
X119460500Y-124102352D01*
X119460500Y-123897648D01*
X119446030Y-123806287D01*
X119428477Y-123695465D01*
X119365218Y-123500776D01*
X119317720Y-123407557D01*
X119272287Y-123318390D01*
X119264556Y-123307749D01*
X119151971Y-123152786D01*
X119007213Y-123008028D01*
X118841613Y-122887715D01*
X118841612Y-122887714D01*
X118841610Y-122887713D01*
X118784653Y-122858691D01*
X118659223Y-122794781D01*
X118464534Y-122731522D01*
X118289995Y-122703878D01*
X118262352Y-122699500D01*
X118057648Y-122699500D01*
X117990254Y-122710174D01*
X117855464Y-122731523D01*
X117821116Y-122742683D01*
X117792993Y-122743485D01*
X117765153Y-122747489D01*
X117758541Y-122744469D01*
X117751275Y-122744677D01*
X117727186Y-122730150D01*
X117701597Y-122718464D01*
X117697666Y-122712348D01*
X117691443Y-122708595D01*
X117679032Y-122683353D01*
X117663823Y-122659686D01*
X117662345Y-122649412D01*
X117660616Y-122645894D01*
X117658800Y-122624751D01*
X117658800Y-122563852D01*
X117678485Y-122496813D01*
X117695119Y-122476171D01*
X118131504Y-122039786D01*
X118645857Y-121525434D01*
X118678056Y-121477246D01*
X118714311Y-121422986D01*
X118761463Y-121309152D01*
X118774463Y-121243796D01*
X118782137Y-121205219D01*
X118783263Y-121199552D01*
X118784348Y-121194097D01*
X118816725Y-121132186D01*
X118837769Y-121115290D01*
X118837668Y-121115150D01*
X118840575Y-121113037D01*
X118841199Y-121112537D01*
X118841587Y-121112298D01*
X118841610Y-121112287D01*
X119007219Y-120991966D01*
X119151966Y-120847219D01*
X119151968Y-120847215D01*
X119151971Y-120847213D01*
X119204732Y-120774590D01*
X119272287Y-120681610D01*
X119365220Y-120499219D01*
X119428477Y-120304534D01*
X119460500Y-120102352D01*
X119460500Y-119897648D01*
X119428477Y-119695466D01*
X119425438Y-119686114D01*
X119368960Y-119512293D01*
X119365220Y-119500781D01*
X119365218Y-119500778D01*
X119365218Y-119500776D01*
X119292194Y-119357460D01*
X119272287Y-119318390D01*
X119244550Y-119280213D01*
X119151971Y-119152786D01*
X119007213Y-119008028D01*
X118841613Y-118887715D01*
X118841612Y-118887714D01*
X118841610Y-118887713D01*
X118784653Y-118858691D01*
X118659223Y-118794781D01*
X118464534Y-118731522D01*
X118289995Y-118703878D01*
X118262352Y-118699500D01*
X118057648Y-118699500D01*
X118033329Y-118703351D01*
X117855465Y-118731522D01*
X117660776Y-118794781D01*
X117478386Y-118887715D01*
X117312786Y-119008028D01*
X117168028Y-119152786D01*
X117047715Y-119318386D01*
X116954781Y-119500776D01*
X116891522Y-119695465D01*
X116859500Y-119897648D01*
X116859500Y-120102351D01*
X116891522Y-120304534D01*
X116954781Y-120499223D01*
X116987712Y-120563852D01*
X117045984Y-120678217D01*
X117047715Y-120681613D01*
X117168028Y-120847213D01*
X117273780Y-120952965D01*
X117307265Y-121014288D01*
X117302281Y-121083980D01*
X117273780Y-121128327D01*
X116634569Y-121767540D01*
X116547444Y-121854664D01*
X116547438Y-121854672D01*
X116478990Y-121957108D01*
X116478988Y-121957113D01*
X116431840Y-122070938D01*
X116431835Y-122070954D01*
X116414314Y-122159042D01*
X116414306Y-122159082D01*
X116414025Y-122160500D01*
X116407800Y-122191794D01*
X107498800Y-122191794D01*
X107498800Y-121424499D01*
X107518485Y-121357460D01*
X107571289Y-121311705D01*
X107622800Y-121300499D01*
X108847871Y-121300499D01*
X108847872Y-121300499D01*
X108907483Y-121294091D01*
X109042331Y-121243796D01*
X109157546Y-121157546D01*
X109243796Y-121042331D01*
X109294091Y-120907483D01*
X109300500Y-120847873D01*
X109300499Y-119152128D01*
X109294091Y-119092517D01*
X109291632Y-119085925D01*
X109243797Y-118957671D01*
X109243793Y-118957664D01*
X109157547Y-118842455D01*
X109157544Y-118842452D01*
X109042335Y-118756206D01*
X109042328Y-118756202D01*
X108907482Y-118705908D01*
X108907483Y-118705908D01*
X108847883Y-118699501D01*
X108847881Y-118699500D01*
X108847873Y-118699500D01*
X108847865Y-118699500D01*
X107622800Y-118699500D01*
X107614114Y-118696949D01*
X107605153Y-118698238D01*
X107581112Y-118687259D01*
X107555761Y-118679815D01*
X107549833Y-118672974D01*
X107541597Y-118669213D01*
X107527307Y-118646978D01*
X107510006Y-118627011D01*
X107507718Y-118616496D01*
X107503823Y-118610435D01*
X107498800Y-118575500D01*
X107498800Y-118563852D01*
X107518485Y-118496813D01*
X107535119Y-118476171D01*
X108485854Y-117525437D01*
X108485857Y-117525434D01*
X108493689Y-117513713D01*
X108554311Y-117422986D01*
X108573340Y-117377047D01*
X108617181Y-117322643D01*
X108683475Y-117300578D01*
X108687901Y-117300499D01*
X108847871Y-117300499D01*
X108847872Y-117300499D01*
X108907483Y-117294091D01*
X109042331Y-117243796D01*
X109157546Y-117157546D01*
X109243796Y-117042331D01*
X109294091Y-116907483D01*
X109300500Y-116847873D01*
X109300499Y-115897648D01*
X116859500Y-115897648D01*
X116859500Y-116102352D01*
X116860668Y-116109727D01*
X116891522Y-116304534D01*
X116954781Y-116499223D01*
X116993647Y-116575500D01*
X117046798Y-116679815D01*
X117047715Y-116681613D01*
X117168028Y-116847213D01*
X117312786Y-116991971D01*
X117451177Y-117092516D01*
X117478390Y-117112287D01*
X117567212Y-117157544D01*
X117660776Y-117205218D01*
X117660778Y-117205218D01*
X117660781Y-117205220D01*
X117765137Y-117239127D01*
X117855465Y-117268477D01*
X117919101Y-117278556D01*
X118057648Y-117300500D01*
X118057649Y-117300500D01*
X118262351Y-117300500D01*
X118262352Y-117300500D01*
X118464534Y-117268477D01*
X118659219Y-117205220D01*
X118841610Y-117112287D01*
X118937901Y-117042328D01*
X119007213Y-116991971D01*
X119007215Y-116991968D01*
X119007219Y-116991966D01*
X119151966Y-116847219D01*
X119151968Y-116847215D01*
X119151971Y-116847213D01*
X119226325Y-116744872D01*
X119272287Y-116681610D01*
X119365220Y-116499219D01*
X119428477Y-116304534D01*
X119460500Y-116102352D01*
X119460500Y-115897648D01*
X119439294Y-115763760D01*
X119428477Y-115695465D01*
X119365218Y-115500776D01*
X119311897Y-115396129D01*
X119272287Y-115318390D01*
X119264556Y-115307749D01*
X119151971Y-115152786D01*
X119007213Y-115008028D01*
X118841613Y-114887715D01*
X118841612Y-114887714D01*
X118841610Y-114887713D01*
X118758074Y-114845149D01*
X118659223Y-114794781D01*
X118464534Y-114731522D01*
X118289995Y-114703878D01*
X118262352Y-114699500D01*
X118057648Y-114699500D01*
X118033329Y-114703351D01*
X117855465Y-114731522D01*
X117660776Y-114794781D01*
X117478386Y-114887715D01*
X117312786Y-115008028D01*
X117168028Y-115152786D01*
X117047715Y-115318386D01*
X116954781Y-115500776D01*
X116891522Y-115695465D01*
X116876895Y-115787820D01*
X116859500Y-115897648D01*
X109300499Y-115897648D01*
X109300499Y-115152128D01*
X109294091Y-115092517D01*
X109278194Y-115049896D01*
X109243797Y-114957671D01*
X109243793Y-114957664D01*
X109157547Y-114842455D01*
X109157544Y-114842452D01*
X109042335Y-114756206D01*
X109042328Y-114756202D01*
X108907482Y-114705908D01*
X108907483Y-114705908D01*
X108847883Y-114699501D01*
X108847881Y-114699500D01*
X108847873Y-114699500D01*
X108847864Y-114699500D01*
X107152129Y-114699500D01*
X107152123Y-114699501D01*
X107092516Y-114705908D01*
X106957671Y-114756202D01*
X106957664Y-114756206D01*
X106842455Y-114842452D01*
X106842452Y-114842455D01*
X106756206Y-114957664D01*
X106756202Y-114957671D01*
X106705908Y-115092517D01*
X106700177Y-115145826D01*
X106699501Y-115152123D01*
X106699500Y-115152135D01*
X106699500Y-116847870D01*
X106699501Y-116847876D01*
X106705908Y-116907483D01*
X106756202Y-117042328D01*
X106756206Y-117042335D01*
X106842452Y-117157544D01*
X106842454Y-117157546D01*
X106866355Y-117175439D01*
X106908225Y-117231373D01*
X106913208Y-117301065D01*
X106879723Y-117362385D01*
X106652219Y-117589890D01*
X106474569Y-117767540D01*
X106474567Y-117767542D01*
X106431004Y-117811104D01*
X106387442Y-117854666D01*
X106377197Y-117870000D01*
X106358723Y-117897648D01*
X106318990Y-117957110D01*
X106318985Y-117957119D01*
X106308590Y-117982217D01*
X106271838Y-118070944D01*
X106271835Y-118070956D01*
X106247800Y-118191789D01*
X106247800Y-118191794D01*
X106247800Y-147584993D01*
X106247800Y-147708207D01*
X106247800Y-147708209D01*
X106247799Y-147708209D01*
X106252934Y-147734019D01*
X106252934Y-147734021D01*
X106270851Y-147824099D01*
X106270853Y-147824107D01*
X106271778Y-147828754D01*
X106271837Y-147829050D01*
X106271839Y-147829057D01*
X106318985Y-147942880D01*
X106318986Y-147942882D01*
X106318988Y-147942886D01*
X106351998Y-147992288D01*
X106387442Y-148045333D01*
X106474567Y-148132458D01*
X106474570Y-148132460D01*
X106481914Y-148139804D01*
X107789226Y-149447116D01*
X107822711Y-149508439D01*
X107817727Y-149578131D01*
X107775855Y-149634064D01*
X107710391Y-149658481D01*
X107645251Y-149645282D01*
X107575805Y-149609898D01*
X107351247Y-149536934D01*
X107351248Y-149536934D01*
X107118052Y-149500000D01*
X106750000Y-149500000D01*
X106750000Y-150291759D01*
X106718767Y-150278822D01*
X106573869Y-150250000D01*
X106426131Y-150250000D01*
X106281233Y-150278822D01*
X106250000Y-150291759D01*
X106250000Y-149500000D01*
X105881948Y-149500000D01*
X105648752Y-149536934D01*
X105424197Y-149609897D01*
X105213828Y-149717085D01*
X105022813Y-149855866D01*
X104855866Y-150022813D01*
X104717085Y-150213828D01*
X104609897Y-150424197D01*
X104536934Y-150648752D01*
X104520898Y-150750000D01*
X100300500Y-150750000D01*
X100300500Y-109750000D01*
X112520898Y-109750000D01*
X113566988Y-109750000D01*
X113534075Y-109807007D01*
X113500000Y-109934174D01*
X113500000Y-110065826D01*
X113534075Y-110192993D01*
X113566988Y-110250000D01*
X112520898Y-110250000D01*
X112536934Y-110351247D01*
X112609897Y-110575802D01*
X112717085Y-110786171D01*
X112855866Y-110977186D01*
X113022813Y-111144133D01*
X113213828Y-111282914D01*
X113424195Y-111390102D01*
X113648744Y-111463063D01*
X113648750Y-111463065D01*
X113750000Y-111479101D01*
X113750000Y-110433012D01*
X113807007Y-110465925D01*
X113934174Y-110500000D01*
X114065826Y-110500000D01*
X114192993Y-110465925D01*
X114250000Y-110433012D01*
X114250000Y-111479100D01*
X114351249Y-111463065D01*
X114351255Y-111463063D01*
X114575804Y-111390102D01*
X114786171Y-111282914D01*
X114977186Y-111144133D01*
X115144133Y-110977186D01*
X115282914Y-110786171D01*
X115390102Y-110575802D01*
X115463065Y-110351247D01*
X115479102Y-110250000D01*
X114433012Y-110250000D01*
X114465925Y-110192993D01*
X114500000Y-110065826D01*
X114500000Y-109934174D01*
X114465925Y-109807007D01*
X114433012Y-109750000D01*
X115479102Y-109750000D01*
X115463065Y-109648752D01*
X115390102Y-109424197D01*
X115282914Y-109213828D01*
X115144133Y-109022813D01*
X114977186Y-108855866D01*
X114786171Y-108717085D01*
X114575802Y-108609897D01*
X114351247Y-108536934D01*
X114250000Y-108520897D01*
X114250000Y-109566988D01*
X114192993Y-109534075D01*
X114065826Y-109500000D01*
X113934174Y-109500000D01*
X113807007Y-109534075D01*
X113750000Y-109566988D01*
X113750000Y-108520897D01*
X113648752Y-108536934D01*
X113424197Y-108609897D01*
X113213828Y-108717085D01*
X113022813Y-108855866D01*
X112855866Y-109022813D01*
X112717085Y-109213828D01*
X112609897Y-109424197D01*
X112536934Y-109648752D01*
X112520898Y-109750000D01*
X100300500Y-109750000D01*
X100300500Y-105550318D01*
X100320185Y-105483279D01*
X100372989Y-105437524D01*
X100442147Y-105427580D01*
X100505703Y-105456605D01*
X100512181Y-105462637D01*
X100646367Y-105596823D01*
X100646372Y-105596827D01*
X100646373Y-105596828D01*
X100912240Y-105815019D01*
X101198213Y-106006100D01*
X101198222Y-106006105D01*
X101198224Y-106006106D01*
X101501530Y-106168227D01*
X101501532Y-106168227D01*
X101501538Y-106168231D01*
X101819295Y-106299850D01*
X102148422Y-106399690D01*
X102485750Y-106466789D01*
X102828031Y-106500500D01*
X102828034Y-106500500D01*
X103171966Y-106500500D01*
X103171969Y-106500500D01*
X103514250Y-106466789D01*
X103851578Y-106399690D01*
X104180705Y-106299850D01*
X104498462Y-106168231D01*
X104801787Y-106006100D01*
X105087760Y-105815019D01*
X105353627Y-105596828D01*
X105596828Y-105353627D01*
X105815019Y-105087760D01*
X106006100Y-104801787D01*
X106168231Y-104498462D01*
X106299850Y-104180705D01*
X106369186Y-103952135D01*
X109499500Y-103952135D01*
X109499500Y-106047870D01*
X109499501Y-106047876D01*
X109505908Y-106107483D01*
X109556202Y-106242328D01*
X109556206Y-106242335D01*
X109642452Y-106357544D01*
X109642455Y-106357547D01*
X109757664Y-106443793D01*
X109757671Y-106443797D01*
X109892517Y-106494091D01*
X109892516Y-106494091D01*
X109899444Y-106494835D01*
X109952127Y-106500500D01*
X112047872Y-106500499D01*
X112107483Y-106494091D01*
X112242331Y-106443796D01*
X112357546Y-106357546D01*
X112443796Y-106242331D01*
X112494091Y-106107483D01*
X112500500Y-106047873D01*
X112500499Y-104881902D01*
X115499500Y-104881902D01*
X115499500Y-105118097D01*
X115536446Y-105351368D01*
X115609433Y-105575996D01*
X115673531Y-105701794D01*
X115716657Y-105786433D01*
X115855483Y-105977510D01*
X116022490Y-106144517D01*
X116213567Y-106283343D01*
X116245964Y-106299850D01*
X116424003Y-106390566D01*
X116424005Y-106390566D01*
X116424008Y-106390568D01*
X116544412Y-106429689D01*
X116648631Y-106463553D01*
X116881903Y-106500500D01*
X116881908Y-106500500D01*
X117118097Y-106500500D01*
X117351368Y-106463553D01*
X117575992Y-106390568D01*
X117786433Y-106283343D01*
X117977510Y-106144517D01*
X118144517Y-105977510D01*
X118283343Y-105786433D01*
X118390568Y-105575992D01*
X118463553Y-105351368D01*
X118469946Y-105311004D01*
X118500500Y-105118097D01*
X118500500Y-104881902D01*
X118463553Y-104648631D01*
X118415007Y-104499223D01*
X118390568Y-104424008D01*
X118390566Y-104424005D01*
X118390566Y-104424003D01*
X118329631Y-104304413D01*
X118283343Y-104213567D01*
X118144517Y-104022490D01*
X117977510Y-103855483D01*
X117786433Y-103716657D01*
X117745079Y-103695586D01*
X117575996Y-103609433D01*
X117351368Y-103536446D01*
X117118097Y-103499500D01*
X117118092Y-103499500D01*
X116881908Y-103499500D01*
X116881903Y-103499500D01*
X116648631Y-103536446D01*
X116424003Y-103609433D01*
X116213566Y-103716657D01*
X116157119Y-103757669D01*
X116022490Y-103855483D01*
X116022488Y-103855485D01*
X116022487Y-103855485D01*
X115855485Y-104022487D01*
X115855485Y-104022488D01*
X115855483Y-104022490D01*
X115797460Y-104102351D01*
X115716657Y-104213566D01*
X115609433Y-104424003D01*
X115536446Y-104648631D01*
X115499500Y-104881902D01*
X112500499Y-104881902D01*
X112500499Y-103952128D01*
X112494091Y-103892517D01*
X112480278Y-103855483D01*
X112443797Y-103757671D01*
X112443793Y-103757664D01*
X112357547Y-103642455D01*
X112357544Y-103642452D01*
X112242335Y-103556206D01*
X112242328Y-103556202D01*
X112107482Y-103505908D01*
X112107483Y-103505908D01*
X112047883Y-103499501D01*
X112047881Y-103499500D01*
X112047873Y-103499500D01*
X112047864Y-103499500D01*
X109952129Y-103499500D01*
X109952123Y-103499501D01*
X109892516Y-103505908D01*
X109757671Y-103556202D01*
X109757664Y-103556206D01*
X109642455Y-103642452D01*
X109642452Y-103642455D01*
X109556206Y-103757664D01*
X109556202Y-103757671D01*
X109505908Y-103892517D01*
X109500015Y-103947339D01*
X109499501Y-103952123D01*
X109499500Y-103952135D01*
X106369186Y-103952135D01*
X106399690Y-103851578D01*
X106466789Y-103514250D01*
X106500500Y-103171969D01*
X106500500Y-103152135D01*
X123699500Y-103152135D01*
X123699500Y-104847870D01*
X123699501Y-104847876D01*
X123705908Y-104907483D01*
X123756202Y-105042328D01*
X123756206Y-105042335D01*
X123842452Y-105157544D01*
X123842455Y-105157547D01*
X123957664Y-105243793D01*
X123957671Y-105243797D01*
X124092517Y-105294091D01*
X124092516Y-105294091D01*
X124099444Y-105294835D01*
X124152127Y-105300500D01*
X125847872Y-105300499D01*
X125907483Y-105294091D01*
X126042331Y-105243796D01*
X126157546Y-105157546D01*
X126164230Y-105148616D01*
X126220159Y-105106746D01*
X126289851Y-105101759D01*
X126319792Y-105112441D01*
X126500968Y-105204755D01*
X126695578Y-105267988D01*
X126750000Y-105276607D01*
X126750000Y-104315686D01*
X126754394Y-104320080D01*
X126845606Y-104372741D01*
X126947339Y-104400000D01*
X127052661Y-104400000D01*
X127154394Y-104372741D01*
X127245606Y-104320080D01*
X127250000Y-104315686D01*
X127250000Y-105276606D01*
X127304421Y-105267988D01*
X127499031Y-105204754D01*
X127681349Y-105111859D01*
X127846894Y-104991582D01*
X127846895Y-104991582D01*
X127991582Y-104846895D01*
X127991582Y-104846894D01*
X128111859Y-104681349D01*
X128204755Y-104499029D01*
X128267990Y-104304413D01*
X128276609Y-104250000D01*
X127315686Y-104250000D01*
X127320080Y-104245606D01*
X127372741Y-104154394D01*
X127400000Y-104052661D01*
X127400000Y-103947339D01*
X127372741Y-103845606D01*
X127320080Y-103754394D01*
X127315686Y-103750000D01*
X128276609Y-103750000D01*
X128267990Y-103695586D01*
X128204755Y-103500970D01*
X128111857Y-103318647D01*
X128041417Y-103221694D01*
X128041415Y-103221692D01*
X127991583Y-103153105D01*
X127990613Y-103152135D01*
X130699500Y-103152135D01*
X130699500Y-104847870D01*
X130699501Y-104847876D01*
X130705908Y-104907483D01*
X130756202Y-105042328D01*
X130756206Y-105042335D01*
X130842452Y-105157544D01*
X130842455Y-105157547D01*
X130957664Y-105243793D01*
X130957671Y-105243797D01*
X131092517Y-105294091D01*
X131092516Y-105294091D01*
X131099444Y-105294835D01*
X131152127Y-105300500D01*
X132847872Y-105300499D01*
X132907483Y-105294091D01*
X133042331Y-105243796D01*
X133157546Y-105157546D01*
X133243796Y-105042331D01*
X133294091Y-104907483D01*
X133298140Y-104869815D01*
X133324876Y-104805268D01*
X133382268Y-104765419D01*
X133452093Y-104762924D01*
X133512183Y-104798576D01*
X133521747Y-104810187D01*
X133548417Y-104846894D01*
X133548417Y-104846895D01*
X133693104Y-104991582D01*
X133858650Y-105111859D01*
X134040968Y-105204754D01*
X134235578Y-105267988D01*
X134290000Y-105276607D01*
X134290000Y-104315686D01*
X134294394Y-104320080D01*
X134385606Y-104372741D01*
X134487339Y-104400000D01*
X134592661Y-104400000D01*
X134694394Y-104372741D01*
X134785606Y-104320080D01*
X134790000Y-104315686D01*
X134790000Y-105276606D01*
X134844421Y-105267988D01*
X135039031Y-105204754D01*
X135221349Y-105111859D01*
X135386891Y-104991585D01*
X135505657Y-104872819D01*
X135566980Y-104839334D01*
X135636672Y-104844318D01*
X135692606Y-104886189D01*
X135709521Y-104917167D01*
X135756202Y-105042328D01*
X135756206Y-105042335D01*
X135842452Y-105157544D01*
X135842454Y-105157546D01*
X135866355Y-105175439D01*
X135908225Y-105231373D01*
X135913208Y-105301065D01*
X135881128Y-105359817D01*
X135881304Y-105359962D01*
X135880544Y-105360887D01*
X135879730Y-105362379D01*
X135877442Y-105364666D01*
X135877438Y-105364672D01*
X135808990Y-105467108D01*
X135808988Y-105467113D01*
X135784832Y-105525431D01*
X135784832Y-105525433D01*
X135761837Y-105580948D01*
X135761836Y-105580952D01*
X135761836Y-105580953D01*
X135761835Y-105580956D01*
X135737800Y-105701789D01*
X135737800Y-109525500D01*
X135718115Y-109592539D01*
X135665311Y-109638294D01*
X135613800Y-109649500D01*
X134102129Y-109649500D01*
X134102123Y-109649501D01*
X134042516Y-109655908D01*
X133907671Y-109706202D01*
X133907664Y-109706206D01*
X133792455Y-109792452D01*
X133792452Y-109792455D01*
X133706206Y-109907664D01*
X133706202Y-109907671D01*
X133655908Y-110042517D01*
X133649501Y-110102116D01*
X133649500Y-110102135D01*
X133649500Y-111897870D01*
X133649501Y-111897876D01*
X133655908Y-111957483D01*
X133706202Y-112092328D01*
X133706206Y-112092335D01*
X133792452Y-112207544D01*
X133792455Y-112207547D01*
X133907664Y-112293793D01*
X133907671Y-112293797D01*
X134039082Y-112342810D01*
X134095016Y-112384681D01*
X134119433Y-112450145D01*
X134104582Y-112518418D01*
X134083431Y-112546673D01*
X133969889Y-112660215D01*
X133844951Y-112832179D01*
X133748444Y-113021585D01*
X133682753Y-113223760D01*
X133649500Y-113433713D01*
X133649500Y-113646286D01*
X133681324Y-113847219D01*
X133682754Y-113856243D01*
X133745799Y-114050276D01*
X133748444Y-114058414D01*
X133844951Y-114247820D01*
X133969890Y-114419786D01*
X134120213Y-114570109D01*
X134292182Y-114695050D01*
X134300946Y-114699516D01*
X134351742Y-114747491D01*
X134368536Y-114815312D01*
X134345998Y-114881447D01*
X134300946Y-114920484D01*
X134292182Y-114924949D01*
X134120213Y-115049890D01*
X133969890Y-115200213D01*
X133844951Y-115372179D01*
X133748444Y-115561585D01*
X133682753Y-115763760D01*
X133649500Y-115973713D01*
X133649500Y-116186286D01*
X133672508Y-116331557D01*
X133682754Y-116396243D01*
X133745799Y-116590276D01*
X133748444Y-116598414D01*
X133844951Y-116787820D01*
X133969890Y-116959786D01*
X134120213Y-117110109D01*
X134292179Y-117235048D01*
X134292181Y-117235049D01*
X134292184Y-117235051D01*
X134301493Y-117239794D01*
X134352290Y-117287766D01*
X134369087Y-117355587D01*
X134346552Y-117421722D01*
X134301502Y-117460762D01*
X134292443Y-117465378D01*
X134120540Y-117590272D01*
X134120535Y-117590276D01*
X133970276Y-117740535D01*
X133970272Y-117740540D01*
X133845379Y-117912442D01*
X133748904Y-118101782D01*
X133683242Y-118303870D01*
X133683242Y-118303873D01*
X133672769Y-118370000D01*
X134566988Y-118370000D01*
X134534075Y-118427007D01*
X134500000Y-118554174D01*
X134500000Y-118685826D01*
X134534075Y-118812993D01*
X134566988Y-118870000D01*
X133672769Y-118870000D01*
X133683242Y-118936126D01*
X133683242Y-118936129D01*
X133748904Y-119138217D01*
X133845379Y-119327557D01*
X133970272Y-119499459D01*
X133970276Y-119499464D01*
X134120535Y-119649723D01*
X134120540Y-119649727D01*
X134292444Y-119774622D01*
X134301495Y-119779234D01*
X134352292Y-119827208D01*
X134369087Y-119895029D01*
X134346550Y-119961164D01*
X134301499Y-120000202D01*
X134292182Y-120004949D01*
X134120213Y-120129890D01*
X133969890Y-120280213D01*
X133844951Y-120452179D01*
X133748444Y-120641585D01*
X133682753Y-120843760D01*
X133649500Y-121053713D01*
X133649500Y-121266286D01*
X133674318Y-121422984D01*
X133682754Y-121476243D01*
X133745799Y-121670276D01*
X133748444Y-121678414D01*
X133844951Y-121867820D01*
X133969890Y-122039786D01*
X134120213Y-122190109D01*
X134292182Y-122315050D01*
X134300946Y-122319516D01*
X134351742Y-122367491D01*
X134368536Y-122435312D01*
X134345998Y-122501447D01*
X134300946Y-122540484D01*
X134292182Y-122544949D01*
X134120213Y-122669890D01*
X133969890Y-122820213D01*
X133844951Y-122992179D01*
X133748444Y-123181585D01*
X133682753Y-123383760D01*
X133649500Y-123593713D01*
X133649500Y-123806286D01*
X133672508Y-123951557D01*
X133682754Y-124016243D01*
X133745799Y-124210276D01*
X133748444Y-124218414D01*
X133844951Y-124407820D01*
X133969890Y-124579786D01*
X134120213Y-124730109D01*
X134292182Y-124855050D01*
X134300946Y-124859516D01*
X134351742Y-124907491D01*
X134368536Y-124975312D01*
X134345998Y-125041447D01*
X134300946Y-125080484D01*
X134292182Y-125084949D01*
X134120213Y-125209890D01*
X133969890Y-125360213D01*
X133844951Y-125532179D01*
X133748444Y-125721585D01*
X133682753Y-125923760D01*
X133649500Y-126133713D01*
X133649500Y-126346286D01*
X133675922Y-126513111D01*
X133682754Y-126556243D01*
X133747566Y-126755714D01*
X133748444Y-126758414D01*
X133844951Y-126947820D01*
X133969890Y-127119786D01*
X134120213Y-127270109D01*
X134292182Y-127395050D01*
X134300946Y-127399516D01*
X134351742Y-127447491D01*
X134368536Y-127515312D01*
X134345998Y-127581447D01*
X134300946Y-127620484D01*
X134292182Y-127624949D01*
X134120213Y-127749890D01*
X133969890Y-127900213D01*
X133844951Y-128072179D01*
X133748444Y-128261585D01*
X133682753Y-128463760D01*
X133649500Y-128673713D01*
X133649500Y-128886286D01*
X133674214Y-129042328D01*
X133682754Y-129096243D01*
X133746165Y-129291402D01*
X133748444Y-129298414D01*
X133844951Y-129487820D01*
X133969890Y-129659786D01*
X134120213Y-129810109D01*
X134292182Y-129935050D01*
X134300946Y-129939516D01*
X134351742Y-129987491D01*
X134368536Y-130055312D01*
X134345998Y-130121447D01*
X134300946Y-130160484D01*
X134292182Y-130164949D01*
X134120213Y-130289890D01*
X133969890Y-130440213D01*
X133844951Y-130612179D01*
X133748444Y-130801585D01*
X133682753Y-131003760D01*
X133649500Y-131213713D01*
X133649500Y-131426286D01*
X133678779Y-131611151D01*
X133682754Y-131636243D01*
X133747424Y-131835277D01*
X133748444Y-131838414D01*
X133844951Y-132027820D01*
X133969890Y-132199786D01*
X134120213Y-132350109D01*
X134292182Y-132475050D01*
X134300946Y-132479516D01*
X134351742Y-132527491D01*
X134368536Y-132595312D01*
X134345998Y-132661447D01*
X134300946Y-132700484D01*
X134292182Y-132704949D01*
X134120213Y-132829890D01*
X133969890Y-132980213D01*
X133844951Y-133152179D01*
X133748444Y-133341585D01*
X133682753Y-133543760D01*
X133649500Y-133753713D01*
X133649500Y-133966286D01*
X133666896Y-134076124D01*
X133682754Y-134176243D01*
X133701996Y-134235465D01*
X133748444Y-134378414D01*
X133844951Y-134567820D01*
X133969890Y-134739786D01*
X134120213Y-134890109D01*
X134292182Y-135015050D01*
X134300946Y-135019516D01*
X134351742Y-135067491D01*
X134368536Y-135135312D01*
X134345998Y-135201447D01*
X134300946Y-135240484D01*
X134292182Y-135244949D01*
X134120213Y-135369890D01*
X133969890Y-135520213D01*
X133844951Y-135692179D01*
X133748444Y-135881585D01*
X133682753Y-136083760D01*
X133649500Y-136293713D01*
X133649500Y-136506286D01*
X133677268Y-136681610D01*
X133682754Y-136716243D01*
X133745799Y-136910276D01*
X133748444Y-136918414D01*
X133844951Y-137107820D01*
X133969890Y-137279786D01*
X134120213Y-137430109D01*
X134292182Y-137555050D01*
X134300946Y-137559516D01*
X134351742Y-137607491D01*
X134368536Y-137675312D01*
X134345998Y-137741447D01*
X134300946Y-137780484D01*
X134292182Y-137784949D01*
X134120213Y-137909890D01*
X133969890Y-138060213D01*
X133844951Y-138232179D01*
X133748444Y-138421585D01*
X133682753Y-138623760D01*
X133649500Y-138833713D01*
X133649500Y-139046286D01*
X133677013Y-139220000D01*
X133682754Y-139256243D01*
X133745799Y-139450276D01*
X133748444Y-139458414D01*
X133844951Y-139647820D01*
X133969890Y-139819786D01*
X134120213Y-139970109D01*
X134292182Y-140095050D01*
X134300946Y-140099516D01*
X134351742Y-140147491D01*
X134368536Y-140215312D01*
X134345998Y-140281447D01*
X134300946Y-140320484D01*
X134292182Y-140324949D01*
X134120213Y-140449890D01*
X133969890Y-140600213D01*
X133844951Y-140772179D01*
X133748444Y-140961585D01*
X133682753Y-141163760D01*
X133652074Y-141357460D01*
X133649500Y-141373713D01*
X133649500Y-141586287D01*
X133682754Y-141796243D01*
X133745799Y-141990276D01*
X133748444Y-141998414D01*
X133844951Y-142187820D01*
X133969890Y-142359786D01*
X134120213Y-142510109D01*
X134292182Y-142635050D01*
X134300946Y-142639516D01*
X134351742Y-142687491D01*
X134368536Y-142755312D01*
X134345998Y-142821447D01*
X134300946Y-142860484D01*
X134292182Y-142864949D01*
X134120213Y-142989890D01*
X133969890Y-143140213D01*
X133844951Y-143312179D01*
X133748444Y-143501585D01*
X133682753Y-143703760D01*
X133649500Y-143913713D01*
X133649500Y-144126286D01*
X133680449Y-144321694D01*
X133682754Y-144336243D01*
X133745799Y-144530276D01*
X133748444Y-144538414D01*
X133844951Y-144727820D01*
X133939047Y-144857333D01*
X133962527Y-144923140D01*
X133946701Y-144991193D01*
X133926410Y-145017899D01*
X133260844Y-145683464D01*
X133260838Y-145683472D01*
X133192390Y-145785908D01*
X133192389Y-145785910D01*
X133165082Y-145851834D01*
X133165083Y-145851835D01*
X133157630Y-145869827D01*
X133157628Y-145869833D01*
X133154347Y-145877756D01*
X133145237Y-145899749D01*
X133130961Y-145971523D01*
X133130262Y-145975032D01*
X133130255Y-145975063D01*
X133121200Y-146020589D01*
X133121200Y-148624751D01*
X133101515Y-148691790D01*
X133048711Y-148737545D01*
X132979553Y-148747489D01*
X132958884Y-148742683D01*
X132924535Y-148731523D01*
X132762816Y-148705909D01*
X132722352Y-148699500D01*
X132517648Y-148699500D01*
X132493329Y-148703351D01*
X132315465Y-148731522D01*
X132120776Y-148794781D01*
X131938386Y-148887715D01*
X131772786Y-149008028D01*
X131628028Y-149152786D01*
X131507715Y-149318386D01*
X131414781Y-149500776D01*
X131351522Y-149695465D01*
X131321923Y-149882351D01*
X131319500Y-149897648D01*
X131319500Y-150102352D01*
X131323878Y-150129995D01*
X131351522Y-150304534D01*
X131414781Y-150499223D01*
X131472835Y-150613158D01*
X131502841Y-150672049D01*
X131507715Y-150681613D01*
X131628028Y-150847213D01*
X131772786Y-150991971D01*
X131927749Y-151104556D01*
X131938390Y-151112287D01*
X132021030Y-151154394D01*
X132031080Y-151159515D01*
X132081876Y-151207490D01*
X132098671Y-151275311D01*
X132076134Y-151341446D01*
X132031080Y-151380485D01*
X131938386Y-151427715D01*
X131772786Y-151548028D01*
X131628028Y-151692786D01*
X131507715Y-151858386D01*
X131414781Y-152040776D01*
X131351522Y-152235465D01*
X131319500Y-152437648D01*
X131319500Y-152642351D01*
X131351522Y-152844534D01*
X131414781Y-153039223D01*
X131507715Y-153221613D01*
X131628028Y-153387213D01*
X131772786Y-153531971D01*
X131896901Y-153622144D01*
X131938390Y-153652287D01*
X132029840Y-153698883D01*
X132031080Y-153699515D01*
X132081876Y-153747490D01*
X132098671Y-153815311D01*
X132076134Y-153881446D01*
X132031080Y-153920485D01*
X131938386Y-153967715D01*
X131772786Y-154088028D01*
X131628028Y-154232786D01*
X131507715Y-154398386D01*
X131414781Y-154580776D01*
X131351522Y-154775465D01*
X131319500Y-154977648D01*
X131319500Y-155182351D01*
X131351522Y-155384534D01*
X131414781Y-155579223D01*
X131466090Y-155679920D01*
X131504957Y-155756202D01*
X131507715Y-155761613D01*
X131628028Y-155927213D01*
X131772786Y-156071971D01*
X131938385Y-156192284D01*
X131938387Y-156192285D01*
X131938390Y-156192287D01*
X131948939Y-156197662D01*
X131968617Y-156216246D01*
X131990570Y-156232077D01*
X131993639Y-156239878D01*
X131999735Y-156245635D01*
X132006242Y-156271910D01*
X132016151Y-156297095D01*
X132015497Y-156309282D01*
X132016531Y-156313455D01*
X132014262Y-156332338D01*
X131995649Y-156425911D01*
X131963264Y-156487822D01*
X131942231Y-156504711D01*
X131942331Y-156504849D01*
X131939481Y-156506919D01*
X131938833Y-156507440D01*
X131938396Y-156507707D01*
X131772786Y-156628028D01*
X131628028Y-156772786D01*
X131507715Y-156938386D01*
X131414781Y-157120776D01*
X131351522Y-157315465D01*
X131319500Y-157517648D01*
X131319500Y-157722351D01*
X131351522Y-157924534D01*
X131414781Y-158119223D01*
X131446109Y-158180706D01*
X131507147Y-158300500D01*
X131507715Y-158301613D01*
X131628028Y-158467213D01*
X131772786Y-158611971D01*
X131927749Y-158724556D01*
X131938390Y-158732287D01*
X132054607Y-158791503D01*
X132120776Y-158825218D01*
X132120778Y-158825218D01*
X132120781Y-158825220D01*
X132225137Y-158859127D01*
X132315465Y-158888477D01*
X132416557Y-158904488D01*
X132517648Y-158920500D01*
X132517649Y-158920500D01*
X132722351Y-158920500D01*
X132722352Y-158920500D01*
X132924534Y-158888477D01*
X133119219Y-158825220D01*
X133301610Y-158732287D01*
X133394590Y-158664732D01*
X133467213Y-158611971D01*
X133467215Y-158611968D01*
X133467219Y-158611966D01*
X133611966Y-158467219D01*
X133611968Y-158467215D01*
X133611971Y-158467213D01*
X133664732Y-158394590D01*
X133732287Y-158301610D01*
X133825220Y-158119219D01*
X133888477Y-157924534D01*
X133920500Y-157722352D01*
X133920500Y-157517648D01*
X133901866Y-157400000D01*
X133888477Y-157315465D01*
X133837166Y-157157547D01*
X133825220Y-157120781D01*
X133825218Y-157120778D01*
X133825218Y-157120776D01*
X133785246Y-157042328D01*
X133732287Y-156938390D01*
X133630006Y-156797611D01*
X133606526Y-156731805D01*
X133622352Y-156663751D01*
X133642639Y-156637049D01*
X134127554Y-156152135D01*
X134699500Y-156152135D01*
X134699500Y-157847870D01*
X134699501Y-157847876D01*
X134705908Y-157907483D01*
X134756202Y-158042328D01*
X134756206Y-158042335D01*
X134842452Y-158157544D01*
X134842455Y-158157547D01*
X134957664Y-158243793D01*
X134957671Y-158243797D01*
X135092517Y-158294091D01*
X135092516Y-158294091D01*
X135099444Y-158294835D01*
X135152127Y-158300500D01*
X136847872Y-158300499D01*
X136907483Y-158294091D01*
X137042331Y-158243796D01*
X137157546Y-158157546D01*
X137243796Y-158042331D01*
X137294091Y-157907483D01*
X137300500Y-157847873D01*
X137300499Y-156750000D01*
X139723391Y-156750000D01*
X140684314Y-156750000D01*
X140679920Y-156754394D01*
X140627259Y-156845606D01*
X140600000Y-156947339D01*
X140600000Y-157052661D01*
X140627259Y-157154394D01*
X140679920Y-157245606D01*
X140684314Y-157250000D01*
X139723391Y-157250000D01*
X139732009Y-157304413D01*
X139795244Y-157499029D01*
X139888140Y-157681349D01*
X140008417Y-157846894D01*
X140008417Y-157846895D01*
X140153104Y-157991582D01*
X140318650Y-158111859D01*
X140500968Y-158204754D01*
X140695578Y-158267988D01*
X140750000Y-158276607D01*
X140750000Y-157315686D01*
X140754394Y-157320080D01*
X140845606Y-157372741D01*
X140947339Y-157400000D01*
X141052661Y-157400000D01*
X141154394Y-157372741D01*
X141245606Y-157320080D01*
X141250000Y-157315686D01*
X141250000Y-158276606D01*
X141304421Y-158267988D01*
X141499031Y-158204754D01*
X141681349Y-158111859D01*
X141846894Y-157991582D01*
X141846895Y-157991582D01*
X141991582Y-157846895D01*
X141991582Y-157846894D01*
X142111859Y-157681349D01*
X142204755Y-157499029D01*
X142267990Y-157304413D01*
X142276609Y-157250000D01*
X141315686Y-157250000D01*
X141320080Y-157245606D01*
X141372741Y-157154394D01*
X141400000Y-157052661D01*
X141400000Y-156947339D01*
X141372741Y-156845606D01*
X141320080Y-156754394D01*
X141315686Y-156750000D01*
X142276609Y-156750000D01*
X142267990Y-156695586D01*
X142204755Y-156500970D01*
X142111859Y-156318650D01*
X141991582Y-156153105D01*
X141991582Y-156153104D01*
X141846895Y-156008417D01*
X141681349Y-155888140D01*
X141499029Y-155795244D01*
X141304413Y-155732009D01*
X141250000Y-155723390D01*
X141250000Y-156684314D01*
X141245606Y-156679920D01*
X141154394Y-156627259D01*
X141052661Y-156600000D01*
X140947339Y-156600000D01*
X140845606Y-156627259D01*
X140754394Y-156679920D01*
X140750000Y-156684314D01*
X140750000Y-155723390D01*
X140695586Y-155732009D01*
X140500970Y-155795244D01*
X140318650Y-155888140D01*
X140153105Y-156008417D01*
X140153104Y-156008417D01*
X140008417Y-156153104D01*
X140008417Y-156153105D01*
X139888140Y-156318650D01*
X139795244Y-156500970D01*
X139732009Y-156695586D01*
X139723391Y-156750000D01*
X137300499Y-156750000D01*
X137300499Y-156152128D01*
X137294091Y-156092517D01*
X137286179Y-156071305D01*
X137243797Y-155957671D01*
X137243793Y-155957664D01*
X137157547Y-155842455D01*
X137157544Y-155842452D01*
X137042335Y-155756206D01*
X137042328Y-155756202D01*
X136907482Y-155705908D01*
X136907483Y-155705908D01*
X136847883Y-155699501D01*
X136847881Y-155699500D01*
X136847873Y-155699500D01*
X136847864Y-155699500D01*
X135152129Y-155699500D01*
X135152123Y-155699501D01*
X135092516Y-155705908D01*
X134957671Y-155756202D01*
X134957664Y-155756206D01*
X134842455Y-155842452D01*
X134842452Y-155842455D01*
X134756206Y-155957664D01*
X134756202Y-155957671D01*
X134705908Y-156092517D01*
X134699898Y-156148422D01*
X134699501Y-156152123D01*
X134699500Y-156152135D01*
X134127554Y-156152135D01*
X134145429Y-156134260D01*
X134145433Y-156134258D01*
X134232558Y-156047133D01*
X134277081Y-155980500D01*
X134301012Y-155944686D01*
X134324434Y-155888140D01*
X134348159Y-155830861D01*
X134348159Y-155830859D01*
X134348163Y-155830851D01*
X134372200Y-155710007D01*
X134372200Y-155586793D01*
X134372200Y-155152135D01*
X146699500Y-155152135D01*
X146699500Y-156847870D01*
X146699501Y-156847876D01*
X146705908Y-156907483D01*
X146756202Y-157042328D01*
X146756206Y-157042335D01*
X146842452Y-157157544D01*
X146842455Y-157157547D01*
X146957664Y-157243793D01*
X146957671Y-157243797D01*
X147092517Y-157294091D01*
X147092516Y-157294091D01*
X147099444Y-157294835D01*
X147152127Y-157300500D01*
X148847872Y-157300499D01*
X148907483Y-157294091D01*
X149042331Y-157243796D01*
X149157546Y-157157546D01*
X149243796Y-157042331D01*
X149294091Y-156907483D01*
X149300500Y-156847873D01*
X149300499Y-155750000D01*
X151723391Y-155750000D01*
X152684314Y-155750000D01*
X152679920Y-155754394D01*
X152627259Y-155845606D01*
X152600000Y-155947339D01*
X152600000Y-156052661D01*
X152627259Y-156154394D01*
X152679920Y-156245606D01*
X152684314Y-156250000D01*
X151723391Y-156250000D01*
X151732009Y-156304413D01*
X151795244Y-156499029D01*
X151888140Y-156681349D01*
X152008417Y-156846894D01*
X152008417Y-156846895D01*
X152153104Y-156991582D01*
X152318650Y-157111859D01*
X152500968Y-157204754D01*
X152695578Y-157267988D01*
X152750000Y-157276607D01*
X152750000Y-156315686D01*
X152754394Y-156320080D01*
X152845606Y-156372741D01*
X152947339Y-156400000D01*
X153052661Y-156400000D01*
X153154394Y-156372741D01*
X153245606Y-156320080D01*
X153250000Y-156315686D01*
X153250000Y-157276606D01*
X153304421Y-157267988D01*
X153499031Y-157204754D01*
X153681349Y-157111859D01*
X153846894Y-156991582D01*
X153846895Y-156991582D01*
X153991582Y-156846895D01*
X153991582Y-156846894D01*
X154111859Y-156681349D01*
X154204755Y-156499029D01*
X154267990Y-156304413D01*
X154276609Y-156250000D01*
X153315686Y-156250000D01*
X153320080Y-156245606D01*
X153372741Y-156154394D01*
X153400000Y-156052661D01*
X153400000Y-155947339D01*
X153372741Y-155845606D01*
X153320080Y-155754394D01*
X153315686Y-155750000D01*
X154276609Y-155750000D01*
X154267990Y-155695586D01*
X154204755Y-155500970D01*
X154111859Y-155318650D01*
X153991582Y-155153105D01*
X153991582Y-155153104D01*
X153846895Y-155008417D01*
X153681349Y-154888140D01*
X153499029Y-154795244D01*
X153304413Y-154732009D01*
X153250000Y-154723390D01*
X153250000Y-155684314D01*
X153245606Y-155679920D01*
X153154394Y-155627259D01*
X153052661Y-155600000D01*
X152947339Y-155600000D01*
X152845606Y-155627259D01*
X152754394Y-155679920D01*
X152750000Y-155684314D01*
X152750000Y-154723390D01*
X152695586Y-154732009D01*
X152500970Y-154795244D01*
X152318650Y-154888140D01*
X152153105Y-155008417D01*
X152153104Y-155008417D01*
X152008417Y-155153104D01*
X152008417Y-155153105D01*
X151888140Y-155318650D01*
X151795244Y-155500970D01*
X151732009Y-155695586D01*
X151723391Y-155750000D01*
X149300499Y-155750000D01*
X149300499Y-155152128D01*
X149294091Y-155092517D01*
X149243796Y-154957669D01*
X149243795Y-154957668D01*
X149243793Y-154957664D01*
X149157547Y-154842455D01*
X149157544Y-154842452D01*
X149042335Y-154756206D01*
X149042328Y-154756202D01*
X148907482Y-154705908D01*
X148907483Y-154705908D01*
X148847883Y-154699501D01*
X148847881Y-154699500D01*
X148847873Y-154699500D01*
X148847864Y-154699500D01*
X147152129Y-154699500D01*
X147152123Y-154699501D01*
X147092516Y-154705908D01*
X146957671Y-154756202D01*
X146957664Y-154756206D01*
X146842455Y-154842452D01*
X146842452Y-154842455D01*
X146756206Y-154957664D01*
X146756202Y-154957671D01*
X146705908Y-155092517D01*
X146699501Y-155152116D01*
X146699501Y-155152123D01*
X146699500Y-155152135D01*
X134372200Y-155152135D01*
X134372200Y-150152135D01*
X134699500Y-150152135D01*
X134699500Y-151847870D01*
X134699501Y-151847876D01*
X134705908Y-151907483D01*
X134756202Y-152042328D01*
X134756206Y-152042335D01*
X134842452Y-152157544D01*
X134842455Y-152157547D01*
X134957664Y-152243793D01*
X134957671Y-152243797D01*
X135092517Y-152294091D01*
X135092516Y-152294091D01*
X135099444Y-152294835D01*
X135152127Y-152300500D01*
X136847872Y-152300499D01*
X136907483Y-152294091D01*
X137042331Y-152243796D01*
X137157546Y-152157546D01*
X137243796Y-152042331D01*
X137294091Y-151907483D01*
X137300500Y-151847873D01*
X137300499Y-150750000D01*
X139723391Y-150750000D01*
X140684314Y-150750000D01*
X140679920Y-150754394D01*
X140627259Y-150845606D01*
X140600000Y-150947339D01*
X140600000Y-151052661D01*
X140627259Y-151154394D01*
X140679920Y-151245606D01*
X140684314Y-151250000D01*
X139723391Y-151250000D01*
X139732009Y-151304413D01*
X139795244Y-151499029D01*
X139888140Y-151681349D01*
X140008417Y-151846894D01*
X140008417Y-151846895D01*
X140153104Y-151991582D01*
X140318650Y-152111859D01*
X140500968Y-152204754D01*
X140695578Y-152267988D01*
X140750000Y-152276607D01*
X140750000Y-151315686D01*
X140754394Y-151320080D01*
X140845606Y-151372741D01*
X140947339Y-151400000D01*
X141052661Y-151400000D01*
X141154394Y-151372741D01*
X141245606Y-151320080D01*
X141250000Y-151315686D01*
X141250000Y-152276606D01*
X141304421Y-152267988D01*
X141499031Y-152204754D01*
X141681349Y-152111859D01*
X141846894Y-151991582D01*
X141846895Y-151991582D01*
X141991582Y-151846895D01*
X141991582Y-151846894D01*
X142111859Y-151681349D01*
X142204755Y-151499029D01*
X142267990Y-151304413D01*
X142276609Y-151250000D01*
X141315686Y-151250000D01*
X141320080Y-151245606D01*
X141372741Y-151154394D01*
X141400000Y-151052661D01*
X141400000Y-150947339D01*
X141372741Y-150845606D01*
X141320080Y-150754394D01*
X141315686Y-150750000D01*
X142276609Y-150750000D01*
X142267990Y-150695586D01*
X142204755Y-150500970D01*
X142111859Y-150318650D01*
X141991582Y-150153105D01*
X141991582Y-150153104D01*
X141846895Y-150008417D01*
X141681349Y-149888140D01*
X141499029Y-149795244D01*
X141304413Y-149732009D01*
X141250000Y-149723390D01*
X141250000Y-150684314D01*
X141245606Y-150679920D01*
X141154394Y-150627259D01*
X141052661Y-150600000D01*
X140947339Y-150600000D01*
X140845606Y-150627259D01*
X140754394Y-150679920D01*
X140750000Y-150684314D01*
X140750000Y-149723390D01*
X140695586Y-149732009D01*
X140500970Y-149795244D01*
X140318650Y-149888140D01*
X140153105Y-150008417D01*
X140153104Y-150008417D01*
X140008417Y-150153104D01*
X140008417Y-150153105D01*
X139888140Y-150318650D01*
X139795244Y-150500970D01*
X139732009Y-150695586D01*
X139723391Y-150750000D01*
X137300499Y-150750000D01*
X137300499Y-150152128D01*
X137294091Y-150092517D01*
X137292272Y-150087641D01*
X137243797Y-149957671D01*
X137243793Y-149957664D01*
X137157547Y-149842455D01*
X137157544Y-149842452D01*
X137042335Y-149756206D01*
X137042328Y-149756202D01*
X136907482Y-149705908D01*
X136907483Y-149705908D01*
X136847883Y-149699501D01*
X136847881Y-149699500D01*
X136847873Y-149699500D01*
X136847864Y-149699500D01*
X135152129Y-149699500D01*
X135152123Y-149699501D01*
X135092516Y-149705908D01*
X134957671Y-149756202D01*
X134957664Y-149756206D01*
X134842455Y-149842452D01*
X134842452Y-149842455D01*
X134756206Y-149957664D01*
X134756202Y-149957671D01*
X134705908Y-150092517D01*
X134699501Y-150152116D01*
X134699501Y-150152123D01*
X134699500Y-150152135D01*
X134372200Y-150152135D01*
X134372200Y-147946685D01*
X134391885Y-147879646D01*
X134444689Y-147833891D01*
X134513847Y-147823947D01*
X134534503Y-147828750D01*
X134683757Y-147877246D01*
X134893713Y-147910500D01*
X134893714Y-147910500D01*
X135106286Y-147910500D01*
X135106287Y-147910500D01*
X135316243Y-147877246D01*
X135518412Y-147811557D01*
X135707816Y-147715051D01*
X135819271Y-147634075D01*
X135879786Y-147590109D01*
X135879788Y-147590106D01*
X135879792Y-147590104D01*
X136030104Y-147439792D01*
X136030106Y-147439788D01*
X136030109Y-147439786D01*
X136155048Y-147267820D01*
X136155047Y-147267820D01*
X136155051Y-147267816D01*
X136159514Y-147259054D01*
X136207488Y-147208259D01*
X136275308Y-147191463D01*
X136341444Y-147213999D01*
X136380486Y-147259056D01*
X136384951Y-147267820D01*
X136509890Y-147439786D01*
X136660213Y-147590109D01*
X136832179Y-147715048D01*
X136832181Y-147715049D01*
X136832184Y-147715051D01*
X137021588Y-147811557D01*
X137223757Y-147877246D01*
X137433713Y-147910500D01*
X137433714Y-147910500D01*
X137646286Y-147910500D01*
X137646287Y-147910500D01*
X137856243Y-147877246D01*
X138058412Y-147811557D01*
X138247816Y-147715051D01*
X138359271Y-147634075D01*
X138419786Y-147590109D01*
X138419788Y-147590106D01*
X138419792Y-147590104D01*
X138570104Y-147439792D01*
X138570106Y-147439788D01*
X138570109Y-147439786D01*
X138695048Y-147267820D01*
X138695047Y-147267820D01*
X138695051Y-147267816D01*
X138791557Y-147078412D01*
X138857246Y-146876243D01*
X138890500Y-146666287D01*
X138890500Y-146453713D01*
X138857246Y-146243757D01*
X138791557Y-146041588D01*
X138695051Y-145852184D01*
X138695049Y-145852181D01*
X138695048Y-145852179D01*
X138570109Y-145680213D01*
X138419786Y-145529890D01*
X138247820Y-145404951D01*
X138247115Y-145404591D01*
X138239054Y-145400485D01*
X138188259Y-145352512D01*
X138171463Y-145284692D01*
X138193999Y-145218556D01*
X138239054Y-145179515D01*
X138247816Y-145175051D01*
X138359271Y-145094075D01*
X138419786Y-145050109D01*
X138419788Y-145050106D01*
X138419792Y-145050104D01*
X138570104Y-144899792D01*
X138570106Y-144899788D01*
X138570109Y-144899786D01*
X138695048Y-144727820D01*
X138695047Y-144727820D01*
X138695051Y-144727816D01*
X138791557Y-144538412D01*
X138857246Y-144336243D01*
X138890500Y-144126287D01*
X138890500Y-143913713D01*
X138857246Y-143703757D01*
X138791557Y-143501588D01*
X138695051Y-143312184D01*
X138695049Y-143312181D01*
X138695048Y-143312179D01*
X138570109Y-143140213D01*
X138419786Y-142989890D01*
X138247820Y-142864951D01*
X138247115Y-142864591D01*
X138239054Y-142860485D01*
X138188259Y-142812512D01*
X138171463Y-142744692D01*
X138193999Y-142678556D01*
X138239054Y-142639515D01*
X138247816Y-142635051D01*
X138359271Y-142554075D01*
X138419786Y-142510109D01*
X138419788Y-142510106D01*
X138419792Y-142510104D01*
X138570104Y-142359792D01*
X138570106Y-142359788D01*
X138570109Y-142359786D01*
X138695048Y-142187820D01*
X138695047Y-142187820D01*
X138695051Y-142187816D01*
X138791557Y-141998412D01*
X138857246Y-141796243D01*
X138890500Y-141586287D01*
X138890500Y-141373713D01*
X138857246Y-141163757D01*
X138791557Y-140961588D01*
X138695051Y-140772184D01*
X138695049Y-140772181D01*
X138695048Y-140772179D01*
X138570109Y-140600213D01*
X138419786Y-140449890D01*
X138247820Y-140324951D01*
X138247115Y-140324591D01*
X138239054Y-140320485D01*
X138188259Y-140272512D01*
X138171463Y-140204692D01*
X138193999Y-140138556D01*
X138239054Y-140099515D01*
X138247816Y-140095051D01*
X138388635Y-139992741D01*
X138419786Y-139970109D01*
X138419788Y-139970106D01*
X138419792Y-139970104D01*
X138570104Y-139819792D01*
X138570106Y-139819788D01*
X138570109Y-139819786D01*
X138695048Y-139647820D01*
X138695047Y-139647820D01*
X138695051Y-139647816D01*
X138791557Y-139458412D01*
X138857246Y-139256243D01*
X138890500Y-139046287D01*
X138890500Y-138833713D01*
X138857246Y-138623757D01*
X138791557Y-138421588D01*
X138695051Y-138232184D01*
X138695049Y-138232181D01*
X138695048Y-138232179D01*
X138570109Y-138060213D01*
X138419786Y-137909890D01*
X138247820Y-137784951D01*
X138247115Y-137784591D01*
X138239054Y-137780485D01*
X138188259Y-137732512D01*
X138171463Y-137664692D01*
X138193999Y-137598556D01*
X138239054Y-137559515D01*
X138247816Y-137555051D01*
X138319203Y-137503186D01*
X138419786Y-137430109D01*
X138419788Y-137430106D01*
X138419792Y-137430104D01*
X138570104Y-137279792D01*
X138570106Y-137279788D01*
X138570109Y-137279786D01*
X138695048Y-137107820D01*
X138695047Y-137107820D01*
X138695051Y-137107816D01*
X138791557Y-136918412D01*
X138857246Y-136716243D01*
X138890500Y-136506287D01*
X138890500Y-136293713D01*
X138857246Y-136083757D01*
X138791557Y-135881588D01*
X138695051Y-135692184D01*
X138695049Y-135692181D01*
X138695048Y-135692179D01*
X138570109Y-135520213D01*
X138419786Y-135369890D01*
X138247820Y-135244951D01*
X138247115Y-135244591D01*
X138239054Y-135240485D01*
X138188259Y-135192512D01*
X138171463Y-135124692D01*
X138193999Y-135058556D01*
X138239054Y-135019515D01*
X138247816Y-135015051D01*
X138272383Y-134997202D01*
X138419786Y-134890109D01*
X138419788Y-134890106D01*
X138419792Y-134890104D01*
X138570104Y-134739792D01*
X138570106Y-134739788D01*
X138570109Y-134739786D01*
X138695048Y-134567820D01*
X138695047Y-134567820D01*
X138695051Y-134567816D01*
X138791557Y-134378412D01*
X138857246Y-134176243D01*
X138890500Y-133966287D01*
X138890500Y-133753713D01*
X138857246Y-133543757D01*
X138791557Y-133341588D01*
X138695051Y-133152184D01*
X138695049Y-133152181D01*
X138695048Y-133152179D01*
X138570109Y-132980213D01*
X138419786Y-132829890D01*
X138247820Y-132704951D01*
X138247115Y-132704591D01*
X138239054Y-132700485D01*
X138188259Y-132652512D01*
X138171463Y-132584692D01*
X138193999Y-132518556D01*
X138239054Y-132479515D01*
X138247816Y-132475051D01*
X138359271Y-132394075D01*
X138419786Y-132350109D01*
X138419788Y-132350106D01*
X138419792Y-132350104D01*
X138570104Y-132199792D01*
X138570106Y-132199788D01*
X138570109Y-132199786D01*
X138695048Y-132027820D01*
X138695047Y-132027820D01*
X138695051Y-132027816D01*
X138791557Y-131838412D01*
X138857246Y-131636243D01*
X138890500Y-131426287D01*
X138890500Y-131213713D01*
X138857246Y-131003757D01*
X138791557Y-130801588D01*
X138695051Y-130612184D01*
X138695049Y-130612181D01*
X138695048Y-130612179D01*
X138570109Y-130440213D01*
X138419786Y-130289890D01*
X138247820Y-130164951D01*
X138247115Y-130164591D01*
X138239054Y-130160485D01*
X138188259Y-130112512D01*
X138171463Y-130044692D01*
X138193999Y-129978556D01*
X138239054Y-129939515D01*
X138247816Y-129935051D01*
X138359271Y-129854075D01*
X138419786Y-129810109D01*
X138419788Y-129810106D01*
X138419792Y-129810104D01*
X138570104Y-129659792D01*
X138570106Y-129659788D01*
X138570109Y-129659786D01*
X138695048Y-129487820D01*
X138695047Y-129487820D01*
X138695051Y-129487816D01*
X138791557Y-129298412D01*
X138857246Y-129096243D01*
X138890500Y-128886287D01*
X138890500Y-128673713D01*
X138857246Y-128463757D01*
X138791557Y-128261588D01*
X138695051Y-128072184D01*
X138695049Y-128072181D01*
X138695048Y-128072179D01*
X138570109Y-127900213D01*
X138419786Y-127749890D01*
X138247820Y-127624951D01*
X138247115Y-127624591D01*
X138239054Y-127620485D01*
X138188259Y-127572512D01*
X138171463Y-127504692D01*
X138193999Y-127438556D01*
X138239054Y-127399515D01*
X138247816Y-127395051D01*
X138359271Y-127314075D01*
X138419786Y-127270109D01*
X138419788Y-127270106D01*
X138419792Y-127270104D01*
X138570104Y-127119792D01*
X138570106Y-127119788D01*
X138570109Y-127119786D01*
X138695048Y-126947820D01*
X138695047Y-126947820D01*
X138695051Y-126947816D01*
X138791557Y-126758412D01*
X138857246Y-126556243D01*
X138890500Y-126346287D01*
X138890500Y-126133713D01*
X138857246Y-125923757D01*
X138791557Y-125721588D01*
X138695051Y-125532184D01*
X138695049Y-125532181D01*
X138695048Y-125532179D01*
X138570109Y-125360213D01*
X138419786Y-125209890D01*
X138247815Y-125084948D01*
X138247812Y-125084946D01*
X138239050Y-125080481D01*
X138188256Y-125032505D01*
X138171463Y-124964683D01*
X138194003Y-124898549D01*
X138239056Y-124859514D01*
X138247816Y-124855051D01*
X138419792Y-124730104D01*
X138570104Y-124579792D01*
X138570106Y-124579788D01*
X138570109Y-124579786D01*
X138695048Y-124407820D01*
X138695047Y-124407820D01*
X138695051Y-124407816D01*
X138791557Y-124218412D01*
X138857246Y-124016243D01*
X138890500Y-123806287D01*
X138890500Y-123593713D01*
X138857246Y-123383757D01*
X138791557Y-123181588D01*
X138695051Y-122992184D01*
X138695049Y-122992181D01*
X138695048Y-122992179D01*
X138570109Y-122820213D01*
X138419786Y-122669890D01*
X138247820Y-122544951D01*
X138247115Y-122544591D01*
X138239054Y-122540485D01*
X138188259Y-122492512D01*
X138171463Y-122424692D01*
X138193999Y-122358556D01*
X138239054Y-122319515D01*
X138247816Y-122315051D01*
X138359271Y-122234075D01*
X138419786Y-122190109D01*
X138419788Y-122190106D01*
X138419792Y-122190104D01*
X138570104Y-122039792D01*
X138570106Y-122039788D01*
X138570109Y-122039786D01*
X138695048Y-121867820D01*
X138695047Y-121867820D01*
X138695051Y-121867816D01*
X138791557Y-121678412D01*
X138857246Y-121476243D01*
X138890500Y-121266287D01*
X138890500Y-121053713D01*
X138857246Y-120843757D01*
X138791557Y-120641588D01*
X138695051Y-120452184D01*
X138695049Y-120452181D01*
X138695048Y-120452179D01*
X138570109Y-120280213D01*
X138419786Y-120129890D01*
X138247820Y-120004951D01*
X138247115Y-120004591D01*
X138239054Y-120000485D01*
X138188259Y-119952512D01*
X138171463Y-119884692D01*
X138193999Y-119818556D01*
X138239054Y-119779515D01*
X138247816Y-119775051D01*
X138321976Y-119721171D01*
X138419786Y-119650109D01*
X138419788Y-119650106D01*
X138419792Y-119650104D01*
X138570104Y-119499792D01*
X138570106Y-119499788D01*
X138570109Y-119499786D01*
X138695048Y-119327820D01*
X138695047Y-119327820D01*
X138695051Y-119327816D01*
X138791557Y-119138412D01*
X138857246Y-118936243D01*
X138890500Y-118726287D01*
X138890500Y-118513713D01*
X138857246Y-118303757D01*
X138791557Y-118101588D01*
X138695051Y-117912184D01*
X138695049Y-117912181D01*
X138695048Y-117912179D01*
X138570109Y-117740213D01*
X138419786Y-117589890D01*
X138247820Y-117464951D01*
X138247115Y-117464591D01*
X138239054Y-117460485D01*
X138188259Y-117412512D01*
X138171463Y-117344692D01*
X138193999Y-117278556D01*
X138239054Y-117239515D01*
X138247816Y-117235051D01*
X138288878Y-117205218D01*
X138419786Y-117110109D01*
X138419788Y-117110106D01*
X138419792Y-117110104D01*
X138570104Y-116959792D01*
X138570106Y-116959788D01*
X138570109Y-116959786D01*
X138695048Y-116787820D01*
X138695047Y-116787820D01*
X138695051Y-116787816D01*
X138791557Y-116598412D01*
X138857246Y-116396243D01*
X138890500Y-116186287D01*
X138890500Y-115973713D01*
X138857246Y-115763757D01*
X138791557Y-115561588D01*
X138695051Y-115372184D01*
X138695049Y-115372181D01*
X138695048Y-115372179D01*
X138570109Y-115200213D01*
X138419786Y-115049890D01*
X138247817Y-114924949D01*
X138238504Y-114920204D01*
X138187707Y-114872230D01*
X138170912Y-114804409D01*
X138193449Y-114738274D01*
X138238507Y-114699232D01*
X138247558Y-114694620D01*
X138419459Y-114569727D01*
X138419464Y-114569723D01*
X138569723Y-114419464D01*
X138569727Y-114419459D01*
X138694620Y-114247557D01*
X138791095Y-114058217D01*
X138856757Y-113856129D01*
X138856757Y-113856126D01*
X138867231Y-113790000D01*
X137973012Y-113790000D01*
X138005925Y-113732993D01*
X138040000Y-113605826D01*
X138040000Y-113474174D01*
X138005925Y-113347007D01*
X137973012Y-113290000D01*
X138867231Y-113290000D01*
X138856757Y-113223873D01*
X138856757Y-113223870D01*
X138791095Y-113021782D01*
X138694620Y-112832442D01*
X138569727Y-112660540D01*
X138569723Y-112660535D01*
X138419464Y-112510276D01*
X138419459Y-112510272D01*
X138247555Y-112385377D01*
X138238500Y-112380763D01*
X138187706Y-112332788D01*
X138170912Y-112264966D01*
X138193451Y-112198832D01*
X138238508Y-112159793D01*
X138247816Y-112155051D01*
X138359271Y-112074075D01*
X138419786Y-112030109D01*
X138419788Y-112030106D01*
X138419792Y-112030104D01*
X138570104Y-111879792D01*
X138570106Y-111879788D01*
X138570109Y-111879786D01*
X138695048Y-111707820D01*
X138695047Y-111707820D01*
X138695051Y-111707816D01*
X138791557Y-111518412D01*
X138857246Y-111316243D01*
X138858141Y-111310594D01*
X146247800Y-111310594D01*
X146247800Y-111319350D01*
X146247800Y-129808211D01*
X146271835Y-129929044D01*
X146271840Y-129929061D01*
X146318985Y-130042880D01*
X146318987Y-130042883D01*
X146318988Y-130042886D01*
X146353215Y-130094109D01*
X146387442Y-130145333D01*
X146474567Y-130232458D01*
X146474569Y-130232459D01*
X146484532Y-130242422D01*
X146879724Y-130637614D01*
X146913209Y-130698937D01*
X146908225Y-130768629D01*
X146866356Y-130824560D01*
X146842454Y-130842453D01*
X146842452Y-130842455D01*
X146756206Y-130957664D01*
X146756202Y-130957671D01*
X146705908Y-131092517D01*
X146699501Y-131152116D01*
X146699500Y-131152135D01*
X146699500Y-132847870D01*
X146699501Y-132847876D01*
X146705908Y-132907483D01*
X146756202Y-133042328D01*
X146756206Y-133042335D01*
X146842452Y-133157544D01*
X146842455Y-133157547D01*
X146957664Y-133243793D01*
X146957671Y-133243797D01*
X146981032Y-133252510D01*
X147092517Y-133294091D01*
X147129441Y-133298060D01*
X147193989Y-133324796D01*
X147233838Y-133382188D01*
X147236333Y-133452013D01*
X147200681Y-133512102D01*
X147189071Y-133521666D01*
X147152784Y-133548030D01*
X147008028Y-133692786D01*
X146887715Y-133858386D01*
X146794781Y-134040776D01*
X146731522Y-134235465D01*
X146699500Y-134437648D01*
X146699500Y-134642351D01*
X146731522Y-134844534D01*
X146794781Y-135039223D01*
X146852310Y-135152128D01*
X146887271Y-135220743D01*
X146887715Y-135221613D01*
X147008028Y-135387213D01*
X147152786Y-135531971D01*
X147318385Y-135652284D01*
X147318387Y-135652285D01*
X147318390Y-135652287D01*
X147328939Y-135657662D01*
X147348617Y-135676246D01*
X147370570Y-135692077D01*
X147373639Y-135699878D01*
X147379735Y-135705635D01*
X147386242Y-135731910D01*
X147396151Y-135757095D01*
X147395497Y-135769282D01*
X147396531Y-135773455D01*
X147394262Y-135792338D01*
X147375649Y-135885911D01*
X147343264Y-135947822D01*
X147322231Y-135964711D01*
X147322331Y-135964849D01*
X147319481Y-135966919D01*
X147318833Y-135967440D01*
X147318396Y-135967707D01*
X147152786Y-136088028D01*
X147008028Y-136232786D01*
X146887715Y-136398386D01*
X146794781Y-136580776D01*
X146731522Y-136775465D01*
X146699500Y-136977648D01*
X146699500Y-137182351D01*
X146731522Y-137384534D01*
X146794781Y-137579223D01*
X146841035Y-137670000D01*
X146880272Y-137747007D01*
X146887715Y-137761613D01*
X147008028Y-137927213D01*
X147152786Y-138071971D01*
X147318385Y-138192284D01*
X147318387Y-138192285D01*
X147318390Y-138192287D01*
X147328939Y-138197662D01*
X147348617Y-138216246D01*
X147370570Y-138232077D01*
X147373639Y-138239878D01*
X147379735Y-138245635D01*
X147386242Y-138271910D01*
X147396151Y-138297095D01*
X147395497Y-138309282D01*
X147396531Y-138313455D01*
X147394262Y-138332338D01*
X147375649Y-138425911D01*
X147343264Y-138487822D01*
X147322231Y-138504711D01*
X147322331Y-138504849D01*
X147319481Y-138506919D01*
X147318833Y-138507440D01*
X147318396Y-138507707D01*
X147152786Y-138628028D01*
X147008028Y-138772786D01*
X146887715Y-138938386D01*
X146794781Y-139120776D01*
X146731522Y-139315465D01*
X146699500Y-139517648D01*
X146699500Y-139722351D01*
X146731522Y-139924534D01*
X146794781Y-140119223D01*
X146841035Y-140210000D01*
X146880272Y-140287007D01*
X146887715Y-140301613D01*
X147008028Y-140467213D01*
X147152786Y-140611971D01*
X147283833Y-140707180D01*
X147318390Y-140732287D01*
X147396692Y-140772184D01*
X147411080Y-140779515D01*
X147461876Y-140827490D01*
X147478671Y-140895311D01*
X147456134Y-140961446D01*
X147411080Y-141000485D01*
X147318386Y-141047715D01*
X147152786Y-141168028D01*
X147008028Y-141312786D01*
X146887715Y-141478386D01*
X146794781Y-141660776D01*
X146731522Y-141855465D01*
X146699500Y-142057648D01*
X146699500Y-142262351D01*
X146731522Y-142464534D01*
X146794781Y-142659223D01*
X146841035Y-142750000D01*
X146880272Y-142827007D01*
X146887715Y-142841613D01*
X147008028Y-143007213D01*
X147152786Y-143151971D01*
X147307749Y-143264556D01*
X147318390Y-143272287D01*
X147396688Y-143312182D01*
X147411080Y-143319515D01*
X147461876Y-143367490D01*
X147478671Y-143435311D01*
X147456134Y-143501446D01*
X147411080Y-143540485D01*
X147318386Y-143587715D01*
X147152786Y-143708028D01*
X147008028Y-143852786D01*
X146887715Y-144018386D01*
X146794781Y-144200776D01*
X146731522Y-144395465D01*
X146699500Y-144597648D01*
X146699500Y-144802351D01*
X146731522Y-145004534D01*
X146794781Y-145199223D01*
X146841035Y-145290000D01*
X146880272Y-145367007D01*
X146887715Y-145381613D01*
X147008028Y-145547213D01*
X147152786Y-145691971D01*
X147282082Y-145785908D01*
X147318390Y-145812287D01*
X147396688Y-145852182D01*
X147411080Y-145859515D01*
X147461876Y-145907490D01*
X147478671Y-145975311D01*
X147456134Y-146041446D01*
X147411080Y-146080485D01*
X147318386Y-146127715D01*
X147152786Y-146248028D01*
X147008028Y-146392786D01*
X146887715Y-146558386D01*
X146794781Y-146740776D01*
X146731522Y-146935465D01*
X146699500Y-147137648D01*
X146699500Y-147342351D01*
X146731522Y-147544534D01*
X146794781Y-147739223D01*
X146840555Y-147829057D01*
X146883002Y-147912365D01*
X146887715Y-147921613D01*
X147008028Y-148087213D01*
X147152786Y-148231971D01*
X147307749Y-148344556D01*
X147318390Y-148352287D01*
X147388196Y-148387855D01*
X147411629Y-148399795D01*
X147462425Y-148447770D01*
X147479220Y-148515591D01*
X147456682Y-148581726D01*
X147411629Y-148620765D01*
X147318650Y-148668140D01*
X147153105Y-148788417D01*
X147153104Y-148788417D01*
X147008417Y-148933104D01*
X147008417Y-148933105D01*
X146888140Y-149098650D01*
X146795244Y-149280970D01*
X146732009Y-149475586D01*
X146723391Y-149530000D01*
X147684314Y-149530000D01*
X147679920Y-149534394D01*
X147627259Y-149625606D01*
X147600000Y-149727339D01*
X147600000Y-149832661D01*
X147627259Y-149934394D01*
X147679920Y-150025606D01*
X147684314Y-150030000D01*
X146723391Y-150030000D01*
X146732009Y-150084413D01*
X146795244Y-150279029D01*
X146888140Y-150461349D01*
X147008417Y-150626894D01*
X147008417Y-150626895D01*
X147153104Y-150771582D01*
X147318650Y-150891859D01*
X147500968Y-150984754D01*
X147695578Y-151047988D01*
X147750000Y-151056607D01*
X147750000Y-150095686D01*
X147754394Y-150100080D01*
X147845606Y-150152741D01*
X147947339Y-150180000D01*
X148052661Y-150180000D01*
X148154394Y-150152741D01*
X148245606Y-150100080D01*
X148250000Y-150095686D01*
X148250000Y-151056606D01*
X148304421Y-151047988D01*
X148499031Y-150984754D01*
X148681349Y-150891859D01*
X148846894Y-150771582D01*
X148846895Y-150771582D01*
X148991582Y-150626895D01*
X148991582Y-150626894D01*
X149111859Y-150461349D01*
X149204755Y-150279029D01*
X149267990Y-150084413D01*
X149276609Y-150030000D01*
X148315686Y-150030000D01*
X148320080Y-150025606D01*
X148372741Y-149934394D01*
X148400000Y-149832661D01*
X148400000Y-149727339D01*
X148372741Y-149625606D01*
X148320080Y-149534394D01*
X148315686Y-149530000D01*
X149276609Y-149530000D01*
X149267990Y-149475586D01*
X149204755Y-149280970D01*
X149111859Y-149098650D01*
X148991582Y-148933105D01*
X148991582Y-148933104D01*
X148846895Y-148788417D01*
X148681349Y-148668140D01*
X148588370Y-148620765D01*
X148537574Y-148572790D01*
X148520779Y-148504969D01*
X148543316Y-148438835D01*
X148588370Y-148399795D01*
X148588920Y-148399515D01*
X148681610Y-148352287D01*
X148702770Y-148336913D01*
X148847213Y-148231971D01*
X148847215Y-148231968D01*
X148847219Y-148231966D01*
X148991966Y-148087219D01*
X148991968Y-148087215D01*
X148991971Y-148087213D01*
X149044732Y-148014590D01*
X149112287Y-147921610D01*
X149205220Y-147739219D01*
X149268477Y-147544534D01*
X149300500Y-147342352D01*
X149300500Y-147137648D01*
X149291118Y-147078412D01*
X149268477Y-146935465D01*
X149232484Y-146824692D01*
X149205220Y-146740781D01*
X149205218Y-146740778D01*
X149205218Y-146740776D01*
X149167263Y-146666286D01*
X149112287Y-146558390D01*
X149079867Y-146513767D01*
X148991971Y-146392786D01*
X148847213Y-146248028D01*
X148681614Y-146127715D01*
X148670765Y-146122187D01*
X148588917Y-146080483D01*
X148538123Y-146032511D01*
X148521328Y-145964690D01*
X148543865Y-145898555D01*
X148588917Y-145859516D01*
X148681610Y-145812287D01*
X148763222Y-145752993D01*
X148847213Y-145691971D01*
X148847215Y-145691968D01*
X148847219Y-145691966D01*
X148991966Y-145547219D01*
X148991968Y-145547215D01*
X148991971Y-145547213D01*
X149044732Y-145474590D01*
X149112287Y-145381610D01*
X149205220Y-145199219D01*
X149268477Y-145004534D01*
X149300500Y-144802352D01*
X149300500Y-144597648D01*
X149284139Y-144494348D01*
X149268477Y-144395465D01*
X149232481Y-144284683D01*
X149205220Y-144200781D01*
X149205218Y-144200778D01*
X149205218Y-144200776D01*
X149141209Y-144075153D01*
X149112287Y-144018390D01*
X149079406Y-143973133D01*
X148991971Y-143852786D01*
X148847213Y-143708028D01*
X148681614Y-143587715D01*
X148675006Y-143584348D01*
X148588917Y-143540483D01*
X148538123Y-143492511D01*
X148521328Y-143424690D01*
X148543865Y-143358555D01*
X148588917Y-143319516D01*
X148681610Y-143272287D01*
X148763222Y-143212993D01*
X148847213Y-143151971D01*
X148847215Y-143151968D01*
X148847219Y-143151966D01*
X148991966Y-143007219D01*
X148991968Y-143007215D01*
X148991971Y-143007213D01*
X149044732Y-142934590D01*
X149112287Y-142841610D01*
X149205220Y-142659219D01*
X149268477Y-142464534D01*
X149300500Y-142262352D01*
X149300500Y-142057648D01*
X149299090Y-142048748D01*
X149268477Y-141855465D01*
X149235935Y-141755312D01*
X149205220Y-141660781D01*
X149205218Y-141660778D01*
X149205218Y-141660776D01*
X149135491Y-141523931D01*
X149112287Y-141478390D01*
X149085886Y-141442052D01*
X148991971Y-141312786D01*
X148847213Y-141168028D01*
X148681614Y-141047715D01*
X148671041Y-141042328D01*
X148588917Y-141000483D01*
X148538123Y-140952511D01*
X148521328Y-140884690D01*
X148543865Y-140818555D01*
X148588917Y-140779516D01*
X148681610Y-140732287D01*
X148716167Y-140707180D01*
X148847213Y-140611971D01*
X148847215Y-140611968D01*
X148847219Y-140611966D01*
X148991966Y-140467219D01*
X148991968Y-140467215D01*
X148991971Y-140467213D01*
X149044732Y-140394590D01*
X149112287Y-140301610D01*
X149205220Y-140119219D01*
X149268477Y-139924534D01*
X149300500Y-139722352D01*
X149300500Y-139517648D01*
X149287330Y-139434498D01*
X149268477Y-139315465D01*
X149233201Y-139206899D01*
X149205220Y-139120781D01*
X149205218Y-139120778D01*
X149205218Y-139120776D01*
X149147769Y-139008028D01*
X149112287Y-138938390D01*
X149096033Y-138916018D01*
X149000328Y-138784289D01*
X148976848Y-138718482D01*
X148992674Y-138650429D01*
X149012961Y-138623727D01*
X151104297Y-136532391D01*
X151165618Y-136498908D01*
X151167628Y-136498489D01*
X151278997Y-136476337D01*
X151300829Y-136467294D01*
X153850600Y-136467294D01*
X153850600Y-136476968D01*
X153850600Y-142704010D01*
X153874635Y-142824844D01*
X153874637Y-142824852D01*
X153888447Y-142858192D01*
X153921788Y-142938686D01*
X153956006Y-142989896D01*
X153990242Y-143041133D01*
X154077367Y-143128258D01*
X154077368Y-143128258D01*
X154084435Y-143135325D01*
X154084434Y-143135325D01*
X154084438Y-143135328D01*
X154627280Y-143678170D01*
X154660765Y-143739493D01*
X154655781Y-143809185D01*
X154630527Y-143848495D01*
X154631202Y-143849071D01*
X154628033Y-143852781D01*
X154507715Y-144018386D01*
X154414781Y-144200776D01*
X154351522Y-144395465D01*
X154319500Y-144597648D01*
X154319500Y-144802351D01*
X154351522Y-145004534D01*
X154414781Y-145199223D01*
X154461035Y-145290000D01*
X154500272Y-145367007D01*
X154507715Y-145381613D01*
X154628028Y-145547213D01*
X154772786Y-145691971D01*
X154902082Y-145785908D01*
X154938390Y-145812287D01*
X155016688Y-145852182D01*
X155031080Y-145859515D01*
X155081876Y-145907490D01*
X155098671Y-145975311D01*
X155076134Y-146041446D01*
X155031080Y-146080485D01*
X154938386Y-146127715D01*
X154772786Y-146248028D01*
X154628028Y-146392786D01*
X154507715Y-146558386D01*
X154414781Y-146740776D01*
X154351522Y-146935465D01*
X154319500Y-147137648D01*
X154319500Y-147342351D01*
X154351522Y-147544534D01*
X154414781Y-147739223D01*
X154460555Y-147829057D01*
X154503002Y-147912365D01*
X154507715Y-147921613D01*
X154628028Y-148087213D01*
X154772786Y-148231971D01*
X154927749Y-148344556D01*
X154938390Y-148352287D01*
X155008196Y-148387855D01*
X155031080Y-148399515D01*
X155081876Y-148447490D01*
X155098671Y-148515311D01*
X155076134Y-148581446D01*
X155031080Y-148620485D01*
X154938386Y-148667715D01*
X154772786Y-148788028D01*
X154628028Y-148932786D01*
X154507715Y-149098386D01*
X154414781Y-149280776D01*
X154351522Y-149475465D01*
X154326403Y-149634064D01*
X154319500Y-149677648D01*
X154319500Y-149882352D01*
X154322642Y-149902188D01*
X154351522Y-150084534D01*
X154414781Y-150279223D01*
X154471226Y-150390000D01*
X154500272Y-150447007D01*
X154507715Y-150461613D01*
X154628028Y-150627213D01*
X154772786Y-150771971D01*
X154927749Y-150884556D01*
X154938390Y-150892287D01*
X155054607Y-150951503D01*
X155120776Y-150985218D01*
X155120778Y-150985218D01*
X155120781Y-150985220D01*
X155225137Y-151019127D01*
X155315465Y-151048477D01*
X155416557Y-151064488D01*
X155517648Y-151080500D01*
X155517649Y-151080500D01*
X155722351Y-151080500D01*
X155722352Y-151080500D01*
X155924534Y-151048477D01*
X156119219Y-150985220D01*
X156301610Y-150892287D01*
X156394590Y-150824732D01*
X156467213Y-150771971D01*
X156467215Y-150771968D01*
X156467219Y-150771966D01*
X156611966Y-150627219D01*
X156611968Y-150627215D01*
X156611971Y-150627213D01*
X156664732Y-150554590D01*
X156732287Y-150461610D01*
X156825220Y-150279219D01*
X156888477Y-150084534D01*
X156920500Y-149882352D01*
X156920500Y-149677648D01*
X156903997Y-149573453D01*
X156888477Y-149475465D01*
X156852481Y-149364683D01*
X156825220Y-149280781D01*
X156825218Y-149280778D01*
X156825218Y-149280776D01*
X156761209Y-149155153D01*
X156732287Y-149098390D01*
X156689822Y-149039941D01*
X156611971Y-148932786D01*
X156467213Y-148788028D01*
X156301614Y-148667715D01*
X156217292Y-148624751D01*
X156208917Y-148620483D01*
X156158123Y-148572511D01*
X156141328Y-148504690D01*
X156163865Y-148438555D01*
X156208917Y-148399516D01*
X156301610Y-148352287D01*
X156322770Y-148336913D01*
X156467213Y-148231971D01*
X156467215Y-148231968D01*
X156467219Y-148231966D01*
X156611966Y-148087219D01*
X156611968Y-148087215D01*
X156611971Y-148087213D01*
X156664732Y-148014590D01*
X156732287Y-147921610D01*
X156825220Y-147739219D01*
X156888477Y-147544534D01*
X156920500Y-147342352D01*
X156920500Y-147137648D01*
X156896041Y-146983223D01*
X156904995Y-146913932D01*
X156949991Y-146860480D01*
X157016743Y-146839840D01*
X157042701Y-146842209D01*
X157097695Y-146853148D01*
X157172355Y-146868000D01*
X157172358Y-146868000D01*
X157330044Y-146868000D01*
X157330045Y-146867999D01*
X157484697Y-146837237D01*
X157630379Y-146776894D01*
X157761489Y-146689289D01*
X157872989Y-146577789D01*
X157960594Y-146446679D01*
X158020937Y-146300997D01*
X158051700Y-146146342D01*
X158051700Y-145988658D01*
X158051700Y-145988655D01*
X158051699Y-145988653D01*
X158040381Y-145931756D01*
X158020937Y-145834003D01*
X158011941Y-145812284D01*
X157960597Y-145688328D01*
X157960596Y-145688327D01*
X157960594Y-145688321D01*
X157897597Y-145594039D01*
X157876720Y-145527363D01*
X157876700Y-145525150D01*
X157876700Y-144615194D01*
X157872730Y-144595237D01*
X157852663Y-144494348D01*
X157805511Y-144380514D01*
X157775930Y-144336243D01*
X157737058Y-144278067D01*
X157649933Y-144190942D01*
X157649932Y-144190941D01*
X156625516Y-143166526D01*
X156592032Y-143105204D01*
X156597016Y-143035512D01*
X156612880Y-143005961D01*
X156650505Y-142954174D01*
X156732287Y-142841610D01*
X156825220Y-142659219D01*
X156888477Y-142464534D01*
X156920500Y-142262352D01*
X156920500Y-142057648D01*
X156919090Y-142048748D01*
X156888477Y-141855465D01*
X156855935Y-141755312D01*
X156825220Y-141660781D01*
X156825218Y-141660778D01*
X156825218Y-141660776D01*
X156755491Y-141523931D01*
X156732287Y-141478390D01*
X156705886Y-141442052D01*
X156611971Y-141312786D01*
X156467213Y-141168028D01*
X156301611Y-141047713D01*
X156208369Y-141000203D01*
X156157574Y-140952229D01*
X156140779Y-140884407D01*
X156163317Y-140818273D01*
X156208371Y-140779234D01*
X156301347Y-140731861D01*
X156466894Y-140611582D01*
X156466895Y-140611582D01*
X156611582Y-140466895D01*
X156611582Y-140466894D01*
X156731859Y-140301349D01*
X156824755Y-140119029D01*
X156887990Y-139924413D01*
X156896609Y-139870000D01*
X155935686Y-139870000D01*
X155940080Y-139865606D01*
X155992741Y-139774394D01*
X156020000Y-139672661D01*
X156020000Y-139567339D01*
X155992741Y-139465606D01*
X155940080Y-139374394D01*
X155935686Y-139370000D01*
X156896609Y-139370000D01*
X156892789Y-139345886D01*
X156901743Y-139276593D01*
X156946739Y-139223140D01*
X157013490Y-139202500D01*
X157039456Y-139204870D01*
X157045412Y-139206055D01*
X157049657Y-139206900D01*
X157049658Y-139206900D01*
X157207344Y-139206900D01*
X157207345Y-139206899D01*
X157284476Y-139191557D01*
X157361988Y-139176139D01*
X157361988Y-139176138D01*
X157361997Y-139176137D01*
X157363038Y-139175705D01*
X157363627Y-139175642D01*
X157367824Y-139174369D01*
X157368065Y-139175164D01*
X157432503Y-139168230D01*
X157494986Y-139199498D01*
X157530645Y-139259582D01*
X157534500Y-139290262D01*
X157534500Y-140472511D01*
X157558535Y-140593344D01*
X157558540Y-140593361D01*
X157605685Y-140707180D01*
X157605687Y-140707183D01*
X157605688Y-140707186D01*
X157639915Y-140758409D01*
X157674142Y-140809633D01*
X157761267Y-140896758D01*
X157761270Y-140896760D01*
X157768554Y-140904044D01*
X163943685Y-147079175D01*
X163977170Y-147140498D01*
X163972186Y-147210190D01*
X163956322Y-147239741D01*
X163845379Y-147392442D01*
X163748904Y-147581782D01*
X163683242Y-147783870D01*
X163683242Y-147783873D01*
X163672769Y-147850000D01*
X164566988Y-147850000D01*
X164534075Y-147907007D01*
X164500000Y-148034174D01*
X164500000Y-148165826D01*
X164534075Y-148292993D01*
X164566988Y-148350000D01*
X163672769Y-148350000D01*
X163683242Y-148416126D01*
X163683242Y-148416129D01*
X163748904Y-148618217D01*
X163845379Y-148807557D01*
X163970272Y-148979459D01*
X163970276Y-148979464D01*
X164120535Y-149129723D01*
X164120540Y-149129727D01*
X164292444Y-149254622D01*
X164302048Y-149259516D01*
X164352844Y-149307491D01*
X164369638Y-149375312D01*
X164347100Y-149441447D01*
X164302048Y-149480484D01*
X164292444Y-149485377D01*
X164120540Y-149610272D01*
X164120535Y-149610276D01*
X163970276Y-149760535D01*
X163970272Y-149760540D01*
X163845379Y-149932442D01*
X163748904Y-150121782D01*
X163683242Y-150323870D01*
X163683242Y-150323873D01*
X163672769Y-150390000D01*
X164566988Y-150390000D01*
X164534075Y-150447007D01*
X164500000Y-150574174D01*
X164500000Y-150705826D01*
X164534075Y-150832993D01*
X164566988Y-150890000D01*
X163672769Y-150890000D01*
X163683242Y-150956126D01*
X163683242Y-150956129D01*
X163748904Y-151158217D01*
X163845379Y-151347557D01*
X163970272Y-151519459D01*
X163970276Y-151519464D01*
X164120535Y-151669723D01*
X164120540Y-151669727D01*
X164292442Y-151794620D01*
X164481782Y-151891095D01*
X164683871Y-151956757D01*
X164750000Y-151967231D01*
X164750000Y-151073012D01*
X164807007Y-151105925D01*
X164934174Y-151140000D01*
X165065826Y-151140000D01*
X165192993Y-151105925D01*
X165250000Y-151073012D01*
X165250000Y-151967230D01*
X165316126Y-151956757D01*
X165316129Y-151956757D01*
X165518217Y-151891095D01*
X165707557Y-151794620D01*
X165879459Y-151669727D01*
X165879464Y-151669723D01*
X166029723Y-151519464D01*
X166029727Y-151519459D01*
X166154620Y-151347558D01*
X166159232Y-151338507D01*
X166207205Y-151287709D01*
X166275025Y-151270912D01*
X166341161Y-151293447D01*
X166380204Y-151338504D01*
X166384949Y-151347817D01*
X166509890Y-151519786D01*
X166660213Y-151670109D01*
X166832179Y-151795048D01*
X166832181Y-151795049D01*
X166832184Y-151795051D01*
X167021588Y-151891557D01*
X167223757Y-151957246D01*
X167433713Y-151990500D01*
X167433714Y-151990500D01*
X167646286Y-151990500D01*
X167646287Y-151990500D01*
X167856243Y-151957246D01*
X168058412Y-151891557D01*
X168247816Y-151795051D01*
X168331816Y-151734022D01*
X168419786Y-151670109D01*
X168419788Y-151670106D01*
X168419792Y-151670104D01*
X168570104Y-151519792D01*
X168570106Y-151519788D01*
X168570109Y-151519786D01*
X168695048Y-151347820D01*
X168695050Y-151347817D01*
X168695051Y-151347816D01*
X168791557Y-151158412D01*
X168857246Y-150956243D01*
X168890500Y-150746287D01*
X168890500Y-150533713D01*
X168857246Y-150323757D01*
X168791557Y-150121588D01*
X168695051Y-149932184D01*
X168695049Y-149932181D01*
X168695048Y-149932179D01*
X168570109Y-149760213D01*
X168419786Y-149609890D01*
X168247815Y-149484948D01*
X168247812Y-149484946D01*
X168239050Y-149480481D01*
X168188256Y-149432505D01*
X168171463Y-149364683D01*
X168194003Y-149298549D01*
X168239056Y-149259514D01*
X168247816Y-149255051D01*
X168419792Y-149130104D01*
X168570104Y-148979792D01*
X168570106Y-148979788D01*
X168570109Y-148979786D01*
X168695048Y-148807820D01*
X168695047Y-148807820D01*
X168695051Y-148807816D01*
X168791557Y-148618412D01*
X168857246Y-148416243D01*
X168890500Y-148206287D01*
X168890500Y-147993713D01*
X168857246Y-147783757D01*
X168791557Y-147581588D01*
X168695051Y-147392184D01*
X168695049Y-147392181D01*
X168695048Y-147392179D01*
X168570109Y-147220213D01*
X168419786Y-147069890D01*
X168247820Y-146944951D01*
X168247115Y-146944591D01*
X168239054Y-146940485D01*
X168188259Y-146892512D01*
X168171463Y-146824692D01*
X168193999Y-146758556D01*
X168239054Y-146719515D01*
X168247816Y-146715051D01*
X168307004Y-146672049D01*
X168419786Y-146590109D01*
X168419788Y-146590106D01*
X168419792Y-146590104D01*
X168570104Y-146439792D01*
X168570106Y-146439788D01*
X168570109Y-146439786D01*
X168695048Y-146267820D01*
X168695050Y-146267817D01*
X168695051Y-146267816D01*
X168791557Y-146078412D01*
X168857246Y-145876243D01*
X168890500Y-145666287D01*
X168890500Y-145453713D01*
X168857246Y-145243757D01*
X168791557Y-145041588D01*
X168695051Y-144852184D01*
X168695049Y-144852181D01*
X168695048Y-144852179D01*
X168570109Y-144680213D01*
X168419786Y-144529890D01*
X168247815Y-144404948D01*
X168247812Y-144404946D01*
X168239050Y-144400481D01*
X168188256Y-144352505D01*
X168171463Y-144284683D01*
X168194003Y-144218549D01*
X168239056Y-144179514D01*
X168247816Y-144175051D01*
X168419792Y-144050104D01*
X168570104Y-143899792D01*
X168570106Y-143899788D01*
X168570109Y-143899786D01*
X168695048Y-143727820D01*
X168695047Y-143727820D01*
X168695051Y-143727816D01*
X168791557Y-143538412D01*
X168857246Y-143336243D01*
X168890500Y-143126287D01*
X168890500Y-142913713D01*
X168857246Y-142703757D01*
X168791557Y-142501588D01*
X168695051Y-142312184D01*
X168658846Y-142262352D01*
X168600910Y-142182608D01*
X168577430Y-142116802D01*
X168593256Y-142048748D01*
X168613543Y-142022046D01*
X169212958Y-141422633D01*
X169247067Y-141371584D01*
X169281410Y-141320189D01*
X169281415Y-141320178D01*
X169289566Y-141300499D01*
X169313053Y-141243796D01*
X169328563Y-141206352D01*
X169336185Y-141168034D01*
X169352601Y-141085506D01*
X169352601Y-140962293D01*
X169352601Y-140957183D01*
X169352600Y-140957157D01*
X169352600Y-134808393D01*
X169352599Y-134808389D01*
X169352323Y-134807000D01*
X169328563Y-134687548D01*
X169307683Y-134637139D01*
X169284112Y-134580233D01*
X169281414Y-134573719D01*
X169281413Y-134573717D01*
X169271617Y-134559056D01*
X169241089Y-134513368D01*
X169212958Y-134471267D01*
X169125833Y-134384142D01*
X169125829Y-134384139D01*
X168607698Y-133866008D01*
X168574213Y-133804685D01*
X168579197Y-133734993D01*
X168595061Y-133705442D01*
X168642972Y-133639497D01*
X168695051Y-133567816D01*
X168791557Y-133378412D01*
X168857246Y-133176243D01*
X168890500Y-132966287D01*
X168890500Y-132753713D01*
X168857246Y-132543757D01*
X168791557Y-132341588D01*
X168695051Y-132152184D01*
X168695049Y-132152181D01*
X168695048Y-132152179D01*
X168570109Y-131980213D01*
X168419786Y-131829890D01*
X168247820Y-131704951D01*
X168247115Y-131704591D01*
X168239054Y-131700485D01*
X168188259Y-131652512D01*
X168171463Y-131584692D01*
X168193999Y-131518556D01*
X168239054Y-131479515D01*
X168247816Y-131475051D01*
X168269789Y-131459086D01*
X168419786Y-131350109D01*
X168419788Y-131350106D01*
X168419792Y-131350104D01*
X168570104Y-131199792D01*
X168570106Y-131199788D01*
X168570109Y-131199786D01*
X168695048Y-131027820D01*
X168695050Y-131027817D01*
X168695051Y-131027816D01*
X168791557Y-130838412D01*
X168857246Y-130636243D01*
X168890500Y-130426287D01*
X168890500Y-130213713D01*
X168857246Y-130003757D01*
X168791557Y-129801588D01*
X168695051Y-129612184D01*
X168695049Y-129612181D01*
X168695048Y-129612179D01*
X168570109Y-129440213D01*
X168419786Y-129289890D01*
X168247820Y-129164951D01*
X168247115Y-129164591D01*
X168239054Y-129160485D01*
X168188259Y-129112512D01*
X168171463Y-129044692D01*
X168193999Y-128978556D01*
X168239054Y-128939515D01*
X168247816Y-128935051D01*
X168285762Y-128907482D01*
X168419786Y-128810109D01*
X168419788Y-128810106D01*
X168419792Y-128810104D01*
X168570104Y-128659792D01*
X168570106Y-128659788D01*
X168570109Y-128659786D01*
X168695048Y-128487820D01*
X168695050Y-128487817D01*
X168695051Y-128487816D01*
X168791557Y-128298412D01*
X168857246Y-128096243D01*
X168890500Y-127886287D01*
X168890500Y-127673713D01*
X168857246Y-127463757D01*
X168791557Y-127261588D01*
X168695051Y-127072184D01*
X168695049Y-127072181D01*
X168695048Y-127072179D01*
X168570109Y-126900213D01*
X168419786Y-126749890D01*
X168247820Y-126624951D01*
X168247115Y-126624591D01*
X168239054Y-126620485D01*
X168188259Y-126572512D01*
X168171463Y-126504692D01*
X168193999Y-126438556D01*
X168239054Y-126399515D01*
X168247816Y-126395051D01*
X168288956Y-126365161D01*
X168419786Y-126270109D01*
X168419788Y-126270106D01*
X168419792Y-126270104D01*
X168570104Y-126119792D01*
X168570106Y-126119788D01*
X168570109Y-126119786D01*
X168695048Y-125947820D01*
X168695050Y-125947817D01*
X168695051Y-125947816D01*
X168791557Y-125758412D01*
X168857246Y-125556243D01*
X168890500Y-125346287D01*
X168890500Y-125133713D01*
X168857246Y-124923757D01*
X168791557Y-124721588D01*
X168695051Y-124532184D01*
X168695049Y-124532181D01*
X168695048Y-124532179D01*
X168570109Y-124360213D01*
X168419786Y-124209890D01*
X168247820Y-124084951D01*
X168247115Y-124084591D01*
X168239054Y-124080485D01*
X168188259Y-124032512D01*
X168171463Y-123964692D01*
X168193999Y-123898556D01*
X168239054Y-123859515D01*
X168247816Y-123855051D01*
X168269789Y-123839086D01*
X168419786Y-123730109D01*
X168419788Y-123730106D01*
X168419792Y-123730104D01*
X168570104Y-123579792D01*
X168570106Y-123579788D01*
X168570109Y-123579786D01*
X168695048Y-123407820D01*
X168695050Y-123407817D01*
X168695051Y-123407816D01*
X168791557Y-123218412D01*
X168857246Y-123016243D01*
X168890500Y-122806287D01*
X168890500Y-122593713D01*
X168857246Y-122383757D01*
X168791557Y-122181588D01*
X168695051Y-121992184D01*
X168695049Y-121992181D01*
X168695048Y-121992179D01*
X168570109Y-121820213D01*
X168419786Y-121669890D01*
X168247820Y-121544951D01*
X168247115Y-121544591D01*
X168239054Y-121540485D01*
X168188259Y-121492512D01*
X168171463Y-121424692D01*
X168193999Y-121358556D01*
X168239054Y-121319515D01*
X168247816Y-121315051D01*
X168276665Y-121294091D01*
X168419786Y-121190109D01*
X168419788Y-121190106D01*
X168419792Y-121190104D01*
X168570104Y-121039792D01*
X168570106Y-121039788D01*
X168570109Y-121039786D01*
X168695048Y-120867820D01*
X168695050Y-120867817D01*
X168695051Y-120867816D01*
X168791557Y-120678412D01*
X168857246Y-120476243D01*
X168890500Y-120266287D01*
X168890500Y-120053713D01*
X168857246Y-119843757D01*
X168791557Y-119641588D01*
X168695051Y-119452184D01*
X168695049Y-119452181D01*
X168695048Y-119452179D01*
X168570109Y-119280213D01*
X168419786Y-119129890D01*
X168247820Y-119004951D01*
X168247115Y-119004591D01*
X168239054Y-119000485D01*
X168188259Y-118952512D01*
X168171463Y-118884692D01*
X168193999Y-118818556D01*
X168239054Y-118779515D01*
X168247816Y-118775051D01*
X168307729Y-118731522D01*
X168419786Y-118650109D01*
X168419788Y-118650106D01*
X168419792Y-118650104D01*
X168570104Y-118499792D01*
X168570106Y-118499788D01*
X168570109Y-118499786D01*
X168695048Y-118327820D01*
X168695050Y-118327817D01*
X168695051Y-118327816D01*
X168791557Y-118138412D01*
X168857246Y-117936243D01*
X168890500Y-117726287D01*
X168890500Y-117513713D01*
X168857246Y-117303757D01*
X168791557Y-117101588D01*
X168695051Y-116912184D01*
X168695049Y-116912181D01*
X168695048Y-116912179D01*
X168570109Y-116740213D01*
X168419786Y-116589890D01*
X168247820Y-116464951D01*
X168247115Y-116464591D01*
X168239054Y-116460485D01*
X168188259Y-116412512D01*
X168171463Y-116344692D01*
X168193999Y-116278556D01*
X168239054Y-116239515D01*
X168247816Y-116235051D01*
X168269789Y-116219086D01*
X168419786Y-116110109D01*
X168419788Y-116110106D01*
X168419792Y-116110104D01*
X168570104Y-115959792D01*
X168570106Y-115959788D01*
X168570109Y-115959786D01*
X168695048Y-115787820D01*
X168695050Y-115787817D01*
X168695051Y-115787816D01*
X168791557Y-115598412D01*
X168857246Y-115396243D01*
X168890500Y-115186287D01*
X168890500Y-114973713D01*
X168857246Y-114763757D01*
X168791557Y-114561588D01*
X168695051Y-114372184D01*
X168695049Y-114372181D01*
X168695048Y-114372179D01*
X168570109Y-114200213D01*
X168419786Y-114049890D01*
X168247820Y-113924951D01*
X168247115Y-113924591D01*
X168239054Y-113920485D01*
X168188259Y-113872512D01*
X168171463Y-113804692D01*
X168193999Y-113738556D01*
X168239054Y-113699515D01*
X168247816Y-113695051D01*
X168287802Y-113666000D01*
X168419786Y-113570109D01*
X168419788Y-113570106D01*
X168419792Y-113570104D01*
X168570104Y-113419792D01*
X168570106Y-113419788D01*
X168570109Y-113419786D01*
X168695048Y-113247820D01*
X168695050Y-113247817D01*
X168695051Y-113247816D01*
X168791557Y-113058412D01*
X168857246Y-112856243D01*
X168890500Y-112646287D01*
X168890500Y-112433713D01*
X168857246Y-112223757D01*
X168791557Y-112021588D01*
X168695051Y-111832184D01*
X168695049Y-111832181D01*
X168695048Y-111832179D01*
X168570109Y-111660213D01*
X168419786Y-111509890D01*
X168247820Y-111384951D01*
X168246905Y-111384485D01*
X168239054Y-111380485D01*
X168188259Y-111332512D01*
X168171463Y-111264692D01*
X168193999Y-111198556D01*
X168239054Y-111159515D01*
X168247816Y-111155051D01*
X168269789Y-111139086D01*
X168419786Y-111030109D01*
X168419788Y-111030106D01*
X168419792Y-111030104D01*
X168570104Y-110879792D01*
X168570106Y-110879788D01*
X168570109Y-110879786D01*
X168695048Y-110707820D01*
X168695047Y-110707820D01*
X168695051Y-110707816D01*
X168791557Y-110518412D01*
X168857246Y-110316243D01*
X168890500Y-110106287D01*
X168890500Y-109893713D01*
X168857246Y-109683757D01*
X168791557Y-109481588D01*
X168695051Y-109292184D01*
X168695049Y-109292181D01*
X168695048Y-109292179D01*
X168570109Y-109120213D01*
X168419786Y-108969890D01*
X168247820Y-108844951D01*
X168058414Y-108748444D01*
X168058413Y-108748443D01*
X168058412Y-108748443D01*
X167856243Y-108682754D01*
X167856241Y-108682753D01*
X167856240Y-108682753D01*
X167694957Y-108657208D01*
X167646287Y-108649500D01*
X167433713Y-108649500D01*
X167385042Y-108657208D01*
X167223760Y-108682753D01*
X167021585Y-108748444D01*
X166832179Y-108844951D01*
X166660215Y-108969889D01*
X166546285Y-109083819D01*
X166484962Y-109117303D01*
X166415270Y-109112319D01*
X166359337Y-109070447D01*
X166342422Y-109039470D01*
X166293354Y-108907913D01*
X166293350Y-108907906D01*
X166207190Y-108792812D01*
X166207187Y-108792809D01*
X166092093Y-108706649D01*
X166092086Y-108706645D01*
X165957379Y-108656403D01*
X165957372Y-108656401D01*
X165897844Y-108650000D01*
X165250000Y-108650000D01*
X165250000Y-109566988D01*
X165192993Y-109534075D01*
X165065826Y-109500000D01*
X164934174Y-109500000D01*
X164807007Y-109534075D01*
X164750000Y-109566988D01*
X164750000Y-108650000D01*
X164102155Y-108650000D01*
X164042627Y-108656401D01*
X164042620Y-108656403D01*
X163907913Y-108706645D01*
X163907906Y-108706649D01*
X163792812Y-108792809D01*
X163792809Y-108792812D01*
X163706649Y-108907906D01*
X163706645Y-108907913D01*
X163656403Y-109042620D01*
X163656401Y-109042627D01*
X163650000Y-109102155D01*
X163650000Y-109750000D01*
X164566988Y-109750000D01*
X164534075Y-109807007D01*
X164500000Y-109934174D01*
X164500000Y-110065826D01*
X164534075Y-110192993D01*
X164566988Y-110250000D01*
X163650000Y-110250000D01*
X163650000Y-110897844D01*
X163656401Y-110957372D01*
X163656403Y-110957379D01*
X163706645Y-111092086D01*
X163706649Y-111092093D01*
X163792809Y-111207187D01*
X163792812Y-111207190D01*
X163907906Y-111293350D01*
X163907913Y-111293354D01*
X164039986Y-111342614D01*
X164095920Y-111384485D01*
X164120337Y-111449949D01*
X164105486Y-111518222D01*
X164084335Y-111546477D01*
X163970271Y-111660541D01*
X163845379Y-111832442D01*
X163748904Y-112021782D01*
X163683242Y-112223870D01*
X163683242Y-112223873D01*
X163672769Y-112290000D01*
X164566988Y-112290000D01*
X164534075Y-112347007D01*
X164500000Y-112474174D01*
X164500000Y-112605826D01*
X164534075Y-112732993D01*
X164566988Y-112790000D01*
X163672769Y-112790000D01*
X163683242Y-112856126D01*
X163683242Y-112856129D01*
X163748904Y-113058217D01*
X163845379Y-113247557D01*
X163970272Y-113419459D01*
X163970276Y-113419464D01*
X164120535Y-113569723D01*
X164120540Y-113569727D01*
X164292444Y-113694622D01*
X164302048Y-113699516D01*
X164352844Y-113747491D01*
X164369638Y-113815312D01*
X164347100Y-113881447D01*
X164302048Y-113920484D01*
X164292444Y-113925377D01*
X164120540Y-114050272D01*
X164120535Y-114050276D01*
X163970276Y-114200535D01*
X163970272Y-114200540D01*
X163845379Y-114372442D01*
X163748904Y-114561782D01*
X163683242Y-114763870D01*
X163683242Y-114763873D01*
X163672769Y-114830000D01*
X164566988Y-114830000D01*
X164534075Y-114887007D01*
X164500000Y-115014174D01*
X164500000Y-115145826D01*
X164534075Y-115272993D01*
X164566988Y-115330000D01*
X163672769Y-115330000D01*
X163683242Y-115396126D01*
X163683242Y-115396129D01*
X163748904Y-115598217D01*
X163845379Y-115787557D01*
X163970272Y-115959459D01*
X163970276Y-115959464D01*
X164120535Y-116109723D01*
X164120540Y-116109727D01*
X164292444Y-116234622D01*
X164302048Y-116239516D01*
X164352844Y-116287491D01*
X164369638Y-116355312D01*
X164347100Y-116421447D01*
X164302048Y-116460484D01*
X164292444Y-116465377D01*
X164120540Y-116590272D01*
X164120535Y-116590276D01*
X163970276Y-116740535D01*
X163970272Y-116740540D01*
X163845379Y-116912442D01*
X163748904Y-117101782D01*
X163683242Y-117303870D01*
X163683242Y-117303873D01*
X163672769Y-117370000D01*
X164566988Y-117370000D01*
X164534075Y-117427007D01*
X164500000Y-117554174D01*
X164500000Y-117685826D01*
X164534075Y-117812993D01*
X164566988Y-117870000D01*
X163672769Y-117870000D01*
X163683242Y-117936126D01*
X163683242Y-117936129D01*
X163748904Y-118138217D01*
X163845379Y-118327557D01*
X163970272Y-118499459D01*
X163970276Y-118499464D01*
X164120535Y-118649723D01*
X164120540Y-118649727D01*
X164292444Y-118774622D01*
X164302048Y-118779516D01*
X164352844Y-118827491D01*
X164369638Y-118895312D01*
X164347100Y-118961447D01*
X164302048Y-119000484D01*
X164292444Y-119005377D01*
X164120540Y-119130272D01*
X164120535Y-119130276D01*
X163970276Y-119280535D01*
X163970272Y-119280540D01*
X163845379Y-119452442D01*
X163748904Y-119641782D01*
X163683242Y-119843870D01*
X163683242Y-119843873D01*
X163672769Y-119910000D01*
X164566988Y-119910000D01*
X164534075Y-119967007D01*
X164500000Y-120094174D01*
X164500000Y-120225826D01*
X164534075Y-120352993D01*
X164566988Y-120410000D01*
X163672769Y-120410000D01*
X163683242Y-120476126D01*
X163683242Y-120476129D01*
X163748904Y-120678217D01*
X163845379Y-120867557D01*
X163970272Y-121039459D01*
X163970276Y-121039464D01*
X164120535Y-121189723D01*
X164120540Y-121189727D01*
X164292444Y-121314622D01*
X164302048Y-121319516D01*
X164352844Y-121367491D01*
X164369638Y-121435312D01*
X164347100Y-121501447D01*
X164302048Y-121540484D01*
X164292444Y-121545377D01*
X164120540Y-121670272D01*
X164120535Y-121670276D01*
X163970276Y-121820535D01*
X163970272Y-121820540D01*
X163845379Y-121992442D01*
X163748904Y-122181782D01*
X163683242Y-122383870D01*
X163683242Y-122383873D01*
X163672769Y-122450000D01*
X164566988Y-122450000D01*
X164534075Y-122507007D01*
X164500000Y-122634174D01*
X164500000Y-122765826D01*
X164534075Y-122892993D01*
X164566988Y-122950000D01*
X163672769Y-122950000D01*
X163683242Y-123016126D01*
X163683242Y-123016129D01*
X163748904Y-123218217D01*
X163845379Y-123407557D01*
X163970272Y-123579459D01*
X163970276Y-123579464D01*
X164120535Y-123729723D01*
X164120540Y-123729727D01*
X164292444Y-123854622D01*
X164302048Y-123859516D01*
X164352844Y-123907491D01*
X164369638Y-123975312D01*
X164347100Y-124041447D01*
X164302048Y-124080484D01*
X164292444Y-124085377D01*
X164120540Y-124210272D01*
X164120535Y-124210276D01*
X163970276Y-124360535D01*
X163970272Y-124360540D01*
X163845379Y-124532442D01*
X163748904Y-124721782D01*
X163683242Y-124923870D01*
X163683242Y-124923873D01*
X163672769Y-124990000D01*
X164566988Y-124990000D01*
X164534075Y-125047007D01*
X164500000Y-125174174D01*
X164500000Y-125305826D01*
X164534075Y-125432993D01*
X164566988Y-125490000D01*
X163672769Y-125490000D01*
X163683242Y-125556126D01*
X163683242Y-125556129D01*
X163748904Y-125758217D01*
X163845379Y-125947557D01*
X163970272Y-126119459D01*
X163970276Y-126119464D01*
X164120535Y-126269723D01*
X164120540Y-126269727D01*
X164292444Y-126394622D01*
X164302048Y-126399516D01*
X164352844Y-126447491D01*
X164369638Y-126515312D01*
X164347100Y-126581447D01*
X164302048Y-126620484D01*
X164292444Y-126625377D01*
X164120540Y-126750272D01*
X164120535Y-126750276D01*
X163970276Y-126900535D01*
X163970272Y-126900540D01*
X163845379Y-127072442D01*
X163748904Y-127261782D01*
X163683242Y-127463870D01*
X163683242Y-127463873D01*
X163672769Y-127530000D01*
X164566988Y-127530000D01*
X164534075Y-127587007D01*
X164500000Y-127714174D01*
X164500000Y-127845826D01*
X164534075Y-127972993D01*
X164566988Y-128030000D01*
X163672769Y-128030000D01*
X163683242Y-128096126D01*
X163683242Y-128096129D01*
X163748904Y-128298217D01*
X163845379Y-128487557D01*
X163970272Y-128659459D01*
X163970276Y-128659464D01*
X164120535Y-128809723D01*
X164120540Y-128809727D01*
X164292444Y-128934622D01*
X164302048Y-128939516D01*
X164352844Y-128987491D01*
X164369638Y-129055312D01*
X164347100Y-129121447D01*
X164302048Y-129160484D01*
X164292444Y-129165377D01*
X164120540Y-129290272D01*
X164120535Y-129290276D01*
X163970276Y-129440535D01*
X163970272Y-129440540D01*
X163845379Y-129612442D01*
X163748904Y-129801782D01*
X163704380Y-129938815D01*
X163664943Y-129996491D01*
X163600584Y-130023689D01*
X163531738Y-130011774D01*
X163498768Y-129988178D01*
X162704793Y-129194203D01*
X162671308Y-129132880D01*
X162670887Y-129130864D01*
X162648737Y-129019503D01*
X162588394Y-128873821D01*
X162525397Y-128779539D01*
X162504520Y-128712863D01*
X162504500Y-128710650D01*
X162504500Y-117784093D01*
X162504499Y-117784089D01*
X162493002Y-117726287D01*
X162480463Y-117663248D01*
X162433311Y-117549414D01*
X162433310Y-117549413D01*
X162433307Y-117549407D01*
X162364858Y-117446967D01*
X162364855Y-117446963D01*
X162274637Y-117356745D01*
X162274606Y-117356716D01*
X159046218Y-114128328D01*
X159012733Y-114067005D01*
X159017717Y-113997313D01*
X159046214Y-113952970D01*
X159151966Y-113847219D01*
X159165608Y-113828443D01*
X159193538Y-113790000D01*
X159272287Y-113681610D01*
X159365220Y-113499219D01*
X159428477Y-113304534D01*
X159460500Y-113102352D01*
X159460500Y-112897648D01*
X159428477Y-112695466D01*
X159412497Y-112646286D01*
X159380131Y-112546673D01*
X159365220Y-112500781D01*
X159365218Y-112500778D01*
X159365218Y-112500776D01*
X159317300Y-112406733D01*
X159272287Y-112318390D01*
X159254419Y-112293796D01*
X159151971Y-112152786D01*
X159007213Y-112008028D01*
X158841613Y-111887715D01*
X158841612Y-111887714D01*
X158841610Y-111887713D01*
X158784653Y-111858691D01*
X158659223Y-111794781D01*
X158464534Y-111731522D01*
X158289995Y-111703878D01*
X158262352Y-111699500D01*
X158057648Y-111699500D01*
X157998994Y-111708790D01*
X157855464Y-111731523D01*
X157820516Y-111742878D01*
X157750675Y-111744872D01*
X157690843Y-111708790D01*
X157660016Y-111646089D01*
X157658200Y-111624946D01*
X157658200Y-110564451D01*
X157677885Y-110497412D01*
X157694515Y-110476774D01*
X158558729Y-109612560D01*
X158558733Y-109612558D01*
X158645858Y-109525433D01*
X158714311Y-109422986D01*
X158714312Y-109422985D01*
X158714313Y-109422982D01*
X158714315Y-109422979D01*
X158714315Y-109422977D01*
X158735022Y-109372987D01*
X158761463Y-109309151D01*
X158769554Y-109268477D01*
X158784350Y-109194086D01*
X158797544Y-109168862D01*
X158807929Y-109142354D01*
X158814484Y-109136477D01*
X158816734Y-109132178D01*
X158833291Y-109117809D01*
X158839292Y-109113468D01*
X158841610Y-109112287D01*
X158998032Y-108998640D01*
X158998391Y-108998381D01*
X158998392Y-108998380D01*
X159007210Y-108991973D01*
X159007213Y-108991969D01*
X159007219Y-108991966D01*
X159151966Y-108847219D01*
X159151968Y-108847215D01*
X159151971Y-108847213D01*
X159204732Y-108774590D01*
X159272287Y-108681610D01*
X159365220Y-108499219D01*
X159428477Y-108304534D01*
X159460500Y-108102352D01*
X159460500Y-107897648D01*
X159428477Y-107695466D01*
X159365220Y-107500781D01*
X159365218Y-107500778D01*
X159365218Y-107500776D01*
X159331503Y-107434607D01*
X159272287Y-107318390D01*
X159264556Y-107307749D01*
X159151971Y-107152786D01*
X159007213Y-107008028D01*
X158841613Y-106887715D01*
X158841612Y-106887714D01*
X158841610Y-106887713D01*
X158784653Y-106858691D01*
X158659223Y-106794781D01*
X158464534Y-106731522D01*
X158289995Y-106703878D01*
X158262352Y-106699500D01*
X158057648Y-106699500D01*
X158033329Y-106703351D01*
X157855465Y-106731522D01*
X157660776Y-106794781D01*
X157478386Y-106887715D01*
X157312786Y-107008028D01*
X157168028Y-107152786D01*
X157047715Y-107318386D01*
X156954781Y-107500776D01*
X156891522Y-107695465D01*
X156859500Y-107897648D01*
X156859500Y-108102351D01*
X156891522Y-108304534D01*
X156954781Y-108499223D01*
X157011173Y-108609897D01*
X157034869Y-108656403D01*
X157047715Y-108681613D01*
X157168027Y-108847211D01*
X157168031Y-108847215D01*
X157168034Y-108847219D01*
X157228297Y-108907482D01*
X157273781Y-108952966D01*
X157307265Y-109014289D01*
X157302281Y-109083981D01*
X157273780Y-109128328D01*
X156633970Y-109768139D01*
X156546844Y-109855264D01*
X156546838Y-109855272D01*
X156478390Y-109957708D01*
X156478388Y-109957713D01*
X156459151Y-110004157D01*
X156459151Y-110004158D01*
X156431238Y-110071545D01*
X156431235Y-110071555D01*
X156407200Y-110192389D01*
X156407200Y-130739163D01*
X156387515Y-130806202D01*
X156334711Y-130851957D01*
X156265553Y-130861901D01*
X156226906Y-130849648D01*
X156119226Y-130794782D01*
X155924534Y-130731522D01*
X155749995Y-130703878D01*
X155722352Y-130699500D01*
X155517648Y-130699500D01*
X155493329Y-130703351D01*
X155315465Y-130731522D01*
X155120776Y-130794781D01*
X154938386Y-130887715D01*
X154772786Y-131008028D01*
X154628028Y-131152786D01*
X154507715Y-131318386D01*
X154414781Y-131500776D01*
X154351522Y-131695465D01*
X154319500Y-131897648D01*
X154319500Y-132102351D01*
X154351522Y-132304534D01*
X154414781Y-132499223D01*
X154461035Y-132590000D01*
X154500272Y-132667007D01*
X154507715Y-132681613D01*
X154628028Y-132847213D01*
X154772786Y-132991971D01*
X154927749Y-133104556D01*
X154938390Y-133112287D01*
X155016688Y-133152182D01*
X155031080Y-133159515D01*
X155081876Y-133207490D01*
X155098671Y-133275311D01*
X155076134Y-133341446D01*
X155031080Y-133380485D01*
X154938386Y-133427715D01*
X154772786Y-133548028D01*
X154628028Y-133692786D01*
X154507715Y-133858386D01*
X154414781Y-134040776D01*
X154351522Y-134235465D01*
X154319500Y-134437648D01*
X154319500Y-134642351D01*
X154351522Y-134844534D01*
X154414781Y-135039223D01*
X154472310Y-135152128D01*
X154507271Y-135220743D01*
X154507715Y-135221613D01*
X154610034Y-135362445D01*
X154633514Y-135428252D01*
X154617688Y-135496305D01*
X154597397Y-135523011D01*
X154334967Y-135785442D01*
X154077370Y-136043039D01*
X154077367Y-136043042D01*
X154036652Y-136083757D01*
X153990241Y-136130167D01*
X153975279Y-136152558D01*
X153975280Y-136152559D01*
X153921787Y-136232615D01*
X153911434Y-136257611D01*
X153897107Y-136292200D01*
X153874637Y-136346448D01*
X153850600Y-136467294D01*
X151300829Y-136467294D01*
X151424679Y-136415994D01*
X151451031Y-136398386D01*
X151511324Y-136358100D01*
X151528762Y-136346448D01*
X151555789Y-136328389D01*
X151667289Y-136216889D01*
X151754894Y-136085779D01*
X151815237Y-135940097D01*
X151846000Y-135785442D01*
X151846000Y-135627758D01*
X151846000Y-135627755D01*
X151845999Y-135627753D01*
X151835619Y-135575572D01*
X151815237Y-135473103D01*
X151812223Y-135465826D01*
X151754897Y-135327427D01*
X151754890Y-135327414D01*
X151667289Y-135196311D01*
X151667286Y-135196307D01*
X151555792Y-135084813D01*
X151555788Y-135084810D01*
X151424685Y-134997209D01*
X151424672Y-134997202D01*
X151279001Y-134936864D01*
X151278989Y-134936861D01*
X151124345Y-134906100D01*
X151124342Y-134906100D01*
X150966658Y-134906100D01*
X150966655Y-134906100D01*
X150812010Y-134936861D01*
X150811998Y-134936864D01*
X150666327Y-134997202D01*
X150666314Y-134997209D01*
X150535211Y-135084810D01*
X150535207Y-135084813D01*
X150423713Y-135196307D01*
X150423710Y-135196311D01*
X150336109Y-135327414D01*
X150336102Y-135327427D01*
X150275764Y-135473098D01*
X150275761Y-135473108D01*
X150253641Y-135584314D01*
X150221256Y-135646225D01*
X150219705Y-135647803D01*
X149353415Y-136514093D01*
X149292092Y-136547578D01*
X149222400Y-136542594D01*
X149166467Y-136500722D01*
X149155249Y-136482707D01*
X149128254Y-136429727D01*
X149112287Y-136398390D01*
X149010006Y-136257611D01*
X148986526Y-136191805D01*
X149002352Y-136123751D01*
X149022639Y-136097049D01*
X149525429Y-135594260D01*
X149525433Y-135594258D01*
X149612558Y-135507133D01*
X149657081Y-135440500D01*
X149681012Y-135404686D01*
X149723769Y-135301459D01*
X149728163Y-135290852D01*
X149742108Y-135220743D01*
X149752200Y-135170007D01*
X149752200Y-135046793D01*
X149752200Y-128037094D01*
X149728163Y-127916248D01*
X149712544Y-127878541D01*
X149681012Y-127802414D01*
X149637526Y-127737334D01*
X149612558Y-127699967D01*
X149612556Y-127699964D01*
X149522337Y-127609745D01*
X149522306Y-127609716D01*
X148988693Y-127076103D01*
X148955208Y-127014780D01*
X148954787Y-127012764D01*
X148932637Y-126901403D01*
X148888473Y-126794780D01*
X148872297Y-126755727D01*
X148872290Y-126755714D01*
X148784689Y-126624611D01*
X148784686Y-126624607D01*
X148673192Y-126513113D01*
X148673188Y-126513110D01*
X148542085Y-126425509D01*
X148542072Y-126425502D01*
X148396401Y-126365164D01*
X148396389Y-126365161D01*
X148241745Y-126334400D01*
X148241742Y-126334400D01*
X148084058Y-126334400D01*
X148084055Y-126334400D01*
X147929410Y-126365161D01*
X147929398Y-126365164D01*
X147783727Y-126425502D01*
X147783714Y-126425509D01*
X147691691Y-126486998D01*
X147625013Y-126507876D01*
X147557633Y-126489391D01*
X147510943Y-126437413D01*
X147498800Y-126383896D01*
X147498800Y-124424499D01*
X147518485Y-124357460D01*
X147571289Y-124311705D01*
X147622800Y-124300499D01*
X148847871Y-124300499D01*
X148847872Y-124300499D01*
X148907483Y-124294091D01*
X149042331Y-124243796D01*
X149157546Y-124157546D01*
X149243796Y-124042331D01*
X149294091Y-123907483D01*
X149300500Y-123847873D01*
X149300499Y-122152128D01*
X149294091Y-122092517D01*
X149285352Y-122069087D01*
X149243797Y-121957671D01*
X149243793Y-121957664D01*
X149157547Y-121842455D01*
X149157544Y-121842452D01*
X149042335Y-121756206D01*
X149042328Y-121756202D01*
X148907482Y-121705908D01*
X148907483Y-121705908D01*
X148847883Y-121699501D01*
X148847881Y-121699500D01*
X148847873Y-121699500D01*
X148847865Y-121699500D01*
X147622800Y-121699500D01*
X147555761Y-121679815D01*
X147510006Y-121627011D01*
X147498800Y-121575500D01*
X147498800Y-119424499D01*
X147518485Y-119357460D01*
X147571289Y-119311705D01*
X147622800Y-119300499D01*
X148847871Y-119300499D01*
X148847872Y-119300499D01*
X148907483Y-119294091D01*
X149042331Y-119243796D01*
X149157546Y-119157546D01*
X149243796Y-119042331D01*
X149294091Y-118907483D01*
X149300500Y-118847873D01*
X149300499Y-117152128D01*
X149294091Y-117092517D01*
X149275374Y-117042335D01*
X149243797Y-116957671D01*
X149243793Y-116957664D01*
X149157547Y-116842455D01*
X149157544Y-116842452D01*
X149042335Y-116756206D01*
X149042328Y-116756202D01*
X148907482Y-116705908D01*
X148907483Y-116705908D01*
X148847883Y-116699501D01*
X148847881Y-116699500D01*
X148847873Y-116699500D01*
X148847865Y-116699500D01*
X147622800Y-116699500D01*
X147555761Y-116679815D01*
X147510006Y-116627011D01*
X147498800Y-116575500D01*
X147498800Y-114424499D01*
X147518485Y-114357460D01*
X147571289Y-114311705D01*
X147622800Y-114300499D01*
X148847871Y-114300499D01*
X148847872Y-114300499D01*
X148907483Y-114294091D01*
X149042331Y-114243796D01*
X149157546Y-114157546D01*
X149243796Y-114042331D01*
X149294091Y-113907483D01*
X149300500Y-113847873D01*
X149300499Y-112152128D01*
X149294091Y-112092517D01*
X149274503Y-112040000D01*
X149243797Y-111957671D01*
X149243793Y-111957664D01*
X149157547Y-111842455D01*
X149157544Y-111842452D01*
X149042335Y-111756206D01*
X149042328Y-111756202D01*
X148907482Y-111705908D01*
X148907483Y-111705908D01*
X148847883Y-111699501D01*
X148847881Y-111699500D01*
X148847873Y-111699500D01*
X148847865Y-111699500D01*
X147729952Y-111699500D01*
X147662913Y-111679815D01*
X147617158Y-111627011D01*
X147607214Y-111557853D01*
X147636239Y-111494297D01*
X147642271Y-111487819D01*
X147770561Y-111359529D01*
X148221297Y-110908791D01*
X148282618Y-110875308D01*
X148284628Y-110874889D01*
X148395997Y-110852737D01*
X148541679Y-110792394D01*
X148672789Y-110704789D01*
X148784289Y-110593289D01*
X148871894Y-110462179D01*
X148932237Y-110316497D01*
X148963000Y-110161842D01*
X148963000Y-110004158D01*
X148963000Y-110004157D01*
X148963000Y-110004155D01*
X148962999Y-110004153D01*
X148941031Y-109893713D01*
X148932237Y-109849503D01*
X148908606Y-109792452D01*
X148871897Y-109703827D01*
X148871890Y-109703814D01*
X148784289Y-109572711D01*
X148784286Y-109572707D01*
X148723759Y-109512180D01*
X148690274Y-109450857D01*
X148695258Y-109381165D01*
X148737130Y-109325232D01*
X148802594Y-109300815D01*
X148811440Y-109300499D01*
X148847871Y-109300499D01*
X148847872Y-109300499D01*
X148907483Y-109294091D01*
X149042331Y-109243796D01*
X149157546Y-109157546D01*
X149243796Y-109042331D01*
X149294091Y-108907483D01*
X149300500Y-108847873D01*
X149300499Y-107152128D01*
X149294091Y-107092517D01*
X149243796Y-106957669D01*
X149243795Y-106957668D01*
X149243793Y-106957664D01*
X149157547Y-106842455D01*
X149157544Y-106842452D01*
X149042335Y-106756206D01*
X149042328Y-106756202D01*
X148907482Y-106705908D01*
X148907483Y-106705908D01*
X148847883Y-106699501D01*
X148847881Y-106699500D01*
X148847873Y-106699500D01*
X148847864Y-106699500D01*
X147152129Y-106699500D01*
X147152123Y-106699501D01*
X147092516Y-106705908D01*
X146957671Y-106756202D01*
X146957664Y-106756206D01*
X146842455Y-106842452D01*
X146842452Y-106842455D01*
X146756206Y-106957664D01*
X146756202Y-106957671D01*
X146705908Y-107092517D01*
X146699501Y-107152116D01*
X146699501Y-107152123D01*
X146699500Y-107152135D01*
X146699500Y-108847870D01*
X146699501Y-108847876D01*
X146705908Y-108907483D01*
X146756202Y-109042328D01*
X146756206Y-109042335D01*
X146842452Y-109157544D01*
X146842455Y-109157547D01*
X146957664Y-109243793D01*
X146957671Y-109243797D01*
X147092517Y-109294091D01*
X147092516Y-109294091D01*
X147099444Y-109294835D01*
X147152127Y-109300500D01*
X147513560Y-109300499D01*
X147580598Y-109320183D01*
X147626353Y-109372987D01*
X147636297Y-109442146D01*
X147607272Y-109505701D01*
X147601241Y-109512180D01*
X147540710Y-109572711D01*
X147453109Y-109703814D01*
X147453102Y-109703827D01*
X147392764Y-109849498D01*
X147392761Y-109849508D01*
X147370641Y-109960714D01*
X147338256Y-110022625D01*
X147336705Y-110024203D01*
X146474570Y-110886339D01*
X146387444Y-110973464D01*
X146387438Y-110973472D01*
X146318990Y-111075908D01*
X146318988Y-111075913D01*
X146289877Y-111146194D01*
X146289876Y-111146197D01*
X146286209Y-111155051D01*
X146271837Y-111189748D01*
X146247800Y-111310594D01*
X138858141Y-111310594D01*
X138890500Y-111106287D01*
X138890500Y-110893713D01*
X138857246Y-110683757D01*
X138791557Y-110481588D01*
X138695051Y-110292184D01*
X138695049Y-110292181D01*
X138695048Y-110292179D01*
X138570109Y-110120213D01*
X138419786Y-109969890D01*
X138247820Y-109844951D01*
X138058414Y-109748444D01*
X138058413Y-109748443D01*
X138058412Y-109748443D01*
X137856243Y-109682754D01*
X137856241Y-109682753D01*
X137856240Y-109682753D01*
X137694957Y-109657208D01*
X137646287Y-109649500D01*
X137433713Y-109649500D01*
X137370355Y-109659534D01*
X137223761Y-109682753D01*
X137223758Y-109682753D01*
X137223757Y-109682754D01*
X137199643Y-109690588D01*
X137151116Y-109706356D01*
X137081275Y-109708350D01*
X137021443Y-109672268D01*
X136990616Y-109609567D01*
X136988800Y-109588424D01*
X136988800Y-106073851D01*
X137008485Y-106006812D01*
X137025115Y-105986174D01*
X137398729Y-105612560D01*
X137398733Y-105612558D01*
X137485858Y-105525433D01*
X137554311Y-105422986D01*
X137554312Y-105422985D01*
X137574098Y-105375214D01*
X137574930Y-105373378D01*
X137596467Y-105348347D01*
X137617182Y-105322643D01*
X137619149Y-105321988D01*
X137620502Y-105320416D01*
X137652149Y-105311004D01*
X137683476Y-105300578D01*
X137687449Y-105300507D01*
X137687473Y-105300500D01*
X137687494Y-105300506D01*
X137687902Y-105300499D01*
X137847871Y-105300499D01*
X137847872Y-105300499D01*
X137907483Y-105294091D01*
X138042331Y-105243796D01*
X138157546Y-105157546D01*
X138243796Y-105042331D01*
X138294091Y-104907483D01*
X138300500Y-104847873D01*
X138300499Y-103897648D01*
X145859500Y-103897648D01*
X145859500Y-104102351D01*
X145891522Y-104304534D01*
X145954781Y-104499223D01*
X146018691Y-104624653D01*
X146030909Y-104648631D01*
X146047715Y-104681613D01*
X146168028Y-104847213D01*
X146312786Y-104991971D01*
X146444619Y-105087751D01*
X146478390Y-105112287D01*
X146567212Y-105157544D01*
X146660776Y-105205218D01*
X146660778Y-105205218D01*
X146660781Y-105205220D01*
X146732491Y-105228520D01*
X146855465Y-105268477D01*
X146912680Y-105277539D01*
X147057648Y-105300500D01*
X147057649Y-105300500D01*
X147262351Y-105300500D01*
X147262352Y-105300500D01*
X147464534Y-105268477D01*
X147659219Y-105205220D01*
X147841610Y-105112287D01*
X147937901Y-105042328D01*
X148007213Y-104991971D01*
X148007215Y-104991968D01*
X148007219Y-104991966D01*
X148151966Y-104847219D01*
X148151968Y-104847215D01*
X148151971Y-104847213D01*
X148213209Y-104762924D01*
X148272287Y-104681610D01*
X148365220Y-104499219D01*
X148428477Y-104304534D01*
X148460500Y-104102352D01*
X148460500Y-103897648D01*
X148452257Y-103845606D01*
X148428477Y-103695465D01*
X148383227Y-103556202D01*
X148365220Y-103500781D01*
X148365218Y-103500778D01*
X148365218Y-103500776D01*
X148331503Y-103434607D01*
X148272287Y-103318390D01*
X148264556Y-103307749D01*
X148151971Y-103152786D01*
X148007213Y-103008028D01*
X147841613Y-102887715D01*
X147841612Y-102887714D01*
X147841610Y-102887713D01*
X147784653Y-102858691D01*
X147659223Y-102794781D01*
X147464534Y-102731522D01*
X147289995Y-102703878D01*
X147262352Y-102699500D01*
X147057648Y-102699500D01*
X147033329Y-102703351D01*
X146855465Y-102731522D01*
X146660776Y-102794781D01*
X146478386Y-102887715D01*
X146312786Y-103008028D01*
X146168028Y-103152786D01*
X146047715Y-103318386D01*
X145954781Y-103500776D01*
X145891522Y-103695465D01*
X145859500Y-103897648D01*
X138300499Y-103897648D01*
X138300499Y-103152128D01*
X138294091Y-103092517D01*
X138243796Y-102957669D01*
X138243795Y-102957668D01*
X138243793Y-102957664D01*
X138157547Y-102842455D01*
X138157544Y-102842452D01*
X138042335Y-102756206D01*
X138042328Y-102756202D01*
X137907482Y-102705908D01*
X137907483Y-102705908D01*
X137847883Y-102699501D01*
X137847881Y-102699500D01*
X137847873Y-102699500D01*
X137847864Y-102699500D01*
X136152129Y-102699500D01*
X136152123Y-102699501D01*
X136092516Y-102705908D01*
X135957671Y-102756202D01*
X135957664Y-102756206D01*
X135842455Y-102842452D01*
X135842452Y-102842455D01*
X135756206Y-102957664D01*
X135756202Y-102957671D01*
X135709521Y-103082832D01*
X135667650Y-103138766D01*
X135602186Y-103163183D01*
X135533913Y-103148332D01*
X135505658Y-103127180D01*
X135386895Y-103008417D01*
X135221349Y-102888140D01*
X135039029Y-102795244D01*
X134844413Y-102732009D01*
X134790000Y-102723390D01*
X134790000Y-103684314D01*
X134785606Y-103679920D01*
X134694394Y-103627259D01*
X134592661Y-103600000D01*
X134487339Y-103600000D01*
X134385606Y-103627259D01*
X134294394Y-103679920D01*
X134290000Y-103684314D01*
X134290000Y-102723390D01*
X134235586Y-102732009D01*
X134040970Y-102795244D01*
X133858650Y-102888140D01*
X133693105Y-103008417D01*
X133693104Y-103008417D01*
X133548414Y-103153107D01*
X133521746Y-103189813D01*
X133466415Y-103232478D01*
X133396802Y-103238456D01*
X133335007Y-103205849D01*
X133300651Y-103145010D01*
X133298139Y-103130177D01*
X133294091Y-103092517D01*
X133243797Y-102957671D01*
X133243793Y-102957664D01*
X133157547Y-102842455D01*
X133157544Y-102842452D01*
X133042335Y-102756206D01*
X133042328Y-102756202D01*
X132907482Y-102705908D01*
X132907483Y-102705908D01*
X132847883Y-102699501D01*
X132847881Y-102699500D01*
X132847873Y-102699500D01*
X132847864Y-102699500D01*
X131152129Y-102699500D01*
X131152123Y-102699501D01*
X131092516Y-102705908D01*
X130957671Y-102756202D01*
X130957664Y-102756206D01*
X130842455Y-102842452D01*
X130842452Y-102842455D01*
X130756206Y-102957664D01*
X130756202Y-102957671D01*
X130705908Y-103092517D01*
X130700265Y-103145010D01*
X130699501Y-103152123D01*
X130699500Y-103152135D01*
X127990613Y-103152135D01*
X127846895Y-103008417D01*
X127681349Y-102888140D01*
X127499029Y-102795244D01*
X127304413Y-102732009D01*
X127250000Y-102723390D01*
X127250000Y-103684314D01*
X127245606Y-103679920D01*
X127154394Y-103627259D01*
X127052661Y-103600000D01*
X126947339Y-103600000D01*
X126845606Y-103627259D01*
X126754394Y-103679920D01*
X126750000Y-103684314D01*
X126750000Y-102723390D01*
X126695586Y-102732009D01*
X126500967Y-102795245D01*
X126319791Y-102887558D01*
X126251122Y-102900454D01*
X126186382Y-102874177D01*
X126164234Y-102851388D01*
X126157546Y-102842454D01*
X126157542Y-102842451D01*
X126042335Y-102756206D01*
X126042328Y-102756202D01*
X125907482Y-102705908D01*
X125907483Y-102705908D01*
X125847883Y-102699501D01*
X125847881Y-102699500D01*
X125847873Y-102699500D01*
X125847864Y-102699500D01*
X124152129Y-102699500D01*
X124152123Y-102699501D01*
X124092516Y-102705908D01*
X123957671Y-102756202D01*
X123957664Y-102756206D01*
X123842455Y-102842452D01*
X123842452Y-102842455D01*
X123756206Y-102957664D01*
X123756202Y-102957671D01*
X123705908Y-103092517D01*
X123700265Y-103145010D01*
X123699501Y-103152123D01*
X123699500Y-103152135D01*
X106500500Y-103152135D01*
X106500500Y-102828031D01*
X106466789Y-102485750D01*
X106399690Y-102148422D01*
X106299850Y-101819295D01*
X106168231Y-101501538D01*
X106006100Y-101198213D01*
X105815019Y-100912240D01*
X105596828Y-100646373D01*
X105596827Y-100646372D01*
X105596823Y-100646367D01*
X105462637Y-100512181D01*
X105429152Y-100450858D01*
X105434136Y-100381166D01*
X105476008Y-100325233D01*
X105541472Y-100300816D01*
X105550318Y-100300500D01*
X164449682Y-100300500D01*
X164470927Y-100306738D01*
G37*
%TD.AperFunction*%
%TD*%
M02*
