%TF.GenerationSoftware,KiCad,Pcbnew,9.0.7*%
%TF.CreationDate,2026-03-09T00:42:12+02:00*%
%TF.ProjectId,64korppu-E,36346b6f-7270-4707-952d-452e6b696361,rev?*%
%TF.SameCoordinates,Original*%
%TF.FileFunction,Copper,L3,Inr*%
%TF.FilePolarity,Positive*%
%FSLAX46Y46*%
G04 Gerber Fmt 4.6, Leading zero omitted, Abs format (unit mm)*
G04 Created by KiCad (PCBNEW 9.0.7) date 2026-03-09 00:42:12*
%MOMM*%
%LPD*%
G01*
G04 APERTURE LIST*
%TA.AperFunction,ComponentPad*%
%ADD10R,2.000000X2.000000*%
%TD*%
%TA.AperFunction,ComponentPad*%
%ADD11O,2.000000X2.000000*%
%TD*%
%TA.AperFunction,ComponentPad*%
%ADD12R,1.600000X1.600000*%
%TD*%
%TA.AperFunction,ComponentPad*%
%ADD13O,1.600000X1.600000*%
%TD*%
%TA.AperFunction,ComponentPad*%
%ADD14R,1.800000X1.800000*%
%TD*%
%TA.AperFunction,ComponentPad*%
%ADD15O,1.800000X1.800000*%
%TD*%
%TA.AperFunction,ComponentPad*%
%ADD16O,3.000000X2.000000*%
%TD*%
%TA.AperFunction,ComponentPad*%
%ADD17R,1.700000X1.700000*%
%TD*%
%TA.AperFunction,ComponentPad*%
%ADD18O,1.700000X1.700000*%
%TD*%
%TA.AperFunction,ComponentPad*%
%ADD19C,6.000000*%
%TD*%
%TA.AperFunction,ViaPad*%
%ADD20C,0.600000*%
%TD*%
%TA.AperFunction,Conductor*%
%ADD21C,0.250000*%
%TD*%
G04 APERTURE END LIST*
D10*
%TO.N,+5V*%
%TO.C,J3*%
X111000000Y-105000000D03*
D11*
X117000000Y-105000000D03*
%TO.N,GND*%
X114000000Y-110000000D03*
%TD*%
D12*
%TO.N,+5V*%
%TO.C,C4*%
X125000000Y-104000000D03*
D13*
%TO.N,GND*%
X127000000Y-104000000D03*
%TD*%
D14*
%TO.N,GND*%
%TO.C,J1*%
X110500000Y-155000000D03*
D15*
X117500000Y-155000000D03*
%TO.N,IEC_ATN*%
X109000000Y-151000000D03*
%TO.N,IEC_CLK*%
X114000000Y-147000000D03*
%TO.N,IEC_DATA*%
X119000000Y-151000000D03*
%TO.N,IEC_RESET*%
X114000000Y-151000000D03*
D16*
%TO.N,GND*%
X106500000Y-151000000D03*
X121500000Y-151000000D03*
%TD*%
D12*
%TO.N,IEC_ATN*%
%TO.C,R1*%
X108000000Y-116000000D03*
D13*
%TO.N,NANO_D2*%
X118160000Y-116000000D03*
%TD*%
D12*
%TO.N,IEC_CLK*%
%TO.C,R2*%
X108000000Y-120000000D03*
D13*
%TO.N,NANO_D3*%
X118160000Y-120000000D03*
%TD*%
D12*
%TO.N,IEC_DATA*%
%TO.C,R3*%
X108000000Y-124000000D03*
D13*
%TO.N,NANO_D4*%
X118160000Y-124000000D03*
%TD*%
D12*
%TO.N,IEC_RESET*%
%TO.C,R4*%
X108000000Y-128000000D03*
D13*
%TO.N,NANO_D5*%
X118160000Y-128000000D03*
%TD*%
D12*
%TO.N,+5V*%
%TO.C,R5*%
X108000000Y-132000000D03*
D13*
%TO.N,NANO_D2*%
X118160000Y-132000000D03*
%TD*%
D12*
%TO.N,+5V*%
%TO.C,R6*%
X108000000Y-136000000D03*
D13*
%TO.N,NANO_D3*%
X118160000Y-136000000D03*
%TD*%
D12*
%TO.N,+5V*%
%TO.C,R7*%
X108000000Y-140000000D03*
D13*
%TO.N,NANO_D4*%
X118160000Y-140000000D03*
%TD*%
D17*
%TO.N,N/C*%
%TO.C,U1*%
X135000000Y-111000000D03*
D18*
X137540000Y-111000000D03*
X135000000Y-113540000D03*
%TO.N,GND*%
X137540000Y-113540000D03*
%TO.N,N/C*%
X135000000Y-116080000D03*
X137540000Y-116080000D03*
%TO.N,GND*%
X135000000Y-118620000D03*
%TO.N,+5V*%
X137540000Y-118620000D03*
%TO.N,NANO_D2*%
X135000000Y-121160000D03*
%TO.N,N/C*%
X137540000Y-121160000D03*
%TO.N,NANO_D3*%
X135000000Y-123700000D03*
%TO.N,N/C*%
X137540000Y-123700000D03*
%TO.N,NANO_D4*%
X135000000Y-126240000D03*
%TO.N,LED_ANODE*%
X137540000Y-126240000D03*
%TO.N,NANO_D5*%
X135000000Y-128780000D03*
%TO.N,N/C*%
X137540000Y-128780000D03*
%TO.N,LATCH_595*%
X135000000Y-131320000D03*
%TO.N,N/C*%
X137540000Y-131320000D03*
%TO.N,FLOPPY_WDATA*%
X135000000Y-133860000D03*
%TO.N,FLOPPY_DSKCHG*%
X137540000Y-133860000D03*
%TO.N,FLOPPY_RDATA*%
X135000000Y-136400000D03*
%TO.N,FLOPPY_WPT*%
X137540000Y-136400000D03*
%TO.N,N/C*%
X135000000Y-138940000D03*
%TO.N,FLOPPY_TRK00*%
X137540000Y-138940000D03*
%TO.N,SPI_CS_SRAM*%
X135000000Y-141480000D03*
%TO.N,N/C*%
X137540000Y-141480000D03*
%TO.N,SPI_MOSI*%
X135000000Y-144020000D03*
%TO.N,N/C*%
X137540000Y-144020000D03*
%TO.N,SPI_MISO*%
X135000000Y-146560000D03*
%TO.N,SPI_SCK*%
X137540000Y-146560000D03*
%TD*%
D12*
%TO.N,SPI_CS_SRAM*%
%TO.C,U2*%
X125000000Y-150000000D03*
D13*
%TO.N,SPI_MISO*%
X125000000Y-152540000D03*
%TO.N,N/C*%
X125000000Y-155080000D03*
%TO.N,GND*%
X125000000Y-157620000D03*
%TO.N,SPI_MOSI*%
X132620000Y-157620000D03*
%TO.N,SPI_SCK*%
X132620000Y-155080000D03*
%TO.N,+5V*%
X132620000Y-152540000D03*
X132620000Y-150000000D03*
%TD*%
D12*
%TO.N,FLOPPY_DENSITY*%
%TO.C,U3*%
X148000000Y-132000000D03*
D13*
%TO.N,FLOPPY_MOTEA*%
X148000000Y-134540000D03*
%TO.N,FLOPPY_DRVSEL*%
X148000000Y-137080000D03*
%TO.N,FLOPPY_MOTOR*%
X148000000Y-139620000D03*
%TO.N,FLOPPY_DIR*%
X148000000Y-142160000D03*
%TO.N,FLOPPY_STEP*%
X148000000Y-144700000D03*
%TO.N,FLOPPY_WGATE*%
X148000000Y-147240000D03*
%TO.N,GND*%
X148000000Y-149780000D03*
%TO.N,N/C*%
X155620000Y-149780000D03*
%TO.N,+5V*%
X155620000Y-147240000D03*
%TO.N,SPI_SCK*%
X155620000Y-144700000D03*
%TO.N,LATCH_595*%
X155620000Y-142160000D03*
%TO.N,GND*%
X155620000Y-139620000D03*
%TO.N,SPI_MOSI*%
X155620000Y-137080000D03*
%TO.N,FLOPPY_SIDE1*%
X155620000Y-134540000D03*
%TO.N,+5V*%
X155620000Y-132000000D03*
%TD*%
D17*
%TO.N,GND*%
%TO.C,J2*%
X165000000Y-110000000D03*
D18*
%TO.N,FLOPPY_DENSITY*%
X167540000Y-110000000D03*
%TO.N,GND*%
X165000000Y-112540000D03*
%TO.N,N/C*%
X167540000Y-112540000D03*
%TO.N,GND*%
X165000000Y-115080000D03*
%TO.N,N/C*%
X167540000Y-115080000D03*
%TO.N,GND*%
X165000000Y-117620000D03*
%TO.N,N/C*%
X167540000Y-117620000D03*
%TO.N,GND*%
X165000000Y-120160000D03*
%TO.N,FLOPPY_MOTEA*%
X167540000Y-120160000D03*
%TO.N,GND*%
X165000000Y-122700000D03*
%TO.N,FLOPPY_DRVSEL*%
X167540000Y-122700000D03*
%TO.N,GND*%
X165000000Y-125240000D03*
%TO.N,N/C*%
X167540000Y-125240000D03*
%TO.N,GND*%
X165000000Y-127780000D03*
%TO.N,FLOPPY_MOTOR*%
X167540000Y-127780000D03*
%TO.N,GND*%
X165000000Y-130320000D03*
%TO.N,FLOPPY_DIR*%
X167540000Y-130320000D03*
%TO.N,GND*%
X165000000Y-132860000D03*
%TO.N,FLOPPY_STEP*%
X167540000Y-132860000D03*
%TO.N,GND*%
X165000000Y-135400000D03*
%TO.N,FLOPPY_WDATA*%
X167540000Y-135400000D03*
%TO.N,GND*%
X165000000Y-137940000D03*
%TO.N,FLOPPY_WGATE*%
X167540000Y-137940000D03*
%TO.N,GND*%
X165000000Y-140480000D03*
%TO.N,FLOPPY_TRK00*%
X167540000Y-140480000D03*
%TO.N,GND*%
X165000000Y-143020000D03*
%TO.N,FLOPPY_WPT*%
X167540000Y-143020000D03*
%TO.N,GND*%
X165000000Y-145560000D03*
%TO.N,FLOPPY_RDATA*%
X167540000Y-145560000D03*
%TO.N,GND*%
X165000000Y-148100000D03*
%TO.N,FLOPPY_SIDE1*%
X167540000Y-148100000D03*
%TO.N,GND*%
X165000000Y-150640000D03*
%TO.N,FLOPPY_DSKCHG*%
X167540000Y-150640000D03*
%TD*%
D12*
%TO.N,LED_ANODE*%
%TO.C,R8*%
X137000000Y-104000000D03*
D13*
%TO.N,LED_CATHODE*%
X147160000Y-104000000D03*
%TD*%
D12*
%TO.N,LED_CATHODE*%
%TO.C,D1*%
X132000000Y-104000000D03*
D13*
%TO.N,GND*%
X134540000Y-104000000D03*
%TD*%
D12*
%TO.N,+5V*%
%TO.C,R9*%
X148000000Y-108000000D03*
D13*
%TO.N,FLOPPY_TRK00*%
X158160000Y-108000000D03*
%TD*%
D12*
%TO.N,+5V*%
%TO.C,R10*%
X148000000Y-113000000D03*
D13*
%TO.N,FLOPPY_WPT*%
X158160000Y-113000000D03*
%TD*%
D12*
%TO.N,+5V*%
%TO.C,R11*%
X148000000Y-118000000D03*
D13*
%TO.N,FLOPPY_RDATA*%
X158160000Y-118000000D03*
%TD*%
D12*
%TO.N,+5V*%
%TO.C,R12*%
X148000000Y-123000000D03*
D13*
%TO.N,FLOPPY_DSKCHG*%
X158160000Y-123000000D03*
%TD*%
D12*
%TO.N,+5V*%
%TO.C,C1*%
X136000000Y-151000000D03*
D13*
%TO.N,GND*%
X141000000Y-151000000D03*
%TD*%
D12*
%TO.N,+5V*%
%TO.C,C2*%
X136000000Y-157000000D03*
D13*
%TO.N,GND*%
X141000000Y-157000000D03*
%TD*%
D12*
%TO.N,+5V*%
%TO.C,C3*%
X148000000Y-156000000D03*
D13*
%TO.N,GND*%
X153000000Y-156000000D03*
%TD*%
D19*
%TO.N,N/C*%
%TO.C,H1*%
X103000000Y-103000000D03*
%TD*%
%TO.N,N/C*%
%TO.C,H2*%
X167000000Y-103000000D03*
%TD*%
%TO.N,N/C*%
%TO.C,H3*%
X103000000Y-157000000D03*
%TD*%
%TO.N,N/C*%
%TO.C,H4*%
X167000000Y-157000000D03*
%TD*%
D20*
%TO.N,LATCH_595*%
X136176700Y-140230000D03*
%TO.N,FLOPPY_RDATA*%
X158854200Y-126053800D03*
%TO.N,FLOPPY_TRK00*%
X157128500Y-138406400D03*
%TO.N,FLOPPY_WPT*%
X161879000Y-129253000D03*
%TO.N,FLOPPY_DENSITY*%
X148162500Y-110083000D03*
%TO.N,FLOPPY_DRVSEL*%
X148162900Y-127134900D03*
%TO.N,FLOPPY_MOTOR*%
X151045500Y-135706600D03*
%TO.N,FLOPPY_SIDE1*%
X157251200Y-146067500D03*
%TD*%
D21*
%TO.N,SPI_MOSI*%
X147681700Y-138344800D02*
X151305900Y-138344800D01*
X151305900Y-138344800D02*
X152570700Y-137080000D01*
X143183200Y-142843300D02*
X147681700Y-138344800D01*
X135000000Y-144020000D02*
X136176700Y-144020000D01*
X152570700Y-137080000D02*
X155620000Y-137080000D01*
X136176700Y-143652200D02*
X136985600Y-142843300D01*
X136176700Y-144020000D02*
X136176700Y-143652200D01*
X136985600Y-142843300D02*
X143183200Y-142843300D01*
%TO.N,SPI_MISO*%
X126126700Y-152540000D02*
X132106700Y-146560000D01*
X125000000Y-152540000D02*
X126126700Y-152540000D01*
X132106700Y-146560000D02*
X135000000Y-146560000D01*
%TO.N,SPI_SCK*%
X153120900Y-146072400D02*
X139204300Y-146072400D01*
X155620000Y-144700000D02*
X154493300Y-144700000D01*
X154493300Y-144700000D02*
X153120900Y-146072400D01*
X137540000Y-146560000D02*
X138716700Y-146560000D01*
X139204300Y-146072400D02*
X138716700Y-146560000D01*
%TO.N,SPI_CS_SRAM*%
X135000000Y-141480000D02*
X133823300Y-141480000D01*
X125000000Y-150000000D02*
X126126700Y-150000000D01*
X133823300Y-142303400D02*
X126126700Y-150000000D01*
X133823300Y-141480000D02*
X133823300Y-142303400D01*
%TO.N,NANO_D2*%
X118160000Y-116000000D02*
X128663300Y-116000000D01*
X128663300Y-116000000D02*
X133823300Y-121160000D01*
X135000000Y-121160000D02*
X133823300Y-121160000D01*
%TO.N,NANO_D3*%
X118160000Y-120000000D02*
X119286700Y-120000000D01*
X119286700Y-120000000D02*
X122986700Y-123700000D01*
X122986700Y-123700000D02*
X135000000Y-123700000D01*
%TO.N,NANO_D4*%
X135000000Y-126240000D02*
X121526700Y-126240000D01*
X121526700Y-126240000D02*
X119286700Y-124000000D01*
X118160000Y-124000000D02*
X119286700Y-124000000D01*
%TO.N,NANO_D5*%
X118160000Y-128000000D02*
X133043300Y-128000000D01*
X133043300Y-128000000D02*
X133823300Y-128780000D01*
X135000000Y-128780000D02*
X133823300Y-128780000D01*
%TO.N,FLOPPY_RDATA*%
X136176700Y-136400000D02*
X136176700Y-136032200D01*
X136176700Y-136032200D02*
X136985600Y-135223300D01*
X140970300Y-135223300D02*
X150139800Y-126053800D01*
X136985600Y-135223300D02*
X140970300Y-135223300D01*
X135000000Y-136400000D02*
X136176700Y-136400000D01*
X150139800Y-126053800D02*
X158854200Y-126053800D01*
%TO.N,FLOPPY_WPT*%
X151917000Y-133270000D02*
X149376300Y-135810700D01*
X137540000Y-136400000D02*
X138716700Y-136400000D01*
X157862000Y-133270000D02*
X151917000Y-133270000D01*
X139306000Y-135810700D02*
X138716700Y-136400000D01*
X149376300Y-135810700D02*
X139306000Y-135810700D01*
X161879000Y-129253000D02*
X157862000Y-133270000D01*
%TO.N,FLOPPY_DSKCHG*%
X158160000Y-123000000D02*
X150132400Y-123000000D01*
X139272400Y-133860000D02*
X138716700Y-133860000D01*
X150132400Y-123000000D02*
X139272400Y-133860000D01*
X137540000Y-133860000D02*
X138716700Y-133860000D01*
%TO.N,FLOPPY_DENSITY*%
X165976500Y-111195800D02*
X149275300Y-111195800D01*
X149275300Y-111195800D02*
X148162500Y-110083000D01*
X167540000Y-110000000D02*
X166363300Y-110000000D01*
X166363300Y-110809000D02*
X165976500Y-111195800D01*
X166363300Y-110000000D02*
X166363300Y-110809000D01*
%TO.N,FLOPPY_MOTEA*%
X167907700Y-121336700D02*
X168773600Y-122202600D01*
X168773600Y-123138500D02*
X168035400Y-123876700D01*
X167540000Y-121336700D02*
X167907700Y-121336700D01*
X155901500Y-130445600D02*
X153221100Y-130445600D01*
X168035400Y-123876700D02*
X167224400Y-123876700D01*
X167224400Y-123876700D02*
X166270000Y-124831100D01*
X167540000Y-120160000D02*
X167540000Y-121336700D01*
X166270000Y-124831100D02*
X166270000Y-125670800D01*
X165430800Y-126510000D02*
X159837100Y-126510000D01*
X159837100Y-126510000D02*
X155901500Y-130445600D01*
X166270000Y-125670800D02*
X165430800Y-126510000D01*
X153221100Y-130445600D02*
X149126700Y-134540000D01*
X168773600Y-122202600D02*
X168773600Y-123138500D01*
X148000000Y-134540000D02*
X149126700Y-134540000D01*
%TO.N,FLOPPY_DRVSEL*%
X167540000Y-122700000D02*
X166363300Y-122700000D01*
X166363300Y-122700000D02*
X166363300Y-123067800D01*
X159122300Y-124899500D02*
X150398300Y-124899500D01*
X160145100Y-123876700D02*
X159122300Y-124899500D01*
X165554400Y-123876700D02*
X160145100Y-123876700D01*
X150398300Y-124899500D02*
X148162900Y-127134900D01*
X166363300Y-123067800D02*
X165554400Y-123876700D01*
%TO.N,FLOPPY_MOTOR*%
X163061600Y-128956700D02*
X165554400Y-128956700D01*
X156311700Y-135706600D02*
X163061600Y-128956700D01*
X166363300Y-128147800D02*
X166363300Y-127780000D01*
X165554400Y-128956700D02*
X166363300Y-128147800D01*
X167540000Y-127780000D02*
X166363300Y-127780000D01*
X151045500Y-135706600D02*
X156311700Y-135706600D01*
%TO.N,FLOPPY_DIR*%
X167540000Y-130320000D02*
X166363300Y-130320000D01*
X165554400Y-131496700D02*
X162808300Y-131496700D01*
X166363300Y-130687800D02*
X165554400Y-131496700D01*
X148000000Y-142160000D02*
X149126700Y-142160000D01*
X152936700Y-138350000D02*
X149126700Y-142160000D01*
X155955000Y-138350000D02*
X152936700Y-138350000D01*
X166363300Y-130320000D02*
X166363300Y-130687800D01*
X162808300Y-131496700D02*
X155955000Y-138350000D01*
%TO.N,FLOPPY_STEP*%
X156076000Y-140802400D02*
X162841700Y-134036700D01*
X166363300Y-133227800D02*
X166363300Y-132860000D01*
X165554400Y-134036700D02*
X166363300Y-133227800D01*
X162841700Y-134036700D02*
X165554400Y-134036700D01*
X148000000Y-144700000D02*
X149126700Y-144700000D01*
X153024300Y-140802400D02*
X156076000Y-140802400D01*
X167540000Y-132860000D02*
X166363300Y-132860000D01*
X149126700Y-144700000D02*
X153024300Y-140802400D01*
%TO.N,FLOPPY_WGATE*%
X153777400Y-147240000D02*
X155047400Y-145970000D01*
X148000000Y-147240000D02*
X153777400Y-147240000D01*
X167540000Y-137940000D02*
X166363300Y-137940000D01*
X162885500Y-139116700D02*
X165554400Y-139116700D01*
X156032200Y-145970000D02*
X162885500Y-139116700D01*
X166363300Y-138307800D02*
X166363300Y-137940000D01*
X155047400Y-145970000D02*
X156032200Y-145970000D01*
X165554400Y-139116700D02*
X166363300Y-138307800D01*
%TO.N,FLOPPY_SIDE1*%
X166363300Y-147732200D02*
X166363300Y-148100000D01*
X167540000Y-148100000D02*
X166363300Y-148100000D01*
X158107000Y-146923300D02*
X165554400Y-146923300D01*
X157251200Y-146067500D02*
X158107000Y-146923300D01*
X165554400Y-146923300D02*
X166363300Y-147732200D01*
%TO.N,LED_CATHODE*%
X133126700Y-104281800D02*
X133971600Y-105126700D01*
X147160000Y-104000000D02*
X146033300Y-104000000D01*
X144906600Y-105126700D02*
X146033300Y-104000000D01*
X133971600Y-105126700D02*
X144906600Y-105126700D01*
X133126700Y-104000000D02*
X133126700Y-104281800D01*
X132000000Y-104000000D02*
X133126700Y-104000000D01*
%TD*%
%TA.AperFunction,Conductor*%
%TO.N,+5V*%
G36*
X154511672Y-131090785D02*
G01*
X154557427Y-131143589D01*
X154567371Y-131212747D01*
X154544951Y-131267986D01*
X154508140Y-131318650D01*
X154415244Y-131500970D01*
X154352009Y-131695586D01*
X154343391Y-131750000D01*
X155304314Y-131750000D01*
X155299920Y-131754394D01*
X155247259Y-131845606D01*
X155220000Y-131947339D01*
X155220000Y-132052661D01*
X155247259Y-132154394D01*
X155299920Y-132245606D01*
X155304314Y-132250000D01*
X154343391Y-132250000D01*
X154352009Y-132304413D01*
X154409770Y-132482182D01*
X154411765Y-132552023D01*
X154375685Y-132611856D01*
X154312984Y-132642684D01*
X154291839Y-132644500D01*
X152206152Y-132644500D01*
X152139113Y-132624815D01*
X152093358Y-132572011D01*
X152083414Y-132502853D01*
X152112439Y-132439297D01*
X152118471Y-132432819D01*
X153443871Y-131107419D01*
X153505194Y-131073934D01*
X153531552Y-131071100D01*
X154444633Y-131071100D01*
X154511672Y-131090785D01*
G37*
%TD.AperFunction*%
%TA.AperFunction,Conductor*%
G36*
X163645731Y-127143425D02*
G01*
X163673451Y-127148223D01*
X163678805Y-127153137D01*
X163685779Y-127155185D01*
X163704200Y-127176444D01*
X163724927Y-127195467D01*
X163726774Y-127202496D01*
X163731534Y-127207989D01*
X163735537Y-127235835D01*
X163742689Y-127263041D01*
X163740919Y-127273264D01*
X163741478Y-127277147D01*
X163736671Y-127297818D01*
X163682753Y-127463759D01*
X163657223Y-127624951D01*
X163649500Y-127673713D01*
X163649500Y-127886287D01*
X163651705Y-127900208D01*
X163682753Y-128096240D01*
X163706356Y-128168882D01*
X163708351Y-128238723D01*
X163672270Y-128298556D01*
X163609569Y-128329384D01*
X163588425Y-128331200D01*
X162999993Y-128331200D01*
X162984352Y-128334311D01*
X162984351Y-128334310D01*
X162879154Y-128355235D01*
X162879145Y-128355237D01*
X162849838Y-128367377D01*
X162849834Y-128367378D01*
X162845807Y-128369047D01*
X162765314Y-128402388D01*
X162729159Y-128426547D01*
X162722665Y-128430885D01*
X162722659Y-128430889D01*
X162662868Y-128470840D01*
X162634490Y-128499219D01*
X162575742Y-128557967D01*
X162575738Y-128557971D01*
X162529110Y-128604598D01*
X162467787Y-128638082D01*
X162398095Y-128633097D01*
X162372539Y-128620018D01*
X162258185Y-128543609D01*
X162258172Y-128543602D01*
X162112501Y-128483264D01*
X162112489Y-128483261D01*
X161957845Y-128452500D01*
X161957842Y-128452500D01*
X161800158Y-128452500D01*
X161800155Y-128452500D01*
X161645510Y-128483261D01*
X161645498Y-128483264D01*
X161499827Y-128543602D01*
X161499814Y-128543609D01*
X161368711Y-128631210D01*
X161368707Y-128631213D01*
X161257213Y-128742707D01*
X161257210Y-128742711D01*
X161169609Y-128873814D01*
X161169602Y-128873827D01*
X161109264Y-129019498D01*
X161109261Y-129019508D01*
X161087141Y-129130714D01*
X161054756Y-129192625D01*
X161053205Y-129194203D01*
X157639229Y-132608181D01*
X157577906Y-132641666D01*
X157551548Y-132644500D01*
X156948161Y-132644500D01*
X156881122Y-132624815D01*
X156835367Y-132572011D01*
X156825423Y-132502853D01*
X156830230Y-132482182D01*
X156887990Y-132304413D01*
X156896609Y-132250000D01*
X155935686Y-132250000D01*
X155940080Y-132245606D01*
X155992741Y-132154394D01*
X156020000Y-132052661D01*
X156020000Y-131947339D01*
X155992741Y-131845606D01*
X155940080Y-131754394D01*
X155935686Y-131750000D01*
X156896609Y-131750000D01*
X156887990Y-131695586D01*
X156824755Y-131500970D01*
X156731859Y-131318650D01*
X156611582Y-131153105D01*
X156611582Y-131153104D01*
X156466895Y-131008417D01*
X156466891Y-131008414D01*
X156443246Y-130991234D01*
X156400581Y-130935903D01*
X156394603Y-130866289D01*
X156427210Y-130804495D01*
X156428378Y-130803310D01*
X160059871Y-127171819D01*
X160121194Y-127138334D01*
X160147552Y-127135500D01*
X163618740Y-127135500D01*
X163645731Y-127143425D01*
G37*
%TD.AperFunction*%
%TA.AperFunction,Conductor*%
G36*
X132870000Y-152224314D02*
G01*
X132865606Y-152219920D01*
X132774394Y-152167259D01*
X132672661Y-152140000D01*
X132567339Y-152140000D01*
X132465606Y-152167259D01*
X132374394Y-152219920D01*
X132370000Y-152224314D01*
X132370000Y-150315686D01*
X132374394Y-150320080D01*
X132465606Y-150372741D01*
X132567339Y-150400000D01*
X132672661Y-150400000D01*
X132774394Y-150372741D01*
X132865606Y-150320080D01*
X132870000Y-150315686D01*
X132870000Y-152224314D01*
G37*
%TD.AperFunction*%
%TA.AperFunction,Conductor*%
G36*
X164470927Y-100306738D02*
G01*
X164493016Y-100308318D01*
X164503799Y-100316390D01*
X164516721Y-100320185D01*
X164531220Y-100336918D01*
X164548949Y-100350190D01*
X164553656Y-100362810D01*
X164562476Y-100372989D01*
X164565627Y-100394906D01*
X164573366Y-100415654D01*
X164570503Y-100428814D01*
X164572420Y-100442147D01*
X164563220Y-100462290D01*
X164558514Y-100483927D01*
X164545245Y-100501652D01*
X164543395Y-100505703D01*
X164537363Y-100512181D01*
X164403176Y-100646367D01*
X164184985Y-100912234D01*
X164184975Y-100912248D01*
X163993904Y-101198206D01*
X163993893Y-101198224D01*
X163831772Y-101501530D01*
X163831770Y-101501535D01*
X163700150Y-101819293D01*
X163600308Y-102148427D01*
X163533210Y-102485750D01*
X163511528Y-102705908D01*
X163499500Y-102828031D01*
X163499500Y-103171969D01*
X163502764Y-103205108D01*
X163533210Y-103514249D01*
X163600308Y-103851572D01*
X163700150Y-104180706D01*
X163757881Y-104320080D01*
X163801007Y-104424197D01*
X163831770Y-104498464D01*
X163831772Y-104498469D01*
X163993893Y-104801775D01*
X163993904Y-104801793D01*
X164184975Y-105087751D01*
X164184985Y-105087765D01*
X164403176Y-105353632D01*
X164646367Y-105596823D01*
X164646372Y-105596827D01*
X164646373Y-105596828D01*
X164912240Y-105815019D01*
X165198213Y-106006100D01*
X165198222Y-106006105D01*
X165198224Y-106006106D01*
X165501530Y-106168227D01*
X165501532Y-106168227D01*
X165501538Y-106168231D01*
X165819295Y-106299850D01*
X166148422Y-106399690D01*
X166485750Y-106466789D01*
X166828031Y-106500500D01*
X166828034Y-106500500D01*
X167171966Y-106500500D01*
X167171969Y-106500500D01*
X167514250Y-106466789D01*
X167851578Y-106399690D01*
X168180705Y-106299850D01*
X168498462Y-106168231D01*
X168801787Y-106006100D01*
X169087760Y-105815019D01*
X169353627Y-105596828D01*
X169408983Y-105541472D01*
X169487819Y-105462637D01*
X169549142Y-105429152D01*
X169618834Y-105434136D01*
X169674767Y-105476008D01*
X169699184Y-105541472D01*
X169699500Y-105550318D01*
X169699500Y-154449682D01*
X169679815Y-154516721D01*
X169627011Y-154562476D01*
X169557853Y-154572420D01*
X169494297Y-154543395D01*
X169487819Y-154537363D01*
X169353632Y-154403176D01*
X169087765Y-154184985D01*
X169087764Y-154184984D01*
X169087760Y-154184981D01*
X168801787Y-153993900D01*
X168801782Y-153993897D01*
X168801775Y-153993893D01*
X168498469Y-153831772D01*
X168498464Y-153831770D01*
X168427044Y-153802187D01*
X168372273Y-153779500D01*
X168180706Y-153700150D01*
X167851572Y-153600308D01*
X167514248Y-153533210D01*
X167514249Y-153533210D01*
X167256456Y-153507821D01*
X167171969Y-153499500D01*
X166828031Y-153499500D01*
X166749966Y-153507188D01*
X166485750Y-153533210D01*
X166148427Y-153600308D01*
X165819293Y-153700150D01*
X165501535Y-153831770D01*
X165501530Y-153831772D01*
X165198224Y-153993893D01*
X165198206Y-153993904D01*
X164912248Y-154184975D01*
X164912234Y-154184985D01*
X164646367Y-154403176D01*
X164403176Y-154646367D01*
X164184985Y-154912234D01*
X164184975Y-154912248D01*
X163993904Y-155198206D01*
X163993893Y-155198224D01*
X163831772Y-155501530D01*
X163831770Y-155501535D01*
X163700150Y-155819293D01*
X163600308Y-156148427D01*
X163533210Y-156485750D01*
X163512556Y-156695465D01*
X163499500Y-156828031D01*
X163499500Y-157171969D01*
X163507185Y-157250000D01*
X163533210Y-157514249D01*
X163600308Y-157851572D01*
X163700150Y-158180706D01*
X163831770Y-158498464D01*
X163831772Y-158498469D01*
X163993893Y-158801775D01*
X163993904Y-158801793D01*
X164184975Y-159087751D01*
X164184985Y-159087765D01*
X164403176Y-159353632D01*
X164537363Y-159487819D01*
X164570848Y-159549142D01*
X164565864Y-159618834D01*
X164523992Y-159674767D01*
X164458528Y-159699184D01*
X164449682Y-159699500D01*
X105550318Y-159699500D01*
X105483279Y-159679815D01*
X105437524Y-159627011D01*
X105427580Y-159557853D01*
X105456605Y-159494297D01*
X105462637Y-159487819D01*
X105596823Y-159353632D01*
X105596828Y-159353627D01*
X105815019Y-159087760D01*
X106006100Y-158801787D01*
X106168231Y-158498462D01*
X106299850Y-158180705D01*
X106399690Y-157851578D01*
X106466789Y-157514250D01*
X106500500Y-157171969D01*
X106500500Y-156828031D01*
X106466789Y-156485750D01*
X106399690Y-156148422D01*
X106299850Y-155819295D01*
X106168231Y-155501538D01*
X106167826Y-155500781D01*
X106006106Y-155198224D01*
X106006105Y-155198222D01*
X106006100Y-155198213D01*
X105815019Y-154912240D01*
X105596828Y-154646373D01*
X105596827Y-154646372D01*
X105596823Y-154646367D01*
X105353632Y-154403176D01*
X105087765Y-154184985D01*
X105087764Y-154184984D01*
X105087760Y-154184981D01*
X104942080Y-154087641D01*
X104888942Y-154052135D01*
X109099500Y-154052135D01*
X109099500Y-155947870D01*
X109099501Y-155947876D01*
X109105908Y-156007483D01*
X109156202Y-156142328D01*
X109156206Y-156142335D01*
X109242452Y-156257544D01*
X109242455Y-156257547D01*
X109357664Y-156343793D01*
X109357671Y-156343797D01*
X109492517Y-156394091D01*
X109492516Y-156394091D01*
X109499444Y-156394835D01*
X109552127Y-156400500D01*
X111447872Y-156400499D01*
X111507483Y-156394091D01*
X111642331Y-156343796D01*
X111757546Y-156257546D01*
X111843796Y-156142331D01*
X111894091Y-156007483D01*
X111900500Y-155947873D01*
X111900499Y-154889778D01*
X116099500Y-154889778D01*
X116099500Y-155110222D01*
X116110924Y-155182351D01*
X116133985Y-155327952D01*
X116202103Y-155537603D01*
X116202104Y-155537606D01*
X116247786Y-155627259D01*
X116300911Y-155731522D01*
X116302187Y-155734025D01*
X116431752Y-155912358D01*
X116431756Y-155912363D01*
X116587636Y-156068243D01*
X116587641Y-156068247D01*
X116706214Y-156154394D01*
X116765978Y-156197815D01*
X116894375Y-156263237D01*
X116962393Y-156297895D01*
X116962396Y-156297896D01*
X117025472Y-156318390D01*
X117172049Y-156366015D01*
X117389778Y-156400500D01*
X117389779Y-156400500D01*
X117610221Y-156400500D01*
X117610222Y-156400500D01*
X117827951Y-156366015D01*
X118037606Y-156297895D01*
X118234022Y-156197815D01*
X118412365Y-156068242D01*
X118568242Y-155912365D01*
X118697815Y-155734022D01*
X118797895Y-155537606D01*
X118866015Y-155327951D01*
X118900500Y-155110222D01*
X118900500Y-154889778D01*
X118866015Y-154672049D01*
X118797895Y-154462394D01*
X118797895Y-154462393D01*
X118763237Y-154394375D01*
X118697815Y-154265978D01*
X118673696Y-154232781D01*
X118568247Y-154087641D01*
X118568243Y-154087636D01*
X118412363Y-153931756D01*
X118412358Y-153931752D01*
X118234025Y-153802187D01*
X118234024Y-153802186D01*
X118234022Y-153802185D01*
X118171096Y-153770122D01*
X118037606Y-153702104D01*
X118037603Y-153702103D01*
X117827952Y-153633985D01*
X117719086Y-153616742D01*
X117610222Y-153599500D01*
X117389778Y-153599500D01*
X117317201Y-153610995D01*
X117172047Y-153633985D01*
X116962396Y-153702103D01*
X116962393Y-153702104D01*
X116765974Y-153802187D01*
X116587641Y-153931752D01*
X116587636Y-153931756D01*
X116431756Y-154087636D01*
X116431752Y-154087641D01*
X116302187Y-154265974D01*
X116202104Y-154462393D01*
X116202103Y-154462396D01*
X116133985Y-154672047D01*
X116118237Y-154771479D01*
X116099500Y-154889778D01*
X111900499Y-154889778D01*
X111900499Y-154052128D01*
X111894091Y-153992517D01*
X111884840Y-153967715D01*
X111843797Y-153857671D01*
X111843793Y-153857664D01*
X111757547Y-153742455D01*
X111757544Y-153742452D01*
X111642335Y-153656206D01*
X111642328Y-153656202D01*
X111507482Y-153605908D01*
X111507483Y-153605908D01*
X111447883Y-153599501D01*
X111447881Y-153599500D01*
X111447873Y-153599500D01*
X111447864Y-153599500D01*
X109552129Y-153599500D01*
X109552123Y-153599501D01*
X109492516Y-153605908D01*
X109357671Y-153656202D01*
X109357664Y-153656206D01*
X109242455Y-153742452D01*
X109242452Y-153742455D01*
X109156206Y-153857664D01*
X109156202Y-153857671D01*
X109105908Y-153992517D01*
X109099501Y-154052116D01*
X109099501Y-154052123D01*
X109099500Y-154052135D01*
X104888942Y-154052135D01*
X104801793Y-153993904D01*
X104801792Y-153993903D01*
X104801787Y-153993900D01*
X104801782Y-153993897D01*
X104801775Y-153993893D01*
X104498469Y-153831772D01*
X104498464Y-153831770D01*
X104427044Y-153802187D01*
X104372273Y-153779500D01*
X104180706Y-153700150D01*
X103851572Y-153600308D01*
X103514248Y-153533210D01*
X103514249Y-153533210D01*
X103256456Y-153507821D01*
X103171969Y-153499500D01*
X102828031Y-153499500D01*
X102749966Y-153507188D01*
X102485750Y-153533210D01*
X102148427Y-153600308D01*
X101819293Y-153700150D01*
X101501535Y-153831770D01*
X101501530Y-153831772D01*
X101198224Y-153993893D01*
X101198206Y-153993904D01*
X100912248Y-154184975D01*
X100912234Y-154184985D01*
X100646367Y-154403176D01*
X100512181Y-154537363D01*
X100450858Y-154570848D01*
X100381166Y-154565864D01*
X100325233Y-154523992D01*
X100300816Y-154458528D01*
X100300500Y-154449682D01*
X100300500Y-150881902D01*
X104499500Y-150881902D01*
X104499500Y-151118097D01*
X104536446Y-151351368D01*
X104609433Y-151575996D01*
X104669104Y-151693105D01*
X104716657Y-151786433D01*
X104855483Y-151977510D01*
X105022490Y-152144517D01*
X105213567Y-152283343D01*
X105247240Y-152300500D01*
X105424003Y-152390566D01*
X105424005Y-152390566D01*
X105424008Y-152390568D01*
X105544412Y-152429689D01*
X105648631Y-152463553D01*
X105881903Y-152500500D01*
X105881908Y-152500500D01*
X107118097Y-152500500D01*
X107351368Y-152463553D01*
X107575992Y-152390568D01*
X107786433Y-152283343D01*
X107977510Y-152144517D01*
X107993143Y-152128883D01*
X108054462Y-152095399D01*
X108124154Y-152100382D01*
X108153708Y-152116247D01*
X108186402Y-152140000D01*
X108265978Y-152197815D01*
X108394375Y-152263237D01*
X108462393Y-152297895D01*
X108462396Y-152297896D01*
X108567221Y-152331955D01*
X108672049Y-152366015D01*
X108889778Y-152400500D01*
X108889779Y-152400500D01*
X109110221Y-152400500D01*
X109110222Y-152400500D01*
X109327951Y-152366015D01*
X109537606Y-152297895D01*
X109734022Y-152197815D01*
X109912365Y-152068242D01*
X110068242Y-151912365D01*
X110197815Y-151734022D01*
X110297895Y-151537606D01*
X110366015Y-151327951D01*
X110400500Y-151110222D01*
X110400500Y-150889778D01*
X112599500Y-150889778D01*
X112599500Y-151110222D01*
X112600747Y-151118097D01*
X112633985Y-151327952D01*
X112702103Y-151537603D01*
X112702104Y-151537606D01*
X112761299Y-151653780D01*
X112781171Y-151692781D01*
X112802187Y-151734025D01*
X112931752Y-151912358D01*
X112931756Y-151912363D01*
X113087636Y-152068243D01*
X113087641Y-152068247D01*
X113186402Y-152140000D01*
X113265978Y-152197815D01*
X113394375Y-152263237D01*
X113462393Y-152297895D01*
X113462396Y-152297896D01*
X113567221Y-152331955D01*
X113672049Y-152366015D01*
X113889778Y-152400500D01*
X113889779Y-152400500D01*
X114110221Y-152400500D01*
X114110222Y-152400500D01*
X114327951Y-152366015D01*
X114537606Y-152297895D01*
X114734022Y-152197815D01*
X114912365Y-152068242D01*
X115068242Y-151912365D01*
X115197815Y-151734022D01*
X115297895Y-151537606D01*
X115366015Y-151327951D01*
X115400500Y-151110222D01*
X115400500Y-150889778D01*
X115366015Y-150672049D01*
X115297895Y-150462394D01*
X115297895Y-150462393D01*
X115252214Y-150372741D01*
X115197815Y-150265978D01*
X115181260Y-150243192D01*
X115068247Y-150087641D01*
X115068243Y-150087636D01*
X114912363Y-149931756D01*
X114912358Y-149931752D01*
X114734025Y-149802187D01*
X114734024Y-149802186D01*
X114734022Y-149802185D01*
X114651648Y-149760213D01*
X114537606Y-149702104D01*
X114537603Y-149702103D01*
X114327952Y-149633985D01*
X114219086Y-149616742D01*
X114110222Y-149599500D01*
X113889778Y-149599500D01*
X113817201Y-149610995D01*
X113672047Y-149633985D01*
X113462396Y-149702103D01*
X113462393Y-149702104D01*
X113265974Y-149802187D01*
X113087641Y-149931752D01*
X113087636Y-149931756D01*
X112931756Y-150087636D01*
X112931752Y-150087641D01*
X112802187Y-150265974D01*
X112702104Y-150462393D01*
X112702103Y-150462396D01*
X112633985Y-150672047D01*
X112606137Y-150847872D01*
X112599500Y-150889778D01*
X110400500Y-150889778D01*
X110366015Y-150672049D01*
X110297895Y-150462394D01*
X110297895Y-150462393D01*
X110252214Y-150372741D01*
X110197815Y-150265978D01*
X110181260Y-150243192D01*
X110068247Y-150087641D01*
X110068243Y-150087636D01*
X109912363Y-149931756D01*
X109912358Y-149931752D01*
X109734025Y-149802187D01*
X109734024Y-149802186D01*
X109734022Y-149802185D01*
X109651648Y-149760213D01*
X109537606Y-149702104D01*
X109537603Y-149702103D01*
X109327952Y-149633985D01*
X109219086Y-149616742D01*
X109110222Y-149599500D01*
X108889778Y-149599500D01*
X108817201Y-149610995D01*
X108672047Y-149633985D01*
X108462396Y-149702103D01*
X108462393Y-149702104D01*
X108265978Y-149802184D01*
X108153708Y-149883753D01*
X108087901Y-149907232D01*
X108019847Y-149891406D01*
X107993142Y-149871115D01*
X107977512Y-149855485D01*
X107977510Y-149855483D01*
X107786433Y-149716657D01*
X107575996Y-149609433D01*
X107351368Y-149536446D01*
X107118097Y-149499500D01*
X107118092Y-149499500D01*
X105881908Y-149499500D01*
X105881903Y-149499500D01*
X105648631Y-149536446D01*
X105424003Y-149609433D01*
X105213566Y-149716657D01*
X105153624Y-149760208D01*
X105022490Y-149855483D01*
X105022488Y-149855485D01*
X105022487Y-149855485D01*
X104855485Y-150022487D01*
X104855485Y-150022488D01*
X104855483Y-150022490D01*
X104810405Y-150084534D01*
X104716657Y-150213566D01*
X104609433Y-150424003D01*
X104536446Y-150648631D01*
X104499500Y-150881902D01*
X100300500Y-150881902D01*
X100300500Y-146889778D01*
X112599500Y-146889778D01*
X112599500Y-147110222D01*
X112607616Y-147161463D01*
X112633985Y-147327952D01*
X112702103Y-147537603D01*
X112702104Y-147537606D01*
X112744744Y-147621289D01*
X112798025Y-147725858D01*
X112802187Y-147734025D01*
X112931752Y-147912358D01*
X112931756Y-147912363D01*
X113087636Y-148068243D01*
X113087641Y-148068247D01*
X113243192Y-148181260D01*
X113265978Y-148197815D01*
X113394375Y-148263237D01*
X113462393Y-148297895D01*
X113462396Y-148297896D01*
X113567221Y-148331955D01*
X113672049Y-148366015D01*
X113889778Y-148400500D01*
X113889779Y-148400500D01*
X114110221Y-148400500D01*
X114110222Y-148400500D01*
X114327951Y-148366015D01*
X114537606Y-148297895D01*
X114734022Y-148197815D01*
X114912365Y-148068242D01*
X115068242Y-147912365D01*
X115197815Y-147734022D01*
X115297895Y-147537606D01*
X115298327Y-147536278D01*
X115313363Y-147490000D01*
X115366015Y-147327951D01*
X115400500Y-147110222D01*
X115400500Y-146889778D01*
X115366015Y-146672049D01*
X115302674Y-146477102D01*
X115297896Y-146462396D01*
X115297895Y-146462393D01*
X115214029Y-146297800D01*
X115197815Y-146265978D01*
X115177656Y-146238232D01*
X115068247Y-146087641D01*
X115068243Y-146087636D01*
X114912363Y-145931756D01*
X114912358Y-145931752D01*
X114734025Y-145802187D01*
X114734024Y-145802186D01*
X114734022Y-145802185D01*
X114655815Y-145762336D01*
X114537606Y-145702104D01*
X114537603Y-145702103D01*
X114327952Y-145633985D01*
X114219086Y-145616742D01*
X114110222Y-145599500D01*
X113889778Y-145599500D01*
X113817201Y-145610995D01*
X113672047Y-145633985D01*
X113462396Y-145702103D01*
X113462393Y-145702104D01*
X113265974Y-145802187D01*
X113087641Y-145931752D01*
X113087636Y-145931756D01*
X112931756Y-146087636D01*
X112931752Y-146087641D01*
X112802187Y-146265974D01*
X112702104Y-146462393D01*
X112702103Y-146462396D01*
X112633985Y-146672047D01*
X112606047Y-146848443D01*
X112599500Y-146889778D01*
X100300500Y-146889778D01*
X100300500Y-139152155D01*
X106700000Y-139152155D01*
X106700000Y-139750000D01*
X107684314Y-139750000D01*
X107679920Y-139754394D01*
X107627259Y-139845606D01*
X107600000Y-139947339D01*
X107600000Y-140052661D01*
X107627259Y-140154394D01*
X107679920Y-140245606D01*
X107684314Y-140250000D01*
X106700000Y-140250000D01*
X106700000Y-140847844D01*
X106706401Y-140907372D01*
X106706403Y-140907379D01*
X106756645Y-141042086D01*
X106756649Y-141042093D01*
X106842809Y-141157187D01*
X106842812Y-141157190D01*
X106957906Y-141243350D01*
X106957913Y-141243354D01*
X107092620Y-141293596D01*
X107092627Y-141293598D01*
X107152155Y-141299999D01*
X107152172Y-141300000D01*
X107750000Y-141300000D01*
X107750000Y-140315686D01*
X107754394Y-140320080D01*
X107845606Y-140372741D01*
X107947339Y-140400000D01*
X108052661Y-140400000D01*
X108154394Y-140372741D01*
X108245606Y-140320080D01*
X108250000Y-140315686D01*
X108250000Y-141300000D01*
X108847828Y-141300000D01*
X108847844Y-141299999D01*
X108907372Y-141293598D01*
X108907379Y-141293596D01*
X109042086Y-141243354D01*
X109042093Y-141243350D01*
X109157187Y-141157190D01*
X109157190Y-141157187D01*
X109243350Y-141042093D01*
X109243354Y-141042086D01*
X109293596Y-140907379D01*
X109293598Y-140907372D01*
X109299999Y-140847844D01*
X109300000Y-140847827D01*
X109300000Y-140250000D01*
X108315686Y-140250000D01*
X108320080Y-140245606D01*
X108372741Y-140154394D01*
X108400000Y-140052661D01*
X108400000Y-139947339D01*
X108386685Y-139897648D01*
X116859500Y-139897648D01*
X116859500Y-140102351D01*
X116891522Y-140304534D01*
X116954781Y-140499223D01*
X117047715Y-140681613D01*
X117168028Y-140847213D01*
X117312786Y-140991971D01*
X117435694Y-141081267D01*
X117478390Y-141112287D01*
X117594607Y-141171503D01*
X117660776Y-141205218D01*
X117660778Y-141205218D01*
X117660781Y-141205220D01*
X117742903Y-141231903D01*
X117855465Y-141268477D01*
X117956557Y-141284488D01*
X118057648Y-141300500D01*
X118057649Y-141300500D01*
X118262351Y-141300500D01*
X118262352Y-141300500D01*
X118464534Y-141268477D01*
X118659219Y-141205220D01*
X118841610Y-141112287D01*
X118995494Y-141000485D01*
X119007213Y-140991971D01*
X119007215Y-140991968D01*
X119007219Y-140991966D01*
X119151966Y-140847219D01*
X119151968Y-140847215D01*
X119151971Y-140847213D01*
X119235470Y-140732284D01*
X119272287Y-140681610D01*
X119365220Y-140499219D01*
X119428477Y-140304534D01*
X119460500Y-140102352D01*
X119460500Y-139897648D01*
X119446442Y-139808893D01*
X119428477Y-139695465D01*
X119385403Y-139562897D01*
X119365220Y-139500781D01*
X119365218Y-139500778D01*
X119365218Y-139500776D01*
X119314710Y-139401650D01*
X119272287Y-139318390D01*
X119227132Y-139256239D01*
X119151971Y-139152786D01*
X119007213Y-139008028D01*
X118841613Y-138887715D01*
X118841612Y-138887714D01*
X118841610Y-138887713D01*
X118753487Y-138842812D01*
X118659223Y-138794781D01*
X118464534Y-138731522D01*
X118289995Y-138703878D01*
X118262352Y-138699500D01*
X118057648Y-138699500D01*
X118033329Y-138703351D01*
X117855465Y-138731522D01*
X117660776Y-138794781D01*
X117478386Y-138887715D01*
X117312786Y-139008028D01*
X117168028Y-139152786D01*
X117047715Y-139318386D01*
X116954781Y-139500776D01*
X116891522Y-139695465D01*
X116859500Y-139897648D01*
X108386685Y-139897648D01*
X108372741Y-139845606D01*
X108320080Y-139754394D01*
X108315686Y-139750000D01*
X109300000Y-139750000D01*
X109300000Y-139152172D01*
X109299999Y-139152155D01*
X109293598Y-139092627D01*
X109293596Y-139092620D01*
X109243354Y-138957913D01*
X109243350Y-138957906D01*
X109157190Y-138842812D01*
X109157187Y-138842809D01*
X109042093Y-138756649D01*
X109042086Y-138756645D01*
X108907379Y-138706403D01*
X108907372Y-138706401D01*
X108847844Y-138700000D01*
X108250000Y-138700000D01*
X108250000Y-139684314D01*
X108245606Y-139679920D01*
X108154394Y-139627259D01*
X108052661Y-139600000D01*
X107947339Y-139600000D01*
X107845606Y-139627259D01*
X107754394Y-139679920D01*
X107750000Y-139684314D01*
X107750000Y-138700000D01*
X107152155Y-138700000D01*
X107092627Y-138706401D01*
X107092620Y-138706403D01*
X106957913Y-138756645D01*
X106957906Y-138756649D01*
X106842812Y-138842809D01*
X106842809Y-138842812D01*
X106756649Y-138957906D01*
X106756645Y-138957913D01*
X106706403Y-139092620D01*
X106706401Y-139092627D01*
X106700000Y-139152155D01*
X100300500Y-139152155D01*
X100300500Y-135152155D01*
X106700000Y-135152155D01*
X106700000Y-135750000D01*
X107684314Y-135750000D01*
X107679920Y-135754394D01*
X107627259Y-135845606D01*
X107600000Y-135947339D01*
X107600000Y-136052661D01*
X107627259Y-136154394D01*
X107679920Y-136245606D01*
X107684314Y-136250000D01*
X106700000Y-136250000D01*
X106700000Y-136847844D01*
X106706401Y-136907372D01*
X106706403Y-136907379D01*
X106756645Y-137042086D01*
X106756649Y-137042093D01*
X106842809Y-137157187D01*
X106842812Y-137157190D01*
X106957906Y-137243350D01*
X106957913Y-137243354D01*
X107092620Y-137293596D01*
X107092627Y-137293598D01*
X107152155Y-137299999D01*
X107152172Y-137300000D01*
X107750000Y-137300000D01*
X107750000Y-136315686D01*
X107754394Y-136320080D01*
X107845606Y-136372741D01*
X107947339Y-136400000D01*
X108052661Y-136400000D01*
X108154394Y-136372741D01*
X108245606Y-136320080D01*
X108250000Y-136315686D01*
X108250000Y-137300000D01*
X108847828Y-137300000D01*
X108847844Y-137299999D01*
X108907372Y-137293598D01*
X108907379Y-137293596D01*
X109042086Y-137243354D01*
X109042093Y-137243350D01*
X109157187Y-137157190D01*
X109157190Y-137157187D01*
X109243350Y-137042093D01*
X109243354Y-137042086D01*
X109293596Y-136907379D01*
X109293598Y-136907372D01*
X109299999Y-136847844D01*
X109300000Y-136847827D01*
X109300000Y-136250000D01*
X108315686Y-136250000D01*
X108320080Y-136245606D01*
X108372741Y-136154394D01*
X108400000Y-136052661D01*
X108400000Y-135947339D01*
X108386685Y-135897648D01*
X116859500Y-135897648D01*
X116859500Y-136102352D01*
X116860366Y-136107820D01*
X116891522Y-136304534D01*
X116954781Y-136499223D01*
X116994843Y-136577847D01*
X117047538Y-136681267D01*
X117047715Y-136681613D01*
X117168028Y-136847213D01*
X117312786Y-136991971D01*
X117445286Y-137088236D01*
X117478390Y-137112287D01*
X117566517Y-137157190D01*
X117660776Y-137205218D01*
X117660778Y-137205218D01*
X117660781Y-137205220D01*
X117743768Y-137232184D01*
X117855465Y-137268477D01*
X117926867Y-137279786D01*
X118057648Y-137300500D01*
X118057649Y-137300500D01*
X118262351Y-137300500D01*
X118262352Y-137300500D01*
X118464534Y-137268477D01*
X118659219Y-137205220D01*
X118841610Y-137112287D01*
X118987091Y-137006590D01*
X119007213Y-136991971D01*
X119007215Y-136991968D01*
X119007219Y-136991966D01*
X119151966Y-136847219D01*
X119151968Y-136847215D01*
X119151971Y-136847213D01*
X119228813Y-136741447D01*
X119272287Y-136681610D01*
X119365220Y-136499219D01*
X119428477Y-136304534D01*
X119460500Y-136102352D01*
X119460500Y-135897648D01*
X119448164Y-135819763D01*
X119428477Y-135695465D01*
X119367009Y-135506287D01*
X119365220Y-135500781D01*
X119365218Y-135500778D01*
X119365218Y-135500776D01*
X119317541Y-135407206D01*
X119272287Y-135318390D01*
X119254358Y-135293713D01*
X119151971Y-135152786D01*
X119007213Y-135008028D01*
X118841613Y-134887715D01*
X118841612Y-134887714D01*
X118841610Y-134887713D01*
X118764819Y-134848586D01*
X118659223Y-134794781D01*
X118464534Y-134731522D01*
X118288844Y-134703696D01*
X118262352Y-134699500D01*
X118057648Y-134699500D01*
X118033329Y-134703351D01*
X117855465Y-134731522D01*
X117660776Y-134794781D01*
X117478386Y-134887715D01*
X117312786Y-135008028D01*
X117168028Y-135152786D01*
X117047715Y-135318386D01*
X116954781Y-135500776D01*
X116891522Y-135695465D01*
X116862044Y-135881585D01*
X116859500Y-135897648D01*
X108386685Y-135897648D01*
X108372741Y-135845606D01*
X108320080Y-135754394D01*
X108315686Y-135750000D01*
X109300000Y-135750000D01*
X109300000Y-135152172D01*
X109299999Y-135152155D01*
X109293598Y-135092627D01*
X109293596Y-135092620D01*
X109243354Y-134957913D01*
X109243350Y-134957906D01*
X109157190Y-134842812D01*
X109157187Y-134842809D01*
X109042093Y-134756649D01*
X109042086Y-134756645D01*
X108907379Y-134706403D01*
X108907372Y-134706401D01*
X108847844Y-134700000D01*
X108250000Y-134700000D01*
X108250000Y-135684314D01*
X108245606Y-135679920D01*
X108154394Y-135627259D01*
X108052661Y-135600000D01*
X107947339Y-135600000D01*
X107845606Y-135627259D01*
X107754394Y-135679920D01*
X107750000Y-135684314D01*
X107750000Y-134700000D01*
X107152155Y-134700000D01*
X107092627Y-134706401D01*
X107092620Y-134706403D01*
X106957913Y-134756645D01*
X106957906Y-134756649D01*
X106842812Y-134842809D01*
X106842809Y-134842812D01*
X106756649Y-134957906D01*
X106756645Y-134957913D01*
X106706403Y-135092620D01*
X106706401Y-135092627D01*
X106700000Y-135152155D01*
X100300500Y-135152155D01*
X100300500Y-131152155D01*
X106700000Y-131152155D01*
X106700000Y-131750000D01*
X107684314Y-131750000D01*
X107679920Y-131754394D01*
X107627259Y-131845606D01*
X107600000Y-131947339D01*
X107600000Y-132052661D01*
X107627259Y-132154394D01*
X107679920Y-132245606D01*
X107684314Y-132250000D01*
X106700000Y-132250000D01*
X106700000Y-132847844D01*
X106706401Y-132907372D01*
X106706403Y-132907379D01*
X106756645Y-133042086D01*
X106756649Y-133042093D01*
X106842809Y-133157187D01*
X106842812Y-133157190D01*
X106957906Y-133243350D01*
X106957913Y-133243354D01*
X107092620Y-133293596D01*
X107092627Y-133293598D01*
X107152155Y-133299999D01*
X107152172Y-133300000D01*
X107750000Y-133300000D01*
X107750000Y-132315686D01*
X107754394Y-132320080D01*
X107845606Y-132372741D01*
X107947339Y-132400000D01*
X108052661Y-132400000D01*
X108154394Y-132372741D01*
X108245606Y-132320080D01*
X108250000Y-132315686D01*
X108250000Y-133300000D01*
X108847828Y-133300000D01*
X108847844Y-133299999D01*
X108907372Y-133293598D01*
X108907379Y-133293596D01*
X109042086Y-133243354D01*
X109042093Y-133243350D01*
X109157187Y-133157190D01*
X109157190Y-133157187D01*
X109243350Y-133042093D01*
X109243354Y-133042086D01*
X109293596Y-132907379D01*
X109293598Y-132907372D01*
X109299999Y-132847844D01*
X109300000Y-132847827D01*
X109300000Y-132250000D01*
X108315686Y-132250000D01*
X108320080Y-132245606D01*
X108372741Y-132154394D01*
X108400000Y-132052661D01*
X108400000Y-131947339D01*
X108386685Y-131897648D01*
X116859500Y-131897648D01*
X116859500Y-132102351D01*
X116891522Y-132304534D01*
X116954781Y-132499223D01*
X117018691Y-132624653D01*
X117037439Y-132661447D01*
X117047715Y-132681613D01*
X117168028Y-132847213D01*
X117312786Y-132991971D01*
X117467749Y-133104556D01*
X117478390Y-133112287D01*
X117566517Y-133157190D01*
X117660776Y-133205218D01*
X117660778Y-133205218D01*
X117660781Y-133205220D01*
X117750896Y-133234500D01*
X117855465Y-133268477D01*
X117956557Y-133284488D01*
X118057648Y-133300500D01*
X118057649Y-133300500D01*
X118262351Y-133300500D01*
X118262352Y-133300500D01*
X118464534Y-133268477D01*
X118659219Y-133205220D01*
X118841610Y-133112287D01*
X118938234Y-133042086D01*
X119007213Y-132991971D01*
X119007215Y-132991968D01*
X119007219Y-132991966D01*
X119151966Y-132847219D01*
X119151968Y-132847215D01*
X119151971Y-132847213D01*
X119204732Y-132774590D01*
X119272287Y-132681610D01*
X119365220Y-132499219D01*
X119428477Y-132304534D01*
X119460500Y-132102352D01*
X119460500Y-131897648D01*
X119449768Y-131829890D01*
X119428477Y-131695465D01*
X119392484Y-131584692D01*
X119365220Y-131500781D01*
X119365218Y-131500778D01*
X119365218Y-131500776D01*
X119310603Y-131393589D01*
X119272287Y-131318390D01*
X119235667Y-131267986D01*
X119151971Y-131152786D01*
X119007213Y-131008028D01*
X118841613Y-130887715D01*
X118841612Y-130887714D01*
X118841610Y-130887713D01*
X118783980Y-130858349D01*
X118659223Y-130794781D01*
X118464534Y-130731522D01*
X118289995Y-130703878D01*
X118262352Y-130699500D01*
X118057648Y-130699500D01*
X118033329Y-130703351D01*
X117855465Y-130731522D01*
X117660776Y-130794781D01*
X117478386Y-130887715D01*
X117312786Y-131008028D01*
X117168028Y-131152786D01*
X117047715Y-131318386D01*
X116954781Y-131500776D01*
X116891522Y-131695465D01*
X116859500Y-131897648D01*
X108386685Y-131897648D01*
X108372741Y-131845606D01*
X108320080Y-131754394D01*
X108315686Y-131750000D01*
X109300000Y-131750000D01*
X109300000Y-131152172D01*
X109299999Y-131152155D01*
X109293598Y-131092627D01*
X109293596Y-131092620D01*
X109243354Y-130957913D01*
X109243350Y-130957906D01*
X109157190Y-130842812D01*
X109157187Y-130842809D01*
X109042093Y-130756649D01*
X109042086Y-130756645D01*
X108907379Y-130706403D01*
X108907372Y-130706401D01*
X108847844Y-130700000D01*
X108250000Y-130700000D01*
X108250000Y-131684314D01*
X108245606Y-131679920D01*
X108154394Y-131627259D01*
X108052661Y-131600000D01*
X107947339Y-131600000D01*
X107845606Y-131627259D01*
X107754394Y-131679920D01*
X107750000Y-131684314D01*
X107750000Y-130700000D01*
X107152155Y-130700000D01*
X107092627Y-130706401D01*
X107092620Y-130706403D01*
X106957913Y-130756645D01*
X106957906Y-130756649D01*
X106842812Y-130842809D01*
X106842809Y-130842812D01*
X106756649Y-130957906D01*
X106756645Y-130957913D01*
X106706403Y-131092620D01*
X106706401Y-131092627D01*
X106700000Y-131152155D01*
X100300500Y-131152155D01*
X100300500Y-127152135D01*
X106699500Y-127152135D01*
X106699500Y-128847870D01*
X106699501Y-128847876D01*
X106705908Y-128907483D01*
X106756202Y-129042328D01*
X106756206Y-129042335D01*
X106842452Y-129157544D01*
X106842455Y-129157547D01*
X106957664Y-129243793D01*
X106957671Y-129243797D01*
X107092517Y-129294091D01*
X107092516Y-129294091D01*
X107099444Y-129294835D01*
X107152127Y-129300500D01*
X108847872Y-129300499D01*
X108907483Y-129294091D01*
X109042331Y-129243796D01*
X109157546Y-129157546D01*
X109243796Y-129042331D01*
X109294091Y-128907483D01*
X109300500Y-128847873D01*
X109300499Y-127152128D01*
X109294091Y-127092517D01*
X109286507Y-127072184D01*
X109243797Y-126957671D01*
X109243793Y-126957664D01*
X109157547Y-126842455D01*
X109157544Y-126842452D01*
X109042335Y-126756206D01*
X109042328Y-126756202D01*
X108907482Y-126705908D01*
X108907483Y-126705908D01*
X108847883Y-126699501D01*
X108847881Y-126699500D01*
X108847873Y-126699500D01*
X108847864Y-126699500D01*
X107152129Y-126699500D01*
X107152123Y-126699501D01*
X107092516Y-126705908D01*
X106957671Y-126756202D01*
X106957664Y-126756206D01*
X106842455Y-126842452D01*
X106842452Y-126842455D01*
X106756206Y-126957664D01*
X106756202Y-126957671D01*
X106705908Y-127092517D01*
X106699920Y-127148223D01*
X106699501Y-127152123D01*
X106699500Y-127152135D01*
X100300500Y-127152135D01*
X100300500Y-123152135D01*
X106699500Y-123152135D01*
X106699500Y-124847870D01*
X106699501Y-124847876D01*
X106705908Y-124907483D01*
X106756202Y-125042328D01*
X106756206Y-125042335D01*
X106842452Y-125157544D01*
X106842455Y-125157547D01*
X106957664Y-125243793D01*
X106957671Y-125243797D01*
X107092517Y-125294091D01*
X107092516Y-125294091D01*
X107099444Y-125294835D01*
X107152127Y-125300500D01*
X108847872Y-125300499D01*
X108907483Y-125294091D01*
X109042331Y-125243796D01*
X109157546Y-125157546D01*
X109243796Y-125042331D01*
X109294091Y-124907483D01*
X109300500Y-124847873D01*
X109300499Y-123152128D01*
X109294091Y-123092517D01*
X109292735Y-123088882D01*
X109243797Y-122957671D01*
X109243793Y-122957664D01*
X109157547Y-122842455D01*
X109157544Y-122842452D01*
X109042335Y-122756206D01*
X109042328Y-122756202D01*
X108907482Y-122705908D01*
X108907483Y-122705908D01*
X108847883Y-122699501D01*
X108847881Y-122699500D01*
X108847873Y-122699500D01*
X108847864Y-122699500D01*
X107152129Y-122699500D01*
X107152123Y-122699501D01*
X107092516Y-122705908D01*
X106957671Y-122756202D01*
X106957664Y-122756206D01*
X106842455Y-122842452D01*
X106842452Y-122842455D01*
X106756206Y-122957664D01*
X106756202Y-122957671D01*
X106705908Y-123092517D01*
X106702309Y-123126000D01*
X106699501Y-123152123D01*
X106699500Y-123152135D01*
X100300500Y-123152135D01*
X100300500Y-119152135D01*
X106699500Y-119152135D01*
X106699500Y-120847870D01*
X106699501Y-120847876D01*
X106705908Y-120907483D01*
X106756202Y-121042328D01*
X106756206Y-121042335D01*
X106842452Y-121157544D01*
X106842455Y-121157547D01*
X106957664Y-121243793D01*
X106957671Y-121243797D01*
X107092517Y-121294091D01*
X107092516Y-121294091D01*
X107099444Y-121294835D01*
X107152127Y-121300500D01*
X108847872Y-121300499D01*
X108907483Y-121294091D01*
X109042331Y-121243796D01*
X109157546Y-121157546D01*
X109243796Y-121042331D01*
X109294091Y-120907483D01*
X109300500Y-120847873D01*
X109300499Y-119152128D01*
X109294091Y-119092517D01*
X109291632Y-119085925D01*
X109243797Y-118957671D01*
X109243793Y-118957664D01*
X109157547Y-118842455D01*
X109157544Y-118842452D01*
X109042335Y-118756206D01*
X109042328Y-118756202D01*
X108907482Y-118705908D01*
X108907483Y-118705908D01*
X108847883Y-118699501D01*
X108847881Y-118699500D01*
X108847873Y-118699500D01*
X108847864Y-118699500D01*
X107152129Y-118699500D01*
X107152123Y-118699501D01*
X107092516Y-118705908D01*
X106957671Y-118756202D01*
X106957664Y-118756206D01*
X106842455Y-118842452D01*
X106842452Y-118842455D01*
X106756206Y-118957664D01*
X106756202Y-118957671D01*
X106705908Y-119092517D01*
X106700974Y-119138414D01*
X106699501Y-119152123D01*
X106699500Y-119152135D01*
X100300500Y-119152135D01*
X100300500Y-115152135D01*
X106699500Y-115152135D01*
X106699500Y-116847870D01*
X106699501Y-116847876D01*
X106705908Y-116907483D01*
X106756202Y-117042328D01*
X106756206Y-117042335D01*
X106842452Y-117157544D01*
X106842455Y-117157547D01*
X106957664Y-117243793D01*
X106957671Y-117243797D01*
X107092517Y-117294091D01*
X107092516Y-117294091D01*
X107099444Y-117294835D01*
X107152127Y-117300500D01*
X108847872Y-117300499D01*
X108907483Y-117294091D01*
X109042331Y-117243796D01*
X109157546Y-117157546D01*
X109243796Y-117042331D01*
X109294091Y-116907483D01*
X109300500Y-116847873D01*
X109300499Y-115897648D01*
X116859500Y-115897648D01*
X116859500Y-116102351D01*
X116891522Y-116304534D01*
X116954781Y-116499223D01*
X117000979Y-116589890D01*
X117025406Y-116637831D01*
X117047715Y-116681613D01*
X117168028Y-116847213D01*
X117312786Y-116991971D01*
X117451320Y-117092620D01*
X117478390Y-117112287D01*
X117556669Y-117152172D01*
X117660776Y-117205218D01*
X117660778Y-117205218D01*
X117660781Y-117205220D01*
X117765137Y-117239127D01*
X117855465Y-117268477D01*
X117956557Y-117284488D01*
X118057648Y-117300500D01*
X118057649Y-117300500D01*
X118262351Y-117300500D01*
X118262352Y-117300500D01*
X118464534Y-117268477D01*
X118659219Y-117205220D01*
X118841610Y-117112287D01*
X118937901Y-117042328D01*
X119007213Y-116991971D01*
X119007215Y-116991968D01*
X119007219Y-116991966D01*
X119151966Y-116847219D01*
X119151968Y-116847215D01*
X119151971Y-116847213D01*
X119275151Y-116677669D01*
X119276823Y-116678884D01*
X119322208Y-116637831D01*
X119376115Y-116625500D01*
X128352848Y-116625500D01*
X128419887Y-116645185D01*
X128440529Y-116661819D01*
X133337439Y-121558729D01*
X133337442Y-121558733D01*
X133424567Y-121645858D01*
X133475790Y-121680084D01*
X133527014Y-121714312D01*
X133527015Y-121714312D01*
X133527016Y-121714313D01*
X133600690Y-121744829D01*
X133600694Y-121744830D01*
X133607507Y-121747652D01*
X133640848Y-121761463D01*
X133701271Y-121773481D01*
X133748679Y-121782911D01*
X133810590Y-121815297D01*
X133834971Y-121848233D01*
X133844951Y-121867819D01*
X133969890Y-122039786D01*
X134120213Y-122190109D01*
X134292182Y-122315050D01*
X134300946Y-122319516D01*
X134351742Y-122367491D01*
X134368536Y-122435312D01*
X134345998Y-122501447D01*
X134300946Y-122540484D01*
X134292182Y-122544949D01*
X134120213Y-122669890D01*
X133969890Y-122820213D01*
X133844950Y-122992180D01*
X133837503Y-123006797D01*
X133789527Y-123057592D01*
X133727019Y-123074500D01*
X123297152Y-123074500D01*
X123230113Y-123054815D01*
X123209471Y-123038181D01*
X119779850Y-119608560D01*
X119772560Y-119601270D01*
X119772558Y-119601267D01*
X119685433Y-119514142D01*
X119634209Y-119479915D01*
X119582986Y-119445688D01*
X119582983Y-119445686D01*
X119582980Y-119445685D01*
X119509897Y-119415414D01*
X119509895Y-119415413D01*
X119502492Y-119412347D01*
X119469152Y-119398537D01*
X119390341Y-119382861D01*
X119386257Y-119382048D01*
X119386251Y-119382047D01*
X119354087Y-119375649D01*
X119292176Y-119343264D01*
X119275288Y-119322230D01*
X119275151Y-119322331D01*
X119273073Y-119319471D01*
X119272548Y-119318817D01*
X119272290Y-119318396D01*
X119272287Y-119318390D01*
X119272282Y-119318384D01*
X119272279Y-119318378D01*
X119151971Y-119152786D01*
X119007213Y-119008028D01*
X118841613Y-118887715D01*
X118841612Y-118887714D01*
X118841610Y-118887713D01*
X118784653Y-118858691D01*
X118659223Y-118794781D01*
X118464534Y-118731522D01*
X118289995Y-118703878D01*
X118262352Y-118699500D01*
X118057648Y-118699500D01*
X118033329Y-118703351D01*
X117855465Y-118731522D01*
X117660776Y-118794781D01*
X117478386Y-118887715D01*
X117312786Y-119008028D01*
X117168028Y-119152786D01*
X117047715Y-119318386D01*
X116954781Y-119500776D01*
X116891522Y-119695465D01*
X116859500Y-119897648D01*
X116859500Y-120102351D01*
X116891522Y-120304534D01*
X116954781Y-120499223D01*
X117047715Y-120681613D01*
X117168028Y-120847213D01*
X117312786Y-120991971D01*
X117430030Y-121077152D01*
X117478390Y-121112287D01*
X117594607Y-121171503D01*
X117660776Y-121205218D01*
X117660778Y-121205218D01*
X117660781Y-121205220D01*
X117765137Y-121239127D01*
X117855465Y-121268477D01*
X117956557Y-121284488D01*
X118057648Y-121300500D01*
X118057649Y-121300500D01*
X118262351Y-121300500D01*
X118262352Y-121300500D01*
X118464534Y-121268477D01*
X118659219Y-121205220D01*
X118841610Y-121112287D01*
X119007219Y-120991966D01*
X119112969Y-120886215D01*
X119174288Y-120852733D01*
X119243980Y-120857717D01*
X119288328Y-120886218D01*
X122497716Y-124095606D01*
X122497745Y-124095637D01*
X122587963Y-124185855D01*
X122587967Y-124185858D01*
X122690407Y-124254307D01*
X122690413Y-124254310D01*
X122690414Y-124254311D01*
X122804248Y-124301463D01*
X122864671Y-124313481D01*
X122925093Y-124325500D01*
X122925094Y-124325500D01*
X133727019Y-124325500D01*
X133794058Y-124345185D01*
X133837503Y-124393203D01*
X133844950Y-124407819D01*
X133969890Y-124579786D01*
X134120213Y-124730109D01*
X134292182Y-124855050D01*
X134300946Y-124859516D01*
X134351742Y-124907491D01*
X134368536Y-124975312D01*
X134345998Y-125041447D01*
X134300946Y-125080484D01*
X134292182Y-125084949D01*
X134120213Y-125209890D01*
X133969890Y-125360213D01*
X133844950Y-125532180D01*
X133837503Y-125546797D01*
X133789527Y-125597592D01*
X133727019Y-125614500D01*
X121837153Y-125614500D01*
X121770114Y-125594815D01*
X121749472Y-125578181D01*
X119783090Y-123611800D01*
X119772559Y-123601269D01*
X119772558Y-123601267D01*
X119685433Y-123514142D01*
X119614183Y-123466534D01*
X119608123Y-123462485D01*
X119608120Y-123462482D01*
X119582990Y-123445690D01*
X119582981Y-123445685D01*
X119490377Y-123407328D01*
X119490372Y-123407326D01*
X119481650Y-123403714D01*
X119469152Y-123398537D01*
X119394846Y-123383757D01*
X119379082Y-123380621D01*
X119354086Y-123375649D01*
X119292175Y-123343263D01*
X119275288Y-123322230D01*
X119275151Y-123322331D01*
X119273073Y-123319471D01*
X119272548Y-123318817D01*
X119272290Y-123318396D01*
X119272287Y-123318390D01*
X119272282Y-123318384D01*
X119272279Y-123318378D01*
X119151971Y-123152786D01*
X119007213Y-123008028D01*
X118841613Y-122887715D01*
X118841612Y-122887714D01*
X118841610Y-122887713D01*
X118784653Y-122858691D01*
X118659223Y-122794781D01*
X118464534Y-122731522D01*
X118289995Y-122703878D01*
X118262352Y-122699500D01*
X118057648Y-122699500D01*
X118033329Y-122703351D01*
X117855465Y-122731522D01*
X117660776Y-122794781D01*
X117478386Y-122887715D01*
X117312786Y-123008028D01*
X117168028Y-123152786D01*
X117047715Y-123318386D01*
X116954781Y-123500776D01*
X116891522Y-123695465D01*
X116859500Y-123897648D01*
X116859500Y-124102351D01*
X116891522Y-124304534D01*
X116954781Y-124499223D01*
X117047715Y-124681613D01*
X117168028Y-124847213D01*
X117312786Y-124991971D01*
X117434619Y-125080486D01*
X117478390Y-125112287D01*
X117567212Y-125157544D01*
X117660776Y-125205218D01*
X117660778Y-125205218D01*
X117660781Y-125205220D01*
X117765137Y-125239127D01*
X117855465Y-125268477D01*
X117956557Y-125284488D01*
X118057648Y-125300500D01*
X118057649Y-125300500D01*
X118262351Y-125300500D01*
X118262352Y-125300500D01*
X118464534Y-125268477D01*
X118659219Y-125205220D01*
X118841610Y-125112287D01*
X118951412Y-125032512D01*
X119007213Y-124991971D01*
X119007215Y-124991968D01*
X119007219Y-124991966D01*
X119112966Y-124886219D01*
X119174289Y-124852734D01*
X119243981Y-124857718D01*
X119288328Y-124886219D01*
X121040841Y-126638732D01*
X121040842Y-126638733D01*
X121101094Y-126698985D01*
X121127968Y-126725859D01*
X121230407Y-126794307D01*
X121230416Y-126794312D01*
X121251439Y-126803020D01*
X121344248Y-126841463D01*
X121404671Y-126853481D01*
X121465093Y-126865500D01*
X121465094Y-126865500D01*
X133727019Y-126865500D01*
X133794058Y-126885185D01*
X133837503Y-126933203D01*
X133844950Y-126947819D01*
X133969890Y-127119786D01*
X134120213Y-127270109D01*
X134292182Y-127395050D01*
X134300946Y-127399516D01*
X134351742Y-127447491D01*
X134368536Y-127515312D01*
X134345998Y-127581447D01*
X134300946Y-127620484D01*
X134292182Y-127624949D01*
X134120213Y-127749890D01*
X134120209Y-127749894D01*
X133986678Y-127883426D01*
X133925355Y-127916911D01*
X133855663Y-127911927D01*
X133811316Y-127883426D01*
X133539838Y-127611948D01*
X133529159Y-127601269D01*
X133529158Y-127601267D01*
X133442033Y-127514142D01*
X133365126Y-127462754D01*
X133359227Y-127458812D01*
X133359222Y-127458808D01*
X133339590Y-127445690D01*
X133339586Y-127445688D01*
X133322367Y-127438556D01*
X133259092Y-127412347D01*
X133225752Y-127398537D01*
X133165329Y-127386518D01*
X133160606Y-127385578D01*
X133160604Y-127385578D01*
X133104910Y-127374500D01*
X133104907Y-127374500D01*
X133104906Y-127374500D01*
X119376115Y-127374500D01*
X119309076Y-127354815D01*
X119276393Y-127321428D01*
X119275151Y-127322331D01*
X119151971Y-127152786D01*
X119007213Y-127008028D01*
X118841613Y-126887715D01*
X118841612Y-126887714D01*
X118841610Y-126887713D01*
X118782331Y-126857509D01*
X118659223Y-126794781D01*
X118464534Y-126731522D01*
X118275926Y-126701650D01*
X118262352Y-126699500D01*
X118057648Y-126699500D01*
X118044074Y-126701650D01*
X117855465Y-126731522D01*
X117660776Y-126794781D01*
X117478386Y-126887715D01*
X117312786Y-127008028D01*
X117168028Y-127152786D01*
X117047715Y-127318386D01*
X116954781Y-127500776D01*
X116891522Y-127695465D01*
X116859500Y-127897648D01*
X116859500Y-128102351D01*
X116891522Y-128304534D01*
X116954781Y-128499223D01*
X117008473Y-128604598D01*
X117043689Y-128673713D01*
X117047715Y-128681613D01*
X117168028Y-128847213D01*
X117312786Y-128991971D01*
X117456302Y-129096239D01*
X117478390Y-129112287D01*
X117594607Y-129171503D01*
X117660776Y-129205218D01*
X117660778Y-129205218D01*
X117660781Y-129205220D01*
X117765137Y-129239127D01*
X117855465Y-129268477D01*
X117956557Y-129284488D01*
X118057648Y-129300500D01*
X118057649Y-129300500D01*
X118262351Y-129300500D01*
X118262352Y-129300500D01*
X118464534Y-129268477D01*
X118659219Y-129205220D01*
X118841610Y-129112287D01*
X118964219Y-129023207D01*
X119007213Y-128991971D01*
X119007215Y-128991968D01*
X119007219Y-128991966D01*
X119151966Y-128847219D01*
X119151968Y-128847215D01*
X119151971Y-128847213D01*
X119275151Y-128677669D01*
X119276823Y-128678884D01*
X119322208Y-128637831D01*
X119376115Y-128625500D01*
X132732848Y-128625500D01*
X132799887Y-128645185D01*
X132820529Y-128661819D01*
X133424563Y-129265855D01*
X133424567Y-129265858D01*
X133527010Y-129334309D01*
X133527011Y-129334309D01*
X133527015Y-129334312D01*
X133593697Y-129361932D01*
X133640848Y-129381463D01*
X133660897Y-129385451D01*
X133737221Y-129400633D01*
X133748678Y-129402912D01*
X133810589Y-129435297D01*
X133834970Y-129468232D01*
X133844950Y-129487819D01*
X133969890Y-129659786D01*
X134120213Y-129810109D01*
X134292182Y-129935050D01*
X134300946Y-129939516D01*
X134351742Y-129987491D01*
X134368536Y-130055312D01*
X134345998Y-130121447D01*
X134300946Y-130160484D01*
X134292182Y-130164949D01*
X134120213Y-130289890D01*
X133969890Y-130440213D01*
X133844951Y-130612179D01*
X133748444Y-130801585D01*
X133682753Y-131003760D01*
X133649500Y-131213713D01*
X133649500Y-131426286D01*
X133679017Y-131612653D01*
X133682754Y-131636243D01*
X133703627Y-131700484D01*
X133748444Y-131838414D01*
X133844951Y-132027820D01*
X133969890Y-132199786D01*
X134120213Y-132350109D01*
X134292182Y-132475050D01*
X134300946Y-132479516D01*
X134351742Y-132527491D01*
X134368536Y-132595312D01*
X134345998Y-132661447D01*
X134300946Y-132700484D01*
X134292182Y-132704949D01*
X134120213Y-132829890D01*
X133969890Y-132980213D01*
X133844951Y-133152179D01*
X133748444Y-133341585D01*
X133748443Y-133341587D01*
X133748443Y-133341588D01*
X133730000Y-133398349D01*
X133682753Y-133543760D01*
X133649500Y-133753713D01*
X133649500Y-133966286D01*
X133676884Y-134139185D01*
X133682754Y-134176243D01*
X133709555Y-134258729D01*
X133748444Y-134378414D01*
X133844951Y-134567820D01*
X133969890Y-134739786D01*
X134120213Y-134890109D01*
X134292182Y-135015050D01*
X134300946Y-135019516D01*
X134351742Y-135067491D01*
X134368536Y-135135312D01*
X134345998Y-135201447D01*
X134300946Y-135240484D01*
X134292182Y-135244949D01*
X134120213Y-135369890D01*
X133969890Y-135520213D01*
X133844951Y-135692179D01*
X133748444Y-135881585D01*
X133682753Y-136083760D01*
X133651706Y-136279786D01*
X133649500Y-136293713D01*
X133649500Y-136506287D01*
X133654928Y-136540557D01*
X133677268Y-136681610D01*
X133682754Y-136716243D01*
X133737865Y-136885857D01*
X133748444Y-136918414D01*
X133844951Y-137107820D01*
X133969890Y-137279786D01*
X134120213Y-137430109D01*
X134292182Y-137555050D01*
X134300946Y-137559516D01*
X134351742Y-137607491D01*
X134368536Y-137675312D01*
X134345998Y-137741447D01*
X134300946Y-137780484D01*
X134292182Y-137784949D01*
X134120213Y-137909890D01*
X133969890Y-138060213D01*
X133844951Y-138232179D01*
X133748444Y-138421585D01*
X133682753Y-138623760D01*
X133665685Y-138731523D01*
X133649500Y-138833713D01*
X133649500Y-139046287D01*
X133656840Y-139092627D01*
X133676884Y-139219185D01*
X133682754Y-139256243D01*
X133703627Y-139320484D01*
X133748444Y-139458414D01*
X133844951Y-139647820D01*
X133969890Y-139819786D01*
X134120213Y-139970109D01*
X134292182Y-140095050D01*
X134300946Y-140099516D01*
X134351742Y-140147491D01*
X134368536Y-140215312D01*
X134345998Y-140281447D01*
X134300946Y-140320484D01*
X134292182Y-140324949D01*
X134120213Y-140449890D01*
X133969890Y-140600213D01*
X133844950Y-140772180D01*
X133834970Y-140791768D01*
X133786994Y-140842563D01*
X133748677Y-140857088D01*
X133640855Y-140878535D01*
X133640845Y-140878538D01*
X133527016Y-140925687D01*
X133527007Y-140925692D01*
X133424567Y-140994141D01*
X133424563Y-140994144D01*
X133337444Y-141081263D01*
X133337441Y-141081267D01*
X133268992Y-141183707D01*
X133268987Y-141183716D01*
X133221838Y-141297545D01*
X133221835Y-141297555D01*
X133197800Y-141418389D01*
X133197800Y-141992947D01*
X133178115Y-142059986D01*
X133161481Y-142080628D01*
X126362385Y-148879724D01*
X126301062Y-148913209D01*
X126231370Y-148908225D01*
X126175438Y-148866354D01*
X126157547Y-148842455D01*
X126157544Y-148842452D01*
X126042335Y-148756206D01*
X126042328Y-148756202D01*
X125907482Y-148705908D01*
X125907483Y-148705908D01*
X125847883Y-148699501D01*
X125847881Y-148699500D01*
X125847873Y-148699500D01*
X125847864Y-148699500D01*
X124152129Y-148699500D01*
X124152123Y-148699501D01*
X124092516Y-148705908D01*
X123957671Y-148756202D01*
X123957664Y-148756206D01*
X123842455Y-148842452D01*
X123842452Y-148842455D01*
X123756206Y-148957664D01*
X123756202Y-148957671D01*
X123705908Y-149092517D01*
X123699501Y-149152116D01*
X123699500Y-149152135D01*
X123699500Y-150591898D01*
X123679815Y-150658937D01*
X123627011Y-150704692D01*
X123557853Y-150714636D01*
X123494297Y-150685611D01*
X123457569Y-150630216D01*
X123456595Y-150627219D01*
X123390568Y-150424008D01*
X123283343Y-150213567D01*
X123144517Y-150022490D01*
X122977510Y-149855483D01*
X122786433Y-149716657D01*
X122575996Y-149609433D01*
X122351368Y-149536446D01*
X122118097Y-149499500D01*
X122118092Y-149499500D01*
X120881908Y-149499500D01*
X120881903Y-149499500D01*
X120648631Y-149536446D01*
X120424003Y-149609433D01*
X120213566Y-149716657D01*
X120022490Y-149855483D01*
X120006855Y-149871118D01*
X119945531Y-149904601D01*
X119875839Y-149899615D01*
X119846291Y-149883752D01*
X119734025Y-149802187D01*
X119734024Y-149802186D01*
X119734022Y-149802185D01*
X119651648Y-149760213D01*
X119537606Y-149702104D01*
X119537603Y-149702103D01*
X119327952Y-149633985D01*
X119219086Y-149616742D01*
X119110222Y-149599500D01*
X118889778Y-149599500D01*
X118817201Y-149610995D01*
X118672047Y-149633985D01*
X118462396Y-149702103D01*
X118462393Y-149702104D01*
X118265974Y-149802187D01*
X118087641Y-149931752D01*
X118087636Y-149931756D01*
X117931756Y-150087636D01*
X117931752Y-150087641D01*
X117802187Y-150265974D01*
X117702104Y-150462393D01*
X117702103Y-150462396D01*
X117633985Y-150672047D01*
X117606137Y-150847872D01*
X117599500Y-150889778D01*
X117599500Y-151110222D01*
X117600747Y-151118097D01*
X117633985Y-151327952D01*
X117702103Y-151537603D01*
X117702104Y-151537606D01*
X117761299Y-151653780D01*
X117781171Y-151692781D01*
X117802187Y-151734025D01*
X117931752Y-151912358D01*
X117931756Y-151912363D01*
X118087636Y-152068243D01*
X118087641Y-152068247D01*
X118186402Y-152140000D01*
X118265978Y-152197815D01*
X118394375Y-152263237D01*
X118462393Y-152297895D01*
X118462396Y-152297896D01*
X118567221Y-152331955D01*
X118672049Y-152366015D01*
X118889778Y-152400500D01*
X118889779Y-152400500D01*
X119110221Y-152400500D01*
X119110222Y-152400500D01*
X119327951Y-152366015D01*
X119537606Y-152297895D01*
X119734022Y-152197815D01*
X119846292Y-152116246D01*
X119912097Y-152092767D01*
X119980151Y-152108592D01*
X120006857Y-152128884D01*
X120022490Y-152144517D01*
X120213567Y-152283343D01*
X120247240Y-152300500D01*
X120424003Y-152390566D01*
X120424005Y-152390566D01*
X120424008Y-152390568D01*
X120544412Y-152429689D01*
X120648631Y-152463553D01*
X120881903Y-152500500D01*
X120881908Y-152500500D01*
X122118097Y-152500500D01*
X122351368Y-152463553D01*
X122575992Y-152390568D01*
X122786433Y-152283343D01*
X122977510Y-152144517D01*
X123144517Y-151977510D01*
X123283343Y-151786433D01*
X123390568Y-151575992D01*
X123463553Y-151351368D01*
X123464116Y-151347816D01*
X123500500Y-151118097D01*
X123500500Y-151044048D01*
X123520185Y-150977009D01*
X123572989Y-150931254D01*
X123642147Y-150921310D01*
X123705703Y-150950335D01*
X123740682Y-151000715D01*
X123756202Y-151042328D01*
X123756206Y-151042335D01*
X123842452Y-151157544D01*
X123842455Y-151157547D01*
X123957664Y-151243793D01*
X123957671Y-151243797D01*
X123987202Y-151254811D01*
X124092517Y-151294091D01*
X124129441Y-151298060D01*
X124193989Y-151324796D01*
X124233838Y-151382188D01*
X124236333Y-151452013D01*
X124200681Y-151512102D01*
X124189071Y-151521666D01*
X124152784Y-151548030D01*
X124008028Y-151692786D01*
X123887715Y-151858386D01*
X123794781Y-152040776D01*
X123731522Y-152235465D01*
X123699500Y-152437648D01*
X123699500Y-152642351D01*
X123731522Y-152844534D01*
X123794781Y-153039223D01*
X123822851Y-153094312D01*
X123885968Y-153218186D01*
X123887715Y-153221613D01*
X124008028Y-153387213D01*
X124152786Y-153531971D01*
X124293199Y-153633985D01*
X124318390Y-153652287D01*
X124409840Y-153698883D01*
X124411080Y-153699515D01*
X124461876Y-153747490D01*
X124478671Y-153815311D01*
X124456134Y-153881446D01*
X124411080Y-153920485D01*
X124318386Y-153967715D01*
X124152786Y-154088028D01*
X124008028Y-154232786D01*
X123887715Y-154398386D01*
X123794781Y-154580776D01*
X123731522Y-154775465D01*
X123699500Y-154977648D01*
X123699500Y-155182351D01*
X123731522Y-155384534D01*
X123794781Y-155579223D01*
X123846090Y-155679920D01*
X123885185Y-155756649D01*
X123887715Y-155761613D01*
X124008028Y-155927213D01*
X124152786Y-156071971D01*
X124264014Y-156152781D01*
X124318390Y-156192287D01*
X124409840Y-156238883D01*
X124411080Y-156239515D01*
X124461876Y-156287490D01*
X124478671Y-156355311D01*
X124456134Y-156421446D01*
X124411080Y-156460485D01*
X124318386Y-156507715D01*
X124152786Y-156628028D01*
X124008028Y-156772786D01*
X123887715Y-156938386D01*
X123794781Y-157120776D01*
X123731522Y-157315465D01*
X123699500Y-157517648D01*
X123699500Y-157722351D01*
X123731522Y-157924534D01*
X123794781Y-158119223D01*
X123858028Y-158243350D01*
X123887147Y-158300500D01*
X123887715Y-158301613D01*
X124008028Y-158467213D01*
X124152786Y-158611971D01*
X124307749Y-158724556D01*
X124318390Y-158732287D01*
X124434607Y-158791503D01*
X124500776Y-158825218D01*
X124500778Y-158825218D01*
X124500781Y-158825220D01*
X124605137Y-158859127D01*
X124695465Y-158888477D01*
X124796557Y-158904488D01*
X124897648Y-158920500D01*
X124897649Y-158920500D01*
X125102351Y-158920500D01*
X125102352Y-158920500D01*
X125304534Y-158888477D01*
X125499219Y-158825220D01*
X125681610Y-158732287D01*
X125774590Y-158664732D01*
X125847213Y-158611971D01*
X125847215Y-158611968D01*
X125847219Y-158611966D01*
X125991966Y-158467219D01*
X125991968Y-158467215D01*
X125991971Y-158467213D01*
X126044732Y-158394590D01*
X126112287Y-158301610D01*
X126205220Y-158119219D01*
X126268477Y-157924534D01*
X126300500Y-157722352D01*
X126300500Y-157517648D01*
X126268477Y-157315466D01*
X126268476Y-157315464D01*
X126217049Y-157157187D01*
X126205220Y-157120781D01*
X126205218Y-157120778D01*
X126205218Y-157120776D01*
X126165123Y-157042086D01*
X126112287Y-156938390D01*
X126104556Y-156927749D01*
X125991971Y-156772786D01*
X125847213Y-156628028D01*
X125681614Y-156507715D01*
X125664947Y-156499223D01*
X125588917Y-156460483D01*
X125538123Y-156412511D01*
X125521328Y-156344690D01*
X125543865Y-156278555D01*
X125588917Y-156239516D01*
X125681610Y-156192287D01*
X125736824Y-156152172D01*
X125847213Y-156071971D01*
X125847215Y-156071968D01*
X125847219Y-156071966D01*
X125991966Y-155927219D01*
X125991968Y-155927215D01*
X125991971Y-155927213D01*
X126068820Y-155821437D01*
X126112287Y-155761610D01*
X126205220Y-155579219D01*
X126268477Y-155384534D01*
X126300500Y-155182352D01*
X126300500Y-154977648D01*
X131319500Y-154977648D01*
X131319500Y-155182351D01*
X131351522Y-155384534D01*
X131414781Y-155579223D01*
X131466090Y-155679920D01*
X131505185Y-155756649D01*
X131507715Y-155761613D01*
X131628028Y-155927213D01*
X131772786Y-156071971D01*
X131884014Y-156152781D01*
X131938390Y-156192287D01*
X132029840Y-156238883D01*
X132031080Y-156239515D01*
X132081876Y-156287490D01*
X132098671Y-156355311D01*
X132076134Y-156421446D01*
X132031080Y-156460485D01*
X131938386Y-156507715D01*
X131772786Y-156628028D01*
X131628028Y-156772786D01*
X131507715Y-156938386D01*
X131414781Y-157120776D01*
X131351522Y-157315465D01*
X131319500Y-157517648D01*
X131319500Y-157722351D01*
X131351522Y-157924534D01*
X131414781Y-158119223D01*
X131478028Y-158243350D01*
X131507147Y-158300500D01*
X131507715Y-158301613D01*
X131628028Y-158467213D01*
X131772786Y-158611971D01*
X131927749Y-158724556D01*
X131938390Y-158732287D01*
X132054607Y-158791503D01*
X132120776Y-158825218D01*
X132120778Y-158825218D01*
X132120781Y-158825220D01*
X132225137Y-158859127D01*
X132315465Y-158888477D01*
X132416557Y-158904488D01*
X132517648Y-158920500D01*
X132517649Y-158920500D01*
X132722351Y-158920500D01*
X132722352Y-158920500D01*
X132924534Y-158888477D01*
X133119219Y-158825220D01*
X133301610Y-158732287D01*
X133394590Y-158664732D01*
X133467213Y-158611971D01*
X133467215Y-158611968D01*
X133467219Y-158611966D01*
X133611966Y-158467219D01*
X133611968Y-158467215D01*
X133611971Y-158467213D01*
X133664732Y-158394590D01*
X133732287Y-158301610D01*
X133825220Y-158119219D01*
X133888477Y-157924534D01*
X133920500Y-157722352D01*
X133920500Y-157517648D01*
X133888477Y-157315466D01*
X133888476Y-157315462D01*
X133888476Y-157315461D01*
X133862968Y-157236956D01*
X133837049Y-157157187D01*
X133825220Y-157120781D01*
X133825218Y-157120778D01*
X133825218Y-157120776D01*
X133737729Y-156949071D01*
X133737728Y-156949069D01*
X133732286Y-156938388D01*
X133611971Y-156772786D01*
X133467213Y-156628028D01*
X133301614Y-156507715D01*
X133284947Y-156499223D01*
X133208917Y-156460483D01*
X133158123Y-156412511D01*
X133141328Y-156344690D01*
X133163865Y-156278555D01*
X133208917Y-156239516D01*
X133301610Y-156192287D01*
X133356824Y-156152172D01*
X133356847Y-156152155D01*
X134700000Y-156152155D01*
X134700000Y-156750000D01*
X135684314Y-156750000D01*
X135679920Y-156754394D01*
X135627259Y-156845606D01*
X135600000Y-156947339D01*
X135600000Y-157052661D01*
X135627259Y-157154394D01*
X135679920Y-157245606D01*
X135684314Y-157250000D01*
X134700000Y-157250000D01*
X134700000Y-157847844D01*
X134706401Y-157907372D01*
X134706403Y-157907379D01*
X134756645Y-158042086D01*
X134756649Y-158042093D01*
X134842809Y-158157187D01*
X134842812Y-158157190D01*
X134957906Y-158243350D01*
X134957913Y-158243354D01*
X135092620Y-158293596D01*
X135092627Y-158293598D01*
X135152155Y-158299999D01*
X135152172Y-158300000D01*
X135750000Y-158300000D01*
X135750000Y-157315686D01*
X135754394Y-157320080D01*
X135845606Y-157372741D01*
X135947339Y-157400000D01*
X136052661Y-157400000D01*
X136154394Y-157372741D01*
X136245606Y-157320080D01*
X136250000Y-157315686D01*
X136250000Y-158300000D01*
X136847828Y-158300000D01*
X136847844Y-158299999D01*
X136907372Y-158293598D01*
X136907379Y-158293596D01*
X137042086Y-158243354D01*
X137042093Y-158243350D01*
X137157187Y-158157190D01*
X137157190Y-158157187D01*
X137243350Y-158042093D01*
X137243354Y-158042086D01*
X137293596Y-157907379D01*
X137293598Y-157907372D01*
X137299999Y-157847844D01*
X137300000Y-157847827D01*
X137300000Y-157250000D01*
X136315686Y-157250000D01*
X136320080Y-157245606D01*
X136372741Y-157154394D01*
X136400000Y-157052661D01*
X136400000Y-156947339D01*
X136386685Y-156897648D01*
X139699500Y-156897648D01*
X139699500Y-157102351D01*
X139731522Y-157304534D01*
X139794781Y-157499223D01*
X139887715Y-157681613D01*
X140008028Y-157847213D01*
X140152786Y-157991971D01*
X140307749Y-158104556D01*
X140318390Y-158112287D01*
X140406517Y-158157190D01*
X140500776Y-158205218D01*
X140500778Y-158205218D01*
X140500781Y-158205220D01*
X140605137Y-158239127D01*
X140695465Y-158268477D01*
X140796557Y-158284488D01*
X140897648Y-158300500D01*
X140897649Y-158300500D01*
X141102351Y-158300500D01*
X141102352Y-158300500D01*
X141304534Y-158268477D01*
X141499219Y-158205220D01*
X141681610Y-158112287D01*
X141778234Y-158042086D01*
X141847213Y-157991971D01*
X141847215Y-157991968D01*
X141847219Y-157991966D01*
X141991966Y-157847219D01*
X141991968Y-157847215D01*
X141991971Y-157847213D01*
X142082687Y-157722351D01*
X142112287Y-157681610D01*
X142205220Y-157499219D01*
X142268477Y-157304534D01*
X142300500Y-157102352D01*
X142300500Y-156897648D01*
X142289474Y-156828031D01*
X142268477Y-156695465D01*
X142205218Y-156500776D01*
X142154124Y-156400500D01*
X142112287Y-156318390D01*
X142088188Y-156285220D01*
X142078239Y-156271526D01*
X142078236Y-156271523D01*
X142068081Y-156257546D01*
X141991966Y-156152781D01*
X141847219Y-156008034D01*
X141847213Y-156008028D01*
X141826657Y-155993094D01*
X141681613Y-155887715D01*
X141681612Y-155887714D01*
X141681610Y-155887713D01*
X141624653Y-155858691D01*
X141499223Y-155794781D01*
X141304534Y-155731522D01*
X141129995Y-155703878D01*
X141102352Y-155699500D01*
X140897648Y-155699500D01*
X140873329Y-155703351D01*
X140695465Y-155731522D01*
X140500776Y-155794781D01*
X140318386Y-155887715D01*
X140152786Y-156008028D01*
X140008028Y-156152786D01*
X139887715Y-156318386D01*
X139794781Y-156500776D01*
X139731522Y-156695465D01*
X139699500Y-156897648D01*
X136386685Y-156897648D01*
X136372741Y-156845606D01*
X136320080Y-156754394D01*
X136315686Y-156750000D01*
X137300000Y-156750000D01*
X137300000Y-156152172D01*
X137299999Y-156152155D01*
X137293598Y-156092627D01*
X137293596Y-156092620D01*
X137243354Y-155957913D01*
X137243350Y-155957906D01*
X137157190Y-155842812D01*
X137157187Y-155842809D01*
X137042093Y-155756649D01*
X137042086Y-155756645D01*
X136907379Y-155706403D01*
X136907372Y-155706401D01*
X136847844Y-155700000D01*
X136250000Y-155700000D01*
X136250000Y-156684314D01*
X136245606Y-156679920D01*
X136154394Y-156627259D01*
X136052661Y-156600000D01*
X135947339Y-156600000D01*
X135845606Y-156627259D01*
X135754394Y-156679920D01*
X135750000Y-156684314D01*
X135750000Y-155700000D01*
X135152155Y-155700000D01*
X135092627Y-155706401D01*
X135092620Y-155706403D01*
X134957913Y-155756645D01*
X134957906Y-155756649D01*
X134842812Y-155842809D01*
X134842809Y-155842812D01*
X134756649Y-155957906D01*
X134756645Y-155957913D01*
X134706403Y-156092620D01*
X134706401Y-156092627D01*
X134700000Y-156152155D01*
X133356847Y-156152155D01*
X133467213Y-156071971D01*
X133467215Y-156071968D01*
X133467219Y-156071966D01*
X133611966Y-155927219D01*
X133611968Y-155927215D01*
X133611971Y-155927213D01*
X133688820Y-155821437D01*
X133732287Y-155761610D01*
X133825220Y-155579219D01*
X133888477Y-155384534D01*
X133920500Y-155182352D01*
X133920500Y-155152155D01*
X146700000Y-155152155D01*
X146700000Y-155750000D01*
X147684314Y-155750000D01*
X147679920Y-155754394D01*
X147627259Y-155845606D01*
X147600000Y-155947339D01*
X147600000Y-156052661D01*
X147627259Y-156154394D01*
X147679920Y-156245606D01*
X147684314Y-156250000D01*
X146700000Y-156250000D01*
X146700000Y-156847844D01*
X146706401Y-156907372D01*
X146706403Y-156907379D01*
X146756645Y-157042086D01*
X146756649Y-157042093D01*
X146842809Y-157157187D01*
X146842812Y-157157190D01*
X146957906Y-157243350D01*
X146957913Y-157243354D01*
X147092620Y-157293596D01*
X147092627Y-157293598D01*
X147152155Y-157299999D01*
X147152172Y-157300000D01*
X147750000Y-157300000D01*
X147750000Y-156315686D01*
X147754394Y-156320080D01*
X147845606Y-156372741D01*
X147947339Y-156400000D01*
X148052661Y-156400000D01*
X148154394Y-156372741D01*
X148245606Y-156320080D01*
X148250000Y-156315686D01*
X148250000Y-157300000D01*
X148847828Y-157300000D01*
X148847844Y-157299999D01*
X148907372Y-157293598D01*
X148907379Y-157293596D01*
X149042086Y-157243354D01*
X149042093Y-157243350D01*
X149157187Y-157157190D01*
X149157190Y-157157187D01*
X149243350Y-157042093D01*
X149243354Y-157042086D01*
X149293596Y-156907379D01*
X149293598Y-156907372D01*
X149299999Y-156847844D01*
X149300000Y-156847827D01*
X149300000Y-156250000D01*
X148315686Y-156250000D01*
X148320080Y-156245606D01*
X148372741Y-156154394D01*
X148400000Y-156052661D01*
X148400000Y-155947339D01*
X148386685Y-155897648D01*
X151699500Y-155897648D01*
X151699500Y-156102351D01*
X151731522Y-156304534D01*
X151794781Y-156499223D01*
X151887715Y-156681613D01*
X152008028Y-156847213D01*
X152152786Y-156991971D01*
X152307749Y-157104556D01*
X152318390Y-157112287D01*
X152406517Y-157157190D01*
X152500776Y-157205218D01*
X152500778Y-157205218D01*
X152500781Y-157205220D01*
X152598454Y-157236956D01*
X152695465Y-157268477D01*
X152796557Y-157284488D01*
X152897648Y-157300500D01*
X152897649Y-157300500D01*
X153102351Y-157300500D01*
X153102352Y-157300500D01*
X153304534Y-157268477D01*
X153499219Y-157205220D01*
X153681610Y-157112287D01*
X153778234Y-157042086D01*
X153847213Y-156991971D01*
X153847215Y-156991968D01*
X153847219Y-156991966D01*
X153991966Y-156847219D01*
X153991968Y-156847215D01*
X153991971Y-156847213D01*
X154062599Y-156750000D01*
X154112287Y-156681610D01*
X154205220Y-156499219D01*
X154268477Y-156304534D01*
X154300500Y-156102352D01*
X154300500Y-155897648D01*
X154278167Y-155756645D01*
X154268477Y-155695465D01*
X154205218Y-155500776D01*
X154145989Y-155384534D01*
X154112287Y-155318390D01*
X154104556Y-155307749D01*
X153991971Y-155152786D01*
X153847213Y-155008028D01*
X153681613Y-154887715D01*
X153681612Y-154887714D01*
X153681610Y-154887713D01*
X153593487Y-154842812D01*
X153499223Y-154794781D01*
X153304534Y-154731522D01*
X153129995Y-154703878D01*
X153102352Y-154699500D01*
X152897648Y-154699500D01*
X152873329Y-154703351D01*
X152695465Y-154731522D01*
X152500776Y-154794781D01*
X152318386Y-154887715D01*
X152152786Y-155008028D01*
X152008028Y-155152786D01*
X151887715Y-155318386D01*
X151794781Y-155500776D01*
X151731522Y-155695465D01*
X151699500Y-155897648D01*
X148386685Y-155897648D01*
X148372741Y-155845606D01*
X148320080Y-155754394D01*
X148315686Y-155750000D01*
X149300000Y-155750000D01*
X149300000Y-155152172D01*
X149299999Y-155152155D01*
X149293598Y-155092627D01*
X149293596Y-155092620D01*
X149243354Y-154957913D01*
X149243350Y-154957906D01*
X149157190Y-154842812D01*
X149157187Y-154842809D01*
X149042093Y-154756649D01*
X149042086Y-154756645D01*
X148907379Y-154706403D01*
X148907372Y-154706401D01*
X148847844Y-154700000D01*
X148250000Y-154700000D01*
X148250000Y-155684314D01*
X148245606Y-155679920D01*
X148154394Y-155627259D01*
X148052661Y-155600000D01*
X147947339Y-155600000D01*
X147845606Y-155627259D01*
X147754394Y-155679920D01*
X147750000Y-155684314D01*
X147750000Y-154700000D01*
X147152155Y-154700000D01*
X147092627Y-154706401D01*
X147092620Y-154706403D01*
X146957913Y-154756645D01*
X146957906Y-154756649D01*
X146842812Y-154842809D01*
X146842809Y-154842812D01*
X146756649Y-154957906D01*
X146756645Y-154957913D01*
X146706403Y-155092620D01*
X146706401Y-155092627D01*
X146700000Y-155152155D01*
X133920500Y-155152155D01*
X133920500Y-154977648D01*
X133917373Y-154957906D01*
X133888477Y-154775465D01*
X133825218Y-154580776D01*
X133791503Y-154514607D01*
X133732287Y-154398390D01*
X133724556Y-154387749D01*
X133611971Y-154232786D01*
X133467213Y-154088028D01*
X133301611Y-153967713D01*
X133208369Y-153920203D01*
X133157574Y-153872229D01*
X133140779Y-153804407D01*
X133163317Y-153738273D01*
X133208371Y-153699234D01*
X133301347Y-153651861D01*
X133466894Y-153531582D01*
X133466895Y-153531582D01*
X133611582Y-153386895D01*
X133611582Y-153386894D01*
X133731859Y-153221349D01*
X133824755Y-153039029D01*
X133887990Y-152844413D01*
X133896609Y-152790000D01*
X132935686Y-152790000D01*
X132940080Y-152785606D01*
X132992741Y-152694394D01*
X133020000Y-152592661D01*
X133020000Y-152487339D01*
X132992741Y-152385606D01*
X132940080Y-152294394D01*
X132935686Y-152290000D01*
X133896609Y-152290000D01*
X133887990Y-152235586D01*
X133824755Y-152040970D01*
X133731859Y-151858650D01*
X133611582Y-151693105D01*
X133611582Y-151693104D01*
X133466895Y-151548417D01*
X133301349Y-151428140D01*
X133207820Y-151380485D01*
X133200231Y-151373318D01*
X133190431Y-151369733D01*
X133175268Y-151349741D01*
X133157024Y-151332511D01*
X133154515Y-151322379D01*
X133148208Y-151314064D01*
X133146260Y-151289045D01*
X133140229Y-151264690D01*
X133143595Y-151254811D01*
X133142785Y-151244405D01*
X133154672Y-151222305D01*
X133162766Y-151198555D01*
X133171818Y-151190430D01*
X133175884Y-151182872D01*
X133199417Y-151165660D01*
X133204004Y-151161544D01*
X133326122Y-151093860D01*
X133466894Y-150991582D01*
X133466895Y-150991582D01*
X133611582Y-150846895D01*
X133611587Y-150846889D01*
X133631203Y-150819891D01*
X133631203Y-150819890D01*
X133731859Y-150681349D01*
X133824755Y-150499029D01*
X133887990Y-150304413D01*
X133896609Y-150250000D01*
X132935686Y-150250000D01*
X132940080Y-150245606D01*
X132992741Y-150154394D01*
X132993341Y-150152155D01*
X134700000Y-150152155D01*
X134700000Y-150750000D01*
X135684314Y-150750000D01*
X135679920Y-150754394D01*
X135627259Y-150845606D01*
X135600000Y-150947339D01*
X135600000Y-151052661D01*
X135627259Y-151154394D01*
X135679920Y-151245606D01*
X135684314Y-151250000D01*
X134700000Y-151250000D01*
X134700000Y-151847844D01*
X134706401Y-151907372D01*
X134706403Y-151907379D01*
X134756645Y-152042086D01*
X134756649Y-152042093D01*
X134842809Y-152157187D01*
X134842812Y-152157190D01*
X134957906Y-152243350D01*
X134957913Y-152243354D01*
X135092620Y-152293596D01*
X135092627Y-152293598D01*
X135152155Y-152299999D01*
X135152172Y-152300000D01*
X135750000Y-152300000D01*
X135750000Y-151315686D01*
X135754394Y-151320080D01*
X135845606Y-151372741D01*
X135947339Y-151400000D01*
X136052661Y-151400000D01*
X136154394Y-151372741D01*
X136245606Y-151320080D01*
X136250000Y-151315686D01*
X136250000Y-152300000D01*
X136847828Y-152300000D01*
X136847844Y-152299999D01*
X136907372Y-152293598D01*
X136907379Y-152293596D01*
X137042086Y-152243354D01*
X137042093Y-152243350D01*
X137157187Y-152157190D01*
X137157190Y-152157187D01*
X137243350Y-152042093D01*
X137243354Y-152042086D01*
X137293596Y-151907379D01*
X137293598Y-151907372D01*
X137299999Y-151847844D01*
X137300000Y-151847827D01*
X137300000Y-151250000D01*
X136315686Y-151250000D01*
X136320080Y-151245606D01*
X136372741Y-151154394D01*
X136400000Y-151052661D01*
X136400000Y-150947339D01*
X136386685Y-150897648D01*
X139699500Y-150897648D01*
X139699500Y-151102351D01*
X139731522Y-151304534D01*
X139794781Y-151499223D01*
X139858691Y-151624653D01*
X139881850Y-151670104D01*
X139887715Y-151681613D01*
X140008028Y-151847213D01*
X140152786Y-151991971D01*
X140291523Y-152092767D01*
X140318390Y-152112287D01*
X140434607Y-152171503D01*
X140500776Y-152205218D01*
X140500778Y-152205218D01*
X140500781Y-152205220D01*
X140593866Y-152235465D01*
X140695465Y-152268477D01*
X140789318Y-152283342D01*
X140897648Y-152300500D01*
X140897649Y-152300500D01*
X141102351Y-152300500D01*
X141102352Y-152300500D01*
X141304534Y-152268477D01*
X141499219Y-152205220D01*
X141681610Y-152112287D01*
X141780037Y-152040776D01*
X141847213Y-151991971D01*
X141847215Y-151991968D01*
X141847219Y-151991966D01*
X141991966Y-151847219D01*
X141991968Y-151847215D01*
X141991971Y-151847213D01*
X142063200Y-151749173D01*
X142112287Y-151681610D01*
X142205220Y-151499219D01*
X142268477Y-151304534D01*
X142300500Y-151102352D01*
X142300500Y-150897648D01*
X142299650Y-150892284D01*
X142268477Y-150695465D01*
X142215920Y-150533713D01*
X142205220Y-150500781D01*
X142205218Y-150500778D01*
X142205218Y-150500776D01*
X142153222Y-150398729D01*
X142112287Y-150318390D01*
X142074205Y-150265974D01*
X141991971Y-150152786D01*
X141847213Y-150008028D01*
X141681613Y-149887715D01*
X141681612Y-149887714D01*
X141681610Y-149887713D01*
X141618355Y-149855483D01*
X141499223Y-149794781D01*
X141304534Y-149731522D01*
X141118799Y-149702105D01*
X141102352Y-149699500D01*
X140897648Y-149699500D01*
X140881201Y-149702105D01*
X140695465Y-149731522D01*
X140500776Y-149794781D01*
X140318386Y-149887715D01*
X140152786Y-150008028D01*
X140008028Y-150152786D01*
X139887715Y-150318386D01*
X139794781Y-150500776D01*
X139731522Y-150695465D01*
X139699500Y-150897648D01*
X136386685Y-150897648D01*
X136372741Y-150845606D01*
X136320080Y-150754394D01*
X136315686Y-150750000D01*
X137300000Y-150750000D01*
X137300000Y-150152172D01*
X137299999Y-150152155D01*
X137293598Y-150092627D01*
X137293596Y-150092620D01*
X137243354Y-149957913D01*
X137243350Y-149957906D01*
X137157190Y-149842812D01*
X137157187Y-149842809D01*
X137042093Y-149756649D01*
X137042086Y-149756645D01*
X136907379Y-149706403D01*
X136907372Y-149706401D01*
X136847844Y-149700000D01*
X136250000Y-149700000D01*
X136250000Y-150684314D01*
X136245606Y-150679920D01*
X136154394Y-150627259D01*
X136052661Y-150600000D01*
X135947339Y-150600000D01*
X135845606Y-150627259D01*
X135754394Y-150679920D01*
X135750000Y-150684314D01*
X135750000Y-149700000D01*
X135152155Y-149700000D01*
X135092627Y-149706401D01*
X135092620Y-149706403D01*
X134957913Y-149756645D01*
X134957906Y-149756649D01*
X134842812Y-149842809D01*
X134842809Y-149842812D01*
X134756649Y-149957906D01*
X134756645Y-149957913D01*
X134706403Y-150092620D01*
X134706401Y-150092627D01*
X134700000Y-150152155D01*
X132993341Y-150152155D01*
X133020000Y-150052661D01*
X133020000Y-149947339D01*
X132992741Y-149845606D01*
X132940080Y-149754394D01*
X132935686Y-149750000D01*
X133896609Y-149750000D01*
X133887990Y-149695586D01*
X133824755Y-149500970D01*
X133731859Y-149318650D01*
X133611582Y-149153105D01*
X133611582Y-149153104D01*
X133466895Y-149008417D01*
X133301349Y-148888140D01*
X133119029Y-148795244D01*
X132924413Y-148732009D01*
X132870000Y-148723390D01*
X132870000Y-149684314D01*
X132865606Y-149679920D01*
X132774394Y-149627259D01*
X132672661Y-149600000D01*
X132567339Y-149600000D01*
X132465606Y-149627259D01*
X132374394Y-149679920D01*
X132370000Y-149684314D01*
X132370000Y-148723390D01*
X132315586Y-148732009D01*
X132120970Y-148795244D01*
X131938650Y-148888140D01*
X131773105Y-149008417D01*
X131773104Y-149008417D01*
X131628417Y-149153104D01*
X131628417Y-149153105D01*
X131508140Y-149318650D01*
X131415244Y-149500970D01*
X131352009Y-149695586D01*
X131343391Y-149750000D01*
X132304314Y-149750000D01*
X132299920Y-149754394D01*
X132247259Y-149845606D01*
X132220000Y-149947339D01*
X132220000Y-150052661D01*
X132247259Y-150154394D01*
X132299920Y-150245606D01*
X132304314Y-150250000D01*
X131343391Y-150250000D01*
X131352009Y-150304413D01*
X131415244Y-150499029D01*
X131508140Y-150681349D01*
X131628417Y-150846894D01*
X131628417Y-150846895D01*
X131773104Y-150991582D01*
X131938650Y-151111859D01*
X132032179Y-151159515D01*
X132082975Y-151207490D01*
X132099770Y-151275311D01*
X132077232Y-151341446D01*
X132032179Y-151380485D01*
X131938650Y-151428140D01*
X131773105Y-151548417D01*
X131773104Y-151548417D01*
X131628417Y-151693104D01*
X131628417Y-151693105D01*
X131508140Y-151858650D01*
X131415244Y-152040970D01*
X131352009Y-152235586D01*
X131343391Y-152290000D01*
X132304314Y-152290000D01*
X132299920Y-152294394D01*
X132247259Y-152385606D01*
X132220000Y-152487339D01*
X132220000Y-152592661D01*
X132247259Y-152694394D01*
X132299920Y-152785606D01*
X132304314Y-152790000D01*
X131343391Y-152790000D01*
X131352009Y-152844413D01*
X131415244Y-153039029D01*
X131508140Y-153221349D01*
X131628417Y-153386894D01*
X131628417Y-153386895D01*
X131773104Y-153531582D01*
X131938652Y-153651861D01*
X132031628Y-153699234D01*
X132082425Y-153747208D01*
X132099220Y-153815029D01*
X132076683Y-153881164D01*
X132031630Y-153920203D01*
X131938388Y-153967713D01*
X131772786Y-154088028D01*
X131628028Y-154232786D01*
X131507715Y-154398386D01*
X131414781Y-154580776D01*
X131351522Y-154775465D01*
X131319500Y-154977648D01*
X126300500Y-154977648D01*
X126297373Y-154957906D01*
X126268477Y-154775465D01*
X126205218Y-154580776D01*
X126171503Y-154514607D01*
X126112287Y-154398390D01*
X126104556Y-154387749D01*
X125991971Y-154232786D01*
X125847213Y-154088028D01*
X125681614Y-153967715D01*
X125611044Y-153931758D01*
X125588917Y-153920483D01*
X125538123Y-153872511D01*
X125521328Y-153804690D01*
X125543865Y-153738555D01*
X125588917Y-153699516D01*
X125681610Y-153652287D01*
X125706801Y-153633985D01*
X125847213Y-153531971D01*
X125847215Y-153531968D01*
X125847219Y-153531966D01*
X125991966Y-153387219D01*
X125991968Y-153387215D01*
X125991971Y-153387213D01*
X126112280Y-153221620D01*
X126112281Y-153221617D01*
X126112287Y-153221610D01*
X126112291Y-153221601D01*
X126112542Y-153221193D01*
X126112684Y-153221064D01*
X126115151Y-153217669D01*
X126115863Y-153218186D01*
X126137034Y-153199027D01*
X126160803Y-153176092D01*
X126163384Y-153175181D01*
X126164347Y-153174310D01*
X126194082Y-153164351D01*
X126248729Y-153153481D01*
X126309152Y-153141463D01*
X126309155Y-153141461D01*
X126309158Y-153141461D01*
X126342487Y-153127654D01*
X126342486Y-153127654D01*
X126342492Y-153127652D01*
X126422986Y-153094312D01*
X126474209Y-153060084D01*
X126525433Y-153025858D01*
X126612558Y-152938733D01*
X126612559Y-152938731D01*
X126619625Y-152931665D01*
X126619627Y-152931661D01*
X132329471Y-147221819D01*
X132390794Y-147188334D01*
X132417152Y-147185500D01*
X133727019Y-147185500D01*
X133794058Y-147205185D01*
X133837503Y-147253203D01*
X133844950Y-147267819D01*
X133969890Y-147439786D01*
X134120213Y-147590109D01*
X134292179Y-147715048D01*
X134292181Y-147715049D01*
X134292184Y-147715051D01*
X134481588Y-147811557D01*
X134683757Y-147877246D01*
X134893713Y-147910500D01*
X134893714Y-147910500D01*
X135106286Y-147910500D01*
X135106287Y-147910500D01*
X135316243Y-147877246D01*
X135518412Y-147811557D01*
X135707816Y-147715051D01*
X135771831Y-147668542D01*
X135879786Y-147590109D01*
X135879788Y-147590106D01*
X135879792Y-147590104D01*
X136030104Y-147439792D01*
X136030106Y-147439788D01*
X136030109Y-147439786D01*
X136155048Y-147267820D01*
X136155049Y-147267819D01*
X136155051Y-147267816D01*
X136159514Y-147259054D01*
X136207488Y-147208259D01*
X136275308Y-147191463D01*
X136341444Y-147213999D01*
X136380486Y-147259056D01*
X136384951Y-147267820D01*
X136509890Y-147439786D01*
X136660213Y-147590109D01*
X136832179Y-147715048D01*
X136832181Y-147715049D01*
X136832184Y-147715051D01*
X137021588Y-147811557D01*
X137223757Y-147877246D01*
X137433713Y-147910500D01*
X137433714Y-147910500D01*
X137646286Y-147910500D01*
X137646287Y-147910500D01*
X137856243Y-147877246D01*
X138058412Y-147811557D01*
X138247816Y-147715051D01*
X138311831Y-147668542D01*
X138419786Y-147590109D01*
X138419788Y-147590106D01*
X138419792Y-147590104D01*
X138570104Y-147439792D01*
X138570106Y-147439788D01*
X138570109Y-147439786D01*
X138695050Y-147267818D01*
X138699514Y-147259056D01*
X138705028Y-147248234D01*
X138707072Y-147246069D01*
X138707758Y-147243170D01*
X138730908Y-147220830D01*
X138752999Y-147197439D01*
X138756540Y-147196096D01*
X138758036Y-147194653D01*
X138791316Y-147182912D01*
X138838729Y-147173481D01*
X138899152Y-147161463D01*
X138899155Y-147161461D01*
X138899158Y-147161461D01*
X138932487Y-147147654D01*
X138932486Y-147147654D01*
X138932492Y-147147652D01*
X139012986Y-147114312D01*
X139064209Y-147080084D01*
X139066712Y-147078412D01*
X139079466Y-147069890D01*
X139115433Y-147045858D01*
X139202558Y-146958733D01*
X139202558Y-146958731D01*
X139212766Y-146948524D01*
X139212766Y-146948522D01*
X139390901Y-146770389D01*
X139427073Y-146734218D01*
X139488397Y-146700734D01*
X139514754Y-146697900D01*
X146638041Y-146697900D01*
X146705080Y-146717585D01*
X146750835Y-146770389D01*
X146760779Y-146839547D01*
X146755972Y-146860218D01*
X146731523Y-146935461D01*
X146731523Y-146935464D01*
X146699500Y-147137648D01*
X146699500Y-147342351D01*
X146731522Y-147544534D01*
X146794781Y-147739223D01*
X146822851Y-147794312D01*
X146883002Y-147912365D01*
X146887715Y-147921613D01*
X147008028Y-148087213D01*
X147152786Y-148231971D01*
X147307749Y-148344556D01*
X147318390Y-148352287D01*
X147409840Y-148398883D01*
X147411080Y-148399515D01*
X147461876Y-148447490D01*
X147478671Y-148515311D01*
X147456134Y-148581446D01*
X147411080Y-148620485D01*
X147318386Y-148667715D01*
X147152786Y-148788028D01*
X147008028Y-148932786D01*
X146887715Y-149098386D01*
X146794781Y-149280776D01*
X146731522Y-149475465D01*
X146699500Y-149677648D01*
X146699500Y-149882352D01*
X146700934Y-149891406D01*
X146731522Y-150084534D01*
X146794781Y-150279223D01*
X146887715Y-150461613D01*
X147008028Y-150627213D01*
X147152786Y-150771971D01*
X147304096Y-150881902D01*
X147318390Y-150892287D01*
X147432315Y-150950335D01*
X147500776Y-150985218D01*
X147500778Y-150985218D01*
X147500781Y-150985220D01*
X147548470Y-151000715D01*
X147695465Y-151048477D01*
X147721882Y-151052661D01*
X147897648Y-151080500D01*
X147897649Y-151080500D01*
X148102351Y-151080500D01*
X148102352Y-151080500D01*
X148304534Y-151048477D01*
X148499219Y-150985220D01*
X148681610Y-150892287D01*
X148781257Y-150819890D01*
X148847213Y-150771971D01*
X148847215Y-150771968D01*
X148847219Y-150771966D01*
X148991966Y-150627219D01*
X148991968Y-150627215D01*
X148991971Y-150627213D01*
X149044936Y-150554312D01*
X149112287Y-150461610D01*
X149205220Y-150279219D01*
X149268477Y-150084534D01*
X149300500Y-149882352D01*
X149300500Y-149677648D01*
X149289696Y-149609433D01*
X149268477Y-149475465D01*
X149232484Y-149364692D01*
X149205220Y-149280781D01*
X149205218Y-149280778D01*
X149205218Y-149280776D01*
X149171503Y-149214607D01*
X149112287Y-149098390D01*
X149104556Y-149087749D01*
X148991971Y-148932786D01*
X148847213Y-148788028D01*
X148681614Y-148667715D01*
X148675006Y-148664348D01*
X148588917Y-148620483D01*
X148538123Y-148572511D01*
X148521328Y-148504690D01*
X148543865Y-148438555D01*
X148588917Y-148399516D01*
X148681610Y-148352287D01*
X148702770Y-148336913D01*
X148847213Y-148231971D01*
X148847215Y-148231968D01*
X148847219Y-148231966D01*
X148991966Y-148087219D01*
X148991968Y-148087215D01*
X148991971Y-148087213D01*
X149115151Y-147917669D01*
X149116823Y-147918884D01*
X149162208Y-147877831D01*
X149216115Y-147865500D01*
X153839007Y-147865500D01*
X153899429Y-147853481D01*
X153959852Y-147841463D01*
X153993192Y-147827652D01*
X154073686Y-147794312D01*
X154124909Y-147760084D01*
X154176133Y-147725858D01*
X154215031Y-147686959D01*
X154220248Y-147682763D01*
X154246595Y-147671875D01*
X154271613Y-147658214D01*
X154278468Y-147658704D01*
X154284821Y-147656079D01*
X154312876Y-147661164D01*
X154341305Y-147663198D01*
X154346805Y-147667315D01*
X154353570Y-147668542D01*
X154374419Y-147687986D01*
X154397239Y-147705068D01*
X154401458Y-147713202D01*
X154404668Y-147716196D01*
X154406262Y-147722464D01*
X154412674Y-147734827D01*
X154413382Y-147734534D01*
X154415242Y-147739025D01*
X154508140Y-147921349D01*
X154628417Y-148086894D01*
X154628417Y-148086895D01*
X154773104Y-148231582D01*
X154938652Y-148351861D01*
X155031628Y-148399234D01*
X155082425Y-148447208D01*
X155099220Y-148515029D01*
X155076683Y-148581164D01*
X155031630Y-148620203D01*
X154938388Y-148667713D01*
X154772786Y-148788028D01*
X154628028Y-148932786D01*
X154507715Y-149098386D01*
X154414781Y-149280776D01*
X154351522Y-149475465D01*
X154319500Y-149677648D01*
X154319500Y-149882352D01*
X154320934Y-149891406D01*
X154351522Y-150084534D01*
X154414781Y-150279223D01*
X154507715Y-150461613D01*
X154628028Y-150627213D01*
X154772786Y-150771971D01*
X154924096Y-150881902D01*
X154938390Y-150892287D01*
X155052315Y-150950335D01*
X155120776Y-150985218D01*
X155120778Y-150985218D01*
X155120781Y-150985220D01*
X155168470Y-151000715D01*
X155315465Y-151048477D01*
X155341882Y-151052661D01*
X155517648Y-151080500D01*
X155517649Y-151080500D01*
X155722351Y-151080500D01*
X155722352Y-151080500D01*
X155924534Y-151048477D01*
X156119219Y-150985220D01*
X156301610Y-150892287D01*
X156401257Y-150819890D01*
X156467213Y-150771971D01*
X156467215Y-150771968D01*
X156467219Y-150771966D01*
X156611966Y-150627219D01*
X156611968Y-150627215D01*
X156611971Y-150627213D01*
X156664936Y-150554312D01*
X156732287Y-150461610D01*
X156825220Y-150279219D01*
X156888477Y-150084534D01*
X156920500Y-149882352D01*
X156920500Y-149677648D01*
X156909696Y-149609433D01*
X156888477Y-149475465D01*
X156852484Y-149364692D01*
X156825220Y-149280781D01*
X156825218Y-149280778D01*
X156825218Y-149280776D01*
X156791503Y-149214607D01*
X156732287Y-149098390D01*
X156724556Y-149087749D01*
X156611971Y-148932786D01*
X156467213Y-148788028D01*
X156301611Y-148667713D01*
X156208369Y-148620203D01*
X156157574Y-148572229D01*
X156140779Y-148504407D01*
X156163317Y-148438273D01*
X156208371Y-148399234D01*
X156301347Y-148351861D01*
X156466894Y-148231582D01*
X156466895Y-148231582D01*
X156611582Y-148086895D01*
X156611582Y-148086894D01*
X156731859Y-147921349D01*
X156824755Y-147739029D01*
X156887990Y-147544413D01*
X156896609Y-147490000D01*
X155935686Y-147490000D01*
X155940080Y-147485606D01*
X155992741Y-147394394D01*
X156020000Y-147292661D01*
X156020000Y-147187339D01*
X155992741Y-147085606D01*
X155940080Y-146994394D01*
X155935686Y-146990000D01*
X156896608Y-146990000D01*
X156895519Y-146983123D01*
X156899424Y-146952900D01*
X156901055Y-146922471D01*
X156903858Y-146918582D01*
X156904473Y-146913829D01*
X156924100Y-146890511D01*
X156941921Y-146865799D01*
X156946379Y-146864044D01*
X156949468Y-146860376D01*
X156978588Y-146851371D01*
X157006939Y-146840217D01*
X157013523Y-146840569D01*
X157016220Y-146839736D01*
X157042171Y-146842104D01*
X157128916Y-146859358D01*
X157190824Y-146891741D01*
X157192403Y-146893293D01*
X157618016Y-147318906D01*
X157618045Y-147318937D01*
X157708264Y-147409156D01*
X157708267Y-147409158D01*
X157764351Y-147446632D01*
X157810715Y-147477612D01*
X157877397Y-147505232D01*
X157882417Y-147507311D01*
X157882426Y-147507316D01*
X157924543Y-147524761D01*
X157924548Y-147524763D01*
X157954981Y-147530816D01*
X157982438Y-147536278D01*
X157982458Y-147536281D01*
X157982480Y-147536286D01*
X158045391Y-147548799D01*
X158045392Y-147548800D01*
X158045393Y-147548800D01*
X158045394Y-147548800D01*
X163588425Y-147548800D01*
X163655464Y-147568485D01*
X163701219Y-147621289D01*
X163711163Y-147690447D01*
X163706356Y-147711118D01*
X163682753Y-147783759D01*
X163649500Y-147993713D01*
X163649500Y-148206286D01*
X163680260Y-148400500D01*
X163682754Y-148416243D01*
X163736340Y-148581164D01*
X163748444Y-148618414D01*
X163844951Y-148807820D01*
X163969890Y-148979786D01*
X164120213Y-149130109D01*
X164292182Y-149255050D01*
X164300946Y-149259516D01*
X164351742Y-149307491D01*
X164368536Y-149375312D01*
X164345998Y-149441447D01*
X164300946Y-149480484D01*
X164292182Y-149484949D01*
X164120213Y-149609890D01*
X163969890Y-149760213D01*
X163844951Y-149932179D01*
X163748444Y-150121585D01*
X163682753Y-150323760D01*
X163649500Y-150533713D01*
X163649500Y-150746286D01*
X163681343Y-150947339D01*
X163682754Y-150956243D01*
X163747137Y-151154394D01*
X163748444Y-151158414D01*
X163844951Y-151347820D01*
X163969890Y-151519786D01*
X164120213Y-151670109D01*
X164292179Y-151795048D01*
X164292181Y-151795049D01*
X164292184Y-151795051D01*
X164481588Y-151891557D01*
X164683757Y-151957246D01*
X164893713Y-151990500D01*
X164893714Y-151990500D01*
X165106286Y-151990500D01*
X165106287Y-151990500D01*
X165316243Y-151957246D01*
X165518412Y-151891557D01*
X165707816Y-151795051D01*
X165848134Y-151693105D01*
X165879786Y-151670109D01*
X165879788Y-151670106D01*
X165879792Y-151670104D01*
X166030104Y-151519792D01*
X166030106Y-151519788D01*
X166030109Y-151519786D01*
X166155048Y-151347820D01*
X166155047Y-151347820D01*
X166155051Y-151347816D01*
X166159514Y-151339054D01*
X166207488Y-151288259D01*
X166275308Y-151271463D01*
X166341444Y-151293999D01*
X166380484Y-151339054D01*
X166384591Y-151347115D01*
X166384951Y-151347820D01*
X166509890Y-151519786D01*
X166660213Y-151670109D01*
X166832179Y-151795048D01*
X166832181Y-151795049D01*
X166832184Y-151795051D01*
X167021588Y-151891557D01*
X167223757Y-151957246D01*
X167433713Y-151990500D01*
X167433714Y-151990500D01*
X167646286Y-151990500D01*
X167646287Y-151990500D01*
X167856243Y-151957246D01*
X168058412Y-151891557D01*
X168247816Y-151795051D01*
X168388134Y-151693105D01*
X168419786Y-151670109D01*
X168419788Y-151670106D01*
X168419792Y-151670104D01*
X168570104Y-151519792D01*
X168570106Y-151519788D01*
X168570109Y-151519786D01*
X168695048Y-151347820D01*
X168695047Y-151347820D01*
X168695051Y-151347816D01*
X168791557Y-151158412D01*
X168857246Y-150956243D01*
X168890500Y-150746287D01*
X168890500Y-150533713D01*
X168857246Y-150323757D01*
X168791557Y-150121588D01*
X168695051Y-149932184D01*
X168695049Y-149932181D01*
X168695048Y-149932179D01*
X168570109Y-149760213D01*
X168419786Y-149609890D01*
X168247820Y-149484951D01*
X168247115Y-149484591D01*
X168239054Y-149480485D01*
X168188259Y-149432512D01*
X168171463Y-149364692D01*
X168193999Y-149298556D01*
X168239054Y-149259515D01*
X168247816Y-149255051D01*
X168388134Y-149153105D01*
X168419786Y-149130109D01*
X168419788Y-149130106D01*
X168419792Y-149130104D01*
X168570104Y-148979792D01*
X168570106Y-148979788D01*
X168570109Y-148979786D01*
X168695048Y-148807820D01*
X168695050Y-148807817D01*
X168695051Y-148807816D01*
X168791557Y-148618412D01*
X168857246Y-148416243D01*
X168890500Y-148206287D01*
X168890500Y-147993713D01*
X168857246Y-147783757D01*
X168791557Y-147581588D01*
X168695051Y-147392184D01*
X168695049Y-147392181D01*
X168695048Y-147392179D01*
X168570109Y-147220213D01*
X168419786Y-147069890D01*
X168247820Y-146944951D01*
X168247115Y-146944591D01*
X168239054Y-146940485D01*
X168188259Y-146892512D01*
X168171463Y-146824692D01*
X168193999Y-146758556D01*
X168239054Y-146719515D01*
X168247816Y-146715051D01*
X168269789Y-146699086D01*
X168419786Y-146590109D01*
X168419788Y-146590106D01*
X168419792Y-146590104D01*
X168570104Y-146439792D01*
X168570106Y-146439788D01*
X168570109Y-146439786D01*
X168695048Y-146267820D01*
X168695047Y-146267820D01*
X168695051Y-146267816D01*
X168791557Y-146078412D01*
X168857246Y-145876243D01*
X168890500Y-145666287D01*
X168890500Y-145453713D01*
X168857246Y-145243757D01*
X168791557Y-145041588D01*
X168695051Y-144852184D01*
X168695049Y-144852181D01*
X168695048Y-144852179D01*
X168570109Y-144680213D01*
X168419786Y-144529890D01*
X168247820Y-144404951D01*
X168247115Y-144404591D01*
X168239054Y-144400485D01*
X168188259Y-144352512D01*
X168171463Y-144284692D01*
X168193999Y-144218556D01*
X168239054Y-144179515D01*
X168247816Y-144175051D01*
X168313385Y-144127413D01*
X168419786Y-144050109D01*
X168419788Y-144050106D01*
X168419792Y-144050104D01*
X168570104Y-143899792D01*
X168570106Y-143899788D01*
X168570109Y-143899786D01*
X168695048Y-143727820D01*
X168695047Y-143727820D01*
X168695051Y-143727816D01*
X168791557Y-143538412D01*
X168857246Y-143336243D01*
X168890500Y-143126287D01*
X168890500Y-142913713D01*
X168857246Y-142703757D01*
X168791557Y-142501588D01*
X168695051Y-142312184D01*
X168695049Y-142312181D01*
X168695048Y-142312179D01*
X168570109Y-142140213D01*
X168419786Y-141989890D01*
X168247820Y-141864951D01*
X168247115Y-141864591D01*
X168239054Y-141860485D01*
X168188259Y-141812512D01*
X168171463Y-141744692D01*
X168193999Y-141678556D01*
X168239054Y-141639515D01*
X168247816Y-141635051D01*
X168284780Y-141608195D01*
X168419786Y-141510109D01*
X168419788Y-141510106D01*
X168419792Y-141510104D01*
X168570104Y-141359792D01*
X168570106Y-141359788D01*
X168570109Y-141359786D01*
X168695048Y-141187820D01*
X168695047Y-141187820D01*
X168695051Y-141187816D01*
X168791557Y-140998412D01*
X168857246Y-140796243D01*
X168890500Y-140586287D01*
X168890500Y-140373713D01*
X168857246Y-140163757D01*
X168791557Y-139961588D01*
X168695051Y-139772184D01*
X168695049Y-139772181D01*
X168695048Y-139772179D01*
X168570109Y-139600213D01*
X168419786Y-139449890D01*
X168247820Y-139324951D01*
X168247115Y-139324591D01*
X168239054Y-139320485D01*
X168188259Y-139272512D01*
X168171463Y-139204692D01*
X168193999Y-139138556D01*
X168239054Y-139099515D01*
X168247816Y-139095051D01*
X168312592Y-139047989D01*
X168419786Y-138970109D01*
X168419788Y-138970106D01*
X168419792Y-138970104D01*
X168570104Y-138819792D01*
X168570106Y-138819788D01*
X168570109Y-138819786D01*
X168695048Y-138647820D01*
X168695047Y-138647820D01*
X168695051Y-138647816D01*
X168791557Y-138458412D01*
X168857246Y-138256243D01*
X168890500Y-138046287D01*
X168890500Y-137833713D01*
X168857246Y-137623757D01*
X168791557Y-137421588D01*
X168695051Y-137232184D01*
X168695049Y-137232181D01*
X168695048Y-137232179D01*
X168570109Y-137060213D01*
X168419786Y-136909890D01*
X168247820Y-136784951D01*
X168247115Y-136784591D01*
X168239054Y-136780485D01*
X168188259Y-136732512D01*
X168171463Y-136664692D01*
X168193999Y-136598556D01*
X168239054Y-136559515D01*
X168247816Y-136555051D01*
X168291946Y-136522989D01*
X168419786Y-136430109D01*
X168419788Y-136430106D01*
X168419792Y-136430104D01*
X168570104Y-136279792D01*
X168570106Y-136279788D01*
X168570109Y-136279786D01*
X168695048Y-136107820D01*
X168695047Y-136107820D01*
X168695051Y-136107816D01*
X168791557Y-135918412D01*
X168857246Y-135716243D01*
X168890500Y-135506287D01*
X168890500Y-135293713D01*
X168857246Y-135083757D01*
X168791557Y-134881588D01*
X168695051Y-134692184D01*
X168695049Y-134692181D01*
X168695048Y-134692179D01*
X168570109Y-134520213D01*
X168419786Y-134369890D01*
X168247820Y-134244951D01*
X168245751Y-134243897D01*
X168239054Y-134240485D01*
X168188259Y-134192512D01*
X168171463Y-134124692D01*
X168193999Y-134058556D01*
X168239054Y-134019515D01*
X168247816Y-134015051D01*
X168312592Y-133967989D01*
X168419786Y-133890109D01*
X168419788Y-133890106D01*
X168419792Y-133890104D01*
X168570104Y-133739792D01*
X168570106Y-133739788D01*
X168570109Y-133739786D01*
X168695048Y-133567820D01*
X168695047Y-133567820D01*
X168695051Y-133567816D01*
X168791557Y-133378412D01*
X168857246Y-133176243D01*
X168890500Y-132966287D01*
X168890500Y-132753713D01*
X168857246Y-132543757D01*
X168791557Y-132341588D01*
X168695051Y-132152184D01*
X168695049Y-132152181D01*
X168695048Y-132152179D01*
X168570109Y-131980213D01*
X168419786Y-131829890D01*
X168247820Y-131704951D01*
X168247115Y-131704591D01*
X168239054Y-131700485D01*
X168188259Y-131652512D01*
X168171463Y-131584692D01*
X168193999Y-131518556D01*
X168239054Y-131479515D01*
X168247816Y-131475051D01*
X168269789Y-131459086D01*
X168419786Y-131350109D01*
X168419788Y-131350106D01*
X168419792Y-131350104D01*
X168570104Y-131199792D01*
X168570106Y-131199788D01*
X168570109Y-131199786D01*
X168681067Y-131047063D01*
X168695051Y-131027816D01*
X168791557Y-130838412D01*
X168857246Y-130636243D01*
X168890500Y-130426287D01*
X168890500Y-130213713D01*
X168857246Y-130003757D01*
X168791557Y-129801588D01*
X168695051Y-129612184D01*
X168695049Y-129612181D01*
X168695048Y-129612179D01*
X168570109Y-129440213D01*
X168419786Y-129289890D01*
X168247820Y-129164951D01*
X168247115Y-129164591D01*
X168239054Y-129160485D01*
X168188259Y-129112512D01*
X168171463Y-129044692D01*
X168193999Y-128978556D01*
X168239054Y-128939515D01*
X168247816Y-128935051D01*
X168285762Y-128907482D01*
X168419786Y-128810109D01*
X168419788Y-128810106D01*
X168419792Y-128810104D01*
X168570104Y-128659792D01*
X168570106Y-128659788D01*
X168570109Y-128659786D01*
X168695048Y-128487820D01*
X168695047Y-128487820D01*
X168695051Y-128487816D01*
X168791557Y-128298412D01*
X168857246Y-128096243D01*
X168890500Y-127886287D01*
X168890500Y-127673713D01*
X168857246Y-127463757D01*
X168791557Y-127261588D01*
X168695051Y-127072184D01*
X168695049Y-127072181D01*
X168695048Y-127072179D01*
X168570109Y-126900213D01*
X168419786Y-126749890D01*
X168247820Y-126624951D01*
X168247115Y-126624591D01*
X168239054Y-126620485D01*
X168188259Y-126572512D01*
X168171463Y-126504692D01*
X168193999Y-126438556D01*
X168239054Y-126399515D01*
X168247816Y-126395051D01*
X168312427Y-126348109D01*
X168419786Y-126270109D01*
X168419788Y-126270106D01*
X168419792Y-126270104D01*
X168570104Y-126119792D01*
X168570106Y-126119788D01*
X168570109Y-126119786D01*
X168695048Y-125947820D01*
X168695047Y-125947820D01*
X168695051Y-125947816D01*
X168791557Y-125758412D01*
X168857246Y-125556243D01*
X168890500Y-125346287D01*
X168890500Y-125133713D01*
X168857246Y-124923757D01*
X168791557Y-124721588D01*
X168695051Y-124532184D01*
X168671101Y-124499219D01*
X168576124Y-124368493D01*
X168552644Y-124302687D01*
X168568470Y-124234633D01*
X168588757Y-124207931D01*
X169259457Y-123537234D01*
X169299612Y-123477139D01*
X169327911Y-123434786D01*
X169375063Y-123320952D01*
X169378329Y-123304534D01*
X169378330Y-123304532D01*
X169388937Y-123251200D01*
X169399100Y-123200107D01*
X169399100Y-123076894D01*
X169399100Y-122270341D01*
X169399101Y-122270320D01*
X169399101Y-122140991D01*
X169375064Y-122020155D01*
X169375063Y-122020149D01*
X169327912Y-121906315D01*
X169259458Y-121803867D01*
X169259455Y-121803863D01*
X168613547Y-121157956D01*
X168580062Y-121096633D01*
X168585046Y-121026942D01*
X168600906Y-120997396D01*
X168695051Y-120867816D01*
X168791557Y-120678412D01*
X168857246Y-120476243D01*
X168890500Y-120266287D01*
X168890500Y-120053713D01*
X168857246Y-119843757D01*
X168791557Y-119641588D01*
X168695051Y-119452184D01*
X168695049Y-119452181D01*
X168695048Y-119452179D01*
X168570109Y-119280213D01*
X168419786Y-119129890D01*
X168247820Y-119004951D01*
X168247115Y-119004591D01*
X168239054Y-119000485D01*
X168188259Y-118952512D01*
X168171463Y-118884692D01*
X168193999Y-118818556D01*
X168239054Y-118779515D01*
X168247816Y-118775051D01*
X168307729Y-118731522D01*
X168419786Y-118650109D01*
X168419788Y-118650106D01*
X168419792Y-118650104D01*
X168570104Y-118499792D01*
X168570106Y-118499788D01*
X168570109Y-118499786D01*
X168695048Y-118327820D01*
X168695047Y-118327820D01*
X168695051Y-118327816D01*
X168791557Y-118138412D01*
X168857246Y-117936243D01*
X168890500Y-117726287D01*
X168890500Y-117513713D01*
X168857246Y-117303757D01*
X168791557Y-117101588D01*
X168695051Y-116912184D01*
X168695049Y-116912181D01*
X168695048Y-116912179D01*
X168570109Y-116740213D01*
X168419786Y-116589890D01*
X168247820Y-116464951D01*
X168247115Y-116464591D01*
X168239054Y-116460485D01*
X168188259Y-116412512D01*
X168171463Y-116344692D01*
X168193999Y-116278556D01*
X168239054Y-116239515D01*
X168247816Y-116235051D01*
X168269789Y-116219086D01*
X168419786Y-116110109D01*
X168419788Y-116110106D01*
X168419792Y-116110104D01*
X168570104Y-115959792D01*
X168570106Y-115959788D01*
X168570109Y-115959786D01*
X168695048Y-115787820D01*
X168695047Y-115787820D01*
X168695051Y-115787816D01*
X168791557Y-115598412D01*
X168857246Y-115396243D01*
X168890500Y-115186287D01*
X168890500Y-114973713D01*
X168857246Y-114763757D01*
X168791557Y-114561588D01*
X168695051Y-114372184D01*
X168695049Y-114372181D01*
X168695048Y-114372179D01*
X168570109Y-114200213D01*
X168419786Y-114049890D01*
X168247820Y-113924951D01*
X168247115Y-113924591D01*
X168239054Y-113920485D01*
X168188259Y-113872512D01*
X168171463Y-113804692D01*
X168193999Y-113738556D01*
X168239054Y-113699515D01*
X168247816Y-113695051D01*
X168269789Y-113679086D01*
X168419786Y-113570109D01*
X168419788Y-113570106D01*
X168419792Y-113570104D01*
X168570104Y-113419792D01*
X168570106Y-113419788D01*
X168570109Y-113419786D01*
X168695048Y-113247820D01*
X168695047Y-113247820D01*
X168695051Y-113247816D01*
X168791557Y-113058412D01*
X168857246Y-112856243D01*
X168890500Y-112646287D01*
X168890500Y-112433713D01*
X168857246Y-112223757D01*
X168791557Y-112021588D01*
X168695051Y-111832184D01*
X168695049Y-111832181D01*
X168695048Y-111832179D01*
X168570109Y-111660213D01*
X168419786Y-111509890D01*
X168247820Y-111384951D01*
X168247115Y-111384591D01*
X168239054Y-111380485D01*
X168188259Y-111332512D01*
X168171463Y-111264692D01*
X168193999Y-111198556D01*
X168239054Y-111159515D01*
X168247816Y-111155051D01*
X168269789Y-111139086D01*
X168419786Y-111030109D01*
X168419788Y-111030106D01*
X168419792Y-111030104D01*
X168570104Y-110879792D01*
X168570106Y-110879788D01*
X168570109Y-110879786D01*
X168695048Y-110707820D01*
X168695047Y-110707820D01*
X168695051Y-110707816D01*
X168791557Y-110518412D01*
X168857246Y-110316243D01*
X168890500Y-110106287D01*
X168890500Y-109893713D01*
X168857246Y-109683757D01*
X168791557Y-109481588D01*
X168695051Y-109292184D01*
X168695049Y-109292181D01*
X168695048Y-109292179D01*
X168570109Y-109120213D01*
X168419786Y-108969890D01*
X168247820Y-108844951D01*
X168058414Y-108748444D01*
X168058413Y-108748443D01*
X168058412Y-108748443D01*
X167856243Y-108682754D01*
X167856241Y-108682753D01*
X167856240Y-108682753D01*
X167694957Y-108657208D01*
X167646287Y-108649500D01*
X167433713Y-108649500D01*
X167385042Y-108657208D01*
X167223760Y-108682753D01*
X167021585Y-108748444D01*
X166832179Y-108844951D01*
X166660215Y-108969889D01*
X166546673Y-109083431D01*
X166485350Y-109116915D01*
X166415658Y-109111931D01*
X166359725Y-109070059D01*
X166342810Y-109039082D01*
X166293797Y-108907671D01*
X166293793Y-108907664D01*
X166207547Y-108792455D01*
X166207544Y-108792452D01*
X166092335Y-108706206D01*
X166092328Y-108706202D01*
X165957482Y-108655908D01*
X165957483Y-108655908D01*
X165897883Y-108649501D01*
X165897881Y-108649500D01*
X165897873Y-108649500D01*
X165897864Y-108649500D01*
X164102129Y-108649500D01*
X164102123Y-108649501D01*
X164042516Y-108655908D01*
X163907671Y-108706202D01*
X163907664Y-108706206D01*
X163792455Y-108792452D01*
X163792452Y-108792455D01*
X163706206Y-108907664D01*
X163706202Y-108907671D01*
X163655908Y-109042517D01*
X163651510Y-109083431D01*
X163649500Y-109102127D01*
X163649500Y-109792455D01*
X163649501Y-110446300D01*
X163629816Y-110513339D01*
X163577013Y-110559094D01*
X163525501Y-110570300D01*
X149585752Y-110570300D01*
X149518713Y-110550615D01*
X149498071Y-110533981D01*
X148988293Y-110024203D01*
X148954808Y-109962880D01*
X148954387Y-109960864D01*
X148932237Y-109849503D01*
X148908099Y-109791230D01*
X148871897Y-109703827D01*
X148871890Y-109703814D01*
X148784289Y-109572711D01*
X148784286Y-109572707D01*
X148723260Y-109511681D01*
X148689775Y-109450358D01*
X148694759Y-109380666D01*
X148736631Y-109324733D01*
X148802095Y-109300316D01*
X148810941Y-109300000D01*
X148847828Y-109300000D01*
X148847844Y-109299999D01*
X148907372Y-109293598D01*
X148907379Y-109293596D01*
X149042086Y-109243354D01*
X149042093Y-109243350D01*
X149157187Y-109157190D01*
X149157190Y-109157187D01*
X149243350Y-109042093D01*
X149243354Y-109042086D01*
X149293596Y-108907379D01*
X149293598Y-108907372D01*
X149299999Y-108847844D01*
X149300000Y-108847827D01*
X149300000Y-108250000D01*
X148315686Y-108250000D01*
X148320080Y-108245606D01*
X148372741Y-108154394D01*
X148400000Y-108052661D01*
X148400000Y-107947339D01*
X148386685Y-107897648D01*
X156859500Y-107897648D01*
X156859500Y-108102351D01*
X156891522Y-108304534D01*
X156954781Y-108499223D01*
X157047715Y-108681613D01*
X157168028Y-108847213D01*
X157312786Y-108991971D01*
X157464391Y-109102116D01*
X157478390Y-109112287D01*
X157566517Y-109157190D01*
X157660776Y-109205218D01*
X157660778Y-109205218D01*
X157660781Y-109205220D01*
X157765137Y-109239127D01*
X157855465Y-109268477D01*
X157944002Y-109282500D01*
X158057648Y-109300500D01*
X158057649Y-109300500D01*
X158262351Y-109300500D01*
X158262352Y-109300500D01*
X158464534Y-109268477D01*
X158659219Y-109205220D01*
X158841610Y-109112287D01*
X158965210Y-109022487D01*
X159007213Y-108991971D01*
X159007215Y-108991968D01*
X159007219Y-108991966D01*
X159151966Y-108847219D01*
X159151968Y-108847215D01*
X159151971Y-108847213D01*
X159204732Y-108774590D01*
X159272287Y-108681610D01*
X159365220Y-108499219D01*
X159428477Y-108304534D01*
X159460500Y-108102352D01*
X159460500Y-107897648D01*
X159452257Y-107845606D01*
X159428477Y-107695465D01*
X159365218Y-107500776D01*
X159331503Y-107434607D01*
X159272287Y-107318390D01*
X159264556Y-107307749D01*
X159151971Y-107152786D01*
X159007213Y-107008028D01*
X158841613Y-106887715D01*
X158841612Y-106887714D01*
X158841610Y-106887713D01*
X158753487Y-106842812D01*
X158659223Y-106794781D01*
X158464534Y-106731522D01*
X158289995Y-106703878D01*
X158262352Y-106699500D01*
X158057648Y-106699500D01*
X158033329Y-106703351D01*
X157855465Y-106731522D01*
X157660776Y-106794781D01*
X157478386Y-106887715D01*
X157312786Y-107008028D01*
X157168028Y-107152786D01*
X157047715Y-107318386D01*
X156954781Y-107500776D01*
X156891522Y-107695465D01*
X156859500Y-107897648D01*
X148386685Y-107897648D01*
X148372741Y-107845606D01*
X148320080Y-107754394D01*
X148315686Y-107750000D01*
X149300000Y-107750000D01*
X149300000Y-107152172D01*
X149299999Y-107152155D01*
X149293598Y-107092627D01*
X149293596Y-107092620D01*
X149243354Y-106957913D01*
X149243350Y-106957906D01*
X149157190Y-106842812D01*
X149157187Y-106842809D01*
X149042093Y-106756649D01*
X149042086Y-106756645D01*
X148907379Y-106706403D01*
X148907372Y-106706401D01*
X148847844Y-106700000D01*
X148250000Y-106700000D01*
X148250000Y-107684314D01*
X148245606Y-107679920D01*
X148154394Y-107627259D01*
X148052661Y-107600000D01*
X147947339Y-107600000D01*
X147845606Y-107627259D01*
X147754394Y-107679920D01*
X147750000Y-107684314D01*
X147750000Y-106700000D01*
X147152155Y-106700000D01*
X147092627Y-106706401D01*
X147092620Y-106706403D01*
X146957913Y-106756645D01*
X146957906Y-106756649D01*
X146842812Y-106842809D01*
X146842809Y-106842812D01*
X146756649Y-106957906D01*
X146756645Y-106957913D01*
X146706403Y-107092620D01*
X146706401Y-107092627D01*
X146700000Y-107152155D01*
X146700000Y-107750000D01*
X147684314Y-107750000D01*
X147679920Y-107754394D01*
X147627259Y-107845606D01*
X147600000Y-107947339D01*
X147600000Y-108052661D01*
X147627259Y-108154394D01*
X147679920Y-108245606D01*
X147684314Y-108250000D01*
X146700000Y-108250000D01*
X146700000Y-108847844D01*
X146706401Y-108907372D01*
X146706403Y-108907379D01*
X146756645Y-109042086D01*
X146756649Y-109042093D01*
X146842809Y-109157187D01*
X146842812Y-109157190D01*
X146957906Y-109243350D01*
X146957913Y-109243354D01*
X147092620Y-109293596D01*
X147092627Y-109293598D01*
X147152155Y-109299999D01*
X147152172Y-109300000D01*
X147514059Y-109300000D01*
X147581098Y-109319685D01*
X147626853Y-109372489D01*
X147636797Y-109441647D01*
X147607772Y-109505203D01*
X147601740Y-109511681D01*
X147540713Y-109572707D01*
X147540710Y-109572711D01*
X147453109Y-109703814D01*
X147453102Y-109703827D01*
X147392764Y-109849498D01*
X147392761Y-109849510D01*
X147362000Y-110004153D01*
X147362000Y-110161846D01*
X147392761Y-110316489D01*
X147392764Y-110316501D01*
X147453102Y-110462172D01*
X147453109Y-110462185D01*
X147540710Y-110593288D01*
X147540713Y-110593292D01*
X147652207Y-110704786D01*
X147652211Y-110704789D01*
X147783314Y-110792390D01*
X147783327Y-110792397D01*
X147870730Y-110828599D01*
X147929003Y-110852737D01*
X148040216Y-110874858D01*
X148102123Y-110907241D01*
X148103703Y-110908793D01*
X148683229Y-111488319D01*
X148716714Y-111549642D01*
X148711730Y-111619334D01*
X148669858Y-111675267D01*
X148604394Y-111699684D01*
X148595548Y-111700000D01*
X148250000Y-111700000D01*
X148250000Y-112684314D01*
X148245606Y-112679920D01*
X148154394Y-112627259D01*
X148052661Y-112600000D01*
X147947339Y-112600000D01*
X147845606Y-112627259D01*
X147754394Y-112679920D01*
X147750000Y-112684314D01*
X147750000Y-111700000D01*
X147152155Y-111700000D01*
X147092627Y-111706401D01*
X147092620Y-111706403D01*
X146957913Y-111756645D01*
X146957906Y-111756649D01*
X146842812Y-111842809D01*
X146842809Y-111842812D01*
X146756649Y-111957906D01*
X146756645Y-111957913D01*
X146706403Y-112092620D01*
X146706401Y-112092627D01*
X146700000Y-112152155D01*
X146700000Y-112750000D01*
X147684314Y-112750000D01*
X147679920Y-112754394D01*
X147627259Y-112845606D01*
X147600000Y-112947339D01*
X147600000Y-113052661D01*
X147627259Y-113154394D01*
X147679920Y-113245606D01*
X147684314Y-113250000D01*
X146700000Y-113250000D01*
X146700000Y-113847844D01*
X146706401Y-113907372D01*
X146706403Y-113907379D01*
X146756645Y-114042086D01*
X146756649Y-114042093D01*
X146842809Y-114157187D01*
X146842812Y-114157190D01*
X146957906Y-114243350D01*
X146957913Y-114243354D01*
X147092620Y-114293596D01*
X147092627Y-114293598D01*
X147152155Y-114299999D01*
X147152172Y-114300000D01*
X147750000Y-114300000D01*
X147750000Y-113315686D01*
X147754394Y-113320080D01*
X147845606Y-113372741D01*
X147947339Y-113400000D01*
X148052661Y-113400000D01*
X148154394Y-113372741D01*
X148245606Y-113320080D01*
X148250000Y-113315686D01*
X148250000Y-114300000D01*
X148847828Y-114300000D01*
X148847844Y-114299999D01*
X148907372Y-114293598D01*
X148907379Y-114293596D01*
X149042086Y-114243354D01*
X149042093Y-114243350D01*
X149157187Y-114157190D01*
X149157190Y-114157187D01*
X149243350Y-114042093D01*
X149243354Y-114042086D01*
X149293596Y-113907379D01*
X149293598Y-113907372D01*
X149299999Y-113847844D01*
X149300000Y-113847827D01*
X149300000Y-113250000D01*
X148315686Y-113250000D01*
X148320080Y-113245606D01*
X148372741Y-113154394D01*
X148400000Y-113052661D01*
X148400000Y-112947339D01*
X148372741Y-112845606D01*
X148320080Y-112754394D01*
X148315686Y-112750000D01*
X149300000Y-112750000D01*
X149300000Y-112152172D01*
X149299999Y-112152155D01*
X149293598Y-112092627D01*
X149293596Y-112092620D01*
X149254812Y-111988633D01*
X149249828Y-111918941D01*
X149283313Y-111857618D01*
X149344636Y-111824134D01*
X149370994Y-111821300D01*
X157200153Y-111821300D01*
X157267192Y-111840985D01*
X157312947Y-111893789D01*
X157322891Y-111962947D01*
X157293866Y-112026503D01*
X157287834Y-112032981D01*
X157168032Y-112152782D01*
X157168028Y-112152786D01*
X157047715Y-112318386D01*
X156954781Y-112500776D01*
X156891522Y-112695465D01*
X156859500Y-112897648D01*
X156859500Y-113102351D01*
X156891522Y-113304534D01*
X156954781Y-113499223D01*
X156990900Y-113570109D01*
X157029714Y-113646286D01*
X157047715Y-113681613D01*
X157168028Y-113847213D01*
X157312786Y-113991971D01*
X157467749Y-114104556D01*
X157478390Y-114112287D01*
X157566517Y-114157190D01*
X157660776Y-114205218D01*
X157660778Y-114205218D01*
X157660781Y-114205220D01*
X157764917Y-114239056D01*
X157855465Y-114268477D01*
X157956557Y-114284488D01*
X158057648Y-114300500D01*
X158057649Y-114300500D01*
X158262351Y-114300500D01*
X158262352Y-114300500D01*
X158464534Y-114268477D01*
X158659219Y-114205220D01*
X158841610Y-114112287D01*
X158938234Y-114042086D01*
X159007213Y-113991971D01*
X159007215Y-113991968D01*
X159007219Y-113991966D01*
X159151966Y-113847219D01*
X159151968Y-113847215D01*
X159151971Y-113847213D01*
X159224422Y-113747491D01*
X159272287Y-113681610D01*
X159365220Y-113499219D01*
X159428477Y-113304534D01*
X159460500Y-113102352D01*
X159460500Y-112897648D01*
X159450131Y-112832179D01*
X159428477Y-112695465D01*
X159380131Y-112546673D01*
X159365220Y-112500781D01*
X159365218Y-112500778D01*
X159365218Y-112500776D01*
X159331047Y-112433713D01*
X159272287Y-112318390D01*
X159254419Y-112293796D01*
X159151971Y-112152786D01*
X159032166Y-112032981D01*
X158998681Y-111971658D01*
X159003665Y-111901966D01*
X159045537Y-111846033D01*
X159111001Y-111821616D01*
X159119847Y-111821300D01*
X163648145Y-111821300D01*
X163715184Y-111840985D01*
X163760939Y-111893789D01*
X163770883Y-111962947D01*
X163758629Y-112001596D01*
X163748444Y-112021583D01*
X163682753Y-112223760D01*
X163649500Y-112433713D01*
X163649500Y-112646286D01*
X163678942Y-112832179D01*
X163682754Y-112856243D01*
X163746574Y-113052661D01*
X163748444Y-113058414D01*
X163844951Y-113247820D01*
X163969890Y-113419786D01*
X164120213Y-113570109D01*
X164292182Y-113695050D01*
X164300946Y-113699516D01*
X164351742Y-113747491D01*
X164368536Y-113815312D01*
X164345998Y-113881447D01*
X164300946Y-113920484D01*
X164292182Y-113924949D01*
X164120213Y-114049890D01*
X163969890Y-114200213D01*
X163844951Y-114372179D01*
X163748444Y-114561585D01*
X163682753Y-114763760D01*
X163649500Y-114973713D01*
X163649500Y-115186286D01*
X163681213Y-115386518D01*
X163682754Y-115396243D01*
X163694288Y-115431742D01*
X163748444Y-115598414D01*
X163844951Y-115787820D01*
X163969890Y-115959786D01*
X164120213Y-116110109D01*
X164292182Y-116235050D01*
X164300946Y-116239516D01*
X164351742Y-116287491D01*
X164368536Y-116355312D01*
X164345998Y-116421447D01*
X164300946Y-116460484D01*
X164292182Y-116464949D01*
X164120213Y-116589890D01*
X163969890Y-116740213D01*
X163844951Y-116912179D01*
X163748444Y-117101585D01*
X163682753Y-117303760D01*
X163651549Y-117500776D01*
X163649500Y-117513713D01*
X163649500Y-117726287D01*
X163653256Y-117750000D01*
X163680417Y-117921492D01*
X163682754Y-117936243D01*
X163736726Y-118102352D01*
X163748444Y-118138414D01*
X163844951Y-118327820D01*
X163969890Y-118499786D01*
X164120213Y-118650109D01*
X164292182Y-118775050D01*
X164300946Y-118779516D01*
X164351742Y-118827491D01*
X164368536Y-118895312D01*
X164345998Y-118961447D01*
X164300946Y-119000484D01*
X164292182Y-119004949D01*
X164120213Y-119129890D01*
X163969890Y-119280213D01*
X163844951Y-119452179D01*
X163748444Y-119641585D01*
X163682753Y-119843760D01*
X163649500Y-120053713D01*
X163649500Y-120266286D01*
X163678942Y-120452179D01*
X163682754Y-120476243D01*
X163694288Y-120511742D01*
X163748444Y-120678414D01*
X163844951Y-120867820D01*
X163969890Y-121039786D01*
X164120213Y-121190109D01*
X164292182Y-121315050D01*
X164300946Y-121319516D01*
X164351742Y-121367491D01*
X164368536Y-121435312D01*
X164345998Y-121501447D01*
X164300946Y-121540484D01*
X164292182Y-121544949D01*
X164120213Y-121669890D01*
X163969890Y-121820213D01*
X163844951Y-121992179D01*
X163748444Y-122181585D01*
X163682753Y-122383760D01*
X163657223Y-122544951D01*
X163649500Y-122593713D01*
X163649500Y-122806287D01*
X163655728Y-122845606D01*
X163682753Y-123016240D01*
X163706356Y-123088882D01*
X163708351Y-123158723D01*
X163672270Y-123218556D01*
X163609569Y-123249384D01*
X163588425Y-123251200D01*
X160212841Y-123251200D01*
X160212821Y-123251199D01*
X160206707Y-123251199D01*
X160083494Y-123251199D01*
X159982697Y-123271248D01*
X159982692Y-123271248D01*
X159962649Y-123275236D01*
X159962647Y-123275236D01*
X159915497Y-123294767D01*
X159848819Y-123322385D01*
X159848817Y-123322386D01*
X159746367Y-123390841D01*
X159599152Y-123538056D01*
X159537829Y-123571540D01*
X159468137Y-123566556D01*
X159412204Y-123524684D01*
X159387787Y-123459220D01*
X159393539Y-123412062D01*
X159428477Y-123304534D01*
X159460500Y-123102352D01*
X159460500Y-122897648D01*
X159446030Y-122806287D01*
X159428477Y-122695465D01*
X159395415Y-122593713D01*
X159365220Y-122500781D01*
X159365218Y-122500778D01*
X159365218Y-122500776D01*
X159319758Y-122411557D01*
X159272287Y-122318390D01*
X159237378Y-122270341D01*
X159151971Y-122152786D01*
X159007213Y-122008028D01*
X158841613Y-121887715D01*
X158841612Y-121887714D01*
X158841610Y-121887713D01*
X158784653Y-121858691D01*
X158659223Y-121794781D01*
X158464534Y-121731522D01*
X158289995Y-121703878D01*
X158262352Y-121699500D01*
X158057648Y-121699500D01*
X158033329Y-121703351D01*
X157855465Y-121731522D01*
X157660776Y-121794781D01*
X157478386Y-121887715D01*
X157312786Y-122008028D01*
X157168028Y-122152786D01*
X157044849Y-122322331D01*
X157043176Y-122321115D01*
X156997792Y-122362169D01*
X156943885Y-122374500D01*
X150194006Y-122374500D01*
X150070793Y-122374500D01*
X150029297Y-122382754D01*
X150029296Y-122382753D01*
X149949955Y-122398535D01*
X149949945Y-122398538D01*
X149836116Y-122445687D01*
X149836107Y-122445692D01*
X149733668Y-122514140D01*
X149707325Y-122540484D01*
X149646542Y-122601267D01*
X149511681Y-122736128D01*
X149450358Y-122769613D01*
X149380666Y-122764629D01*
X149324733Y-122722757D01*
X149300316Y-122657293D01*
X149300000Y-122648447D01*
X149300000Y-122152172D01*
X149299999Y-122152155D01*
X149293598Y-122092627D01*
X149293596Y-122092620D01*
X149243354Y-121957913D01*
X149243350Y-121957906D01*
X149157190Y-121842812D01*
X149157187Y-121842809D01*
X149042093Y-121756649D01*
X149042086Y-121756645D01*
X148907379Y-121706403D01*
X148907372Y-121706401D01*
X148847844Y-121700000D01*
X148250000Y-121700000D01*
X148250000Y-122684314D01*
X148245606Y-122679920D01*
X148154394Y-122627259D01*
X148052661Y-122600000D01*
X147947339Y-122600000D01*
X147845606Y-122627259D01*
X147754394Y-122679920D01*
X147750000Y-122684314D01*
X147750000Y-121700000D01*
X147152155Y-121700000D01*
X147092627Y-121706401D01*
X147092620Y-121706403D01*
X146957913Y-121756645D01*
X146957906Y-121756649D01*
X146842812Y-121842809D01*
X146842809Y-121842812D01*
X146756649Y-121957906D01*
X146756645Y-121957913D01*
X146706403Y-122092620D01*
X146706401Y-122092627D01*
X146700000Y-122152155D01*
X146700000Y-122750000D01*
X147684314Y-122750000D01*
X147679920Y-122754394D01*
X147627259Y-122845606D01*
X147600000Y-122947339D01*
X147600000Y-123052661D01*
X147627259Y-123154394D01*
X147679920Y-123245606D01*
X147684314Y-123250000D01*
X146700000Y-123250000D01*
X146700000Y-123847844D01*
X146706401Y-123907372D01*
X146706403Y-123907379D01*
X146756645Y-124042086D01*
X146756649Y-124042093D01*
X146842809Y-124157187D01*
X146842812Y-124157190D01*
X146957906Y-124243350D01*
X146957913Y-124243354D01*
X147092620Y-124293596D01*
X147092627Y-124293598D01*
X147152155Y-124299999D01*
X147152172Y-124300000D01*
X147648447Y-124300000D01*
X147715486Y-124319685D01*
X147761241Y-124372489D01*
X147771185Y-124441647D01*
X147742160Y-124505203D01*
X147736128Y-124511681D01*
X139049629Y-133198181D01*
X139022701Y-133212884D01*
X138996883Y-133229477D01*
X138990682Y-133230368D01*
X138988306Y-133231666D01*
X138961948Y-133234500D01*
X138812981Y-133234500D01*
X138745942Y-133214815D01*
X138702497Y-133166797D01*
X138695049Y-133152180D01*
X138570109Y-132980213D01*
X138419786Y-132829890D01*
X138247820Y-132704951D01*
X138247115Y-132704591D01*
X138239054Y-132700485D01*
X138188259Y-132652512D01*
X138171463Y-132584692D01*
X138193999Y-132518556D01*
X138239054Y-132479515D01*
X138247816Y-132475051D01*
X138388635Y-132372741D01*
X138419786Y-132350109D01*
X138419788Y-132350106D01*
X138419792Y-132350104D01*
X138570104Y-132199792D01*
X138570106Y-132199788D01*
X138570109Y-132199786D01*
X138695048Y-132027820D01*
X138695047Y-132027820D01*
X138695051Y-132027816D01*
X138791557Y-131838412D01*
X138857246Y-131636243D01*
X138890500Y-131426287D01*
X138890500Y-131213713D01*
X138857246Y-131003757D01*
X138791557Y-130801588D01*
X138695051Y-130612184D01*
X138695049Y-130612181D01*
X138695048Y-130612179D01*
X138570109Y-130440213D01*
X138419786Y-130289890D01*
X138247820Y-130164951D01*
X138247115Y-130164591D01*
X138239054Y-130160485D01*
X138188259Y-130112512D01*
X138171463Y-130044692D01*
X138193999Y-129978556D01*
X138239054Y-129939515D01*
X138247816Y-129935051D01*
X138349804Y-129860953D01*
X138419786Y-129810109D01*
X138419788Y-129810106D01*
X138419792Y-129810104D01*
X138570104Y-129659792D01*
X138570106Y-129659788D01*
X138570109Y-129659786D01*
X138695048Y-129487820D01*
X138695049Y-129487819D01*
X138695051Y-129487816D01*
X138791557Y-129298412D01*
X138857246Y-129096243D01*
X138890500Y-128886287D01*
X138890500Y-128673713D01*
X138857246Y-128463757D01*
X138791557Y-128261588D01*
X138695051Y-128072184D01*
X138695049Y-128072181D01*
X138695048Y-128072179D01*
X138570109Y-127900213D01*
X138419786Y-127749890D01*
X138247820Y-127624951D01*
X138247115Y-127624591D01*
X138239054Y-127620485D01*
X138188259Y-127572512D01*
X138171463Y-127504692D01*
X138193999Y-127438556D01*
X138239054Y-127399515D01*
X138247816Y-127395051D01*
X138284513Y-127368389D01*
X138419786Y-127270109D01*
X138419788Y-127270106D01*
X138419792Y-127270104D01*
X138570104Y-127119792D01*
X138570106Y-127119788D01*
X138570109Y-127119786D01*
X138695048Y-126947820D01*
X138695049Y-126947819D01*
X138695051Y-126947816D01*
X138791557Y-126758412D01*
X138857246Y-126556243D01*
X138890500Y-126346287D01*
X138890500Y-126133713D01*
X138857246Y-125923757D01*
X138791557Y-125721588D01*
X138695051Y-125532184D01*
X138695049Y-125532181D01*
X138695048Y-125532179D01*
X138570109Y-125360213D01*
X138419786Y-125209890D01*
X138247820Y-125084951D01*
X138247115Y-125084591D01*
X138239054Y-125080485D01*
X138188259Y-125032512D01*
X138171463Y-124964692D01*
X138193999Y-124898556D01*
X138239054Y-124859515D01*
X138247816Y-124855051D01*
X138269789Y-124839086D01*
X138419786Y-124730109D01*
X138419788Y-124730106D01*
X138419792Y-124730104D01*
X138570104Y-124579792D01*
X138570106Y-124579788D01*
X138570109Y-124579786D01*
X138695048Y-124407820D01*
X138695049Y-124407819D01*
X138695051Y-124407816D01*
X138791557Y-124218412D01*
X138857246Y-124016243D01*
X138890500Y-123806287D01*
X138890500Y-123593713D01*
X138857246Y-123383757D01*
X138791557Y-123181588D01*
X138695051Y-122992184D01*
X138695049Y-122992181D01*
X138695048Y-122992179D01*
X138570109Y-122820213D01*
X138419786Y-122669890D01*
X138247820Y-122544951D01*
X138247115Y-122544591D01*
X138239054Y-122540485D01*
X138188259Y-122492512D01*
X138171463Y-122424692D01*
X138193999Y-122358556D01*
X138239054Y-122319515D01*
X138247816Y-122315051D01*
X138269789Y-122299086D01*
X138419786Y-122190109D01*
X138419788Y-122190106D01*
X138419792Y-122190104D01*
X138570104Y-122039792D01*
X138570106Y-122039788D01*
X138570109Y-122039786D01*
X138695048Y-121867820D01*
X138695049Y-121867819D01*
X138695051Y-121867816D01*
X138791557Y-121678412D01*
X138857246Y-121476243D01*
X138890500Y-121266287D01*
X138890500Y-121053713D01*
X138857246Y-120843757D01*
X138791557Y-120641588D01*
X138695051Y-120452184D01*
X138695049Y-120452181D01*
X138695048Y-120452179D01*
X138570109Y-120280213D01*
X138419786Y-120129890D01*
X138247817Y-120004949D01*
X138238504Y-120000204D01*
X138187707Y-119952230D01*
X138170912Y-119884409D01*
X138193449Y-119818274D01*
X138238507Y-119779232D01*
X138247558Y-119774620D01*
X138419459Y-119649727D01*
X138419464Y-119649723D01*
X138569723Y-119499464D01*
X138569727Y-119499459D01*
X138694620Y-119327557D01*
X138791095Y-119138217D01*
X138856757Y-118936129D01*
X138856757Y-118936126D01*
X138867231Y-118870000D01*
X137973012Y-118870000D01*
X138005925Y-118812993D01*
X138040000Y-118685826D01*
X138040000Y-118554174D01*
X138005925Y-118427007D01*
X137973012Y-118370000D01*
X138867231Y-118370000D01*
X138856757Y-118303873D01*
X138856756Y-118303866D01*
X138835016Y-118236955D01*
X138791095Y-118101783D01*
X138713284Y-117949071D01*
X138713283Y-117949069D01*
X138694622Y-117912444D01*
X138569727Y-117740540D01*
X138569723Y-117740535D01*
X138419464Y-117590276D01*
X138419459Y-117590272D01*
X138247555Y-117465377D01*
X138238500Y-117460763D01*
X138187706Y-117412788D01*
X138170912Y-117344966D01*
X138193451Y-117278832D01*
X138238508Y-117239793D01*
X138247816Y-117235051D01*
X138361890Y-117152172D01*
X138361913Y-117152155D01*
X146700000Y-117152155D01*
X146700000Y-117750000D01*
X147684314Y-117750000D01*
X147679920Y-117754394D01*
X147627259Y-117845606D01*
X147600000Y-117947339D01*
X147600000Y-118052661D01*
X147627259Y-118154394D01*
X147679920Y-118245606D01*
X147684314Y-118250000D01*
X146700000Y-118250000D01*
X146700000Y-118847844D01*
X146706401Y-118907372D01*
X146706403Y-118907379D01*
X146756645Y-119042086D01*
X146756649Y-119042093D01*
X146842809Y-119157187D01*
X146842812Y-119157190D01*
X146957906Y-119243350D01*
X146957913Y-119243354D01*
X147092620Y-119293596D01*
X147092627Y-119293598D01*
X147152155Y-119299999D01*
X147152172Y-119300000D01*
X147750000Y-119300000D01*
X147750000Y-118315686D01*
X147754394Y-118320080D01*
X147845606Y-118372741D01*
X147947339Y-118400000D01*
X148052661Y-118400000D01*
X148154394Y-118372741D01*
X148245606Y-118320080D01*
X148250000Y-118315686D01*
X148250000Y-119300000D01*
X148847828Y-119300000D01*
X148847844Y-119299999D01*
X148907372Y-119293598D01*
X148907379Y-119293596D01*
X149042086Y-119243354D01*
X149042093Y-119243350D01*
X149157187Y-119157190D01*
X149157190Y-119157187D01*
X149243350Y-119042093D01*
X149243354Y-119042086D01*
X149293596Y-118907379D01*
X149293598Y-118907372D01*
X149299999Y-118847844D01*
X149300000Y-118847827D01*
X149300000Y-118250000D01*
X148315686Y-118250000D01*
X148320080Y-118245606D01*
X148372741Y-118154394D01*
X148400000Y-118052661D01*
X148400000Y-117947339D01*
X148386685Y-117897648D01*
X156859500Y-117897648D01*
X156859500Y-118102351D01*
X156891522Y-118304534D01*
X156954781Y-118499223D01*
X157018691Y-118624653D01*
X157031662Y-118650109D01*
X157047715Y-118681613D01*
X157168028Y-118847213D01*
X157312786Y-118991971D01*
X157451177Y-119092516D01*
X157478390Y-119112287D01*
X157566517Y-119157190D01*
X157660776Y-119205218D01*
X157660778Y-119205218D01*
X157660781Y-119205220D01*
X157765137Y-119239127D01*
X157855465Y-119268477D01*
X157886832Y-119273445D01*
X158057648Y-119300500D01*
X158057649Y-119300500D01*
X158262351Y-119300500D01*
X158262352Y-119300500D01*
X158464534Y-119268477D01*
X158659219Y-119205220D01*
X158841610Y-119112287D01*
X158968497Y-119020099D01*
X159007213Y-118991971D01*
X159007215Y-118991968D01*
X159007219Y-118991966D01*
X159151966Y-118847219D01*
X159151968Y-118847215D01*
X159151971Y-118847213D01*
X159236024Y-118731522D01*
X159272287Y-118681610D01*
X159365220Y-118499219D01*
X159428477Y-118304534D01*
X159460500Y-118102352D01*
X159460500Y-117897648D01*
X159452257Y-117845606D01*
X159428477Y-117695465D01*
X159365218Y-117500776D01*
X159320385Y-117412788D01*
X159272287Y-117318390D01*
X159243346Y-117278556D01*
X159151971Y-117152786D01*
X159007213Y-117008028D01*
X158841613Y-116887715D01*
X158841612Y-116887714D01*
X158841610Y-116887713D01*
X158784653Y-116858691D01*
X158659223Y-116794781D01*
X158464534Y-116731522D01*
X158289995Y-116703878D01*
X158262352Y-116699500D01*
X158057648Y-116699500D01*
X158033329Y-116703351D01*
X157855465Y-116731522D01*
X157660776Y-116794781D01*
X157478386Y-116887715D01*
X157312786Y-117008028D01*
X157168028Y-117152786D01*
X157047715Y-117318386D01*
X156954781Y-117500776D01*
X156891522Y-117695465D01*
X156859500Y-117897648D01*
X148386685Y-117897648D01*
X148372741Y-117845606D01*
X148320080Y-117754394D01*
X148315686Y-117750000D01*
X149300000Y-117750000D01*
X149300000Y-117152172D01*
X149299999Y-117152155D01*
X149293598Y-117092627D01*
X149293596Y-117092620D01*
X149243354Y-116957913D01*
X149243350Y-116957906D01*
X149157190Y-116842812D01*
X149157187Y-116842809D01*
X149042093Y-116756649D01*
X149042086Y-116756645D01*
X148907379Y-116706403D01*
X148907372Y-116706401D01*
X148847844Y-116700000D01*
X148250000Y-116700000D01*
X148250000Y-117684314D01*
X148245606Y-117679920D01*
X148154394Y-117627259D01*
X148052661Y-117600000D01*
X147947339Y-117600000D01*
X147845606Y-117627259D01*
X147754394Y-117679920D01*
X147750000Y-117684314D01*
X147750000Y-116700000D01*
X147152155Y-116700000D01*
X147092627Y-116706401D01*
X147092620Y-116706403D01*
X146957913Y-116756645D01*
X146957906Y-116756649D01*
X146842812Y-116842809D01*
X146842809Y-116842812D01*
X146756649Y-116957906D01*
X146756645Y-116957913D01*
X146706403Y-117092620D01*
X146706401Y-117092627D01*
X146700000Y-117152155D01*
X138361913Y-117152155D01*
X138419786Y-117110109D01*
X138419788Y-117110106D01*
X138419792Y-117110104D01*
X138570104Y-116959792D01*
X138570106Y-116959788D01*
X138570109Y-116959786D01*
X138695048Y-116787820D01*
X138695047Y-116787820D01*
X138695051Y-116787816D01*
X138791557Y-116598412D01*
X138857246Y-116396243D01*
X138890500Y-116186287D01*
X138890500Y-115973713D01*
X138857246Y-115763757D01*
X138791557Y-115561588D01*
X138695051Y-115372184D01*
X138695049Y-115372181D01*
X138695048Y-115372179D01*
X138570109Y-115200213D01*
X138419786Y-115049890D01*
X138247820Y-114924951D01*
X138247115Y-114924591D01*
X138239054Y-114920485D01*
X138188259Y-114872512D01*
X138171463Y-114804692D01*
X138193999Y-114738556D01*
X138239054Y-114699515D01*
X138247816Y-114695051D01*
X138353388Y-114618349D01*
X138419786Y-114570109D01*
X138419788Y-114570106D01*
X138419792Y-114570104D01*
X138570104Y-114419792D01*
X138570106Y-114419788D01*
X138570109Y-114419786D01*
X138695048Y-114247820D01*
X138695047Y-114247820D01*
X138695051Y-114247816D01*
X138791557Y-114058412D01*
X138857246Y-113856243D01*
X138890500Y-113646287D01*
X138890500Y-113433713D01*
X138857246Y-113223757D01*
X138791557Y-113021588D01*
X138695051Y-112832184D01*
X138695049Y-112832181D01*
X138695048Y-112832179D01*
X138570109Y-112660213D01*
X138419786Y-112509890D01*
X138247820Y-112384951D01*
X138247115Y-112384591D01*
X138239054Y-112380485D01*
X138188259Y-112332512D01*
X138171463Y-112264692D01*
X138193999Y-112198556D01*
X138223934Y-112168630D01*
X138231168Y-112163533D01*
X138247816Y-112155051D01*
X138419792Y-112030104D01*
X138570104Y-111879792D01*
X138570106Y-111879788D01*
X138570109Y-111879786D01*
X138695048Y-111707820D01*
X138695047Y-111707820D01*
X138695051Y-111707816D01*
X138791557Y-111518412D01*
X138857246Y-111316243D01*
X138890500Y-111106287D01*
X138890500Y-110893713D01*
X138857246Y-110683757D01*
X138791557Y-110481588D01*
X138695051Y-110292184D01*
X138695049Y-110292181D01*
X138695048Y-110292179D01*
X138570109Y-110120213D01*
X138419786Y-109969890D01*
X138247820Y-109844951D01*
X138058414Y-109748444D01*
X138058413Y-109748443D01*
X138058412Y-109748443D01*
X137856243Y-109682754D01*
X137856241Y-109682753D01*
X137856240Y-109682753D01*
X137694957Y-109657208D01*
X137646287Y-109649500D01*
X137433713Y-109649500D01*
X137385042Y-109657208D01*
X137223760Y-109682753D01*
X137021585Y-109748444D01*
X136832179Y-109844951D01*
X136660215Y-109969889D01*
X136546673Y-110083431D01*
X136485350Y-110116915D01*
X136415658Y-110111931D01*
X136359725Y-110070059D01*
X136342810Y-110039082D01*
X136293797Y-109907671D01*
X136293793Y-109907664D01*
X136207547Y-109792455D01*
X136207544Y-109792452D01*
X136092335Y-109706206D01*
X136092328Y-109706202D01*
X135957482Y-109655908D01*
X135957483Y-109655908D01*
X135897883Y-109649501D01*
X135897881Y-109649500D01*
X135897873Y-109649500D01*
X135897864Y-109649500D01*
X134102129Y-109649500D01*
X134102123Y-109649501D01*
X134042516Y-109655908D01*
X133907671Y-109706202D01*
X133907664Y-109706206D01*
X133792455Y-109792452D01*
X133792452Y-109792455D01*
X133706206Y-109907664D01*
X133706202Y-109907671D01*
X133655908Y-110042517D01*
X133649501Y-110102116D01*
X133649500Y-110102135D01*
X133649500Y-111897870D01*
X133649501Y-111897876D01*
X133655908Y-111957483D01*
X133706202Y-112092328D01*
X133706206Y-112092335D01*
X133792452Y-112207544D01*
X133792455Y-112207547D01*
X133907664Y-112293793D01*
X133907671Y-112293797D01*
X134039082Y-112342810D01*
X134095016Y-112384681D01*
X134119433Y-112450145D01*
X134104582Y-112518418D01*
X134083431Y-112546673D01*
X133969889Y-112660215D01*
X133844951Y-112832179D01*
X133748444Y-113021585D01*
X133682753Y-113223760D01*
X133649500Y-113433713D01*
X133649500Y-113646286D01*
X133681423Y-113847844D01*
X133682754Y-113856243D01*
X133743138Y-114042086D01*
X133748444Y-114058414D01*
X133844951Y-114247820D01*
X133969890Y-114419786D01*
X134120213Y-114570109D01*
X134292182Y-114695050D01*
X134300946Y-114699516D01*
X134351742Y-114747491D01*
X134368536Y-114815312D01*
X134345998Y-114881447D01*
X134300946Y-114920484D01*
X134292182Y-114924949D01*
X134120213Y-115049890D01*
X133969890Y-115200213D01*
X133844951Y-115372179D01*
X133748444Y-115561585D01*
X133682753Y-115763760D01*
X133649500Y-115973713D01*
X133649500Y-116186286D01*
X133672508Y-116331557D01*
X133682754Y-116396243D01*
X133716214Y-116499223D01*
X133748444Y-116598414D01*
X133844951Y-116787820D01*
X133969890Y-116959786D01*
X134120213Y-117110109D01*
X134292182Y-117235050D01*
X134300946Y-117239516D01*
X134351742Y-117287491D01*
X134368536Y-117355312D01*
X134345998Y-117421447D01*
X134300946Y-117460484D01*
X134292182Y-117464949D01*
X134120213Y-117589890D01*
X133969890Y-117740213D01*
X133844951Y-117912179D01*
X133748444Y-118101585D01*
X133682753Y-118303760D01*
X133672262Y-118370000D01*
X133649500Y-118513713D01*
X133649500Y-118726287D01*
X133654239Y-118756206D01*
X133675067Y-118887713D01*
X133682754Y-118936243D01*
X133739954Y-119112287D01*
X133748444Y-119138414D01*
X133844951Y-119327820D01*
X133969890Y-119499786D01*
X134120213Y-119650109D01*
X134292182Y-119775050D01*
X134300946Y-119779516D01*
X134351742Y-119827491D01*
X134368536Y-119895312D01*
X134345998Y-119961447D01*
X134300946Y-120000484D01*
X134292182Y-120004949D01*
X134120213Y-120129890D01*
X134120209Y-120129894D01*
X133986678Y-120263426D01*
X133925355Y-120296911D01*
X133855663Y-120291927D01*
X133811316Y-120263426D01*
X129156450Y-115608560D01*
X129149160Y-115601270D01*
X129149158Y-115601267D01*
X129062033Y-115514142D01*
X129010809Y-115479915D01*
X128959586Y-115445688D01*
X128959583Y-115445686D01*
X128959580Y-115445685D01*
X128885903Y-115415168D01*
X128885901Y-115415167D01*
X128879092Y-115412347D01*
X128845752Y-115398537D01*
X128785329Y-115386518D01*
X128780606Y-115385578D01*
X128780604Y-115385578D01*
X128724910Y-115374500D01*
X128724907Y-115374500D01*
X128724906Y-115374500D01*
X119376115Y-115374500D01*
X119309076Y-115354815D01*
X119276393Y-115321428D01*
X119275151Y-115322331D01*
X119151971Y-115152786D01*
X119007213Y-115008028D01*
X118841613Y-114887715D01*
X118841612Y-114887714D01*
X118841610Y-114887713D01*
X118784653Y-114858691D01*
X118659223Y-114794781D01*
X118464534Y-114731522D01*
X118289995Y-114703878D01*
X118262352Y-114699500D01*
X118057648Y-114699500D01*
X118033329Y-114703351D01*
X117855465Y-114731522D01*
X117660776Y-114794781D01*
X117478386Y-114887715D01*
X117312786Y-115008028D01*
X117168028Y-115152786D01*
X117047715Y-115318386D01*
X116954781Y-115500776D01*
X116891522Y-115695465D01*
X116859500Y-115897648D01*
X109300499Y-115897648D01*
X109300499Y-115152128D01*
X109294091Y-115092517D01*
X109278194Y-115049896D01*
X109243797Y-114957671D01*
X109243793Y-114957664D01*
X109157547Y-114842455D01*
X109157544Y-114842452D01*
X109042335Y-114756206D01*
X109042328Y-114756202D01*
X108907482Y-114705908D01*
X108907483Y-114705908D01*
X108847883Y-114699501D01*
X108847881Y-114699500D01*
X108847873Y-114699500D01*
X108847864Y-114699500D01*
X107152129Y-114699500D01*
X107152123Y-114699501D01*
X107092516Y-114705908D01*
X106957671Y-114756202D01*
X106957664Y-114756206D01*
X106842455Y-114842452D01*
X106842452Y-114842455D01*
X106756206Y-114957664D01*
X106756202Y-114957671D01*
X106705908Y-115092517D01*
X106699501Y-115152116D01*
X106699501Y-115152123D01*
X106699500Y-115152135D01*
X100300500Y-115152135D01*
X100300500Y-109881902D01*
X112499500Y-109881902D01*
X112499500Y-110118097D01*
X112536446Y-110351368D01*
X112609433Y-110575996D01*
X112716657Y-110786433D01*
X112855483Y-110977510D01*
X113022490Y-111144517D01*
X113213567Y-111283343D01*
X113278129Y-111316239D01*
X113424003Y-111390566D01*
X113424005Y-111390566D01*
X113424008Y-111390568D01*
X113544412Y-111429689D01*
X113648631Y-111463553D01*
X113881903Y-111500500D01*
X113881908Y-111500500D01*
X114118097Y-111500500D01*
X114351368Y-111463553D01*
X114575992Y-111390568D01*
X114786433Y-111283343D01*
X114977510Y-111144517D01*
X115144517Y-110977510D01*
X115283343Y-110786433D01*
X115390568Y-110575992D01*
X115463553Y-110351368D01*
X115472928Y-110292179D01*
X115500500Y-110118097D01*
X115500500Y-109881902D01*
X115463553Y-109648631D01*
X115402656Y-109461211D01*
X115390568Y-109424008D01*
X115390566Y-109424005D01*
X115390566Y-109424003D01*
X115334002Y-109312991D01*
X115283343Y-109213567D01*
X115144517Y-109022490D01*
X114977510Y-108855483D01*
X114786433Y-108716657D01*
X114719893Y-108682753D01*
X114575996Y-108609433D01*
X114351368Y-108536446D01*
X114118097Y-108499500D01*
X114118092Y-108499500D01*
X113881908Y-108499500D01*
X113881903Y-108499500D01*
X113648631Y-108536446D01*
X113424003Y-108609433D01*
X113213566Y-108716657D01*
X113109244Y-108792452D01*
X113022490Y-108855483D01*
X113022488Y-108855485D01*
X113022487Y-108855485D01*
X112855485Y-109022487D01*
X112855485Y-109022488D01*
X112855483Y-109022490D01*
X112820922Y-109070059D01*
X112716657Y-109213566D01*
X112609433Y-109424003D01*
X112536446Y-109648631D01*
X112499500Y-109881902D01*
X100300500Y-109881902D01*
X100300500Y-105550318D01*
X100320185Y-105483279D01*
X100372989Y-105437524D01*
X100442147Y-105427580D01*
X100505703Y-105456605D01*
X100512181Y-105462637D01*
X100646367Y-105596823D01*
X100646372Y-105596827D01*
X100646373Y-105596828D01*
X100912240Y-105815019D01*
X101198213Y-106006100D01*
X101198222Y-106006105D01*
X101198224Y-106006106D01*
X101501530Y-106168227D01*
X101501532Y-106168227D01*
X101501538Y-106168231D01*
X101819295Y-106299850D01*
X102148422Y-106399690D01*
X102485750Y-106466789D01*
X102828031Y-106500500D01*
X102828034Y-106500500D01*
X103171966Y-106500500D01*
X103171969Y-106500500D01*
X103514250Y-106466789D01*
X103851578Y-106399690D01*
X104180705Y-106299850D01*
X104498462Y-106168231D01*
X104801787Y-106006100D01*
X105087760Y-105815019D01*
X105353627Y-105596828D01*
X105596828Y-105353627D01*
X105815019Y-105087760D01*
X106006100Y-104801787D01*
X106168231Y-104498462D01*
X106299850Y-104180705D01*
X106369180Y-103952155D01*
X109500000Y-103952155D01*
X109500000Y-104750000D01*
X110566988Y-104750000D01*
X110534075Y-104807007D01*
X110500000Y-104934174D01*
X110500000Y-105065826D01*
X110534075Y-105192993D01*
X110566988Y-105250000D01*
X109500000Y-105250000D01*
X109500000Y-106047844D01*
X109506401Y-106107372D01*
X109506403Y-106107379D01*
X109556645Y-106242086D01*
X109556649Y-106242093D01*
X109642809Y-106357187D01*
X109642812Y-106357190D01*
X109757906Y-106443350D01*
X109757913Y-106443354D01*
X109892620Y-106493596D01*
X109892627Y-106493598D01*
X109952155Y-106499999D01*
X109952172Y-106500000D01*
X110750000Y-106500000D01*
X110750000Y-105433012D01*
X110807007Y-105465925D01*
X110934174Y-105500000D01*
X111065826Y-105500000D01*
X111192993Y-105465925D01*
X111250000Y-105433012D01*
X111250000Y-106500000D01*
X112047828Y-106500000D01*
X112047844Y-106499999D01*
X112107372Y-106493598D01*
X112107379Y-106493596D01*
X112242086Y-106443354D01*
X112242093Y-106443350D01*
X112357187Y-106357190D01*
X112357190Y-106357187D01*
X112443350Y-106242093D01*
X112443354Y-106242086D01*
X112493596Y-106107379D01*
X112493598Y-106107372D01*
X112499999Y-106047844D01*
X112500000Y-106047827D01*
X112500000Y-105250000D01*
X111433012Y-105250000D01*
X111465925Y-105192993D01*
X111500000Y-105065826D01*
X111500000Y-104934174D01*
X111465925Y-104807007D01*
X111433012Y-104750000D01*
X112500000Y-104750000D01*
X115520898Y-104750000D01*
X116566988Y-104750000D01*
X116534075Y-104807007D01*
X116500000Y-104934174D01*
X116500000Y-105065826D01*
X116534075Y-105192993D01*
X116566988Y-105250000D01*
X115520898Y-105250000D01*
X115536934Y-105351247D01*
X115609897Y-105575802D01*
X115717085Y-105786171D01*
X115855866Y-105977186D01*
X116022813Y-106144133D01*
X116213828Y-106282914D01*
X116424195Y-106390102D01*
X116648744Y-106463063D01*
X116648750Y-106463065D01*
X116750000Y-106479101D01*
X116750000Y-105433012D01*
X116807007Y-105465925D01*
X116934174Y-105500000D01*
X117065826Y-105500000D01*
X117192993Y-105465925D01*
X117250000Y-105433012D01*
X117250000Y-106479100D01*
X117351249Y-106463065D01*
X117351255Y-106463063D01*
X117575804Y-106390102D01*
X117786171Y-106282914D01*
X117977186Y-106144133D01*
X118144133Y-105977186D01*
X118282914Y-105786171D01*
X118390102Y-105575802D01*
X118463065Y-105351247D01*
X118479102Y-105250000D01*
X117433012Y-105250000D01*
X117465925Y-105192993D01*
X117500000Y-105065826D01*
X117500000Y-104934174D01*
X117465925Y-104807007D01*
X117433012Y-104750000D01*
X118479102Y-104750000D01*
X118463065Y-104648752D01*
X118390102Y-104424197D01*
X118303858Y-104254933D01*
X118303857Y-104254931D01*
X118282916Y-104213830D01*
X118144133Y-104022813D01*
X117977186Y-103855866D01*
X117786171Y-103717085D01*
X117575802Y-103609897D01*
X117351247Y-103536934D01*
X117250000Y-103520897D01*
X117250000Y-104566988D01*
X117192993Y-104534075D01*
X117065826Y-104500000D01*
X116934174Y-104500000D01*
X116807007Y-104534075D01*
X116750000Y-104566988D01*
X116750000Y-103520897D01*
X116648752Y-103536934D01*
X116424197Y-103609897D01*
X116213828Y-103717085D01*
X116022813Y-103855866D01*
X115855866Y-104022813D01*
X115717085Y-104213828D01*
X115609897Y-104424197D01*
X115536934Y-104648752D01*
X115520898Y-104750000D01*
X112500000Y-104750000D01*
X112500000Y-103952172D01*
X112499999Y-103952155D01*
X112493598Y-103892627D01*
X112493596Y-103892620D01*
X112443354Y-103757913D01*
X112443350Y-103757906D01*
X112357190Y-103642812D01*
X112357187Y-103642809D01*
X112242093Y-103556649D01*
X112242086Y-103556645D01*
X112107379Y-103506403D01*
X112107372Y-103506401D01*
X112047844Y-103500000D01*
X111250000Y-103500000D01*
X111250000Y-104566988D01*
X111192993Y-104534075D01*
X111065826Y-104500000D01*
X110934174Y-104500000D01*
X110807007Y-104534075D01*
X110750000Y-104566988D01*
X110750000Y-103500000D01*
X109952155Y-103500000D01*
X109892627Y-103506401D01*
X109892620Y-103506403D01*
X109757913Y-103556645D01*
X109757906Y-103556649D01*
X109642812Y-103642809D01*
X109642809Y-103642812D01*
X109556649Y-103757906D01*
X109556645Y-103757913D01*
X109506403Y-103892620D01*
X109506401Y-103892627D01*
X109500000Y-103952155D01*
X106369180Y-103952155D01*
X106399690Y-103851578D01*
X106466789Y-103514250D01*
X106500500Y-103171969D01*
X106500500Y-103152155D01*
X123700000Y-103152155D01*
X123700000Y-103750000D01*
X124684314Y-103750000D01*
X124679920Y-103754394D01*
X124627259Y-103845606D01*
X124600000Y-103947339D01*
X124600000Y-104052661D01*
X124627259Y-104154394D01*
X124679920Y-104245606D01*
X124684314Y-104250000D01*
X123700000Y-104250000D01*
X123700000Y-104847844D01*
X123706401Y-104907372D01*
X123706403Y-104907379D01*
X123756645Y-105042086D01*
X123756649Y-105042093D01*
X123842809Y-105157187D01*
X123842812Y-105157190D01*
X123957906Y-105243350D01*
X123957913Y-105243354D01*
X124092620Y-105293596D01*
X124092627Y-105293598D01*
X124152155Y-105299999D01*
X124152172Y-105300000D01*
X124750000Y-105300000D01*
X124750000Y-104315686D01*
X124754394Y-104320080D01*
X124845606Y-104372741D01*
X124947339Y-104400000D01*
X125052661Y-104400000D01*
X125154394Y-104372741D01*
X125245606Y-104320080D01*
X125250000Y-104315686D01*
X125250000Y-105300000D01*
X125847828Y-105300000D01*
X125847844Y-105299999D01*
X125907372Y-105293598D01*
X125907379Y-105293596D01*
X126042086Y-105243354D01*
X126042088Y-105243352D01*
X126157186Y-105157190D01*
X126157187Y-105157190D01*
X126163473Y-105148793D01*
X126219405Y-105106920D01*
X126289097Y-105101934D01*
X126319032Y-105112614D01*
X126390037Y-105148793D01*
X126500776Y-105205218D01*
X126500778Y-105205218D01*
X126500781Y-105205220D01*
X126604536Y-105238932D01*
X126695465Y-105268477D01*
X126796557Y-105284488D01*
X126897648Y-105300500D01*
X126897649Y-105300500D01*
X127102351Y-105300500D01*
X127102352Y-105300500D01*
X127304534Y-105268477D01*
X127499219Y-105205220D01*
X127681610Y-105112287D01*
X127778234Y-105042086D01*
X127847213Y-104991971D01*
X127847215Y-104991968D01*
X127847219Y-104991966D01*
X127991966Y-104847219D01*
X127991968Y-104847215D01*
X127991971Y-104847213D01*
X128062599Y-104750000D01*
X128112287Y-104681610D01*
X128205220Y-104499219D01*
X128268477Y-104304534D01*
X128300500Y-104102352D01*
X128300500Y-103897648D01*
X128278367Y-103757906D01*
X128268477Y-103695465D01*
X128237458Y-103600000D01*
X128205220Y-103500781D01*
X128205218Y-103500778D01*
X128205218Y-103500776D01*
X128112287Y-103318390D01*
X128042032Y-103221691D01*
X128042031Y-103221688D01*
X127991971Y-103152787D01*
X127991967Y-103152782D01*
X127991320Y-103152135D01*
X130699500Y-103152135D01*
X130699500Y-104847870D01*
X130699501Y-104847876D01*
X130705908Y-104907483D01*
X130756202Y-105042328D01*
X130756206Y-105042335D01*
X130842452Y-105157544D01*
X130842455Y-105157547D01*
X130957664Y-105243793D01*
X130957671Y-105243797D01*
X131092517Y-105294091D01*
X131092516Y-105294091D01*
X131099444Y-105294835D01*
X131152127Y-105300500D01*
X132847872Y-105300499D01*
X132907483Y-105294091D01*
X133042331Y-105243796D01*
X133048829Y-105238931D01*
X133114290Y-105214511D01*
X133182564Y-105229360D01*
X133210824Y-105250514D01*
X133485739Y-105525429D01*
X133485742Y-105525433D01*
X133572867Y-105612558D01*
X133624090Y-105646784D01*
X133675314Y-105681012D01*
X133675315Y-105681012D01*
X133675316Y-105681013D01*
X133748990Y-105711529D01*
X133748994Y-105711530D01*
X133755807Y-105714352D01*
X133789148Y-105728163D01*
X133849571Y-105740181D01*
X133909993Y-105752200D01*
X144968207Y-105752200D01*
X145028629Y-105740181D01*
X145089052Y-105728163D01*
X145122392Y-105714352D01*
X145202886Y-105681012D01*
X145254109Y-105646784D01*
X145305333Y-105612558D01*
X145392458Y-105525433D01*
X145392458Y-105525431D01*
X145402666Y-105515224D01*
X145402667Y-105515221D01*
X146031672Y-104886216D01*
X146092994Y-104852733D01*
X146162686Y-104857717D01*
X146207033Y-104886218D01*
X146312786Y-104991971D01*
X146444638Y-105087765D01*
X146478390Y-105112287D01*
X146566517Y-105157190D01*
X146660776Y-105205218D01*
X146660778Y-105205218D01*
X146660781Y-105205220D01*
X146764536Y-105238932D01*
X146855465Y-105268477D01*
X146956557Y-105284488D01*
X147057648Y-105300500D01*
X147057649Y-105300500D01*
X147262351Y-105300500D01*
X147262352Y-105300500D01*
X147464534Y-105268477D01*
X147659219Y-105205220D01*
X147841610Y-105112287D01*
X147938234Y-105042086D01*
X148007213Y-104991971D01*
X148007215Y-104991968D01*
X148007219Y-104991966D01*
X148151966Y-104847219D01*
X148151968Y-104847215D01*
X148151971Y-104847213D01*
X148222599Y-104750000D01*
X148272287Y-104681610D01*
X148365220Y-104499219D01*
X148428477Y-104304534D01*
X148460500Y-104102352D01*
X148460500Y-103897648D01*
X148438367Y-103757906D01*
X148428477Y-103695465D01*
X148397458Y-103600000D01*
X148365220Y-103500781D01*
X148365218Y-103500778D01*
X148365218Y-103500776D01*
X148313123Y-103398535D01*
X148272287Y-103318390D01*
X148264556Y-103307749D01*
X148151971Y-103152786D01*
X148007213Y-103008028D01*
X147841613Y-102887715D01*
X147841612Y-102887714D01*
X147841610Y-102887713D01*
X147753487Y-102842812D01*
X147659223Y-102794781D01*
X147464534Y-102731522D01*
X147289995Y-102703878D01*
X147262352Y-102699500D01*
X147057648Y-102699500D01*
X147033329Y-102703351D01*
X146855465Y-102731522D01*
X146660776Y-102794781D01*
X146478386Y-102887715D01*
X146312786Y-103008028D01*
X146168028Y-103152786D01*
X146047707Y-103318396D01*
X146047440Y-103318833D01*
X146047295Y-103318963D01*
X146044849Y-103322331D01*
X146044141Y-103321816D01*
X145995623Y-103365703D01*
X145965911Y-103375649D01*
X145850855Y-103398535D01*
X145850847Y-103398537D01*
X145737016Y-103445687D01*
X145654565Y-103500780D01*
X145634566Y-103514142D01*
X145634560Y-103514147D01*
X144683829Y-104464881D01*
X144622506Y-104498366D01*
X144596148Y-104501200D01*
X138424500Y-104501200D01*
X138357461Y-104481515D01*
X138311706Y-104428711D01*
X138300500Y-104377200D01*
X138300499Y-103152129D01*
X138300498Y-103152123D01*
X138300497Y-103152116D01*
X138294091Y-103092517D01*
X138243884Y-102957906D01*
X138243797Y-102957671D01*
X138243793Y-102957664D01*
X138157547Y-102842455D01*
X138157544Y-102842452D01*
X138042335Y-102756206D01*
X138042328Y-102756202D01*
X137907482Y-102705908D01*
X137907483Y-102705908D01*
X137847883Y-102699501D01*
X137847881Y-102699500D01*
X137847873Y-102699500D01*
X137847864Y-102699500D01*
X136152129Y-102699500D01*
X136152123Y-102699501D01*
X136092516Y-102705908D01*
X135957671Y-102756202D01*
X135957664Y-102756206D01*
X135842455Y-102842452D01*
X135842452Y-102842455D01*
X135756206Y-102957664D01*
X135756202Y-102957671D01*
X135709713Y-103082317D01*
X135667842Y-103138251D01*
X135602378Y-103162668D01*
X135534105Y-103147816D01*
X135505850Y-103126665D01*
X135387213Y-103008028D01*
X135221613Y-102887715D01*
X135221612Y-102887714D01*
X135221610Y-102887713D01*
X135133487Y-102842812D01*
X135039223Y-102794781D01*
X134844534Y-102731522D01*
X134669995Y-102703878D01*
X134642352Y-102699500D01*
X134437648Y-102699500D01*
X134413329Y-102703351D01*
X134235465Y-102731522D01*
X134040776Y-102794781D01*
X133858386Y-102887715D01*
X133692786Y-103008028D01*
X133548032Y-103152782D01*
X133521668Y-103189070D01*
X133466338Y-103231735D01*
X133396724Y-103237714D01*
X133334929Y-103205108D01*
X133300572Y-103144269D01*
X133298060Y-103129438D01*
X133297640Y-103125533D01*
X133294091Y-103092517D01*
X133243887Y-102957913D01*
X133243797Y-102957671D01*
X133243793Y-102957664D01*
X133157547Y-102842455D01*
X133157544Y-102842452D01*
X133042335Y-102756206D01*
X133042328Y-102756202D01*
X132907482Y-102705908D01*
X132907483Y-102705908D01*
X132847883Y-102699501D01*
X132847881Y-102699500D01*
X132847873Y-102699500D01*
X132847864Y-102699500D01*
X131152129Y-102699500D01*
X131152123Y-102699501D01*
X131092516Y-102705908D01*
X130957671Y-102756202D01*
X130957664Y-102756206D01*
X130842455Y-102842452D01*
X130842452Y-102842455D01*
X130756206Y-102957664D01*
X130756202Y-102957671D01*
X130705908Y-103092517D01*
X130701939Y-103129438D01*
X130699501Y-103152123D01*
X130699500Y-103152135D01*
X127991320Y-103152135D01*
X127847213Y-103008028D01*
X127681613Y-102887715D01*
X127681612Y-102887714D01*
X127681610Y-102887713D01*
X127593487Y-102842812D01*
X127499223Y-102794781D01*
X127304534Y-102731522D01*
X127129995Y-102703878D01*
X127102352Y-102699500D01*
X126897648Y-102699500D01*
X126873329Y-102703351D01*
X126695465Y-102731522D01*
X126500776Y-102794781D01*
X126319037Y-102887383D01*
X126250368Y-102900279D01*
X126185627Y-102874003D01*
X126163475Y-102851209D01*
X126157187Y-102842810D01*
X126157186Y-102842809D01*
X126042088Y-102756647D01*
X126042086Y-102756645D01*
X125907379Y-102706403D01*
X125907372Y-102706401D01*
X125847844Y-102700000D01*
X125250000Y-102700000D01*
X125250000Y-103684314D01*
X125245606Y-103679920D01*
X125154394Y-103627259D01*
X125052661Y-103600000D01*
X124947339Y-103600000D01*
X124845606Y-103627259D01*
X124754394Y-103679920D01*
X124750000Y-103684314D01*
X124750000Y-102700000D01*
X124152155Y-102700000D01*
X124092627Y-102706401D01*
X124092620Y-102706403D01*
X123957913Y-102756645D01*
X123957906Y-102756649D01*
X123842812Y-102842809D01*
X123842809Y-102842812D01*
X123756649Y-102957906D01*
X123756645Y-102957913D01*
X123706403Y-103092620D01*
X123706401Y-103092627D01*
X123700000Y-103152155D01*
X106500500Y-103152155D01*
X106500500Y-102828031D01*
X106466789Y-102485750D01*
X106399690Y-102148422D01*
X106299850Y-101819295D01*
X106168231Y-101501538D01*
X106006100Y-101198213D01*
X105815019Y-100912240D01*
X105596828Y-100646373D01*
X105596827Y-100646372D01*
X105596823Y-100646367D01*
X105462637Y-100512181D01*
X105429152Y-100450858D01*
X105434136Y-100381166D01*
X105476008Y-100325233D01*
X105541472Y-100300816D01*
X105550318Y-100300500D01*
X164449682Y-100300500D01*
X164470927Y-100306738D01*
G37*
%TD.AperFunction*%
%TD*%
M02*
